<svg class="{{ include.class }}" alt="{{ include.alt }}" parallax={{ include.parallax }} xmlns="http://www.w3.org/2000/svg" width="472.7" height="1003.1" viewBox="0 0 472.7 1003.1">
  <g class="lady-lower">
    <path fill="#FFF" d="M182 636.4s-44.4 289.4-68 333.8c-14.8 17.7-24.2-8.4-23.6-11.2.6-2.8 22.5-329.3 22.5-329.3s56.1-10.4 69.1 6.7zm3-29.9s17.4 248.3 10.7 347.2c1.7 6.7 6.7 11.8 18 7.9 11.2-3.9 13.5-64.1 16.3-81 2.8-16.9 23.1-215.5 20.8-283.5-2.2-67.9-61.3-6.6-65.8 9.4z"/>
    <path fill="#CB7428" d="M297.2 970.4c7.3.7 23.4-.7 22.7-6-.7-5.3-4.3-18.1-11.6-17.4-7.3.7-57.5-1.4-69.2-10-11.8-8.7 5.1-82.2 3.1-134.9-38 .7-54.4 0-54.4 0s-1.3 131.7-2.6 141.7-8.7 30 4.7 30l107.3-3.4z"/>
    <path fill="#CB7428" d="M197.9 999.8c7.3.7 23.4-.7 22.7-6-.7-5.3-1.5-18.1-8.8-17.5-7.3.7-46.2-2.3-60.2-6.6-33.5-10.1 1.8-98-.2-150.7-38 .7-57.1 0-57.1 0s-7.1 144-8.5 154c-1.3 10-8.7 30 4.7 30l107.4-3.2z"/>
    <path fill="#F0CFBA" d="M264 781.9s-18.2-209.8-8.6-281L95.9 512.8l-1.8 277.4"/>
  </g>
  <g class="lady-upper">
    <path fill="#FFF" d="M358.7 373.4c20.4-1.8 26.1.1 34.9-3.2 8.8-3.3 19.2-6.2 27.2-18.5s9.4-17.5 11.7-19.4c2.4-1.9 5.1.8 1.9 7.6-3.1 6.8-8.5 13.4-6.8 13.8 1.7.4 21.2-9.7 27.4-17.4 1.2-1.1 3.3-1.4 1.4 2.9S441.7 355 441.7 355s-4.2 3.6-.4 2.7c3.8-1 18.5-10.4 21.5-15.1 3-4.7 5.6-2.2 3.8 1.4-1.8 3.6-14.9 16.7-20 17.7-5.1 1.1-1.9 3.8 4.1.4 6-3.5 15.2-10.6 17.5-14.7 2.3-4.1 5.4 1.5-.3 7.4-5.8 5.9-17 15.2-20 15.8-3 .7-.9 5.3 7.2.4 8.1-4.8 18.7-13.4 17.2-9.8-1.5 3.5-18.8 22.1-44.2 28.8-25.4 6.7-77.1 8.9-92.3 9.8m-188.2-173c6.1-16.5 35-67.3 35-67.3l-.8-5.1c-.8-18.2-13.2-23.7 20-32.8 33.2-9.1 33.1-75.3 33.1-75.3l61.9 8.7s1.2 34.9-5.4 50.1c-6.6 15.2.1 37.4 1.7 40.9 1.6 3.5-3.1 6-5.3 6.2-2.2.2-7.8-.1-8.2 3.1 0 0-.5 4.4-7.3 2-14-4.9 6 6.8 2.4 7.6-3.6.8-4.9 19.5-14.5 17.2-9.5-2.3-16.4-3.7-27.9-12.1 0 0-28.4 58.1-31.9 72.3l-52.8-15.5z"/>
    <path fill="#4356A0" d="M165.2 236.5c2.6 5.4 72.4 181.5 99.3 189.2 26.9 7.7 125.5-28.9 125.5-28.9l-8.9-26.9s-82.9 15.2-95.9 6.1l-53.3-109.7"/>
    <path fill="#5AC1AE" d="M86.1 597.1s183.5-37.4 187.3-67.8c3.8-30.4-5.7-211.7-5.7-211.7s-35.3-114.7-40.6-122.7c-5.3-8-68.4-15.7-68.4-15.7l-7.5 35.6s-98.8-28.3-65.1 382.3z"/>
    <path fill-rule="evenodd" clip-rule="evenodd" fill="#5B5B5C" d="M181.4 584.6c-3.2 7.1 5.7 11.9 5.7 11.9 5.5 3.7 12.9 3.5 21.9 0 13.4-5.2 21.9-13.4 27.9-23.2 3.5-5.7 4.9-10.5 8.2-16.2 0 0 1.9-3.7.9-5.8-1-2.1-5.1-2.9-5.1-2.9-6.5-1.1-11.1-2.9-17.8-3.8-11.4-1.5-23.1 0-35.5 7.2-8.3 4.8-13.1 10.4-13.7 17 0 0-1.9 10 5.7 11.9l1.8 3.9z"/>
    <path fill-rule="evenodd" clip-rule="evenodd" fill="#A9AAAA" d="M164.6 594.1c-.7.3-1.4.1-1.7-.5l-2.2-4.5c-.3-.6 0-1.3.7-1.6l29.4-14.1c.7-.3 23-8.7 23.3-8.1l.3 1.3c.3.6-19.8 13.2-20.5 13.5l-29.3 14z"/>
    <path fill-rule="evenodd" clip-rule="evenodd" fill="#CC7428" d="M125.9 614.3c-.8.4-1.7.5-1.8.1l-3.9-8.2c-.2-.3.4-.9 1.2-1.3l46-22c.8-.4 1.7-.5 1.8-.1l3.9 8.2c.2.3-.4.9-1.2 1.3l-46 22z"/>
    <path fill="#FFF" d="M85.3 531.5c21.6 11.5 39.8 20.9 42.9 22.8 7.6 4.6 2.8 28.2 8.8 36.6 6 8.4 24.2 10.1 33.5 11.4 9.3 1.3 7-2.5 8.6-6.3 1.6-3.8-2.9-1.1-7.7-10.4-4.8-9.3-4.4-14.2 6.2-5.8 0 0-5-4.2-3.7-11.1.9-4.8 1.5-1.6-1.6-5.9-7.5-10.4-4.5-9.2-12.6-17.9s-58.1-38.5-58.1-38.5"/>
    <path fill="#4356A0" d="M126.8 242.6s13.4-14.1 33.2-6.9c19.8 7.2 33.7 47.4-6.2 84.4l-100.4 112c-1.5 15.7 75.5 89.4 75.5 89.4l-34.7 24.2S6.5 465.7 0 438.5"/>
    <path fill="#DDDBD9" d="M104.3 90.4c3-10.1 9.6-18.1 17.9-23-4.3-7-5.8-15.8-3.2-24.5 4.7-15.7 20.7-24.8 35.8-20.3 1.6.5 3.1 1.1 4.5 1.8 8.2-9.4 18.6-13 29.7-13.1 6.6-9.2 18.2-13.7 29.3-10.4 6.2 1.8 11.2 5.8 14.5 10.9 6.7-2.1 14.1-2.4 21.3-.2 8.7 2.6 15.6 8.1 20.3 15.3 3.3-1.2 6.9-1.4 10.4-.4 7.5 2.2 12.2 9.3 11.9 17 7 .8 13 5.2 13.5 17.2 1 26.4-35.3 19.2-35.3 19.2s-12.5 21.7-31.5 20.3c-2.8 5.5-13.2 28.1-37.6 23-3.7 8.4-5.8 53.4-41.5 49.3-7.1 7.7-17.9 11.2-28.3 8.1-14.8-4.4-23-20.4-18.5-35.7 1.1-3.6 2.7-6.8 4.8-9.6-15.5-8.1-23.4-26.8-18-44.9z"/>
    <path fill="#A8A9A9" d="M283.1 107.5s-15.4-4.7-26.4-2.9c-2.8.8-4.9 1.4-3.2-.6 1.7-2 24.5-2.5 28.4-.7 4 1.8 1.2 4.2 1.2 4.2z"/>
    <path d="M280.4 116.9s.1-.4-4-1.2c-1.1-.2.1.4-1.3.1-1.4-.4-6.8-2.4-6.8-2.4s-4.6-.7-1 .9c3.6 1.6 8.6 4.9 9.6 3.7 1-1.1 2.4 1.4 3.1-.1.5-.9.4-1 .4-1z"/>
  </g>
</svg>