<svg class="{{ include.class }}" alt="{{ include.alt }}" parallax={{ include.parallax }} xmlns="http://www.w3.org/2000/svg" width="668" height="1266.6" viewBox="0 0 668 1266.6"><path fill="#4CA392" d="M336.5 0c-.6 9.5-4.2 24.6-18.9 39.4-24 24.3-33.3 60.6-33.3 60.6s-7.9-.1-12.6-12c-45.1 60.4-20.8 79.5-30.6 80.3-9.9.9-22.5-15.1-23.5-9.2-1.1 5.9-6.2 18.6-11.3 37.3C180.7 328.1 331 410.9 331 410.9s152.4-78.7 130.6-211c-4.7-18.8-9.4-31.6-10.3-37.6-.9-5.9-13.9 9.7-23.8 8.5-9.8-1.1 15-19.5-28.4-81.2-5.1 11.7-13 11.6-13 11.6s-8.4-36.6-31.7-61.5c-14.3-15-17.5-30.2-17.8-39.7h-.1z"/><path d="M338.7 54.1l-3 222.4 59.1-179.8c1.5-1.7 2.9-3.9 4.2-6.8.9 1.3 1.8 2.6 2.6 3.8l-66.3 201.5-.7 52.8 109.8-184.2c3.7-2.4 6.4-3.9 6.8-1.3 0 .2.1.4.1.7l-116.8 196-.7 50.3-2.9 1.6s-1-.5-2.7-1.6l.7-50.3-111.5-199.5c0-.2.1-.4.1-.5.5-2.6 3.2-1 6.9 1.6l104.7 187 .7-52.8L269 91.7c.9-1.2 1.7-2.4 2.7-3.6 1.3 3.1 2.7 5.4 4.2 7.1l54.2 181.2 3-222.8"/><path fill="#4CA392" d="M1.8 239.9c5.1 8 11.1 22.3 8.1 42.9-4.9 33.8 9 68.6 9 68.6s-6.4 4.6-17.3-2.2c-.6 75.5 30.3 76.4 22.9 82.9-7.4 6.5-27 1.1-24.4 6.5 2.6 5.4 6.1 18.7 12.9 36.7 57.5 121.1 227.6 98.9 227.6 98.9S317 420.6 221 327c-14.9-12.4-26.3-19.9-30.6-24.2-4.2-4.2-5.5 16-14.1 20.9-8.6 4.9.6-24.6-71-48.5 2.9 12.5-3.6 17.1-3.6 17.1s-28.4-24.5-61.9-30.8c-20.5-3.9-32.1-14.2-38-21.6z"/><path d="M35.6 282.2l129.3 181-58.9-180c.2-2.2.1-4.8-.6-8 1.5.5 2.9 1 4.4 1.5l65.9 201.6 30.7 43-20.6-213.5c1.6-4.1 2.8-6.9 4.7-5.1l.5.5 22 227.1 29.2 40.9c-.9 1.9-1.4 3-1.4 3l-3.1.3-29.3-41L.5 439.1c-.1-.2-.2-.3-.2-.5-1.2-2.4 2-2.7 6.6-2.8L202 524.5l-30.7-43L1.8 353.7v-4.5c2.9 1.8 5.4 2.8 7.6 3.3l151 113.9L30.8 285.1"/><path fill="#4CA392" d="M665.2 248.9c-5.3 7.9-11.7 22-9.3 42.7 4 33.9-10.9 68.3-10.9 68.3s6.3 4.7 17.3-1.7c-1.5 75.4-32.4 75.5-25.1 82.2 7.3 6.7 27 1.9 24.2 7.2-2.8 5.3-6.6 18.5-13.9 36.4-60.7 119.5-230.2 92.7-230.2 92.7S345.3 421 443.7 330c15.2-12 26.9-19.2 31.2-23.3 4.3-4.1 5.1 16.2 13.5 21.3 8.5 5.1.1-24.6 72.3-46.6-3.2 12.4 3.1 17.1 3.1 17.1s29-23.7 62.7-29.1c20.6-3.3 32.5-13.3 38.6-20.6l.1.1z"/><path d="M630.3 290.2L496.2 467.7l63.7-178.3c-.1-2.2.1-4.8.9-8-1.5.5-3 .9-4.4 1.4L485 482.5l-31.9 42.1 26.4-212.8c-1.4-4.2-2.7-7-4.5-5.2-.2.1-.3.3-.5.4l-28.1 226.5-30.4 40.2c.8 1.9 1.3 3 1.3 3s1.1.2 3.1.4l30.4-40.2L661.2 448c.1-.2.2-.3.2-.5 1.2-2.3-1.9-2.7-6.5-3l-197.4 83.4 31.9-42.2 172.8-123.2c.1-1.5.1-3 .1-4.5-2.9 1.7-5.5 2.6-7.7 3l-154 110L635 293.3"/><path fill="none" stroke="#000" stroke-width="5.58" stroke-miterlimit="10" d="M419.3 573.9S349 662 328.2 619m-89.8-48.1s69.6 87.3 91.6 44.9"/><path fill="#4CA392" d="M1.8 535.7c5.1 8 11.1 22.3 8.1 42.9-4.9 33.8 9 68.6 9 68.6s-6.4 4.6-17.3-2.2c-.6 75.5 30.3 76.4 22.9 82.9-7.4 6.5-27 1.1-24.4 6.5 2.6 5.4 6.1 18.7 12.9 36.7C70.6 892.3 240.7 870 240.7 870S317 716.3 221 622.7c-14.9-12.4-26.3-19.9-30.6-24.2-4.2-4.2-5.5 16-14.1 20.9-8.6 4.9.6-24.6-71-48.5 2.9 12.5-3.6 17.1-3.6 17.1s-28.4-24.5-61.9-30.8c-20.5-3.9-32.1-14.2-38-21.6v.1z"/><path d="M38.5 577.9l129.3 181L109 579c.2-2.2.1-4.8-.6-8 1.5.5 2.9 1 4.4 1.5l65.9 201.6 30.7 43-20.6-213.5c1.6-4.1 2.8-6.9 4.7-5.1l.5.5 22 227.1 29.2 40.9c-.9 1.9-1.4 3-1.4 3l-3.1.3-29.3-41-208-94.5c-.1-.2-.2-.3-.2-.5-1.2-2.4 2-2.7 6.6-2.8l195.1 88.7-30.7-43L4.7 649.5V645c2.9 1.8 5.4 2.8 7.6 3.3l151 113.9L33.7 580.8"/><path fill="#4CA392" d="M668 543.9c-5.3 7.9-11.7 22-9.3 42.7 4 33.9-10.9 68.3-10.9 68.3s6.3 4.7 17.3-1.7c-1.5 75.4-32.4 75.5-25.1 82.2 7.3 6.7 27 1.9 24.2 7.2-2.8 5.3-6.6 18.5-13.9 36.4-60.7 119.5-230.2 92.7-230.2 92.7S348.1 716 446.5 625c15.2-12 26.9-19.2 31.2-23.3 4.3-4.1 5.1 16.2 13.5 21.3 8.5 5.1.1-24.6 72.3-46.6-3.2 12.4 3.1 17.1 3.1 17.1s29-23.7 62.7-29.1c20.6-3.3 32.5-13.3 38.6-20.6l.1.1z"/><path d="M633.2 585.2L499 762.6l63.7-178.3c-.1-2.2.1-4.8.9-8-1.5.5-3 .9-4.4 1.4l-71.4 199.7-31.9 42.1 26.4-212.8c-1.4-4.2-2.7-7-4.5-5.2-.2.1-.3.3-.5.4l-28.1 226.5-30.3 40.1c.8 1.9 1.3 3 1.3 3s1.1.2 3.1.4l30.4-40.2L664 743c.1-.2.2-.3.2-.5 1.2-2.3-1.9-2.7-6.5-3L460.4 823l31.9-42.2 172.8-123.2c.1-1.5.1-3 .1-4.5-2.9 1.7-5.5 2.6-7.7 3L503.5 766l134.3-177.7"/><path fill="none" stroke="#000" stroke-width="5.58" stroke-miterlimit="10" d="M422.2 868.9S351.9 957 331.1 914m-93.4-52.8c-1.4-1.9 67.5 103.5 93.4 53.6m-.1-506.9v858.7"/></svg>