<svg version="1" xmlns="http://www.w3.org/2000/svg" width="2086.667" height="2086.667" viewBox="0 0 1565.000000 1565.000000"><path d="M781.5 27.1c-.5.5-6.4 4.5-13 8.9-11.1 7.3-15.2 10.3-19.7 14.4-1 .9-2.2 1.6-2.7 1.6s-1.1.3-1.3.7c-.1.5-1.9 2.1-3.8 3.7-3.9 3.2-18.5 16.2-20.9 18.7-7 6.9-16.6 17.7-21.6 23.9-3.3 4.1-6.2 7.7-6.5 8-.3.3-1.9 2.5-3.5 5-1.7 2.5-3.5 5.1-4.2 5.8-.6.6-1.5 2.1-1.8 3.2-.3 1.1-1 2-1.4 2-.4 0-2 2.4-3.5 5.2-4.2 8.2-6 11.3-6.8 11.6-.5.2-.8.9-.8 1.6 0 1.8-2.4 6.6-3.2 6.6-.5 0-.8.8-.8 1.8s-.4 2.2-.9 2.7c-1 1.1-8.7 19-8.1 19 .1 0-.8 2.5-2 5.5-1.8 4.5-3.9 12.3-6.7 24.5-.8 3.8-1.2 7-1.8 14.4-.3 4.1-.7 7.7-1 7.9-.2.3-.1 1.2.4 2.1.4.9.5 2.6.2 3.7l-.6 2.2-4.5-2.2c-4-2-12.8-4.8-19.3-6.2-1.2-.3-7.1-.7-13.2-1l-11-.4-4.2 4c-2.4 2.3-4.3 4.5-4.3 5 0 .4-.4 1-.8 1.2-.4.1-2.9 3-5.5 6.3s-5.1 6.4-5.5 7c-.9 1.1-9.9 14.7-11.9 18-3.9 6.3-9.3 16.4-9.3 17.4 0 .6-.4 1.1-.9 1.1s-1.2 1-1.6 2.2c-.4 1.3-.8 2.5-.9 2.8-.1.3-1.2 2.5-2.5 5-2.3 4.7-10.1 23.9-10.5 26.2-.2.7-.8 2.4-1.3 3.8-1 2.3-5.2 15.9-5.8 18.5-.7 3.2-1.7 7.2-2.2 8.5-.3.8-.7 2.2-.8 3-.1.8-.8 4.3-1.4 7.8-.7 3.4-.9 6.7-.6 7.2.3.6.2 1-.3 1-1 0-1.5 6-1.6 21.5 0 13.9.8 22.8 2.9 31.7.8 3.4 1.5 7.3 1.5 8.5 0 2.2-.1 2.2-2.9-.5-9.4-8.9-19.5-12.8-36.2-13.9l-7.6-.5-3.5 6.9c-5.9 11.2-15.2 34-16.4 40.2-.3 1.3-.9 3.1-1.3 4-.7 1.4-3.6 12.7-4.6 17.7-.2 1-.4 1.9-.5 1.9-.2 0-.7 3-1.6 8.5-.3 2.5-.8 5.6-1 7-1.2 7.7-1.8 18.8-1.8 37.5 0 18.4.9 38.9 1.9 40.5.1.3.6 3.6.9 7.4.3 3.7.9 7.2 1.2 7.7 1.5 2.5-1.2 2.6-6.4.2-12-5.4-24.3-8.2-38.2-8.8-7.6-.3-9.4.5-11.6 4.7-1.4 2.7-4.6 11.7-5 14.3-.1.5-.3 1.2-.4 1.5-.5 1.3-2.8 14.3-3.6 19.7-1.2 9.1-1.4 11.6-2.1 21.3-1.7 24.4-.2 62 3.1 77.9.3 1.2.8 4.2 1 6.5.7 5.2 2.6 15.4 4.3 23.1 1 4.2 1 4.5 1.3 4.7.1.2.3 1.2.5 2.3.2 1.1 1.1 4.7 2 8 .9 3.3 1.8 6.4 1.9 7 .2.5.6 1.7.9 2.5 2 4.8 3.5 10 2.7 9.5-1.3-.8-5-1.7-7.7-1.8-1.3-.1-2.3-.4-2.3-.7 0-.6-26.3-.4-29 .3-4.8 1.1-7.1 4.2-8.4 11.7-.3 1.4-.5 2.5-.6 2.5-.6 0-2.2 17.5-2.4 26.5-.1 4.7-.6 9.1-1 9.8-.4.7-.3 1.2.1 1.2.5 0 .9.8.9 1.7.1 1 .4 2.9.7 4.3.3 1.4.9 4.3 1.3 6.5 1 5.2 1.1 5.5 1.4 5.7.1.2.3 1 .5 1.8.6 3.2 8.6 26.4 10 29.1.9 1.6 1.6 3.2 1.6 3.6.2 1.6 3.5 9.9 6.9 17.8 1 2.2 1.8 4.2 1.8 4.5.1.3 2.2 5 4.7 10.5 2.6 5.5 5.6 12 6.7 14.5 3.5 7.8 18 36.4 18.9 37.7 1.5 1.7-.6 2.5-7.5 2.9-21.9 1.1-25.9 1.4-29.7 2.4-2.3.6-4.8 1.8-5.5 2.5-.8.7-1.8 1.5-2.4 1.7-3 1-4.4 13.2-2.5 20.8.4 1.4.7 3.1.7 3.7.1.7.5 1.3.9 1.3s.6.8.4 1.7c-.1 1 .4 3 1.2 4.5.7 1.5 1.3 3.1 1.3 3.5 0 1.2 3 11.5 4 13.8.5 1.1 2 5.8 3.5 10.5 1.4 4.7 2.9 9.2 3.2 10 .3.8.7 1.9.9 2.5.1.5 1.4 4.1 2.9 8 1.4 3.8 2.8 7.4 2.9 8 .3.9 1.9 5.2 3.3 8.5.3.8.7 2 .8 2.5.2.6 1.2 3.2 2.4 5.7 1.1 2.6 2.1 5 2.1 5.3 0 .3.9 2.5 1.9 4.9 1.1 2.3 2.9 6.5 3.9 9.2 1.9 4.7 3.9 9.2 10.4 23.4 13.3 28.8 30.1 60.7 50.3 94.9 1.2 2 18.4 29.2 20.5 32.5.8 1.2 2.5 3.8 3.7 5.7 1.2 1.9 2.5 3.8 3 4.4.4.5 3.2 4.6 6.2 9s5.7 8.2 6 8.5c.3.3 1.1 1.3 1.6 2.2 3.1 5.1 18.2 25.2 21.8 29 .9 1 1.7 2.2 1.7 2.6 0 .4 1.8 2.8 3.9 5.2 2.2 2.5 3.7 4.8 3.5 5.2-.3.5-.1.8.4.8s2.8 2.4 5 5.3c2.2 3 4.7 6.1 5.6 7 .9.8 1.6 1.8 1.6 2.2 0 .3 1 1.6 2.3 2.9 1.2 1.3 3.8 4.2 5.7 6.6 5.3 6.4 5.8 7 19.2 22.3 8.6 9.8 17.4 19 36 37.8 11.9 12 21.8 21.9 22 21.9.2 0 4.4 3.9 9.4 8.7 5 4.9 12.6 11.9 16.9 15.8 4.3 3.8 9.7 8.7 11.9 10.8 2.3 2.1 6.5 6 9.5 8.5 2.9 2.6 6.3 5.6 7.5 6.7 4 3.6 11.4 10 13.8 11.8 5.4 4.2 9.2 7.4 12.2 9.9 1.7 1.5 3.6 2.8 4.2 2.8.7 0 1.4.7 1.8 1.5 1 2.7 3.4 1.7 2.9-1.2-.2-1.6-.6-6.6-.8-11.3-.2-4.7-.7-14.4-1.1-21.5-2.1-36.3-.5-118.4 3-157 .3-2.8.7-7.7 1-11 1.2-12.8 1.8-18.7 2.1-20.5.2-1 .6-4.3 1-7.2.3-2.9.8-6.9 1.1-8.8.2-1.9.7-5.5.9-8 .2-2.5.6-5.4.9-6.5.2-1.1.7-4 1-6.5.3-2.5.8-5.4 1-6.5.2-1.1.7-4 1.1-6.5.4-2.5.9-5.4 1.1-6.5.2-1.1.7-3.4 1-5 .3-1.7.7-4.1.9-5.5.4-3.7 1.4-8.4 3.6-18.5 1.1-5 2.2-10.5 2.5-12.4.2-1.9.7-3.8 1-4.3.3-.4.7-1.8 1-3.1.8-4.7 1.3-6.4 2.9-12.7 1-3.6 1.9-7.4 2.1-8.5.2-1.1 1.3-5.2 2.4-9 1.2-3.9 2.3-7.7 2.5-8.5.1-.8 1.5-5.6 3-10.5 1.5-5 3.2-10.8 3.7-13 .6-2.2 1.4-4.5 1.8-5 .4-.6 1.1-2.6 1.5-4.5.4-1.9 1.2-4.1 1.7-4.8.6-.6.7-1.2.3-1.2-.4 0-.2-.7.5-1.5s1-1.5.6-1.5c-.3 0 .4-2.4 1.5-5.3 1.2-2.8 2.3-5.9 2.5-6.7.9-3.3 5.6-16.7 7-19.7.8-1.7 1.4-3.8 1.4-4.7 0-.9.6-1.6 1.3-1.6 1 0 3 4.8 4.3 10 0 .3.4 1.3.8 2.2.4.9.9 2.2 1 3 .1.7.7 2.2 1.3 3.3.6 1.1 1.1 2.3 1.2 2.7.1.5.2 1 .2 1.3.1.3.3.9.4 1.5.1.5.3 1.1.5 1.2.1.2.3 1 .5 1.8s2.9 9.4 6 19 5.8 17.9 5.9 18.5c1.4 5.2 2.8 10.3 3.3 11.5.3.8.7 1.9.9 2.5 5.3 20.3 8.7 33.5 9 35.5.3 1.4.7 3.2 1 4 .3.8.8 2.4 1 3.5.2 1.1 1.1 5.1 2 9 .9 3.8 1.7 7.9 1.8 9 .2 1.1.8 4.7 1.5 8 1.1 5.2 1.6 7.5 2.6 12 .4 1.7 1.6 8.8 2.1 12.5.2 1.9.6 4.2.9 5 .3.8.7 3.5 1.1 6 .3 2.5.8 5.8 1 7.5.3 1.6.6 4.6.9 6.5.2 1.9.6 4.8.9 6.5.4 1.6.8 4.9 1.1 7.2.7 6.2 1.4 12.2 1.9 15.2.3 1.4.7 6 1.1 10.1.3 4.1.7 9.1.9 11 .3 1.9.7 7.1 1.1 11.5.3 4.4.8 10.2 1.1 13 .4 4.7.6 8.1 1.9 32.5.6 10.5 1.3 41.2 1.5 59 .1 10.8-.4 26-1.5 49.5-1.1 22.7-1.5 35.5-.9 35.5.7 0 5.6-3.6 8.8-6.5 1.2-1.1 4-3.3 6.2-4.9 4.3-3.3 5.3-4 10.5-8.8 2-1.8 5.5-4.8 7.7-6.6 2.3-1.8 5.4-4.5 7-6 1.6-1.5 6.6-6.1 11.2-10.2 13.2-12 15.2-13.9 28-26 21-19.8 48.9-48.1 61.5-62.6 3.3-3.7 7.9-8.9 10.2-11.4 4.8-5.2 7.1-7.8 12.1-13.9 9.8-11.8 15.6-18.7 16.6-19.8.6-.7 1.6-1.8 2.1-2.5 4.6-5.8 9.1-11.4 9.5-11.8.8-.8 23.3-31.1 26-35 1.3-1.9 2.7-3.7 3-4 .3-.3 4.1-5.9 8.5-12.5s8.2-12.2 8.6-12.5c.3-.3 3.2-4.8 6.5-10 3.2-5.2 6.2-9.7 6.7-9.8.4-.2.7-.8.7-1.4 0-.5 1-2.4 2.3-4.1 2.4-3.5 4.3-6.4 5.3-8.7.4-.8 1.5-2.6 2.4-4 2-2.9 5.7-9.2 7.8-13.5.9-1.7 1.8-3.2 2.2-3.5.3-.3 1.9-3.1 3.5-6.2 1.7-3.2 3.4-5.8 3.8-5.8.5 0 .5-.5.2-1-.3-.6-.1-1 .5-1s.9-.4.5-.9c-.3-.5 0-1.5.7-2.3 1.6-1.6 3.2-4.6 15.9-29.9 5.5-10.8 9.9-20.1 9.9-20.8 0-.6.5-1.1 1.2-1.1.6 0 .9-.3.6-.6-.3-.3.9-3.7 2.8-7.5s3.4-7.5 3.4-8.2c0-.7.4-1.7.9-2.3.9-.9 2.7-5 13.6-31.9.5-1.1.9-2.2.9-2.5.4-1.8 5.1-13.7 5.8-14.6.4-.6.9-2.3 1-3.8.1-1.4.6-2.6 1-2.6s.8-.8.8-1.8.3-2.2.8-2.6c.4-.4.7-1.1.7-1.4.1-.4 1.2-3.9 2.5-7.7 1.3-3.9 2.5-7.5 2.6-8 .1-.6 1.2-3.9 2.4-7.5s2.3-7.2 2.5-8c1.6-5.9 2.6-9.4 4.5-15.5 3.7-12.3 3.3-21.6-1.4-26-5-4.8-9.4-5.6-35.1-6.9-4.4-.2-8.6-.5-9.3-.5-.7-.1 2.6-7.7 8.2-18.9 13.4-26.7 20.1-40.9 19.8-42.5-.1-.4.2-.7.8-.7.5 0 1-.7 1-1.5s.4-2.3 1-3.3c2-3.7 14-33.9 14.4-36.4.1-.7.4-1.8.7-2.3.9-1.5 5-15.6 5.2-17.6.1-1.1.4-1.9.7-1.9.3 0 .6-.8.6-1.8.1-.9.4-3.1.8-4.7.9-4.2 1.5-8.3 2-13.5.3-2.5.8-6.8 1.2-9.5 1.2-9.8.7-28.8-.9-32.8-.9-2-2-3.7-2.4-3.8-.4 0-1.9-.3-3.3-.6-3.5-.8-24.7-.8-29 0-1.9.3-5 .9-6.7 1.2-4.2.8-4.2.8-.2-9 .8-2 2-6 2.5-8 .1-.6 1.4-5.5 2.8-11 2.9-10.9 3.5-13.5 4.1-17.9.2-1.5.6-3.5.9-4.5.3-.9.8-3.4 1.1-5.6.3-2.3.8-5.2 1-6.5.3-1.4.8-5 1.1-8 .3-3 .7-7.3 1-9.5 1.5-13.2 2.1-42.5 1-44.3-.4-.7-.2-1.2.4-1.2.6 0 .8-.4.5-1-.3-.5-.8-4.2-1.1-8.2-.5-7-.7-9.7-1.8-20.1-.5-4.4-2.9-18.6-4-23.2-.2-1.1-.9-4.3-1.6-7-1.6-7.1-6.1-16.5-7.9-16.6-8.1-.5-13.8-.3-20.6.8-11 1.9-10.9 1.8-12 2.4-.6.3-3 1.2-5.5 1.9-2.5.8-6.9 2.7-9.9 4.2l-5.3 2.8.6-3.2c.3-1.8.8-5.6 1.1-8.3.4-2.8.8-6.1 1-7.4 1.2-7.4 1.9-22 1.8-41.1 0-29.6-1.2-40.4-6.5-61.5-1.1-4.4-2.1-8.5-2.3-9-.1-.6-.4-1.7-.8-2.5-.3-.8-2-5.8-3.7-11-1.8-5.2-3.6-9.9-4.1-10.5-.5-.5-.9-1.5-.9-2.2 0-.8-2.7-7-6.1-13.9l-6.1-12.6-7.7.5c-4.2.3-8.9.8-10.6 1.2-6.5 1.3-11.1 2.7-12.2 3.7-.7.6-1.3.7-1.3.2 0-.5-.5-.1-1.1.9-.6.9-1.4 1.5-1.8 1.3-.4-.3-3.3 1.5-6.4 4-3.1 2.4-5.9 4.4-6.1 4.4-.6 0-.1-3.1 1.9-13 .3-1.4.8-4.4 1-6.8.3-2.3.8-6.3 1.1-9 .8-7.3.9-10.7.1-11.9-.4-.6-.3-1.4.3-1.8.6-.4.8-1.1.4-1.6-.3-.6-.7-4-.9-7.7-.2-6-1.3-16.2-2-20.2-1.8-9.1-4-18.2-6.5-26.5-1.7-5.5-3.2-10.7-3.5-11.5-.7-3-6.8-18.5-7.7-19.6-.5-.7-1-2-1.2-3-.5-2.6-7.9-17.8-8.8-18.2-.5-.2-.8-1.2-.8-2.3 0-1-.3-1.9-.7-1.9-.5 0-1.7-1.9-2.8-4.2-5.1-10.7-25.2-38.4-33.8-46.7l-3.5-3.3-10.9.5c-5.9.4-12.3 1.1-14 1.6-1.8.5-3.3.8-3.3.6 0-.6-13.3 4.1-16.8 5.9-3.1 1.6-3.2 1.6-3.3-.6-.1-1.3-.1-2.6 0-3 1.1-7.8-1.7-25.9-6.5-42.3-.8-2.8-1.3-5.2-1.2-5.5.1-.3-.5-1.6-1.2-3-.8-1.4-1.4-3-1.5-3.5 0-.6-.8-2.7-1.8-4.9-.9-2.1-1.7-4-1.7-4.2 0-1.1-11-23.4-13.3-27.1-1.5-2.4-2.7-4.9-2.7-5.8 0-.8-.5-1.5-1.1-1.5-.5 0-1.5-1.4-2-3-.6-1.7-1.4-3-1.8-3-.3 0-1.5-1.7-2.6-3.7-1.1-2.1-2.6-4.4-3.3-5.3-.7-.8-4.8-6-9.1-11.5-16.2-20.7-31.6-35.8-56.6-55.3-4.2-3.3-16.6-12.2-16.9-12.2-.3 0-3.1-1.7-6.3-3.8-7.8-5.1-7.7-5.1-8.8-4.1z"/></svg>