<svg class="{{ include.class }}" xmlns="http://www.w3.org/2000/svg" width="278.9" height="134.2" viewBox="0 0 278.9 134.2"><path d="M0 133.8v-25.7h5.7v20.6h12.8v5.1H0zm26.4 0v-25.7h19.4v5H32v5.2h12.1v5H32v5.4h13.9v5H26.4zm47.4 0V117l-7.2 11h-.1l-7.2-10.9v16.7h-5.5v-25.7h6.1l6.8 10.9 6.8-10.9h6.1v25.7h-5.8zm27.1.4c-7.9 0-13.6-5.9-13.6-13.2 0-7.3 5.8-13.3 13.7-13.3 7.9 0 13.6 5.9 13.6 13.2v.1c0 7.3-5.8 13.2-13.7 13.2zm7.8-13.2c0-4.4-3.2-8.1-7.8-8.1s-7.7 3.6-7.7 8v.1c0 4.4 3.2 8.1 7.8 8.1 4.5-.1 7.7-3.7 7.7-8.1zm31.7 12.8L128 117.5v16.3h-5.6v-25.7h5.2l12 15.8v-15.8h5.6v25.7h-4.8zm36.8 0H165v-25.7h11.9c5.2 0 8.5 2.6 8.5 6.6v.1c0 2.9-1.5 4.5-3.4 5.5 3 1.1 4.8 2.9 4.8 6.3v.1c0 4.8-3.8 7.1-9.6 7.1zm2.6-18.1c0-1.7-1.3-2.6-3.7-2.6h-5.6v5.4h5.2c2.5 0 4.1-.8 4.1-2.8zm1.4 10.3c0-1.7-1.3-2.8-4.2-2.8h-6.5v5.7h6.7c2.5 0 4-.9 4-2.9zm32.6 7.8l-2.3-5.8h-10.9l-2.3 5.8h-5.8l11-25.9h5.2l11 25.9h-5.9zm-7.8-19.1l-3.4 8.3h6.8l-3.4-8.3zm20.9 19.1v-25.7h5.7v20.6h12.8v5.1h-18.5zm46.4 0V117l-7.2 11h-.1l-7.2-10.9v16.7h-5.5v-25.7h6.1l6.8 10.9 6.8-10.9h6.1v25.7h-5.8z" fill="#EDEEE2"/><g fill="#8CB279"><path d="M164.8 46.3s-.3-.1-1.2-.1c-1 0-1.4.2-1.4.2s1.7-4.3 1-9.8c-.3-2.1-.7-2.5-.7-2.5s-1.5-.3-3.3.7c0 0 .5-2.7.2-5.6-.3-2.9-1.8-5.5-1.8-5.5s-1.7-.1-2.6.8c-.9.9.9-1.2-.5-5.7-1.3-4.5-3.8-6.8-3.8-6.8s-1.6-.2-3 .6c0 0 .4-2.4-1.9-6.3-2.2-3.7-5.9-5.9-6.4-6.2-.5.3-4.2 2.5-6.4 6.2-2.3 3.9-1.9 6.3-1.9 6.3-1.4-.8-3-.6-3-.6s-2.5 2.3-3.8 6.8c-1.3 4.5.4 6.5-.5 5.7-.9-.9-2.6-.8-2.6-.8s-1.5 2.6-1.8 5.5c-.3 2.9.2 5.6.2 5.6-1.8-1-3.3-.7-3.3-.7s-.4.4-.7 2.5c-.8 5.5 1 9.8 1 9.8s-.5-.2-1.4-.2c-1 0-1.2.1-1.2.1s-.5.1-.1 3.1 3.4 8.5 3.4 8.5c-1.8.2-3.5-.3-2.9 1.9 2 7.2 5.7 13.9 10.3 19.7 2.1 2.6 4.4 5.1 6.9 7.4 1.3 1.2 2.8 2.6 4.4 3.8-.1-2.9-.2-3.7-.2-4.6 0-10.5 1.6-16.6 3.8-22.8 2.3 6.2 3.8 12.3 3.8 22.8 0 .9-.1 1.8-.2 4.6 1.6-1.2 3.1-2.6 4.4-3.8 2.5-2.3 4.8-4.7 6.9-7.4 4.6-5.8 8.3-12.6 10.3-19.7.6-2.2-1-1.7-2.9-1.9 0 0 3-5.6 3.4-8.5 0-3-.5-3.1-.5-3.1m36.3 13.4s-.1-.2-.5-.5c-.5-.3-.8-.4-.8-.4s2.3-1.5 3.9-4.5c.6-1.1.5-1.5.5-1.5s-.6-.7-1.9-.8c0 0 1.2-1.2 2-2.7.9-1.5 1-3.3 1-3.3s-.8-.6-1.5-.5c-.7.1.8-.3 1.7-2.9.9-2.7.5-4.7.5-4.7s-.7-.7-1.7-.8c0 0 1-1 1.3-3.8.2-2.6-.8-5-1-5.3-.3 0-3-.2-5.3.8-2.5 1.1-3.1 2.4-3.1 2.4-.4-.9-1.3-1.3-1.3-1.3s-2 .3-4.3 2c-2.2 1.7-2.1 3.3-2.2 2.6-.1-.7-1-1.3-1-1.3s-1.7.7-2.8 2.1c-1.1 1.3-1.8 2.8-1.8 2.8-.5-1.1-1.4-1.5-1.4-1.5s-.4.1-1.2 1c-2.3 2.4-2.9 5.1-2.9 5.1s-.2-.2-.7-.6c-.5-.3-.7-.4-.7-.4s-.3-.1-1.1 1.5-1.3 5.4-1.3 5.4c-1-.5-1.6-1.3-2.1 0-1.5 4.2-2.1 8.8-1.8 13.3.1 2 .4 4.1.8 6 .2 1 .5 2.2.8 3.4 1-1.4 1.2-1.9 1.5-2.4 3.6-5.1 6.5-7.6 9.8-9.9-1 3.8-2.4 7.4-6.1 12.5-.3.5-.7.8-1.7 2.2 1.2 0 2.4-.2 3.5-.3 2-.2 4-.6 6-1.2 4.3-1.3 8.5-3.3 11.9-6.1 1.1-.9.1-1.2-.7-2 0 0 3.4-1.7 4.6-3 1.3-1.2 1.1-1.4 1.1-1.4"/><path d="M114.2 46.3s.3-.1 1.2-.1c1 0 1.4.2 1.4.2s-1.7-4.3-1-9.8c.3-2.1.7-2.5.7-2.5s1.5-.3 3.3.7c0 0-.5-2.7-.2-5.6.3-2.9 1.8-5.5 1.8-5.5s1.7-.1 2.6.8c.9.9-.9-1.2.5-5.7 1.3-4.5 3.8-6.8 3.8-6.8s1.6-.2 3 .6c0 0-.4-2.4 1.9-6.3 2.2-3.7 5.9-5.9 6.4-6.2.5.3 4.2 2.5 6.4 6.2 2.3 3.9 1.9 6.3 1.9 6.3 1.4-.8 3-.6 3-.6s2.5 2.3 3.8 6.8c1.3 4.5-.4 6.5.5 5.7.9-.9 2.6-.8 2.6-.8s1.5 2.6 1.8 5.5c.3 2.9-.2 5.6-.2 5.6 1.8-1 3.3-.7 3.3-.7s.4.4.7 2.5c.8 5.5-1 9.8-1 9.8s.5-.2 1.4-.2c1 0 1.2.1 1.2.1s.5.1.1 3.1-3.4 8.5-3.4 8.5c1.8.2 3.5-.3 2.9 1.9-2 7.2-5.7 13.9-10.3 19.7-2.1 2.6-4.4 5.1-6.9 7.4-1.3 1.2-2.8 2.6-4.4 3.8.1-2.9.2-3.7.2-4.6 0-10.5-1.6-16.6-3.8-22.8-2.3 6.2-3.8 12.3-3.8 22.8 0 .9.1 1.8.2 4.6-1.6-1.2-3.1-2.6-4.4-3.8-2.5-2.3-4.8-4.7-6.9-7.4-4.6-5.8-8.3-12.6-10.3-19.7-.6-2.2 1-1.7 2.9-1.9 0 0-3-5.6-3.4-8.5 0-3 .5-3.1.5-3.1M77.8 59.7s.1-.2.6-.5.8-.4.8-.4-2.3-1.5-3.9-4.5c-.6-1.1-.5-1.5-.5-1.5s.6-.7 1.9-.8c0 0-1.2-1.2-2-2.7-.9-1.5-1-3.3-1-3.3s.8-.6 1.5-.5c.7.1-.8-.3-1.7-2.9-.9-2.7-.5-4.7-.5-4.7s.7-.7 1.7-.8c0 0-1-1-1.3-3.8-.2-2.6.8-5 1-5.3.3 0 2.9-.2 5.3.8 2.5 1.1 3.1 2.4 3.1 2.4.3-.8 1.2-1.2 1.2-1.2s2 .3 4.3 2c2.2 1.7 2.1 3.3 2.2 2.6.1-.7 1-1.3 1-1.3s1.7.7 2.8 2.1c1.1 1.3 1.8 2.8 1.8 2.8.5-1.1 1.4-1.5 1.4-1.5s.4.1 1.2 1c2.3 2.4 2.9 5.1 2.9 5.1s.2-.2.7-.6c.5-.3.7-.4.7-.4s.3-.1 1.1 1.5 1.3 5.4 1.3 5.4c1-.5 1.6-1.3 2.1 0 1.5 4.2 2.1 8.8 1.8 13.3-.1 2-.4 4.1-.8 6-.2 1-.5 2.2-.8 3.4-1-1.4-1.2-1.9-1.5-2.4-3.6-5.1-6.5-7.6-9.8-9.9 1 3.8 2.4 7.4 6.1 12.5.3.5.7.8 1.7 2.2-1.2 0-2.4-.2-3.5-.3-2-.2-4-.6-6-1.2-4.3-1.3-8.5-3.3-11.9-6.1-1.1-.9-.1-1.2.7-2 0 0-3.4-1.7-4.6-3-1.3-1.3-1.1-1.5-1.1-1.5"/></g></svg>