<svg class="{{ include.class }}" alt="{{ include.alt }}" parallax={{ include.parallax }} xmlns="http://www.w3.org/2000/svg" width="488.9" height="893.3" viewBox="0 0 488.9 893.3"><path fill="#AA998F" d="M231.9 106.3s-19.8 46.4-39.2 47.4c0 0 19.1 153.9 61.1 49.8 0 0 7.7-10 10.7-15.8 7.5-14.5 5.3-44 18.3-34.3 13 9.7 20.5-3.3 22.2-8.5 4-12.7-10.6-18.5-3.4-15.7 2.2.9 12.2 13.3 13.9 7 1.7-6.4 7.4-20.9 11.8-19.1 4.4 1.8 7.9 1.5 9.2-3 1.4-4.5-6.6-12.2 1-27.7 14.3-28.9 4.8-44.7 4.8-44.7s-36.2-67.1-88-31.2c-51.7 36-28.2 84.2-22.4 95.8z"/><path fill="#AEBCBC" d="M172.6 744.5l-76-349.8 160.2-11.1c-5.1 84-8.8 119-8.8 119s-8.6 197.6-12.1 244.7"/><path fill="#AEBCBC" d="M119 752l103.3-342.7-149-15.2C38 481.6 62.9 505 62.9 505s-7 197.7-7.2 244.9"/><path fill="#4356A0" d="M270.2 436.5c-8.1 21.9-219.1-8.4-219.1-8.4 96.6-298.9 141.5-274.4 141.5-274.4l22.9-41.4s56 43.8 57.4 51c0 0 36.9 166.4-2.7 273.2z"/><path fill="#5F7279" d="M309.1 863.6c8.6.2 27.2-2.6 26-8.7-1.2-6.2-6.4-20.8-14.9-19.4-8.5 1.3-67 2.8-81.4-6.4-14.4-9.2 13.6-92.3 7.2-153.4-44.2 3.7-92 1.3-92 1.3s23.4 152.4 22.6 164.2c-.8 11.7-7.8 35.6 7.7 34.6l124.8-12.2z"/><path fill="#5F7279" d="M163.2 892.9c8.5 1.1 27.3.4 26.8-5.9-.6-6.3-.8-21.2-9.4-20.8-8.6.4-53.7-5-69.8-10.6-38.5-13.4 24.6-113.4 24.8-174.9-44.3-1.1-99.7-4.2-99.7-4.2s.1 168.2-2 179.8c-2 11.6-11.6 34.6 4 35.2l125.3 1.4z"/><path fill="#DDDBD9" d="M323.5 72.5s-16.3-5.6-28.2-4c-3 .7-5.3 1.3-3.4-.8s26.3-1.8 30.5.2c4.2 2.1 1.1 4.6 1.1 4.6z"/><path d="M320.3 87.3s0-.4-4.5.2c-1.2.2.3.4-1.3.5-1.6.1-7.7-.1-7.7-.1s-4.9.9-.7 1.3c4.2.3 10.4 1.9 11 .4.6-1.5 2.9.5 3.2-1.2.1-1 0-1.1 0-1.1z"/><path fill="#4356A0" d="M297.2 88.6c-.6-8.5 5.9-15.8 14.4-16.4 8.5-.6 15.8 5.9 16.4 14.4.6 8.5-5.9 15.8-14.4 16.4-8.5.6-15.9-5.9-16.4-14.4zm4.6-.3c.4 6 5.6 10.5 11.5 10.1 6-.4 10.5-5.6 10.1-11.5-.4-6-5.6-10.5-11.5-10.1-6 .4-10.5 5.6-10.1 11.5z"/><path fill="#4356A0" d="M334.4 96.5c.2-3.5 2.3-4.3 1-5.2-3.6-2.7-10.6-1.6-11.3-1.4l1.5 4.3c1.6-.6 4.6-1 5.8-.2.6.5 3.1 1.4 3 2.5zm-33.1-14.05l-2.77 3.68-28.38-21.32 2.76-3.65z"/><path fill="#AAA" d="M388.9 673.8c.8-.6 12.8-19.9 24-29.7 9.1-8 26.3-21.8 34.5-17l36.3 27.4 5.1 13-4.9 6.5-13.9-1.5-22.2-16.8-2.1-1.6c-2.1-1.5-6.2.5-9.2 4.4-3 3.9-3.8 8.4-1.8 10l24.3 18.4 5.1 13-4.9 6.5-13.9-1.5-24.1-18.4c-2.1-1.6-6.2.4-9.3 4.3l-.2.3c-3 4-3.8 8.5-1.7 10.1l24.2 18.3 5.1 13-4.9 6.5-13.9-1.5-24.3-18.4c-2.1-1.5-6.2.5-9.2 4.4-3 3.9-3.8 8.4-1.8 10l2.1 1.6 22.2 16.8 5.1 13-4.9 6.5-13.9-1.5-36.2-27.6c-6.9-6.7 1.9-26.9 7.1-37.8 6.5-13.4 21.8-30.1 22.2-31"/><path fill="#AAA" d="M354.52 656.7l9.32-12.28 34.95 26.56-9.35 12.26z"/><path fill-rule="evenodd" clip-rule="evenodd" fill="#5B5B5C" d="M364.4 650c-.5-.4-1.3-.4-1.7.1l-2.9 3.8c-.4.5-.2 1.2.3 1.6l24.5 18.9c.5.4 19.6 12.6 20 12.2l.6-1.1c.4-.5-15.8-16.2-16.3-16.6L364.4 650z"/><path fill="#026862" d="M38.2 367.2c-.8-.1-1.7.3-2.2 1L.5 415c-.5.7-.7 1.6-.4 2.4.3.8 1 1.4 1.8 1.6l42.3 9.3c.9.2 1.9-.2 2.5-.9l1-1.3 297.9 226.3c1.1.8 2.7.6 3.5-.5l8.5-11.2c.8-1.1.6-2.7-.5-3.5L59.3 410.8l1-1.3c.6-.8.7-1.8.2-2.7l-20.2-38.2c-.5-.8-1.2-1.3-2.1-1.4zm-1.9 23.4l8.6 16.3-4.8 6.3-18-3.9 14.2-18.7z"/><path fill="#CC7428" d="M369.9 643c.2.1.2.4.1.6l-14.6 19.2c-.1.2-.4.2-.6.1l-19.2-14.6c-.2-.1-.2-.4-.1-.6l14.6-19.2c.1-.2.4-.2.6-.1l19.2 14.6z"/><path fill="#8E8265" d="M91.9 371.6s32.5 51.1 36 63c3.5 11.9-3.8 18.6 2.4 30.4l-7.7-3.6c-3.5-6.6-3 5.6-2.9 16.4.1 10.9 5.5 10.5 2.2 13.2-3.2 2.8-2.9 7.4-10.9 1.8-8-5.5-24.1-15.6-25.8-26.3-1.6-10.6 13.9-30.3 9-38.1-2-3.2-14.5-20.4-29.1-41.3"/><g fill="#FFB01E"><path d="M37 291.2c-3.4 21.1 34.9 103.1 34.9 103.1l31.5-6.9s-32.6-74.4-26.9-85L180 252.9c38.9-14.4 40.9-46.7 29.1-57.6-11.8-10.9-25.4-4.8-25.4-4.8L37 291.2z"/><path d="M67.1 404l-2.9-6.2c-6.6-14.1-39.2-85.5-35.6-108l.6-3.6L179.5 183l.7-.3c.9-.4 5.7-2.4 12.5-2.4 8.2 0 15.9 3 22.1 8.8 7.5 6.9 10.7 18.7 8.3 30.7-3.5 17.9-18 32.8-39.8 40.9l-99 47.3c1.2 11.6 14.1 46.8 26.8 76l4.2 9.5L67.1 404zM45.3 295.8c.9 15.7 17.6 58.1 31.5 88.7l14.8-3.2c-3.1-7.4-7.5-18.2-11.7-29.4-15-40.1-13.5-48.6-10.9-53.5l1.3-2.5 106.8-51c16.3-6 27-16.4 29.4-28.4 1.4-7-.6-12.6-3.2-14.9-3.1-2.8-6.6-4.3-10.6-4.3-2.3 0-4.2.5-5.1.8L45.3 295.8z"/><path d="M65.3 397.3c-.1-.2-9.8-21-18.9-44-19-48.1-17.2-59.5-16.6-63.3l.5-3.1L180.1 184l.6-.3c.4-.2 4.3-1.9 9.8-2.2 6.1-.4 15.1.7 23.4 8.4 7.2 6.6 10.3 18 8 29.6-3.4 17.5-17.7 32-39.1 40L83 307.2c.3 4 2.3 14.6 12.2 41 7.1 18.8 14.6 36 14.7 36.2l3.6 8.1-45.9 10-2.3-5.2zM81 351.4c-14.8-39.6-13.4-47.9-10.9-52.5l1.1-2.1 106-50.7.3-.1c16.7-6.2 27.7-16.9 30.2-29.3 1.1-5.4.4-12.5-3.5-16.1-3.6-3.3-7.9-4.9-12.7-4.6-2.1.1-3.7.6-4.5.8L44 295c.2 5.9 2.9 19.9 15.8 52.7 6.2 15.8 12.8 30.5 16.2 38l17.2-3.7c-3-7.2-7.8-18.7-12.2-30.6z"/><path d="M62.9 412.3l-5.3-11.4c-.4-.9-10.1-21.7-19.1-44.5-19.9-50.3-17.9-62.5-17.1-67.7l1.1-6.7L176 176.6l1.3-.6c1.3-.6 6.1-2.5 12.7-2.9.9-.1 1.8-.1 2.7-.1 7 0 17.5 1.9 27 10.7 9.4 8.6 13.4 23 10.5 37.5-4 20.3-20.1 37.1-44.1 46.2l-93.7 44.8c1.3 5.6 4.2 15.7 10.8 33.1 7 18.7 14.5 35.6 14.5 35.8l7.7 17.6-62.5 13.6zm-9.8-113c1.2 6.6 4.6 20 14.7 45.5 4.8 12 9.7 23.4 13.2 31.4l.5-.1c-2.6-6.4-5.6-13.9-8.5-21.6-16.1-43-14.2-52.4-10.5-59.5l1.8-3.4-11.2 7.7zm137.6-94.6l-122.3 84 105.5-50.4.7-.2c13.9-5.1 22.9-13.5 24.8-23 .7-3.8-.1-7.4-1-8.2-1.9-1.8-3.9-2.5-6.3-2.3-.5 0-1 .1-1.4.1z"/></g></svg>