<svg class="{{ include.class }}" alt="{{ include.alt }}" parallax={{ include.parallax }} xmlns="http://www.w3.org/2000/svg" width="714.8" height="340.4" viewBox="0 0 714.8 340.4"><path fill="#4CA392" d="M69.8 333.8s8.1-39.5-8-49.8C45.7 273.7 5.1 248.9.9 217c-4.2-32 8.7-37.1 16.4-22.3 7.7 14.9 29.6 86.2 38.3 40.8 1.4-11.9-17.4-43.1-27.9-55.7-10.5-12.6-38.7-67.1-12-70.3 26.7-3.2 43.2 85.4 46.6 91.2 3.4 5.9 9.6 18.2 11.7-13.1 2.1-31.4-41.6-146 1.7-168.8 43.2-22.7 47.2 54.1 27.8 124.5-19.4 70.4-22.3 81.8-15 77.7 7.2-4.1 31.3-68.3 57.6-48.2 26.3 20.1-34.3 62-51.6 82.7-17.3 20.8-17.2 51.2-13.6 65.8 3.4 14.7-12.7 24.7-11.1 12.5z"/><path fill="none" stroke="#050505" stroke-width="2.25" stroke-miterlimit="10" d="M76 337.6s-5.3-70.5-1.9-111.2C77.4 187.3 104 67.7 86.8 15M73 261.7s57.4-90.2 72.9-88.8m-73.3 95.5s-47.7 14.7-67-80.9m68.1 44.8s-46.4-56.4-62.1-121.7"/><path fill="#4CA392" d="M326.9 335.7s6.8-33.6-6.8-42.3c-13.7-8.7-48.1-29.8-51.7-56.9-3.6-27.1 7.3-31.5 13.9-18.9 6.6 12.6 25.2 73.2 32.5 34.6 1.2-10.1-14.8-36.6-23.7-47.3-8.9-10.7-32.8-57-10.2-59.7 22.6-2.7 36.7 72.5 39.6 77.4 2.9 5 8.2 15.5 9.9-11.2 1.7-26.6-35.3-124 1.4-143.3 36.7-19.3 40.1 45.9 23.6 105.7-16.5 59.8-18.9 69.5-12.7 66 6.1-3.5 26.6-57.9 48.9-40.9 22.3 17-29.1 52.6-43.8 70.2-14.7 17.6-14.6 43.5-11.5 55.9 2.9 12.6-10.8 21.1-9.4 10.7z"/><path fill="none" stroke="#050505" stroke-width="1.91" stroke-miterlimit="10" d="M332.2 339s-4.5-59.8-1.6-94.4c2.8-33.2 25.4-134.7 10.8-179.5m-11.8 209.4s48.8-76.6 61.9-75.4m-62.2 81.1s-40.5 12.5-56.8-68.7m57.7 38.1s-39.4-47.9-52.8-103.4"/><path fill="#4CA392" d="M645 319.1s-8.1-39.5 8-49.8c16.1-10.3 56.7-35.1 60.9-67 4.2-32-8.7-37.1-16.4-22.3-7.7 14.9-29.6 86.2-38.3 40.8-1.4-11.9 17.4-43.1 27.9-55.7 10.5-12.6 38.7-67.1 12-70.3-26.7-3.2-43.2 85.4-46.6 91.2-3.4 5.9-9.6 18.2-11.7-13.1-2.1-31.4 41.6-146-1.7-168.8-43.2-22.7-47.2 54.1-27.8 124.5 19.4 70.4 22.3 81.8 15 77.7-7.2-4.1-31.3-68.3-57.6-48.2-26.3 20.1 34.3 62 51.6 82.7 17.3 20.8 17.2 51.2 13.6 65.8-3.4 14.8 12.7 24.7 11.1 12.5z"/><path fill="none" stroke="#050505" stroke-width="2.25" stroke-miterlimit="10" d="M638.8 323s5.3-70.5 1.9-111.2C637.4 172.7 610.8 53 628 .3m13.8 246.8s-57.4-90.2-72.9-88.8m73.3 95.5s47.7 14.7 67-80.9m-68.1 44.8s46.4-56.4 62.1-121.7"/></svg>