<svg class="{{ include.class }}" alt="{{ include.alt }}" parallax={{ include.parallax }} xmlns="http://www.w3.org/2000/svg" width="814.7" height="246" viewBox="0 0 814.7 246"><path fill="#5AC1AE" d="M664.2 242.2s.4-30.8-13.1-36.2c-13.5-5.4-47.5-18.2-55.2-41.6-7.7-23.4 1.2-29.1 9.1-19 7.9 10 34.4 60.4 34.5 25.2-.6-9.1-19.2-29.8-28.8-37.8-9.7-8-38.5-44.8-19-51 19.5-6.2 44.5 57.9 47.9 61.8 3.4 3.9 9.8 12.3 6.9-11.5-2.9-23.8-51.9-103.6-22.7-126.8 29.2-23.2 43.1 33.8 38.5 89.4-4.6 55.5-5.1 64.5-.2 60.4 4.8-4.1 13.8-55.6 36.4-44.3 22.5 11.3-17 51.3-26.9 69.3-10 18-5.6 40.8-.9 51.3 4.7 10.4-6 20.2-6.5 10.8z"/><path fill="#4CA392" d="M67.3 239.4s-6.6-19.2-17-27.2-18-11.5-22.5-21.7c-4.5-10.3-19.3-11-22.1-18-2.8-7-11.1-22.3-1-28.1 10.1-5.8 26.1 23.8 32.9 39.1 6.7 15.3 15.1 15.6 12.8 10.1-2.3-5.5-10.4-34.7-4.1-46.6 6.3-11.9 26.8-19.4 25.3 3.6s-19.4 36.5-12.4 55.2c7 18.7 7.9 23.6 13.4 18.2 5.5-5.4.5-34.3 13.9-39.3s18.4 23.9 3.8 34.3c-14.6 10.4-21.5 19.5-20.5 22.7 1.2 3.1-2.5-2.3-2.5-2.3z"/><path fill="#5AC1AE" d="M360.2 237.9s-2.3-30.4-14.2-45.9c-12-15.5-21.8-23.5-24.3-40.1-2.6-16.6-23.8-23.3-25.1-34.5-1.3-11.2-7.6-36.6 9.3-41.1 16.9-4.6 28.8 44.5 32.7 69.3 3.9 24.8 15.9 28.4 14.7 19.5-1.2-8.9-1.9-54.3 11.8-69.2 13.7-14.9 46.3-17.9 35.4 14.9-10.9 32.8-42.1 45.5-39.1 75.3 3 29.8 2.4 37.2 12.5 31.4 10.1-5.8 13.9-49.5 35.2-51.7 21.3-2.2 17.7 41.6-7.5 51.2-25.2 9.6-38.7 20.1-38.3 25.1.2 4.9-3.1-4.2-3.1-4.2zm308-6.5s20.8-22.2 39.9-26.8c19.1-4.6 31.7-4.6 44.1-16 12.4-11.3 33.2-3.2 41.2-11.1 8.1-7.9 28.8-23.7 18.5-37.9-10.3-14.1-50.3 16.6-68.9 33.4-18.6 16.8-30.2 12.1-23.7 6 6.5-6.2 35.5-41.1 34.2-61.3-1.3-20.2-24.8-43-36.9-10.6-12.1 32.4 4.2 61.8-16.8 83.2-21 21.3-25.2 27.5-29.5 16.6-4.3-10.9 20.3-47.3 5-62.4-15.2-15.1-39.9 21.3-26.3 44.6 13.6 23.2 17.5 39.9 14.1 43.6-3.2 3.7 5.1-1.3 5.1-1.3z"/></svg>