<svg class="{{ include.class }}" alt="{{ include.alt }}" parallax={{ include.parallax }} xmlns="http://www.w3.org/2000/svg" viewBox="0 0 152.5 324.6"><path fill="#4CA392" d="M82.6 319.1s-8.1-39.5 8-49.8c16.1-10.3 56.7-35.1 60.9-67 4.2-32-8.7-37.1-16.4-22.3-7.7 14.9-29.6 86.2-38.3 40.8-1.4-11.9 17.4-43.1 27.9-55.7 10.5-12.6 38.7-67.1 12-70.3-26.7-3.2-43.2 85.4-46.6 91.2-3.4 5.9-9.6 18.2-11.7-13.1-2.1-31.4 41.6-146-1.7-168.8-43-22.6-47 54.2-27.6 124.6 19.4 70.4 22.3 81.8 15 77.7-7.2-4.1-31.3-68.3-57.6-48.2-26.3 20.1 34.3 62 51.6 82.7 17.3 20.8 17.2 51.2 13.6 65.8-3.6 14.7 12.6 24.6 10.9 12.4z"/><path fill="none" stroke="#050505" stroke-width="2.25" stroke-miterlimit="10" d="M76.4 323s5.3-70.5 1.9-111.2C75.1 172.7 48.4 53 65.6.3m13.9 246.8s-57.4-90.2-72.9-88.8m73.3 95.5s47.7 14.7 67-80.9m-68.1 44.8s46.4-56.4 62.1-121.7"/></svg>