<svg class="{{ include.class }}" alt="{{ include.alt }}" parallax={{ include.parallax }} xmlns="http://www.w3.org/2000/svg" width="1177.2" height="199.2" viewBox="0 0 1177.2 199.2"><path fill="#8CB279" d="M532.6 196.8s.3-19-8.1-22.4c-8.4-3.3-29.3-11.3-34.1-25.7-4.8-14.4.8-18 5.6-11.8 4.9 6.2 21.3 37.3 21.3 15.5-.4-5.6-11.8-18.4-17.8-23.3-6-4.9-23.8-27.7-11.7-31.5 12.1-3.8 27.5 35.8 29.6 38.2 2.1 2.4 6 7.6 4.2-7.1-1.8-14.7-32-64-14-78.3 18-14.3 26.6 20.9 23.8 55.2-2.8 34.3-3.1 39.8-.1 37.3s8.5-34.4 22.5-27.4c13.9 7-10.5 31.7-16.6 42.8-6.2 11.1-3.5 25.2-.5 31.7 2.8 6.6-3.8 12.6-4.1 6.8zm568.3-19.5s3.3-33.4 16.9-50.3c13.6-16.8 24.6-25.4 27.9-43.6 3.2-18.2 26.9-25.1 28.6-37.4 1.7-12.3 9.3-40.1-9.2-45.6s-32.9 48.4-37.9 75.6c-5 27.2-18.3 30.9-16.7 21.1 1.6-9.8 3.5-59.8-11.2-76.6-14.7-16.8-50.6-21-39.4 15.5 11.2 36.5 45.2 51.3 41.2 84-4.1 32.8-3.6 41-14.6 34.4-11-6.6-14-55-37.5-58s-20.5 45.5 7 56.7c27.5 11.2 42.1 23.2 41.7 28.7-.7 5.5 3.2-4.5 3.2-4.5zM36.3 186s1.7-17.9 9-26.9 13.2-13.6 14.9-23.3c1.7-9.7 14.4-13.4 15.3-20.1.9-6.6 5-21.5-4.9-24.4-9.9-2.9-17.6 25.9-20.3 40.5-2.7 14.6-9.8 16.5-8.9 11.3.8-5.2 1.9-32-6-41s-27.1-11.2-21.1 8.3 24.2 27.5 22.1 45c-2.2 17.5-1.9 22-7.8 18.4-5.9-3.6-7.5-29.4-20.1-31-12.6-1.6-11 24.3 3.7 30.3s22.6 12.4 22.3 15.4c-.3 2.8 1.8-2.5 1.8-2.5z"/></svg>