<svg class="{{ include.class }}" alt="{{ include.alt }}" parallax={{ include.parallax }} xmlns="http://www.w3.org/2000/svg" viewBox="0 0 128.7 167.6"><path fill="#008C6F" d="M65.9 161.9s-2.3-30.4-14.2-45.9c-12-15.5-21.8-23.5-24.3-40.1C24.8 59.4 3.5 52.6 2.2 41.4.9 30.2-5.3 4.8 11.5.3c16.9-4.6 28.8 44.5 32.7 69.3 4 24.7 16 28.4 14.7 19.5-1.2-8.9-1.9-54.3 11.8-69.2C84.4 5 117 2 106.1 34.8 95.1 67.6 64 80.3 67 110.1c3 29.8 2.4 37.2 12.5 31.4 10.1-5.8 13.9-49.5 35.2-51.7 21.3-2.2 17.7 41.6-7.5 51.2-25.2 9.6-38.7 20.1-38.3 25.1.3 5-3-4.2-3-4.2z"/></svg>