<svg class="{{ include.class }}" alt="{{ include.alt }}" parallax={{ include.parallax }} viewBox="0 0 2335.1 402"><path fill="#3E879F" d="M240.9 372.6s-3.6-48.3-22.6-73c-19-24.7-34.7-37.4-38.7-63.8-4.1-26.4-37.9-37.1-40-54.9-2.1-17.9-12-58.2 14.8-65.4 26.9-7.2 45.8 70.8 52.1 110.2 6.3 39.4 25.3 45.2 23.4 31-1.9-14.1-3-86.4 18.7-110.1 21.7-23.7 73.6-28.5 56.3 23.7-17.4 52.2-66.9 72.4-62.2 119.8 4.7 47.4 3.9 59.2 20 50 16.1-9.2 22.1-78.8 56-82.3s28.1 66.2-11.9 81.5c-40 15.2-61.5 32-61 40 .4 7.8-4.9-6.7-4.9-6.7z"/><path fill="#8CB279" d="M115.8 342s8.1-39.5-8-49.8c-16.1-10.3-56.7-35.1-60.9-67-4.2-32 8.7-37.1 16.4-22.3 7.7 14.9 29.6 86.2 38.3 40.8 1.4-11.9-17.4-43.1-27.9-55.7-10.5-12.6-38.7-67.1-12-70.3 26.7-3.2 43.2 85.4 46.6 91.2 3.4 5.9 9.6 18.2 11.7-13.1 2.1-31.4-41.6-146 1.7-168.8 43.2-22.7 47.2 54.1 27.8 124.5-19.4 70.4-22.3 81.8-15 77.7 7.2-4.1 31.3-68.3 57.6-48.2 26.3 20.1-34.3 62-51.6 82.7-17.3 20.8-17.2 51.2-13.6 65.8 3.4 14.8-12.8 24.7-11.1 12.5z"/><g><path fill="#4CA392" d="M201.9 396.4s8.1-39.9-8.1-50.3c-16.3-10.4-57.3-35.4-61.6-67.7-4.3-32.3 8.7-37.5 16.6-22.5 7.8 15 29.9 87.1 38.7 41.2 1.4-12-17.6-43.5-28.2-56.2-10.6-12.7-39.1-67.8-12.1-71 26.9-3.2 43.7 86.2 47.1 92.2 3.4 5.9 9.7 18.4 11.8-13.3 2.1-31.7-42-147.6 1.7-170.5 43.7-23 47.7 54.6 28.1 125.8-19.6 71.1-22.5 82.7-15.2 78.5 7.3-4.1 31.7-69 58.2-48.7 26.5 20.3-34.7 62.6-52.1 83.6-17.4 21-17.4 51.7-13.7 66.5 3.5 14.7-12.8 24.7-11.2 12.4z"/></g><g><path fill="#4CA392" d="M494.8 358.1s-8.1-39.5 8-49.8c16.1-10.3 56.7-35.1 60.9-67 4.2-32-8.7-37.1-16.4-22.3-7.7 14.9-29.6 86.2-38.3 40.8-1.4-11.9 17.4-43.1 27.9-55.7 10.5-12.6 38.7-67.1 12-70.3-26.7-3.2-43.2 85.4-46.6 91.2-3.4 5.9-9.6 18.2-11.7-13.1-2.1-31.4 41.6-146-1.7-168.8-43.2-22.7-47.2 54.1-27.8 124.5 19.4 70.4 22.3 81.8 15 77.7-7.2-4.1-31.3-68.3-57.6-48.2-26.3 20.1 34.3 62 51.6 82.7 17.3 20.8 17.2 51.2 13.6 65.8-3.5 14.8 12.7 24.7 11.1 12.5z"/></g><path fill="#8CB279" d="M313.4 370.8s.5-31.6-13.4-37.2c-13.9-5.6-48.8-18.7-56.7-42.8-7.9-24 1.3-29.9 9.4-19.6 8.1 10.3 35.4 62.1 35.4 25.9-.7-9.4-19.7-30.7-29.6-38.8-9.9-8.2-39.6-46.1-19.5-52.4 20.1-6.3 45.8 59.5 49.2 63.5 3.5 4 10.1 12.7 7.1-11.8S242 151.1 272 127.3c30-23.8 44.3 34.8 39.6 91.9-4.7 57.1-5.2 66.3-.2 62.1 5-4.2 14.2-57.2 37.4-45.5 23.2 11.6-17.4 52.7-27.7 71.3-10.3 18.5-5.8 41.9-.9 52.7 4.7 10.6-6.3 20.6-6.8 11z"/><path fill="#3E879F" d="M620.3 352.7s.6-39-16.6-45.9c-17.2-6.9-60.2-23.1-70-52.8-9.8-29.6 1.6-36.8 11.6-24.1 10 12.7 43.7 76.7 43.7 31.9-.8-11.6-24.3-37.8-36.6-47.9-12.3-10.1-48.8-56.8-24-64.7 24.8-7.8 56.5 73.4 60.7 78.4 4.3 5 12.4 15.6 8.7-14.6C594.1 182.8 532 81.6 569 52.2c37-29.4 54.6 42.9 48.8 113.4-5.8 70.4-6.4 81.8-.3 76.6 6.1-5.2 17.5-70.5 46.1-56.2 28.6 14.3-21.5 65.1-34.2 87.9-12.7 22.9-7.1 51.8-1.1 65 6.2 13.4-7.3 25.7-8 13.8zm259 7.6s2.3-31.3-11.2-37.6c-13.4-6.3-47.2-21.4-53.7-45.6-6.5-24.2 3-29.5 10.4-18.8 7.5 10.7 31.5 63.6 33.6 27.6-.1-9.3-17.7-31.5-27.1-40.2-9.4-8.7-36.5-47.9-16.3-53 20.2-5.1 41.9 61.5 45.1 65.7 3.2 4.2 9.2 13.1 7.7-11.3-1.6-24.4-46.6-108.5-15.5-130.4 31.1-21.8 41.8 37 33.9 93.2-7.9 56.2-9 65.3-3.8 61.5 5.2-3.9 17.4-55.8 39.6-42.9 22.3 12.9-20.3 51.2-31.5 69-11.2 17.7-8.1 41.2-3.9 52.1 4.2 11-7.3 20.3-7.3 10.7z"/><path fill="#8CB279" d="M575.9 359.2s4.7-47.7 24-71.7c19.4-24 35.1-36.2 39.8-62.2 4.6-26 38.3-35.8 40.8-53.4s13.2-57.3-13.2-65.1c-26.4-7.8-46.9 69-54 107.8-7.1 38.9-26.1 44.1-23.8 30.2 2.2-13.9 4.9-85.4-16-109.3-21-23.9-72.2-29.9-56.2 22.1 16 52.1 64.6 73.2 58.8 119.9-5.8 46.8-5.2 58.5-20.9 49s-20-78.4-53.5-82.7c-33.5-4.3-29.3 64.9 9.9 80.8 39.2 16 60.1 33.1 59.4 40.9-.6 7.9 4.9-6.3 4.9-6.3z"/><path fill="#3E879F" d="M379.3 325.7s-3.6-48.3-22.6-73c-19-24.7-34.7-37.4-38.7-63.8-4.1-26.4-37.9-37.1-40-54.9-2.1-17.9-12-58.2 14.8-65.4 26.9-7.3 45.8 70.8 52.1 110.2 6.3 39.4 25.3 45.2 23.4 31-1.9-14.1-3-86.4 18.7-110.1 21.7-23.7 73.6-28.5 56.3 23.7-17.4 52.2-66.9 72.4-62.2 119.8 4.7 47.4 3.9 59.2 20 50 16.1-9.2 22.1-78.8 56-82.3s28.1 66.2-11.9 81.5c-40 15.2-61.5 32-61 40 .3 7.8-4.9-6.7-4.9-6.7z"/><path fill="#4CA392" d="M655.4 339s26.4-28.2 50.6-34c24.2-5.8 40.2-5.9 55.9-20.2 15.7-14.3 42.1-4.1 52.3-14.1 10.2-10 36.6-30.1 23.5-48-13.1-17.9-63.8 21.1-87.4 42.4-23.6 21.3-38.3 15.4-30 7.6 8.3-7.8 45-52.1 43.4-77.7-1.7-25.6-31.5-54.5-46.8-13.4-15.3 41.1 5.4 78.4-21.3 105.5-26.6 27-32 34.9-37.4 21.1-5.4-13.8 25.7-59.9 6.4-79.1-19.3-19.2-50.6 27.1-33.3 56.5 17.2 29.5 22.2 50.7 17.9 55.3-4.3 4.5 6.2-1.9 6.2-1.9z"/><path fill="#8CB279" d="M396.7 374.9s-3-30.7-15.4-46.1c-12.5-15.4-22.6-23.3-25.5-40-3-16.7-24.6-23-26.2-34.3-1.6-11.3-8.5-36.8 8.5-41.8s30.2 44.3 34.7 69.3c4.6 25 16.7 28.3 15.3 19.4-1.4-9-3.2-54.8 10.3-70.2 13.5-15.4 46.4-19.2 36.1 14.2-10.3 33.4-41.5 47-37.8 77 3.7 30 3.3 37.6 13.4 31.5 10.1-6.1 12.9-50.4 34.4-53.1 21.5-2.7 18.8 41.7-6.4 51.9-25.4 10.3-38.8 21.3-38.3 26.3.4 5-3.1-4.1-3.1-4.1zM795.5 342s8.1-39.5-8-49.8c-16.1-10.3-56.7-35.1-60.9-67-4.2-32 8.7-37.1 16.4-22.3 7.7 14.9 29.6 86.2 38.3 40.8 1.4-11.9-17.4-43.1-27.9-55.7-10.5-12.6-38.7-67.1-12-70.3 26.7-3.2 43.2 85.4 46.6 91.2 3.4 5.9 9.6 18.2 11.7-13.1 2.1-31.4-41.6-146 1.7-168.8 43.2-22.7 47.2 54.1 27.8 124.5-19.4 70.4-22.3 81.8-15 77.7 7.2-4.1 31.3-68.3 57.6-48.2 26.3 20.1-34.3 62-51.6 82.7-17.3 20.8-17.2 51.2-13.6 65.8 3.4 14.8-12.8 24.7-11.1 12.5z"/><g><path fill="#4CA392" d="M897.9 396.4s8.1-39.9-8.1-50.3c-16.3-10.4-57.3-35.4-61.6-67.7-4.3-32.3 8.7-37.5 16.6-22.5 7.8 15 29.9 87.1 38.7 41.2 1.4-12-17.6-43.5-28.2-56.2-10.6-12.7-39.1-67.8-12.1-71 26.9-3.2 43.7 86.2 47.1 92.2 3.4 5.9 9.7 18.4 11.8-13.3 2.1-31.7-42-147.6 1.7-170.5 43.7-23 47.7 54.6 28.1 125.8-19.6 71.1-22.5 82.7-15.2 78.5 7.3-4.1 31.7-69 58.2-48.7 26.5 20.3-34.7 62.6-52.1 83.6-17.4 21-17.4 51.7-13.7 66.5 3.5 14.7-12.8 24.7-11.2 12.4z"/></g><g><path fill="#4CA392" d="M1423.3 322.3s8.1-39.9-8.1-50.3c-16.3-10.4-57.3-35.4-61.6-67.7-4.3-32.3 8.7-37.5 16.6-22.5 7.8 15 29.9 87.1 38.7 41.2 1.4-12-17.6-43.5-28.2-56.2-10.6-12.7-39.1-67.8-12.1-71 26.9-3.2 43.7 86.2 47.1 92.2 3.4 5.9 9.7 18.4 11.8-13.3 2.1-31.7-42-147.6 1.7-170.5 43.7-23 47.7 54.6 28.1 125.8-19.6 71.1-22.5 82.7-15.2 78.5 7.3-4.1 31.7-69 58.2-48.7 26.5 20.3-34.7 62.6-52.1 83.6-17.4 21-17.4 51.7-13.7 66.5 3.4 14.7-12.9 24.7-11.2 12.4z"/></g><g><path fill="#447E65" d="M701.2 340.6s6.8-33.2-6.8-41.8c-13.5-8.6-47.7-29.5-51.2-56.3-3.6-26.9 7.3-31.2 13.8-18.7 6.5 12.5 24.9 72.5 32.2 34.3 1.2-10-14.6-36.2-23.5-46.8-8.8-10.6-32.5-56.4-10.1-59.1 22.4-2.7 36.3 71.8 39.2 76.7 2.8 4.9 8.1 15.3 9.8-11.1 1.7-26.4-34.9-122.8 1.4-141.9 36.3-19.1 39.7 45.5 23.4 104.6-16.3 59.2-18.7 68.8-12.6 65.3 6.1-3.4 26.3-57.4 48.4-40.5 22.1 16.9-28.9 52.1-43.4 69.5-14.5 17.5-14.4 43-11.4 55.3 3 12.4-10.6 20.8-9.2 10.5z"/></g><g><path fill="#447E65" d="M1107.8 299s6.9-34.1-6.9-42.9c-13.9-8.8-48.9-30.2-52.5-57.8-3.6-27.5 7.5-32 14.1-19.2 6.7 12.8 25.5 74.3 33 35.2 1.2-10.3-15-37.1-24.1-48-9.1-10.9-33.3-57.8-10.3-60.6 23-2.7 37.3 73.6 40.2 78.6 2.9 5.1 8.3 15.7 10-11.3 1.8-27.1-35.8-125.9 1.4-145.5 37.3-19.6 40.7 46.6 24 107.3-16.7 60.7-19.2 70.5-12.9 67 6.2-3.5 27-58.8 49.7-41.5 22.6 17.3-29.6 53.4-44.5 71.3-14.9 17.9-14.8 44.1-11.7 56.7 3 12.7-10.9 21.2-9.5 10.7z"/></g><g><path fill="#447E65" d="M60.2 299s6.9-34.1-6.9-42.9C39.4 247.3 4.4 225.9.8 198.3c-3.6-27.5 7.5-32 14.1-19.2 6.7 12.8 25.5 74.3 33 35.2 1.2-10.3-15-37.1-24.1-48-9.1-10.9-33.3-57.8-10.3-60.6 23-2.7 37.3 73.6 40.2 78.6 2.9 5.1 8.3 15.7 10-11.3 1.7-27-35.9-125.8 1.4-145.4 37.3-19.6 40.7 46.6 24 107.3-16.7 60.7-19.2 70.5-12.9 67 6.2-3.5 27-58.8 49.7-41.5 22.6 17.3-29.6 53.4-44.5 71.3-14.9 17.9-14.8 44.1-11.7 56.7 3 12.6-10.9 21.1-9.5 10.6z"/></g><g><path fill="#447E65" d="M2033.9 297.5s7-34.5-7-43.4c-14-8.9-49.4-30.6-53.1-58.4-3.7-27.9 7.5-32.4 14.3-19.4 6.7 12.9 25.8 75.2 33.4 35.6 1.2-10.4-15.2-37.5-24.3-48.5-9.2-11-33.7-58.5-10.5-61.3 23.2-2.8 37.7 74.4 40.6 79.5 3 5.1 8.4 15.9 10.2-11.5 1.8-27.4-36.2-127.3 1.5-147.1 37.7-19.8 41.2 47.1 24.2 108.5-16.9 61.4-19.4 71.3-13.1 67.8 6.3-3.6 27.3-59.5 50.2-42 22.9 17.5-29.9 54-45 72.1-15 18.1-15 44.6-11.9 57.4 3.2 12.7-10.9 21.3-9.5 10.7z"/></g><g><path fill="#4CA392" d="M1190.8 358.1s-8.1-39.5 8-49.8c16.1-10.3 56.7-35.1 60.9-67 4.2-32-8.7-37.1-16.4-22.3-7.7 14.9-29.6 86.2-38.3 40.8-1.4-11.9 17.4-43.1 27.9-55.7 10.5-12.6 38.7-67.1 12-70.3-26.7-3.2-43.2 85.4-46.6 91.2-3.4 5.9-9.6 18.2-11.7-13.1-2.1-31.4 41.6-146-1.7-168.8-43.2-22.7-47.2 54.1-27.8 124.5 19.4 70.4 22.3 81.8 15 77.7-7.2-4.1-31.3-68.3-57.6-48.2-26.3 20.1 34.3 62 51.6 82.7 17.3 20.8 17.2 51.2 13.6 65.8-3.5 14.8 12.7 24.7 11.1 12.5z"/></g><path fill="#8CB279" d="M1346.3 352.7s.6-39-16.6-45.9c-17.2-6.9-60.2-23.1-70-52.8-9.8-29.6 1.6-36.8 11.6-24.1 10 12.7 43.7 76.7 43.7 31.9-.8-11.6-24.3-37.8-36.6-47.9-12.3-10.1-48.8-56.8-24-64.7 24.8-7.8 56.5 73.4 60.7 78.4 4.3 5 12.4 15.6 8.7-14.6-3.7-30.2-65.8-131.4-28.8-160.8 37-29.4 54.6 42.9 48.8 113.4-5.8 70.4-6.4 81.8-.3 76.6 6.1-5.2 17.5-70.5 46.1-56.2 28.6 14.3-21.5 65.1-34.2 87.9-12.7 22.9-7.1 51.8-1.1 65 6.2 13.4-7.3 25.7-8 13.8z"/><path fill="#3E879F" d="M1293.7 359.2s4.7-47.7 24-71.7c19.4-24 35.1-36.2 39.8-62.2 4.6-26 38.3-35.8 40.8-53.4s13.2-57.3-13.2-65.1c-26.4-7.8-46.9 69-54 107.8-7.1 38.9-26.1 44.1-23.8 30.2 2.2-13.9 4.9-85.4-16-109.3-21-23.9-72.2-29.9-56.2 22.1 16 52.1 64.6 73.2 58.8 119.9-5.8 46.8-5.2 58.5-20.9 49s-20-78.4-53.5-82.7c-33.5-4.3-29.3 64.9 9.9 80.8 39.2 16 60.1 33.1 59.4 40.9-.6 7.9 4.9-6.3 4.9-6.3zm-283.6-42.8s-3.6-48.3-22.6-73c-19-24.7-34.7-37.4-38.7-63.8-4.1-26.4-37.9-37.1-40-54.9-2.1-17.9-12-58.2 14.8-65.4 26.9-7.2 45.8 70.8 52.1 110.2 6.3 39.4 25.3 45.2 23.4 31-1.9-14.1-3-86.4 18.7-110.1 21.7-23.7 73.6-28.5 56.3 23.7-17.4 52.2-66.9 72.4-62.2 119.8 4.7 47.4 3.9 59.2 20 50 16.1-9.2 22.1-78.8 56-82.3s28.1 66.2-11.9 81.5c-40 15.2-61.5 32-61 40 .3 7.9-4.9-6.7-4.9-6.7zm1140.4 0s-3.6-48.3-22.6-73c-19-24.7-34.7-37.4-38.7-63.8-4.1-26.4-37.9-37.1-40-54.9-2.1-17.9-12-58.2 14.8-65.4 26.9-7.2 45.8 70.8 52.1 110.2 6.3 39.4 25.3 45.2 23.4 31-1.9-14.1-3-86.4 18.7-110.1 21.7-23.7 73.6-28.5 56.3 23.7-17.4 52.2-66.9 72.4-62.2 119.8 4.7 47.4 3.9 59.2 20 50 16.1-9.2 22.1-78.8 56-82.3s28.1 66.2-11.9 81.5c-40 15.2-61.5 32-61 40 .4 7.9-4.9-6.7-4.9-6.7z"/><path fill="#3E879F" d="M1351.4 339s26.4-28.2 50.6-34c24.2-5.8 40.2-5.9 55.9-20.2 15.7-14.3 42.1-4.1 52.3-14.1 10.2-10 36.6-30.1 23.5-48-13.1-17.9-63.8 21.1-87.4 42.4-23.6 21.3-38.3 15.4-30 7.6 8.3-7.8 45-52.1 43.4-77.7-1.7-25.6-31.5-54.5-46.8-13.4-15.3 41.1 5.4 78.4-21.3 105.5-26.6 27-32 34.9-37.4 21.1-5.4-13.8 25.7-59.9 6.4-79.1-19.3-19.2-50.6 27.1-33.3 56.5 17.2 29.5 22.2 50.7 17.9 55.3-4.3 4.5 6.2-1.9 6.2-1.9z"/><path fill="#8CB279" d="M1092.7 374.9s-3-30.7-15.4-46.1c-12.5-15.4-22.6-23.3-25.5-40-3-16.7-24.6-23-26.2-34.3-1.6-11.3-8.5-36.8 8.5-41.8s30.2 44.3 34.7 69.3c4.6 25 16.7 28.3 15.3 19.4-1.4-9-3.2-54.8 10.3-70.2 13.5-15.4 46.4-19.2 36.1 14.2-10.3 33.4-41.5 47-37.8 77 3.7 30 3.3 37.6 13.4 31.5 10.1-6.1 12.9-50.4 34.4-53.1 21.5-2.7 18.8 41.7-6.4 51.9-25.2 10.3-38.6 21.3-38.2 26.3.3 5-3.2-4.1-3.2-4.1zm432-32.9s8.1-39.5-8-49.8c-16.1-10.3-56.7-35.1-60.9-67-4.2-32 8.7-37.1 16.4-22.3 7.7 14.9 29.6 86.2 38.3 40.8 1.4-11.9-17.4-43.1-27.9-55.7-10.5-12.6-38.7-67.1-12-70.3 26.7-3.2 43.2 85.4 46.6 91.2 3.4 5.9 9.6 18.2 11.7-13.1 2.1-31.4-41.6-146 1.7-168.8 43.2-22.7 47.2 54.1 27.8 124.5-19.4 70.4-22.3 81.8-15 77.7 7.2-4.1 31.3-68.3 57.6-48.2 26.3 20.1-34.3 62-51.6 82.7-17.3 20.8-17.2 51.2-13.6 65.8 3.4 14.8-12.7 24.7-11.1 12.5z"/><g><path fill="#4CA392" d="M1627.2 396.4s8.1-39.9-8.1-50.3c-16.3-10.4-57.3-35.4-61.6-67.7-4.3-32.3 8.7-37.5 16.6-22.5 7.8 15 29.9 87.1 38.7 41.2 1.4-12-17.6-43.5-28.2-56.2-10.6-12.7-39.1-67.8-12.1-71 26.9-3.2 43.7 86.2 47.1 92.2 3.4 5.9 9.7 18.4 11.8-13.3 2.1-31.7-42-147.6 1.7-170.5 43.7-23 47.7 54.6 28.1 125.8-19.6 71.1-22.5 82.7-15.2 78.5 7.3-4.1 31.7-69 58.2-48.7 26.5 20.3-34.7 62.6-52.1 83.6-17.4 21-17.4 51.7-13.7 66.5 3.5 14.7-12.9 24.7-11.2 12.4z"/></g><g><path fill="#4CA392" d="M1920 358.1s-8.1-39.5 8-49.8c16.1-10.3 56.7-35.1 60.9-67 4.2-32-8.7-37.1-16.4-22.3-7.7 14.9-29.6 86.2-38.3 40.8-1.4-11.9 17.4-43.1 27.9-55.7 10.5-12.6 38.7-67.1 12-70.3-26.7-3.2-43.2 85.4-46.6 91.2-3.4 5.9-9.6 18.2-11.7-13.1-2.1-31.4 41.6-146-1.7-168.8-43.2-22.7-47.2 54.1-27.8 124.5 19.4 70.4 22.3 81.8 15 77.7-7.2-4.1-31.3-68.3-57.6-48.2-26.3 20.1 34.3 62 51.6 82.7 17.3 20.8 17.2 51.2 13.6 65.8-3.4 14.8 12.8 24.7 11.1 12.5z"/></g><path fill="#8CB279" d="M1711.4 355.6s.3-19-8.1-22.4c-8.4-3.3-29.3-11.3-34.1-25.7-4.8-14.4.8-18 5.6-11.8 4.9 6.2 21.3 37.3 21.3 15.5-.4-5.6-11.8-18.4-17.8-23.3-6-4.9-23.8-27.7-11.7-31.5 12.1-3.8 27.5 35.8 29.6 38.2 2.1 2.4 6 7.6 4.2-7.1-1.8-14.7-32-64-14-78.3 18-14.3 26.6 20.9 23.8 55.2-2.8 34.3-3.1 39.8-.1 37.3s8.5-34.4 22.5-27.4c13.9 7-10.5 31.7-16.7 42.8-6.2 11.1-3.5 25.2-.5 31.7 2.9 6.6-3.7 12.6-4 6.8z"/><path fill="#4CA392" d="M1489.2 324.5s-6.6-19.2-17-27.2-18-11.5-22.5-21.7c-4.5-10.3-19.3-11-22.1-18-2.8-7-11.1-22.3-1-28.1 10.1-5.8 26.1 23.8 32.9 39.1 6.7 15.3 15.1 15.6 12.8 10.1-2.3-5.5-10.4-34.7-4.1-46.6 6.3-11.9 26.8-19.4 25.3 3.6s-19.4 36.5-12.4 55.2c7 18.7 7.9 23.6 13.4 18.2 5.5-5.4.5-34.3 13.9-39.3s18.4 23.9 3.8 34.3c-14.6 10.4-21.5 19.5-20.5 22.7 1.1 3-2.5-2.3-2.5-2.3z"/><path fill="#3E879F" d="M1767.4 349s-3.6-48.3-22.6-73c-19-24.7-34.7-37.4-38.7-63.8-4.1-26.4-37.9-37.1-40-54.9-2.1-17.9-12-58.2 14.8-65.4 26.9-7.2 45.8 70.8 52.1 110.2 6.3 39.4 25.3 45.2 23.4 31-1.9-14.1-3-86.4 18.7-110.1 21.7-23.7 73.6-28.5 56.3 23.7-17.4 52.2-66.9 72.4-62.2 119.8 4.7 47.4 3.9 59.2 20 50 16.1-9.2 22.1-78.8 56-82.3s28.1 66.2-11.9 81.5c-40 15.2-61.5 32-61 40 .4 7.8-4.9-6.7-4.9-6.7z"/><path fill="#8CB279" d="M1821.9 374.9s-3-30.7-15.4-46.1c-12.5-15.4-22.6-23.3-25.5-40-3-16.7-24.6-23-26.2-34.3-1.6-11.3-8.5-36.8 8.5-41.8s30.2 44.3 34.7 69.3c4.6 25 16.7 28.3 15.3 19.4-1.4-9-3.2-54.8 10.3-70.2 13.5-15.4 46.4-19.2 36.1 14.2-10.3 33.4-41.5 47-37.8 77 3.7 30 3.3 37.6 13.4 31.5 10.1-6.1 12.9-50.4 34.4-53.1 21.5-2.7 18.8 41.7-6.4 51.9C1838 363 1824.6 374 1825 379c.5 5-3.1-4.1-3.1-4.1z"/><path fill="#3E879F" d="M1942.8 339s26.4-28.2 50.6-34c24.2-5.8 40.2-5.9 55.9-20.2 15.7-14.3 42.1-4.1 52.3-14.1 10.2-10 36.6-30.1 23.5-48-13.1-17.9-63.8 21.1-87.4 42.4-23.6 21.3-38.3 15.4-30 7.6 8.3-7.8 45-52.1 43.4-77.7-1.7-25.6-31.5-54.5-46.8-13.4-15.3 41.1 5.4 78.4-21.3 105.5-26.6 27-32 34.9-37.4 21.1-5.4-13.8 25.7-59.9 6.4-79.1-19.3-19.2-50.6 27.1-33.3 56.5 17.2 29.5 22.2 50.7 17.9 55.3-4.4 4.5 6.2-1.9 6.2-1.9z"/><path fill="#8CB279" d="M2116.1 342s8.1-39.5-8-49.8c-16.1-10.3-56.7-35.1-60.9-67-4.2-32 8.7-37.1 16.4-22.3 7.7 14.9 29.6 86.2 38.3 40.8 1.4-11.9-17.4-43.1-27.9-55.7-10.5-12.6-38.7-67.1-12-70.3 26.7-3.2 43.2 85.4 46.6 91.2 3.4 5.9 9.6 18.2 11.7-13.1 2.1-31.4-41.6-146 1.7-168.8 43.2-22.7 47.2 54.1 27.8 124.5-19.4 70.4-22.3 81.8-15 77.7 7.2-4.1 31.3-68.3 57.6-48.2 26.3 20.1-34.3 62-51.6 82.7-17.3 20.8-17.2 51.2-13.6 65.8 3.4 14.8-12.7 24.7-11.1 12.5z"/><g><path fill="#4CA392" d="M2218.5 396.4s8.1-39.9-8.1-50.3c-16.3-10.4-57.3-35.4-61.6-67.7-4.3-32.3 8.7-37.5 16.6-22.5 7.8 15 29.9 87.1 38.7 41.2 1.4-12-17.6-43.5-28.2-56.2-10.6-12.7-39.1-67.8-12.1-71 26.9-3.2 43.7 86.2 47.1 92.2 3.4 5.9 9.7 18.4 11.8-13.3 2.1-31.7-42-147.6 1.7-170.5 43.7-23 47.7 54.6 28.1 125.8-19.6 71.1-22.5 82.7-15.2 78.5 7.3-4.1 31.7-69 58.2-48.7 26.5 20.3-34.7 62.6-52.1 83.6-17.4 21-17.4 51.7-13.7 66.5 3.5 14.7-12.8 24.7-11.2 12.4z"/></g><path fill="#2D9782" d="M2291.8 361.8s.5-32.5-13.8-38.2c-14.3-5.7-50.1-19.2-58.2-43.9-8.1-24.6 1.3-30.6 9.6-20.1 8.3 10.6 36.3 63.7 36.4 26.5-.7-9.6-20.2-31.5-30.4-39.8-10.2-8.4-40.6-47.3-20-53.8s46.9 61 50.5 65.2c3.6 4.1 10.3 13 7.2-12.1-3.1-25.1-54.7-109.3-23.9-133.7 30.8-24.4 45.4 35.7 40.6 94.3-4.8 58.6-5.4 68-.3 63.7 5.1-4.3 14.6-58.7 38.4-46.7 23.8 11.9-17.9 54.1-28.4 73.1-10.5 19-5.9 43-.9 54.1 5 11-6.3 21.2-6.8 11.4z"/><path fill="#8CB279" d="M982.2 325.3s.3-19-8.1-22.4c-8.4-3.3-29.3-11.3-34.1-25.7-4.8-14.4.8-18 5.6-11.8 4.9 6.2 21.3 37.3 21.3 15.5-.4-5.6-11.8-18.4-17.8-23.3-6-4.9-23.8-27.7-11.7-31.5 12.1-3.8 27.5 35.8 29.6 38.2 2.1 2.4 6 7.6 4.2-7.1-1.8-14.7-32-64-14-78.3 18-14.3 26.6 20.9 23.8 55.2-2.8 34.3-3.1 39.8-.1 37.3s8.5-34.4 22.5-27.4c13.9 7-10.5 31.7-16.7 42.8-6.2 11.1-3.5 25.2-.5 31.7 2.9 6.6-3.7 12.6-4 6.8z"/><path fill="#4CA392" d="M113.3 308.4s-6.6-19.2-17-27.2-18-11.5-22.5-21.7c-4.5-10.3-19.3-11-22.1-18-2.8-7-11.1-22.3-1-28.1 10.1-5.8 26.1 23.8 32.9 39.1 6.7 15.3 15.1 15.6 12.8 10.1-2.3-5.5-10.4-34.7-4.1-46.6 6.3-11.9 26.8-19.4 25.3 3.6s-19.4 36.5-12.4 55.2c7 18.7 7.9 23.6 13.4 18.2 5.5-5.4.5-34.3 13.9-39.3s18.4 23.9 3.8 34.3c-14.6 10.4-21.5 19.5-20.5 22.7 1.2 3-2.5-2.3-2.5-2.3z"/></svg>