<svg class="{{ include.class }}" alt="{{ include.alt }}" parallax={{ include.parallax }} xmlns="http://www.w3.org/2000/svg" width="74.3" height="152" viewBox="0 0 74.3 152"><path fill="#8CB279" d="M48.9 149.6s.3-19-8.1-22.4c-8.4-3.3-29.3-11.3-34.1-25.7-4.8-14.4.8-18 5.6-11.8 4.9 6.2 21.3 37.3 21.3 15.5-.4-5.5-11.8-18.3-17.8-23.2C9.8 77.1-8 54.3 4.1 50.5c12.1-3.8 27.5 35.8 29.6 38.2 2.1 2.4 6 7.6 4.2-7.1-1.8-14.7-32-64-14-78.3C42-11 50.5 24.2 47.7 58.5c-2.8 34.3-3.1 39.8-.1 37.3s8.5-34.4 22.5-27.4c13.9 7-10.5 31.7-16.6 42.8-6.2 11.1-3.5 25.2-.5 31.7 2.8 6.5-3.8 12.5-4.1 6.7z"/></svg>