<svg class="{{ include.class }}" alt="{{ include.alt }}" width="615.4" height="418" viewBox="0 0 615.4 418"><g><path fill="#5B5B5C" d="M35.2 290.9s-68.3 36.3-14.8 101.2c47.6 57.7 107.1 4.9 112.7-30.4 5.6-35.3-21.8-117.3-97.9-70.8z"/><path fill="#EDEEE2" d="M100.8 319.6s-38-37.6-70.6 2.7C3.7 354.9 44.8 396.8 70 394.7c25.2-2.1 72.7-25.7 30.8-75.1z"/><path fill="#DDDBD9" d="M436.4 131.3L6.1 88.1s5.2 52.7 14.1 60c45.2 37.1 64.4 64 73.4 100.3 2.7 13 13.9 32.6 93.1 33.8l185.6 2.6s86.5-190.3 64.1-153.5z"/><path fill="#CC7428" d="M156 282.7c-.7-1-1.8-1.4-2.5-.9l-89.7 61.4c-.7.5-.8 1.7-.1 2.7l2 3c.7 1 1.8 1.4 2.5.9l89.7-61.4c.7-.5.8-1.7.1-2.7l-2-3z"/><path fill="#CC7428" d="M149.3 277.9l240.38 3.4-.2 13.7-240.36-3.4z"/><path fill="#CC7428" d="M381.7 286.6l-11.6-3.8c3.7-11.2 91.4-275 201.1-273.4l-.2 12.2c-41.1-.6-86.7 44.6-132 130.8-34.8 66.3-57 133.6-57.3 134.2zM365.1 418l-43.4-.6-115.1-129.1 9.1-8.1 111.6 125.1 25.7.3 1.7-121.2 12.2.2"/><g fill="#113C61"><path d="M569.2.04l9.4.13-.4 29.1-9.4-.14z"/><path d="M569.1 9.37l46.38.66-.17 11.9-46.37-.66z"/></g></g></svg>