<svg class="{{ include.class }}" parallax="{{ include.parallax }}" alt="{{ include.alt }}" xmlns="http://www.w3.org/2000/svg" xmlns:xlink="http://www.w3.org/1999/xlink" width="471" height="1180.6" viewBox="0 0 471 1180.6"><g><path fill="#4CA392" d="M433 75.7s-32.1-6.7-49.3 27.9c12.1 3.3 38.4 5.8 49.3-27.9z"/><path fill="#D49523" d="M416.5 147.7s-13.8-10.1-12.8-22.2-9.1-23.7-21.7-23.7-16.3 19.5-19 36.3c-.2 4-10.6 11.1-15.8 18.5-5.2 7.4-15.1 25.4-1.7 48.7 13.3 23.2 33.6 10.4 33.6 10.4s18.5 9.1 30.6 3.5c12.1-5.5 43-33.4 6.9-70.7"/><path fill="#365122" stroke="#365122" stroke-width="2.72" stroke-miterlimit="10" d="M384.2 103.8s-.5-4.3-1.3-8.9c-.9-5.3-2.2-11.1-3.4-11.1h-2.2s5.4 20.3 4.9 21.7c-.5 1.5 2-1.7 2-1.7z"/></g><g><path fill="#4CA392" d="M207.3 309s-28-24.3-64.1.4c10.1 9.9 34.7 26.9 64.1-.4z"/><path fill="#D49523" d="M151.3 371.2s-8.1-17.6-.4-29c7.6-11.4 4-28.5-8.4-35.4-12.4-6.9-26.9 10.3-38.8 25.4-2.4 3.8-16.6 5.1-25.8 9.6S49 358.6 49.4 388.9c.4 30.3 27.5 28.8 27.5 28.8s13.3 19.2 28.3 20.4c15 1.2 60.9-9.3 45.8-66.1"/><path fill="#365122" stroke="#365122" stroke-width="3.08" stroke-miterlimit="10" d="M143.6 309.9s1.9-4.6 3.6-9.6c2-5.8 3.9-12.1 2.8-12.8l-2.2-1.2s-5.8 23-7.1 24.2c-1.3 1.2 2.9-.6 2.9-.6z"/></g><g><path fill="#4CA392" d="M205.6 615.2s14.8-37.5 33.9-37.3c19.1.2 66.6 1.6 87.6-22.8 21-24.5 13-35.8-1.6-27.6-14.6 8.2-71.9 56-54.3 13.3 5.3-10.8 38.1-26.6 53.8-31.4 15.7-4.8 69-35.1 48.4-52.3-20.4-17.2-82.7 47.9-88.7 50.9-6 3.1-18 10-2.6-17.4s114.6-99.6 90.8-142.3c-23.8-42.7-69.1 19.5-91.3 89.1-22.2 69.6-26.1 80.7-29.9 73.3-3.8-7.4 11-74.3-21.9-71.8-33 2.4-5.1 70.7-2 97.5 3.1 26.8-13.6 52.3-24.6 62.5-11 10.3-2.9 27.4 2.4 16.3z"/><path fill="none" stroke="#050505" stroke-width="2.25" stroke-miterlimit="10" d="M198.3 615.1s42.9-56.1 62.4-92.1c18.6-34.5 61.7-149.3 104.9-184M242.3 553.2s1.2-106.9-12.6-114.3M239 559s31.9 38.4 100.3-31.2m-81.5.4s69.7-21.9 118.6-68"/></g><g><path fill="#AAA" d="M273.6 259.2l-.1-.1-.1-.1c-5.7-11.4 4-24.8 9.2-32 .8-1.1 1.6-2.3 2-2.9-.3-3.1-6.7-15-12.8-24.5l-1.9-2.9 13.6-7.9 1.6 3.1c5.2 10 12.4 21.4 15 23.2.8 0 2.2-.2 3.5-.3 8.8-1 25.3-2.8 32.4 7.7l30.7 52.5 3.7 16.3-4.9 2.9-12.4-11.2-18.8-32.1-1.7-3c-1.8-2.9-5.6-3.9-8.6-2.2-3 1.7-4 5.5-2.4 8.6l20.5 35.1 3.7 16.3-4.9 2.9-12.4-11.2-20.4-35c-1.8-3-5.7-4-8.7-2.3-3 1.7-4 5.5-2.4 8.5l20.5 35.2 3.7 16.3-4.9 2.9-12.3-11.5-30.4-52.3z"/><path fill-rule="evenodd" clip-rule="evenodd" fill="#5B5B5C" d="M274.4 196.8c-.4-.6-.2-1.4.3-1.7l4.4-2.6c.6-.3 1.3-.1 1.7.5l16.8 28.4c.4.6 10.9 22.5 10.3 22.8l-1.3.5c-.6.3-15.1-18.8-15.5-19.5l-16.7-28.4z"/><path fill="#CC7428" d="M266.5 198.7c.9 1.6 2.9 2.1 4.5 1.2l14.9-8.7c1.6-.9 2.1-2.9 1.2-4.5l-52-89.1c-.9-1.6-2.9-2.1-4.5-1.2l-14.9 8.7c-1.6.9-2.1 2.9-1.2 4.5l52 89.1z"/></g><g><path fill="#AAA" d="M413.2 581c-.6.3-15.4-2.3-25 1.4-7.8 3-21.8 9.6-22.5 21.5l-.1 56.9 4.7 14.9h5.3l4.7-14.9v-38c.1-3.2 2.7-5.8 5.9-5.8s5.9 2.6 5.9 5.8v38.1l4.7 14.9h5.3l4.7-14.9V623c0-3.3 2.7-5.9 5.9-5.9h.3c3.3 0 5.9 2.7 5.9 5.9v37.9l4.7 14.9h5.3l4.7-14.9v-38.1c.1-3.2 2.7-5.8 5.9-5.8s5.9 2.6 5.9 5.8v38l4.7 14.9h5.3l4.7-14.9-.1-56.9c-.8-11.9-14.8-18.5-22.5-21.5-9.5-3.7-24.4-1.1-25-1.4"/><path fill="#AAA" d="M405.3 544.9h15.4v43.9h-15.4z"/><path fill-rule="evenodd" clip-rule="evenodd" fill="#5B5B5C" d="M409.4 548.7c0-.7.5-1.2 1.1-1.3h4.8c.6 0 1.1.5 1.1 1.2l.2 30.9c0 .7-1.8 23.3-2.4 23.3l-1.2-.2c-.6 0-3.3-22.3-3.3-23l-.3-30.9z"/><path fill="#026862" d="M381.4 241.3l18.2 39.3c.4.9 1.3 1.4 2.3 1.4h1.7v244.1c0 1.4 1.1 2.5 2.5 2.5h14.1c1.4 0 2.5-1.1 2.5-2.5V282h1.6c1 0 1.9-.6 2.3-1.4l18.2-39.3c.4-.8.3-1.7-.2-2.4s-1.3-1.1-2.1-1.1h-58.7c-.8 0-1.6.4-2.1 1.1-.6.7-.7 1.6-.3 2.4zm43.3 10.3l-7.7 16.7h-7.9l-7.7-16.7h23.3z"/><path fill="#CC7428" d="M400.5 548.9c0 .2.2.4.4.4H425c.2 0 .4-.2.4-.4v-24.2c0-.2-.2-.4-.4-.4h-24c-.2 0-.4.2-.4.4v24.2z"/></g><g><path fill="#365122" stroke="#365122" stroke-width="2.55" stroke-miterlimit="10" d="M135.3 553.2s-4.4-12.6 2.3-24.7 6.5-5.6 11.6-11c5-5.4 25.8-25.3 5.8-21-1.7.6-1.6-1.8 3.2-6.7 4.8-5 .7-18.2 1-20.5.3-2.3 1.8-32.6-4.1-32.2-5.9.4-6.4 7.5-4.7 22.4 1.7 14.9 1.9 35-3 25.6-4.8-9.4-11-13.1-8.4-2.7 2.5 10.4 8.2 27.7 3.8 30.3-4.4 2.6-3.4-.4-3-4.9.4-4.5.3-9.5-4.1-6.8-4.4 2.7-1.2 13.8-1.7 23s-2.4 24.8-3.3 22.5c-.9-2.3-8.3-20.9-13.6-29.6-5.3-8.7-13.4-26.6-9.7-32 3.6-5.4 0-11.8-3.7-9.2-3.7 2.6-3.2 15.1-5.4 11.5-2.2-3.7-2.1-16.2-6.8-19.2-4.7-3-19.6-13.2-21.3-19.1-1.8-5.9-14.5-3.4-6.2 6.8s19.1 15 18.5 19c-.6 3.9-7-2-10.1.4-3 2.4-5.6 8.2 4.9 14.4 10.5 6.2 25.6 10.9 22.2 12.3-3.5 1.5-6.3-4.3-10.6-1.6-4.4 2.7 2.5 8 12.9 15.5 10.4 7.4 15.3 1.9 25 26.2 1 2 2.4 4.1-.6 1.4-2.9-2.8-11.1-12.2-23.6-10.6-1.9 0 3.3-9.3-2.9-8-6.2 1.3-4.5 7.7-8.2 6.3-3.7-1.4-6.1-18-12.4-12.2-6.3 5.8 1.7 11.4 2.1 12.2.4.8.1 4.6-29.9 0s-19 8.8-15.7 10.8c3.3 1.9 35.2-2.7 33.6.7-1.5 3.5-4.3 6.6-3.1 8.2 1.2 1.6 12.8-8.2 16.7-5.4 3.8 2.7 1 4.5.7 6.9-.3 2.4 2.7 10.8 7 2s6.1-22 27.4-12.8c1.7 1.3 11.2 6.1 13.3 13.6 1.9-.6 4.1-1.8 4.1-1.8z"/><path fill="#E73267" d="M134.3 551.7s-38.5 7.7-32.2 44.6c6.2 36.9 37.1 33.1 42.2 38.4 2.2 1.8 4.1 3.4 4.1 3.4s-1.8-1.6 8.6-8.2c7.9-5 32.2-24.7 23.8-49.1-8.6-24.4-27.7-35.1-46.5-29.1z"/></g><g><path fill="#5B5B5C" d="M141.6 816.5c-.9.6-1.2 1.9-.6 2.8l65.8 101.3c.6.9 1.9 1.2 2.8.6l61.5-39.9c.9-.6 1.2-1.9.6-2.8l-65.8-101.3c-.6-.9-1.9-1.2-2.8-.6l-61.5 39.9z"/><path fill="#AAA" d="M134.8 720.1l71.1 116.7-10.4 6.8-77.6-112.5"/><path fill="#D49523" d="M1.2 593.8l38.4 24.1c.9.5 2 .5 2.8 0l1.5-.9 98.9 152.3c.8 1.2 2.4 1.6 3.6.8l12.4-8c1.2-.8 1.6-2.4.8-3.6l-99-152.4 1.4-.9c.9-.6 1.3-1.6 1.2-2.6l-6.4-44.9c-.1-.9-.7-1.6-1.5-2-.8-.4-1.8-.3-2.5.2L1.2 589.4c-.7.5-1.2 1.3-1.2 2.2 0 .9.5 1.8 1.2 2.2zm44-15.7l2.7 19.1-7 4.5-16.3-10.3 20.6-13.3z"/></g><g><path fill="#AAA" d="M309.4 711.2s-6.2-27.3-47.6-19.4c-41.5 7.9-93.5 18.5-94.4 29.1-.9 10.6 93.5 33.5 105 33.5s39.2-6.4 37-27.3v-15.9z"/><path fill="#D49523" d="M292.3 730.3s84.7 10.9 117.9 7.6c21.8-16.8 4.4-36.5-.6-39.4-5-2.9-117.3 14.1-117.3 14.1v17.7z"/></g><g fill-rule="evenodd" clip-rule="evenodd"><path fill="#5B5B5C" d="M80.7 278c-1.1 11.9 14.2 14.3 14.2 14.3 9.8 2.5 20.3-1.4 31.5-10.9 16.6-14.1 24.8-30.2 28.6-47.3 2.2-10 1.9-17.6 3.7-27.5 0 0 .9-6.3-1.6-8.8-2.5-2.5-8.8-1.7-8.8-1.7-9.9 1.7-17.5 1.3-27.5 3.4-17.1 3.6-33.2 11.5-47.6 28-9.6 11-13.7 21.5-11.3 31.3 0 0 2.3 15.3 14.2 14.3l4.6 4.9z"/><path fill="#A9AAAA" d="M61.3 300.1c-.8.8-2 .8-2.7.2l-5.4-5.5c-.7-.7-.6-1.9.2-2.7l35.3-34.9c.8-.8 28.8-24.1 29.5-23.4l1.1 1.7c.7.7-22 28.9-22.8 29.7l-35.2 34.9z"/><path fill="#CC7428" d="M15.5 348.4c-1 1-2.2 1.5-2.6 1.1l-9.7-9.8c-.4-.4.1-1.5 1.1-2.5l55.3-54.6c1-1 2.2-1.5 2.6-1.1l9.7 9.8c.4.4-.1 1.5-1.1 2.5l-55.3 54.6z"/></g><g><path fill="#EF5F60" d="M288.4 619.2s18.5-4.3 28.4 9.4c9.9 13.7 13.6 48.3-26.4 51.7-40 3.4-41.7-37.6-37.4-44.8 4.3-7.2 8.6-21.7 35.4-16.3z"/><g fill="#026862"><path d="M290.1 623.2s.8-11.6 0-9.8c-.8 1.8-2.6 9.8-2.6 9.8s-6.4-8.2-7.7-8.4c-1.3-.3 5.3 9.2 5.3 9.2s-13.8-.5-11.4 0c2.4.5 10.4 2.8 10.4 2.8s-10.8 2.9-10.7 4.7c0 1.8 12.6-4.5 11.9-2.3-.8 2.3-6.9 13.6-6 13.1.9-.5 5-6.7 7.4-11.5 2.6 3.1 8.7 13.6 7.7 9.7-1-3.9-4.7-8.8-4.2-9.8s13 2.1 10.8.6c-2.1-1.5-11.3-3-10.2-4.2 1.1-1.1 8.8-7 8.1-7-.7-.1-10 5.9-8.8 3.1z"/><path d="M278.8 642.9l-.2-.3c-.3-.5-.4-.6 3-7.4 1.2-2.3 2.3-4.7 2.8-5.9-1 .1-3 .8-4.8 1.5-2.3.8-4.5 1.6-5.6 1.6-.9 0-1.3-.5-1.3-1 0-1.6 4.3-3.3 8.8-4.7-2.6-.7-6.4-1.8-8-2.1-.8-.2-.9-.6-.8-.9.1-.8.7-.8 2.9-.8 2.4 0 6.1.1 8.1.2-5.3-7.6-4.9-8.3-4.7-8.7.1-.3.4-.4.7-.4h.2c1.2.2 4.7 4.4 7.2 7.5.6-2.4 1.8-7.2 2.3-8.5.2-.5.6-.6.8-.6h.3l.2.2c.2.2.7.7 0 10.4 1.2-.3 3.7-1.7 5.2-2.5 2-1.1 2.5-1.3 2.9-1.3.3 0 .6.2.7.5.2.6.3.7-5.2 5.2-1.1.9-2.1 1.7-2.7 2.3.8.4 2.7 1 4.1 1.3 2.4.7 4.6 1.3 5.6 2.1.6.4.6.8.5 1.1-.2.6-.9.6-1.2.6-.9 0-2.5-.3-4.4-.6-1.9-.3-4.2-.7-5.3-.7h-.2c.2.6.9 1.9 1.4 2.9 1 1.8 2.2 4.1 2.7 6.2.2.6.2 1.1-.1 1.4-.2.2-.4.3-.6.3-.7 0-1.3-.7-4.5-5.5-1.1-1.6-2.2-3.3-3.1-4.4-2.4 4.5-6.1 10.1-7.2 10.8l-.2.1-.3.1zm17.8-12.5c.2 0 .4.1.6.1-.6-.2-1.2-.3-1.7-.5-3.8-1.1-5.1-1.6-5.4-2.4-.1-.3 0-.7.3-.9.4-.4 1.7-1.5 3.2-2.7.3-.3.7-.6 1.1-.9-1.9 1-3.4 1.6-4.2 1.6-.6 0-.9-.3-1-.5-.2-.3-.2-.7 0-1.1.1-2 .2-4.1.3-5.8-.7 2.8-1.5 6.1-1.5 6.2l-.3 1.4-.9-1.2c-1.8-2.3-3.8-4.7-5.3-6.3 1 1.7 2.6 4.1 4.1 6.2l.8 1.2-1.4-.1-6.3-.2c2.7.7 5.5 1.5 5.6 1.6l2.5.7-2.5.7c-3.8 1-7.9 2.5-9.5 3.4 1.1-.2 2.8-.8 4.3-1.4 2.3-.8 4.5-1.6 5.6-1.6.5 0 .9.2 1.1.5.1.2.3.5.1 1-.3 1-1.7 3.7-3.1 6.5-.1.2-.2.5-.4.7 1.2-1.9 2.5-4.1 3.5-6.1l.5-1 .7.8c1 1.2 2.4 3.3 3.8 5.4.6.9 1.2 1.9 1.8 2.7-.5-1.3-1.2-2.6-1.8-3.7-1.3-2.5-1.9-3.6-1.5-4.4.3-.5.9-.6 1.5-.6 1.2 0 3.3.4 5.4.7z"/></g></g><g><path fill="#EF5F60" d="M308.4 76.6s28.5 5.1 25.5 33.6-25.9 36.6-51.2 25.9c-25.3-10.7-35.9-33.4-27.5-45.9 8.4-12.4 15.4-36 53.2-13.6z"/><g fill="#026862"><path d="M305.1 77.6s-4.6-10.8-5.5-10.3c-.9.5 5.2 11.8 3.6 11.4-1.6-.4-11.6-5.6-11.6-4.3-.1 1.3 10.6 4.7 10 5.4-.7.7-12.4 5.5-11.8 6.2.5.7 11.3-4 12.1-3.7.8.3-3.2 3.7-4.3 5-1.1 1.3-4.9 5.6-3.6 6 1.3.4 9.3-10.9 9.7-9 .4 1.9.6 19.5 1.8 14.6 1.2-4.9-1.7-14.4.5-13.5 2.2.9 14.3 7.8 12.6 5.4-1.7-2.4-12.4-6.8-10.8-7.4 1.6-.6 12.3-3.7 10.4-4-1.9-.3-9.5 2.4-9.8 1.9-.2-.6 3.7-9.6 3.5-9.9-.3-.3-4.3 6.2-4.8 7.8-.8 1.4-2-1.6-2-1.6z"/><path d="M293.3 93.8c-.2-.1-.4-.4-.4-.8-.1-1.1 1.3-3 3.7-5.8l.4-.4c.4-.4 1-1.1 1.7-1.8l1.6-1.6c-.9.3-2.2.8-3.2 1.2-6.1 2.2-7.2 2.5-7.8 2l-.1-.1c-.2-.2-.2-.5-.2-.7.2-.7 1.1-1.3 7.8-4.4 1.2-.6 2.6-1.2 3.4-1.6-.8-.4-2-.9-3.2-1.4-2.3-1-4.7-2-5.6-2.8-.2-.1-.6-.5-.6-1.1 0-.3.2-.6.5-.8.8-.5 2.4 0 8.4 2.8 1.1.5 2.1 1 2.9 1.3-.3-1.1-1.2-3.1-1.8-4.5-2-4.6-2.5-6-1.5-6.5.2-.1.6-.3 1.2.2 1.4 1.2 4.8 8.9 5.4 10.5.1.3.4.8.6 1.1.5-1 1.5-2.8 2.3-4.2 2.2-3.5 2.5-3.6 2.8-3.7l.4-.1.3.3.1.1c.4.5.4.6-1.5 5.3-.5 1.4-1.3 3.3-1.6 4.3.7-.1 1.8-.4 2.7-.7 3-.8 5.2-1.3 6.3-1.2.6.1.9.5.8 1-.1.7-.6 1.1-8.5 3.6-.6.2-1.2.4-1.7.5.8.5 2.1 1.2 3.4 2 2.2 1.2 4.6 2.6 6 3.7.4.3.7.6.9.9.5.7.3 1.2.1 1.4-.7.8-1.7.5-10.2-3.9-1.3-.7-2.5-1.3-3.2-1.6-.1.8.1 2.6.2 4 .3 2.8.7 6.4 0 8.9-.2.7-.4 1.2-.9 1.4-.3.1-.6 0-.8-.2-.6-.5-.9-2.5-1.3-10.9-.1-1.7-.2-3.2-.2-4.2-.9.8-2.5 2.6-3.6 3.9-3.6 4.2-4.7 5.2-5.6 4.9-.2-.2-.3-.2-.4-.3zm11-9.7c.1.3.1.7.1 1.4.1-.3.3-.6.5-.7.2-.1.6-.4 1.2-.1.6.3 1.9.9 3.5 1.8 1.6.8 4.1 2.1 6 3-1.3-.8-2.8-1.7-4.3-2.5-1.8-1-3.3-1.8-4.1-2.5-.2-.2-.7-.6-.6-1.2.1-.3.3-.6.6-.7.4-.1 1.2-.4 2.4-.8-1.2.3-1.6.2-1.9 0l-.2-.1-.1-.2c-.2-.4-.1-.9 1.4-4.9-.7 1.1-1.2 2.2-1.4 2.7-.2.5-.5.8-.9.9-.3.1-.6.1-1.1-.3-.6-.5-1.2-1.8-1.3-2-.3-.7-.6-1.4-.9-2.2.8 2.1.9 2.9.5 3.4-.2.3-.6.4-1 .3-.2-.1-.5-.2-.9-.3.1.1.2.3.2.5s-.1.5-.2.6c-.3.3-1.3.8-4.6 2.4-.6.3-1.3.6-2 .9.4-.1.7-.3 1.1-.4 4.3-1.6 5-1.8 5.5-1.6.4.1.6.4.6.8 0 .7-.6 1.5-2.9 3.8-.7.7-1.3 1.3-1.6 1.7l-.4.4c-1.3 1.6-2.2 2.7-2.7 3.4.9-.9 2.2-2.4 3.1-3.5 3.6-4.2 4.8-5.4 5.8-4.6.4.1.6.3.6.6zm.7 10.4c0-.5-.1-1-.1-1.5 0 .5 0 1 .1 1.5z"/></g></g><g><path fill="#4CA392" d="M261.3 1063.4s-12.5 12.9-20.4 9.6c-7.8-3.4-27.2-12.1-40-5.6s-11.5 12.5-4.1 11.6c7.4-.9 39.2-10.8 24.7 3.9-4 3.5-20.3 4.4-27.5 3.7-7.3-.7-34.5 2.6-28.9 13.2 5.5 10.6 42.3-5.5 45.4-5.7 3-.2 9.1-1-1.9 7.6-11.1 8.6-64.3 21.4-61.8 43.1 2.5 21.7 31.8 3.8 52.9-21 21.1-24.9 24.6-28.8 24.9-25.1.3 3.7-17.3 28.7-3.3 33.4 14 4.6 14.2-28.2 17.5-39.8 3.3-11.6 14.5-19.2 20.8-21.6 6.2-2.5 5.8-11 1.7-7.3z"/><path fill="#4CA392" d="M262.8 1066.6s-1.2 20.3-9 30.8-14.3 15.9-15.8 27-15.6 15.8-16.4 23.3c-.8 7.5-4.6 24.5 6.7 27.3 11.3 2.9 18.7-30 21.1-46.5 2.4-16.6 10.3-19.1 9.6-13.2-.7 5.9-.7 36.2 8.6 46 9.3 9.8 31.1 11.5 23.4-10.3-7.6-21.8-28.5-29.9-26.9-49.8 1.7-19.9 1.2-24.9 8-21.1 6.8 3.7 9.8 32.9 24 34.1 14.2 1.2 11.3-27.9-5.6-34.1-16.9-6.1-26-13-25.8-16.3.2-3.3-1.9 2.8-1.9 2.8z"/><g fill="#EC7134"><path d="M263.2 1068.4s-22.1 2.5-16.2-20.9c5.9-23.4 40.9-140.7 43.5-129.8 2.6 10.9-2 133.9-8.1 146.5-6.2 12.6-19.2 4.2-19.2 4.2z"/><path d="M290.1 916.2c.6.1.9.5 1.1 1.3 1.4 5.8.7 41.6-.8 72.8-.7 15.3-3.4 65.9-7.4 74.2-2.8 5.7-7.4 8.2-13.4 7.2-3.3-.6-5.9-2-6.7-2.5-1.7.1-9.9.5-14.6-4.9-3.3-3.8-4.1-9.6-2.2-17.1 5.1-20.3 33.8-117.2 41.8-129.5.6-.8 1.3-1.7 2.2-1.5zm-8.5 147.6c2.6-5.3 5.4-33.5 7.3-73.6 1.7-35 2-66.4.9-72.2-.1.1-.2.3-.4.5-7.8 11.9-36.6 109.4-41.6 129-1.8 7-1.2 12.2 1.8 15.6 4.6 5.3 13.4 4.3 13.5 4.3h.3l.2.2s2.8 1.8 6.3 2.4c4.6.8 8.2-.7 10.6-4.5.4-.4.8-1 1.1-1.7z"/></g></g><g><path fill="#E73267" d="M206.2 180s9.5-8.3 15.6-5c6.1 3.2 20.3 23 5.8 45-2.5 3.2-12.1.9-15.8-3.5-3.7-4.4-16-6.5-18.5-10.4-2.5-3.9-12.4-23.4 12.9-26.1z"/><path d="M194.9 189.4c-.1.6-.4 1-.4 1.8.5.1.8.6 1.6.5 1.4-.9.7-3-1.2-2.3zm3 11.2c-.6.4-.4 1.9.2 2.3.9 0 1.2-.5 1.6-.9.1-1-.5-1.6-1.8-1.4zm4.4-5.2c.4 1.6 3.2 2.6 2.8-.4-.5-1-2-.2-2.8.4zm12.7 15.4c-.1.4-.3.9-.4 1 .5.6 1.3.7 1.8 1.2.9 0 1.3-.4 1.6-1-.6-.7-1.5-1.2-3-1.2zm-4.1-8.6c0 .7-.3.8-.7 1.2.2 1.5 2.7 2 2.9.2-.6-.5-.8-1.6-2.2-1.4zm4.5-11.5c-.7 1.6 1.5 2.6 2.1 1.2-.1-.9-1.1-1.5-2.1-1.2zm3.9 14.2c-.8 1.1-.1 2.4 1 2.3 1.6-.1 1.2-3.1-1-2.3zm2.6-23.7c-.6 1-.1 2.9 1.2 2.8 1.9-.1.5-3.2-1.2-2.8zm.9 15.3c-.6.1-.5 1-.6 1.7.6.5 1.7.9 2.7.6-.1-.3.2-.2.2-.5-.4-1-1.4-1.4-2.3-1.8zm3.3-6.2c-.4.7-.3 1.3.1 2 1.2.4 1.6-.4 2.1-1.1-.5-.5-1.2-1.3-2.2-.9zm.2 14.7c-.3.4-.5 1-.7 1.5.2 1.5 3 1.8 3.2.5.1-.9-1.4-1.9-2.5-2z"/><g fill="#026862"><path d="M205.4 178s-5.9-5.7-6.3-5.1c-.4.6 6.5 6.1 5.4 6.3-1.1.2-8.9-.5-8.6.4.3.8 8.1.1 7.8.8-.2.6-6.4 6.9-5.9 7.2.5.3 6.2-5.6 6.8-5.6.6 0-1 3.3-1.4 4.4-.3 1.1-1.6 4.9-.7 4.8.9-.1 3-9.5 3.8-8.4.8 1.1 5.6 12.3 5.1 8.8s-5-8.8-3.3-8.8c1.6 0 11.3 1.1 9.5 0-1.8-1.1-9.8-1-9-1.8.8-.8 6.9-5.7 5.6-5.4-1.3.3-5.4 4.1-5.8 3.8-.3-.3-.2-7.1-.5-7.3-.2-.1-1.1 5.2-1 6.3.1 1.2-1.5-.4-1.5-.4z"/><path d="M202.3 191.6c-.1 0-.3-.1-.5-.4-.4-.7 0-2.2.8-4.7l.1-.4c.1-.4.4-1 .6-1.6.2-.4.4-1 .6-1.5-.5.5-1.2 1.1-1.7 1.6-3.3 3.1-3.9 3.5-4.5 3.4h-.1c-.2-.1-.3-.2-.3-.4-.1-.5.4-1.1 3.8-5 .6-.7 1.3-1.5 1.8-2h-2.4c-1.7 0-3.5 0-4.4-.3-.1 0-.6-.2-.7-.5-.1-.2 0-.4.1-.6.4-.5 1.5-.6 6.2-.5h2.2c-.5-.6-1.6-1.7-2.4-2.4-2.5-2.4-3.2-3.1-2.7-3.8.1-.1.3-.3.8-.2 1.2.4 5.5 4.4 6.3 5.3.2.2.4.4.7.6 0-.8.2-2.2.4-3.3.4-2.9.6-3 .8-3.1l.2-.2.3.1h.1c.4.2.4.3.5 3.8 0 1 .1 2.4.1 3.2.4-.3 1-.8 1.5-1.2 1.7-1.3 3-2.3 3.7-2.4.4-.1.7.1.8.4.1.5-.1.8-4.5 4.6-.4.3-.7.6-.9.8.6.1 1.6.2 2.7.3 1.7.2 3.7.4 4.9.7.3.1.6.2.8.3.5.3.5.7.4.9-.2.7-1 .8-7.6.2-1-.1-2-.2-2.5-.2.1.5.8 1.6 1.2 2.5 1 1.7 2.2 3.9 2.4 5.7.1.5.1.9-.2 1.1-.2.1-.4.2-.6.1-.6-.2-1.2-1.3-3.8-6.6l-1.3-2.6c-.4.8-.9 2.4-1.3 3.5-1.2 3.7-1.6 4.6-2.3 4.7.1.1 0 .1-.1.1zm4.4-9.2c.1.1.3.4.5.8 0-.2 0-.4.1-.6.1-.1.3-.4.8-.4s1.5.1 2.8.2c1.3.1 3.2.3 4.7.3-1-.2-2.3-.3-3.4-.4-1.4-.1-2.6-.3-3.3-.5-.2-.1-.6-.2-.7-.6-.1-.2 0-.5.2-.6.2-.2.7-.6 1.3-1.1-.7.5-1 .6-1.2.5h-.1l-.1-.1c-.2-.2-.3-.6-.4-3.5-.1.9-.2 1.7-.2 2.1 0 .4-.1.6-.3.8-.1.1-.4.2-.8.1-.6-.2-1.3-.8-1.4-1-.4-.4-.8-.7-1.2-1.1 1.1 1.1 1.4 1.6 1.3 2-.1.2-.3.4-.5.4h-.7c.1.1.2.1.3.3.1.2.1.3 0 .5-.1.3-.6.8-2.3 2.8-.3.3-.7.7-1 1.1.2-.2.4-.4.6-.5 2.3-2.2 2.7-2.5 3.1-2.5.3 0 .5.1.6.3.2.4 0 1.1-.9 3.2-.2.6-.5 1.2-.6 1.5l-.1.4c-.4 1.4-.7 2.3-.8 2.9.3-.9.8-2.1 1.1-3.1 1.2-3.6 1.6-4.8 2.5-4.5-.2 0 0 .1.1.3zm3.2 6.5c-.1-.3-.3-.6-.5-1 .2.3.4.7.5 1z"/></g></g><g><path fill="#E73267" d="M186.6 231.2s18.4-6.9 25 6.5c6.5 13.5-6.1 39.2-14 38.4-7.9-.8-31.8-21.6-28.8-31.6 2.8-9.9 7.7-15.7 17.8-13.3z"/><path d="M173.4 247.1c0 1.6 2.8 2.3 2.2.1-.7-.4-1.7-1-2.2-.1zm6.6-3.8c.8-2-1.9-2.1-1.8-.6 0 .8 1.1 1.2 1.8.6zm.3-6.9c-.7-.4-1.9-.5-2.2.4.5.7 2.4 1.5 2.2-.4zm.1 16.9c-.7.7-.5 2.3.4 2.4 1.4.3 1.5-2.5-.4-2.4zm9.5 5.4c-.1.9 0 1.7.6 2 1.8-.1 1.1-3.6-.6-2zm1.4-11.6c-.9 1.3 2.7 3.2 2.2.7-.8-.2-1.2-1.1-2.2-.7zm.4 20.6c-.1.7.4 1.9 1.3 2 1.3-.9 0-2.6-1.3-2zm5.3-10.3c.1 2.6 3.4.5 1.2-.9-.3.4-.7.7-1.2.9zm1.1 9.8c-.2.8-.4 1.9.2 2.3 1.8.1 1.7-3.1-.2-2.3zm1.1-27.4c-.5 1.3 1.1 2.7 2.1 1.7 0-1.2-1-2-2.1-1.7zm5.3 17.8c-.2 1.4.9 2.4 1.8 1.6.3-.9-1-2.6-1.8-1.6zm2-20.4c-.5-.3-1.5.3-1.5 1.1.5 1.8 3-.2 1.5-1.1zm.2 10.8c-.8.8-.1 1.8 1.2 1.8 1.2-1-.2-3.6-1.7-2.6 0 .4.3.5.5.8z"/><g fill="#026862"><path d="M188.8 228.3s-5.8-4.9-5.2-3.8c.6 1.1 4.1 5.2 4.1 5.2s-6.8.2-7.4.8c-.6.6 6.9.8 6.9.8s-5.6 7-4.4 6c1.2-1.1 5.5-4.4 5.5-4.4s-2.7 6.8-1.7 7.5c.9.7 2.5-8.4 3.4-7.1.9 1.3 4.5 8.9 4.5 8.3.1-.7-1.6-5.2-3.1-8.4 2.7-.2 10.5.7 8.1-.3-2.4-1-6.5-1-6.8-1.6-.3-.7 6.2-6 4.5-5.5-1.6.5-6 4.8-6.2 3.8-.2-1-.3-7.4-.6-7-.2.3-.7 7.5-1.6 5.7z"/><path d="M194.8 242h-.3c-.4 0-.5 0-2.7-4.5-.8-1.5-1.5-3-2-3.8-.3.6-.7 1.9-1.1 3.1-.5 1.5-.9 3-1.4 3.6-.4.5-.8.5-1 .3-.9-.6-.1-3.6 1-6.4-1.4 1.1-3.4 2.7-4.2 3.4-.4.3-.6.2-.8.1-.4-.3-.1-.6.7-1.8.9-1.2 2.4-3.2 3.2-4.2-6.1-.2-6.3-.7-6.4-.9-.1-.2-.1-.4.1-.6l.1-.1c.6-.5 4.1-.8 6.8-.9-1-1.2-3.1-3.7-3.6-4.5-.2-.3-.1-.5 0-.7l.1-.2h.2c.2 0 .6-.1 5.5 4 .3-.7.6-2.6.7-3.7.2-1.5.3-1.8.4-2 .1-.2.3-.2.5-.2.4.1.5.1.7 4.7 0 .9.1 1.8.1 2.3.5-.3 1.6-1.1 2.3-1.6 1.3-1 2.5-1.9 3.3-2.2.4-.1.7 0 .8.2.2.3 0 .7-.1.9-.3.5-1.1 1.2-2 2.1-.9.9-2 1.9-2.4 2.5 0 0 0 .1-.1.1.4.1 1.3.3 2.1.4 1.4.2 3 .5 4.3 1 .4.2.7.3.7.6 0 .2 0 .3-.1.5-.3.4-.9.4-4.6.2-1.3-.1-2.6-.1-3.5-.1 1.4 3 3 7.2 2.9 8v.2l-.2.2zm.3-14.3l.3-.3c-.3.2-.6.5-.9.7-2 1.6-2.8 2.1-3.4 1.9-.2-.1-.4-.3-.4-.5-.1-.4-.1-1.5-.2-2.7v-.9c-.2 1.4-.5 2.4-.8 2.9-.2.3-.5.3-.6.3-.2 0-.4-.2-.6-.4-1-.8-2.1-1.7-3-2.4 1.2 1.5 2.6 3.2 2.6 3.2l.6.7h-1c-1.9.1-4 .2-5.4.3 1.3.1 3.2.2 4.9.3h.9l-.6.7s-1.3 1.7-2.6 3.3c1.4-1.1 2.9-2.3 3-2.4l1.3-1-.6 1.6c-.9 2.4-1.8 5.1-1.9 6.4.3-.7.6-1.8 1-2.8.5-1.5.9-3 1.4-3.6.2-.3.4-.4.7-.4.1 0 .4 0 .6.3.4.6 1.3 2.3 2.2 4.2.1.1.2.3.2.5-.5-1.4-1.2-2.9-1.9-4.2l-.3-.6h.7c1-.1 2.7 0 4.3.1.7 0 1.5.1 2.2.1-.9-.2-1.8-.4-2.7-.5-1.8-.3-2.7-.4-2.9-.9-.2-.3 0-.7.3-1 .6-.9 1.6-1.9 2.6-2.9z"/></g></g><g><path fill="#E73267" d="M250.8 276.9s11.9-2.4 16.3 16.1c4.4 18.4-20.5 22.3-27.8 23.3-7.4 1-6.6 5.4-12 1.6-5.4-3.8-10.7-5.1-10.2-12.8.4-7.7-1-32.7 8.8-33.2 9.8-.4 21.9-2.1 24.9 5z"/><path d="M222.9 289.3c-.9.8-.5 2.3 1.1 2.4 0-.2.2-.3.3-.3.2-1.1-.4-2.2-1.4-2.1zm1.8 11.8c-.7.1-1.1-.2-1.8 0 .1.9.2 1.7 1.5 1.8 0-.3.3-.3.5-.4-.2-.6.1-.9-.2-1.4zm13.7-19.4c1.3-.8-.1-2.5-1.5-1.9-.1 1 .2 1.8 1.5 1.9zm6.3 8.3c-.3.4-.6.9-.7 1.6.3 0 .4.2.3.4 1.1.3 1.8 0 2.3-.8-.5-.5-1-1-1.9-1.2zm-4.5 11.6c-.1.7.1 1.2.5 1.6 2.7.1 1.4-3.6-.5-1.6zm4.8 8c-.7 1.7 1.3 2.7 2 1.3 0-.9-1.2-2.1-2-1.3zm8.1-8c-2.4-1.4-1.7 4.4.6 1.8-.3-.2-.2-1.5-.6-1.8zm5.3-16.3c-2.3-1.2-2.2 2.3-.2 2 .5-.6.6-1.6.2-2zm4.3 10.5c.3-1.6-2.4-1.2-1.3.7 1 .4 1.2 0 1.3-.7z"/><g fill="#026862"><path d="M248.6 276s-5.9 4.8-4.7 4.3c1.2-.4 5.9-3.1 5.9-3.1s-1.1 6.7-.7 7.4c.4.7 2.1-6.6 2.1-6.6s5.8 6.9 5 5.5c-.8-1.4-3.3-6.3-3.3-6.3s6.2 3.9 7 3.1c.8-.8-7.8-4.1-6.3-4.7 1.4-.6 9.6-2.7 9-2.9-.6-.2-5.4.5-8.8 1.5.4-2.7 2.7-10.2 1.3-8-1.4 2.2-2.2 6.1-2.9 6.3-.7.2-4.7-7.2-4.5-5.5.2 1.7 3.5 6.8 2.5 6.8s-7.3-1.1-7-.8c.3.5 7.3 2.4 5.4 3z"/><path d="M263.1 272.7l-.1.3c-.1.4-.1.4-4.9 1.8-1.6.5-3.3.9-4.1 1.2.5.4 1.8 1.1 2.8 1.7 1.4.8 2.8 1.5 3.2 2 .4.4.3.8.1 1.1-.8.7-3.5-.6-6.1-2.2.8 1.6 2 3.9 2.5 4.8.3.4.1.7-.1.8-.4.3-.7 0-1.6-1.1-1-1.1-2.6-3-3.5-4-1.4 5.9-1.9 6.1-2.1 6.1-.2.1-.4 0-.5-.2l-.1-.1c-.4-.7.1-4.2.5-6.8-1.4.8-4.2 2.3-5.1 2.6-.3.1-.5 0-.6-.1l-.1-.2v-.2c0-.2 0-.6 5-4.6-.7-.4-2.4-1-3.5-1.4-1.4-.5-1.7-.6-1.9-.8-.1-.2-.2-.4-.1-.6.2-.4.2-.4 4.8.2.9.1 1.8.3 2.3.3-.2-.6-.8-1.7-1.2-2.6-.7-1.4-1.4-2.8-1.5-3.6-.1-.5.1-.7.3-.7.4-.2.7.2.8.3.4.4 1 1.3 1.7 2.4.7 1.1 1.5 2.3 2 2.8l.1.1c.2-.4.5-1.2.8-2 .5-1.3 1-2.9 1.8-4 .2-.4.4-.6.7-.6.2 0 .3 0 .4.2.3.3.2.9-.7 4.6-.3 1.2-.6 2.5-.8 3.4 3.2-.8 7.6-1.5 8.4-1.3l.1.1.3.3zm-13.9-3c-.1-.1-.1-.2-.2-.3.2.4.4.7.5 1.1 1.1 2.3 1.5 3.2 1.2 3.7-.1.2-.3.3-.6.3-.4 0-1.5-.2-2.7-.4-.3 0-.6-.1-.9-.1 1.3.5 2.3.9 2.7 1.3.3.3.2.5.2.7-.1.2-.2.4-.5.5-1 .8-2.1 1.7-2.9 2.4 1.7-.9 3.6-2 3.6-2l.8-.5-.2 1c-.3 1.9-.6 3.9-.7 5.4.4-1.3.8-3.1 1.2-4.7l.2-.9.6.7 2.7 3.1c-.8-1.6-1.7-3.3-1.7-3.4l-.8-1.5 1.4.9c2.1 1.4 4.7 2.7 5.9 3.1-.6-.4-1.6-1-2.6-1.5-1.4-.8-2.8-1.5-3.3-2-.2-.2-.3-.5-.3-.7 0-.1.1-.4.4-.5.7-.3 2.5-.8 4.5-1.4.2 0 .3-.1.5-.1-1.5.3-3.1.6-4.5 1l-.7.2.1-.7c.1-1 .5-2.7.9-4.2.2-.7.3-1.4.5-2.1-.4.8-.7 1.7-1 2.5-.6 1.8-.9 2.5-1.5 2.7-.4.1-.7-.2-1-.5-.2-.8-1-2-1.8-3.1z"/></g><path d="M232.5 295.2c-.7 1.7 1.3 2.7 2 1.3 0-1-1.2-2.2-2-1.3zm-3.9-15c-.7 1.7 1.3 2.7 2 1.3 0-.9-1.2-2.1-2-1.3z"/></g><g><path fill="#E73267" d="M439.5 762.5s19.2 4.2 17.4 19c-1.8 14.9-26.4 29.6-32.6 24.7-6.2-4.9-15-35.3-7.1-42.2 7.9-6.8 15.2-8.9 22.3-1.5z"/><path d="M419.8 768.8c-.9 1.3 1.1 3.4 1.8 1.3-.4-.8-.9-1.8-1.8-1.3zm7.6.4c1.8-1.3-.5-2.8-1.2-1.5-.4.6.3 1.6 1.2 1.5zm4-5.8c-.4-.7-1.3-1.5-2-.9 0 1 1.2 2.7 2 .9zm-9.1 14.4c-1 .2-1.7 1.7-1 2.3 1.1.9 2.7-1.4 1-2.3zm5.1 9.7c-.5.7-.9 1.4-.5 2 1.5.8 2.8-2.5.5-2zm7.4-9.1c-1.5.5.5 4.1 1.5 1.8-.6-.6-.4-1.5-1.5-1.8zM424.1 796c-.4.6-.7 1.8.1 2.4 1.4-.1 1.3-2.3-.1-2.4zm10-5.8c-1.3 2.3 2.6 2.2 1.5-.1-.5.1-1 .1-1.5.1zm-4.4 8.8c-.6.6-1.4 1.4-1.1 2.1 1.5 1.1 3.1-1.8 1.1-2.1zm15.8-22.4c-1.2.8-.5 2.8.8 2.6.7-1.1.3-2.3-.8-2.6zm-5.3 17.8c-1 1.1-.6 2.5.7 2.3.8-.6.6-2.6-.7-2.3zm12.8-16c-.3-.6-1.5-.6-1.8.1-.6 1.7 2.6 1.4 1.8-.1zm-5.7 9.1c-1.1.3-1.1 1.5 0 2.2 1.6-.2 1.8-3.1 0-3.1-.1.3 0 .6 0 .9z"/><g fill="#026862"><path d="M442.9 761.3s-2.2-7.3-2.3-6c-.1 1.3.7 6.6.7 6.6s-5.8-3.5-6.7-3.4c-.8.1 5.4 4.4 5.4 4.4s-8.5 2.9-7 2.6c1.6-.2 7-.7 7-.7s-5.9 4.3-5.5 5.3c.4 1.1 6.7-5.7 6.7-4.1.1 1.6-1.1 9.9-.7 9.4.4-.5 1.5-5.3 1.9-8.7 2.3 1.3 8.5 6.3 6.9 4.2-1.5-2.2-4.9-4.3-4.8-5 .1-.7 8.4-1.7 6.8-2.1-1.7-.4-7.6.8-7.2-.2.4-1 3.8-6.4 3.3-6.2-.3.1-4.6 5.9-4.5 3.9z"/><path d="M440.6 776l-.2-.2c-.3-.2-.4-.3.2-5.2.2-1.7.4-3.4.4-4.2-.6.3-1.7 1.2-2.6 2-1.2 1-2.4 2-3.1 2.3-.6.2-.9 0-1-.3-.4-1 1.9-3 4.3-4.9-1.7.2-4.3.4-5.3.6-.5.1-.7-.1-.7-.3-.1-.5.2-.6 1.6-1.1 1.4-.5 3.7-1.3 5-1.8-5-3.5-4.9-4-4.9-4.2 0-.2.2-.4.3-.4h.1c.8-.1 3.9 1.6 6.1 3-.2-1.6-.6-4.8-.5-5.7 0-.4.2-.5.3-.6l.2-.1.2.1c.2.1.6.3 2.4 6.4.6-.5 1.9-1.9 2.6-2.7 1-1.1 1.2-1.4 1.5-1.5.2-.1.4 0 .6.1.3.3.3.4-2 4.4-.5.8-.9 1.6-1.1 2 .6.1 1.9 0 2.8-.1 1.6-.1 3.1-.3 3.9 0 .4.1.6.4.6.6 0 .4-.4.6-.6.7-.5.2-1.6.4-2.8.7-1.3.3-2.7.5-3.4.8h-.1l1.5 1.5c1 .9 2.3 2 3.1 3.2.2.4.4.6.3.9 0 .2-.2.3-.3.3-.4.2-1-.1-4-2.3-1-.7-2.1-1.5-2.9-2-.4 3.3-1.4 7.6-1.9 8.3l-.1.1-.5-.4zm8-11.8c.1 0 .2 0 .4-.1-.4 0-.8.1-1.2.1-2.6.2-3.5.2-3.8-.3-.1-.2-.1-.4 0-.6.2-.4.7-1.3 1.3-2.4.1-.2.3-.5.5-.8-.9 1-1.7 1.8-2.2 2-.4.1-.6 0-.7-.1-.2-.1-.3-.4-.3-.7-.4-1.3-.8-2.6-1.2-3.6.2 1.9.5 4.1.5 4.1l.1 1-.8-.5c-1.6-1-3.4-2-4.7-2.6 1 .8 2.5 1.9 4 2.9l.8.5-.9.3s-2 .7-3.9 1.4c1.8-.2 3.7-.3 3.8-.4l1.7-.1-1.4 1c-2.1 1.5-4.3 3.3-5 4.3.6-.4 1.5-1.2 2.3-1.8 1.2-1 2.4-2 3.1-2.3.3-.1.6-.1.8 0 .1.1.3.2.3.6 0 .7-.2 2.7-.4 4.7 0 .2 0 .3-.1.5.3-1.5.6-3.1.7-4.6l.1-.7.6.3c.9.5 2.3 1.5 3.6 2.4.5.4 1.2.8 1.8 1.2-.6-.7-1.4-1.3-2-1.8-1.4-1.2-2-1.8-1.9-2.4 0-.4.4-.6.8-.7.5-.2 1.9-.5 3.3-.8z"/></g></g><path fill="#8CB279" d="M188.3 693.7s0-.3-.4-1.2c-.4-.9-.7-1.2-.7-1.2s4.5-.1 9.1-3c1.8-1.1 2-1.7 2-1.7s-.3-1.4-1.9-2.7c0 0 2.6-.6 5.1-2 2.5-1.4 4.2-3.8 4.2-3.8s-.6-1.6-1.7-2c-1.1-.4 1.4.3 4.9-2.7 3.5-3 4.6-6.1 4.6-6.1s-.4-1.5-1.7-2.4c0 0 2.3-.6 4.9-4.2 2.4-3.4 3-7.7 3-8.2-.4-.3-3.9-2.8-8.1-3.2-4.4-.5-6.4.8-6.4.8.2-1.6-.7-2.9-.7-2.9s-3.1-1.3-7.6-.7c-4.6.6-5.7 2.9-5.3 1.8.4-1.1-.3-2.6-.3-2.6s-2.9-.3-5.6.5c-2.7.9-4.9 2.4-4.9 2.4.2-2-.7-3.2-.7-3.2s-.6-.2-2.6.3c-5.2 1.5-8.4 4.7-8.4 4.7s0-.5-.4-1.4c-.4-.9-.6-1-.6-1s-.3-.4-2.8 1.1-6.3 6.4-6.3 6.4c-.9-1.6-1.2-3.2-2.9-1.8-5.6 4.6-10.2 10.6-13.6 17-1.5 2.9-2.8 6-3.9 9.1-.5 1.6-1.2 3.5-1.7 5.4 2.5-1.2 3.2-1.7 4.1-2 9.4-4.2 15.5-5.2 21.9-5.6-4.6 4.5-9.5 8.3-18.9 12.5-.8.4-1.6.6-4.2 1.7 1.7.9 3.6 1.7 5.1 2.4 3 1.3 6.2 2.4 9.4 3.3 7 1.8 14.6 2.4 21.8 1.3 2.2-.3 1.1-1.6.6-3.4 0 0 6.2.4 9-.4 2.7-.8 2.6-1.3 2.6-1.3"/><g><path fill="#4CA392" d="M393.7 916.9s30.5 1.5 37.9 36.6c-11.7.2-36-3.7-37.9-36.6z"/><path fill="#D49523" d="M391.7 985.6s14.8-5.9 16.7-17c1.9-11.1 13.8-19.2 25.1-16.3 11.3 2.9 10.1 21.4 8.7 37.1-.7 3.6 7 12.5 9.9 20.4 2.9 7.9 7.6 26.4-9.8 44.2-17.4 17.8-32.7 1.5-32.7 1.5s-18.8 3.8-28.4-4c-9.6-7.8-30.9-40.1 10.3-65.3"/><path fill="#365122" stroke="#365122" stroke-width="2.53" stroke-miterlimit="10" d="M431.1 953.6s1.5-3.8 3.3-7.7c2.1-4.6 4.5-9.5 5.6-9.2l2 .5s-9.6 17-9.5 18.4c0 1.4-1.4-2-1.4-2z"/></g><g><path fill="#E73267" d="M326.7 991.2s9.5-8.3 15.6-5c6.1 3.2 20.3 23 5.8 45-2.5 3.2-12.1.9-15.8-3.5-3.7-4.4-16-6.5-18.5-10.4-2.6-3.9-12.4-23.4 12.9-26.1z"/><path d="M315.3 1000.5c-.1.6-.4 1-.4 1.8.5.1.8.6 1.6.5 1.5-.8.8-3-1.2-2.3zm3.1 11.3c-.6.4-.4 1.9.2 2.3.9 0 1.2-.5 1.6-.9 0-1-.5-1.6-1.8-1.4zm4.4-5.3c.4 1.6 3.2 2.6 2.8-.4-.6-1-2-.1-2.8.4zm12.7 15.5c-.1.4-.3.9-.4 1 .5.6 1.3.7 1.8 1.2.9 0 1.3-.4 1.6-1-.6-.7-1.5-1.2-3-1.2zm-4.1-8.6c0 .7-.3.8-.7 1.2.2 1.5 2.7 2 2.9.2-.7-.6-.8-1.6-2.2-1.4zm4.5-11.5c-.7 1.6 1.5 2.6 2.1 1.2-.1-1-1.2-1.5-2.1-1.2zm3.9 14.2c-.8 1.1-.1 2.4 1 2.3 1.6-.2 1.1-3.1-1-2.3zm2.6-23.7c-.6 1-.1 2.9 1.2 2.8 1.9-.1.5-3.3-1.2-2.8zm.8 15.2c-.6.1-.5 1-.6 1.7.6.5 1.7.9 2.7.6-.1-.3.2-.2.2-.5-.3-1-1.3-1.4-2.3-1.8zm3.3-6.1c-.4.7-.3 1.3.1 2 1.2.4 1.6-.4 2.1-1.1-.5-.5-1.2-1.3-2.2-.9zm.3 14.7c-.3.4-.5 1-.7 1.5.2 1.5 3 1.8 3.2.5.1-.9-1.5-1.9-2.5-2z"/><g fill="#026862"><path d="M325.9 989.2s-5.9-5.7-6.3-5.1c-.4.6 6.5 6.1 5.4 6.3-1.1.2-8.9-.5-8.6.4.3.8 8.1.1 7.8.8-.2.6-6.4 6.9-5.9 7.2.5.3 6.2-5.6 6.8-5.6.6 0-1 3.3-1.4 4.4-.3 1.1-1.6 4.9-.7 4.8.9-.1 3-9.5 3.8-8.4.8 1.1 5.6 12.3 5.1 8.8s-5-8.8-3.3-8.8c1.6 0 11.3 1.1 9.5 0-1.8-1.1-9.8-1-9-1.8.8-.8 6.9-5.7 5.6-5.4-1.3.3-5.4 4.1-5.8 3.8-.3-.3-.2-7.1-.5-7.3-.2-.1-1.1 5.2-1 6.3.1 1.2-1.5-.4-1.5-.4z"/><path d="M322.7 1002.7c-.1 0-.3-.1-.5-.4-.4-.7 0-2.2.8-4.7l.1-.4c.1-.4.4-1 .6-1.6.2-.4.4-1 .6-1.5-.5.5-1.2 1.1-1.7 1.6-3.3 3.1-3.9 3.5-4.5 3.4h-.1c-.2-.1-.3-.2-.3-.4-.1-.5.4-1.1 3.8-5 .6-.7 1.3-1.5 1.8-2h-2.4c-1.7 0-3.5 0-4.4-.3-.1 0-.6-.2-.7-.5-.1-.2 0-.4.1-.6.4-.5 1.5-.6 6.2-.5h2.2c-.5-.6-1.6-1.7-2.4-2.4-2.5-2.4-3.2-3.1-2.7-3.8.1-.1.3-.3.8-.2 1.2.4 5.5 4.4 6.3 5.3.2.2.4.4.7.6 0-.8.2-2.2.4-3.3.4-2.9.6-3 .8-3.1l.2-.2.3.1h.1c.4.2.4.3.5 3.8 0 1 .1 2.4.1 3.2.4-.3 1-.8 1.5-1.2 1.7-1.3 3-2.3 3.7-2.4.4-.1.7.1.8.4.1.5-.1.8-4.5 4.6-.4.3-.7.6-.9.8.6.1 1.6.2 2.7.3 1.7.2 3.7.4 4.9.7.3.1.6.2.8.3.5.3.5.7.4.9-.2.7-1 .8-7.6.2-1-.1-2-.2-2.5-.2.1.5.8 1.6 1.2 2.5 1 1.7 2.2 3.9 2.4 5.7.1.5.1.9-.2 1.1-.2.1-.4.2-.6.1-.6-.2-1.2-1.3-3.8-6.6l-1.3-2.6c-.4.8-.9 2.4-1.3 3.5-1.2 3.7-1.6 4.6-2.3 4.7.1.2 0 .2-.1.1zm4.5-9.2c.1.1.3.4.5.8 0-.2 0-.4.1-.6.1-.1.3-.4.8-.4s1.5.1 2.8.2c1.3.1 3.2.3 4.7.3-1-.2-2.3-.3-3.4-.4-1.4-.1-2.6-.3-3.3-.5-.2-.1-.6-.2-.7-.6-.1-.2 0-.5.2-.6.2-.2.7-.6 1.3-1.1-.7.5-1 .6-1.2.5h-.1l-.1-.1c-.2-.2-.3-.6-.4-3.5-.1.9-.2 1.7-.2 2.1 0 .4-.1.6-.3.8-.1.1-.4.2-.8.1-.6-.2-1.3-.8-1.4-1-.4-.4-.8-.7-1.2-1.1 1.1 1.1 1.4 1.6 1.3 2-.1.2-.3.4-.5.4h-.7c.1.1.2.1.3.3.1.2.1.3 0 .5-.1.3-.6.8-2.3 2.8-.3.3-.7.7-1 1.1.2-.2.4-.4.6-.5 2.3-2.2 2.7-2.5 3.1-2.5.3 0 .5.1.6.4.2.4 0 1.1-.9 3.2-.2.6-.5 1.2-.6 1.5l-.4.4c-.4 1.4-.7 2.3-.8 2.9.3-.9.8-2.1 1.1-3.1 1.2-3.6 1.6-4.8 2.5-4.5.1 0 .2.1.4.2zm3.2 6.6c-.1-.3-.3-.6-.5-1 .2.3.3.6.5 1z"/></g></g><g><path fill="#E73267" d="M321.3 1057.1s18.4-6.9 25 6.5c6.5 13.5-6.1 39.2-14 38.4-7.9-.8-31.8-21.6-28.8-31.6 2.9-10 7.8-15.8 17.8-13.3z"/><path d="M308.2 1072.9c0 1.6 2.8 2.3 2.2.1-.7-.3-1.7-1-2.2-.1zm6.6-3.8c.8-2-1.9-2.1-1.8-.6 0 .8 1.1 1.2 1.8.6zm.2-6.9c-.7-.4-1.9-.5-2.2.4.6.7 2.5 1.5 2.2-.4zm.2 17c-.7.7-.5 2.3.4 2.4 1.3.2 1.4-2.6-.4-2.4zm9.5 5.3c-.1.9 0 1.7.6 2 1.8-.1 1.1-3.6-.6-2zm1.3-11.6c-.9 1.3 2.7 3.2 2.2.7-.8-.1-1.1-1.1-2.2-.7zm.5 20.6c-.1.7.4 1.9 1.3 2 1.3-.9 0-2.6-1.3-2zm5.3-10.3c.1 2.6 3.4.5 1.2-.9-.4.4-.7.7-1.2.9zm1.1 9.8c-.2.8-.4 1.9.2 2.3 1.8.1 1.7-3.1-.2-2.3zm1.1-27.4c-.5 1.3 1.1 2.7 2.1 1.7 0-1.2-1-2-2.1-1.7zm5.2 17.8c-.2 1.4.9 2.4 1.8 1.6.4-.9-.9-2.5-1.8-1.6zm2.1-20.4c-.5-.3-1.5.3-1.5 1.1.4 1.8 3-.2 1.5-1.1zm.1 10.8c-.8.8-.1 1.8 1.2 1.8 1.2-1-.2-3.6-1.7-2.6.1.4.4.5.5.8z"/><g fill="#026862"><path d="M323.5 1054.2s-5.8-4.9-5.2-3.8c.6 1.1 4.1 5.2 4.1 5.2s-6.8.2-7.4.8c-.6.6 6.9.8 6.9.8s-5.6 7-4.4 6c1.2-1.1 5.5-4.4 5.5-4.4s-2.7 6.8-1.7 7.5c.9.7 2.5-8.4 3.4-7.1.9 1.3 4.5 8.9 4.5 8.3.1-.7-1.6-5.2-3.1-8.4 2.7-.2 10.5.7 8.1-.3-2.4-1-6.4-1-6.8-1.6-.3-.7 6.2-6 4.5-5.5-1.6.5-6 4.8-6.2 3.8-.2-1-.3-7.4-.6-7-.1.2-.6 7.4-1.6 5.7z"/><path d="M329.5 1067.8h-.3c-.4 0-.5 0-2.7-4.5-.8-1.5-1.5-3-2-3.8-.3.6-.7 1.9-1.1 3.1-.5 1.5-.9 3-1.4 3.6-.4.5-.8.5-1 .3-.9-.6-.1-3.6 1-6.4-1.4 1.1-3.4 2.7-4.2 3.4-.4.3-.6.2-.8.1-.4-.3-.1-.6.7-1.8.9-1.2 2.4-3.2 3.2-4.2-6.1-.2-6.3-.7-6.4-.9-.1-.2-.1-.4.1-.6l.1-.1c.6-.5 4.1-.8 6.8-.9-1-1.2-3.1-3.7-3.6-4.5-.2-.3-.1-.5 0-.7l.1-.2h.2c.2 0 .6-.1 5.5 4 .3-.7.6-2.6.7-3.7.2-1.5.3-1.8.4-2 .1-.2.3-.2.5-.2.4.1.5.1.7 4.7 0 .9.1 1.8.1 2.3.5-.3 1.6-1.1 2.3-1.6 1.3-1 2.5-1.9 3.3-2.2.4-.1.7 0 .8.2.2.3 0 .7-.1.9-.3.5-1.1 1.2-2 2.1-.9.9-2 1.9-2.4 2.5 0 0 0 .1-.1.1.4.1 1.3.3 2.1.4 1.3.2 3 .5 4.3 1 .4.2.7.3.7.6 0 .2 0 .3-.1.5-.3.4-.9.4-4.6.2-1.3-.1-2.6-.1-3.5-.1 1.4 3 3 7.2 2.9 8v.2l-.2.2zm.4-14.3l.3-.3c-.3.2-.6.5-.9.7-2 1.6-2.8 2.1-3.4 1.9-.2-.1-.4-.3-.4-.5-.1-.4-.1-1.5-.2-2.7v-.9c-.2 1.4-.5 2.4-.8 2.9-.2.3-.5.3-.6.3-.2 0-.4-.2-.6-.4-1-.8-2.1-1.7-3-2.4 1.2 1.5 2.6 3.2 2.6 3.2l.6.7h-1c-1.9.1-4 .2-5.4.3 1.3.1 3.2.2 4.9.3h.9l-.6.7s-1.3 1.7-2.6 3.3c1.4-1.1 2.9-2.3 3-2.4l1.3-1-.6 1.6c-.9 2.4-1.8 5.1-1.9 6.4.3-.7.6-1.8 1-2.8.5-1.5.9-3 1.4-3.6.2-.3.4-.4.7-.4.1 0 .4 0 .6.3.4.6 1.3 2.3 2.2 4.2.1.1.2.3.2.5-.5-1.4-1.2-2.9-1.9-4.2l-.3-.6h.7c1-.1 2.7 0 4.3.1.7 0 1.5.1 2.2.1-.9-.2-1.8-.4-2.7-.5-1.8-.3-2.7-.4-2.9-.9-.2-.3 0-.7.3-1 .5-.9 1.6-1.9 2.6-2.9z"/></g></g><path fill="#4CA392" d="M247.6 981.4s-.1-.3-.9-.8-1.2-.7-1.2-.7 3.8-2.5 6.2-7.3c.9-1.9.8-2.5.8-2.5s-1-1-3-1.3c0 0 1.9-1.9 3.3-4.4 1.4-2.5 1.6-5.4 1.6-5.4s-1.3-1-2.5-.8c-1.2.2 1.3-.4 2.8-4.8 1.4-4.4.7-7.6.7-7.6s-1.2-1.1-2.7-1.2c0 0 1.6-1.7 2-6.2.3-4.2-1.5-8.1-1.7-8.6-.5 0-4.8-.3-8.6 1.4-4 1.9-5.1 4-5.1 4-.7-1.4-2.1-2.1-2.1-2.1s-3.3.5-6.9 3.3c-3.6 2.9-3.3 5.5-3.5 4.3-.2-1.2-1.7-2.1-1.7-2.1s-2.7 1.2-4.5 3.4c-1.8 2.2-3 4.6-3 4.6-.9-1.8-2.2-2.4-2.2-2.4s-.6.1-2 1.6c-3.7 4-4.7 8.4-4.7 8.4s-.3-.4-1.1-.9-1.1-.6-1.1-.6-.5-.2-1.8 2.4-2.1 8.7-2.1 8.7c-1.6-.8-2.7-2.1-3.4 0-2.4 6.8-3.2 14.4-2.8 21.6.2 3.3.7 6.6 1.5 9.8.4 1.7.8 3.6 1.4 5.5 1.5-2.4 1.9-3.1 2.4-3.9 5.8-8.4 10.5-12.5 15.8-16.2-1.6 6.3-3.8 12-9.6 20.5-.5.8-1.1 1.4-2.7 3.6 1.9-.1 3.9-.4 5.6-.6 3.3-.4 6.5-1.1 9.7-2.1 6.9-2.1 13.7-5.5 19.3-10.2 1.7-1.4.1-2-1.2-3.2 0 0 5.5-2.8 7.5-5 1.9-1.8 1.5-2.2 1.5-2.2"/><g><g fill="#365122"><path d="M456 102.8c.7-6.5 2.6-12.6 1.5-18.5-.5-2.5-1.3-4.9-.8-7.5.9.1 1.8-.7 2.6-.3.7.4 1.7 4.8 1.8 5.3 1.4 6.9-2.7 17.2-3.9 24"/><path d="M456.6 102.9l-1.8-.2c.2-1.9.5-3.8.8-5.6.7-4.4 1.4-8.5.7-12.6-.1-.6-.2-1.1-.4-1.7-.4-2-.9-4-.5-6.2l.2-1.1 1.1.2c.1 0 .4-.1.7-.2.6-.2 1.5-.5 2.3 0h.1c1.2.8 2.1 4.8 2.3 6 1 5.2-.8 11.9-2.3 17.9-.6 2.4-1.2 4.6-1.6 6.6l-2.2-.4.6-2.7zm1.5-25.2c-.2 0-.3.1-.5.2-.1 1.5.2 2.9.6 4.5.1.6.3 1.2.4 1.8.8 4.4.1 8.7-.7 13.3-.1.4-.1.9-.2 1.3 1.5-5.7 3.2-12.1 2.3-16.7-.2-1-.9-3.7-1.3-4.5-.2-.1-.4 0-.6.1z"/></g><path fill="#E73267" d="M457.4 102.5s.1 0 .2-.1c1.5-.4 10.3-2.2 13 7.8 2.9 10.9-12.6 18.4-18 18.1-5.4-.3-16.7-1.9-19.7-13.3s9.4-24.9 18.4-17.1c0 0 5.6 4.5 6.1 4.6z"/></g><g fill="#80B9AA"><path d="M104.8 1175.2c-2.7-10.5-4.3-20.8-4.7-31-1.2-28.2 6.4-55.1 22.6-79.9 15.8-24.1 25.1-47.9 27.7-70.6 2.1-18.1-.1-35.6-6.5-52.1-10.9-28.1-30.6-43.5-30.8-43.6l2.4-3.1c.8.6 20.6 16.1 32 45.1 6.7 17.1 9 35.2 6.9 54-2.6 23.4-12.2 47.7-28.3 72.4-15.8 24.1-23.2 50.1-22 77.5.4 10.2 2.1 20.6 4.8 31.2"/><path fill-rule="evenodd" clip-rule="evenodd" d="M110 1089.3c-5-1.1-9.9-2.5-14.7-4-5-1.6-9-4.8-12.1-9-3.4-4.5-3.1-9.1.7-14 2.9-3.8 8.8-5.6 13.1-3.9 6.1 2.4 9.9 7.3 12 13.2 1.6 4.6 2.7 9.3 3.8 14.1m12.6-24.9c-4.8-1.7-9.5-3.8-14.1-6-4.8-2.2-8.3-5.9-10.8-10.5-2.8-4.9-1.9-9.4 2.6-13.8 3.4-3.4 9.4-4.4 13.5-2.1 5.7 3.2 8.8 8.5 10.2 14.7 1 4.7 1.4 9.6 1.9 14.4m-12.4 21.3c4.2-1.5 8.2-3.2 12.4-4.7 5-1.8 10.2-2.2 15.4-.6 6 2 9.6 7.5 8 13.6-1.6 6.2-4.7 9.6-11.9 9.4-6.2-.1-11.4-2.8-16.1-6.6-2.9-2.4-5.5-5-8.4-7.3m17.5-31.2c4-1.8 7.9-3.8 12-5.6 4.9-2.1 10-3 15.3-1.7 6.2 1.5 10.1 6.7 9 13-1.2 6.3-4 9.9-11.2 10.3-6.2.4-11.6-1.9-16.5-5.4-3-2.1-5.9-4.5-8.9-6.7m-32.3 86.5c-4.8 1.7-9.7 3.1-14.7 4.4-5.1 1.3-10.2.7-15-1.2-5.3-2-7.4-6.1-6.8-12.3.5-4.8 4.5-9.4 9.1-10.3 6.5-1.2 12.2.9 17.2 4.8 3.8 3 7.2 6.5 10.7 9.9m.2-17.8c-5-.9-10-2.1-14.9-3.4-5.1-1.4-9.2-4.4-12.5-8.4-3.6-4.4-3.4-8.9.1-14 2.8-3.9 8.5-6 12.9-4.4 6.2 2.2 10.2 6.8 12.6 12.7 1.8 4.5 3.1 9.2 4.4 13.9m-.7-5.2c4-3.2 8.2-6 12.5-8.8 4.4-2.9 9.4-3.9 14.6-3.7 5.6.2 9 3.4 10.4 9.5 1.1 4.7-1.2 10.4-5.3 12.6-5.8 3.2-11.9 3-17.9.9-4.6-1.6-8.9-3.8-13.3-6m37.8-87.2c-4.8-1.6-9.5-3.6-14.2-5.7-4.8-2.1-8.4-5.8-11-10.3-2.9-4.9-2-9.4 2.3-13.9 3.3-3.4 9.4-4.6 13.5-2.4 5.8 3.1 9 8.3 10.5 14.5 1.1 4.7 1.6 9.6 2.2 14.4m5.4-31.3c-4.9-1.2-9.8-2.8-14.6-4.4-5-1.7-8.9-5-11.9-9.2-3.3-4.6-2.9-9.2 1.1-14 3-3.7 8.9-5.4 13.2-3.6 6.1 2.6 9.7 7.5 11.7 13.5 1.5 4.6 2.5 9.4 3.5 14.1m-6.1-36.3c-5 1-10.1 1.6-15.1 2.2-5.2.6-10.2-.8-14.7-3.4-4.9-2.8-6.4-7.1-4.9-13.1 1.2-4.6 5.8-8.7 10.5-8.8 6.6-.2 12 2.7 16.3 7.3 3.3 3.5 6.2 7.5 9.1 11.4m-46.7 198.6c3.2-3.9 6.8-7.6 10.4-11.2 3.7-3.7 8.4-5.8 13.5-6.6 5.6-.9 9.5 1.5 12.1 7.1 2 4.3 1 10.4-2.6 13.4-5 4.3-11 5.4-17.3 4.6-4.8-.6-9.5-1.9-14.2-3.1"/><path fill-rule="evenodd" clip-rule="evenodd" d="M145.1 1021.9c4.2-1.5 8.2-3.2 12.4-4.7 5-1.8 10.2-2.2 15.4-.6 6 2 9.6 7.5 8 13.6-1.6 6.2-4.7 9.6-11.9 9.4-6.2-.1-11.4-2.7-16.1-6.6-2.9-2.4-5.5-5-8.4-7.3m6.1-24.1c3.3-2.9 6.5-6 9.8-8.8 4.1-3.5 8.7-5.8 14.1-6.1 6.3-.4 11.6 3.5 12.4 9.8.7 6.4-.9 10.6-7.7 13.1-5.8 2.1-11.6 1.6-17.4-.3-3.5-1.2-6.9-2.6-10.5-3.8m1.2-30c2.2-3.8 4.1-7.8 6.2-11.6 2.6-4.6 6.3-8.4 11.2-10.5 5.8-2.5 12.2-.7 15 5.1 2.9 5.8 2.7 10.3-2.8 14.9-4.8 4-10.4 5.4-16.5 5.6-3.7.1-7.4-.1-11.1 0"/><path fill-rule="evenodd" clip-rule="evenodd" d="M152.5 975.5c2.2-3.8 4.1-7.8 6.2-11.6 2.6-4.6 6.3-8.4 11.2-10.5 5.8-2.5 12.2-.7 15 5.1 2.9 5.8 2.7 10.3-2.8 14.9-4.8 4-10.4 5.4-16.5 5.6-3.7.1-7.4-.1-11.1 0m-7.3-32.7c1.4-4.2 2.5-8.4 4-12.6 1.7-5.1 4.6-9.4 9.1-12.4 5.3-3.5 11.8-2.9 15.7 2.2 3.9 5.1 4.6 9.6.1 15.2-3.9 4.8-9.2 7.3-15.1 8.6-3.6.8-7.3 1.3-10.9 2.1M134.4 920c-.2-4.4-.7-8.8-.9-13.2-.2-5.3.8-10.4 3.9-14.9 3.6-5.2 10-7 15.4-3.7 5.5 3.4 7.8 7.3 5.6 14.1-1.9 5.9-5.9 10.1-11 13.5-3.1 2-6.3 3.8-9.4 5.9"/><path fill-rule="evenodd" clip-rule="evenodd" d="M134.3 916.1c-3.7-2.4-7.3-5-11-7.3-4.5-2.8-9.5-4.4-14.9-4-6.3.6-11 5.2-10.8 11.5.2 6.4 2.5 10.4 9.5 11.8 6.1 1.3 11.8-.1 17.2-2.9 3.3-1.7 6.5-3.6 9.8-5.3"/></g><g><path fill="#EDEEE2" d="M370 38.2s17.6 2.1 23.3 11.8c5.6 9.7-23.2-9.4-24.1-10.3.2-.8.8-1.5.8-1.5zm-.2-2.9v1.3s21.2 4.8 26.9-3.5c.6-1-1-2.1-4.9-1.8-10.2.7-18.2 1.9-22 4zm-12.7 10.4l-1.3-.3s-10.2 19.2-3.7 26.9c.8.8 2.3-.4 3-4.3 2-10.1 3-18.1 2-22.3z"/><path fill="#EDEEE2" d="M368.7 40.8S395.9 51 394 55.5c-1.9 4.5-22.6-8.8-25.3-13.9v-.8z"/><path fill="#EDEEE2" d="M366.1 44s.1-1 1.6-.6 19.9 13.1 19.9 18.1c.1 5.1-18.8-7.1-21.5-17.5zm3.7-9.9s17.9-1.2 21.5-8.6c.5-1.2-3.4-3.4-9.3 0-5.8 3.4-12.9 7.1-12.9 7.1l.7 1.5z"/><path fill="#EDEEE2" d="M367.4 29.8l.5.7s25.1-8.2 25.1-13c-.6-.7-1.7-1-1.7-1s-14.7 1.5-23.9 13.3zm-17 9.1l-.2-.8s-26.4-.4-27.9 4.2c.3.9 1.3 1.5 1.3 1.5s14.3 3.3 26.8-4.9z"/><path fill="#EDEEE2" d="M364.6 27.6s.8 1.1 1.5.7c.7-.4 19.2-13.9 18.4-21.1-.3-1.7-3-1.4-4.3 0-1.3 1.4-15 13.5-15.6 20.4z"/><path fill="#EDEEE2" d="M363.9 27h-1.4s-.6-12.8 8.8-23c1-1.1 2.6-2.9 3.9-2.3 1.4.6 1.1 6.4-11.3 25.3z"/><path fill="#EDEEE2" d="M359.3 26.5S354.4 12 360.8 1c.8-1.3 2.6-1.4 2.8 0 .2 1.4 2.9 14-3.1 25.5-.5.3-1.2 0-1.2 0z"/><path fill="#EDEEE2" d="M357.6 27h-1.2S340.6 7.7 345.7.5c.9-1.3 11.7 13.9 11.9 26.5zm4.9 18.4s12 22.5 8.5 26.3c0 0-1.7 3-4.9-3.1s-6.5-19-5.2-22.2c.9-1.5 1.6-1 1.6-1zm-11.4-14.9S332.6 15.7 330 15.8c-1 .2-.9.7-.9.7s-.8-.5 0 1.3 7.9 12.9 21.2 14.4c.3-.6 1.4-.5.8-1.7z"/><path fill="#EDEEE2" d="M355.3 26.8S344.1 5.9 341.7 4.9c-1-.2-1.1.3-1.1.3s-.5-.8-.5 1.2 2.1 14.9 13.8 21.6c.5-.3 1.4.2 1.4-1.2zm-5.5 8.3s-15.9-3.7-26.4-2c-1.8.7 0 2.6 0 2.6s11.8 5 26.4.6c-.1-.5 0-1.2 0-1.2z"/><path fill="#EDEEE2" d="M350.2 34.2s-16.3.1-26.2-3.8c-1.6-1.1.6-2.6.6-2.6s12.6-2.3 25.9 5.2c-.3.5-.3 1.2-.3 1.2zm.9 6.2s-6.3-.3-14.9 4.9c-8.6 5.2-13.6 10.7-5.4 8.9 8.2-1.8 20.7-12 20.5-12.9l-.2-.9zm12.1 4s-.2 6.3 5.2 14.8 10.9 13.4 9 5.3c-2-8.1-12.4-20.4-13.3-20.2l-.9.1z"/><path fill="#EDEEE2" d="M351.7 42.5s-20.3 14.9-15.8 23.6c.9 1.5 2.8.4 8-7.5s9-15 9-15 .1-1.1-1.2-1.1zm7.1 3.4s2.4 3.1 2.2 13.6c-.2 10.5.5 14.4-3.4 14.3-1-.4-4.9-6.1-.5-27 0 0 .4-1.4 1.7-.9zm-3.1-.1s-6 20.6-11.9 21.7c-2.1-.1-2-1.2-1.3-2.8.7-1.6 8.6-18.6 11.8-19.8.7-.4 1.5.5 1.4.9zm-3.9-14.6s-22.7-18.1-19.5-21.8c3.2-3.7 18.7 15.3 19.7 21.1l-.2.7z"/><g fill="#E2B522"><circle cx="359.5" cy="36.3" r="10.1"/><g><g><path d="M358.7 46.4c0-.5.2-.8.4-.8s.4.4.4.8c0 .5-.2.8-.4.8s-.4-.4-.4-.8z"/><path d="M358 46.3c.1-.5.3-.8.5-.8s.3.4.3.9-.3.8-.5.8c-.2-.1-.4-.5-.3-.9z"/><path d="M357.3 46.2c.1-.4.4-.8.6-.7.2 0 .3.4.3.9-.1.5-.3.8-.6.7-.3-.1-.4-.5-.3-.9z"/><path d="M356.6 46c.1-.4.4-.7.6-.7.2.1.3.4.2.9-.1.4-.4.8-.6.7-.3-.1-.4-.5-.2-.9z"/></g><g><path d="M355.8 45.7c.2-.4.5-.7.7-.6.2.1.2.5.1.9s-.4.7-.7.6c-.2-.1-.3-.5-.1-.9zm-.7-.3c.2-.4.5-.7.7-.6.2.1.2.5 0 .9s-.5.7-.7.6c-.2-.1-.2-.5 0-.9z"/><path d="M354.5 45c.2-.4.6-.6.7-.5.2.1.2.5 0 .9s-.5.7-.8.5c-.2 0-.2-.5.1-.9z"/><path d="M353.8 44.6c.3-.4.6-.6.8-.5.2.1.1.5-.1.9s-.6.6-.8.5c-.2-.1-.1-.5.1-.9z"/></g><g><path d="M353.2 44.2c.3-.4.7-.5.8-.4.2.1.1.5-.2.9-.3.4-.6.6-.8.4-.2-.2-.1-.6.2-.9z"/><path d="M352.6 43.7c.3-.3.7-.5.8-.3.2.1.1.5-.2.9-.3.4-.7.5-.9.4-.1-.3 0-.7.3-1z"/><path d="M352.1 43.2c.3-.3.7-.4.9-.3.1.1 0 .5-.3.9-.3.3-.7.5-.9.3-.2-.2 0-.6.3-.9z"/><path d="M351.6 42.6c.4-.3.7-.4.9-.2.1.2 0 .5-.3.8-.3.3-.7.4-.9.2-.2-.1 0-.5.3-.8z"/></g><g><path d="M351.1 41.9c.4-.2.8-.3.9-.2.1.2-.1.5-.4.8-.4.3-.8.4-.9.2-.1-.1.1-.5.4-.8z"/><path d="M350.7 41.3c.4-.2.8-.3.9-.1.1.2-.1.5-.5.8-.4.3-.8.3-.9.1-.1-.2.2-.6.5-.8z"/><path d="M350.4 40.7c.4-.2.8-.2.9 0 .1.2-.1.5-.5.7-.4.2-.8.2-.9 0-.1-.2.1-.6.5-.7z"/><path d="M350.1 40c.4-.2.8-.1.9 0 .1.2-.2.5-.6.7-.4.2-.8.2-.9 0-.1-.2.2-.6.6-.7z"/></g><g><path d="M349.8 39.2c.4-.1.8-.1.9.1.1.2-.2.5-.6.7-.4.2-.8.1-.9-.1-.1-.3.2-.6.6-.7z"/><path d="M349.7 38.5c.4-.1.8 0 .9.2.1.2-.3.5-.7.6-.4.1-.8.1-.9-.2-.1-.2.2-.5.7-.6z"/><path d="M349.5 37.8c.4-.1.8 0 .9.3 0 .2-.3.4-.7.6-.4.1-.9 0-.9-.2-.1-.4.3-.7.7-.7z"/><path d="M349.4 37c.5 0 .8.1.9.3 0 .2-.3.4-.8.5-.5.1-.8-.1-.9-.3 0-.2.4-.4.8-.5z"/></g><g><path d="M349.4 36.2c.5 0 .8.2.8.4s-.3.4-.8.4-.8-.1-.8-.4c0-.2.4-.4.8-.4z"/><path d="M349.4 35.5c.5 0 .8.2.8.4s-.4.4-.8.4c-.5 0-.8-.2-.8-.4 0-.3.4-.5.8-.4z"/><path d="M349.5 34.7c.4.1.8.3.8.5s-.4.3-.9.3-.8-.3-.8-.5c.1-.2.5-.3.9-.3z"/><path d="M349.7 34c.4.1.8.3.7.6 0 .2-.4.3-.9.3-.5-.1-.8-.3-.7-.6 0-.3.4-.4.9-.3z"/></g><g><path d="M349.9 33.2c.4.1.7.4.7.6-.1.2-.4.3-.9.2-.4-.1-.8-.4-.7-.6 0-.2.4-.3.9-.2z"/><path d="M350.1 32.5c.4.2.7.5.6.7-.1.2-.5.2-.9.1s-.7-.4-.6-.7c.1-.2.5-.2.9-.1z"/><path d="M350.4 31.9c.4.2.7.5.6.7-.1.2-.5.2-.9.1-.4-.2-.7-.5-.6-.7.1-.3.5-.3.9-.1zm.4-.7c.4.2.6.6.5.7-.1.2-.5.2-.9 0s-.7-.5-.5-.7c.1-.2.5-.2.9 0z"/></g><g><path d="M351.2 30.5c.2.1.3.3.4.4.1.1.1.3.1.4-.1.2-.5.1-.9-.1s-.6-.6-.5-.8c.1-.1.2-.1.4-.1.1 0 .3.1.5.2z"/><path d="M351.7 29.9c.4.3.5.7.4.8-.1.2-.5.1-.9-.2-.4-.3-.6-.6-.4-.8.1-.1.5-.1.9.2z"/><path d="M352.1 29.4c.2.2.3.3.3.5.1.2.1.3 0 .4-.1.2-.5.1-.9-.2-.4-.3-.5-.7-.4-.9.1-.1.2-.1.4-.1.3 0 .5.1.6.3z"/><path d="M352.7 28.8c.3.3.4.7.3.9-.1.1-.5 0-.9-.3-.3-.3-.5-.7-.3-.9.2-.1.5 0 .9.3z"/></g><g><path d="M353.3 28.3c.3.4.4.7.2.9-.1.1-.2.1-.4 0s-.3-.2-.5-.4-.3-.3-.3-.5 0-.3.1-.4c.2-.1.6.1.9.4z"/><path d="M353.9 27.9c.3.4.3.8.2.9-.2.1-.5-.1-.8-.4-.3-.4-.4-.8-.2-.9.2-.2.5 0 .8.4z"/><path d="M354.5 27.5c.2.4.3.8.1.9-.2.1-.5-.1-.8-.5-.3-.4-.3-.8-.1-.9.2-.1.6.1.8.5z"/><path d="M355.2 27.1c.2.4.2.8 0 .9-.2.1-.5-.1-.7-.5-.2-.4-.3-.8 0-.9.1-.1.5.1.7.5z"/></g><g><path d="M355.9 26.8c.2.4.1.8-.1.9-.2.1-.5-.2-.7-.6-.2-.4-.2-.8 0-.9.3-.1.6.2.8.6z"/><path d="M356.6 26.6c.1.4.1.8-.1.9-.2.1-.5-.2-.7-.6-.2-.4-.1-.8.1-.9.3-.2.6.1.7.6z"/><path d="M357.3 26.4c.1.4 0 .8-.2.9-.2.1-.5-.2-.6-.7-.1-.4-.1-.8.2-.9.2-.1.5.2.6.7z"/><path d="M358 26.2c.1.4 0 .8-.3.9-.2 0-.4-.3-.6-.7-.1-.4 0-.9.2-.9.4 0 .7.3.7.7z"/></g><g><path d="M358.9 26.2c0 .5-.1.8-.3.9-.2 0-.4-.3-.5-.8-.1-.4.1-.8.3-.9.2 0 .4.3.5.8z"/><path d="M359.6 26.1c0 .5-.2.8-.4.8s-.4-.3-.4-.8.1-.8.4-.8c.2 0 .4.4.4.8z"/><path d="M360.3 26.2c0 .5-.2.8-.4.8s-.4-.4-.4-.8c0-.5.2-.8.4-.8.3-.1.5.3.4.8z"/><path d="M361.1 26.2c-.1.5-.3.8-.5.8s-.3-.4-.3-.9.3-.8.5-.8c.2.1.3.5.3.9z"/></g><g><path d="M361.9 26.4c-.1.4-.4.8-.6.7-.2 0-.3-.4-.2-.9.1-.5.3-.8.6-.7.2.1.3.5.2.9z"/><path d="M362.6 26.6c-.1.4-.4.7-.6.7-.2-.1-.3-.4-.2-.9.1-.4.4-.8.6-.7.2.1.3.5.2.9z"/><path d="M363.3 26.8c-.2.4-.5.7-.7.6-.2-.1-.2-.5-.1-.9s.4-.7.7-.7c.2.2.2.6.1 1z"/><path d="M363.9 27.1c-.2.4-.5.7-.7.6-.2-.1-.2-.5-.1-.9.2-.4.5-.7.7-.6.3.1.3.5.1.9z"/></g><g><path d="M364.7 27.5c-.2.4-.6.6-.7.5-.2-.1-.2-.5 0-.9s.5-.7.8-.5c.1.1.1.5-.1.9z"/><path d="M365.3 27.9c-.3.4-.6.6-.8.5-.2-.1-.1-.5.1-.9s.6-.6.8-.5c.2.1.2.5-.1.9z"/><path d="M365.9 28.4c-.3.4-.6.5-.8.4-.2-.1-.1-.5.2-.9.3-.4.6-.6.8-.4.1.1.1.5-.2.9z"/><path d="M366.4 28.8c-.2.2-.3.3-.5.4-.2.1-.3.1-.4 0-.2-.1-.1-.5.2-.9.3-.4.7-.5.9-.4.1.1.1.2.1.4s-.1.4-.3.5z"/></g><g><path d="M367 29.4c-.3.3-.7.4-.9.3-.1-.1 0-.5.3-.9.3-.3.7-.5.9-.3.2.2.1.6-.3.9z"/><path d="M367.5 30c-.4.3-.8.4-.9.2-.1-.1-.1-.2 0-.4.1-.1.2-.3.3-.5.2-.2.3-.3.5-.3s.3 0 .4.1c.2.2.1.6-.3.9z"/><path d="M367.9 30.6c-.4.3-.8.3-.9.2-.1-.2.1-.5.4-.8.4-.3.8-.4.9-.2.2.2 0 .5-.4.8z"/><path d="M368.3 31.2c-.4.2-.8.3-.9.1-.1-.1 0-.2.1-.4.1-.1.2-.3.4-.4.2-.1.4-.2.6-.2.2 0 .3 0 .4.1 0 .2-.2.6-.6.8z"/></g><g><path d="M368.7 31.9c-.4.2-.8.2-.9 0-.1-.2.1-.5.5-.7.4-.2.8-.2.9 0 .2.2-.1.5-.5.7z"/><path d="M369 32.6c-.4.2-.8.1-.9-.1-.1-.2.2-.5.6-.7.4-.2.8-.2.9 0 .1.3-.2.6-.6.8z"/><path d="M369.2 33.3c-.4.1-.8.1-.9-.1-.1-.2.2-.5.6-.7.4-.2.8-.1.9.1.2.3-.1.6-.6.7z"/><path d="M369.4 34c-.4.1-.8 0-.9-.2-.1-.2.3-.5.7-.6.4-.1.8-.1.9.2.1.2-.2.5-.7.6z"/></g><g><path d="M369.6 34.8c-.4.1-.8-.1-.9-.3 0-.2.3-.4.7-.6.4-.1.9 0 .9.3.1.3-.3.6-.7.6z"/><path d="M369.7 35.6c-.5 0-.8-.1-.9-.3 0-.2.3-.4.8-.5.4-.1.8.1.9.3 0 .2-.4.4-.8.5z"/><path d="M369.7 36.3c-.5 0-.8-.2-.8-.4s.3-.4.8-.4.8.1.8.4c0 .2-.4.4-.8.4z"/><path d="M369.7 37c-.5 0-.8-.2-.8-.4s.4-.4.8-.4c.5 0 .8.2.8.4 0 .3-.4.5-.8.4z"/></g><g><path d="M369.6 37.8c-.4-.1-.8-.3-.8-.5s.4-.3.9-.3c.4 0 .8.3.8.5-.1.3-.5.4-.9.3z"/><path d="M369.4 38.6c-.4-.1-.8-.4-.7-.6 0-.2.4-.3.9-.3.5.1.8.3.7.6 0 .3-.4.4-.9.3z"/><path d="M369.2 39.3c-.4-.1-.7-.4-.7-.6.1-.2.4-.3.9-.2.4.1.8.4.7.6 0 .2-.4.3-.9.2z"/><path d="M369 40c-.4-.2-.7-.5-.6-.7.1-.2.5-.2.9-.1s.7.4.7.7c-.2.2-.6.2-1 .1z"/></g><g><path d="M368.7 40.7c-.4-.2-.7-.5-.6-.7.1-.2.5-.2.9 0s.7.5.6.7c-.1.2-.5.2-.9 0z"/><path d="M368.3 41.4c-.4-.2-.6-.6-.5-.7.1-.2.5-.2.9 0s.7.5.5.8c-.1.1-.5.1-.9-.1z"/><path d="M367.9 42c-.4-.3-.6-.6-.5-.8.1-.2.5-.1.9.1s.6.6.5.8c-.1.2-.5.2-.9-.1z"/><path d="M367.5 42.6c-.4-.3-.5-.6-.4-.8.1-.2.5-.1.9.2.4.3.6.6.4.8-.2.2-.6.1-.9-.2z"/></g><g><path d="M366.9 43.2c-.3-.3-.5-.7-.3-.8.1-.2.5-.1.9.2.4.3.5.7.4.9-.2.1-.6 0-1-.3z"/><path d="M366.4 43.7c-.3-.3-.4-.7-.3-.9.1-.1.5 0 .9.3.3.3.5.7.3.9-.2.2-.6.1-.9-.3z"/><path d="M365.9 44.2c-.3-.4-.4-.7-.2-.9.2-.1.5 0 .8.3.3.3.4.7.2.9-.2.2-.6.1-.8-.3z"/><path d="M365.3 44.6c-.3-.4-.3-.8-.2-.9.2-.1.5.1.8.4.3.3.4.8.2.9-.2.2-.6 0-.8-.4z"/></g><g><path d="M364.6 45.1c-.2-.4-.3-.8-.1-.9.2-.1.5.1.8.5.3.4.3.8.1.9-.3.1-.6-.1-.8-.5z"/><path d="M363.9 45.4c-.2-.4-.2-.8 0-.9.2-.1.5.1.7.5.2.4.2.8 0 .9-.2.2-.5-.1-.7-.5zm-.7.3c-.2-.4-.1-.8 0-.9.2-.1.5.2.7.6.2.4.2.8 0 .9-.2.1-.5-.2-.7-.6z"/><path d="M362.5 46c-.1-.4-.1-.8.1-.9.2-.1.5.2.7.6.2.4.1.8-.1.9-.2.1-.5-.2-.7-.6z"/></g><g><path d="M361.7 46.2c-.1-.4 0-.8.2-.9.2-.1.5.2.6.7.1.4.1.8-.2.9-.2 0-.5-.3-.6-.7z"/><path d="M361 46.3c-.1-.4.1-.8.3-.9.2 0 .4.3.6.7.1.4 0 .9-.3.9-.3.1-.5-.2-.6-.7z"/><path d="M360.3 46.4c0-.5.1-.8.3-.9.2 0 .4.3.5.8.1.4-.1.8-.3.9-.3 0-.5-.4-.5-.8zm-.8 0c0-.5.2-.8.4-.8s.4.3.4.8-.1.8-.4.9c-.2-.1-.4-.4-.4-.9z"/></g></g></g></g><g><path fill="#EDEEE2" d="M405 1128.2s25.9 3.1 34.2 17.3c8.3 14.2-34.1-13.9-35.4-15.1.4-1.2 1.2-2.2 1.2-2.2zm-.2-4.3v1.9s31.2 7.1 39.5-5.2c.9-1.5-1.5-3.1-7.3-2.7-14.9 1.2-26.6 3-32.2 6zm-18.6 15.3l-1.9-.5s-15.1 28.3-5.4 39.5c1.2 1.2 3.4-.6 4.5-6.3 2.8-14.7 4.2-26.5 2.8-32.7z"/><path fill="#EDEEE2" d="M403.1 1132s40.1 15 37.2 21.6c-2.9 6.7-33.2-12.9-37.2-20.4v-1.2z"/><path fill="#EDEEE2" d="M399.4 1136.7s.1-1.5 2.4-.9c2.2.6 29.3 19.2 29.3 26.7 0 7.4-27.8-10.5-31.7-25.8zm5.4-14.5s26.4-1.8 31.7-12.6c.7-1.8-5-5-13.6 0s-19 10.5-19 10.5l.9 2.1z"/><path fill="#EDEEE2" d="M401.3 1115.9l.7 1s36.9-12 36.9-19.1c-.9-1-2.5-1.5-2.5-1.5s-21.6 2.2-35.1 19.6zm-25.1 13.4l-.4-1.2s-38.8-.6-41.1 6.1c.5 1.3 1.8 2.2 1.8 2.2s21.4 4.9 39.7-7.1z"/><path fill="#EDEEE2" d="M397.2 1112.6s1.2 1.6 2.2 1c1-.6 28.3-20.4 27.1-31.1-.4-2.5-4.4-2.1-6.3 0-2 2.1-22.1 19.9-23 30.1z"/><path fill="#EDEEE2" d="M396.2 1111.7h-2s-.9-18.8 13-33.8c1.5-1.6 3.8-4.3 5.8-3.4 1.8.9 1.4 9.4-16.8 37.2z"/><path fill="#EDEEE2" d="M389.3 1111s-7.3-21.3 2.2-37.5c1.2-1.9 3.8-2.1 4.1 0 .3 2.1 4.3 20.6-4.5 37.5-.7.4-1.8 0-1.8 0z"/><path fill="#EDEEE2" d="M386.8 1111.7H385s-23.2-28.4-15.7-38.9c1.4-1.9 17.3 20.4 17.5 38.9zm7.3 27.1s17.6 33 12.5 38.6c0 0-2.5 4.4-7.3-4.6-4.7-9-9.5-28-7.6-32.6 1.4-2.2 2.4-1.4 2.4-1.4zm-16.8-21.9s-27.2-21.8-31.1-21.6c-1.5.3-1.3 1-1.3 1s-1.2-.7 0 1.9c1.2 2.7 11.6 19 31.2 21.2.5-.9 2.1-.7 1.2-2.5z"/><path fill="#EDEEE2" d="M383.5 1111.5s-16.4-30.8-20-32.1c-1.5-.3-1.6.4-1.6.4s-.8-1.2-.8 1.8c0 2.9 3.1 22 20.3 31.8.8-.7 2.1.1 2.1-1.9zm-8.1 12.1s-23.4-5.5-38.8-3c-2.7 1 0 3.9 0 3.9s17.3 7.4 38.8.9c-.1-.8 0-1.8 0-1.8z"/><path fill="#EDEEE2" d="M375.9 1122.3s-24 .2-38.5-5.7c-2.4-1.6.8-3.8.8-3.8s18.5-3.4 38 7.7c-.2.7-.3 1.8-.3 1.8zm1.4 9.1s-9.3-.4-21.9 7.3c-12.6 7.7-20 15.7-8 13 12-2.7 30.4-17.6 30.1-19l-.2-1.3zm17.8 5.9s-.3 9.3 7.7 21.8c7.9 12.4 16.1 19.7 13.2 7.7-2.9-11.9-18.2-30-19.5-29.8l-1.4.3zm-16.9-2.8s-29.8 21.9-23.2 34.7c1.4 2.2 4.1.5 11.7-11.1s13.2-22.1 13.2-22.1.2-1.5-1.7-1.5zm10.4 5.1s3.5 4.6 3.2 20c-.4 15.4.7 21.2-4.9 21-1.5-.6-7.3-9-.8-39.7 0 0 .6-2.1 2.5-1.3zm-4.6-.2s-8.9 30.4-17.5 31.8c-3.1-.1-3-1.8-1.9-4.1 1-2.4 12.6-27.4 17.3-29.2 1.1-.4 2.3.9 2.1 1.5zm-5.7-21.5s-33.4-26.7-28.7-32.1c4.8-5.4 27.6 22.6 29 31l-.3 1.1z"/><g fill="#E2B522"><circle cx="389.7" cy="1125.4" r="14.9"/><g><g><path d="M388.5 1140.2c.1-.7.3-1.2.7-1.2.3 0 .6.6.6 1.2 0 .7-.3 1.2-.7 1.2-.4.1-.6-.5-.6-1.2z"/><path d="M387.4 1140.1c.1-.7.4-1.2.7-1.1.3 0 .5.6.5 1.3 0 .7-.4 1.2-.7 1.2-.4-.2-.6-.7-.5-1.4z"/><path d="M386.4 1139.9c.2-.7.5-1.1.8-1.1.3.1.5.6.4 1.3-.1.7-.5 1.2-.8 1.1-.4-.1-.6-.7-.4-1.3z"/><path d="M385.3 1139.6c.2-.6.6-1.1.9-1 .3.1.4.7.3 1.3-.1.7-.5 1.1-.9 1-.3 0-.5-.6-.3-1.3z"/></g><g><path d="M384.2 1139.2c.3-.6.7-1 1-.9.3.1.4.7.2 1.3-.2.6-.6 1.1-1 1-.4-.2-.5-.8-.2-1.4z"/><path d="M383.2 1138.8c.3-.6.8-1 1-.9.3.1.3.7.1 1.3-.2.6-.7 1-1 .9-.4-.1-.4-.7-.1-1.3z"/><path d="M382.3 1138.3c.3-.6.8-.9 1.1-.8.3.1.3.7 0 1.3-.3.6-.8 1-1.1.8-.4-.1-.4-.8 0-1.3z"/><path d="M381.3 1137.7c.4-.5.9-.9 1.1-.7.3.2.2.7-.1 1.3-.3.6-.9.9-1.2.7-.2-.2-.1-.8.2-1.3z"/></g><g><path d="M380.4 1137c.4-.5 1-.8 1.2-.6.2.2.1.8-.2 1.3-.4.6-.9.8-1.2.6-.4-.2-.3-.8.2-1.3z"/><path d="M379.5 1136.2c.5-.5 1-.7 1.2-.5.2.2.1.8-.3 1.3s-1 .8-1.3.5c-.2-.2 0-.8.4-1.3z"/><path d="M378.8 1135.5c.5-.5 1.1-.6 1.3-.4.2.2 0 .8-.4 1.3s-1 .7-1.3.4c-.3-.3-.1-.9.4-1.3z"/><path d="M378.1 1134.7c.5-.4 1.1-.6 1.3-.3.2.2 0 .8-.5 1.2-.5.5-1.1.6-1.3.3-.3-.3 0-.8.5-1.2z"/></g><g><path d="M377.4 1133.7c.6-.4 1.2-.5 1.3-.2.2.2-.1.8-.6 1.2-.5.4-1.1.5-1.3.2-.3-.3 0-.8.6-1.2z"/><path d="M376.8 1132.8c.6-.3 1.2-.4 1.3-.1.2.3-.1.8-.7 1.1-.6.4-1.2.4-1.4.1-.1-.3.2-.8.8-1.1z"/><path d="M376.3 1131.8c.6-.3 1.2-.3 1.3 0 .1.3-.2.7-.8 1.1-.6.3-1.2.4-1.4 0-.1-.3.3-.8.9-1.1z"/><path d="M375.9 1130.8c.6-.2 1.2-.2 1.3.1.1.3-.3.7-.9 1-.6.3-1.2.3-1.4-.1-.1-.3.3-.8 1-1z"/></g><g><path d="M375.5 1129.7c.6-.2 1.2-.1 1.3.2.1.3-.3.7-.9 1-.6.2-1.2.2-1.4-.2-.1-.4.3-.8 1-1z"/><path d="M375.2 1128.6c.7-.1 1.2 0 1.3.3.1.3-.4.7-1 .9-.6.2-1.2.1-1.3-.3-.1-.3.3-.7 1-.9z"/><path d="M375 1127.6c.7-.1 1.2.1 1.3.4 0 .3-.4.7-1.1.8-.6.2-1.3 0-1.3-.4-.1-.4.4-.8 1.1-.8z"/><path d="M374.9 1126.5c.7 0 1.2.2 1.3.5 0 .3-.5.6-1.1.7-.7.1-1.2-.1-1.3-.5-.1-.3.4-.7 1.1-.7z"/></g><g><path d="M374.8 1125.3c.7 0 1.2.3 1.2.6s-.5.6-1.2.6c-.7.1-1.2-.2-1.2-.6 0-.3.6-.6 1.2-.6z"/><path d="M374.9 1124.2c.7.1 1.2.3 1.2.6s-.6.6-1.2.6c-.7 0-1.2-.3-1.2-.6-.1-.4.5-.7 1.2-.6z"/><path d="M375 1123.1c.7.1 1.2.4 1.1.7 0 .3-.6.5-1.3.5-.7 0-1.2-.4-1.2-.7.2-.4.7-.6 1.4-.5z"/><path d="M375.2 1122c.7.2 1.1.5 1.1.8-.1.3-.6.5-1.3.4-.7-.1-1.2-.5-1.1-.8 0-.3.6-.5 1.3-.4z"/></g><g><path d="M375.5 1120.9c.6.2 1.1.6 1 .9-.1.3-.7.4-1.3.3-.6-.1-1.1-.6-1-.9.1-.4.7-.5 1.3-.3z"/><path d="M375.9 1119.9c.6.3 1 .7.9 1-.1.3-.7.4-1.3.2-.6-.2-1.1-.6-1-1 .1-.4.8-.5 1.4-.2z"/><path d="M376.3 1118.9c.6.3 1 .8.9 1-.1.3-.7.3-1.3.1-.6-.2-1-.7-.9-1 .1-.4.7-.4 1.3-.1z"/><path d="M376.8 1117.9c.6.3.9.8.8 1.1-.1.3-.7.3-1.3 0-.6-.3-1-.8-.8-1.1.1-.4.7-.3 1.3 0z"/></g><g><path d="M377.5 1116.9c.3.2.5.4.6.6.1.2.2.4.1.5-.2.2-.8.2-1.3-.1-.6-.3-.9-.9-.7-1.2.1-.2.3-.2.5-.2.2.1.5.2.8.4z"/><path d="M378.1 1116c.5.4.8 1 .6 1.2-.2.2-.8.1-1.3-.2-.6-.4-.8-.9-.6-1.2.2-.3.8-.2 1.3.2z"/><path d="M378.8 1115.2c.2.2.4.5.5.7.1.2.1.4 0 .5-.2.2-.8.1-1.3-.3s-.8-1-.5-1.3c.1-.1.3-.2.6-.1.2.1.5.3.7.5z"/><path d="M379.6 1114.4c.5.5.6 1.1.4 1.3-.2.2-.8 0-1.3-.4s-.7-1-.4-1.3c.3-.3.8-.1 1.3.4z"/></g><g><path d="M380.5 1113.7c.4.5.5 1.1.3 1.3-.1.1-.3.1-.5 0s-.5-.3-.7-.5c-.2-.2-.4-.5-.4-.8-.1-.2 0-.4.1-.6.2-.2.8 0 1.2.6z"/><path d="M381.4 1113c.4.6.5 1.2.2 1.3-.2.2-.8-.1-1.2-.6-.4-.5-.5-1.1-.2-1.3.3-.2.8.1 1.2.6z"/><path d="M382.3 1112.4c.3.6.4 1.2.1 1.3-.3.2-.8-.1-1.2-.7-.4-.6-.5-1.2-.1-1.4.3-.1.9.3 1.2.8z"/><path d="M383.3 1111.9c.3.6.3 1.2 0 1.3-.3.1-.8-.2-1.1-.8-.3-.6-.4-1.2 0-1.4.3 0 .8.3 1.1.9z"/></g><g><path d="M384.4 1111.4c.2.6.2 1.2-.1 1.3-.3.1-.7-.3-1-.9-.3-.6-.3-1.2.1-1.4.3 0 .7.4 1 1z"/><path d="M385.4 1111.1c.2.6.1 1.2-.2 1.3-.3.1-.7-.3-1-.9-.2-.6-.2-1.2.2-1.4.4-.1.8.3 1 1z"/><path d="M386.4 1110.8c.1.7 0 1.2-.3 1.3-.3.1-.7-.4-.9-1-.2-.6-.1-1.2.3-1.3.4-.1.8.4.9 1z"/><path d="M387.5 1110.6c.1.7-.1 1.2-.4 1.3-.3.1-.7-.4-.8-1.1-.2-.6 0-1.3.4-1.3.3 0 .7.5.8 1.1z"/></g><g><path d="M388.7 1110.5c0 .7-.2 1.2-.5 1.3-.3 0-.6-.5-.7-1.1-.1-.7.1-1.2.5-1.3.3-.1.7.4.7 1.1z"/><path d="M389.8 1110.5c0 .7-.3 1.2-.6 1.2s-.6-.5-.6-1.2c-.1-.7.2-1.2.6-1.2.3-.1.6.5.6 1.2z"/><path d="M390.9 1110.5c-.1.7-.3 1.2-.6 1.2s-.6-.6-.6-1.2c0-.7.3-1.2.6-1.2.4 0 .6.5.6 1.2z"/><path d="M392 1110.6c-.1.7-.4 1.2-.7 1.1-.3 0-.5-.6-.5-1.3 0-.7.4-1.2.7-1.2.3.2.6.8.5 1.4z"/></g><g><path d="M393.1 1110.9c-.2.7-.5 1.1-.8 1.1-.3-.1-.5-.6-.4-1.3.1-.7.5-1.2.8-1.1.4 0 .6.6.4 1.3z"/><path d="M394.2 1111.1c-.2.6-.6 1.1-.9 1-.3-.1-.4-.7-.3-1.3.1-.7.5-1.1.9-1 .4.1.5.7.3 1.3z"/><path d="M395.2 1111.5c-.3.6-.7 1-1 .9-.3-.1-.4-.7-.2-1.3.2-.6.6-1.1 1-1 .4.2.5.8.2 1.4z"/><path d="M396.2 1111.9c-.3.6-.8 1-1 .9-.3-.1-.3-.7-.1-1.3.2-.6.7-1 1-.9.4.1.4.7.1 1.3z"/></g><g><path d="M397.3 1112.5c-.3.6-.8.9-1.1.8-.3-.1-.3-.7 0-1.3.3-.6.8-1 1.1-.8.3.1.3.7 0 1.3z"/><path d="M398.2 1113.1c-.4.5-.9.9-1.2.7-.2-.2-.2-.8.1-1.3.3-.6.9-.9 1.2-.7.3.1.3.7-.1 1.3z"/><path d="M399 1113.7c-.4.5-1 .8-1.2.6-.2-.2-.1-.8.2-1.3.4-.6.9-.8 1.2-.6.4.2.3.8-.2 1.3z"/><path d="M399.9 1114.4c-.2.2-.5.4-.7.5-.2.1-.4.1-.5 0-.2-.2-.1-.8.3-1.3s1-.8 1.3-.5c.1.1.2.3.1.6-.1.2-.3.5-.5.7z"/></g><g><path d="M400.7 1115.3c-.5.4-1.1.6-1.3.4-.2-.2 0-.8.4-1.3s1-.7 1.3-.4c.3.3.1.8-.4 1.3z"/><path d="M401.4 1116.1c-.5.4-1.1.5-1.3.3-.1-.1-.1-.3 0-.5s.3-.5.5-.7c.2-.2.5-.4.8-.4.2-.1.4 0 .6.1.2.2 0 .8-.6 1.2z"/><path d="M402.1 1117c-.6.4-1.2.5-1.3.2-.2-.2.1-.8.6-1.2.5-.4 1.1-.5 1.3-.2.2.3-.1.8-.6 1.2z"/><path d="M402.6 1117.9c-.6.3-1.2.4-1.3.1-.1-.1 0-.3.1-.5s.3-.4.6-.6c.3-.2.6-.3.8-.3.2 0 .4 0 .5.2.3.2-.1.8-.7 1.1z"/></g><g><path d="M403.2 1119c-.6.3-1.2.3-1.3 0-.1-.3.2-.8.8-1.1.6-.3 1.2-.4 1.4 0 .1.3-.3.8-.9 1.1z"/><path d="M403.6 1120c-.6.2-1.2.2-1.3-.1-.1-.3.3-.7.9-1 .6-.3 1.2-.3 1.4.1.1.3-.3.7-1 1z"/><path d="M404 1121c-.6.2-1.2.1-1.3-.2-.1-.3.3-.7.9-1 .6-.3 1.2-.2 1.4.2.1.4-.4.8-1 1z"/><path d="M404.3 1122c-.7.1-1.2 0-1.3-.3-.1-.3.4-.7 1-.9.6-.2 1.2-.1 1.3.3.1.4-.4.8-1 .9z"/></g><g><path d="M404.5 1123.2c-.7.1-1.2-.1-1.3-.4 0-.3.4-.7 1.1-.8.6-.2 1.3 0 1.3.4s-.4.7-1.1.8z"/><path d="M404.6 1124.3c-.7 0-1.2-.2-1.3-.5 0-.3.5-.6 1.1-.7.7-.1 1.2.1 1.3.5.1.3-.4.7-1.1.7z"/><path d="M404.6 1125.4c-.7 0-1.2-.3-1.2-.6s.5-.6 1.2-.6c.7-.1 1.2.2 1.2.6 0 .3-.5.6-1.2.6z"/><path d="M404.6 1126.5c-.7-.1-1.2-.3-1.2-.6s.6-.6 1.2-.6c.7 0 1.2.3 1.2.6 0 .4-.5.6-1.2.6z"/></g><g><path d="M404.5 1127.7c-.7-.1-1.2-.4-1.1-.7 0-.3.6-.5 1.3-.5.7 0 1.2.4 1.1.7-.1.4-.7.6-1.3.5z"/><path d="M404.3 1128.7c-.7-.2-1.1-.5-1.1-.8.1-.3.6-.5 1.3-.4.7.1 1.2.5 1.1.8-.1.4-.7.6-1.3.4z"/><path d="M404 1129.8c-.6-.2-1.1-.6-1-.9.1-.3.7-.4 1.3-.3.7.1 1.1.5 1 .9-.1.4-.7.5-1.3.3z"/><path d="M403.6 1130.8c-.6-.3-1-.7-.9-1 .1-.3.7-.4 1.3-.2.6.2 1.1.6 1 1-.1.4-.8.5-1.4.2z"/></g><g><path d="M403.1 1131.9c-.6-.3-1-.8-.9-1 .1-.3.7-.3 1.3-.1.6.2 1 .7.9 1-.1.4-.7.4-1.3.1z"/><path d="M402.6 1132.9c-.6-.3-.9-.8-.8-1.1.1-.3.7-.3 1.3 0 .6.3 1 .8.8 1.1-.1.3-.7.3-1.3 0z"/><path d="M402 1133.8c-.5-.4-.9-.9-.7-1.1.2-.3.8-.2 1.3.1.6.3.9.9.7 1.2-.1.2-.7.2-1.3-.2z"/><path d="M401.4 1134.7c-.5-.4-.8-1-.6-1.2.2-.2.8-.1 1.3.2.6.4.8.9.6 1.2-.2.3-.8.2-1.3-.2z"/></g><g><path d="M400.6 1135.6c-.5-.5-.7-1-.5-1.2.2-.2.8-.1 1.3.3s.8 1 .5 1.3c-.2.2-.8 0-1.3-.4z"/><path d="M399.8 1136.3c-.4-.5-.6-1.1-.4-1.3.2-.2.8 0 1.3.4.5.5.7 1 .4 1.3-.2.3-.8.1-1.3-.4z"/><path d="M399 1137c-.4-.5-.6-1.1-.3-1.3.2-.2.8 0 1.2.5.5.5.6 1.1.3 1.3-.2.3-.8.1-1.2-.5z"/><path d="M398.1 1137.7c-.4-.6-.5-1.1-.2-1.3.2-.2.8.1 1.2.6.4.5.5 1.1.2 1.3-.3.2-.8-.1-1.2-.6z"/></g><g><path d="M397.1 1138.3c-.3-.6-.4-1.2-.1-1.3.3-.2.8.2 1.1.7.4.6.4 1.2.1 1.4-.2.1-.8-.2-1.1-.8z"/><path d="M396.1 1138.8c-.3-.6-.3-1.2 0-1.3.3-.1.8.2 1.1.8.3.6.4 1.2 0 1.4-.3.1-.8-.3-1.1-.9z"/><path d="M395.2 1139.3c-.2-.6-.2-1.2.1-1.3.3-.1.7.3 1 .9.3.6.3 1.2-.1 1.4-.3 0-.8-.4-1-1z"/><path d="M394.1 1139.6c-.2-.6-.1-1.2.2-1.3.3-.1.7.3 1 .9.3.6.2 1.2-.2 1.4-.3.1-.8-.3-1-1z"/></g><g><path d="M393 1139.9c-.1-.7 0-1.2.3-1.3.3-.1.7.4.9 1 .2.6.1 1.2-.3 1.3-.4.1-.8-.3-.9-1z"/><path d="M391.9 1140.1c-.1-.7.1-1.2.4-1.3.3 0 .7.4.8 1.1.2.6 0 1.3-.4 1.3-.3.1-.7-.4-.8-1.1z"/><path d="M390.8 1140.2c0-.7.2-1.2.5-1.3.3 0 .6.5.7 1.1.1.7-.1 1.2-.5 1.3-.3.1-.6-.4-.7-1.1z"/><path d="M389.7 1140.3c0-.7.3-1.2.6-1.2s.6.5.7 1.2c.1.7-.2 1.2-.6 1.2-.4 0-.7-.6-.7-1.2z"/></g></g></g></g><path fill="#EDEEE2" d="M207.9 350.3s0 .4.7 1.5 1.2 1.5 1.2 1.5-6.1 1.2-11.7 6.1c-2.2 1.9-2.3 2.7-2.3 2.7s.8 1.9 3.2 3.2c0 0-3.4 1.4-6.4 3.9-3 2.4-4.8 6.1-4.8 6.1s1.2 2 2.8 2.4c1.6.3-1.9-.1-6 4.7s-4.8 9.3-4.8 9.3.9 1.9 2.8 2.9c0 0-3 1.3-5.7 6.8-2.6 5.1-2.3 11-2.3 11.8.6.3 5.9 2.9 11.7 2.6 6.1-.3 8.5-2.5 8.5-2.5.1 2.1 1.5 3.8 1.5 3.8s4.4 1.1 10.5-.7 7.1-5.2 6.7-3.6c-.3 1.6 1 3.5 1 3.5s4-.2 7.5-2 6.1-4.3 6.1-4.3c.2 2.8 1.6 4.2 1.6 4.2s.8.2 3.4-1c6.8-3.2 10.3-8.3 10.3-8.3s.2.7.9 1.7c.7 1.1 1.1 1.3 1.1 1.3s.5.5 3.6-2.1 7.1-10.1 7.1-10.1c1.6 1.9 2.3 4.1 4.3 1.8 6.6-7.5 11.5-16.7 14.7-26.1 1.4-4.3 2.5-8.7 3.2-13.2.4-2.3.9-5.1 1.1-7.7-3.2 2.2-4 3-5.1 3.6-11.8 7.7-19.8 10.4-28.4 12.5 5.3-7.2 11-13.4 22.8-21.1 1.1-.7 2.1-1.2 5.3-3.2-2.5-.9-5.2-1.5-7.5-2.1-4.4-1.2-8.9-2-13.4-2.4-9.9-.9-20.3-.1-29.8 3-2.9.9-1.2 2.5-.1 4.7 0 0-8.4.7-12.1 2.5-3.4 1.6-3.2 2.3-3.2 2.3M256.6 810s.2-.1.8-.6c.6-.5.8-.9.8-.9s1.3 3.6 4.8 6.6c1.3 1.1 1.9 1.2 1.9 1.2s1.1-.6 1.6-2.3c0 0 1.2 1.9 2.9 3.5 1.8 1.6 4.1 2.4 4.1 2.4s1.1-.9 1.2-1.9c.1-1 .1 1.2 3.4 3.2s6.1 2.1 6.1 2.1 1.1-.7 1.5-2c0 0 1.1 1.7 4.7 2.8 3.4 1.1 6.9.4 7.3.3.1-.4 1.2-3.9.5-7.4-.7-3.7-2.3-5-2.3-5 1.3-.3 2.1-1.3 2.1-1.3s.3-2.8-1.4-6.3c-1.6-3.5-3.8-3.8-2.8-3.8s2-1 2-1-.5-2.4-1.9-4.4c-1.4-1.9-3.2-3.3-3.2-3.3 1.7-.4 2.4-1.4 2.4-1.4s0-.5-.9-2c-2.6-3.8-6-5.5-6-5.5s.4-.2 1-.7c.6-.5.7-.8.7-.8s.2-.4-1.6-2c-1.9-1.6-6.8-3.4-6.8-3.4 1-1.2 2.3-1.8.7-2.8-5.1-3.3-11.2-5.4-17.2-6.5-2.7-.5-5.5-.7-8.3-.7-1.4 0-3.2 0-4.8.1 1.6 1.7 2.2 2.2 2.7 2.8 5.8 6.4 8.2 11.1 10.2 16.2-4.8-2.5-9.1-5.5-14.9-11.9-.5-.6-.9-1.1-2.4-3-.3 1.6-.4 3.3-.6 4.8-.3 2.8-.4 5.6-.2 8.4.4 6.1 1.8 12.4 4.5 17.9.8 1.7 1.6.5 2.8-.4 0 0 1.2 5.1 2.6 7.1 1.6 2.1 2 1.9 2 1.9"/><g><path fill="#4CA392" stroke="#4CA392" stroke-width="4.5" stroke-miterlimit="10" d="M233.3 62.1l.1 3.2-55.4 15-6.1-7.2 22.3-55.4 5.6 2.1L184 59.2l28.9-34.1 4.6 3L190 64.6l34.9-28 1.8 2.7-33.1 31.5z"/><path fill="#EC7134" d="M182.2 70.3s22 19.2-11 44.8c-33 25.6-48.5 41.6-59 46.7-10.4 5.1-25.7 11.5-37.2 19.7-11.6 8.2-37.7 33.4-35.3 22.5 2.4-10.9 35.2-62.2 57.2-80.8 22-18.7 63.1-86.5 85.3-52.9z"/><g><defs><path id="a" d="M182.2 70.3s22 19.2-11 44.8c-33 25.6-48.5 41.6-59 46.7-10.4 5.1-25.7 11.5-37.2 19.7-11.6 8.2-37.7 33.4-35.3 22.5 2.4-10.9 35.2-62.2 57.2-80.8 22-18.7 63.1-86.5 85.3-52.9z"/></defs><clipPath id="b"><use xlink:href="#a" overflow="visible"/></clipPath><g clip-path="url(#b)" fill="none" stroke="#050505" stroke-width="2.5" stroke-miterlimit="10"><path d="M181.1 109.9s-22.8-9-34.7-42.3m23.6 52s-22.1-9.6-34.1-42.9m22.4 52.3s-20.1-8.9-32.1-42.2m21.4 50.9s-18.3-7.7-30.3-41m18.8 50.6s-19.7-2.4-31.7-35.7m18.9 46.4s-18-1.2-30-34.5m17.9 43.8s-19.5-7.5-29.1-33.2m14.5 40.6s-16.9-8.1-24-30.1m9.2 37.3s-10.9-2.4-19.7-24.2"/></g></g></g><g><path fill="#4CA392" d="M322.4 762.5l-3.7 2.2 25.3 71.5 12.3 1.2 43.4-65.6-6.4-4.5-31.1 46.6 15.5-56.8-6.7-2.8-19 57 4.3-58.7-4.3.1-9.5 59.4"/><path fill="#4356A0" d="M347.4 829.8s-51.8-1-54.3 48.3c-2.5 49.4 38.4 53.4 43.4 61.6 2.4 2.9 4.3 5.5 4.3 5.5s-1.9-2.5 13.5-8.2c11.6-4.2 48.7-22.6 44.7-56.4s-25.6-53.1-51.6-50.8z"/><g><defs><path id="c" d="M347.4 829.8s-51.8-1-54.3 48.3c-2.5 49.4 38.4 53.4 43.4 61.6 2.4 2.9 4.3 5.5 4.3 5.5s-1.9-2.5 13.5-8.2c11.6-4.2 48.7-22.6 44.7-56.4s-25.6-53.1-51.6-50.8z"/></defs><clipPath id="d"><use xlink:href="#c" overflow="visible"/></clipPath><g clip-path="url(#d)" fill="none" stroke="#050505" stroke-width="2.41" stroke-miterlimit="10"><path d="M388 846.1s-50.5 30-78.5-5.4m-15.7 19.7s56.9 38.8 105.1 5.8m4 20.1s-54.9 45.5-113.7-1.9m100.5 36.4s-37.5 21.1-89.6 0"/></g></g></g></svg>