<svg class="{{ include.class }}" parallax="{{ include.parallax }}" alt="{{ include.alt }}" xmlns="http://www.w3.org/2000/svg" xmlns:xlink="http://www.w3.org/1999/xlink" width="573.3" height="1182.7" viewBox="0 0 573.3 1182.7"><g><path fill="#5B5B5C" d="M46.5 946.2s-44.9 5-29.9 51.7c13.4 41.6 57.1 25.8 67.7 7.8 10.7-17.8 13.5-68.3-37.8-59.5z"/><path fill="#EDEEE2" d="M75.9 976S63.4 947.4 37 962.2c-21.4 12-8.2 43.6 6 47.9 14.1 4.3 45 1.7 32.9-34.1z"/><path fill="#AAA" d="M298.7 946.2L74.4 829.9s-8.5 29.7-5.3 35.6c16.5 29.9 21.1 48.6 18.2 70.3-1.3 7.6.5 20.7 43.2 38.4s100.2 41.5 100.2 41.5 88-84.6 68-69.5z"/><path fill="#CC7428" d="M113.8 967.9c-.2-.7-.7-1.1-1.2-1l-61.9 13.9c-.5.1-.8.8-.6 1.4l.5 2c.2.7.7 1.1 1.2 1l61.9-13.9c.5-.1.8-.8.6-1.4l-.5-2z"/><path fill="#CC7428" d="M111.17 963.83l129.7 53.72-3.05 7.4-129.7-53.73z"/><path fill="#CC7428" d="M235.5 1018.7l-5.5-4.6c4.4-5.3 108.9-129.5 168.1-105l-2.7 6.6c-22.2-9.2-56.7 5.5-99.9 42.5-33.2 28.5-59.8 60.2-60 60.5zm-37.5 67.7l-23.3-9.7-34.7-94.9 6.7-2.4 33.6 91.9 13.9 5.8 27.1-65.4 6.6 2.7"/><g fill="#113C61"><path d="M399.1 903.62l5.07 2.1-6.5 15.7-5.08-2.1z"/><path d="M396.96 908.67L422 919.04l-2.65 6.37-25.03-10.34z"/></g></g><g><path fill="#4CA392" d="M124.8 548s8.4-30.4-3.6-39.2c-12-8.9-42.3-30.4-43.9-55.5-1.6-25.1 8.7-28.5 14-16.5 5.2 12 18.5 68.8 27.7 33.9 1.7-9.2-11.3-34.5-18.8-44.9-7.5-10.4-26.5-54.4-5.6-55.4 21-1.1 29.1 68.9 31.5 73.6 2.3 4.8 6.5 14.7 9.8-9.6 3.3-24.4-24.6-116.1 10.3-131.5 34.9-15.4 33.9 44.7 15 98.5-18.9 53.9-21.7 62.6-15.9 59.8 5.9-2.8 28.1-51.5 47.5-34.5s-30.1 46.5-44.7 61.7c-14.6 15.3-16.1 39-14.1 50.6 2 11.5-11.1 18.4-9.2 9z"/><path fill="none" stroke="#050505" stroke-width="2.25" stroke-miterlimit="10" d="M129.5 551.3s-.4-55.2 4.5-86.8c4.6-30.3 31.8-122.2 21.2-164.2M131.1 492s49.6-67.3 61.6-65.4m-62.2 70.5s-38 8.9-47.9-66.7m50.7 38.7s-33.2-46.4-41.9-98.3"/></g><g><path fill="#EF5F60" d="M375.1 525s-23.9-13.6-39 9c-15.2 22.6-3.4 42.4 21.5 50 25 7.6 46.4-2.6 47.9-16.7 1.5-14.2 10.7-35.7-30.4-42.3z"/><g fill="#026862"><path d="M376.9 527.7s9.9-5.1 10.3-4.2c.3.9-11 5.4-9.6 6.1 1.4.7 11.8 3 11.1 3.9-.7 1-10.6-3-10.5-2.1.1.9 5.6 11.5 4.8 11.7-.8.2-5.9-9.8-6.6-10.1-.7-.3 0 4.7 0 6.3 0 1.6.2 7.1-1 6.6s-.1-13.6-1.6-12.5c-1.4 1.1-12.3 13.9-10.2 9.5 2.1-4.4 10-9.5 7.9-10.1-2.1-.6-15.2-3-12.5-3.7 2.8-.7 13.2 2.6 12.4 1.2-.8-1.4-6.7-10.1-5.1-9.2 1.6.9 5.5 7.5 6 7.3.5-.3 3.1-9.3 3.5-9.3.4-.1-.7 7.1-1.2 8.6-.5 1.4 2.3 0 2.3 0z"/><path d="M375.6 546.7c-.1 0-.3 0-.4-.1-.9-.4-1-1.7-1.1-7 0-1.6-.1-3.9-.2-5.1-.6.6-1.7 1.8-2.7 2.9-5.4 5.9-6.7 7.1-7.5 7.1-.3 0-.5-.1-.7-.4-.3-.4-.1-.9.2-1.6 1.1-2.2 3.5-4.6 5.4-6.4 1-.9 2.2-2.2 2.6-2.8-.7-.2-1.9-.4-3.3-.8-8.8-1.9-9.8-2.4-9.8-3.3 0-.3.1-.7.9-.9.3-.1.7-.1 1.2-.1 1.7 0 4.3.5 6.6 1 1.4.3 2.8.5 3.7.6-.2-.4-.6-.9-.9-1.4-4.3-6.6-4.4-7.2-4-7.8.2-.4.7-.5 1.2-.2.9.5 2.2 2.3 3.9 4.7.5.7 1.1 1.6 1.5 2.1.4-1 1-2.8 1.4-4.1 1.5-4.5 1.6-4.6 2.1-4.7h.5l.2.3c.2.2.4.5-.2 4.4-.2 1.5-.5 3.4-.8 4.5.4-.1.8-.3 1.1-.5 1.4-.7 8.6-4.4 10.3-4.4.7 0 .9.4 1 .6.4 1-.8 1.7-5.1 3.8-1.3.7-3.1 1.6-4.1 2.2l2.9.8c6.1 1.7 7.6 2.2 7.9 3.1.1.3 0 .6-.1.8-.3.4-.9.4-1.1.4-1.2 0-3.5-.7-5.8-1.4-1.1-.3-2.4-.7-3.2-.9.4.8 1 2.1 1.5 3.3 3 6.4 3.3 7.4 3 8-.1.2-.3.4-.6.4h-.2c-.8 0-1.4-.9-4.5-6.2-.5-.9-1.2-2-1.6-2.8 0 .7.1 1.5.2 2.2.1.9.2 1.8.2 2.3v.5c0 3.5-.1 5.7-.9 6.5-.2.3-.5.4-.7.4zm-1.6-14.1c1.2 0 1.3 1.7 1.4 6.9 0 1.4.1 3.2.2 4.5.1-.8.1-2.1.1-4.1v-.5c0-.5-.1-1.3-.2-2.2-.3-3.1-.3-4.1.1-4.5.2-.3.6-.3.9-.2.5.2.9.8 3.1 4.6.2.3.3.6.5.9-.3-.7-.6-1.3-.9-1.9-1.5-3.2-1.9-4.1-1.9-4.5 0-.2.1-.4.2-.6.1-.2.3-.2.5-.3-.4-.1-.7-.2-.9-.3-.3-.2-.5-.5-.5-.8 0-.6.6-1.1 2.5-2.2-.7.3-1.4.7-2 1-.2.1-1.4.7-2.2.7-.5 0-.8-.2-1-.4-.2-.3-.2-.7-.1-1.2.2-.5.4-1.6.6-2.8-1.3 3.8-1.5 4.2-1.9 4.4l-.2.1h-.2c-.4 0-.7-.2-1.4-1.1.6.9 1.1 1.7 1.2 2 .2.3.2.6 0 .9-.3.5-.9.5-1.2.5-.9 0-2.6-.3-4.5-.7-1.5-.3-3.2-.6-4.6-.8 1.9.5 4.5 1.1 6.2 1.4 1.7.4 3.1.7 3.7.9.6.2.8.6.8.8.1.3 0 .5-.1.8.4-.4.7-.8.9-.9.6-.3.8-.4.9-.4zm-6.4 6.4c-.3.3-.7.7-1 1.1.4-.4.7-.7 1-1.1z"/></g></g><path fill="#365122" stroke="#365122" stroke-width="2.52" stroke-miterlimit="10" d="M141.1 204.7s5.5-11.9 18.4-16c13-4 8.5.4 15.7 0 7.2-.4 35.6-.5 18.4-11-1.6-.7.1-2.3 6.9-2.6 6.8-.3 12.9-12.4 14.7-13.9 1.8-1.5 23.5-21.9 19-25.7-4.5-3.7-9.7 1-18.6 12.7-8.9 11.7-22.5 26.2-19.5 16.2 2.9-10 1.1-16.8-4.2-7.6-5.3 9.1-13 25.3-17.9 24.2-4.9-1.1-2.2-2.6 1.2-5.5 3.3-2.9 6.7-6.6 1.8-7.6s-10.2 9-16.8 15.2c-6.6 6.2-18.6 16-17.7 13.8.9-2.2 8.3-20.5 10.4-30.3 2.2-9.8 8.6-28 14.8-29.4 6.3-1.4 8-8.4 3.6-9.1-4.4-.7-12.6 8.6-11.7 4.5.9-4.1 9.6-13 8.2-18.3-1.3-5.3-5-22.7-2.2-28.1 2.8-5.5-8-12.3-9.1.6-1 12.9 3.4 23.7.3 26.1-3.1 2.4-3.6-6.2-7.4-6.6-3.8-.4-9.6 2-6.3 13.6 3.3 11.5 10.9 25.2 7.4 23.9-3.5-1.3-1.6-7.3-6.5-8.3-4.9-1-3.7 7.5-1.3 19.8 2.3 12.3 9.6 11.8 0 35.6-.6 2.1-1.1 4.6-1.3.6-.2-4 .4-16.2-9.6-23.7-1.3-1.3 8.7-4.4 3.4-7.7-5.3-3.3-8.4 2.4-10.1-1.1-1.7-3.5 7.9-17-.5-17.2-8.4-.2-6.5 9.3-6.8 10.2-.3.9-3.1 3.3-21.3-20.4s-19.6-6.6-18.5-3c1.1 3.6 26.9 22 23.5 23.4-3.4 1.4-7.6 1.8-7.8 3.7-.3 1.9 14.7 2.9 15.6 7.5.9 4.5-2.3 3.8-4.2 5.4-1.8 1.5-5.4 9.5 3.6 6.2s19.3-11.5 28.2 9.5c.3 2 3.8 12 .2 18.7 1.6 1 4 1.7 4 1.7z"/><path fill="#4356A0" d="M141.4 202.9s-32.7-20.7-53.3 9.9c-20.7 30.5 3.9 48.9 3.9 56 .4 2.8.6 5.2.6 5.2s-.2-2.4 11.7 0c9 1.8 39.8 4.3 50.3-18.8 10.6-23.1 4.3-43.8-13.2-52.3z"/><g fill="#80B9AA"><path d="M299.6 3.8c-3.1 4.6-5.9 9.3-8.4 14-13.1 25-17.6 52.6-13.4 81.9 4.1 28.5 2.4 54-4.9 75.7-5.8 17.3-15.2 32.2-28 44.4-21.8 20.8-46.1 26.4-46.4 26.5l.9 3.9c1-.2 25.5-5.9 48.1-27.3 13.3-12.6 23.1-28.1 29.1-46 7.5-22.3 9.2-48.4 5.1-77.6-4.1-28.5.3-55.2 12.9-79.5 2.4-4.7 5.2-9.2 8.2-13.7"/><path fill-rule="evenodd" clip-rule="evenodd" d="M276.9 71.8c-5-1.1-10-1.9-15.1-2.6-5.2-.7-10.2.5-14.8 3-5 2.7-6.6 6.9-5.3 13 1 4.7 5.6 8.8 10.2 9.1 6.6.4 12-2.4 16.5-6.9 3.4-3.4 6.4-7.3 9.4-11.1m1 27.8c-5.1-.5-10.2-.6-15.3-.6-5.3 0-10 1.9-14.2 4.9-4.6 3.3-5.7 7.7-3.5 13.6 1.6 4.5 6.7 8 11.3 7.7 6.6-.5 11.6-4 15.5-9 2.9-3.8 5.4-8.1 7.9-12.3M278.2 84c3.1 3.1 6.1 6.4 9.2 9.5 3.8 3.7 8.3 6.4 13.7 7 6.3.8 11.9-2.7 13-9 1.2-6.3-.2-10.6-6.8-13.6-5.7-2.5-11.5-2.4-17.4-.8-3.6.9-7.1 2.1-10.7 3.1m2.7 35.8c2.9 3.3 5.6 6.8 8.5 10.1 3.5 4 7.8 7 13.1 8 6.2 1.3 12-1.8 13.7-8 1.6-6.2.6-10.6-5.7-14.1-5.5-3-11.3-3.2-17.3-2.2-3.7.7-7.2 1.6-10.9 2.3m7.4-91.8c-3.6-3.6-7.5-6.9-11.4-10.2-4.1-3.4-8.9-4.9-14.1-5.3-5.6-.4-9.3 2.4-11.4 8.2-1.6 4.5.1 10.4 3.9 13.1 5.4 3.8 11.5 4.3 17.6 2.9 4.7-1.1 9.3-2.8 13.9-4.5m-7.4 16.4c-4.9-1.3-9.9-2.3-14.9-3.2-5.2-.9-10.2.1-14.9 2.4-5.1 2.4-6.9 6.6-5.8 12.8.8 4.7 5.2 9 9.8 9.5 6.6.7 12.1-1.9 16.8-6.2 3.6-3.3 6.7-7 9.9-10.7m-2.9 4.2c2.3 4.6 4.9 8.9 7.6 13.3 2.8 4.5 6.9 7.5 11.7 9.5 5.2 2.2 9.6.7 13.4-4.2 3-3.8 3.3-9.9.6-13.7-3.9-5.3-9.5-7.8-15.8-8.4-4.8-.5-9.7-.3-14.6-.2m-2.9 95c-5.1-.6-10.2-.8-15.3-.9-5.3-.1-10 1.7-14.3 4.6-4.7 3.2-5.8 7.6-3.8 13.5 1.5 4.5 6.5 8.1 11.2 7.9 6.6-.4 11.7-3.7 15.6-8.7 3-3.8 5.5-8 8.1-12.1m-8.3 30.8c-5-1-10.1-1.7-15.1-2.2-5.2-.6-10.2.8-14.7 3.3-4.9 2.8-6.5 7.1-5 13.1 1.1 4.6 5.8 8.7 10.4 8.9 6.6.2 12-2.7 16.3-7.3 3.3-3.5 6.2-7.5 9.1-11.3M253.2 211c-4.1-3-8.4-5.7-12.8-8.4-4.5-2.7-9.5-3.6-14.7-3.2-5.6.4-8.8 3.7-10 9.8-.9 4.7 1.6 10.3 5.7 12.4 5.9 3 12 2.6 17.9.3 4.5-1.8 8.8-4.2 13.1-6.5m42-199.6c1.3 4.9 2.9 9.8 4.7 14.6 1.8 5 5.1 8.8 9.4 11.7 4.7 3.2 9.2 2.7 14-1.3 3.7-3.1 5.3-9 3.4-13.3-2.7-6-7.7-9.6-13.7-11.5-4.6-1.5-9.4-2.3-14.2-3.2"/><path fill-rule="evenodd" clip-rule="evenodd" d="M280.2 147.7c3.1 3.1 6.1 6.4 9.2 9.5 3.8 3.7 8.3 6.4 13.7 7 6.3.8 11.9-2.7 13-9 1.2-6.3-.2-10.6-6.8-13.6-5.7-2.5-11.5-2.4-17.4-.8-3.6.9-7.1 2.1-10.7 3.1m-4.7 24.5c1.8 4 3.3 8.2 5.1 12.2 2.2 4.9 5.5 8.9 10.2 11.5 5.6 3 12 1.8 15.4-3.7 3.4-5.5 3.7-10-1.4-15.1-4.4-4.4-9.9-6.4-15.9-7.1-3.7-.4-7.4-.6-11.1-1m-11.6 27.7c.3 4.4.4 8.8.7 13.2.4 5.3 2.1 10.3 5.7 14.3 4.2 4.7 10.7 5.7 15.7 1.8 5-4 6.8-8.2 3.8-14.7-2.6-5.6-7.1-9.3-12.5-12.1-3.3-1.7-6.8-3-10.1-4.7"/><path fill-rule="evenodd" clip-rule="evenodd" d="M267.2 192.9c.3 4.4.4 8.8.7 13.2.4 5.3 2.1 10.3 5.7 14.3 4.2 4.7 10.7 5.7 15.7 1.8 5-4 6.8-8.2 3.8-14.7-2.6-5.6-7.1-9.3-12.5-12.1-3.3-1.7-6.8-3-10.1-4.7M250 217c-.5 4.4-1.3 8.7-1.8 13.1-.6 5.3.2 10.5 2.9 15.1 3.3 5.4 9.5 7.6 15.1 4.7 5.7-3 8.2-6.7 6.5-13.7-1.5-6-5.3-10.5-10.1-14.2-2.9-2.3-6.1-4.3-9-6.5m-26.4 20c-2 3.9-4.4 7.7-6.4 11.6-2.5 4.7-3.7 9.8-2.8 15.1 1.1 6.3 6 10.6 12.4 9.8 6.4-.7 10.1-3.3 11-10.4.8-6.2-1.1-11.7-4.2-16.9-1.9-3.2-4.1-6.2-6-9.3"/><path fill-rule="evenodd" clip-rule="evenodd" d="M225.5 239c-4.4.6-8.7 1.4-13.1 2-5.3.7-10.5 0-15.1-2.7-5.5-3.2-7.8-9.4-4.9-15 2.9-5.7 6.6-8.3 13.6-6.7 6 1.4 10.6 5.1 14.3 9.9 2.3 2.9 4.3 6 6.6 8.9"/></g><g><path fill="#80B9AA" d="M202.1 779.8c1.1 2.8 2.1 7.5 0 13.7-3.5 10.1-1.2 21.7-1.2 21.7s-2.2 1-5.2-1.7c-4.6 23.2 4.9 25.3 2.2 26.9-2.7 1.6-8.4-1.2-7.9.6.5 1.8.8 6.1 1.8 12.1 10.6 40.7 64.3 43.8 64.3 43.8s32.5-42.9 8.4-77.4c-3.9-4.7-6.9-7.7-8-9.2-1.1-1.6-2.6 4.6-5.6 5.6-2.9 1 1.6-7.5-19-19.1.1 4-2.1 5-2.1 5s-7.3-9.2-17.3-13.1c-6.1-2.4-9-6.3-10.4-8.9z"/><path d="M210 794.8l29.2 63.3-7.6-58.9c.2-.7.3-1.5.3-2.5.4.2.8.5 1.3.7l8.5 66 6.9 15 6.1-67c.7-1.2 1.3-2 1.7-1.3 0 .1.1.1.1.2l-6.5 71.3 6.6 14.3c-.4.5-.6.8-.6.8s-.3 0-1-.1l-6.6-14.3-58.4-41.2v-.2c-.2-.8.8-.7 2.2-.5l54.9 38.8-6.9-15.1-44.7-49.3.3-1.4c.8.7 1.5 1.2 2.2 1.4l39.9 43.9-29.3-63.5"/></g><g><path fill="#EDEEE2" d="M117.9 797.7s-21.6 2.6-28.5 14.4c-6.9 11.8 28.3-11.5 29.4-12.5-.2-1-.9-1.9-.9-1.9zm.2-3.6v1.6s-26 5.9-32.9-4.3c-.7-1.2 1.2-2.6 6-2.2 12.5 1 22.2 2.5 26.9 4.9zm15.5 12.8l1.5-.4s12.5 23.5 4.5 32.9c-1 1-2.8-.5-3.7-5.2-2.4-12.4-3.5-22.2-2.3-27.3z"/><path fill="#EDEEE2" d="M119.5 800.9s-33.3 12.4-31 18c2.4 5.5 27.6-10.7 31-17v-1z"/><path fill="#EDEEE2" d="M122.5 804.9s-.1-1.2-2-.7c-1.8.5-24.4 16-24.4 22.2.1 6.1 23.2-8.9 26.4-21.5zm-4.4-12.1s-21.9-1.5-26.4-10.5c-.6-1.5 4.2-4.2 11.3 0 7.1 4.2 15.8 8.7 15.8 8.7l-.7 1.8z"/><path fill="#EDEEE2" d="M120.9 787.5l-.6.9s-30.7-10-30.7-15.9c.7-.9 2-1.2 2-1.2s18.1 1.8 29.3 16.2zm20.9 11.1l.3-1s32.3-.5 34.2 5.1c-.4 1.1-1.5 1.8-1.5 1.8s-17.7 4.1-33-5.9z"/><path fill="#EDEEE2" d="M124.4 784.8s-1 1.4-1.8.9c-.9-.5-23.5-17-22.5-25.9.4-2.1 3.6-1.7 5.3 0 1.5 1.7 18.2 16.5 19 25z"/><path fill="#EDEEE2" d="M125.2 784h1.7s.8-15.6-10.8-28.1c-1.2-1.4-3.2-3.6-4.8-2.8-1.6.7-1.2 7.8 13.9 30.9z"/><path fill="#EDEEE2" d="M130.9 783.4s6-17.7-1.8-31.2c-1-1.6-3.2-1.7-3.5 0-.2 1.7-3.6 17.1 3.8 31.2.7.4 1.5 0 1.5 0z"/><path fill="#EDEEE2" d="M133 784h1.5s19.3-23.7 13.1-32.4c-1.2-1.6-14.4 17-14.6 32.4zm-6.1 22.6s-14.6 27.5-10.4 32.2c0 0 2.1 3.7 6-3.8s7.9-23.3 6.4-27.1c-1.1-2-2-1.3-2-1.3zm14-18.3s22.7-18.1 25.9-18c1.2.2 1.1.9 1.1.9s1-.6 0 1.6-9.6 15.8-26 17.6c-.4-.7-1.7-.6-1-2.1z"/><path fill="#EDEEE2" d="M135.8 783.9s13.7-25.6 16.7-26.7c1.2-.3 1.4.4 1.4.4s.7-1 .6 1.5c0 2.4-2.6 18.3-16.9 26.5-.7-.7-1.8-.1-1.8-1.7zm6.7 10s19.5-4.6 32.3-2.5c2.2.9 0 3.2 0 3.2s-14.4 6.2-32.3.7c.1-.5 0-1.4 0-1.4z"/><path fill="#EDEEE2" d="M142.1 792.8s20 .2 32-4.7c2-1.3-.7-3.1-.7-3.1s-15.4-2.8-31.7 6.4c.3.5.4 1.4.4 1.4zm-1.2 7.6s7.8-.4 18.2 6c10.5 6.4 16.6 13.1 6.7 10.8-10-2.2-25.3-14.7-25.1-15.8l.2-1zm-14.8 4.9s.2 7.8-6.4 18.1c-6.6 10.3-13.4 16.4-11 6.4 2.4-9.9 15.1-25 16.3-24.8l1.1.3zm14.1-2.3s24.8 18.2 19.3 28.9c-1.2 1.8-3.4.4-9.8-9.2-6.4-9.7-11-18.4-11-18.4s-.1-1.3 1.5-1.3zm-8.7 4.2s-2.9 3.8-2.6 16.6c.3 12.8-.6 17.6 4.1 17.5 1.2-.5 6-7.5.6-33 0 0-.5-1.7-2.1-1.1zm3.8-.1s7.4 25.3 14.5 26.5c2.5-.1 2.5-1.5 1.6-3.5-.9-2-10.5-22.8-14.4-24.3-.8-.3-1.8.8-1.7 1.3zm4.8-18s27.8-22.2 23.8-26.7-22.9 18.8-24.1 25.8l.3.9z"/><g fill="#E2B522"><circle cx="130.6" cy="795.4" r="12.4"/><g><g><path d="M131.6 807.7c-.1-.6-.3-1-.5-1-.3 0-.5.5-.5 1 0 .6.2 1 .5 1 .3.1.5-.4.5-1z"/><path d="M132.5 807.6c-.1-.6-.4-1-.6-.9-.2 0-.4.5-.4 1 0 .6.3 1 .6 1s.5-.5.4-1.1z"/><path d="M133.4 807.5c-.1-.5-.4-.9-.7-.9-.2 0-.4.5-.3 1.1.1.6.4 1 .7.9.3-.1.4-.6.3-1.1zm.9-.3c-.2-.5-.5-.9-.7-.8-.2.1-.3.5-.2 1.1.1.5.5.9.7.9.2-.1.3-.6.2-1.2z"/></g><g><path d="M135.2 806.9c-.2-.5-.6-.9-.8-.8-.2.1-.3.6-.1 1.1.2.5.5.9.8.8.3-.1.3-.6.1-1.1z"/><path d="M136 806.5c-.2-.5-.6-.8-.9-.7-.2.1-.3.6-.1 1.1.2.5.6.9.9.7.4-.1.4-.6.1-1.1z"/><path d="M136.8 806.1c-.3-.5-.7-.8-.9-.6-.2.1-.2.6 0 1.1.2.5.6.8.9.7.3-.2.3-.7 0-1.2z"/><path d="M137.6 805.6c-.3-.5-.7-.7-1-.6-.2.1-.2.6.1 1.1.3.5.7.8 1 .6.3-.1.2-.6-.1-1.1z"/></g><g><path d="M138.4 805c-.4-.4-.8-.7-1-.5-.2.1-.1.6.2 1.1.3.5.8.7 1 .5.2-.1.1-.6-.2-1.1z"/><path d="M139.1 804.4c-.4-.4-.8-.6-1-.4-.2.2-.1.6.3 1.1.3.4.8.6 1 .4.2-.2.1-.7-.3-1.1z"/><path d="M139.7 803.8c-.4-.4-.9-.5-1.1-.4-.2.2 0 .6.3 1.1.4.4.9.6 1.1.4.3-.2.1-.7-.3-1.1z"/><path d="M140.3 803.1c-.4-.3-.9-.5-1.1-.3-.2.2 0 .7.4 1 .4.4.9.5 1.1.3.2-.2 0-.6-.4-1z"/></g><g><path d="M140.9 802.3c-.5-.3-1-.4-1.1-.2-.1.2.1.6.5 1 .4.3.9.4 1.1.2.2-.2 0-.7-.5-1z"/><path d="M141.4 801.5c-.5-.3-1-.3-1.1-.1-.1.2.1.6.6 1 .5.3 1 .4 1.1.1.1-.2-.2-.7-.6-1z"/><path d="M141.8 800.7c-.5-.2-1-.2-1.1 0-.1.2.2.6.6.9.5.3 1 .3 1.1 0 .2-.2-.1-.6-.6-.9z"/><path d="M142.1 799.9c-.5-.2-1-.2-1.1.1-.1.2.2.6.7.9.5.3 1 .2 1.1 0 .2-.4-.1-.8-.7-1z"/></g><g><path d="M142.5 799c-.5-.2-1-.1-1.1.1-.1.2.3.6.8.8.5.2 1 .1 1.1-.1.1-.3-.3-.7-.8-.8z"/><path d="M142.7 798.1c-.5-.1-1 0-1.1.2-.1.2.3.6.8.7.5.2 1 .1 1.1-.2.1-.3-.3-.6-.8-.7z"/><path d="M142.9 797.2c-.5-.1-1 .1-1.1.3 0 .2.3.5.9.7.5.1 1 0 1.1-.3 0-.3-.4-.6-.9-.7z"/><path d="M143 796.3c-.6 0-1 .1-1 .4 0 .2.4.5.9.6.6.1 1-.1 1.1-.4 0-.3-.5-.6-1-.6z"/></g><g><path d="M143 795.3c-.6 0-1 .2-1 .5s.4.5 1 .5 1-.2 1-.5-.4-.5-1-.5z"/><path d="M143 794.4c-.6 0-1 .3-1 .5s.5.5 1 .5c.6 0 1-.2 1-.5s-.5-.5-1-.5z"/><path d="M142.9 793.5c-.6.1-1 .4-.9.6 0 .2.5.4 1 .4.6 0 1-.3 1-.6-.1-.3-.6-.5-1.1-.4z"/><path d="M142.7 792.6c-.5.1-.9.4-.9.7 0 .2.5.4 1.1.3.6-.1 1-.4.9-.7-.1-.3-.6-.4-1.1-.3z"/></g><g><path d="M142.4 791.7c-.5.2-.9.5-.8.7.1.2.5.3 1.1.2.5-.1.9-.5.9-.8-.1-.2-.6-.3-1.2-.1zm-.3-.9c-.5.2-.9.6-.8.8.1.2.6.3 1.1.1.5-.2.9-.5.8-.8 0-.2-.6-.3-1.1-.1z"/><path d="M141.8 790c-.5.2-.8.6-.7.9.1.2.6.3 1.1.1.5-.2.9-.6.7-.9-.1-.3-.6-.4-1.1-.1z"/><path d="M141.3 789.2c-.5.3-.8.7-.7.9.1.2.6.2 1.1 0 .5-.2.8-.6.7-.9-.1-.3-.6-.3-1.1 0z"/></g><g><path d="M140.8 788.3c-.2.2-.4.3-.5.5-.1.2-.1.3-.1.4.1.2.6.2 1.1-.1.5-.3.8-.7.6-1-.1-.1-.2-.2-.5-.2-.1.2-.4.3-.6.4z"/><path d="M140.3 787.6c-.4.4-.7.8-.5 1 .1.2.6.1 1.1-.2.5-.3.7-.8.5-1-.2-.2-.7-.1-1.1.2z"/><path d="M139.7 786.9c-.2.2-.4.4-.4.6-.1.2-.1.3 0 .4.2.2.6.1 1.1-.3.4-.3.6-.8.4-1-.1-.1-.3-.1-.5-.1-.2.1-.4.2-.6.4z"/><path d="M139 786.3c-.4.4-.5.9-.4 1.1.2.2.7 0 1.1-.3.4-.4.6-.9.4-1.1-.2-.3-.7-.1-1.1.3z"/></g><g><path d="M138.3 785.6c-.3.4-.5.9-.3 1.1.1.1.3.1.4 0 .2-.1.4-.2.6-.4.2-.2.3-.4.4-.6.1-.2 0-.4-.1-.5-.2-.2-.7 0-1 .4z"/><path d="M137.5 785.1c-.3.5-.4 1-.2 1.1.2.1.6-.1 1-.5.3-.4.4-.9.2-1.1-.2-.2-.6 0-1 .5z"/><path d="M136.8 784.6c-.3.5-.3 1-.1 1.1.2.1.6-.1 1-.6.3-.5.4-1 .1-1.1-.3-.1-.8.1-1 .6z"/><path d="M136 784.2c-.2.5-.2 1 0 1.1.2.1.6-.2.9-.6.3-.5.3-1 0-1.1-.3-.2-.7.1-.9.6z"/></g><g><path d="M135.1 783.8c-.2.5-.2 1 .1 1.1.2.1.6-.2.9-.7.2-.5.2-1-.1-1.1-.4-.2-.7.2-.9.7z"/><path d="M134.2 783.5c-.2.5-.1 1 .1 1.1.2.1.6-.3.8-.8.2-.5.2-1-.1-1.1-.3-.1-.6.3-.8.8z"/><path d="M133.3 783.3c-.1.5 0 1 .2 1.1.2.1.6-.3.7-.8.2-.5.1-1-.2-1.1-.2-.2-.6.2-.7.8z"/><path d="M132.4 783.1c-.1.5.1 1 .3 1.1.2 0 .5-.3.7-.9.1-.5 0-1-.3-1.1-.3 0-.6.4-.7.9z"/></g><g><path d="M131.4 783c0 .6.1 1 .4 1 .2 0 .5-.4.6-.9.1-.5-.1-1-.4-1.1-.2 0-.5.5-.6 1z"/><path d="M130.5 783c0 .6.2 1 .5 1s.5-.4.5-1c0-.5-.2-1-.5-1-.2 0-.5.4-.5 1z"/><path d="M129.6 783c0 .6.3 1 .5 1 .3 0 .5-.5.5-1 0-.6-.2-1-.5-1s-.5.5-.5 1z"/><path d="M128.7 783.1c.1.6.4 1 .6.9.2 0 .4-.5.4-1 0-.6-.3-1-.6-1-.3.1-.4.6-.4 1.1z"/></g><g><path d="M127.8 783.3c.1.5.4.9.7.9.2 0 .4-.5.3-1.1-.1-.6-.4-1-.7-.9-.3.1-.5.6-.3 1.1z"/><path d="M126.9 783.5c.2.5.5.9.7.8.2-.1.3-.5.2-1.1-.1-.5-.5-.9-.8-.9-.2.2-.3.7-.1 1.2z"/><path d="M126 783.8c.2.5.6.9.8.8.2-.1.3-.6.1-1.1-.2-.5-.5-.9-.8-.8-.2.1-.3.6-.1 1.1z"/><path d="M125.2 784.2c.2.5.6.8.9.7.2-.1.3-.6.1-1.1-.2-.5-.6-.9-.9-.7-.3.1-.3.6-.1 1.1z"/></g><g><path d="M124.3 784.7c.3.5.7.8.9.6.2-.1.2-.6 0-1.1-.2-.5-.7-.8-.9-.7-.3.2-.3.7 0 1.2z"/><path d="M123.6 785.2c.3.5.7.7 1 .6.2-.1.2-.6-.1-1.1-.3-.5-.7-.8-1-.6-.3.1-.3.6.1 1.1z"/><path d="M122.8 785.7c.4.4.8.7 1 .5.2-.1.1-.6-.2-1.1s-.8-.7-1-.5c-.2.2-.1.7.2 1.1z"/><path d="M122.2 786.3c.2.2.4.4.6.4.2.1.3.1.4 0 .2-.2.1-.6-.3-1.1-.3-.4-.8-.6-1-.4-.1.1-.1.3-.1.5s.2.4.4.6z"/></g><g><path d="M121.5 787c.4.4.9.5 1.1.3.2-.2 0-.6-.4-1.1-.4-.4-.9-.6-1.1-.4-.2.3-.1.8.4 1.2z"/><path d="M120.9 787.7c.4.3.9.5 1.1.3.1-.1.1-.3 0-.4-.1-.2-.2-.4-.4-.6-.2-.2-.4-.3-.6-.4-.2-.1-.4 0-.5.1-.3.2-.1.7.4 1z"/><path d="M120.3 788.4c.5.3 1 .4 1.1.2.2-.2-.1-.6-.5-1s-.9-.4-1.1-.2c-.2.3.1.7.5 1z"/><path d="M119.9 789.2c.5.3 1 .3 1.1.1.1-.1 0-.3-.1-.4-.1-.2-.3-.4-.5-.5-.2-.2-.5-.3-.7-.3-.2 0-.4 0-.5.2-.1.2.2.6.7.9z"/></g><g><path d="M119.4 790.1c.5.2 1 .2 1.1 0 .1-.2-.2-.6-.6-.9-.5-.3-1-.3-1.1 0-.2.2.1.6.6.9z"/><path d="M119 790.9c.5.2 1 .2 1.1-.1.1-.2-.2-.6-.7-.9-.5-.2-1-.2-1.1.1-.1.3.2.7.7.9z"/><path d="M118.7 791.8c.5.2 1 .1 1.1-.1.1-.2-.3-.6-.8-.8-.5-.2-1-.2-1.1.1-.1.2.3.6.8.8z"/><path d="M118.5 792.6c.5.1 1 0 1.1-.2.1-.2-.3-.6-.8-.7-.5-.2-1-.1-1.1.2-.1.3.3.6.8.7z"/></g><g><path d="M118.3 793.6c.5.1 1-.1 1.1-.3 0-.2-.3-.5-.9-.7-.5-.1-1 0-1.1.3 0 .3.4.6.9.7z"/><path d="M118.2 794.5c.6 0 1-.1 1-.4 0-.2-.4-.5-.9-.6-.5-.1-1 .1-1.1.4 0 .3.5.6 1 .6z"/><path d="M118.2 795.4c.6 0 1-.2 1-.5s-.4-.5-1-.5-1 .2-1 .5.4.5 1 .5z"/><path d="M118.2 796.3c.6 0 1-.3 1-.5 0-.3-.5-.5-1-.5-.6 0-1 .2-1 .5s.5.6 1 .5z"/></g><g><path d="M118.3 797.3c.5-.1 1-.4.9-.6 0-.2-.5-.4-1-.4-.6 0-1 .3-1 .6.1.3.6.5 1.1.4z"/><path d="M118.5 798.2c.5-.1.9-.4.9-.7 0-.2-.5-.4-1.1-.3-.6.1-1 .4-.9.7.1.3.6.4 1.1.3z"/><path d="M118.7 799.1c.5-.2.9-.5.8-.7-.1-.2-.5-.3-1.1-.2-.5.1-.9.5-.9.7.2.2.7.3 1.2.2z"/><path d="M119 799.9c.5-.2.9-.6.8-.8-.1-.2-.6-.3-1.1-.1-.5.2-.9.5-.8.8.1.3.6.3 1.1.1z"/></g><g><path d="M119.5 800.8c.5-.2.8-.6.7-.9-.1-.2-.6-.3-1.1-.1-.5.2-.9.6-.7.9 0 .4.5.4 1.1.1z"/><path d="M119.9 801.6c.5-.3.8-.7.6-.9-.1-.2-.6-.2-1.1 0-.5.2-.8.6-.7.9.2.3.7.3 1.2 0z"/><path d="M120.4 802.4c.5-.3.7-.7.6-1-.1-.2-.6-.2-1.1.1-.5.3-.8.7-.6 1 .1.3.6.2 1.1-.1z"/><path d="M120.9 803.1c.4-.4.7-.8.5-1-.1-.2-.6-.1-1.1.2-.5.3-.7.8-.5 1 .2.3.7.2 1.1-.2z"/></g><g><path d="M121.6 803.9c.4-.4.6-.8.4-1-.2-.2-.6-.1-1.1.3-.4.3-.6.8-.4 1 .2.2.7.1 1.1-.3z"/><path d="M122.2 804.5c.4-.4.5-.9.3-1.1-.2-.2-.6 0-1.1.4-.4.4-.6.9-.4 1.1.3.2.8 0 1.2-.4z"/><path d="M122.9 805.1c.3-.4.5-.9.3-1.1-.2-.2-.7 0-1 .4-.4.4-.5.9-.3 1.1.2.2.6 0 1-.4z"/><path d="M123.6 805.6c.3-.5.4-1 .2-1.1-.2-.2-.6.1-1 .5s-.4.9-.2 1.1c.2.2.7 0 1-.5z"/></g><g><path d="M124.5 806.2c.3-.5.3-1 .1-1.1-.2-.1-.6.1-1 .6-.3.5-.4 1-.1 1.1.2.1.7-.2 1-.6z"/><path d="M125.3 806.6c.2-.5.2-1 0-1.1-.2-.1-.6.2-.9.6-.3.5-.3 1 0 1.1.2.2.6-.1.9-.6z"/><path d="M126.1 806.9c.2-.5.2-1-.1-1.1-.2-.1-.6.2-.9.7-.2.5-.2 1 .1 1.1.3.2.7-.1.9-.7z"/><path d="M126.9 807.2c.2-.5.1-1-.1-1.1-.2-.1-.6.3-.8.8-.2.5-.2 1 .1 1.1.3.1.7-.2.8-.8z"/></g><g><path d="M127.9 807.5c.1-.5 0-1-.2-1.1-.2-.1-.6.3-.7.8-.2.5-.1 1 .2 1.1.3.1.6-.3.7-.8z"/><path d="M128.8 807.7c.1-.5-.1-1-.3-1.1-.2 0-.5.3-.7.9-.1.5 0 1 .3 1.1.3 0 .6-.4.7-.9z"/><path d="M129.7 807.8c0-.6-.1-1-.4-1-.2 0-.5.4-.6.9-.1.6.1 1 .4 1.1.3 0 .6-.5.6-1z"/><path d="M130.6 807.8c0-.6-.2-1-.5-1s-.5.4-.5 1 .2 1 .5 1 .5-.5.5-1z"/></g></g></g></g><path fill="#8CB279" d="M81.8 1052.5s.3-.2 1.3-.2c1-.1 1.5.1 1.5.1s-2.2-4.4-1.8-10.4c.2-2.3.6-2.8.6-2.8s1.5-.4 3.6.5c0 0-.7-2.8-.6-5.9.1-3.1 1.5-6 1.5-6s1.8-.2 2.8.6c1 .9-1-1.2.1-6.1 1.1-4.9 3.6-7.6 3.6-7.6s1.7-.3 3.2.4c0 0-.6-2.5 1.6-6.9 2-4.1 5.9-6.8 6.4-7.1.5.2 4.7 2.4 7.3 6.2 2.7 4 2.5 6.6 2.5 6.6 1.4-.9 3.1-.8 3.1-.8s2.8 2.3 4.6 7c1.8 4.7.1 7 .9 6 .9-1 2.7-1 2.7-1s1.8 2.6 2.3 5.7c.5 3.1.2 6 .2 6 1.9-1.2 3.5-1 3.5-1s.5.4 1 2.7c1.2 5.8-.3 10.5-.3 10.5s.5-.2 1.5-.3c1-.1 1.3.1 1.3.1s.5.1.4 3.3c-.2 3.2-3 9.4-3 9.4 2 .1 3.7-.5 3.2 1.9-1.6 7.8-5 15.3-9.5 21.9-2 3-4.3 5.8-6.9 8.4-1.3 1.3-2.8 3-4.4 4.4-.1-3.1-.1-4-.1-5-.8-11.2-2.9-17.6-5.8-24-2 6.8-3.2 13.4-2.4 24.6l.5 4.9c-1.8-1.2-3.5-2.6-4.9-3.7-2.8-2.2-5.5-4.7-7.9-7.4-5.3-5.9-9.8-12.8-12.4-20.3-.8-2.3 1-1.9 2.9-2.3 0 0-3.6-5.7-4.2-8.9-.4-3.3.1-3.5.1-3.5"/><g><path fill="#EDEEE2" d="M42.6 60.7S15.2 65.3 7.1 80.8C-1 96.2 42.6 64.3 43.9 63c-.3-1.3-1.3-2.3-1.3-2.3zm.1-4.6l.1 2S10 67.2.6 54.6c-1-1.5 1.4-3.4 7.6-3.2 15.8.5 28.3 1.8 34.5 4.7zm20.4 15.3l1.9-.6s17.4 29.3 7.7 41.7c-1.2 1.4-3.6-.5-5.1-6.5C64 90.5 62 78.1 63.1 71.4z"/><path fill="#EDEEE2" d="M44.8 64.7S3 82.6 6.4 89.5C9.7 96.4 41 74.1 44.9 65.9l-.1-1.2z"/><path fill="#EDEEE2" d="M49 69.5s-.2-1.6-2.6-.8c-2.3.7-30.2 21.9-29.8 29.7.4 7.9 29-12.5 32.4-28.9zm-6.4-15.1s-28.1-.6-34.3-11.8c-.9-1.9 5.1-5.6 14.5-.7 9.4 4.9 20.6 10.2 20.6 10.2l-.8 2.3z"/><path fill="#EDEEE2" d="M45.9 47.4l-.7 1.1S5.5 37.6 5.1 30c.9-1 2.5-1.6 2.5-1.6s23.1 1.3 38.3 19zm27.3 13l.3-1.3s41.1-2.5 43.9 4.5c-.5 1.4-1.8 2.4-1.8 2.4s-22.3 6.3-42.4-5.6z"/><path fill="#EDEEE2" d="M50.1 43.8s-1.2 1.8-2.3 1.2c-1.1-.6-31-20.3-30.3-31.7.3-2.7 4.5-2.4 6.7-.3s24.5 20 25.9 30.8z"/><path fill="#EDEEE2" d="M51.2 42.8l2.2-.1s.1-20-15.5-35.2c-1.7-1.7-4.3-4.4-6.3-3.3-2 1-1.1 9.9 19.6 38.6z"/><path fill="#EDEEE2" d="M58.4 41.7S65 18.7 54.2 2c-1.4-2-4.2-2-4.4.2-.2 2.2-3.5 22.1 6.6 39.5.9.5 2 0 2 0z"/><path fill="#EDEEE2" d="M61.1 42.3l1.9-.1S86.3 10.9 77.7.1c-1.5-2-17.2 22.5-16.6 42.2zm-6.4 29.1s-17 35.9-11.4 41.6c0 0 2.9 4.6 7.5-5.2s8.7-30.2 6.5-35c-1.5-2.3-2.6-1.4-2.6-1.4zm16.7-24.1s27.8-24.4 31.9-24.5c1.6.2 1.5 1 1.5 1s1.2-.8.1 2c-1.1 2.9-11.3 20.7-32.1 24-.5-.8-2.2-.5-1.4-2.5z"/><path fill="#EDEEE2" d="M64.6 41.9S80.5 8.4 84.3 6.8c1.5-.4 1.7.4 1.7.4s.8-1.3.9 1.8c.1 3.1-2.2 23.5-20 34.8-.8-.7-2.2.2-2.3-1.9zm9.2 12.4s24.6-7 41-5.1c2.9 1 .2 4.1.2 4.1S97 62 73.9 56.2c.1-.8-.1-1.9-.1-1.9z"/><path fill="#EDEEE2" d="M73.2 53s25.5-1 40.6-7.9c2.4-1.8-1.1-3.9-1.1-3.9s-19.8-2.7-40 10c.3.7.5 1.8.5 1.8zm-1.1 9.8s9.9-.9 23.6 6.6c13.7 7.5 22 15.7 9.1 13.4-12.8-2.2-33-17.2-32.9-18.6l.2-1.4zm-18.5 7.1s.7 9.9-7.1 23.5-16.1 21.7-13.6 8.9c2.5-12.8 17.8-32.8 19.3-32.6l1.4.2z"/><path fill="#EDEEE2" d="M71.4 66s32.7 21.7 26.3 35.7c-1.4 2.4-4.3.8-13-11.2S69.5 67.7 69.5 67.7s-.1-1.5 1.9-1.7zm-10.8 6s-3.5 5-2.4 21.4c1.1 16.3.3 22.5 6.3 22.1 1.6-.7 7.3-9.9-1.2-42.2 0-.1-.7-2.2-2.7-1.3zm4.8-.4s10.9 31.8 20.1 32.9c3.2-.3 3.1-2 1.8-4.5-1.2-2.5-14.7-28.5-19.8-30.1-1.1-.4-2.3 1-2.1 1.7zm5-23.2s34.2-29.9 28.8-35.5C93.9 7.4 71.1 38.2 70 47.2l.4 1.2z"/><g fill="#E2B522"><circle cx="58.7" cy="56.9" r="15.8"/><g><g><path d="M60.7 72.6c-.1-.7-.4-1.2-.8-1.2-.3 0-.6.6-.5 1.3 0 .7.4 1.3.8 1.2.4.1.6-.6.5-1.3z"/><path d="M61.8 72.5c-.1-.7-.5-1.2-.8-1.2-.3.1-.5.6-.4 1.4.1.7.5 1.3.8 1.2.4-.1.6-.7.4-1.4z"/><path d="M62.9 72.2c-.2-.7-.6-1.2-.9-1.1-.3.1-.5.7-.3 1.4.1.7.5 1.2.9 1.1.4-.1.5-.7.3-1.4z"/><path d="M64 71.8c-.2-.7-.7-1.1-1-1-.3.1-.4.7-.2 1.4s.6 1.2 1 1.1c.4-.1.5-.8.2-1.5z"/></g><g><path d="M65.2 71.4c-.3-.6-.8-1.1-1.1-.9-.3.1-.3.8-.1 1.4.2.7.7 1.1 1.1 1 .4-.2.4-.9.1-1.5zm1.1-.6c-.3-.6-.9-1-1.1-.9-.3.1-.3.8 0 1.4.3.6.8 1.1 1.2.9.2-.1.2-.7-.1-1.4z"/><path d="M67.3 70.3c-.4-.6-.9-.9-1.2-.8-.3.2-.2.8.1 1.4.3.6.9 1 1.2.8.3-.2.2-.9-.1-1.4z"/><path d="M68.2 69.6c-.4-.6-1-.9-1.3-.7-.3.2-.2.8.2 1.4.4.6 1 .9 1.3.7.3-.2.2-.8-.2-1.4z"/></g><g><path d="M69.2 68.8c-.5-.5-1.1-.8-1.3-.6-.3.2-.1.8.3 1.4.4.6 1 .8 1.3.6.3-.3.2-.9-.3-1.4z"/><path d="M70 68c-.5-.5-1.1-.7-1.3-.5-.2.2-.1.8.4 1.4.5.5 1.1.8 1.4.5.2-.3 0-.9-.5-1.4z"/><path d="M70.8 67.1c-.5-.5-1.2-.6-1.4-.4-.2.2 0 .8.5 1.3s1.1.7 1.4.4c.3-.2 0-.8-.5-1.3z"/><path d="M71.5 66.2c-.6-.4-1.2-.5-1.4-.3-.2.3.1.8.6 1.3s1.2.6 1.4.3c.3-.3 0-.9-.6-1.3z"/></g><g><path d="M72.2 65.2c-.6-.4-1.2-.4-1.4-.2-.2.3.1.8.7 1.2.6.4 1.2.5 1.4.2.3-.3-.1-.9-.7-1.2z"/><path d="M72.8 64.2c-.6-.3-1.3-.3-1.4-.1-.2.3.2.8.8 1.2.6.4 1.3.4 1.4.1.2-.4-.2-.9-.8-1.2z"/><path d="M73.3 63.1c-.7-.3-1.3-.3-1.4 0-.1.3.2.8.9 1.1.6.3 1.3.3 1.5 0 0-.3-.4-.8-1-1.1z"/><path d="M73.7 62c-.7-.2-1.3-.2-1.4.1-.1.3.3.8 1 1.1.7.3 1.3.2 1.4-.1.1-.4-.4-.8-1-1.1z"/></g><g><path d="M74 60.8c-.7-.2-1.3-.1-1.4.3-.1.3.4.7 1 1 .7.2 1.3.1 1.4-.2.2-.5-.3-.9-1-1.1z"/><path d="M74.3 59.7c-.7-.1-1.3 0-1.4.4-.1.3.4.7 1.1.9.7.2 1.3 0 1.4-.4.1-.4-.4-.8-1.1-.9z"/><path d="M74.4 58.5c-.7-.1-1.3.1-1.4.5 0 .3.5.7 1.2.8.7.1 1.3-.1 1.4-.5.1-.3-.4-.7-1.2-.8z"/><path d="M74.5 57.4c-.7 0-1.3.2-1.3.6 0 .3.5.6 1.2.7.7.1 1.3-.2 1.3-.6.1-.4-.5-.7-1.2-.7z"/></g><g><path d="M74.5 56.1c-.7 0-1.3.3-1.3.7 0 .3.6.6 1.3.6.7 0 1.3-.3 1.3-.7 0-.4-.6-.6-1.3-.6z"/><path d="M74.4 55c-.7.1-1.2.4-1.2.7 0 .3.6.6 1.3.5.7 0 1.3-.4 1.2-.7 0-.4-.6-.6-1.3-.5zm-.2-1.2c-.7.1-1.2.5-1.2.8.1.3.6.5 1.4.4.7-.1 1.2-.5 1.2-.8-.1-.3-.7-.5-1.4-.4z"/><path d="M73.9 52.7c-.7.2-1.2.6-1.1.9.1.3.7.5 1.4.3.7-.1 1.2-.5 1.1-.9 0-.4-.7-.5-1.4-.3z"/></g><g><path d="M73.6 51.5c-.7.2-1.1.7-1 1 .1.3.7.4 1.4.2s1.2-.6 1-1c-.1-.4-.8-.5-1.4-.2z"/><path d="M73.1 50.4c-.7.3-1.1.8-.9 1.1.1.3.8.4 1.4.1.7-.2 1.1-.7 1-1.1-.2-.3-.8-.4-1.5-.1z"/><path d="M72.6 49.4c-.6.3-1 .9-.9 1.1.1.3.8.3 1.4 0 .7-.3 1.1-.8.9-1.2-.1-.3-.8-.3-1.4.1z"/><path d="M72 48.4c-.6.4-.9.9-.8 1.2.2.3.8.2 1.4-.1.6-.3 1-.9.8-1.2-.1-.4-.8-.3-1.4.1z"/></g><g><path d="M71.3 47.3c-.3.2-.5.5-.6.7-.1.2-.2.4-.1.6.2.3.8.2 1.4-.2.6-.4.9-1 .7-1.3-.1-.2-.3-.2-.6-.2-.2.1-.5.2-.8.4z"/><path d="M70.5 46.4c-.5.5-.8 1.1-.6 1.3.2.3.8.1 1.4-.3.6-.4.8-1 .6-1.3-.2-.3-.8-.1-1.4.3z"/><path d="M69.8 45.6c-.2.3-.4.5-.5.8-.1.2-.1.5 0 .6.2.2.8.1 1.4-.4.5-.5.8-1.1.5-1.4-.2-.2-.4-.2-.7-.1-.2.1-.5.3-.7.5z"/><path d="M68.9 44.8c-.5.6-.6 1.2-.4 1.4.2.2.8 0 1.3-.5s.7-1.1.4-1.4c-.2-.3-.8 0-1.3.5z"/></g><g><path d="M67.9 44c-.4.6-.5 1.2-.3 1.4.1.1.3.1.6 0 .2-.1.5-.3.7-.6.2-.3.4-.6.4-.8.1-.3 0-.5-.1-.6-.3-.2-.9.1-1.3.6z"/><path d="M66.9 43.4c-.4.6-.4 1.2-.2 1.4.3.2.8-.1 1.2-.7.4-.6.5-1.2.2-1.4-.2-.2-.8.1-1.2.7z"/><path d="M65.9 42.8c-.3.6-.3 1.3-.1 1.4.3.2.8-.2 1.2-.8.4-.6.4-1.3.1-1.4-.3-.2-.9.2-1.2.8z"/><path d="M64.9 42.4c-.3.7-.3 1.3 0 1.4.3.1.8-.2 1.1-.9.3-.6.3-1.3 0-1.4-.3-.2-.8.2-1.1.9z"/></g><g><path d="M63.7 41.9c-.2.7-.1 1.3.1 1.4.3.1.8-.3 1.1-1 .3-.7.2-1.3-.1-1.4-.4-.1-.9.3-1.1 1z"/><path d="M62.6 41.6c-.2.7-.1 1.3.3 1.4.3.1.7-.4 1-1 .2-.7.1-1.3-.2-1.4-.5-.2-1 .3-1.1 1z"/><path d="M61.4 41.3c-.1.7 0 1.3.4 1.4.3.1.7-.4.9-1.1.2-.7 0-1.3-.3-1.4-.4-.1-.8.4-1 1.1z"/><path d="M60.3 41.2c-.1.7.1 1.3.5 1.4.3 0 .7-.5.8-1.2.1-.7-.1-1.3-.4-1.4-.5-.1-.8.5-.9 1.2z"/></g><g><path d="M59 41.1c0 .7.2 1.3.6 1.3.3 0 .6-.5.7-1.2.1-.7-.2-1.3-.6-1.3-.3-.1-.7.5-.7 1.2z"/><path d="M57.9 41.1c0 .7.3 1.3.7 1.3.3 0 .6-.6.6-1.3 0-.7-.3-1.3-.7-1.3-.4 0-.7.6-.6 1.3z"/><path d="M56.7 41.2c.1.7.4 1.2.7 1.2.3 0 .6-.6.5-1.3 0-.7-.4-1.3-.7-1.2-.3 0-.6.6-.5 1.3z"/><path d="M55.6 41.4c.1.7.5 1.2.8 1.2.3 0 .5-.6.4-1.4 0-.7-.4-1.2-.8-1.2-.4.1-.6.7-.4 1.4z"/></g><g><path d="M54.3 41.7c.2.7.6 1.2.9 1.1.3-.1.5-.7.3-1.4-.1-.7-.5-1.2-.9-1.1-.3.1-.5.7-.3 1.4z"/><path d="M53.2 42c.2.7.7 1.1 1 1 .3-.1.4-.7.2-1.4s-.6-1.2-1-1c-.3.1-.4.8-.2 1.4z"/><path d="M52.2 42.5c.3.7.8 1.1 1.1.9.3-.1.4-.8.1-1.4-.2-.7-.7-1.1-1.1-1-.4.2-.4.8-.1 1.5z"/><path d="M51.1 43c.3.6.9 1 1.1.9.3-.1.3-.8 0-1.4-.3-.6-.8-1.1-1.1-.9-.3.1-.3.8 0 1.4z"/></g><g><path d="M50 43.7c.4.6.9.9 1.2.8.3-.2.2-.8-.1-1.4-.3-.6-.9-1-1.2-.8-.3.1-.2.8.1 1.4z"/><path d="M49.1 44.3c.4.6 1 .9 1.3.7.3-.2.2-.8-.2-1.4-.4-.6-1-.9-1.3-.7-.3.2-.2.9.2 1.4z"/><path d="M48.2 45c.5.5 1.1.8 1.3.6.3-.2.1-.8-.3-1.4-.4-.6-1-.8-1.3-.6-.3.3-.2.9.3 1.4z"/><path d="M47.4 45.8c.3.3.5.4.8.5.2.1.5.1.6 0 .2-.2.1-.8-.4-1.4-.5-.5-1.1-.8-1.4-.5-.1.1-.2.4-.1.6 0 .3.2.6.5.8z"/></g><g><path d="M46.5 46.8c.6.5 1.2.6 1.4.4.2-.2 0-.8-.5-1.3s-1.1-.7-1.4-.4c-.3.2 0 .8.5 1.3z"/><path d="M45.8 47.7c.6.4 1.2.5 1.4.3.1-.1.1-.3 0-.6-.1-.2-.3-.5-.6-.7-.3-.2-.6-.4-.8-.4-.3-.1-.5 0-.6.1-.3.3 0 .9.6 1.3z"/><path d="M45.2 48.7c.6.4 1.2.5 1.4.2.2-.3-.1-.8-.7-1.2-.6-.4-1.2-.5-1.4-.2-.3.2.1.8.7 1.2z"/><path d="M44.6 49.7c.6.3 1.3.4 1.4.1.1-.1 0-.3-.1-.6-.1-.2-.4-.4-.7-.6-.3-.2-.6-.3-.9-.3-.3 0-.5.1-.6.2-.1.3.3.8.9 1.2z"/></g><g><path d="M44.1 50.8c.7.3 1.3.3 1.4 0 .1-.3-.2-.8-.9-1.1-.6-.3-1.3-.3-1.5 0-.1.3.3.9 1 1.1z"/><path d="M43.7 51.9c.7.2 1.3.2 1.4-.1.1-.3-.3-.8-1-1.1-.7-.3-1.3-.2-1.4.1-.2.4.3.9 1 1.1z"/><path d="M43.3 53c.7.2 1.3.1 1.4-.2.1-.3-.4-.7-1-1-.7-.2-1.3-.1-1.4.2-.1.4.3.8 1 1z"/><path d="M43.1 54.1c.7.1 1.3 0 1.4-.4.1-.3-.4-.7-1.1-.9-.7-.2-1.3 0-1.4.3-.1.5.4.9 1.1 1z"/></g><g><path d="M42.9 55.4c.7.1 1.3-.1 1.4-.5 0-.3-.5-.7-1.2-.8-.7-.1-1.3.1-1.4.5 0 .4.5.7 1.2.8z"/><path d="M42.8 56.6c.7 0 1.3-.2 1.3-.6 0-.3-.5-.6-1.2-.7-.7-.1-1.3.2-1.3.6 0 .3.5.6 1.2.7z"/><path d="M42.9 57.7c.7 0 1.3-.3 1.3-.7 0-.3-.6-.6-1.3-.6-.7 0-1.3.3-1.3.7 0 .4.5.6 1.3.6z"/><path d="M43 58.9c.7-.1 1.2-.4 1.2-.7 0-.3-.6-.6-1.3-.5-.7 0-1.3.4-1.2.7-.1.3.6.5 1.3.5z"/></g><g><path d="M43.2 60.1c.7-.1 1.2-.5 1.2-.8-.1-.3-.7-.5-1.4-.4-.7.1-1.3.5-1.2.8 0 .4.7.6 1.4.4z"/><path d="M43.4 61.2c.7-.2 1.2-.6 1.1-.9-.1-.3-.7-.5-1.4-.3-.7.1-1.2.5-1.1.9.1.4.8.5 1.4.3z"/><path d="M43.8 62.3c.7-.2 1.1-.7 1-1-.1-.3-.7-.4-1.4-.2s-1.2.6-1 1c.1.4.7.5 1.4.2z"/><path d="M44.2 63.4c.7-.3 1.1-.8.9-1.1-.1-.3-.7-.3-1.4-.1-.7.2-1.1.7-1 1.1.2.4.9.4 1.5.1z"/></g><g><path d="M44.8 64.6c.6-.3 1-.9.9-1.1-.2-.3-.8-.3-1.4 0-.6.3-1.1.8-.9 1.2.1.2.8.2 1.4-.1z"/><path d="M45.4 65.5c.6-.4.9-.9.8-1.2-.2-.3-.8-.2-1.4.1-.6.3-1 .9-.8 1.2.1.4.8.3 1.4-.1z"/><path d="M46 66.5c.6-.4.9-1 .7-1.3-.2-.3-.8-.2-1.4.2-.6.4-.9 1-.7 1.3.2.3.9.2 1.4-.2z"/><path d="M46.8 67.4c.5-.5.8-1 .6-1.3-.2-.3-.8-.1-1.4.3-.6.4-.8 1-.6 1.3.2.3.8.1 1.4-.3z"/></g><g><path d="M47.7 68.3c.5-.5.7-1.1.5-1.3-.2-.2-.8-.1-1.4.4-.5.5-.8 1.1-.5 1.4.2.2.9 0 1.4-.5z"/><path d="M48.5 69.1c.5-.6.6-1.2.4-1.4-.2-.2-.8 0-1.3.5s-.7 1.1-.4 1.4c.2.3.9 0 1.3-.5z"/><path d="M49.4 69.8c.4-.6.5-1.2.3-1.4-.3-.2-.8.1-1.3.6s-.6 1.2-.3 1.4c.3.3.9 0 1.3-.6z"/><path d="M50.4 70.4c.4-.6.4-1.2.2-1.4-.3-.2-.8.1-1.2.7-.4.6-.5 1.2-.2 1.4.2.3.8-.1 1.2-.7z"/></g><g><path d="M51.5 71.1c.3-.6.3-1.3.1-1.4-.3-.2-.8.2-1.2.8-.4.5-.4 1.2-.1 1.4.3.2.9-.2 1.2-.8z"/><path d="M52.5 71.5c.3-.7.3-1.3 0-1.4-.3-.1-.8.2-1.1.9-.3.6-.3 1.3 0 1.5.4.1.9-.3 1.1-1z"/><path d="M53.6 71.9c.2-.7.2-1.3-.1-1.4-.3-.1-.8.3-1.1 1-.3.7-.2 1.3.1 1.4.4.2.9-.3 1.1-1z"/><path d="M54.7 72.3c.2-.7.1-1.3-.2-1.4-.3-.1-.7.4-1 1-.2.7-.1 1.3.2 1.4.4.1.8-.3 1-1z"/></g><g><path d="M56 72.5c.1-.7 0-1.3-.4-1.4-.3-.1-.7.4-.9 1.1-.2.7 0 1.3.4 1.4.4.2.8-.4.9-1.1z"/><path d="M57.1 72.7c.1-.7-.1-1.3-.5-1.4-.3 0-.7.5-.8 1.2-.1.7.1 1.3.5 1.4.4.1.8-.5.8-1.2z"/><path d="M58.3 72.8c0-.7-.2-1.3-.6-1.3-.3 0-.6.5-.7 1.2-.1.7.2 1.3.6 1.3.3.1.7-.5.7-1.2z"/><path d="M59.4 72.8c0-.7-.3-1.3-.7-1.3-.3 0-.6.6-.6 1.3 0 .7.3 1.3.7 1.3.4 0 .7-.6.6-1.3z"/></g></g></g></g><g><g fill="#365122"><path d="M148 588.3c-1.8-7.2-3.9-18.4-3.4-27.1.1-2 1.9-5 1.1-7.1-.4-1.1-2.4-2.3-3.4-1.4-.7 4.6-.6 9.1 0 13 .8 5.5 1.2 11.2 2.2 16.8.4 2 1.4 3.9 1.4 6.1"/><path d="M144.9 588.7c0-1.2-.4-2.3-.8-3.4-.3-.8-.5-1.6-.7-2.5-.7-3.5-1.1-7-1.5-10.5-.2-2.1-.5-4.3-.8-6.4-.7-4.7-.7-9.2 0-13.3l.1-.4.3-.3c.6-.5 1.4-.7 2.3-.5 1.3.3 2.5 1.3 2.8 2.4.6 1.6 0 3.5-.5 5.2-.3.9-.5 1.7-.6 2.3-.5 9.7 2.2 22 3.3 26.8l-1.9.5v.1h-2zm-1.5-35.1c-.5 3.7-.5 7.6.1 11.6 0-1.4 0-2.7.1-4 .1-.9.3-1.8.6-2.8.4-1.3.9-2.9.5-3.8-.1-.2-.4-.6-.9-.8-.2-.2-.3-.2-.4-.2z"/></g><path fill="#E73267" d="M144.9 585.5s-4.7-8.8-12.4 5.2 10.2 29.5 16.9 26.9c6.7-2.6 8-3.4 11.3-3.6 3.3-.2 19.3-9.4 6.3-31.2-3.7-6.4-15.2-9.2-18.3 0-.7 1.8-1.3 4-3.8 2.7z"/></g><g><g fill="#365122"><path d="M174.8 538.4c2.5-6.4 4.5-17.3 9.3-22.5.4-.4 3.5-3.6 4.3-3.5.9.1 1.3 1.3 2.1 1.6-.9 2.5-2.9 4-4.7 5.9-4.1 4.5-5.7 10.7-8.5 16.5"/><path d="M175.8 538.9l-2.1-.8c.7-1.8 1.4-4.1 2.1-6.4 1.8-5.9 3.8-12.6 7.4-16.4.9-.9 3.7-3.9 5.2-3.9h.1c1 .1 1.5.7 2 1.2l.5.5 1 .4-.4 1c-.8 2.1-2.3 3.6-3.7 5.1l-1.2 1.2c-2.8 3-4.4 6.9-6.1 11-.7 1.7-1.4 3.5-2.3 5.2l-1.6-.8c-.2 1-.5 1.8-.9 2.7zm12.6-25.3c-.8.5-2.8 2.4-3.5 3.1-3.2 3.5-5.2 9.8-6.9 15.4.2-.4.4-.8.5-1.3 1.8-4.3 3.5-8.4 6.5-11.7.4-.4.8-.9 1.3-1.3 1.1-1.1 2.2-2.2 2.8-3.5l-.4-.4-.3-.3z"/></g><path fill="#E73267" d="M176.3 535.5s-.1-.1-.1-.2c-1-1.1-7.6-7.3-15.2-.2-8.3 7.8 1 22.3 5.8 24.8 4.7 2.5 15.2 7.2 23.8-.9 8.6-8.1 5.1-26.1-6.7-24.2-.1 0-7.1.9-7.6.7z"/></g><g><path fill="#4CA392" d="M68.6 1146.2s25.7-8.5 33.8 1.4c8.1 9.9 27.9 34.9 49.5 35.2 21.6.2 24-8.7 13.5-12.7s-59.8-12.8-30.2-22.2c7.8-1.9 30.1 8.1 39.3 14.1 9.2 6 47.7 20.3 47.7 2.3s-60.3-21.9-64.4-23.7c-4.2-1.8-12.9-4.9 7.8-8.8 20.7-3.9 100.5 15.9 112.2-14.7 11.7-30.6-39.8-27.1-85.1-8.5s-52.7 21.4-50.5 16.2c2.1-5.1 42.9-26.3 27.4-42.2-15.5-15.9-38.5 27.8-50.9 41-12.4 13.2-32.7 15.5-42.7 14.3-10.1-1.2-15.4 10.3-7.4 8.3z"/><path fill="none" stroke="#050505" stroke-width="1.93" stroke-miterlimit="10" d="M65.5 1142.3s47.3-2.1 74.2-7.7c25.7-5.3 103.2-32.7 139.7-25.4m-163.1 29.1s55.4-45.5 53.3-55.7m-57.8 56.5s-5.9 32.9 59.2 38.1m-35.2-41.8s41.2 26.3 86 31.6"/></g><g><path fill="#EF5F60" d="M298.8 1000.1s-18.5-4.3-28.4 9.4c-9.9 13.7-13.6 48.3 26.4 51.7 40 3.4 41.7-37.6 37.4-44.8-4.3-7.2-8.6-21.7-35.4-16.3z"/><g fill="#026862"><path d="M297.1 1004.2s-.8-11.6 0-9.8c.8 1.8 2.6 9.8 2.6 9.8s6.4-8.2 7.7-8.4c1.3-.3-5.3 9.2-5.3 9.2s13.8-.5 11.4 0c-2.4.5-10.4 2.8-10.4 2.8s10.8 2.9 10.7 4.7c0 1.8-12.6-4.5-11.9-2.3.8 2.3 6.9 13.6 6 13.1-.9-.5-5-6.7-7.4-11.5-2.6 3.1-8.7 13.6-7.7 9.7 1-3.9 4.7-8.8 4.2-9.8s-13 2.1-10.8.6c2.1-1.5 11.3-3 10.2-4.2-1.1-1.1-8.8-7-8.1-7 .7-.1 10.1 5.8 8.8 3.1z"/><path d="M307.8 1023.9l-.2-.1c-1.1-.6-4.8-6.3-7.2-10.8-.9 1.2-2 2.8-3.1 4.4-3.2 4.8-3.8 5.5-4.5 5.5-.3 0-.5-.1-.6-.3-.3-.3-.2-.8-.1-1.4.5-2 1.7-4.3 2.7-6.2.6-1.1 1.2-2.3 1.4-2.9h-.2c-1.1 0-3.3.4-5.3.7-1.9.3-3.6.6-4.4.6-.3 0-1 0-1.2-.6-.1-.3-.1-.7.5-1.1 1-.7 3.3-1.4 5.6-2.1 1.4-.4 3.3-.9 4.1-1.3-.6-.5-1.6-1.4-2.7-2.3-5.4-4.4-5.4-4.5-5.2-5.2.1-.3.4-.5.7-.5.4 0 .8.2 2.9 1.3 1.6.8 4 2.2 5.2 2.5-.6-9.7-.2-10.2 0-10.4l.2-.2h.3c.2 0 .6.1.8.6.6 1.4 1.8 6.1 2.3 8.5 2.5-3.1 6-7.3 7.2-7.5h.2c.3 0 .6.2.7.4.2.4.6 1.1-4.7 8.7 2-.1 5.7-.2 8.1-.2 2.2 0 2.8 0 2.9.8 0 .3-.1.7-.8.9-1.5.3-5.4 1.4-8 2.1 4.5 1.3 8.8 3 8.8 4.7 0 .5-.3 1-1.3 1-1.1 0-3.3-.8-5.6-1.6-1.8-.6-3.8-1.3-4.8-1.5.5 1.2 1.7 3.6 2.8 5.9 3.4 6.8 3.3 6.9 3 7.4l-.2.3-.3-.1zm-11.7-13.2c.6 0 1.2.1 1.5.6.4.8-.2 1.9-1.5 4.4-.6 1.1-1.3 2.4-1.8 3.7.6-.9 1.3-1.9 1.8-2.7 1.4-2.1 2.8-4.2 3.8-5.4l.7-.8.5 1c1 2 2.3 4.2 3.5 6.1-.1-.2-.2-.5-.4-.7-1.4-2.8-2.7-5.5-3.1-6.5-.2-.5 0-.8.1-1 .2-.3.6-.5 1.1-.5 1.1 0 3.3.8 5.6 1.6 1.5.5 3.2 1.1 4.3 1.4-1.6-1-5.8-2.4-9.5-3.4l-2.5-.7 2.5-.7c.2-.1 2.9-.8 5.6-1.6l-6.3.2-1.4.1.8-1.2c1.5-2.2 3.1-4.5 4.1-6.2-1.5 1.6-3.5 4.1-5.3 6.3l-.9 1.2-.3-1.4c0-.1-.8-3.4-1.5-6.2.1 1.7.2 3.8.3 5.8.2.5.2.8 0 1.1-.1.2-.4.5-1 .5-.8 0-2.3-.7-4.2-1.6.4.3.7.6 1.1.9 1.5 1.2 2.8 2.3 3.2 2.7.3.3.4.6.3.9-.2.9-1.6 1.4-5.4 2.4-.6.2-1.2.3-1.7.5.2 0 .4-.1.6-.1 2-.4 4.2-.7 5.4-.7z"/></g></g><g><path fill="#4CA392" d="M168.4 626.8s27.8-5.8 42.7 24.2c-10.4 2.9-33.2 5.1-42.7-24.2z"/><path fill="#D49523" d="M182.7 689.3s12-8.8 11.1-19.3c-.9-10.5 7.9-20.6 18.8-20.6s14.1 16.9 16.5 31.5c.2 3.4 9.2 9.6 13.7 16.1 4.5 6.4 13.1 22.1 1.5 42.2s-29.1 9-29.1 9-16.1 7.9-26.6 3.1c-10.5-4.8-37.3-29-6-61.3"/><path fill="#365122" stroke="#365122" stroke-width="2.36" stroke-miterlimit="10" d="M210.7 651.2s.5-3.7 1.2-7.8c.8-4.6 1.9-9.6 2.9-9.6h1.9s-4.7 17.6-4.3 18.8c.5 1.3-1.7-1.4-1.7-1.4z"/></g><g><path fill="#EDEEE2" d="M270.2 325.2s-29.8 3.6-39.3 19.9c-9.5 16.3 39.1-15.9 40.6-17.3-.3-1.4-1.3-2.6-1.3-2.6zm.3-4.9v2.2s-35.9 8.2-45.4-6c-1-1.7 1.7-3.6 8.3-3.1 17.2 1.5 30.7 3.5 37.1 6.9zm21.3 17.6l2.1-.6s17.3 32.5 6.2 45.4c-1.4 1.4-3.9-.7-5.1-7.2-3.2-17-4.7-30.5-3.2-37.6z"/><path fill="#EDEEE2" d="M272.4 329.7s-46 17.2-42.7 24.8c3.3 7.7 38.1-14.8 42.7-23.5v-1.3z"/><path fill="#EDEEE2" d="M276.6 335.1s-.2-1.7-2.7-1c-2.6.7-33.7 22.1-33.7 30.6s32-12.1 36.4-29.6zm-6.1-16.7s-30.3-2-36.4-14.5c-.9-2 5.8-5.8 15.6 0 9.9 5.8 21.8 12.1 21.8 12.1l-1 2.4z"/><path fill="#EDEEE2" d="M274.4 311.1l-.8 1.2s-42.3-13.8-42.3-21.9c1-1.2 2.8-1.7 2.8-1.7s24.8 2.5 40.3 22.4zm28.9 15.4l.4-1.4s44.5-.7 47.2 7.1c-.6 1.5-2.1 2.5-2.1 2.5s-24.4 5.6-45.5-8.2z"/><path fill="#EDEEE2" d="M279.2 307.4s-1.4 1.9-2.6 1.2c-1.2-.7-32.5-23.5-31.1-35.7.5-2.9 5-2.4 7.3 0 2.2 2.3 25.4 22.7 26.4 34.5z"/><path fill="#EDEEE2" d="M280.4 306.4h2.3s1.1-21.6-14.9-38.8c-1.7-1.9-4.4-4.9-6.6-3.9-2.3 1-1.7 10.7 19.2 42.7z"/><path fill="#EDEEE2" d="M288.2 305.5s8.3-24.5-2.6-43c-1.4-2.2-4.4-2.4-4.8 0-.3 2.4-4.9 23.6 5.2 43 1 .5 2.2 0 2.2 0z"/><path fill="#EDEEE2" d="M291.1 306.4h2.1s26.7-32.6 18-44.7c-1.6-2.3-19.8 23.4-20.1 44.7zm-8.4 31.1s-20.2 37.9-14.4 44.4c0 0 2.9 5.1 8.3-5.3 5.4-10.4 10.9-32.1 8.8-37.4-1.5-2.7-2.7-1.7-2.7-1.7zm19.3-25.2s31.3-25 35.7-24.8c1.7.3 1.5 1.2 1.5 1.2s1.4-.9 0 2.2-13.3 21.8-35.9 24.3c-.5-1-2.3-.8-1.3-2.9z"/><path fill="#EDEEE2" d="M294.9 306.1s18.9-35.3 23-36.9c1.7-.4 1.9.5 1.9.5s.9-1.3.9 2c0 3.4-3.6 25.2-23.4 36.5-.8-.7-2.4.2-2.4-2.1zm9.3 13.9s26.9-6.3 44.6-3.4c3.1 1.2 0 4.4 0 4.4s-19.9 8.5-44.6 1c.2-.8 0-2 0-2z"/><path fill="#EDEEE2" d="M303.6 318.5s27.6.2 44.2-6.5c2.7-1.8-1-4.3-1-4.3s-21.3-3.9-43.7 8.8c.4.8.5 2 .5 2zM302 329s10.7-.5 25.2 8.3 23 18 9.2 15c-13.8-3.1-34.9-20.2-34.6-21.8l.2-1.5zm-20.4 6.8s.3 10.7-8.8 25c-9.1 14.3-18.5 22.6-15.1 8.9 3.3-13.7 20.9-34.5 22.4-34.2l1.5.3z"/><path fill="#EDEEE2" d="M301 332.5s34.2 25.1 26.6 39.8c-1.6 2.5-4.7.6-13.5-12.7-8.8-13.3-15.2-25.4-15.2-25.4s-.1-1.7 2.1-1.7zm-12 5.8s-4.1 5.3-3.7 23c.4 17.7-.8 24.3 5.7 24.1 1.7-.7 8.3-10.4.9-45.6 0 .1-.6-2.3-2.9-1.5zm5.3-.2s10.2 34.9 20.1 36.6c3.5-.1 3.4-2 2.2-4.8-1.2-2.7-14.5-31.5-19.9-33.5-1.2-.4-2.6 1.1-2.4 1.7zm6.5-24.7s38.4-30.6 32.9-36.9c-5.5-6.3-31.7 25.9-33.3 35.6l.4 1.3z"/><g fill="#E2B522"><circle cx="287.8" cy="322" r="17.1"/><g><g><path d="M289.1 339.1c-.1-.8-.4-1.4-.7-1.3-.3 0-.6.6-.6 1.4 0 .8.3 1.4.7 1.4.4-.1.7-.8.6-1.5z"/><path d="M290.4 338.9c-.1-.8-.5-1.3-.8-1.3-.3 0-.6.7-.5 1.4 0 .8.4 1.4.8 1.3.4.1.6-.6.5-1.4z"/><path d="M291.6 338.7c-.2-.8-.6-1.3-.9-1.2-.3.1-.5.7-.4 1.5.1.8.5 1.3.9 1.2.4-.1.6-.7.4-1.5z"/><path d="M292.8 338.4c-.2-.7-.7-1.3-1-1.2-.3.1-.5.8-.3 1.5.2.8.6 1.3 1 1.2.4-.1.5-.8.3-1.5z"/></g><g><path d="M294.1 337.9c-.3-.7-.8-1.2-1.1-1.1-.3.1-.4.8-.2 1.5s.7 1.2 1.1 1.1c.4-.1.5-.8.2-1.5z"/><path d="M295.3 337.4c-.3-.7-.9-1.1-1.2-1-.3.1-.4.8-.1 1.5.3.7.8 1.2 1.2 1 .4-.1.4-.8.1-1.5z"/><path d="M296.3 336.8c-.4-.7-.9-1-1.3-.9-.3.2-.3.9 0 1.5.3.7.9 1.1 1.3.9.5-.1.4-.8 0-1.5z"/><path d="M297.4 336.2c-.4-.6-1-1-1.3-.8-.3.2-.2.9.1 1.5.4.7 1 1.1 1.3.8.4-.2.3-.9-.1-1.5z"/></g><g><path d="M298.5 335.3c-.5-.6-1.1-.9-1.4-.7-.3.2-.2.9.3 1.5.4.6 1.1 1 1.4.7.3-.2.2-.9-.3-1.5z"/><path d="M299.5 334.5c-.5-.6-1.2-.8-1.4-.6-.3.2-.1.9.4 1.5s1.1.9 1.4.6c.3-.2.1-.9-.4-1.5z"/><path d="M300.3 333.6c-.6-.5-1.2-.7-1.5-.5-.3.2 0 .9.5 1.5s1.2.8 1.5.5c.3-.3.1-.9-.5-1.5z"/><path d="M301.1 332.7c-.6-.5-1.3-.6-1.5-.4-.2.3 0 .9.6 1.4.6.5 1.2.7 1.5.4.3-.3 0-.9-.6-1.4z"/></g><g><path d="M302 331.6c-.6-.4-1.3-.5-1.5-.3-.2.3.1.9.7 1.4.6.5 1.3.6 1.5.3.2-.4-.1-1-.7-1.4z"/><path d="M302.6 330.5c-.7-.4-1.3-.4-1.5-.1-.2.3.2.9.8 1.3.6.4 1.3.5 1.6.2.2-.4-.2-1-.9-1.4z"/><path d="M303.2 329.4c-.7-.3-1.4-.3-1.5 0-.2.3.2.9.9 1.3s1.4.4 1.6 0c.1-.4-.3-.9-1-1.3z"/><path d="M303.7 328.3c-.7-.3-1.4-.2-1.5.1-.1.3.3.9 1 1.2.7.3 1.4.3 1.6-.1.1-.4-.4-.9-1.1-1.2z"/></g><g><path d="M304.2 327c-.7-.2-1.4-.1-1.5.2-.1.3.4.8 1.1 1.1.7.3 1.4.2 1.6-.2 0-.4-.5-.9-1.2-1.1z"/><path d="M304.5 325.8c-.8-.2-1.4 0-1.5.3-.1.3.4.8 1.2 1 .7.2 1.4.1 1.5-.3.1-.4-.5-.9-1.2-1z"/><path d="M304.7 324.5c-.8-.1-1.4.1-1.5.4-.1.3.5.8 1.2.9.7.2 1.4 0 1.5-.4.1-.3-.4-.8-1.2-.9z"/><path d="M304.8 323.3c-.8-.1-1.4.2-1.4.5s.5.7 1.3.8c.8.1 1.4-.1 1.5-.5 0-.4-.6-.7-1.4-.8z"/></g><g><path d="M304.9 321.9c-.8 0-1.4.3-1.4.6s.6.7 1.4.7c.8.1 1.4-.2 1.4-.6 0-.4-.6-.7-1.4-.7z"/><path d="M304.8 320.7c-.8.1-1.4.4-1.4.7 0 .3.6.6 1.4.6.8 0 1.4-.3 1.4-.7 0-.4-.6-.7-1.4-.6z"/><path d="M304.7 319.4c-.8.1-1.3.5-1.3.8 0 .3.7.6 1.4.5.8 0 1.4-.4 1.3-.8 0-.3-.7-.6-1.4-.5z"/><path d="M304.5 318.2c-.8.2-1.3.6-1.2.9.1.3.7.5 1.5.4.8-.1 1.3-.5 1.3-.9-.2-.4-.9-.6-1.6-.4z"/></g><g><path d="M304.1 316.9c-.7.2-1.2.7-1.2 1 .1.3.8.5 1.5.3s1.3-.6 1.2-1c-.1-.4-.8-.6-1.5-.3z"/><path d="M303.7 315.7c-.7.3-1.2.8-1.1 1.1.1.3.8.4 1.5.2s1.2-.7 1.1-1.1c-.1-.4-.8-.5-1.5-.2z"/><path d="M303.2 314.6c-.7.3-1.1.9-1 1.2.1.3.8.4 1.5.1.7-.3 1.2-.8 1-1.2-.1-.4-.8-.5-1.5-.1z"/><path d="M302.6 313.5c-.7.4-1.1.9-.9 1.3.2.3.9.3 1.5 0 .7-.3 1.1-.9.9-1.3-.1-.4-.9-.4-1.5 0z"/></g><g><path d="M301.8 312.3c-.3.2-.6.5-.7.7-.1.2-.2.5-.1.6.2.3.9.2 1.5-.2.7-.4 1-1 .8-1.3-.1-.2-.3-.2-.6-.2-.2 0-.5.2-.9.4z"/><path d="M301.1 311.3c-.6.5-.9 1.1-.7 1.4.2.3.9.2 1.5-.3.6-.4 1-1.1.7-1.4-.2-.3-.9-.2-1.5.3z"/><path d="M300.3 310.4c-.3.3-.5.6-.6.8-.1.3-.1.5 0 .6.2.3.9.1 1.5-.4s.9-1.1.6-1.4c-.1-.2-.4-.2-.6-.1-.3 0-.6.2-.9.5z"/><path d="M299.4 309.5c-.5.6-.7 1.2-.5 1.5.2.3.9 0 1.5-.5s.8-1.2.5-1.5c-.3-.3-1-.1-1.5.5z"/></g><g><path d="M298.3 308.6c-.5.6-.6 1.3-.4 1.5.1.1.4.1.6 0 .3-.1.5-.3.8-.6.3-.3.4-.6.5-.9.1-.3 0-.5-.1-.6-.2-.3-.9 0-1.4.6z"/><path d="M297.3 307.8c-.4.6-.5 1.3-.3 1.5.3.2.9-.1 1.4-.7.5-.6.6-1.3.3-1.5-.3-.2-.9.1-1.4.7z"/><path d="M296.3 307.2c-.4.7-.4 1.3-.2 1.5.3.2.9-.2 1.3-.8.4-.6.5-1.3.2-1.6-.3-.2-.9.2-1.3.9z"/><path d="M295.2 306.6c-.3.7-.3 1.4 0 1.5.3.2.9-.2 1.3-.9s.4-1.4.1-1.6c-.5-.1-1.1.3-1.4 1z"/></g><g><path d="M293.9 306c-.3.7-.2 1.4.1 1.5.3.1.8-.3 1.2-1 .3-.7.3-1.4-.1-1.6-.4 0-.9.4-1.2 1.1z"/><path d="M292.7 305.6c-.2.7-.1 1.4.2 1.5.3.1.8-.4 1.1-1.1.3-.7.2-1.4-.2-1.6-.3 0-.8.5-1.1 1.2z"/><path d="M291.5 305.3c-.2.8 0 1.4.3 1.5.3.1.8-.4 1-1.2.2-.7.1-1.4-.3-1.5-.3-.1-.8.5-1 1.2z"/><path d="M290.3 305.1c-.1.8.1 1.4.4 1.5.3.1.8-.5.9-1.2.2-.7 0-1.4-.4-1.5-.4-.1-.8.4-.9 1.2z"/></g><g><path d="M288.9 304.9c0 .8.2 1.4.5 1.4s.7-.5.8-1.3c.1-.8-.1-1.4-.5-1.5-.3.1-.7.7-.8 1.4z"/><path d="M287.7 304.9c0 .8.3 1.4.6 1.4s.7-.6.7-1.4c.1-.8-.2-1.4-.6-1.4-.4 0-.7.6-.7 1.4zm-1.3.1c.1.8.4 1.4.7 1.4.3 0 .6-.6.6-1.4 0-.8-.3-1.4-.7-1.4-.3-.1-.6.6-.6 1.4z"/><path d="M285.2 305.1c.1.8.5 1.3.8 1.3.3 0 .6-.7.5-1.4 0-.8-.4-1.4-.8-1.3-.4 0-.6.6-.5 1.4z"/></g><g><path d="M283.8 305.4c.2.8.6 1.3.9 1.2.3-.1.5-.7.4-1.5-.1-.8-.5-1.3-.9-1.2-.4 0-.5.7-.4 1.5z"/><path d="M282.6 305.7c.2.7.7 1.2 1 1.2.3-.1.5-.8.3-1.5-.2-.8-.6-1.3-1-1.2-.4.1-.5.7-.3 1.5z"/><path d="M281.5 306.1c.3.7.8 1.2 1.1 1.1.3-.1.4-.8.2-1.5s-.7-1.2-1.1-1.1c-.4.1-.5.8-.2 1.5z"/><path d="M280.3 306.6c.3.7.9 1.1 1.2 1 .3-.1.4-.8.1-1.5-.3-.7-.8-1.2-1.2-1-.4.1-.4.8-.1 1.5z"/></g><g><path d="M279.1 307.3c.4.7 1 1.1 1.3.9.3-.2.3-.8 0-1.5s-.9-1.1-1.3-.9c-.4.1-.4.8 0 1.5z"/><path d="M278.1 307.9c.4.6 1 1 1.3.8.3-.2.2-.9-.1-1.5-.4-.7-1-1.1-1.3-.8-.5.2-.4.9.1 1.5z"/><path d="M277.1 308.7c.5.6 1.1.9 1.4.7.3-.2.2-.9-.3-1.5-.4-.6-1.1-1-1.4-.7-.4.2-.2.9.3 1.5z"/><path d="M276.1 309.5c.3.3.6.5.8.6.3.1.5.1.6 0 .3-.2.1-.9-.4-1.5s-1.1-.9-1.4-.6c-.2.1-.2.4-.1.6.1.3.3.6.5.9z"/></g><g><path d="M275.1 310.5c.6.5 1.2.7 1.5.5.2-.2 0-.9-.5-1.5s-1.2-.8-1.5-.5c-.3.3 0 .9.5 1.5z"/><path d="M274.3 311.4c.6.5 1.3.6 1.5.4.1-.1.1-.4 0-.6-.1-.3-.3-.5-.6-.8-.3-.3-.6-.4-.9-.5-.3-.1-.5 0-.6.1-.3.3 0 .9.6 1.4z"/><path d="M273.6 312.4c.6.4 1.3.5 1.5.3.2-.3-.1-.9-.7-1.4-.6-.5-1.3-.6-1.5-.3-.3.4.1 1 .7 1.4zm-.7 1.1c.7.4 1.3.4 1.5.2.1-.1 0-.4-.1-.6-.1-.2-.4-.5-.7-.7-.3-.2-.6-.4-.9-.4-.3 0-.5 0-.6.2-.2.3.2.9.8 1.3z"/></g><g><path d="M272.3 314.7c.7.3 1.4.3 1.5 0 .2-.3-.2-.9-.9-1.3s-1.4-.4-1.6 0c-.1.4.3 1 1 1.3z"/><path d="M271.8 315.8c.7.3 1.4.2 1.5-.1.1-.3-.3-.8-1-1.2-.7-.3-1.4-.3-1.6.1-.1.4.4 1 1.1 1.2z"/><path d="M271.4 317c.7.2 1.4.1 1.5-.2.1-.3-.4-.8-1.1-1.1-.7-.3-1.4-.2-1.6.2 0 .4.4.9 1.2 1.1z"/><path d="M271.1 318.2c.8.2 1.4 0 1.5-.3.1-.3-.4-.8-1.2-1-.7-.2-1.4-.1-1.5.3-.1.4.4.8 1.2 1z"/></g><g><path d="M270.8 319.6c.8.1 1.4-.1 1.5-.4.1-.3-.5-.8-1.2-.9-.7-.2-1.4 0-1.5.4-.1.4.4.8 1.2.9z"/><path d="M270.7 320.8c.8 0 1.4-.2 1.4-.5s-.5-.7-1.3-.8c-.8-.1-1.4.1-1.5.5 0 .4.6.8 1.4.8z"/><path d="M270.6 322.1c.8 0 1.4-.3 1.4-.6s-.6-.7-1.3-.7c-.8-.1-1.4.2-1.4.6 0 .3.6.7 1.3.7z"/><path d="M270.7 323.3c.8-.1 1.4-.4 1.4-.7 0-.3-.6-.6-1.4-.6-.8 0-1.4.3-1.4.7 0 .4.6.7 1.4.6z"/></g><g><path d="M270.8 324.7c.8-.1 1.3-.5 1.3-.8 0-.3-.7-.6-1.4-.5-.8.1-1.4.4-1.3.8 0 .4.7.6 1.4.5z"/><path d="M271.1 325.9c.8-.2 1.3-.6 1.2-.9-.1-.3-.7-.5-1.5-.4-.8.1-1.3.5-1.2.9 0 .4.7.6 1.5.4z"/><path d="M271.4 327.1c.7-.2 1.3-.7 1.2-1-.1-.3-.8-.5-1.5-.3s-1.3.6-1.2 1c.1.4.8.5 1.5.3z"/><path d="M271.8 328.3c.7-.3 1.2-.8 1.1-1.1-.1-.3-.8-.4-1.5-.2s-1.2.7-1.1 1.1c.1.4.8.5 1.5.2z"/></g><g><path d="M272.4 329.5c.7-.3 1.1-.9 1-1.2-.1-.3-.8-.4-1.5-.1-.7.3-1.2.8-1 1.2.1.5.8.5 1.5.1z"/><path d="M273 330.6c.7-.4 1.1-.9.9-1.3-.2-.3-.9-.3-1.5 0-.7.3-1.1.9-.9 1.3.1.5.8.4 1.5 0z"/><path d="M273.6 331.7c.6-.4 1-1 .8-1.3-.2-.3-.9-.2-1.5.1-.7.4-1.1 1-.8 1.3.2.4.9.3 1.5-.1z"/><path d="M274.4 332.7c.6-.5.9-1.1.7-1.4-.2-.3-.9-.2-1.5.3-.6.4-1 1-.7 1.4.2.3.9.2 1.5-.3z"/></g><g><path d="M275.3 333.7c.6-.5.8-1.2.6-1.4-.2-.3-.9-.1-1.5.4s-.9 1.1-.6 1.4c.2.4.9.2 1.5-.4z"/><path d="M276.2 334.6c.5-.6.7-1.2.5-1.5-.2-.2-.9 0-1.5.5s-.8 1.2-.5 1.5c.3.3.9.1 1.5-.5z"/><path d="M277.1 335.4c.5-.6.6-1.3.4-1.5-.3-.2-.9 0-1.4.6-.5.6-.7 1.2-.4 1.5.3.3.9 0 1.4-.6z"/><path d="M278.1 336.2c.4-.6.5-1.3.3-1.5-.3-.2-.9.1-1.4.7-.5.6-.6 1.3-.3 1.5.4.2 1-.1 1.4-.7z"/></g><g><path d="M279.3 336.9c.4-.7.4-1.3.1-1.5-.3-.2-.9.2-1.3.8-.4.6-.5 1.3-.2 1.6.4.2 1-.2 1.4-.9z"/><path d="M280.4 337.5c.3-.7.3-1.4 0-1.5-.3-.2-.9.2-1.3.9s-.4 1.4 0 1.6c.4.1 1-.3 1.3-1z"/><path d="M281.5 338c.3-.7.2-1.4-.1-1.5-.3-.1-.8.3-1.2 1-.3.7-.3 1.4.1 1.6.4.1 1-.4 1.2-1.1z"/><path d="M282.7 338.4c.2-.7.1-1.4-.2-1.5-.3-.1-.8.3-1.1 1.1-.3.7-.2 1.4.2 1.6.4 0 .9-.5 1.1-1.2z"/></g><g><path d="M284.1 338.7c.2-.8 0-1.4-.3-1.5-.3-.1-.8.4-1 1.2-.2.7-.1 1.4.3 1.5.3.1.8-.4 1-1.2z"/><path d="M285.3 339c.1-.8-.1-1.4-.4-1.5-.3-.1-.8.5-.9 1.2-.2.7 0 1.4.4 1.5.3.1.8-.5.9-1.2z"/><path d="M286.5 339.1c.1-.8-.2-1.4-.5-1.4s-.7.5-.8 1.3c-.1.8.1 1.4.5 1.5.4 0 .8-.6.8-1.4z"/><path d="M287.8 339.1c0-.8-.3-1.4-.6-1.4s-.7.6-.7 1.3c-.1.8.2 1.4.6 1.4.3.1.7-.5.7-1.3z"/></g></g></g></g><g><path fill="#96C9A0" d="M349.6 122c1.2-2.8 3.8-6.8 9.7-9.7 9.6-4.7 16.1-14.5 16.1-14.5s2.3.8 2.5 4.9c19.6-13.2 14.4-21.4 17.4-20.6 3 .8 5.1 6.8 6 5.2.9-1.6 3.8-4.9 7.2-9.9C429.6 41 393.7 1 393.7 1s-53.3 7.6-60.5 49c-.6 6-.5 10.3-.8 12.2-.3 1.8 5.1-1.4 7.9-.1 2.8 1.3-6.5 4.2 0 27 2.7-3 5-2.1 5-2.1s-1.3 11.7 3 21.5c2.7 5.8 2.1 10.6 1.3 13.5z"/><path d="M354.5 105.7l23.9-65.6-36.1 47.2c-.6.3-1.3.8-2 1.6-.1-.5-.3-.9-.4-1.4l40.4-52.8 5.7-15.6-51.6 43.2c-1.3.3-2.3.5-2.1-.3v-.2l54.9-46L392.7 1c.7-.1 1-.2 1-.2s.2.3.6.7l-5.4 14.8L401.3 87l-.1.1c-.4.7-1-.1-1.9-1.2l-11.7-66.2-5.6 15.6-3 66.5c-.4.3-.8.5-1.2.8 0-1.1-.2-1.9-.5-2.5l2.7-59.3-23.9 65.7"/></g><g><path fill="#EF5F60" d="M367 137.4s23.9-13.6 39 9c15.2 22.6 3.4 42.4-21.5 50-25 7.6-46.4-2.6-47.9-16.7-1.5-14.2-10.7-35.7 30.4-42.3z"/><g fill="#026862"><path d="M365.2 140.1s-9.9-5.1-10.3-4.2c-.3.9 11 5.4 9.6 6.1-1.4.7-11.8 3-11.1 3.9.7 1 10.6-3 10.5-2.1-.1.9-5.6 11.5-4.8 11.7.8.2 5.9-9.8 6.6-10.1.7-.3 0 4.7 0 6.3 0 1.6-.2 7.1 1 6.6s.1-13.6 1.6-12.5c1.4 1.1 12.3 13.9 10.2 9.5-2.1-4.4-10-9.5-7.8-10.1 2.1-.6 15.2-3 12.5-3.7-2.8-.7-13.2 2.6-12.4 1.2.8-1.4 6.7-10.1 5.1-9.2-1.6.9-5.5 7.5-6 7.3-.5-.3-3.1-9.2-3.5-9.3-.4-.1.7 7.1 1.2 8.6.4 1.4-2.4 0-2.4 0z"/><path d="M366.5 159.1c-.2 0-.5-.1-.8-.3-.7-.7-.9-2.9-.9-6.5v-.5c0-.5.1-1.4.2-2.3.1-.6.1-1.4.2-2.2-.5.8-1.1 1.9-1.6 2.8-3.1 5.3-3.7 6.2-4.5 6.2h-.2c-.2 0-.4-.2-.6-.4-.3-.6 0-1.6 3-8 .5-1.1 1.2-2.5 1.5-3.3-.8.2-2 .6-3.2.9-2.3.7-4.6 1.4-5.8 1.4-.2 0-.8 0-1.1-.4-.2-.2-.2-.5-.1-.8.3-.8 1.8-1.4 7.9-3.1 1.1-.3 2.1-.6 2.9-.8-.9-.6-2.7-1.5-4.1-2.2-4.2-2.1-5.4-2.8-5.1-3.8.1-.2.3-.6 1-.6 1.8 0 8.9 3.6 10.3 4.4.3.1.7.3 1.1.5-.3-1-.6-3-.8-4.5-.6-3.9-.4-4.2-.2-4.4l.2-.3h.5c.5.1.6.2 2.1 4.7.4 1.3 1 3.2 1.4 4.1.4-.5 1-1.4 1.5-2.1 1.7-2.4 3-4.1 3.9-4.7.5-.3 1-.2 1.2.2.3.6.2 1.1-4 7.8-.3.5-.7 1-.9 1.4.9-.1 2.2-.4 3.7-.6 2.3-.5 4.9-1 6.6-1 .5 0 .9 0 1.2.1.8.2.9.7.9.9 0 1-1 1.4-9.8 3.3-1.4.3-2.6.6-3.3.8.4.6 1.6 1.8 2.6 2.8 1.9 1.9 4.4 4.2 5.4 6.4.3.7.5 1.1.2 1.6-.1.2-.4.4-.7.4-.8 0-2.1-1.3-7.5-7.1-1.1-1.2-2.1-2.3-2.7-2.9-.2 1.1-.2 3.4-.2 5.1-.1 5.3-.2 6.6-1.1 7h-.3zm2.1-13.8l.9.9c-.1-.3-.2-.6-.1-.8.1-.2.2-.6.8-.8.6-.2 2-.5 3.7-.9 1.7-.4 4.3-.9 6.2-1.4-1.4.2-3.1.5-4.6.8-1.9.4-3.6.7-4.5.7-.2 0-.9 0-1.2-.5-.2-.3-.2-.6 0-.9.2-.3.7-1.1 1.2-2-.7.9-1 1.1-1.4 1.1h-.2l-.2-.1c-.4-.2-.6-.6-1.9-4.4.2 1.2.4 2.3.6 2.8.2.5.1.9-.1 1.2-.1.2-.4.4-1 .4-.8 0-2-.6-2.2-.7-.6-.3-1.3-.7-2-1 1.9 1 2.5 1.5 2.5 2.2 0 .3-.2.6-.5.8-.2.1-.5.2-.9.3.2 0 .3.1.5.3.2.2.2.4.2.6 0 .4-.4 1.3-1.9 4.5-.3.6-.6 1.2-.9 1.9.2-.3.4-.6.5-.9 2.2-3.8 2.6-4.4 3.1-4.6.3-.1.7 0 .9.2.4.5.4 1.4.1 4.5-.1.9-.2 1.7-.2 2.2v.5c0 2 0 3.3.1 4.1.1-1.3.1-3.1.2-4.5.1-5.2.2-6.9 1.4-6.9.5.2.7.2.9.4zm6.8 7.2c-.3-.4-.7-.7-1-1.1.4.4.7.8 1 1.1z"/></g></g><path fill-rule="evenodd" clip-rule="evenodd" fill="#5AC1AE" d="M406.5 996.9c8.2-8.7 16.6-18 25.4-26.8 2.3-2.3 5.7-3.9 8.9-4.7 8.2-2.3 13.6 3.2 10.5 11.1-2.2 5.6-5.4 11.1-9.4 15.5-6.1 6.7-13.3 12.5-20 18.7-.7.7-1.5 1.3-2.9 2.7 7.3-1.6 13.4-3.4 19.7-4.2 7.5-.9 15-1.4 22.5-1.2 4.9.1 10.5 2 11.2 7.4.7 5.5-4.8 7.6-9.2 9.1-14.9 5.2-30.2 6-45.8 4.8-1.6-.1-3.2-.3-4.8-.3-.2 0-.5.4-.2.2 9.5 5.1 19.4 10.1 28.9 15.7 4.2 2.5 8.1 6.1 11.3 9.9 1.8 2.2 1.9 5.8 2.7 8.8-2.9.3-6.4 1.8-8.5.7-10.7-5.7-21.3-11.7-31.5-18.4-5.4-3.6-9.7-8.9-15.3-12.9 1.6 5 3.8 9.9 4.8 15 1.3 6.8 1.8 13.8 2.4 20.8.2 1.7-.1 3.8-1 5.2-1.1 1.9-2.8 4.5-4.5 4.7-1.6.2-4.2-2-5.2-3.8-4.9-8.8-5-18.6-4.6-28.4.2-5.3 1.2-10.6 1-16.7-10.5 11.2-21 22.3-31.5 33.5-.5-.4-.9-.9-1.4-1.3 10.4-11.1 20.9-22.2 31.6-33.6-9 1.1-17 2.7-25.1 2.8-6.2.1-12.5-1.1-18.5-2.6-2.2-.6-3.8-3.7-5.7-5.6 2.1-1.8 3.9-4.5 6.3-5.1 11.3-2.7 22.5-1.1 33.5 2.3 1.3.4 2.6.8 4.6.3-1.4-1.3-2.7-2.6-4.1-3.8-10.4-9.3-19.7-19.5-26.4-31.8-2.1-3.9-3.8-8.2-4.7-12.5-.9-4.5 2.2-6.9 6.1-4.7 4.3 2.4 8.8 5.5 11.4 9.4 6.8 10.1 12.8 20.7 19 31.2.6 1 1.1 2.2 1.2 2.6-.3-11.1-1.2-22.7-.7-34.2.3-7.1 2.1-14.2 4.3-21 .9-2.7 4.5-6.2 6.9-6.2 2.4 0 6.2 3.7 6.8 6.3 1.5 6.7 2.2 13.8 2.1 20.7 0 7-1.4 14.1-2.1 20.4z"/><g fill="#026862"><path d="M291.1 640.8c-1.3 28.2 6.3 55.1 22.5 79.9 15.7 24.2 25 47.9 27.5 70.6 2 18.1-.2 35.6-6.7 52-11 28-30.7 43.4-30.9 43.6l2.4 3.1c.8-.6 20.6-16.1 32.1-45.1 6.7-17 9.1-35.2 7-54-2.6-23.4-12.1-47.8-28.2-72.5-15.7-24.1-23.1-50.2-21.8-77.5"/><path fill-rule="evenodd" clip-rule="evenodd" d="M300.9 695.8c-5 1.1-9.9 2.5-14.7 4-5 1.6-9 4.8-12.1 8.9-3.4 4.5-3.1 9.1.7 14 2.9 3.8 8.8 5.7 13.1 3.9 6.1-2.4 9.9-7.2 12.1-13.2 1.7-4.6 2.7-9.3 3.8-14.1m12.5 25c-4.8 1.7-9.5 3.8-14.1 5.9-4.8 2.2-8.3 5.9-10.9 10.5-2.8 4.9-1.9 9.4 2.5 13.8 3.4 3.4 9.4 4.4 13.5 2.2 5.8-3.2 8.9-8.5 10.2-14.7 1-4.7 1.5-9.6 1.9-14.4m-12.2-21.4c4.1 1.5 8.2 3.2 12.3 4.7 5 1.8 10.2 2.3 15.4.6 6-1.9 9.6-7.5 8-13.6-1.6-6.2-4.7-9.6-11.9-9.5-6.2.1-11.4 2.7-16.1 6.6-2.9 2.4-5.5 4.9-8.4 7.3m17.5 31.4c4 1.8 7.9 3.8 12 5.6 4.9 2.2 10 3 15.3 1.8 6.2-1.5 10.1-6.7 9-13-1.1-6.3-3.9-9.9-11.1-10.3-6.2-.4-11.6 1.9-16.6 5.3-3 2.1-5.9 4.5-8.9 6.6m-32-86.4c-4.8-1.7-9.7-3.1-14.6-4.4-5.1-1.3-10.2-.7-15 1.2-5.3 2-7.4 6.1-6.8 12.3.5 4.8 4.5 9.4 9 10.3 6.5 1.2 12.2-.9 17.2-4.8 3.8-3 7.2-6.5 10.7-9.9m.1 17.7c-5 .9-10 2.1-14.9 3.4-5.1 1.4-9.2 4.4-12.5 8.4-3.6 4.4-3.5 8.9.1 14 2.7 3.9 8.5 6 12.9 4.5 6.2-2.2 10.2-6.8 12.6-12.7 1.8-4.5 3.1-9.2 4.4-13.9m-.7 5.1c4 3.2 8.2 6 12.5 8.8 4.4 2.9 9.4 3.9 14.6 3.7 5.6-.2 9-3.4 10.4-9.4 1.1-4.7-1.2-10.4-5.3-12.6-5.8-3.2-11.9-3.1-17.9-1-4.6 1.6-8.9 3.8-13.3 6m37.5 87.3c-4.8 1.6-9.5 3.6-14.2 5.7-4.8 2.1-8.4 5.7-11.1 10.2-2.9 4.9-2.1 9.4 2.3 13.9 3.3 3.5 9.3 4.6 13.5 2.4 5.8-3.1 9-8.3 10.5-14.5 1.1-4.7 1.7-9.6 2.2-14.4m5.5 31.4c-4.9 1.2-9.8 2.7-14.6 4.4-5 1.7-8.9 5-11.9 9.2-3.3 4.6-2.9 9.1 1 14 3 3.7 8.9 5.4 13.2 3.6 6.1-2.6 9.7-7.5 11.7-13.5 1.5-4.6 2.5-9.4 3.5-14.1m-6.1 36.3c-5-1-10.1-1.6-15.1-2.2-5.2-.6-10.2.8-14.7 3.3-4.9 2.8-6.5 7.1-5 13.1 1.1 4.6 5.8 8.7 10.4 8.8 6.6.2 12-2.7 16.3-7.3 3.3-3.5 6.2-7.5 9.1-11.4"/><path fill-rule="evenodd" clip-rule="evenodd" d="M293.1 647.3c3.2 3.9 6.8 7.6 10.4 11.2 3.7 3.7 8.4 5.8 13.5 6.7 5.6.9 9.5-1.4 12.1-7.1 2-4.3 1-10.4-2.5-13.4-5-4.3-11-5.4-17.3-4.6-4.8.6-9.5 1.9-14.2 3.1m40.8 120c4.1 1.5 8.2 3.2 12.3 4.7 5 1.8 10.2 2.3 15.4.6 6-1.9 9.6-7.5 8-13.6-1.6-6.2-4.7-9.6-11.9-9.5-6.2.1-11.4 2.7-16.1 6.6-2.9 2.4-5.5 4.9-8.4 7.3m6.1 24.2c3.3 2.9 6.5 6 9.8 8.9 4.1 3.5 8.7 5.8 14.1 6.1 6.3.4 11.7-3.5 12.4-9.8.7-6.4-.9-10.6-7.7-13.1-5.8-2.2-11.6-1.6-17.4.3-3.5 1.2-6.9 2.6-10.5 3.8m1.2 30c2.2 3.8 4.1 7.8 6.2 11.7 2.6 4.7 6.2 8.4 11.2 10.6 5.8 2.5 12.1.7 15-5 2.9-5.8 2.8-10.3-2.7-14.9-4.7-4-10.4-5.5-16.5-5.6-3.7-.1-7.4.1-11.1 0"/><path fill-rule="evenodd" clip-rule="evenodd" d="M343.2 809.7c2.2 3.8 4.1 7.8 6.2 11.7 2.6 4.7 6.2 8.4 11.2 10.6 5.8 2.5 12.1.7 15-5 2.9-5.8 2.8-10.3-2.7-14.9-4.7-4-10.4-5.5-16.5-5.6-3.7-.1-7.4.1-11.1 0m-7.5 32.3c1.4 4.2 2.5 8.4 3.9 12.6 1.7 5.1 4.6 9.4 9 12.5 5.3 3.6 11.8 2.9 15.7-2.1 3.9-5.1 4.6-9.6.1-15.2-3.9-4.8-9.2-7.3-15.1-8.6-3.6-.8-7.3-1.3-10.9-2.1M325 865.1c-.2 4.4-.7 8.8-.9 13.2-.2 5.3.8 10.4 3.9 14.9 3.6 5.2 9.9 7 15.4 3.7 5.5-3.4 7.8-7.2 5.6-14.1-1.9-5.9-5.9-10.1-11-13.5-3.1-2.1-6.3-3.9-9.4-5.9"/><path fill-rule="evenodd" clip-rule="evenodd" d="M324.8 869c-3.7 2.3-7.3 5-11 7.3-4.5 2.8-9.5 4.4-14.9 3.9-6.3-.6-11-5.2-10.8-11.6.2-6.4 2.5-10.4 9.5-11.8 6.1-1.3 11.8.2 17.1 2.9 3.3 1.7 6.5 3.6 9.8 5.3"/></g><g><path fill="#AAA" d="M264.1 608.7l.1.1.1.1c10.6 7 25.1-1 32.9-5.3 1.2-.7 2.4-1.3 3.1-1.7 3.1.6 14.1 8.5 22.7 15.7l2.7 2.2 9.5-12.5-2.9-2c-9.2-6.4-19.7-14.9-21.2-17.7.1-.7.4-2.1.8-3.5 2-8.7 5.9-24.8-3.7-33.1L260 514.2l-15.7-5.6-3.5 4.5 9.6 13.7 29.6 22.5 2.8 2.1c2.7 2.1 3.2 6.1 1.1 8.8-2.1 2.7-6 3.3-8.8 1.3l-32.4-24.6-15.7-5.6-3.5 4.5 9.6 13.7 32.3 24.5c2.8 2.1 3.3 6.1 1.2 8.9-2.1 2.7-6 3.3-8.8 1.3l-32.4-24.6-15.7-5.6-3.5 4.5 9.6 13.7 48.3 36.5z"/><path fill-rule="evenodd" clip-rule="evenodd" fill="#5B5B5C" d="M326.2 615.4c.6.5 1.4.4 1.8-.1l3.1-4c.4-.5.2-1.3-.3-1.7l-26.2-20.2c-.6-.5-21-13.5-21.4-13l-.6 1.2c-.4.5 16.9 17.3 17.5 17.7l26.1 20.1z"/><path fill="#CC7428" d="M323.3 623c-1.4-1.1-1.7-3.2-.6-4.6l10.4-13.7c1.1-1.4 3.1-1.7 4.6-.6l82.2 62.4c1.4 1.1 1.7 3.2.6 4.6l-10.4 13.7c-1.1 1.4-3.1 1.7-4.6.6L323.3 623z"/></g><path fill="#8CB279" d="M172.4 67s0-.3.3-1.2c.4-.9.7-1.2.7-1.2s-4.5 0-9.2-2.7c-1.8-1-2-1.6-2-1.6s.3-1.4 1.9-2.7c0 0-2.6-.6-5.1-1.9-2.5-1.3-4.3-3.7-4.3-3.7s.5-1.6 1.6-2.1-1.4.4-5-2.5-4.8-6-4.8-6 .4-1.5 1.6-2.5c0 0-2.3-.5-5-4.1-2.5-3.3-3.2-7.6-3.3-8.1.4-.3 3.8-2.9 8-3.5 4.4-.6 6.4.6 6.4.6-.2-1.6.6-2.9.6-2.9s3-1.4 7.6-1c4.6.4 5.8 2.8 5.3 1.7-.5-1.1.3-2.6.3-2.6s2.9-.4 5.6.4c2.7.8 5 2.2 5 2.2-.2-2 .6-3.2.6-3.2s.6-.3 2.6.3c5.3 1.3 8.5 4.5 8.5 4.5s0-.5.4-1.4c.4-.9.6-1.1.6-1.1s.3-.4 2.8 1c2.6 1.4 6.5 6.2 6.5 6.2.9-1.6 1.1-3.2 2.8-1.9 5.8 4.4 10.6 10.3 14.1 16.6 1.6 2.9 3 5.9 4.1 9 .6 1.6 1.3 3.5 1.8 5.4-2.6-1.1-3.3-1.6-4.1-1.9-9.5-3.9-15.6-4.7-22.1-5 4.8 4.4 9.8 8 19.2 11.9l4.3 1.6c-1.7 1-3.5 1.8-5 2.5-3 1.4-6.1 2.6-9.3 3.5-7 2-14.5 2.9-21.7 2-2.2-.3-1.2-1.6-.7-3.3 0 0-6.1.6-9-.1-2.6-.7-2.6-1.2-2.6-1.2"/><g><path fill="#365122" stroke="#365122" stroke-width="2.55" stroke-miterlimit="10" d="M443.2 1104.2s12.8-3.7 18.8-16.1c6-12.4.9-8.6 2.4-15.8 1.5-7.2 5.9-35.7 13.8-16.8.5 1.8 2.4.2 3.7-6.5 1.3-6.8 14.4-11.1 16.2-12.6 1.8-1.6 25.6-20.2 28.7-15.2 3.1 5.1-2.5 9.6-15.6 16.7-13.1 7.2-29.7 18.6-19.3 17.2 10.4-1.4 17 1.5 7 5.4-10 3.9-27.4 9.2-27 14.3.4 5.1 2.3 2.6 5.7-.3 3.4-2.9 7.6-5.7 7.9-.6s-10.6 8.9-17.8 14.6c-7.3 5.7-18.9 16.3-16.5 15.7 2.4-.6 21.9-5.2 32-5.9 10.2-.7 29.4-4.4 31.8-10.4 2.4-6.1 9.6-6.8 9.7-2.3 0 4.5-10.5 11.3-6.3 11 4.3-.3 14.5-7.6 19.6-5.5 5.1 2.1 22 8.4 27.9 6.5 5.9-2 11.1 9.9-2 9-13.1-.9-23.3-7-26.2-4.3-2.9 2.8 5.7 4.6 5.5 8.5-.2 3.9-3.5 9.3-14.6 4.3-11.1-5-23.6-14.7-22.8-11 .8 3.7 7.1 2.7 7.4 7.8.3 5.1-8 2.5-20.1-1.7-12-4.2-10.4-11.4-35.8-5.4-2.2.3-4.7.4-.8 1.2 4 .8 16.3 2.1 22.3 13.2 1.1 1.5 5.7-8 8.2-2.2 2.5 5.8-3.7 8.1-.5 10.3 3.3 2.3 18.2-5.4 17.1 3.1-1.1 8.5-10.3 5.1-11.2 5.3-.9.1-3.8 2.6 17.2 24.4 21 21.9 3.7 20.7.2 19-3.5-1.6-18-30.3-19.9-27.1-1.9 3.2-2.9 7.3-4.9 7.3-2 0-.7-15.2-5.1-16.8-4.4-1.6-4.2 1.8-6 3.4-1.8 1.6-10.4 4-5.7-4.6s14.5-17.6-5.3-29.8c-2-.6-11.4-5.6-18.7-3.1-.7-1.8-1-4.2-1-4.2z"/><path fill="#E73267" d="M445.1 1104.1s15.8 35.9-18 52-48.5-11.3-55.7-12.4c-2.7-.8-5.1-1.4-5.1-1.4s2.3.6 1.8-11.8c-.4-9.3 1.7-40.6 26.5-47.7 24.7-7 44.5 2.5 50.5 21.3z"/></g><path fill="#008C6F" d="M315.5 533.7s11.8-20.6 4.7-29.3c-7.1-8.7-25.2-30-21.6-48.7 3.5-18.6 11.7-19.1 13.3-9.4 1.6 9.7.6 53.6 13.8 29.8 3-6.4-1.8-27.3-5.3-36.2-3.5-9-9.2-44.6 6.3-41.4 15.5 3.2 8.4 55.6 9.2 59.5.8 3.9 2 12 8.9-5.2 6.9-17.1 3.8-89.2 32.1-93.9 28.3-4.7 16.4 38.9-7.5 74.6-23.8 35.7-27.5 41.5-22.7 40.6 4.8-.9 30.1-32.3 41.1-16.3 11 16.1-30.6 28.2-44.1 36.6-13.5 8.4-19.1 25.4-19.8 34.2-.7 9-11.5 11.6-8.4 5.1z"/><g><path fill="#4CA392" d="M233.4 370.4l2.8.8-4.1 50.6-7.8 2.9-39.4-35.1 3.4-4 28.1 24.8-19.7-34.1 3.8-3 22.1 33.7-12.8-37.3 2.8-.7 16.3 36.9"/><path fill="#4356A0" d="M228.7 418.2s33.4-9.5 43.5 22c10.1 31.5-15.7 41.1-17.6 47.3-1.1 2.3-1.8 4.3-1.8 4.3s.8-2-10.1-3c-8.2-.8-35.4-6.3-38.6-28.9-3.2-22.5 7.4-38.7 24.6-41.7z"/><g><defs><path id="a" d="M228.7 418.2s33.4-9.5 43.5 22c10.1 31.5-15.7 41.1-17.6 47.3-1.1 2.3-1.8 4.3-1.8 4.3s.8-2-10.1-3c-8.2-.8-35.4-6.3-38.6-28.9-3.2-22.5 7.4-38.7 24.6-41.7z"/></defs><clipPath id="b"><use xlink:href="#a" overflow="visible"/></clipPath><g clip-path="url(#b)" fill="none" stroke="#050505" stroke-width="2.41" stroke-miterlimit="10"><path d="M205.2 435.7s37.9 10.8 49.9-16.9m13.6 10.1s-30.2 34.9-67.1 21.7m.9 13.7s43.4 20.1 73.3-20.7m-58.9 40.8s27.9 7.3 58.1-15.3"/></g></g></g><path fill="#EDEEE2" d="M303.1 1123.9s.2 0 1 .2 1.1.5 1.1.5-.4-3.8 1.5-8c.7-1.6 1.2-1.8 1.2-1.8s1.2.1 2.4 1.4c0 0 .2-2.2 1.1-4.5.9-2.2 2.7-3.9 2.7-3.9s1.4.3 1.9 1.2c.5.9-.4-1.1 1.7-4.4 2.1-3.3 4.6-4.5 4.6-4.5s1.3.2 2.2 1.2c0 0 .3-2 3-4.6 2.6-2.4 6.1-3.3 6.5-3.4.3.3 2.8 3 3.6 6.4.9 3.7.1 5.5.1 5.5 1.3-.3 2.5.3 2.5.3s1.4 2.4 1.5 6.3c0 3.9-1.8 5.1-.9 4.6s2.2 0 2.2 0 .6 2.4.2 4.8c-.4 2.3-1.4 4.4-1.4 4.4 1.7-.4 2.8.2 2.8.2s.3.5 0 2.2c-.7 4.6-3 7.5-3 7.5s.4 0 1.2.2c.8.2.9.4.9.4s.4.2-.6 2.5-4.7 6-4.7 6c1.4.6 2.8.6 1.8 2.2-3.2 5.2-7.8 9.7-12.8 13.2-2.3 1.6-4.7 3-7.2 4.2-1.3.6-2.8 1.4-4.4 2 .7-2.3 1-2.9 1.2-3.6 2.4-8.3 2.6-13.5 2.3-19-3.3 4.4-5.9 8.8-8.3 17.1-.2.7-.3 1.4-.9 3.7-1-1.3-1.8-2.8-2.6-4-1.5-2.4-2.7-4.9-3.8-7.5-2.3-5.7-3.7-12-3.6-18.1 0-1.9 1.2-1.1 2.7-.9 0 0-1.1-5.1-.7-7.6.6-2.4 1-2.4 1-2.4"/><g><path fill="#4CA392" stroke="#4CA392" stroke-width="4.5" stroke-miterlimit="10" d="M123.1 704.5l1.8-2.7L84.3 661l-8.8 3.2-8.4 59.1 5.9 1 6.1-42 7.8 43.9 5.5-.2-5.5-45.3 16.2 41.6 2.9-1.4L93.2 677z"/><path fill="#EC7134" d="M83 671.8s28.6-5.6 12.9-44.3c-15.7-38.7-21.2-60.3-27.6-70-6.5-9.7-16.5-22.8-22.4-35.7-5.9-12.9-15.9-47.7-19.3-37.1-3.4 10.6-.7 71.5 9 98.6C45.3 610.4 47 689.7 83 671.8z"/><g><defs><path id="c" d="M83.1 671.8s28.6-5.6 12.9-44.3c-15.7-38.7-21.2-60.3-27.6-70-6.5-9.7-16.5-22.8-22.4-35.7-5.9-12.9-15.9-47.7-19.3-37.1-3.4 10.6-.7 71.5 9 98.6 9.7 27.1 11.3 106.4 47.4 88.5z"/></defs><clipPath id="d"><use xlink:href="#c" overflow="visible"/></clipPath><g clip-path="url(#d)" fill="none" stroke="#050505" stroke-width="2.5" stroke-miterlimit="10"><path d="M101.9 637s-24.2-3.7-51.2 19.2M97.2 623s-24-2.8-51 20m45.5-34s-21.8-2.4-48.9 20.4m44-33.3s-19.7-2.5-46.7 20.3m41.6-34.3s-18.3-7.8-45.3 15.1M76 566.4s-16.2-8-43.2 14.8m37.3-28.9s-20.7-3.3-41.8 14.2m32.9-28s-18.7-1.4-35.9 14M52 524.9s-10.6-3.4-29.2 11.1"/></g></g></g><g><path fill="#E73267" d="M37.8 204.5s9.5-8.3 15.6-5c6.1 3.2 20.3 23 5.8 45-2.5 3.2-12.1.9-15.8-3.5-3.7-4.4-16-6.5-18.5-10.4-2.5-3.9-12.4-23.4 12.9-26.1z"/><path d="M26.5 213.8c-.1.6-.4 1-.4 1.8.5.1.8.6 1.6.5 1.4-.8.7-3-1.2-2.3zm3 11.3c-.6.4-.4 1.9.2 2.3.9 0 1.2-.5 1.6-.9 0-1-.5-1.6-1.8-1.4zm4.4-5.3c.4 1.6 3.2 2.6 2.8-.4-.5-1-2-.1-2.8.4zm12.7 15.5c-.1.4-.3.9-.4 1 .5.6 1.3.7 1.8 1.2.9 0 1.3-.4 1.6-1-.6-.7-1.5-1.2-3-1.2zm-4.1-8.6c0 .7-.3.8-.7 1.2.2 1.5 2.7 2 2.9.2-.6-.6-.8-1.6-2.2-1.4zm4.5-11.5c-.7 1.6 1.5 2.6 2.1 1.2-.1-1-1.2-1.5-2.1-1.2zm3.9 14.2c-.8 1.1-.1 2.4 1 2.3 1.6-.2 1.2-3.1-1-2.3zm2.6-23.7c-.6 1-.1 2.9 1.2 2.8 1.9-.1.5-3.3-1.2-2.8zm.8 15.2c-.6.1-.5 1-.6 1.7.6.5 1.7.9 2.7.6-.1-.3.2-.2.2-.5-.3-1-1.3-1.4-2.3-1.8zm3.3-6.1c-.4.7-.3 1.3.1 2 1.2.4 1.6-.4 2.1-1.1-.4-.5-1.1-1.3-2.2-.9zm.3 14.7c-.3.4-.5 1-.7 1.5.2 1.5 3 1.8 3.2.5.1-.9-1.4-1.9-2.5-2z"/><g fill="#026862"><path d="M37 202.5s-5.9-5.7-6.3-5.1c-.4.6 6.5 6.1 5.4 6.3-1.1.2-8.9-.5-8.6.4.3.8 8.1.1 7.8.8-.2.6-6.4 6.9-5.9 7.2.5.3 6.2-5.6 6.7-5.6.6 0-1 3.3-1.4 4.4-.3 1.1-1.6 4.9-.7 4.8.9-.1 3-9.5 3.8-8.4.8 1.1 5.6 12.3 5.1 8.8s-5-8.8-3.3-8.8c1.6 0 11.3 1.1 9.5 0-1.8-1.1-9.8-1-9-1.8.8-.8 6.9-5.7 5.6-5.4-1.3.3-5.4 4.1-5.8 3.8-.3-.3-.2-7.1-.5-7.3-.2-.1-1.1 5.2-1 6.3.2 1.2-1.4-.4-1.4-.4z"/><path d="M33.8 216c-.1 0-.3-.1-.5-.4-.4-.7 0-2.2.8-4.7l.1-.4c.1-.4.4-1 .6-1.6.2-.4.4-1 .6-1.5-.5.5-1.2 1.1-1.7 1.6-3.3 3.1-3.9 3.5-4.5 3.4h-.1c-.2-.1-.3-.2-.3-.4-.1-.5.4-1.1 3.8-5 .6-.7 1.3-1.5 1.8-2H32c-1.7 0-3.5 0-4.4-.3-.1 0-.6-.2-.7-.5-.1-.2 0-.4.1-.6.4-.5 1.5-.6 6.2-.5h2.2c-.5-.6-1.6-1.7-2.4-2.4-2.5-2.4-3.2-3.1-2.7-3.8.1-.1.3-.3.8-.2 1.2.4 5.5 4.4 6.3 5.3.2.2.4.4.7.6 0-.8.2-2.2.4-3.3.4-2.9.6-3 .8-3.1l.2-.2.3.1h.1c.4.2.4.3.5 3.8 0 1 .1 2.4.1 3.2.4-.3 1-.8 1.5-1.2 1.7-1.3 3-2.3 3.7-2.4.4-.1.7.1.8.4.1.5-.1.8-4.5 4.6-.4.3-.7.6-.9.8.6.1 1.6.2 2.7.3 1.7.2 3.7.4 4.9.7.3.1.6.2.8.3.5.3.5.7.4.9-.2.7-1 .8-7.6.2-1-.1-2-.2-2.5-.2.1.5.8 1.6 1.2 2.5 1 1.7 2.2 3.9 2.4 5.7.1.5.1.9-.2 1.1-.2.1-.4.2-.6.1-.6-.2-1.2-1.3-3.8-6.6l-1.3-2.6c-.4.8-.9 2.4-1.3 3.5-1.2 3.7-1.6 4.6-2.3 4.7.1.2 0 .2-.1.1zm4.5-9.2c.1.1.3.4.5.8 0-.2 0-.4.1-.6.1-.1.3-.4.8-.4s1.5.1 2.8.2c1.3.1 3.2.3 4.7.3-1-.2-2.3-.3-3.4-.4-1.4-.1-2.6-.3-3.3-.5-.2-.1-.6-.2-.7-.6-.1-.2 0-.5.2-.6.2-.2.7-.6 1.3-1.1-.7.5-1 .6-1.2.5H40l-.1-.1c-.2-.2-.3-.6-.4-3.5-.1.9-.2 1.7-.2 2.1 0 .4-.1.6-.3.8-.1.1-.4.2-.8.1-.6-.2-1.3-.8-1.4-1-.4-.4-.8-.7-1.2-1.1 1.1 1.1 1.4 1.6 1.3 2-.1.2-.3.4-.5.4h-.7c.1.1.2.1.3.3.1.2.1.3 0 .5-.1.3-.6.8-2.3 2.8-.3.3-.7.7-1 1.1.2-.2.4-.4.6-.5 2.3-2.2 2.7-2.5 3.1-2.5.3 0 .5.1.6.3.2.4 0 1.1-.9 3.2-.2.6-.5 1.2-.6 1.5l-.1.4c-.4 1.4-.7 2.3-.8 2.9.3-.9.8-2.1 1.1-3.1 1.2-3.6 1.6-4.8 2.5-4.5-.2.1 0 .2.1.3zm3.2 6.6c-.1-.3-.3-.6-.5-1 .2.3.4.6.5 1z"/></g></g><g><path fill="#E73267" d="M18.1 255.7s18.4-6.9 25 6.5c6.5 13.5-6.1 39.2-14 38.4C21.2 299.8-2.7 279 .3 269c2.9-9.9 7.8-15.7 17.8-13.3z"/><path d="M5 271.6c0 1.6 2.8 2.3 2.2.1-.7-.4-1.7-1-2.2-.1zm6.6-3.8c.8-2-1.9-2.1-1.8-.6 0 .8 1.1 1.2 1.8.6zm.2-7c-.7-.4-1.9-.5-2.2.4.6.8 2.5 1.5 2.2-.4zm.2 17c-.7.7-.5 2.3.4 2.4 1.3.3 1.4-2.5-.4-2.4zm9.5 5.4c-.1.9 0 1.7.6 2 1.8-.1 1.1-3.6-.6-2zm1.3-11.6c-.9 1.3 2.7 3.2 2.2.7-.8-.2-1.1-1.1-2.2-.7zm.5 20.5c-.1.7.4 1.9 1.3 2 1.3-.8 0-2.6-1.3-2zm5.3-10.2c.1 2.6 3.4.5 1.2-.9-.4.3-.7.6-1.2.9zm1.1 9.7c-.2.8-.4 1.9.2 2.3 1.8.2 1.7-3.1-.2-2.3zm1.1-27.3c-.5 1.3 1.1 2.7 2.1 1.7 0-1.2-1-2-2.1-1.7zm5.2 17.8c-.2 1.4.9 2.4 1.8 1.6.4-1-.9-2.6-1.8-1.6zm2.1-20.4c-.5-.3-1.5.3-1.5 1.1.4 1.8 3-.2 1.5-1.1zm.1 10.7c-.8.8-.1 1.8 1.2 1.8 1.2-1-.2-3.6-1.7-2.6.1.5.4.6.5.8z"/><g fill="#026862"><path d="M20.3 252.8s-5.8-4.9-5.2-3.8c.6 1.1 4.1 5.2 4.1 5.2s-6.8.2-7.4.8c-.6.6 6.9.8 6.9.8s-5.6 7-4.4 6c1.2-1.1 5.5-4.4 5.5-4.4s-2.7 6.8-1.7 7.5c.9.7 2.5-8.4 3.4-7.1s4.5 8.9 4.5 8.3c.1-.7-1.6-5.2-3.1-8.4 2.7-.2 10.5.7 8.1-.3-2.4-1-6.5-1-6.8-1.6-.3-.7 6.2-6 4.5-5.5-1.6.5-6 4.8-6.2 3.8-.2-1-.3-7.4-.6-7-.1.3-.6 7.5-1.6 5.7z"/><path d="M26.3 266.4H26c-.4 0-.5 0-2.7-4.5-.8-1.5-1.5-3-2-3.8-.3.6-.7 1.9-1.1 3.1-.5 1.5-.9 3-1.4 3.6-.4.5-.8.5-1 .3-.9-.6-.1-3.6 1-6.4-1.4 1.1-3.4 2.7-4.2 3.4-.4.3-.6.2-.8.1-.4-.3-.1-.6.7-1.8.9-1.2 2.4-3.2 3.2-4.2-6.1-.2-6.3-.7-6.4-.9-.1-.2-.1-.4.1-.6l.1-.1c.6-.5 4.1-.8 6.8-.9-1-1.2-3.1-3.7-3.6-4.5-.2-.3-.1-.5 0-.7l.1-.2h.2c.2 0 .6-.1 5.5 4 .3-.7.6-2.6.7-3.7.2-1.5.3-1.8.4-2 .1-.2.3-.2.5-.2.4.1.5.1.7 4.7 0 .9.1 1.8.1 2.3.5-.3 1.6-1.1 2.3-1.6 1.3-1 2.5-1.9 3.3-2.2.4-.1.7 0 .8.2.2.3 0 .7-.1.9-.3.5-1.1 1.2-2 2.1-.9.9-2 1.9-2.4 2.5 0 0 0 .1-.1.1.4.1 1.3.3 2.1.4 1.4.2 3 .5 4.3 1 .4.2.7.3.7.6 0 .2 0 .3-.1.5-.3.4-.9.4-4.6.2-1.3-.1-2.6-.1-3.5-.1 1.4 3 3 7.2 2.9 8v.2l-.2.2zm.4-14.2l.3-.3c-.3.2-.6.5-.9.7-2 1.6-2.8 2.1-3.4 1.9-.2-.1-.4-.3-.4-.5-.1-.4-.1-1.5-.2-2.7v-.9c-.2 1.4-.5 2.4-.8 2.9-.2.3-.5.3-.6.3-.2 0-.4-.2-.6-.4-1-.8-2.1-1.7-3-2.4 1.2 1.5 2.6 3.2 2.6 3.2l.6.7h-1c-1.9.1-4 .2-5.4.3 1.3.1 3.2.2 4.9.3h.9l-.6.7s-1.3 1.7-2.6 3.3c1.4-1.1 2.9-2.3 3-2.4l1.3-1-.6 1.6c-.9 2.4-1.8 5.1-1.9 6.4.3-.7.6-1.8 1-2.8.5-1.5.9-3 1.4-3.6.2-.3.4-.4.7-.4.1 0 .4 0 .6.3.4.6 1.3 2.3 2.2 4.2.1.1.2.3.2.5-.5-1.4-1.2-2.9-1.9-4.2l-.3-.6h.7c1-.1 2.7 0 4.3.1.7 0 1.5.1 2.2.1-.9-.2-1.8-.4-2.7-.5-1.8-.3-2.7-.4-2.9-.9-.2-.3 0-.7.3-1 .5-.9 1.6-1.9 2.6-2.9z"/></g></g><g><path fill="#E73267" d="M82.4 301.4s11.9-2.4 16.3 16.1c4.4 18.4-20.5 22.3-27.8 23.3-7.4 1-6.6 5.4-12 1.6-5.4-3.8-10.7-5.1-10.2-12.8.4-7.7-1-32.7 8.8-33.2 9.8-.4 21.9-2.1 24.9 5z"/><path d="M54.4 313.8c-.9.8-.5 2.3 1.1 2.4 0-.2.2-.3.3-.3.3-1.2-.3-2.2-1.4-2.1zm1.9 11.8c-.7.1-1.1-.2-1.8 0 .1.9.2 1.7 1.5 1.8 0-.3.3-.3.5-.4-.2-.7.1-.9-.2-1.4zM70 306.2c1.3-.8-.1-2.5-1.5-1.9-.1 1 .2 1.8 1.5 1.9zm6.3 8.3c-.3.4-.6.9-.7 1.6.3 0 .4.2.3.4 1.1.3 1.8 0 2.3-.8-.5-.5-1-1-1.9-1.2zm-4.5 11.6c-.1.7.1 1.2.5 1.6 2.7.1 1.4-3.6-.5-1.6zm4.7 8c-.7 1.7 1.3 2.7 2 1.3.1-1-1.1-2.2-2-1.3zm8.2-8c-2.4-1.4-1.7 4.4.6 1.8-.4-.3-.2-1.6-.6-1.8zm5.3-16.4c-2.3-1.2-2.2 2.3-.2 2 .5-.5.6-1.5.2-2zm4.3 10.6c.3-1.6-2.4-1.2-1.3.7 1 .3 1.2 0 1.3-.7z"/><g fill="#026862"><path d="M80.2 300.5s-5.9 4.8-4.7 4.3c1.2-.4 5.9-3.1 5.9-3.1s-1.1 6.7-.7 7.4c.4.7 2.1-6.6 2.1-6.6s5.8 6.9 5 5.5c-.8-1.4-3.3-6.3-3.3-6.3s6.2 3.9 7 3.1c.8-.8-7.8-4.1-6.3-4.7 1.4-.6 9.6-2.7 9-2.9-.6-.2-5.4.5-8.8 1.5.4-2.7 2.7-10.2 1.3-8-1.4 2.2-2.2 6.1-2.9 6.3-.7.2-4.7-7.2-4.5-5.5.2 1.7 3.5 6.8 2.5 6.8s-7.3-1.1-7-.8c.3.5 7.3 2.4 5.4 3z"/><path d="M94.7 297.2l-.1.2c-.1.4-.1.4-4.9 1.8-1.6.5-3.3.9-4.1 1.2.5.4 1.8 1.1 2.8 1.7 1.4.8 2.8 1.5 3.2 2 .4.4.3.8.1 1.1-.8.7-3.5-.6-6.1-2.2.8 1.6 2 3.9 2.5 4.8.3.4.1.7-.1.8-.4.3-.7 0-1.6-1.1-1-1.1-2.6-3-3.5-4-1.4 5.9-1.9 6.1-2.1 6.1-.2.1-.4 0-.5-.2l-.1-.1c-.4-.7.1-4.2.5-6.8-1.4.8-4.2 2.3-5.1 2.6-.3.1-.5 0-.6-.1l-.1-.2v-.2c0-.2 0-.6 5-4.6-.7-.4-2.4-1-3.5-1.4-1.4-.5-1.7-.6-1.9-.8-.1-.2-.2-.4-.1-.6.2-.4.2-.4 4.8.2.9.1 1.8.3 2.3.3-.2-.6-.8-1.7-1.2-2.6-.7-1.4-1.4-2.8-1.5-3.6-.1-.5.1-.7.3-.7.4-.2.7.2.8.3.4.4 1 1.3 1.7 2.4.7 1.1 1.5 2.3 2 2.8l.1.1c.2-.4.5-1.2.8-2 .5-1.3 1-2.9 1.8-4 .2-.4.4-.6.7-.6.2 0 .3 0 .4.2.3.3.2.9-.7 4.6-.3 1.2-.6 2.5-.8 3.4 3.2-.8 7.6-1.5 8.4-1.3l.1.1.3.4zm-13.9-3c-.1-.1-.1-.2-.2-.3.2.4.4.7.5 1.1 1.1 2.3 1.5 3.2 1.2 3.7-.1.2-.3.3-.6.3-.4 0-1.5-.2-2.7-.4-.3 0-.6-.1-.9-.1 1.3.5 2.3.9 2.7 1.3.3.3.2.5.2.7-.1.2-.2.4-.5.5-1 .8-2.1 1.7-2.9 2.4 1.7-.9 3.6-2 3.6-2l.8-.5-.2 1c-.3 1.9-.6 3.9-.7 5.4.4-1.3.8-3.1 1.2-4.7l.2-.9.6.7 2.7 3.1c-.8-1.6-1.7-3.3-1.7-3.4l-.8-1.5 1.4.9c2.1 1.4 4.7 2.7 5.9 3.1-.6-.4-1.6-1-2.6-1.5-1.4-.8-2.8-1.5-3.3-2-.2-.2-.3-.5-.3-.7 0-.1.1-.4.4-.5.7-.3 2.5-.8 4.5-1.4.2 0 .3-.1.5-.1-1.5.3-3.1.6-4.5 1l-.7.2.1-.7c.1-1 .5-2.7.9-4.2.2-.7.3-1.4.5-2.1-.4.8-.7 1.7-1 2.5-.6 1.8-.9 2.5-1.5 2.7-.4.1-.7-.2-1-.5-.3-.8-1-2-1.8-3.1z"/></g><path d="M64.1 319.7c-.7 1.7 1.3 2.7 2 1.3 0-1-1.2-2.2-2-1.3zm-3.9-15c-.7 1.7 1.3 2.7 2 1.3 0-.9-1.2-2.1-2-1.3z"/></g><g><g fill="#365122"><path d="M35.9 798.1c.7-6.5 2.6-12.6 1.5-18.5-.5-2.5-1.3-4.9-.8-7.5.9.1 1.8-.7 2.6-.3.7.4 1.7 4.8 1.8 5.3 1.4 6.9-2.7 17.2-3.9 24"/><path d="M36.5 798.1l-1.8-.2c.2-1.9.5-3.8.8-5.6.7-4.4 1.4-8.5.7-12.6-.1-.6-.2-1.1-.4-1.7-.4-2-.9-4-.5-6.2l.2-1.1 1.1.2c.1 0 .4-.1.7-.2.6-.2 1.5-.5 2.3 0h.1c1.2.8 2.1 4.8 2.3 6 1 5.2-.8 11.9-2.3 17.9-.6 2.4-1.2 4.6-1.6 6.6l-2.2-.4c.2-.8.4-1.7.6-2.7zm1.6-25.2c-.2 0-.3.1-.5.2-.1 1.5.2 2.9.6 4.5.1.6.3 1.2.4 1.8.8 4.4.1 8.7-.7 13.3-.1.4-.1.9-.2 1.3 1.5-5.7 3.2-12.1 2.3-16.7-.2-1-.9-3.7-1.3-4.5-.3 0-.5.1-.6.1z"/></g><path fill="#E73267" d="M37.3 797.7s.1 0 .2-.1c1.5-.4 10.3-2.2 13 7.8 2.9 10.9-12.6 18.4-18 18.1-5.4-.3-16.7-1.9-19.7-13.3s9.4-24.9 18.4-17.1c.1.1 5.6 4.5 6.1 4.6z"/></g><path fill="#EDEEE2" d="M4.7 400.9s.2 0 1 .2 1.1.5 1.1.5-.4-3.8 1.5-8c.7-1.6 1.2-1.8 1.2-1.8s1.2.1 2.4 1.4c0 0 .2-2.2 1.1-4.5.9-2.2 2.7-3.9 2.7-3.9s1.4.3 1.9 1.2c.5.9-.4-1.1 1.7-4.4 2.1-3.3 4.6-4.5 4.6-4.5s1.3.2 2.2 1.2c0 0 .3-2 3-4.6 2.6-2.4 6.1-3.3 6.5-3.4.3.3 2.8 3 3.6 6.4.9 3.7.1 5.5.1 5.5 1.3-.3 2.5.3 2.5.3s1.4 2.4 1.5 6.3c0 3.9-1.8 5.1-.9 4.6s2.2 0 2.2 0 .6 2.4.2 4.8c-.4 2.3-1.4 4.4-1.4 4.4 1.7-.4 2.8.2 2.8.2s.3.5 0 2.2c-.7 4.6-3 7.5-3 7.5s.4 0 1.2.2c.8.2.9.4.9.4s.4.2-.6 2.5-4.7 6-4.7 6c1.4.6 2.8.6 1.8 2.2C38.6 429 34 433.5 29 437c-2.3 1.6-4.7 3-7.2 4.2-1.3.6-2.8 1.4-4.4 2 .7-2.3 1-2.9 1.2-3.6 2.4-8.3 2.6-13.5 2.3-19-3.3 4.4-5.9 8.8-8.3 17.1-.2.7-.3 1.4-.9 3.7-1-1.3-1.8-2.8-2.6-4-1.5-2.4-2.7-4.9-3.8-7.5-2.3-5.7-3.7-12-3.6-18.1 0-1.9 1.2-1.1 2.7-.9 0 0-1.1-5.1-.7-7.6.5-2.4 1-2.4 1-2.4"/></svg>