<svg class="{{ include.class }}" parallax="{{ include.parallax }}" alt="{{ include.alt }}" xmlns="http://www.w3.org/2000/svg" width="316.7" height="472.8" viewBox="0 0 316.7 472.8"><path fill-rule="evenodd" clip-rule="evenodd" fill="#2C9783" d="M183.5 113.1c0-15.8-4.7-30.8 4.9-46.1 13-20.7 7.5-46.3-11.2-67-17.7 24.7-19.9 49.5-2.1 75.3 2.5 3.7 2.5 9.4 2.9 14.2.6 7.8.5 15.6-.1 24.2-12.9-31.8-38.3-44.7-70.8-48 9.4 30.3 30.4 46.7 60.4 51.5 9.1 1.5 12.1 4.8 11.8 13.8-.4 11.5.4 23-.2 35.2-7.5-13.8-16.4-26-29.9-34.2-13.4-8.2-28.4-10.1-43.9-12 7.3 25.6 31.1 45 58.9 48.5 3.1.4 6.7-.1 9.1 1.4 2.9 1.8 6.4 5.1 6.7 8.1 1 13.3 1 26.8.5 41.1-14.5-32-40.8-44.7-73.7-46.2 5.6 23.3 28 42.3 56.1 47.5 17.7 3.3 17.7 3.3 19.1 20.6.1 1.2.5 2.3 2.7 3.6.3-4 1-8 .7-11.9-.7-7.4 2.6-10.9 9.7-12.1 18-3 34.7-9.1 46.5-23.7 6.5-8.1 11.4-17.4 18.4-28.3-35.2 3.6-60.8 16-74.6 48.4-.4-14.3-1.1-28.6-.7-42.9 0-1.9 5.3-4 8.5-5.4 12.8-5.4 26.5-9.2 38.2-16.3 12.9-7.7 20-20.9 24.8-36.1-32.4 3.5-57.7 16.1-71.9 47.6-.4-13.9-1.1-27.8-.7-41.7 0-1.8 5.6-4.3 8.8-5 30.3-6.3 51-23.4 60.5-54.4-32.2 4.8-57.6 17.6-69.4 50.3z"/><path fill-rule="evenodd" clip-rule="evenodd" fill="#4356A0" d="M136.4 392.2h89.4l25.1-139.6H111.3"/><path fill-rule="evenodd" clip-rule="evenodd" fill="#D49523" d="M97.3 229.1h170V258h-170z"/><path fill-rule="evenodd" clip-rule="evenodd" fill="#5AC1AE" d="M68.4 248.3c.2-13.7.1-28.1.7-42.4.2-3.7 1.9-7.7 3.9-10.9 5.2-8.3 14-7.9 17.5 1.2 2.5 6.4 4 13.6 4.1 20.4 0 10.5-1.6 20.9-2.5 31.4l-.4 4.6c4.9-7 8.7-13.3 13.4-18.9 5.6-6.6 11.7-12.8 18.2-18.5 4.2-3.7 10.4-6.5 15.3-2.4s1.9 10.1-.7 14.8c-8.6 15.9-20.9 28.5-35.1 39.6-1.5 1.1-2.9 2.3-4.3 3.5-.2.2-.2.7-.1.3 12-3 24.3-6.5 36.7-9.1 5.6-1.2 11.6-1.2 17.2-.4 3.2.4 6.1 3.5 9.1 5.3-2.2 2.5-4 6.5-6.7 7.2-13.5 3.5-27.2 6.6-40.9 8.8-7.4 1.2-15.1 0-23 1 5.2 3 10.9 5.4 15.6 9 6.4 4.8 12.2 10.4 18.1 15.8 1.5 1.3 2.8 3.3 3.2 5.2.5 2.5 1.1 6-.2 7.5-1.2 1.4-5.1 1.6-7.3.9-11-3.7-18.7-11.9-25.9-20.5-3.9-4.7-7.2-9.9-12.1-14.9-.2 17.6-.5 35.2-.7 52.8h-2.2c.2-17.5.5-35 .7-53-6.8 7.9-12.4 15.5-19.1 21.9-5.1 4.9-11.4 8.8-17.7 12.2-2.3 1.3-6.1-.2-9.2-.4.4-3.1-.2-6.9 1.4-9.2 7.5-11.1 18.2-18.4 30.1-24 1.4-.7 2.8-1.4 4.1-3.3-2.1 0-4.3-.1-6.4-.1-16 .2-31.8-1.3-47-6.4-4.8-1.6-9.6-4-13.7-7-4.2-3.1-3.5-7.5 1.5-8.7 5.5-1.3 11.7-2.1 17-.9 13.6 3.2 26.9 7.7 40.3 11.7 1.3.4 2.6 1 3 1.2-8.8-9.2-18.6-18.3-27.1-28.5-5.2-6.2-9.2-13.7-12.6-21.1-1.4-2.9-1-8.8 1-10.6 2.1-1.8 8.1-1.7 10.6.1 6.5 4.5 12.6 10 17.9 15.9 5.8 5.9 10.1 13 14.3 18.9z"/><path fill-rule="evenodd" clip-rule="evenodd" fill="#EC7134" d="M47.4 403.9H114l18.7-104h-104"/><path fill-rule="evenodd" clip-rule="evenodd" fill="#CC7428" d="M18.3 282.4H145v21.5H18.3z"/><path fill="#AAA" d="M177.1 452.7l.2-.1.1-.1c11.3-4.9 12.6-20.8 13.3-29.4.1-1.3.2-2.7.3-3.4 2.2-2.2 14.3-6.9 24.8-10l3.2-1-5.1-14.4-3.1 1.3c-10.1 4.1-22.6 8-25.6 7.7-.5-.5-1.5-1.5-2.4-2.5-5.9-6.3-16.9-17.9-28.8-14.6l-55.6 19.5-12.9 9.7 1.8 5.2 16.2-.5 34-12 3.2-1.1c3.2-1.1 6.6.6 7.7 3.8 1.1 3.2-.5 6.6-3.6 7.8l-37.2 13.1-12.9 9.7 1.8 5.2 16.2-.5 37-13.1c3.2-1.1 6.7.6 7.8 3.8 1.1 3.2-.5 6.6-3.6 7.8l-37.2 13.1-12.9 9.7 1.8 5.2 16.2-.5 55.3-19.4z"/><path fill-rule="evenodd" clip-rule="evenodd" fill="#5B5B5C" d="M215.6 406.1c.7-.2 1.1-.9.9-1.5l-1.6-4.7c-.2-.6-.9-.9-1.6-.7L183 409.7c-.7.2-22.1 9.8-21.9 10.4l.6 1.1c.2.6 23-4.5 23.6-4.7l30.3-10.4z"/><path fill="#CC7428" d="M220.2 412.4c-1.7.6-3.5-.3-4.1-1.9l-5.5-15.7c-.6-1.7.3-3.5 1.9-4l94.3-33.2c1.7-.6 3.5.3 4 1.9l5.5 15.7c.6 1.7-.3 3.5-1.9 4.1l-94.2 33.1z"/></svg>