<svg class="{{ include.class }}" parallax="{{ include.parallax }}" alt="{{ include.alt }}" xmlns="http://www.w3.org/2000/svg" width="877.9" height="1570.4" viewBox="0 0 877.9 1570.4"><path fill-rule="evenodd" clip-rule="evenodd" fill="#2C9783" d="M602.4 371.2c.1-51.8-15.5-101.1 15.9-151.4C660.8 151.7 643 67.8 581.6 0c-58.1 81.1-65.5 162.6-6.7 247.3 8.4 12 8.3 30.8 9.5 46.7 1.9 25.5 1.7 51.1-.2 79.6C541.7 269 458.4 226.7 351.7 216c31 99.5 99.8 153.2 198.4 169.3 29.9 4.9 39.9 15.8 38.9 45.2-1.3 37.8 1.4 75.7-.5 115.5-24.6-45.2-54-85.3-98.2-112.3-44.1-27-93.4-33.1-144.1-39.4 23.8 84.2 102.2 147.9 193.4 159.3 10.1 1.3 22.1-.3 30 4.6 9.4 5.9 21.1 16.9 21.9 26.5 3.4 43.8 3.3 87.8 1.8 134.8-47.7-105.2-133.9-146.8-241.9-151.7 18.5 76.5 91.9 138.9 184.2 155.9 58 10.7 58 10.7 62.6 67.6.3 3.9 1.7 7.6 8.8 11.9.9-13 3.4-26.2 2.3-39-2.1-24.3 8.5-35.7 31.9-39.6 59-9.7 113.8-29.8 152.6-77.7 21.4-26.4 37.6-57.2 60.5-92.8-115.6 11.9-199.8 52.5-245.1 158.8-1.2-47-3.6-94-2.4-140.9.2-6.2 17.5-13.3 27.8-17.7 41.9-17.9 86.9-30.3 125.6-53.4 42.2-25.1 65.8-68.6 81.3-118.7C735 393.6 652 435 605.4 538.4c-1.2-45.7-3.5-91.4-2.2-137.1.2-5.9 18.2-14.2 29-16.4 99.6-20.8 167.3-76.7 198.8-178.8-106.3 15.8-189.8 57.8-228.6 165.1z"/><path fill-rule="evenodd" clip-rule="evenodd" fill="#4356A0" d="M448 1287.9h293.3l82.6-458.6H365.4"/><path fill-rule="evenodd" clip-rule="evenodd" fill="#D49523" d="M319.6 752.4h558.2v94.9H319.6z"/><path fill-rule="evenodd" clip-rule="evenodd" fill="#5AC1AE" d="M224.8 815.4c.6-45 .4-92.2 2.4-139.2.5-12.2 6.1-25.3 12.7-35.9 17-27.3 45.9-25.9 57.5 4 8.1 21.1 13.3 44.6 13.4 67.1.2 34.3-5.2 68.7-8.2 103-.3 3.8-.7 7.5-1.3 15 16.1-23 28.6-43.8 44.1-62 18.4-21.5 38.4-42.1 59.7-60.7 13.9-12.1 34.3-21.4 50.1-8 16 13.5 6.1 33.3-2.2 48.7-28.2 52.2-68.8 93.7-115.2 130-4.8 3.7-9.6 7.5-14.3 11.4-.7.6-.5 2.3-.3 1.1 39.5-10 79.7-21.5 120.5-29.9 18.3-3.8 38.1-3.8 56.6-1.3 10.6 1.4 20 11.4 30 17.5-7.3 8.2-13.2 21.4-22 23.7-44.4 11.4-89.2 21.8-134.4 28.9-24.2 3.8-49.6.1-75.4 3.2 17.2 9.7 35.7 17.8 51.4 29.6 21 15.7 40.2 34 59.6 51.8 4.8 4.4 9.2 10.8 10.6 17 1.8 8.1 3.6 19.8-.6 24.6-4.1 4.6-16.8 5.3-24.1 2.9-36.2-12-61.3-39.1-85-67.2-12.9-15.3-23.6-32.6-39.6-49-.8 57.8-1.5 115.5-2.3 173.3-2.4 0-4.8-.1-7.3-.2.7-57.4 1.5-114.8 2.3-174-22.2 25.9-40.6 50.8-62.7 71.9-16.9 16.1-37.6 28.8-58.2 40-7.6 4.1-19.9-.5-30.1-1.2 1.3-10.2-.6-22.7 4.5-30.3 24.6-36.3 59.7-60.4 98.9-78.9 4.6-2.2 9.2-4.5 13.4-10.8-7-.1-14-.4-21-.3-52.6.8-104.4-4.2-154.4-21.1-15.8-5.3-31.4-13.1-44.8-22.9-13.8-10.1-11.4-24.8 5-28.5 18-4.2 38.4-7 55.9-2.9 44.7 10.5 88.3 25.2 132.3 38.4 4.3 1.3 8.4 3.4 10 4-29-30.1-60.9-60.1-89-93.4-17.2-20.4-30.2-45-41.5-69.3-4.4-9.7-3.3-28.9 3.3-34.7 6.8-6 26.5-5.5 34.9.3 21.4 14.8 41.3 32.8 58.7 52.2 17.9 19.5 32.1 42.8 46.1 62.1z"/><path fill-rule="evenodd" clip-rule="evenodd" fill="#EC7134" d="M155.7 1326.4h218.6l61.5-341.6H94.2"/><path fill-rule="evenodd" clip-rule="evenodd" fill="#CC7428" d="M60.1 927.5H476v70.7H60.1z"/><g><path fill="#AAA" d="M399.3 1499.4l.5-.2.4-.2c38.2-16.9 41.8-71.1 43.7-100.3.3-4.5.6-9.1 1-11.6 7.2-7.4 48.3-23.9 83.5-35.1l10.9-3.5-17.8-48.6-10.5 4.4c-34.1 14.2-76.1 28.2-86.4 27.2-1.9-1.6-5.1-5-8.2-8.2-20.3-21-58-60.1-98.1-48.3l-187.5 68.4-43.4 33.6 6.4 17.6 54.8-2.4 114.6-42 10.7-3.9c10.7-3.7 22.5 1.9 26.4 12.5 3.9 10.6-1.5 22.4-11.9 26.6L163 1431.3l-43.4 33.5 6.4 17.6 54.8-2.4 124.9-45.9c10.8-4 22.8 1.6 26.7 12.4 3.9 10.6-1.5 22.4-11.9 26.6l-125.4 46-43.4 33.5 6.4 17.6 54.8-2.4 186.4-68.4z"/><path fill-rule="evenodd" clip-rule="evenodd" fill="#5B5B5C" d="M527.8 1339.7c2.3-.8 3.5-3.1 2.8-5.1l-5.7-15.8c-.7-2-3.1-3-5.4-2.2l-102.1 36.6c-2.3.8-74.6 34.1-73.9 36.1l2.2 3.8c.7 2 77.7-16 79.9-16.9l102.2-36.5z"/><path fill="#CC7428" d="M543.7 1361.1c-5.6 2-11.8-.8-13.8-6.4l-19.4-53c-2-5.6.8-11.8 6.4-13.8l318.2-116.5c5.6-2 11.8.8 13.8 6.4l19.4 53c2 5.6-.8 11.8-6.4 13.8l-318.2 116.5z"/></g></svg>