<svg class="{{ include.class }}" alt="{{ include.alt }}" parallax={{ include.parallax }} xmlns="http://www.w3.org/2000/svg" viewBox="0 0 411.9 533.3"><path fill="#008C6F" d="M207 322s-36.4-28.7-30-139c6-110.6 27.6-140.6 27.3-183 .3 42.4 22.3 72 30.4 182.4C242.7 292.8 207 322 207 322zm26.2 61.6s44-14.8 75-121c31-106 21-141.5 35.5-181.5-14.6 40-45.2 61-90 162-44.5 101-20.5 141-20.5 141zm-1.2 89.6s46.3-4 101.8-99.5c55.5-95.6 54.2-132.5 78-167.8-23.8 35-58.5 48-126 135-67.6 88-53.8 132-53.8 132zM181.6 384s-44.2-14-77-119.7C71.8 158.7 81.4 123 66.2 83.3c15.2 39.7 46.2 59.8 92.5 160.2C205 344 181.7 384 181.7 384zm2.6 89.6s-46.2-3-103.3-98C23 281 24 244.2 0 209.3c24.3 35 59 47 128 133.5 69 86.4 56 131 56 131z"/><path fill="#010101" stroke="#010101" stroke-width=".7" stroke-miterlimit="10" d="M.3 209.2c3 4.3 6 8.2 9.4 12l174.7 251.2c12.3 19.3 20 24 23 24.3l-.5-76c-13-7-25-34-27-37L71 97.7c-1.2-5-2.8-9.7-4.6-14.7 2 4.8 4 9.4 6.3 13.8L182 382.6c0 .3 12.3 28.3 25 36l-1-99.7-2.3-304c.5-5 .8-10 .8-16 0 5.2.4 10.2 1 15l2.5 307v1l.8 96.3c12.4-8 24-36 24-36.3L338 95c2-4.5 4.2-9 6-14-2 5-3.3 9.8-4.5 14.6L234.3 383c-1.4 3.3-13 30.2-25.6 37.5l.6 76c3-.5 10.7-5.5 22.5-24.6l170.7-255c3.3-4 6.3-8 9.2-12-3 4-5.4 8-7.7 13L233.5 472c-1.8 2.8-15.7 25-24.2 25.7l.3 34.4h-1.8l-.3-34c-8.5 0-23-22.2-24.8-25L8.2 222c-2.4-4.5-5-8.8-8-13z"/></svg>