<svg class="{{ include.class }}" alt="{{ include.alt }}" parallax={{ include.parallax }} xmlns="http://www.w3.org/2000/svg" viewBox="0 0 629.1 590.8"><path fill="#AA998F" d="M240.8 284.2s-26.1 76.2-43.3 136.2c-17.2 60-53.9 19.2-67.8-.3-13.9-19.4-53.6-149.3-57.7-158.4-4.1-9.1-33.8-7.6-42.4-15.5-8.6-7.9-7.8-17.6-7.9-28.2-.1-10.6 6.3-19.7 10.7-20.9 4.5-1.2-1.6 15.6 8.1 22.3 9.7 6.7 11.3 7.8 3.4-5.3s-8.7-15.2-6.2-17.3c2.5-2.1 15.5 16 27.7 23.9 12.2 7.9 9.6 6.3 18.2 16.7 8.6 10.4 34.7 70.7 34.7 70.7l34.2 76.2s22.1-80 24.1-81.1"/><path fill="#EC7134" d="M623.7 464.7c-36.4-39.2-208.9-14.9-208.9-14.9s4.9-7.7 1.7-7.4c-3.1.3 1-1.4-3.1-4.2-4.2-2.8-11.2-40.3-11.2-40.3s-105.3 39.5-173.8 0c-5-2.9-23.5 48-26.7 48.7-3.1.7 0 6.3 0 6.3-1.7 1-45.3-1-70.9-5.9-25.5-5-143.6-38.2-129.7 17.7 14 55.9 170.1 92.5 170.1 92.5-1.5-11.8-.4-20.4 1.6-26.8 42.8 14.8 92.3 14.6 135.7 15.4 35.1.6 91.6-14.4 144.6-31.7-5 24.2 8.2 35.4 10.6 35.9 2.8.7 57.3-8.4 93-18.9 100.8-27.2 67-66.4 67-66.4z"/><path fill="#AA998F" d="M456.5 502.7s-71.1 33-92.4 23.6c-6.3-6.6-16.4-17.3-27.3-10.9-10.8 6.4-34.3 15-53.5 12.6-19.2-2.4-23.1-6.9-40.6 11.9.4.6.7 1.2 1.1 1.7-5.4-.5-9.6-.7-11.6-.7-7 0-50.1-24.7-50.1-24.7-10.2 6.1-11.6 28.2-11.9 38 10 1.4 67.1 19.6 90.9 27.7 23.8 8.2 75.3 10 81.6 8.2 6.3-1.9 12.8-8.9 15.2-9.1 2.3-.2 1.9-6.1 4.2-6.5 2.3-.5.9-4.2 3-4.9 2.1-.7 7.4-7.3 0-14.9 24.4.6 44.5 1.1 49.7 1.3 15.4.3 48.4-7 48.4-7-20.6-12.4-6.7-46.3-6.7-46.3z"/><path fill="#AA998F" stroke="#AA998F" stroke-width="1.15" stroke-miterlimit="10" d="M382.7 284.2s26.1 76.2 43.3 136.2c17.2 60 53.9 19.2 67.8-.3 13.9-19.5 53.6-149.3 57.7-158.5 4.1-9.1 33.8-7.6 42.4-15.5 8.6-7.9 7.8-17.6 7.9-28.2.1-10.6-6.3-19.7-10.7-20.9-4.5-1.2 1.6 15.6-8.1 22.3-9.7 6.7-11.3 7.8-3.4-5.3s8.7-15.2 6.2-17.3c-2.5-2.1-15.5 16-27.7 23.9-12.2 7.9-9.6 6.3-18.2 16.7C531.1 247.7 505 308 505 308l-34.2 76.2s-22-80-24.1-81.1"/><path d="M309.3 113.9c28-12.3 51.1-66.1 51.1-66.1l6.4.3s10 17.5 6.2 31.8c-3.8 14.2 4.9 32.8 6.8 35.7 1.9 2.8-1.9 5.7-3.8 6.2s-6.8.9-6.8 3.8c0 0 3.7 1.5 0 3.1-5 2.2 1.5 5.9-1.5 7.1-3 1.1-3.4 16.6-12.1 15.8-8.7-.8-14.9-1.1-26.1-7-11.2-5.9-8.1 29.4-7.7 36.6 0 0-14.3 67.1.8 67.1 15.1 0 72.6-7.1 72.6-7.1-25.6-34.2-4.4-74.9 13.6-126.6 18-51.8-24.1-87.6-24.1-87.6-112.6-75.5-173.8 27-155.4 63.8"/><path fill="#AA998F" d="M323.6 183.6c-.4-7.4-6.4-43.6 5.1-37.6s17.9 6.4 26.8 7.1c8.9.8 9.3-15.1 12.4-16.3 3.1-1.2-3.6-5 1.5-7.3 3.7-1.6 0-3.2 0-3.2 0-2.9 5-3.4 7-3.9s5.9-3.4 3.9-6.3c-1.9-2.9-10.9-22-7-36.6 3.9-14.6-6.3-32.6-6.3-32.6l-6.6-.4s-23.7 55.2-52.5 67.8c-28.8 12.7-11.6 41.7-10.6 58.3l-.2 17.5 26.5-6.5z"/><path fill="#FFB01E" d="M474.9 359.9s-44.9-101.8-51.7-126c-6.8-24.2-94-37.3-94-37.3l8-28.9-69.1-4.9-12.1 34.5s-58.2 16-58.2 22.7l-48.2 139.9h52.2l-28.4 99.6 138.9 8.5 121.3-9.3-13.9-98.8h55.2z"/><path d="M230 82.3c0 28.5-48.6-9.3-68.5 52.2-11.1 34.5 13.9 77.6-15.6 111.8s7.7 102.1 59.9 85.9c52.2-16.1 40.8-73.6 44.2-102.6 35.6-.5 49.9-42.7 48.9-58.9-1-16.1-17.6-44.4 10.4-56.8m58.5-31.8s-12.2-2.2-21.2.2c0-.3 0-.3 1.3-2.1s15.2-2.7 18.7-1.5c3.4 1.1 1.2 3.4 1.2 3.4zm-.4 10s.1-.5-4.9-1.3c-1.4-.2.2.5-1.6.2-1.8-.4-8.4-2.6-8.4-2.6s-5.7-.6-1.2 1.2c4.5 1.8 10.8 5.5 11.9 4.1 1.1-1.4 3 1.5 3.8-.3.5-1.1.4-1.3.4-1.3z"/></svg>