<svg class="{{ include.class }}" alt="{{ include.alt }}" parallax={{ include.parallax }} xmlns="http://www.w3.org/2000/svg" viewBox="0 0 585 701.2"><path fill="#F7F6F5" d="M371.2 164.9c-.3 3.1-6.6 12.5-9 13.6-.3.1-.6.2-.9.4-2.2.8-4.6 1-6.3 1-2.9.1-5.4-.6-6.7-1-3-.9-4.3-15.5-4.3-15.5s-9.4 1.4-13.1 1.3c-3.7 0-6.3-1.4-3.8-5.3s12.6-20.9 13-29.5c.3-8.6-5.9-58.2-5.9-58.2s-4.6-17.2 23.2-25.5C385.2 37.7 483 67.1 483 67.1l-18.7 52.1-1 8.4 5 8.6c-3.1-10.3 2.3-11.7 11-15 8.6-3.3 4.7 45.7 4.2 65.8-.4 20.1 8.5 68.7 8.5 68.7l-72 42.5s-6.1-51.7-10.1-67.2c-6.2-1-10.3-13.3-10.3-13.3s-2.8-3.4-10.2-3.9c-24.8 9-28.4-6.5-28.4-6.5s-9.5-19.7-9.8-22.2c-.1-1.2 9.6.6 12.2-.8 0 0 7.1-10.1 7.2-11.7"/><path fill="#AAA" d="M484.4 164.9c49.6-8.1 36.4-81.6 33.9-89.5-2.5-7.9-4.2-9.8-2.5-16.9 1.8-39-26.9-39.8-32.5-38.8-5.6 1-5.4-.7-8.3-4.9-15.8-19.2-33.3-6-36.2-2.5-2.9 3.6-5 3-8.2-.4-18.9-25.5-38.3-2.7-43.7.3-5.4 3-5.1 2.1-10.6-.1-28.4-18-36.9 6.6-36.9 6.6s-22-15.8-36.2 1.6c-14.2 17.4 3.2 27.5 3.4 33.2 8.1 27.8 60.4 15.5 76.5 13.1 5.4 17.4 35.6 20.9 47.3 15.2 1.6 52.6 28.3 40.2 28.3 40.2l5.6 15.5 4-1.2s-3-8.1 1.2-10.4c4.2-2.3 15.4-13.8 15.2 10.6-.1 24.4-.3 28.4-.3 28.4z"/><path fill="#5C5C5C" d="M348.3 111.7s26.2-5.4 44.1-.6c4.5 1.7 7.9 3 5.4-.5-2.5-3.6-40-7.9-46.9-5.6-6.9 2.2-2.6 6.7-2.6 6.7z"/><path d="M349.6 135.3s0-.7 6.9-.1c1.9.2-.4.7 2.1.7s11.9-.9 11.9-.9 7.7 1 1.3 1.9c-6.4 1-15.9 4-17 1.7-1-2.3-4.4 1.1-5-1.5-.3-1.7-.2-1.8-.2-1.8z"/><path fill="#F68769" d="M535.1 634.4l-162 42.4s-59.6-19.4-58.4-30c1.2-10.7 19.7-157.1 19.7-146.5 0 10.7-26.5 162.9-42.2 180.4-15.7 17.5-24.8 15.6-24.8 15.6l-25.6-68.9-80.5-195.9 47.5-25.2 52.4 98s40.7-149.4 49.5-184.3c8.7-34.9 98.9-49.5 98.9-49.5l-.4-12 96.2-63.2-1.6 76.2s74.9 23.3 74.9 33 21.1 316.2-12.8 346.2c-34.2 30-203.9 45.5-203.9 45.5l-5.8-45.6s131.9-35.9 144.5-58.2c12.6-22.3 40.7-191.1 40.7-191.1L498.8 595"/><path fill="#AEBCBC" d="M202.9 414.5s.8 6 0-8.8-31-28.9-44.5-32.9c-13.5-4.1 11.8 21.6 19.6 26.5 7.8 4.9-54.7-18.4-60-20-5.3-1.6-3.3 7.3-6.1 4.1-2.9-3.3-18.4-15.9-7.3 6.9 11 22.9 64.9 39.2 64.9 39.2l33.4-15z"/><g fill="#FFB01E"><path d="M139.8 393.9c-66.8 0-121 43.1-121-111 0 0-8.2-15.2 4.2-15.2h109.6"/><path d="M122.3 393.9c66.8 0 121 43.1 121-111 0 0 8.2-15.2-4.2-15.2H129.5"/></g><g fill="#5AC1AE"><path d="M180.8 167.3s-.5-.3-2.4-.3-2.8.3-2.8.3 3.4-8.4 1.9-19.2c-.6-4.1-1.5-5-1.5-5s-2.9-.6-6.5 1.4c0 0 .9-5.3.4-10.9-.6-5.7-3.6-10.7-3.6-10.7s-3.4-.2-5.1 1.5c-1.7 1.7 1.7-2.3-.9-11.1-2.6-8.9-7.5-13.4-7.5-13.4s-3.1-.4-5.8 1.1c0 0 .8-4.7-3.8-12.4-4.2-7.2-11.6-11.7-12.5-12.2-.9.5-8.3 4.9-12.5 12.2-4.5 7.7-3.8 12.4-3.8 12.4-2.7-1.6-5.8-1.1-5.8-1.1s-4.9 4.5-7.5 13.4c-2.6 8.9.8 12.8-.9 11.1-1.7-1.7-5.1-1.5-5.1-1.5s-3 5.1-3.6 10.7c-.6 5.6.4 10.9.4 10.9-3.6-2-6.5-1.4-6.5-1.4s-.9.8-1.5 5c-1.5 10.8 1.9 19.2 1.9 19.2s-.9-.3-2.8-.3-2.4.3-2.4.3-1 .2-.2 6.1c.8 5.8 6.6 16.8 6.6 16.8-3.6.4-6.8-.5-5.7 3.8 3.8 14.1 11.2 27.4 20.2 38.8 4.1 5.2 8.7 10.1 13.6 14.5 2.5 2.3 5.5 5.1 8.6 7.5-.2-5.6-.4-7.3-.4-9.1 0-20.6 3.1-32.6 7.5-44.7 4.5 12.2 7.5 24.2 7.5 44.7 0 1.8-.2 3.5-.3 9.1 3.1-2.4 6-5.2 8.6-7.4 4.9-4.4 9.5-9.3 13.6-14.5 9-11.4 16.3-24.8 20.2-38.8 1.2-4.3-2.1-3.4-5.7-3.8 0 0 5.8-10.9 6.6-16.8.5-5.9-.5-6.2-.5-6.2m71.5 26.4s-.2-.3-1.1-1c-.9-.7-1.5-.8-1.5-.8s4.6-2.9 7.6-8.8c1.2-2.2 1-3 1-3s-1.2-1.3-3.7-1.6c0 0 2.3-2.3 4-5.2 1.7-3 2-6.5 2-6.5s-1.6-1.3-3-1c-1.4.2 1.6-.5 3.4-5.8 1.8-5.3 1-9.2 1-9.2s-1.4-1.3-3.3-1.5c0 0 2-2.1 2.5-7.4.4-5-1.7-9.8-1.9-10.4-.6-.1-5.8-.5-10.4 1.6-4.9 2.2-6.2 4.8-6.2 4.8-.8-1.7-2.5-2.6-2.5-2.6s-4 .5-8.4 4c-4.4 3.4-4.1 6.6-4.3 5.1-.2-1.4-2-2.5-2-2.5s-3.3 1.5-5.5 4c-2.2 2.6-3.6 5.5-3.6 5.5-1.1-2.2-2.7-2.9-2.7-2.9s-.7.1-2.5 1.9c-4.5 4.8-5.8 10.1-5.8 10.1s-.4-.5-1.3-1.1c-.9-.7-1.3-.7-1.3-.7s-.6-.2-2.2 2.9c-1.7 3.1-2.6 10.5-2.6 10.5-1.9-1-3.2-2.6-4.1-.1-3 8.3-4.1 17.4-3.6 26.1.2 4 .8 8 1.6 11.9.5 2 .9 4.4 1.6 6.7 1.9-2.8 2.3-3.7 3-4.6 7.2-10.1 12.9-14.9 19.3-19.4-2 7.6-4.7 14.5-11.9 24.6-.6.9-1.3 1.7-3.3 4.4 2.3-.1 4.8-.4 6.8-.7 4-.5 7.9-1.3 11.7-2.4 8.4-2.5 16.7-6.5 23.4-12.1 2.1-1.7.2-2.4-1.5-3.8 0 0 6.7-3.3 9.1-5.9 2.6-2.7 2.2-3.1 2.2-3.1"/><path d="M81.4 167.3s.5-.3 2.4-.3 2.8.3 2.8.3-3.4-8.4-1.9-19.2c.6-4.1 1.5-5 1.5-5s2.9-.6 6.4 1.4c0 0-.9-5.3-.4-10.9.6-5.7 3.6-10.7 3.6-10.7s3.4-.2 5.1 1.5c1.7 1.7-1.7-2.3.9-11.1 2.6-8.9 7.5-13.4 7.5-13.4s3.1-.4 5.8 1.1c0 0-.8-4.7 3.8-12.4 4.2-7.2 11.6-11.7 12.5-12.2.9.5 8.3 4.9 12.5 12.2 4.5 7.7 3.8 12.4 3.8 12.4 2.7-1.6 5.8-1.1 5.8-1.1s4.9 4.5 7.5 13.4c2.6 8.9-.7 12.8.9 11.1 1.7-1.7 5.1-1.5 5.1-1.5s3 5.1 3.6 10.7c.6 5.6-.4 10.9-.4 10.9 3.6-2 6.5-1.4 6.5-1.4s.9.8 1.5 5c1.5 10.8-1.9 19.2-1.9 19.2s.9-.3 2.8-.3 2.4.3 2.4.3 1 .2.2 6.1c-.8 5.8-6.6 16.8-6.6 16.8 3.6.4 6.8-.5 5.7 3.8-3.8 14.1-11.2 27.4-20.2 38.8-4.1 5.2-8.7 10.1-13.6 14.5-2.5 2.3-5.5 5.1-8.6 7.5.2-5.6.4-7.3.4-9.1 0-20.6-3.1-32.6-7.5-44.7-4.5 12.2-7.5 24.2-7.5 44.7 0 1.8.2 3.5.3 9.1-3.1-2.4-6-5.2-8.6-7.4-4.9-4.4-9.5-9.3-13.6-14.5-9-11.4-16.3-24.8-20.2-38.8-1.2-4.3 2.1-3.4 5.7-3.8 0 0-5.8-10.9-6.6-16.8-.4-5.9.6-6.2.6-6.2M9.9 193.7s.2-.3 1.1-1c.9-.7 1.5-.8 1.5-.8s-4.6-2.9-7.6-8.8c-1.2-2.2-1-3-1-3s1.2-1.3 3.7-1.6c0 0-2.3-2.3-4-5.2-1.7-3-2-6.5-2-6.5s1.6-1.3 3-1c1.4.2-1.6-.5-3.4-5.8-1.8-5.3-1-9.2-1-9.2s1.4-1.3 3.3-1.5c0 0-2-2.1-2.5-7.4-.4-5 1.7-9.8 1.9-10.4.6-.1 5.8-.5 10.4 1.6 4.9 2.2 6.2 4.8 6.2 4.8.8-1.7 2.5-2.6 2.5-2.6s4 .5 8.4 4c4.4 3.4 4.1 6.6 4.3 5.1.2-1.4 2-2.5 2-2.5s3.3 1.5 5.5 4c2.2 2.6 3.6 5.5 3.6 5.5 1.1-2.2 2.7-2.9 2.7-2.9s.7.1 2.5 1.9c4.5 4.8 5.8 10.1 5.8 10.1s.4-.5 1.3-1.1c.9-.7 1.3-.7 1.3-.7s.6-.2 2.2 2.9c1.7 3.1 2.6 10.5 2.6 10.5 1.9-1 3.2-2.6 4.1-.1 3 8.3 4.1 17.4 3.6 26.1-.2 4-.8 8-1.6 11.9-.5 2-.9 4.4-1.6 6.7-1.9-2.8-2.3-3.7-3-4.6-7.2-10.1-12.9-14.9-19.3-19.4 2 7.6 4.7 14.5 11.9 24.6.6.9 1.3 1.7 3.3 4.4-2.3-.1-4.8-.4-6.8-.7-4-.5-7.9-1.3-11.7-2.4-8.4-2.5-16.7-6.5-23.4-12.1-2.1-1.7-.2-2.4 1.5-3.8 0 0-6.7-3.3-9.1-5.9-2.6-2.7-2.2-3.1-2.2-3.1"/></g><path fill="#AEBCBC" d="M204.3 617.6c1.1 5.9 18 24.3 51.5 32-16.5-5.1-31-9.9-37.3-8.7-6.4 1.2 26 22.3 53 26.1 27.1 3.8 45.2 3 57 7.4 1.5.6 26.8 22 39.3 26.8l6.3-63c-9.6-2.4-16.1 7.5-18.8 7.1-24.3-4-34.4-29.9-44.8-38.7-10.3-8.9-43.6-21-47.5-14.4 0 0 15.7 15.6 37.4 21.2 0 0 7.4 1.3 4.2 2.2-3.2.9-29.1-3.3-29.1-3.3-4.8-2.3-38-22.1-43-24.2-5-2.2-12.2.4-7.8 5.3 4.4 4.9 43.4 29.5 53.5 32.2-11.7-1.5-51.7-19.9-57.6-27-1.8-2.2-16-4.7-6.9 8.2C223 619.6 254 635 264.1 638c-6.5-.9-43.2-14.5-48.3-19.5-1.6-1.9-12.6-6.8-11.5-.9"/></svg>