<svg class="{{ include.class }}" alt="{{ include.alt }}" parallax={{ include.parallax }} xmlns="http://www.w3.org/2000/svg" width="491.5" height="767.7" viewBox="0 0 491.5 767.7"><path fill="#F7F6F5" d="M167.5 288.9l-29.7-94.5 47-144.3 119.7 10.2s3.1 41.4-4.1 60.7l8.3 45.3s-2.5 2.8-10.4 1.9c-7.9-.9-2 5.1-2 5.1s-9.8 16.1-30.4 7.6c-20.5-8.5 18.6 14.8 19.6 11.6 0 0 1.2 19.5-9.2 21.4l-49.6 9.1-37.2 64.9c-25.9 8.3-22 1-22 1"/><path fill="#5AC1AE" d="M285.5 707.2l-1.6-80.3c24.7-150.7-44.5-291.3-46.5-306.2-1.9-15-152.8-33.2-152.8-33.2s-109.4 101.1 6.7 480.2"/><path fill="#5C5C5C" d="M262.1 119.7s23-6.2 27.7-5.1c4.7 1.2 17.8-.3 9-7.2-3.1-2.1-31.3 2.6-34.2 6.2-2.9 3.7-2.5 6.1-2.5 6.1z"/><path fill="#5AC1AE" d="M245.1 270.9l-20.7 52-76-13.8s-42-92.5 14.6-77.4l55 17.3c0-.1 37.5 9.5 27.1 21.9z"/><path fill="#AAA" d="M56.8 146.9c69.2-28.2-4-45.6 51.1-81.2 6-117.8 177.4-39.9 184.1-46.5 6.7-6.5 42-32.8 54.7 3.3 12.7 36.1-42.5 40.9-42.5 40.9s-8.8 35-36.5 40.9c-1.7 8.8-7 44.1-44.1 47.2-2 14.8 18.9 93.2-62.8 85.5 0 0 55.3 121.9-39.4 99.9 1.8 7-13.1 62.2-79.1 47.7-39-8.5-62.3-71.9-18.5-98.6-.1 0-60.7-101 33-139.1z"/><path fill="#F7F6F5" d="M92.7 623.9c2.2-11.6 48.1-110.5 57.4-211.1 9.3-100.6-34.1-110.4-34.1-110.4-36.3-6.5-58.2 150.8-58.2 150.8S31.2 644.4 45.3 665.5c0 0 18.7 29.8 53.7 10.7 36.7-20.1 197.6-85.5 244.3-104.3L329 553c-45.2 12.1-208.7 59.5-226.1 66.8-19.5 8.1-4.2 2.5-12.1-6.4"/><path d="M290.4 135.4s0-.8-6.8-.6c-1.9.1.4.8-2.1.7-2.4-.1-11.8-1.8-11.8-1.8s-7.6.6-1.3 2.2c6.3 1.5 15.6 5.7 16.7 3.1 1.1-2.6 4.3 1.6 5-1.5.5-1.9.3-2.1.3-2.1z"/><g fill-rule="evenodd" clip-rule="evenodd"><path fill="#5C5C5C" d="M432.7 530.5c2.5 11.8 17.9 9.6 17.9 9.6 10.2-.5 19.2-7.5 27.1-19.9 11.8-18.6 14.9-36.5 13.4-54.1-.9-10.3-3.4-17.5-4.6-27.6 0 0-1-6.4-4.2-8.1-3.1-1.7-9 1-9 1-9 4.6-16.5 6.5-25.5 11.5-15.4 8.6-28.6 21.1-37.5 41.3-6 13.5-6.8 24.9-1.5 33.6 0 0 6.8 14 17.9 9.6l6 3.1z"/><path fill="#AAA" d="M420.6 557.6c-.5 1-1.7 1.4-2.5.9l-6.8-3.7c-.9-.5-1.1-1.6-.6-2.6l23.6-44.2c.5-1 20.6-31.8 21.5-31.4l1.6 1.3c.9.5-12.6 34.4-13.1 35.4l-23.7 44.3z"/><path fill="#CC7428" d="M390.9 617.9c-.7 1.3-1.6 2.1-2.1 1.8l-12.3-6.6c-.5-.3-.4-1.5.3-2.8l37-69.2c.7-1.3 1.6-2.1 2.1-1.8l12.3 6.6c.5.3.4 1.5-.3 2.8l-37 69.2z"/></g><path fill="#F2D1BB" d="M275 611.1c32.5-19.1 59.5-35.4 64.4-37.9 12.1-6.2 39.2 19 55.1 17.9 15.9-1.1 32.7-23.7 41.9-34.8 9.2-11.1 2.3-11.2-1.4-16.3-3.7-5.1-3.7 2.9-19.8 1.7s-18.7-1.5.9-8.5l5.8-2.2 1.8-3.4s-5.6.9-10.4-4.2l-2.3-2.3c-7.8.8-16.2 1.4-23.3.7-19.7-2.1-15.6-1.5-33.6 2.1s-97.3 45.3-97.3 45.3"/></svg>