<svg class="{{ include.class }}" xmlns="http://www.w3.org/2000/svg" width="1759" height="400.8" viewBox="0 0 1759 400.8"><path fill="#447E65" d="M1571.6 296.4l1.9.5-1.9 7s.4 3.8 3.2 5.4c2.8 1.7.8 2.7.2 2.3-.6-.3 1.5 4.8 2.8 5.1 1.3.4 3.4 2.9 2.2 4.6-1.2 1.8.3 2.1 1.8 3.4 1.5 1.3 3.9 2.1 2.1 5.6 1.6.9 4.2 2.5 4.4 6.7.2 4.2.2 12.2-1.8 13.4-2 1.3-2.3 4.6-2.1 4.6.3 0 .8 1.4-1.3 3.6s-17.4 25-40.4 42.1c-10.9-26.5-12.3-53.9-13-56.9-.7-3 .5-3.9.8-3.7.2.1 1.7-2.8.6-5-1.1-2.1 3-8.9 5.4-12.4 2.4-3.5 5.4-3.5 7.2-3.5.2-3.9 2.8-3.3 4.7-3.7 1.9-.3 3.4.1 3.2-2-.1-2.1 3-3.2 4.3-2.8 1.3.4 5.7-3 5-3-.7 0-1.9-1.9 1.4-1.9s5.5-3 5.5-3l2-7 1.8.6"/><path d="M1577.3 343.3l-.7.5-12.6-18.1-3.8 13.8 13 18.7-.7.5-12.6-18.1-3.8 13.8 13 18.7-.7.5-12.6-18.1-12.4 44.9c-.2.1-.4.3-.6.4-.1-.2-.2-.4-.3-.7l12.5-45-20.3 9.1-.4-.8 21-9.4 3.8-13.8-20.3 9.1-.4-.8 21-9.4 3.8-13.8-20.3 9.1-.4-.8 21-9.4 7.7-27.9.4.1.4.1-7.8 28.1 13.1 18.7z"/><path fill="#8CB279" d="M1361.8 330.9s.1.2.1.9-.1 1-.1 1 3-1.2 6.9-.7c1.5.2 1.8.5 1.8.5s.2 1-.5 2.3c0 0 1.9-.3 3.9-.1 2 .2 3.8 1.3 3.8 1.3s.1 1.2-.5 1.8c-.6.6.8-.6 4 .3 3.2.9 4.8 2.7 4.8 2.7s.2 1.1-.4 2.1c0 0 1.7-.3 4.5 1.3 2.6 1.5 4.2 4.2 4.4 4.5-.2.3-1.8 3-4.4 4.5-2.8 1.6-4.4 1.4-4.4 1.4.6 1 .4 2.1.4 2.1s-1.6 1.8-4.8 2.7c-3.2 1-4.6-.3-4 .3.6.6.5 1.8.5 1.8s-1.8 1.1-3.8 1.3c-2 .2-3.9-.1-3.9-.1.7 1.3.5 2.3.5 2.3s-.3.3-1.8.5c-3.9.5-6.9-.7-6.9-.7s.1.3.1 1-.1.9-.1.9-.1.4-2.2.1c-2.1-.3-6-2.3-6-2.3-.1 1.3.2 2.4-1.4 2-5-1.4-9.8-4-13.9-7.2-1.9-1.5-3.6-3.1-5.2-4.9-.8-.9-1.8-2-2.7-3.1 2 .1 2.6.1 3.3.1 7.4 0 11.7-1.1 16-2.7-4.4-1.6-8.7-2.7-16-2.6-.7 0-1.3.1-3.3.1.8-1.1 1.8-2.2 2.7-3.1 1.6-1.8 3.3-3.4 5.2-4.9 4.1-3.2 8.9-5.9 13.9-7.3 1.5-.4 1.2.7 1.4 2 0 0 3.9-2.1 6-2.4 2-.1 2.1.3 2.1.3"/><path fill="#80B9AA" d="M1325.1 223.7l2.7-3.5c-.4-.3-35.9-27.3-83.7-41.9-28.2-8.6-55.1-11.4-79.9-8.2-31.2 4-59.2 17.5-83.2 40-23.4 21.9-47.7 36.6-72.1 43.7-19.5 5.7-39.1 6.6-58.3 2.7-32.8-6.6-53.5-25.3-53.7-25.4l-3 3.2c.9.8 21.6 19.5 55.6 26.5 20 4.1 40.3 3.2 60.5-2.7 25.1-7.3 50-22.4 74-44.8 23.4-21.8 50.5-34.9 80.8-38.8 24.2-3.1 50.5-.5 78 8 47 14.4 82 41 82.3 41.2z"/><path fill-rule="evenodd" clip-rule="evenodd" fill="#80B9AA" d="M1105.8 191.5c-2.1-5.2-4.6-10.3-7.2-15.4-2.7-5.2-6.9-8.9-12.1-11.6-5.6-2.9-10.5-1.7-15.2 3.4-3.6 3.9-4.5 10.7-1.8 15.1 3.8 6.2 9.8 9.5 16.8 10.7 5.3.9 10.7 1.2 16.1 1.5m-24.8 18.6c-2.8-4.9-6-9.6-9.2-14.3-3.3-4.8-8.1-8-13.5-9.9-5.9-2.1-10.7-.2-14.7 5.4-3.1 4.4-3.1 11.2.2 15.2 4.6 5.7 11 8.1 18 8.4 5.4.2 10.8-.2 16.2-.6m21-17.6c-.8 4.8-2 9.6-2.8 14.4-1 5.9-.5 11.6 2.3 17 3.3 6.3 10 9.1 16.5 6.1s9.6-7 8.1-14.8c-1.3-6.8-5.2-12-10.3-16.4-3.1-2.7-6.5-5.1-9.6-7.8m-31.1 25.2c-1.2 4.8-2.7 9.4-3.9 14.2-1.4 5.8-1.4 11.6 1 17.1 2.8 6.5 9.3 9.8 16 7.4 6.7-2.5 10.1-6.2 9.2-14.2-.8-6.9-4.3-12.4-9-17.1-2.9-2.9-6.1-5.6-9-8.5m88.6-51.7c1-5.6 1.5-11.2 2-16.9.5-5.8-1.2-11.3-4.2-16.2-3.2-5.4-8.1-7-14.8-5.1-5.1 1.4-9.5 6.7-9.5 11.9 0 7.3 3.4 13.2 8.6 17.9 4 3.6 8.5 6.7 12.9 9.8m-19.5 3.6c-1.9-5.3-4.2-10.5-6.6-15.7-2.5-5.3-6.6-9.2-11.6-12.1-5.5-3.1-10.5-2.1-15.4 2.8-3.8 3.8-4.9 10.5-2.4 15 3.6 6.4 9.4 9.9 16.3 11.4 5.3 1.2 10.7 1.6 16.1 2.2m-5.7.2c-2.7 5-5.1 10.2-7.3 15.4-2.3 5.4-2.5 11-1.3 16.7 1.3 6.1 5.4 9.2 12.3 9.6 5.3.3 11.1-3.3 12.8-8.2 2.4-6.9 1.1-13.6-2.4-19.7-2.6-4.7-5.9-9.1-9.1-13.4m-88.2 57.7c-2.7-5-5.8-9.8-8.9-14.5-3.2-4.9-7.9-8.1-13.3-10.2-5.9-2.2-10.7-.5-14.8 5.1-3.1 4.3-3.3 11.1-.1 15.2 4.5 5.8 10.8 8.3 17.9 8.7 5.4.3 10.8 0 16.2-.3m-33.4 12.1c-2.2-5.2-4.9-10.2-7.6-15.2-2.8-5.1-7.2-8.8-12.4-11.3-5.7-2.7-10.6-1.4-15.2 3.8-3.5 4-4.2 10.8-1.4 15.2 4 6.1 10.1 9.2 17 10.3 5.3.8 10.8.9 16.2 1.1m-41 .3c.1-5.7-.1-11.3-.5-17-.4-5.8-2.8-11-6.5-15.4-4-4.8-9-5.7-15.3-2.9-4.9 2.1-8.4 8-7.7 13.1 1 7.3 5.3 12.6 11.1 16.5 4.5 3 9.4 5.4 14.2 7.8m209-88.8c-3.7 4.3-7 8.9-10.3 13.5-3.4 4.8-4.7 10.3-4.7 16.1 0 6.3 3.4 10.1 10.1 11.9 5.1 1.4 11.6-.9 14.2-5.4 3.8-6.3 3.9-13.1 1.8-19.8-1.6-5.1-3.9-10.1-6.1-15"/><path fill-rule="evenodd" clip-rule="evenodd" fill="#80B9AA" d="M1038.7 242.8c-.8 4.8-2 9.6-2.8 14.4-1 5.9-.5 11.6 2.3 17 3.3 6.3 10 9.1 16.5 6.1s9.6-7 8.1-14.8c-1.3-6.8-5.2-12-10.3-16.4-3.1-2.7-6.5-5.1-9.6-7.8m-25.4 11.3c-2.5 4.2-5.3 8.2-7.8 12.4-3 5.1-4.7 10.7-4 16.6.8 7 6.1 12.1 13.1 11.7 7.1-.4 11.4-3 12.9-10.9 1.2-6.8-.5-13.1-3.7-19-1.9-3.6-4.2-7.1-6.1-10.7m-32.7 7c-3.8 3.1-7.8 5.9-11.6 9-4.6 3.8-8 8.5-9.4 14.3-1.6 6.9 1.6 13.4 8.4 15.5 6.9 2 11.8 1.1 15.8-5.9 3.5-6 4-12.5 3-19.1-.6-4.1-1.5-8.1-2.1-12.2"/><path fill-rule="evenodd" clip-rule="evenodd" fill="#80B9AA" d="M989.2 259.7c-3.8 3.1-7.8 5.9-11.6 9-4.6 3.8-8 8.5-9.4 14.3-1.6 6.9 1.6 13.4 8.4 15.5 6.9 2 11.8 1.1 15.8-5.9 3.5-6 4-12.5 3-19.1-.6-4.1-1.5-8.1-2.1-12.2m-37.1-1.9c-4.3 2.3-8.8 4.4-13.1 6.7-5.2 2.8-9.5 6.8-11.9 12.3-2.9 6.5-.9 13.5 5.3 16.7 6.4 3.3 11.4 3.2 16.7-2.8 4.5-5.2 6.2-11.5 6.5-18.2.2-4.1 0-8.3.2-12.4m-35-11.3c-4.9.6-9.8.9-14.6 1.5-5.9.8-11.3 2.9-15.6 7.1-5 5-5.8 12.2-1.1 17.5 4.7 5.4 9.4 7.1 16.5 3.4 6.1-3.2 10-8.4 12.7-14.6 1.7-3.8 3-7.7 4.7-11.5"/><path fill-rule="evenodd" clip-rule="evenodd" fill="#80B9AA" d="M920.6 251c-3.3-3.6-6.8-7-10.1-10.7-4-4.4-6.7-9.6-7.2-15.5-.6-7 3.6-13 10.6-14 7.1-1 11.8.7 14.8 8.2 2.6 6.4 2.1 12.9.1 19.3-1.2 3.9-2.7 7.8-3.9 11.7"/><path fill="#2D9782" d="M282.6 32.9l-.4-4.4c-1.2.1-29 2.8-56.9 23.3-16.4 12-29.4 27.7-38.7 46.6-11.5 23.5-17.1 52.1-16.6 84.9.4 32-8.2 60.9-25.6 85.9-14 20-33.6 37.7-58.4 52.4C43.7 346.8.5 354.8 0 354.8l.8 4.3c.4-.1 44.3-8.2 87.3-33.7 25.3-15 45.5-33.1 59.8-53.7 18-25.8 26.9-55.5 26.4-88.5-.4-32.1 5-59.9 16.1-82.8 8.9-18.2 21.4-33.4 37.2-45 27.1-19.7 54.7-22.5 55-22.5z"/><path fill-rule="evenodd" clip-rule="evenodd" fill="#2D9782" d="M171.4 214.2c5.3 2 10.8 3.5 16.3 5 5.7 1.5 11.3.9 16.7-1.2 5.9-2.2 8.3-6.7 7.7-13.6-.5-5.3-4.9-10.5-10-11.5-7.2-1.4-13.6.9-19.2 5.2-4.3 3.3-8.1 7.2-12 10.9m3-30.7c5.5 1.2 11.1 2.1 16.8 2.8 5.8.8 11.3-.6 16.4-3.4 5.5-3 7.4-7.7 5.8-14.5-1.2-5.2-6.2-9.8-11.4-10.1-7.3-.4-13.4 2.7-18.3 7.7-3.8 3.8-7.1 8.2-10.4 12.4m-1.1 27.4c-3-3.9-5.8-7.9-8.8-11.8-3.7-4.7-8.3-8.2-14.1-9.7-6.8-1.8-13.5 1.3-15.6 8.1-2.2 6.8-1.3 11.8 5.5 16 5.9 3.6 12.4 4.2 19 3.4 4.1-.5 8.1-1.4 12.2-1.9m2.3-39.9c-2.7-4.1-5.2-8.3-7.9-12.4-3.3-4.9-7.6-8.8-13.3-10.7-6.7-2.3-13.5.3-16.2 6.8-2.7 6.6-2.2 11.6 4.3 16.3 5.6 4 12 5.2 18.7 4.8 4.1-.2 8.2-.7 12.3-.9m-21.3 100.4c3.5 4.5 7.3 8.7 11.2 12.8 4 4.3 9.1 6.7 14.8 7.8 6.2 1.2 10.6-1.3 13.7-7.5 2.4-4.7 1.4-11.5-2.4-15-5.4-5-12-6.4-19-5.7-5.4.5-10.7 1.8-15.9 3m10.4-16.9c5.2 2.2 10.6 4 16 5.7 5.6 1.7 11.2 1.3 16.8-.5 6-2 8.6-6.3 8.3-13.3-.2-5.3-4.4-10.7-9.5-11.9-7.1-1.7-13.6.4-19.4 4.4-4.4 3.1-8.4 6.8-12.4 10.4m3.6-4.2c-1.9-5.3-4.1-10.6-6.5-15.7-2.4-5.3-6.5-9.3-11.5-12.2-5.4-3.1-10.4-2.2-15.4 2.7-3.8 3.7-5 10.5-2.6 15 3.5 6.4 9.4 9.9 16.2 11.5 5.2 1.2 10.7 1.7 16 2.3m16.9-104.3c5.5 1.4 11.1 2.3 16.7 3.1 5.8.9 11.3-.4 16.5-3 5.6-2.9 7.5-7.6 6.1-14.4-1.1-5.2-6-9.9-11.2-10.3-7.3-.5-13.4 2.4-18.5 7.3-3.9 3.7-7.2 8-10.7 12.2m13.6-32.7c5.4 1.8 10.9 3.3 16.4 4.6 5.7 1.4 11.3.6 16.7-1.6 5.8-2.4 8.1-6.9 7.4-13.8-.6-5.3-5.1-10.4-10.2-11.2-7.2-1.2-13.6 1.3-19.1 5.7-4.2 3.4-7.9 7.3-11.7 11.2m27.2-30.5c4.1 3.9 8.5 7.5 12.9 11.1 4.6 3.6 10 5.3 15.8 5.6 6.3.3 10.3-2.8 12.5-9.4 1.7-5-.3-11.6-4.6-14.5-6.1-4.1-12.9-4.6-19.7-2.9-5.2 1.3-10.3 3.3-15.3 5.3m-74.8 214.2c-.7-5.6-1.8-11.2-3.1-16.7-1.3-5.7-4.4-10.4-8.7-14.3-4.7-4.2-9.8-4.3-15.6-.6-4.5 2.9-7.1 9.2-5.6 14.1 2.1 7 7.1 11.7 13.5 14.6 4.9 2.3 10.1 3.9 15.2 5.6"/><path fill-rule="evenodd" clip-rule="evenodd" fill="#2D9782" d="M178.6 130c-3-3.9-5.8-7.9-8.8-11.8-3.7-4.7-8.3-8.2-14.1-9.7-6.8-1.8-13.5 1.3-15.6 8.1-2.2 6.8-1.3 11.8 5.5 16 5.9 3.6 12.4 4.2 19 3.4 4.1-.5 8.1-1.4 12.2-1.9m8.8-26.4c-1.4-4.7-2.5-9.5-3.9-14.2-1.7-5.7-4.8-10.6-9.6-14.2-5.7-4.1-13-3.7-17.5 1.8-4.5 5.6-5.5 10.5-.6 16.9 4.2 5.5 10 8.4 16.5 10.1 4 1 8.1 1.7 12.1 2.7M199.4 82c.3-4.9.8-9.8 1.1-14.7.3-5.9-.9-11.6-4.2-16.6-4-5.8-11-7.9-17.1-4.2-6.1 3.7-8.7 8-6.3 15.7 2.1 6.6 6.5 11.3 12.1 15.1 3.4 2.3 7 4.3 10.5 6.6"/><path fill-rule="evenodd" clip-rule="evenodd" fill="#2D9782" d="M199.4 82c.3-4.9.8-9.8 1.1-14.7.3-5.9-.9-11.6-4.2-16.6-4-5.8-11-7.9-17.1-4.2-6.1 3.7-8.7 8-6.3 15.7 2.1 6.6 6.5 11.3 12.1 15.1 3.4 2.3 7 4.3 10.5 6.6m26.3-26.1c1.2-4.8 2.7-9.4 3.8-14.2 1.4-5.8 1.3-11.6-1.1-17.1-2.8-6.5-9.4-9.8-16-7.3-6.7 2.5-10.1 6.3-9.1 14.2.8 6.9 4.3 12.3 9.1 17.1 2.9 2.9 6.1 5.6 9 8.5m32-18.2c2.8-4 5.9-7.8 8.7-11.8 3.4-4.9 5.4-10.3 5.2-16.3-.3-7.1-5.2-12.5-12.2-12.6-7.2-.1-11.6 2.2-13.7 9.9-1.7 6.7-.5 13.1 2.3 19.2 1.7 3.8 3.7 7.4 5.3 11.2"/><path fill-rule="evenodd" clip-rule="evenodd" fill="#2D9782" d="M251.9 37.2c4.9 0 9.8-.3 14.7-.3 5.9 0 11.6 1.5 16.3 5.1 5.6 4.3 7.2 11.4 3.3 17.3-4 5.9-8.5 8.3-16 5.4-6.5-2.4-10.9-7.1-14.4-12.9-2.1-3.5-3.9-7.3-6-10.8"/><path fill="#4356A0" d="M297.8 143.6s6 13.3 6.4 20.2c.4 6.9-6.9 6.2-7.3 15-.4 8.8-1.3 3.8-3.7 10.8-3.2-5.7-3.6-1-5.5-10-1.9-8.6-9-6.7-9.8-13.5-.8-6.9 2.9-21 2.9-21l17-1.5z"/><path d="M289.9 145.5l-1.1.1 3.6 42.8.7 1.1.5-1.2"/><path fill="#4356A0" d="M299.3 129.6s14.5-1.5 21.2.2c6.7 1.8 3.7 8.5 11.9 11.6 8.2 3.1 3.2 2.5 9 6.9-6.4 1.2-2.1 3.1-11.2 2.1-8.8-.9-9.1 6.5-15.9 5.1-6.7-1.4-19.1-9.3-19.1-9.3l4.1-16.6z"/><path d="M298.6 137.7l-.3 1.1 41.8 9.9 1.4-.3-1.1-.8"/><path fill="#4356A0" d="M300.9 132.2s11.1-9.5 14.5-15.5c3.3-6-3.6-8.6-.2-16.7s.5-4 1.3-11.3c-5.3 3.8-3.7-.6-9.3 6.6-5.4 7-11 2.1-14.6 8-3.6 5.9-6.5 20.2-6.5 20.2l14.8 8.7z"/><path d="M294.6 127.1l-1-.6 21.8-37 1.1-.8-.1 1.4"/><path fill="#4356A0" d="M289.5 124.3s-5.5-13.5-10.2-18.6c-4.7-5.1-9.3.8-15.9-5.1-6.6-5.8-3.7-1.7-10.3-4.7 1.9 6.2-1.7 3.3 3.4 10.9 4.9 7.3-1.4 11.1 3 16.4 4.4 5.3 17.2 12.4 17.2 12.4l12.8-11.3z"/><path d="M282.8 128.7l-.9.8-28.4-32.2-.4-1.3 1.2.5"/><path fill="#4356A0" d="M284.3 147s-10.8 9.8-17.2 12.4c-6.4 2.6-8-4.7-16.5-2.3-8.5 2.4-4.1-.1-11.4-.2 4.4-4.8-.1-3.7 7.7-8.3 7.6-4.5 3.5-10.6 9.8-13.5 6.3-2.9 20.8-3.9 20.8-3.9l6.8 15.8z"/><path fill="#2D9681" d="M280.3 131.9s-15.2-9.1-29.2-4.4c-1.7.6-2.2 2.6-.7 3.2 1.5.6 15.1 6.7 29.6 2.7.5-.6.3-1.5.3-1.5zm7.6-6.3s6.9-16.3.3-29.5c-.8-1.6-2.9-1.8-3.3-.2-.3 1.6-4.5 15.9 1.5 29.7.7.3 1.5 0 1.5 0zm9.7 7.4s17.7-.3 27.2-11.6c1.1-1.4.5-3.4-1.1-3.1-1.6.3-16.4 2.3-26.6 13.3-.1.7.5 1.4.5 1.4zm-2.6 10.2s16.6 6.3 21.6 20.2c.6 1.7-.7 3.4-2.1 2.5-1.4-.9-14.6-7.7-20.4-21.6.1-.7.9-1.1.9-1.1zm-8.7 2.6s-4 17.3-17 24.2c-1.6.8-3.4-.2-2.8-1.7.7-1.5 5.6-15.6 18.5-23.2.7 0 1.3.7 1.3.7z"/><path d="M280 140.1l-.4-1.1-39.5 16.9-.9 1.1h1.3"/><circle fill="#4356A0" cx="284.6" cy="134.5" r="1.7"/><circle fill="#4356A0" cx="286.9" cy="140" r="1.7"/><circle fill="#4356A0" cx="290.3" cy="132.1" r="1.7"/><circle fill="#4356A0" cx="292.6" cy="137.5" r="1.7"/><path fill="#EDEEE2" d="M293.2 147.2c.7-.1 1.7-.2 2.2-1 .3-.5.4-1.1.3-1.9 0-.1-.1-.3-.1-.4.5.2 1 .2 1.4 0 .9-.3 1.3-1.2 1.5-1.9.1-.2.2-.4.3-.5.4.1 1.2-.2 1.6-.7.3-.3.5-.9.2-1.7-.1-.2-.1-.3-.3-.5 1.4-.8 1.1-1.8 1-2.2-.2-.5-.7-.9-1-1v-.6c0-.5.1-1.2-.2-1.8-.3-.8-1-1.2-2.1-1.2h-.1c.7-.8.9-1.6.6-2.3-.3-.6-.8-1.1-1.2-1.4-.2-.1-.4-.3-.4-.4.2-.3.2-.9 0-1.5-.2-.4-.7-1.3-2.3-.8 0-.2-.1-.4-.2-.5-.4-.8-1-1-1.4-1.1-.7 0-1.3.3-1.6.7-.1 0-.4-.1-.5-.2-.9-.3-2.4-.9-3.3.7l-.1-.1c-.5-.7-1-1-1.6-1.1-.9-.1-1.7.5-2.2.9-.2.1-.4.3-.5.3-.3-.3-1.2-.4-1.9-.1-.4.2-.9.8-.8 1.9-.8 0-1.3.3-1.6.8-.4.6-.3 1.3-.1 1.7.1.1.1.3.3.4 0 .1-.2.3-.3.5-.4.6-1 1.6-.6 2.6.1.3.3.5.5.7h-.1c-.8.2-1.4.5-1.7 1-.5.8-.3 1.8-.1 2.4 0 .2.1.5.1.6-.3.1-.6.5-.7.9-.1.3-.2.8 0 1.3s.6.8 1.3 1.1c-.3.6-.3 1.2-.1 1.6.2.5.6.7.9.9.4.2.9.2 1.2.1.1.1.2.3.3.5.4.6.9 1.4 1.8 1.6.6.1 1.2-.1 1.8-.5 0 .2.1.5.2.6.4 1 1.5 1.2 2.2 1.4.2 0 .5.1.6.2 0 .2.1.3.1.5.2.5.7 1 1.3 1.1.4.1 1 0 1.7-.7.8.9 1.5.9 1.9.7.7-.2 1.2-1 1.2-1.4.1-.2.4-.2.6-.2zm2.9-14.6h.2c-1 1.4-.2 4.5 0 5.1-.5.5-3 3.2-2.3 4.9-1.6-.2-3.9.9-4.4 1.2-.6-.4-3.9-2.4-5.4-1.2 0-.1-.1-.2-.1-.3-.6-1.5-2.4-2.8-2.9-3.2.1-.6.3-2.8-.3-4.3-.1-.2-.2-.4-.3-.5.3 0 .6-.1.8-.3 1.4-1 2-3.8 2.1-4.4.6-.2 2.8-1 3.8-2.2 1 1.5 4.3 1.6 5 1.6.4.6 2 3.4 3.8 3.6z"/><path fill="#80B9AA" d="M503.9 286.9s-.4 2.7.9 3.5c-.7 1.4 0 2.6 1.2 3.3-.5.9-.8 2.3 1.5 3.4-.6 1.4-1.4 3.5 2.1 5.4-.7 1.3-1.2 4.9 2.3 6.9-1.2 1.5-1.7 3-1.7 3s1.1 1.9 2 2.3c.9.4.4 1.8 1.6 2 1.2.2 1 .5 1.5 1 .5.4 1.7.6 3 .5 1.3-.1.1 3.2 7.5.8.5-.4 1.9.3 1.9.3s.1 1-2.8 1.5c-2.8.5-8 2.1-6.9 5.1 1.1 3-.2.9-1.4.8-1.1-.2-2.4.9-2.2 1.4.2.5-1.9.8-2.7 2.2-.8 1.5 0 1.6 0 1.6s-3.3 1.6-4 2.7c-.7 1.2.6 1.4.6 1.4s-3.2 1.4-2 3.1c1.1 1.7-1.2 1.1-1.3 1.6-.1.5.2 1.1.2 1.1l-1.2 1.9s2.9 1.9 3.8 1.6c1-.3.2 1.3 1.3 1.4 1.1.1 2.8-.2 2.8-.2s-.1 1.3.6 1.7c.7.3 2.5.3 4.4-.7 1.9-1 .7 1.5 1.1 1.8.4.3 4.5 1.2 6.5-1s.5 2.1.9 2.4c0 0 2.7 1.4 5.3-1.3 0 0 1.1 4.6 2.3 4.9 1.1.3 4.6 0 5.2-1 .6-1.1 1.6.5 2.7-1.3s2.9-.8 4.4-4.5c1.5-3.7.9 3.8 2.4 4.3 1.5.4 1.9 1.9 2.5 2.1.6.2 1.9-.7 1.9-.7s2-.1 2.7-1.2c.7-1.2 2 1 2.9-.6.9-1.6 1.9-3.3 1.9-3.3l2 .6s3.4-3 2.3-7.6c0-.7 1.3.2 1.7.4.5.2 2.9 1 1.1-8.4.7-.7-5.3-11.1-10-15.6 6.3 1.9 18.2 1.8 18.5.9 9.1-3.2 7.2-4.8 6.8-5.2-.4-.3-1.9-.9-1.2-1.3 4.5-1.4 5.4-5.8 5.4-5.8l-1.5-1.4s1-1.7 1.9-3.3c.9-1.6-1.6-1.6-1-2.8.7-1.2-.3-3-.3-3s.1-1.5-.4-1.9c-.5-.4-1.9-.1-3.1-1.1-1.1-1.1-7.4 3.2-4.9.1s.7-4.2 1.7-6c1-1.8-.8-2-.2-3 .6-1-.9-4.2-1.7-5-.8-.8-5.4.5-5.4.5 1-3.6-1.5-5.2-1.5-5.2-.5-.3-3.4 3.2-2.5.4.9-2.9-1.9-5.9-2.4-6.2-.4-.2-2 2.1-2.1-.1-.1-2.1-.9-3.7-1.6-4.1-.6-.5-1.8.3-1.8.3s-.6-1.7-1.2-2.6c-.6-.9-1.6.5-1.9-.5-.3-1-3.3-2.5-3.3-2.5l-1 2s-.7 0-1 .4c-.4.4 1.3 2.1-.7 2-2.1-.1-1.7 3.3-1.7 3.3s-.8-1-1.5.1c-.7 1.2-.4 4.8-.4 4.8s-.5-.5-1.4.8c-.9 1.4-.1 3.4-.6 3.5-.5 0-.8 1.7-.1 2.6.7.9 3.1 1 0 1.6-3.1.6-1.9 5.8-1 8.5 1 2.7.1 3.2.1 3.2s-1.3-.8-1.2-1.4c-1.7-7.6-3.9-5-4.5-6.1-.6-1.2-1.3-2.2-1.9-2.4-.6-.2-.8.1-1.6-.8s-1.7.2-2.5-.4c-.8-.6-3-.6-3-.6s-1 1.2-1.7 3c-3.5-2-6.3.2-7.1 1.4-3.4-2.1-4.8-.3-5.7.9-2.1-1.5-3.2-.5-3.7.4-1.2-.8-2.5-.7-3.5.6-1.3-.9-3.4.8-3.4.8z"/><path d="M557.5 317.7l-.2.2v.1l-.5-.5c.2 0 .5.1.7.2z"/><path d="M504.7 343.9l-.6-.4.6-.9 50.9-25.2-51.8-29.9c0-.4.1-.6.1-.6s.2-.2.5-.4l51.8 29.9-3.6-56.7.5-1 .6.3 3.6 57.2 27.1-22.7c.3 0 .5.1.6.2l.1.1c.1.1.1.2.2.4l-27.5 23.1-.3.3c-.2-.1-.5-.1-.7-.2.2.1.3.3.5.5l-6.3 35.8c-.2 0-.3.1-.4.1h-.1c-.2-.1-.3-.2-.5-.4l6.1-34.9-51.4 25.4z"/><path fill="#447E65" d="M211.4 335.7l.4 2.3-8.8 1.6s-4 2.4-4.3 6.4c-.3 4-2.5 2.3-2.4 1.5.1-.8-4.5 4.1-4.2 5.8.3 1.6-1.4 5.2-3.9 4.9-2.6-.4-2.1 1.4-2.8 3.7-.6 2.3-.3 5.5-5 5.3-.1 2.2-.5 5.9-5.1 8.4s-13.3 6.7-15.8 5.1c-2.5-1.5-6.3-.1-6.1.2.2.3-1.1 1.7-4.6.5-3.5-1.1-36.8-5.9-67.9-22.2 23.5-26.1 53-42.2 55.9-44.5 2.9-2.3 4.5-1.4 4.5-1.1 0 .3 4 .3 5.8-2 1.8-2.3 11.4-1.4 16.6-.7 5.1.7 6.8 4.1 7.7 6.1 4.4-1.8 5.1 1.3 6.5 3.2 1.4 1.9 1.6 3.8 3.9 2.5 2.3-1.2 5.1 1.6 5.4 3.2.3 1.6 6.3 4.7 5.9 3.9-.3-.8 1.1-3.1 2.8.5 1.7 3.7 6.2 4.5 6.2 4.5l8.8-1.6.5 2.5"/><path d="M162.7 366.8l-.9-.5 13.3-23.5-17.2 3.1-13.7 24.2-.9-.5 13.3-23.5-17.2 3.1-13.7 24.2-.9-.5 13.3-23.5-56 10.1c-.3-.1-.5-.3-.8-.4l.6-.6 56.2-10.1-21.1-17.6.7-.8 21.5 18.1 17.2-3.1-20.8-17.6.7-.8 21.5 18.1 17.2-3.1-20.8-17.6.7-.8 21.5 18.1 34.9-6.3.1.5.1.5-35.1 6.3-13.7 24.5z"/><path fill="#80B9AA" d="M106.9 60s2.8 9.9.6 16.7c0 .1 0 .1-.1.2l-.5-.5s-.5 4.4-1.2 5.5l-.4-.7s-.9 3.4-1.2 4.2l-.7-.7s-.9 3.4-1.3 3.9c-.2-.7-.6-.6-.6-.6l-2.2 3.5s-.1-.5-.2-.7c-.1-.1-2.1 2.9-2.1 2.9v-1.2l-3.2 3.8-.1-1.3-4.1 4.4-.3-1.1-2.5 2.3-.1-1.2-3.8 3.2-.7-1.5-4 2.4.4-1.9-3.3 2.4-.4-2.1-3.3 2 .2-1.2-3.4 1.5.2-1.4-3.9 1.6.4-1.3-3 1.2v-1l-3.1 1.6 1.7-3h-1l1.2-3-1.3.4 1.7-3.9-1.3.5 1.5-3.4-1.2.2 2.1-3.3-2.2-.4 2.4-3.2-1.9.4 2.4-4-1.5-.7 3.2-3.8-1.1-.1 2.4-2.5-1.1-.4 4.4-4.1-1.3-.1 3.8-3.2h-1.2s3-2 2.9-2.1c-.2-.1-.7-.2-.7-.2l3.5-2.2s0-.4-.6-.6c.5-.5 4-1.3 4-1.3l-.7-.7c.8-.3 4.2-1.2 4.2-1.2l-.7-.4c1.1-.7 5.5-1.2 5.5-1.2l-.4-.4c.1 0 .1 0 .2-.1 6.8-2.2 16.7.7 16.7.7l2.3 2.4z"/><path d="M59.1 105.3l1.1-2.2 45.1-44.8.5.5.4.5-45 44.8"/><path fill="#3E879F" d="M117.7 60.7s9 5 12.2 11.4c0 .1.1.1.1.2h-.7s2.7 3.5 3 4.8l-.8-.2s1.7 3 2.1 3.8h-1s1.8 3 1.9 3.7c-.6-.3-.9 0-.9 0l.9 4s-.4-.3-.6-.3c-.2-.1.6 3.5.6 3.5l-.8-.8.5 4.9-1-.9.2 6-1-.5-.1 3.4-.9-.8-.5 4.9-1.5-.6-1.2 4.5-1-1.6-.6 4-1.8-1.2-.9 3.8-.7-1-1.3 3.4-.9-1.1-1.6 3.9-.6-1.2-1.2 3-.7-.7-1 3.3-1-3.3-.7.7-1.2-3-.6 1.2-1.6-3.9-.9 1.1-1.3-3.4-.7 1-.9-3.8-1.8 1.2-.6-4-1.1 1.6-1.2-4.5-1.5.6-.5-5-.9.8-.1-3.4-1 .5.2-6-1 .9.5-4.9-.8.8s.8-3.5.6-3.5l-.6.3.9-4s-.2-.3-.9 0c.1-.7 1.9-3.7 1.9-3.7h-1c.4-.8 2.1-3.8 2.1-3.8l-.8.2c.3-1.3 3-4.8 3-4.8h-.7c0-.1.1-.1.1-.2 3.2-6.3 12.3-11.3 12.3-11.3h3.6z"/><path d="M115.8 126.5l-.7-2.3.2-63.5h1.4l-.2 63.5"/><path fill="#3E879F" d="M104.7 47.5s-4.9-9.1-11.2-12.4c-.1 0-.1-.1-.2-.1v.7s-3.5-2.8-4.7-3.1l.2.8s-3-1.8-3.8-2.1v1s-3-1.8-3.7-1.9c.3.6 0 .9 0 .9l-4-.9s.3.4.3.6c.1.2-3.5-.6-3.5-.6l.8.8-4.9-.5.9 1-6-.3.5 1-3.4.1.7.9-5 .4.6 1.5-4.5 1.1 1.6 1.1-4 .5 1.2 1.8-3.8.8 1 .7-3.4 1.3 1.1.9-3.9 1.5 1.2.7-3 1.2.7.7-3.3 1 3.3 1-.7.7 3 1.2-1.2.6 3.9 1.6-1.5.9 3.4 1.4-1 .7 3.8.9-1.2 1.8 4 .6-1.6 1 4.5 1.2-.6 1.5 4.9.5-.8.9 3.4.1-.5 1 6-.2-.9 1 5-.4-.8.8s3.6-.7 3.5-.5c-.1.2-.4.6-.4.6l4-.8s.3.2 0 .9c.7-.1 3.7-1.8 3.7-1.8v1c.8-.3 3.9-2.1 3.9-2.1l-.2.8c1.3-.3 4.8-3 4.8-3v.7c.1 0 .1-.1.2-.1 6.3-3.2 11.5-12.1 11.5-12.1l.1-3.5z"/><path d="M38.8 48.6l2.3.7 63.5.6v-1.4l-63.5-.6"/><path fill="#E73267" d="M113.3 23.9c2.6 5.2 2.9 14.2 2 19.6-3.8 19.8-19.9 12.9-19.9 12.9l-.3-.1S78.7 50 89.8 33.1c3.1-4.5 9.6-10.8 15.1-12.7l8.4 3.5z"/><path fill="#E73267" d="M109.1 22.8l4.2 1.7 3.5-5-4.8.3-.7-2.5-2.3 1.3-3.2-3.5-1 6m35.9 30.5c-5.1-2.7-14.2-3.1-19.6-2.3-19.9 3.6-13.2 19.8-13.2 19.8l.1.3s6.1 16.4 23.1 5.6c4.5-3.1 10.9-9.5 12.8-15l-3.2-8.4z"/><path fill="#E73267" d="M141.8 55.9l-1.7-4.3 5-3.4-.4 4.8 2.6.7-1.4 2.3 3.5 3.3-6 .8"/><path fill="#008C6F" d="M1333.5 283.1s-5.6-12.6 11.3-40.8c16.9-28.2 26.7-33.1 32.5-44.4-5.8 11.2-4.1 22.1-17.2 52.3-13.1 30.2-26.6 32.9-26.6 32.9zm-1.6 19.9s13.6 2.2 36.5-21.5 25.1-34.4 34.5-42.9c-9.4 8.5-20.3 9.7-46 30.2-25.8 20.4-25 34.2-25 34.2zm-12.7 23.4s12.7 5.4 40.5-12.1c27.9-17.5 32.6-27.4 43.7-33.4-11.1 6-22 4.6-51.9 18.3-29.8 13.6-32.3 27.2-32.3 27.2zm-.9-30.5s-9.7-9.8-3.7-42.2c6-32.4 13.4-40.4 14.9-53-1.5 12.6 3.9 22.1 2.2 55-1.7 32.9-13.4 40.2-13.4 40.2zm-11.7 24s-11.7-7.2-13.7-40.1c-1.9-32.8 3.4-42.5 1.8-55 1.6 12.6 9.1 20.6 15.3 52.9 6.2 32.3-3.4 42.2-3.4 42.2z"/><path fill="#010101" stroke="#010101" stroke-width=".21" stroke-miterlimit="10" d="M1294.7 224.8c.2 1.5.5 3 .8 4.4l11.3 90.3c.6 6.8 2 9.1 2.7 9.6l10.3-20.1c-2.4-3.6-1.9-12.4-1.8-13.4l10.6-90.4c.3-1.4.6-2.9.8-4.4-.2 1.5-.3 3-.3 4.5l-10.6 90.3c0 .1-.7 9.2 1.6 12.9l13.6-26.4 41.3-80.3c.8-1.2 1.6-2.5 2.3-3.9-.7 1.4-1.3 2.7-1.8 4.1l-41.7 81-.1.2-13.1 25.5c4.4-.4 11.3-6.2 11.4-6.2l67.3-61.1c1.2-.9 2.4-1.8 3.5-2.8-1.1 1-2.2 2.1-3.2 3.2l-67.4 61.2c-.8.7-7.6 6.1-11.9 6.3l-10.4 20.1c.9.3 3.6 0 9.3-3.4l80.1-43.3c1.4-.6 2.7-1.2 4.1-1.9-1.4.7-2.6 1.5-3.8 2.4l-80 43.3c-.9.5-7.6 4.4-9.9 3.5l-4.7 9.1-.5-.2 4.7-9.1c-2.2-1.2-2.9-9.1-3-10.1l-11.3-90.2c.1-1.7 0-3.2-.2-4.7z"/><path fill="#2D9782" d="M429.4 246.7s-.1.3.2 1.4c.3 1.1.6 1.6.6 1.6s-5.4-.7-11.5 1.8c-2.3 1-2.7 1.6-2.7 1.6s.1 1.8 1.8 3.5c0 0-3.2.3-6.4 1.4-3.2 1.2-5.7 3.7-5.7 3.7s.4 2 1.7 2.7c1.2.7-1.6-.6-6.3 2.2-4.8 2.9-6.6 6.4-6.6 6.4s.2 1.9 1.5 3.2c0 0-2.9.3-6.7 4.1-3.6 3.6-5 8.5-5.2 9.2.4.4 4.1 4.1 9 5.4 5.2 1.5 7.8.3 7.8.3-.5 1.8.2 3.6.2 3.6s3.4 2.2 8.9 2.4c5.6.2 7.4-2.4 6.6-1.1-.7 1.2-.1 3.2-.1 3.2s3.4 1 6.8.5 6.3-1.9 6.3-1.9c-.6 2.4.2 4 .2 4s.6.4 3.1.1c6.5-.8 10.9-4 10.9-4s-.1.6.2 1.7c.3 1.1.5 1.4.5 1.4s.3.5 3.6-.8c3.3-1.3 8.8-6.4 8.8-6.4.8 2 .7 4.1 3.1 2.7 7.6-4.4 14.3-10.7 19.5-17.7 2.4-3.2 4.6-6.6 6.4-10.1.9-1.8 2.1-4 3-6.2-3.3 1-4.2 1.3-5.3 1.6-12 3.1-19.5 3.2-27.2 2.4 6.4-4.5 13-8 24.9-11.2 1.1-.3 2.1-.4 5.4-1.2-1.9-1.4-3.9-2.7-5.6-3.9-3.3-2.2-6.9-4.1-10.5-5.7-8-3.5-16.9-5.8-25.7-5.9-2.7 0-1.7 1.7-1.4 3.9 0 0-7.3-1.7-10.8-1.3-3.3.8-3.3 1.4-3.3 1.4"/><path fill-rule="evenodd" clip-rule="evenodd" stroke="#000" stroke-width="1.03" stroke-miterlimit="10" d="M412.7 268.3c5.8 2.7 11.6 5.3 18.1 8.3-7.5 1.8-38 10.9-44.7 12.5.1.3.1.6.2.9 6.8-1.6 37.3-10.7 45.3-12.7-4.3 6.2-8 11.6-11.7 16.9l.9.3c.6-.7 1.3-1.3 1.8-2.1 3.2-4.5 6.3-9.1 9.6-13.6.6-.8 1.8-1.8 3-2.1 5.4-1.4 10.9-2.7 17.2-4.2-5.2 8.9-10.2 17.4-15.2 25.9l1 .3c.6-.7 1.2-1.4 1.6-2.1 4.3-7.3 8.7-14.6 12.8-21.9 1.2-2.2 1.7-3.2 4.6-3.8-2.2.5-3.8-.1-5.3-1.1-7.2-4.6-14.5-9.1-21.8-13.7-.8-.5-1.7-.9-2.5-1.4-.3.2-.6.5-.9.7 8.3 5.2 16.6 10.4 25.4 16-6.3 1.5-11.9 2.9-17.5 4.1-1.1.2-2.6-.1-3.6-.5-4.9-2.1-13.3-5.5-18-7.7"/><path fill="#447E65" d="M842.3 181.5s.2-.2 1-.5 1.2-.3 1.2-.3-2.8-3-3.8-7.9c-.4-1.9-.2-2.3-.2-2.3s1.1-.7 3-.4c0 0-1.2-2.1-1.9-4.6-.6-2.5-.2-5.1-.2-5.1s1.4-.6 2.4-.2c1 .5-1.1-.7-1.3-4.9-.3-4.2 1.1-6.9 1.1-6.9s1.3-.7 2.7-.4c0 0-1.1-1.9-.3-5.9.7-3.7 3.1-6.8 3.4-7.1.5.1 4.3.8 7.2 3.2 3.1 2.6 3.5 4.7 3.5 4.7.9-1.1 2.3-1.4 2.3-1.4s2.8 1.2 5.3 4.5 1.7 5.6 2.1 4.6c.5-1 1.9-1.4 1.9-1.4s2.1 1.7 3.2 4 1.5 4.7 1.5 4.7c1.2-1.4 2.5-1.6 2.5-1.6s.5.2 1.4 1.9c2.3 4.4 2.2 8.5 2.2 8.5s.3-.3 1.1-.6 1.1-.3 1.1-.3.5-.1 1 2.5c.6 2.6-.2 8.2-.2 8.2 1.6-.4 2.8-1.3 3 .7.6 6.6-.5 13.4-2.5 19.6-.9 2.9-2.1 5.6-3.5 8.3-.7 1.4-1.5 3-2.5 4.5-.8-2.4-1-3.2-1.3-3.9-3.2-8.7-6.4-13.4-10.2-17.8 0 5.9.6 11.4 3.8 20.2.3.8.6 1.5 1.6 3.8-1.7-.5-3.4-1.3-4.8-1.8-2.8-1.1-5.5-2.5-8.1-4-5.6-3.4-10.8-8-14.6-13.3-1.2-1.6.3-1.8 1.8-2.5 0 0-4.2-3.7-5.4-6.1-.9-2.4-.5-2.7-.5-2.7"/><path fill="#3E879F" d="M1222.7 246.5s.1-.2.6-.8c.6-.5.9-.7.9-.7s-3.4-1.5-6-5.1c-1-1.4-1-1.9-1-1.9s.7-1 2.3-1.4c0 0-1.8-1.3-3.2-3.1-1.4-1.8-2-4.2-2-4.2s.9-1 1.9-1c1 0-1.1-.2-2.9-3.5-1.7-3.4-1.6-6.1-1.6-6.1s.8-1 2-1.3c0 0-1.6-1.2-2.4-4.7-.8-3.3.1-6.7.2-7.1.4-.1 3.8-.9 7.1 0 3.5 1 4.6 2.6 4.6 2.6.4-1.2 1.4-2 1.4-2s2.7-.1 6 1.8c3.3 1.8 3.4 4 3.4 3s1.1-1.9 1.1-1.9 2.3.6 4.1 2.1c1.8 1.5 3 3.3 3 3.3.5-1.6 1.5-2.2 1.5-2.2s.5 0 1.8 1c3.5 2.8 4.9 6.2 4.9 6.2s.2-.4.7-.9c.6-.5.8-.6.8-.6s.4-.2 1.8 1.7 2.8 6.8 2.8 6.8c1.2-.9 1.9-2.1 2.7-.5 2.9 5.2 4.5 11.2 5.1 17.1.3 2.7.3 5.4.1 8.1-.1 1.4-.2 3.1-.4 4.6-1.6-1.7-2-2.3-2.5-2.8-5.8-6-10.2-8.7-14.9-11 2.1 4.9 4.7 9.2 10.5 15.3.5.5 1 1 2.7 2.6-1.6.2-3.2.2-4.6.2-2.7.1-5.4 0-8.1-.4-5.9-.8-11.8-2.6-17-5.7-1.6-.9-.4-1.6.6-2.7 0 0-4.8-1.5-6.7-3-1.5-1.5-1.3-1.8-1.3-1.8M361.2 355.2s0-.3.3-1.1.6-1.2.6-1.2-4.3 0-8.7-2.6c-1.7-1-1.9-1.5-1.9-1.5s.3-1.3 1.8-2.6c0 0-2.5-.5-4.8-1.8-2.4-1.2-4-3.5-4-3.5s.5-1.5 1.6-2c1-.4-1.3.3-4.7-2.4-3.4-2.7-4.5-5.7-4.5-5.7s.4-1.4 1.5-2.3c0 0-2.2-.5-4.8-3.8-2.4-3.1-3-7.1-3.1-7.6.4-.3 3.6-2.7 7.5-3.3 4.2-.6 6.1.6 6.1.6-.2-1.5.5-2.7.5-2.7s2.8-1.3 7.2-.9c4.3.4 5.5 2.6 5 1.6-.4-1 .2-2.5.2-2.5s2.7-.4 5.3.3c2.6.8 4.7 2.1 4.7 2.1-.2-1.9.5-3.1.5-3.1s.5-.2 2.4.2c5 1.3 8 4.2 8 4.2s0-.5.4-1.3c.3-.8.5-1 .5-1s.3-.4 2.7 1c2.4 1.4 6.1 5.8 6.1 5.8.8-1.5 1-3.1 2.7-1.8 5.4 4.2 10 9.7 13.4 15.7 1.5 2.7 2.9 5.6 3.9 8.5.5 1.5 1.2 3.3 1.7 5.1-2.4-1.1-3.1-1.5-3.9-1.8-9-3.6-14.7-4.4-20.8-4.6 4.5 4.1 9.2 7.5 18.2 11.2.8.3 1.6.5 4 1.5-1.6.9-3.3 1.7-4.8 2.4-2.8 1.4-5.7 2.5-8.7 3.4-6.6 1.9-13.7 2.7-20.5 1.9-2.1-.2-1.1-1.5-.7-3.1 0 0-5.8.6-8.5-.1-2.5-.7-2.4-1.2-2.4-1.2"/><path fill="#80B9AA" d="M1617.3 189.2c1.2 2.1 2.6 5.8 1.5 11.1-1.7 8.6 1.4 17.7 1.4 17.7s-1.7 1.1-4.4-.8c-1.1 19.3 6.7 19.9 4.8 21.5-2 1.6-6.9-.1-6.3 1.3.6 1.4 1.3 4.9 2.8 9.6 13.1 31.7 56.9 28.3 56.9 28.3s21.5-38.3-1.8-63.5c-3.6-3.4-6.5-5.4-7.5-6.6-1-1.1-1.6 4-3.9 5.2-2.3 1.1.5-6.3-17.5-13.4.6 3.2-1.1 4.3-1.1 4.3s-6.9-6.6-15.4-8.7c-5.3-1.2-8.1-4-9.5-6z"/><path d="M1625.4 200.5l30.7 48-12.7-46.8c.1-.6.1-1.2-.1-2.1.4.2.7.3 1.1.5l14.2 52.4 7.3 11.4-2.5-54.9c.5-1 .8-1.7 1.3-1.2l.1.1 2.6 58.4 6.9 10.9c-.2.5-.4.7-.4.7h-.8l-6.9-10.9-51.9-26.9v-.1c-.3-.6.6-.7 1.7-.6l48.7 25.3-7.3-11.4-41.6-34.9c0-.4 0-.8.1-1.2.7.5 1.3.8 1.9.9l37.1 31.1-30.7-48.1"/><path fill="#80B9AA" d="M1579.5 287.7c2.2 1 5.5 3.2 7.8 8 3.7 7.9 11.6 13.4 11.6 13.4s-.7 1.9-4 2c10.5 16.2 17.2 12.1 16.6 14.5-.7 2.4-5.6 4-4.3 4.8 1.3.8 3.9 3.1 7.9 6 29.3 17.8 62.6-10.9 62.6-10.9s-5.3-43.6-39-50.1c-4.9-.6-8.4-.6-9.9-.9-1.5-.3 1.1 4.2-.1 6.5-1.1 2.3-3.3-5.3-22-.4 2.4 2.3 1.6 4.2 1.6 4.2s-9.5-1.2-17.6 2.1c-5 2.1-8.9 1.5-11.2.8z"/><path d="M1592.6 292l53.1 20.5-37.9-30.2c-.3-.5-.7-1-1.3-1.6l1.2-.3 42.5 33.9 12.6 4.9-34.5-42.8c-.2-1.1-.4-1.9.3-1.7h.2l36.7 45.5 12 4.6c.1.5.1.8.1.8s-.2.2-.6.5l-12-4.6-57.8 9s-.1 0-.1-.1c-.6-.3.1-.8 1-1.5l54.2-8.5-12.6-4.9-54.2-3.5c-.2-.3-.4-.6-.6-1 .9 0 1.5-.2 2.1-.4l48.3 3.1-53.2-20.6"/><path fill="#80B9AA" d="M1722.6 196.2c0 2.4.6 6.4 4 10.4 5.6 6.7 7.3 16.1 7.3 16.1s2 .1 3.5-2.8c10.3 16.3 3.7 20.7 6.2 21.1 2.5.4 6-3.4 6.2-1.9.2 1.5 1.2 4.9 2.1 9.7 3.8 34.1-36.2 52.2-36.2 52.2s-37.3-23.2-29.1-56.5c1.6-4.7 3-7.9 3.4-9.4.3-1.5 3.4 2.7 5.9 2.7 2.5-.1-3.4-5.3 8.9-20.1 1.1 3.1 3.1 3.2 3.1 3.2s2.9-9.2 9.3-15.1c4-3.4 5.1-7.2 5.4-9.6z"/><path d="M1721 210l-3.7 56.8-11.5-47.1c-.3-.4-.7-1-.9-1.8-.3.3-.5.6-.8.9l12.9 52.8-.9 13.5-24.3-49.3c-.9-.7-1.6-1.1-1.7-.5v.2l25.9 52.4-.8 12.8c.4.3.7.5.7.5s.3-.1.7-.3l.8-12.9 32.5-48.6v-.1c-.1-.7-.8-.3-1.8.3l-30.5 45.6.9-13.5L1738 221c-.2-.3-.4-.6-.6-1-.4.8-.8 1.3-1.2 1.7l-17.5 45.2 3.7-56.9"/><path fill="none" stroke="#000" stroke-width="1.43" stroke-miterlimit="10" d="M1672.9 276.2l39.2 61.4m3.7-37.2s-2.6 28.7-13.1 22.5m-25.9 2.4s27.1 9.7 25.9-2.5"/><path fill="#80B9AA" d="M46.3 281.7c1.2-2.2 3.7-5.3 8.7-7.2 8.3-3.1 14.5-10.6 14.5-10.6s1.8.9 1.6 4.2c17.2-9.2 13.6-16.4 16-15.5 2.4.9 3.6 6 4.5 4.7.9-1.3 3.5-3.7 6.7-7.5 20.4-28.1-5.7-64-5.7-64s-44.4 1.7-53.8 35.1c-1 4.9-1.3 8.5-1.7 9.9-.4 1.5 4.3-.7 6.5.6 2.2 1.3-5.7 2.9-2.2 22.1 2.5-2.2 4.3-1.3 4.3-1.3s-2 9.5.7 17.9c1.8 5.4.9 9.3-.1 11.6z"/><path d="M51.7 268.8L76.9 217l-33.6 35.7c-.5.2-1.1.6-1.7 1.1-.1-.4-.1-.8-.2-1.2l37.6-40 6-12.3-46 31.1c-1.1.2-1.9.2-1.7-.4v-.2l48.9-33.1 5.7-11.7c.5 0 .8-.1.8-.1s.2.2.5.7l-5.7 11.7 4.3 59-.1.1c-.4.6-.9-.1-1.4-1.1l-4-55.3-6 12.3-8.1 54.3c-.3.2-.7.4-1 .6.1-.9 0-1.6-.2-2.1l7.2-48.4L53 269.5"/><path fill="#80B9AA" d="M244.9 221.3s-3.5 14.4 2.1 25.2c.8-.2.2-.6.2-.6l5.8 8.8.2-.6 10 11.1.3-.8 6.6 5.8 4.7 2.9.2-.6 6.3 2.4.4.2.2-.6s5.5 1.9 8.8 1.6l-.4-.9s6.3 1.6 10.9-1.2l-.4-.5s5.4-.2 5.8-.6l-.6-.9 6.1-.7-.7-.8s9.9-2.7 10.6-3.5l-.4-.9 5.3-2.3-.7-.8 6.2-1.3-.4-1 12.7-1.5v-.1l-8.5-9.6 1-.5-3.7-5.1 1.1-.1-2.4-5.2.9-.4c0-1-5.6-9.6-5.6-9.6l1.1-.1-4-4.6 1-.2c0-.5-3.9-4.3-3.9-4.3l.6-.1c-1.5-5.1-7.3-8.1-7.3-8.1l.9-.4c-2.2-2.4-7.6-4.7-7.6-4.7l.2-.6-.4-.2-6.3-2.4.2-.6-5.4-.9h-8.8l.3-.8-14.8 1.6.2-.6-10.2 2.7s.7.1.2-.6c-11.6 4.4-18.6 17.5-18.6 17.6z"/><path fill="#B3DDD3" d="M263.5 204.3l-.4.1s.3 0 .4-.1z"/><path fill="#010101" d="M282.1 274.7l2 .6-34.5-51.5 18 6.8 30.2 44.9c.5-.1.9-.2 1.4-.4l-29.4-43.7 17.4 6.6 22.7 33.7 1.5-.2-22-32.6 17.5 6.7 14.9 21.8c.1-.1.3-.1.3-.2l-.4-.9.7-.3-13.4-19.6 34.4 13.1 1.2-.1v-.1l-1-1.1-34.3-13 23-5.7-.3-.7.9-.4c0-.1 0-.2-.1-.3l-25.7 6.3-17.4-6.6L328 228l-1-1.1-39.3 10-17.4-6.6 51-13c-.2-.4-.5-.8-.8-1.2L268 229.3l-18-6.8 60.1-15.5c-.9-.5-1.6-.8-1.9-.9l-60.3 15.6-2.6-1c-.2.4-.3.5-.3.5s-.1.2-.1.6l2.7 1 34.5 51.9z"/><path fill="#3E879F" d="M368.2 143.3c5-2.6 9.4-1.5 13.6 3 3.2 3.5 4 9.5 1.6 13.4-3.4 5.6-8.7 8.5-14.9 9.6-3.9.7-7.9 1-11.9 1.2-.1 0-.1-.1-.2-.1 0 .1.1.1.2.1 8.9 5.7 17.8 10.4 26.5 14.2 1.8-4.7 3.9-9.2 6.1-13.7 2.3-4.7 6-8.1 10.5-10.6 4.9-2.7 9.3-1.7 13.6 2.7 3.3 3.4 4.2 9.4 1.9 13.4-3.3 5.6-8.6 8.6-14.7 9.9-3.2.6-6.5 1-9.8 1.3 8.7 3.2 17.2 5.4 25.7 6.7.2 0 .5.1.7.1 1.3-4.8 3-9.5 4.8-14.1 1.9-4.9 5.3-8.6 9.6-11.5 4.7-3.1 9.2-2.5 13.8 1.5 3.6 3.1 5 9 3.1 13.2-2.8 5.9-7.8 9.3-13.8 11.1l-3.3.9c8.6.1 17.1-.7 25.4-2.6h-.1c-.8-5-1.2-10-1.6-15.1-.4-5.2 1.2-10 3.9-14.4 2.9-4.8 7.3-6.1 13.2-4.4 4.6 1.3 8.4 6.1 8.4 10.7 0 6.5-3.1 11.7-7.8 15.9-1.8 1.6-3.7 3.1-5.7 4.5.4-.1.8-.3 1.2-.4 8.1-2.8 15.2-6.4 21.2-10.1-1.4-2.9-3-5.8-4.3-8.7-2.5-5.4-3.7-11.1-2.2-17.1 1.7-6.9 5.7-9 12.1-9 6.3 0 10.7 4.8 11 11.1.3 5.3-1.5 10.2-4.5 14.6-.3.4-.6.9-.9 1.3 7.7-6.1 11.8-11 11.9-11.1l3 2.5c-.4.5-7.6 9-20.8 17.7 2.8-.1 5.6-.3 8.4-.3 5.3 0 10.3 1.2 14.6 4.4 5 3.8 6.6 10.1 3.1 15.3-3.5 5.3-7.5 7.4-14.2 5-5.8-2.1-9.8-6.2-13-11.3-1.9-3-3.5-6.2-5.3-9.3-5.4 3.1-11.7 6-18.6 8.5-.8.3-1.6.6-2.5.8 2.9 1 5.8 1.9 8.6 3 4.9 1.9 9.2 4.9 12 9.4 3.3 5.3 2.5 11.8-2.7 15.4-5.2 3.7-9.7 4.2-15-.5-4.6-4-6.9-9.4-7.9-15.3-.6-3.4-1-6.8-1.5-10.2-7.3 1.9-14.7 3-22.2 3.3 2.5 1.4 4.9 2.8 7.3 4.3 4.5 2.8 8.1 6.5 10 11.5 2.3 5.9.2 12-5.5 14.6-5.8 2.6-10.3 2.3-14.7-3.3-3.8-4.8-5-10.5-5-16.5 0-3.5.3-7 .4-10.5-5-.1-10-.5-15-1.3-1.6-.2-3.2-.5-4.8-.8 1.9 2.3 3.9 4.5 5.8 6.9 3.3 4.1 5.4 8.9 5.5 14.2.1 6.3-3.9 11.4-10.2 11.9-6.3.5-10.5-1.3-12.7-8.1-1.9-5.8-1.1-11.6.9-17.2 1.2-3.1 2.5-6.1 3.7-9.2-4.8-1.2-9.6-2.6-14.5-4.4 1 3 2.1 6 3.1 9 1.6 5 1.8 10.2 0 15.2-2.1 5.9-7.8 9.2-13.8 7.4-6.1-1.8-9.3-5-8.9-12.1.3-6.1 3.1-11.2 7.1-15.7 1.9-2.2 4-4.2 6-6.4-7.4-3.1-14.8-6.8-22.3-11.2 0-.1-.1-.1-.2-.1.1 0 .1.1.2.1 1.3 3.2 2.8 6.3 4.1 9.5 2 4.9 2.6 10 1.2 15.2-1.7 6.1-7 9.8-13.2 8.4-6.2-1.4-9.6-4.3-9.8-11.4-.1-6.1 2.3-11.4 5.9-16.2 2.2-2.9 4.7-5.6 6.9-8.5v-.1c-3.6-2.2-7.2-4.6-10.8-7.2l2.3-3.2c1.2.8 2.4 1.6 3.5 2.5 0 .1-.1.2-.2.4l.5-.2c-.1-.1-.2-.1-.3-.2 1.8-4.5 4-9 6.2-13.4 2.6-4.1 6.4-7.5 11-9.8z"/><path fill="#EDEEE2" d="M1158.3 280.9s-21.3 2.6-28.1 14.2c-6.8 11.7 28-11.4 29.1-12.4-.2-.9-1-1.8-1-1.8zm.3-3.5v1.6s-25.7 5.8-32.5-4.3c-.7-1.2 1.2-2.6 6-2.2 12.2 1 21.9 2.5 26.5 4.9zm15.3 12.6l1.5-.4s12.4 23.2 4.4 32.5c-1 1-2.8-.5-3.7-5.2-2.3-12.1-3.4-21.8-2.2-26.9z"/><path fill="#EDEEE2" d="M1159.9 284.1s-32.9 12.3-30.6 17.8c2.3 5.5 27.3-10.6 30.6-16.8v-1z"/><path fill="#EDEEE2" d="M1163 288s-.1-1.2-1.9-.7c-1.8.5-24.1 15.8-24.1 21.9-.1 6 22.8-8.7 26-21.2zm-4.4-11.9s-21.7-1.5-26-10.3c-.6-1.5 4.1-4.1 11.2 0s15.6 8.6 15.6 8.6l-.8 1.7z"/><path fill="#EDEEE2" d="M1161.4 270.8l-.6.9s-30.3-9.9-30.3-15.7c.7-.9 2-1.2 2-1.2s17.8 1.8 28.9 16zm20.6 11l.3-1s31.9-.5 33.8 5.1c-.4 1-1.5 1.8-1.5 1.8s-17.5 4-32.6-5.9z"/><path fill="#EDEEE2" d="M1164.8 268.1s-1 1.3-1.8.9c-.9-.5-23.2-16.8-22.3-25.6.4-2.1 3.6-1.7 5.2 0s18.2 16.3 18.9 24.7z"/><path fill="#EDEEE2" d="M1165.6 267.4h1.7s.8-15.5-10.7-27.8c-1.2-1.3-3.2-3.5-4.7-2.8-1.6.8-1.2 7.7 13.7 30.6z"/><path fill="#EDEEE2" d="M1171.2 266.8s6-17.5-1.8-30.8c-1-1.6-3.2-1.7-3.4 0-.2 1.7-3.5 16.9 3.7 30.8.7.4 1.5 0 1.5 0z"/><path fill="#EDEEE2" d="M1173.3 267.4h1.5s19.1-23.4 12.9-32c-1.1-1.6-14.2 16.8-14.4 32zm-6 22.3s-14.5 27.1-10.3 31.8c0 0 2.1 3.7 6-3.8 3.9-7.4 7.8-23 6.3-26.8-1.1-1.9-2-1.2-2-1.2zm13.8-18s22.4-17.9 25.6-17.8c1.2.2 1.1.9 1.1.9s1-.6 0 1.6-9.5 15.6-25.7 17.4c-.4-.8-1.7-.7-1-2.1z"/><path fill="#EDEEE2" d="M1176.1 267.2s13.5-25.3 16.5-26.4c1.2-.3 1.3.4 1.3.4s.7-.9.6 1.5c0 2.4-2.6 18.1-16.7 26.1-.7-.6-1.8 0-1.7-1.6zm6.6 10s19.2-4.5 31.9-2.4c2.2.9 0 3.2 0 3.2s-14.2 6.1-31.9.7c.1-.7 0-1.5 0-1.5z"/><path fill="#EDEEE2" d="M1182.3 276.1s19.8.2 31.6-4.6c2-1.3-.7-3.1-.7-3.1s-15.2-2.8-31.3 6.3c.3.5.4 1.4.4 1.4zm-1.2 7.5s7.7-.4 18 6c10.3 6.3 16.4 12.9 6.6 10.7-9.9-2.2-25-14.5-24.8-15.6l.2-1.1zm-14.6 4.9s.2 7.7-6.3 17.9-13.2 16.2-10.8 6.4c2.4-9.8 15-24.7 16.1-24.5l1 .2z"/><path fill="#EDEEE2" d="M1180.4 286.1s24.5 18 19.1 28.5c-1.1 1.8-3.3.4-9.6-9.1-6.3-9.6-10.9-18.2-10.9-18.2s-.2-1.2 1.4-1.2zm-8.5 4.2s-2.9 3.8-2.6 16.4c.3 12.7-.6 17.4 4.1 17.3 1.2-.5 6-7.4.6-32.6-.1 0-.6-1.7-2.1-1.1zm3.7-.1s7.3 25 14.4 26.2c2.5-.1 2.4-1.5 1.6-3.4-.9-1.9-10.3-22.5-14.2-24-.9-.4-1.9.7-1.8 1.2zm4.7-17.7s27.5-21.9 23.5-26.4c-3.9-4.5-22.7 18.5-23.9 25.5l.4.9z"/><circle fill="#E2B522" cx="1170.9" cy="278.6" r="12.3"/><path fill="#E2B522" d="M1171.9 290.8c0-.5-.3-1-.5-1s-.5.5-.5 1 .2 1 .5 1c.4.1.6-.4.5-1z"/><path fill="#E2B522" d="M1172.8 290.7c-.1-.5-.4-1-.6-.9-.2 0-.4.5-.4 1s.3 1 .6.9c.3.1.5-.4.4-1z"/><path fill="#E2B522" d="M1173.7 290.6c-.1-.5-.4-.9-.7-.9-.2 0-.4.5-.3 1.1.1.5.4 1 .7.9.3-.1.4-.6.3-1.1z"/><path fill="#E2B522" d="M1174.5 290.3c-.2-.5-.5-.9-.7-.8-.2.1-.3.5-.2 1.1.1.5.4.9.7.9.3-.1.4-.6.2-1.2zm1-.3c-.2-.5-.6-.8-.8-.8-.2.1-.3.6-.1 1.1.2.5.5.9.8.8.2-.1.3-.6.1-1.1z"/><path fill="#E2B522" d="M1176.3 289.6c-.2-.5-.6-.8-.9-.7-.2.1-.3.6-.1 1.1.2.5.6.8.9.7.3-.1.3-.6.1-1.1z"/><path fill="#E2B522" d="M1177.1 289.2c-.3-.5-.7-.8-.9-.6-.2.1-.2.6 0 1.1.2.5.6.8.9.7.3-.2.3-.7 0-1.2z"/><path fill="#E2B522" d="M1177.8 288.8c-.3-.4-.7-.7-.9-.6-.2.1-.2.6.1 1.1.3.5.7.8 1 .6.2-.2.1-.7-.2-1.1z"/><path fill="#E2B522" d="M1178.6 288.2c-.3-.4-.8-.6-1-.5-.2.1-.1.6.2 1.1.3.5.8.7 1 .5.3-.2.2-.7-.2-1.1z"/><path fill="#E2B522" d="M1179.3 287.6c-.4-.4-.8-.6-1-.4-.2.2-.1.6.3 1.1.3.4.8.6 1 .4.2-.2.1-.7-.3-1.1z"/><path fill="#E2B522" d="M1179.9 286.9c-.4-.4-.9-.5-1-.3-.2.2 0 .6.3 1 .4.4.8.6 1.1.4.2-.2 0-.7-.4-1.1z"/><path fill="#E2B522" d="M1180.5 286.3c-.4-.3-.9-.5-1.1-.3-.2.2 0 .6.4 1s.9.5 1.1.3c.2-.2 0-.7-.4-1z"/><path fill="#E2B522" d="M1181.1 285.5c-.5-.3-.9-.4-1.1-.2-.1.2.1.6.5 1 .4.3.9.4 1.1.2.2-.3 0-.7-.5-1zm.5-.8c-.5-.3-1-.3-1.1-.1-.1.2.1.6.6.9.5.3 1 .4 1.1.1.1-.2-.2-.6-.6-.9z"/><path fill="#E2B522" d="M1182 283.9c-.5-.2-1-.2-1.1 0-.1.2.2.6.6.9.5.3 1 .3 1.1 0 .2-.2-.1-.6-.6-.9z"/><path fill="#E2B522" d="M1182.3 283.1c-.5-.2-1-.2-1.1.1-.1.2.2.6.7.9.5.2 1 .2 1.1 0 .2-.4-.2-.8-.7-1zm.4-.9c-.5-.2-1-.1-1.1.1-.1.2.3.6.8.8.5.2 1 .1 1.1-.1 0-.3-.3-.7-.8-.8z"/><path fill="#E2B522" d="M1182.9 281.3c-.5-.1-1 0-1.1.2-.1.2.3.6.8.7.5.2 1 .1 1.1-.2.1-.2-.3-.6-.8-.7z"/><path fill="#E2B522" d="M1183 280.4c-.5-.1-1 .1-1.1.3 0 .2.3.5.9.7.5.1 1 0 1.1-.3.1-.3-.3-.6-.9-.7z"/><path fill="#E2B522" d="M1183.1 279.5c-.6 0-1 .1-1 .4 0 .2.4.5.9.6.5.1 1-.1 1.1-.4 0-.2-.4-.5-1-.6zm.1-1c-.5 0-1 .2-1 .5 0 .2.4.5 1 .5.5 0 1-.2 1-.5 0-.2-.5-.5-1-.5z"/><path fill="#E2B522" d="M1183.1 277.7c-.6 0-1 .3-1 .5s.5.5 1 .5c.6 0 1-.2 1-.5.1-.4-.4-.6-1-.5z"/><path fill="#E2B522" d="M1183 276.8c-.5.1-1 .4-.9.6 0 .2.5.4 1 .4s1-.3.9-.6c.1-.3-.4-.5-1-.4z"/><path fill="#E2B522" d="M1182.9 275.9c-.5.1-.9.4-.9.7 0 .2.5.4 1.1.3.5-.1 1-.4.9-.7-.1-.3-.6-.4-1.1-.3zm-.3-1c-.5.2-.9.5-.8.7.1.2.5.3 1.1.2.5-.1.9-.5.8-.7-.1-.2-.6-.3-1.1-.2z"/><path fill="#E2B522" d="M1182.3 274.1c-.5.2-.8.6-.8.8.1.2.6.3 1.1.1.5-.2.9-.5.8-.8-.1-.2-.6-.3-1.1-.1z"/><path fill="#E2B522" d="M1182 273.3c-.5.2-.8.6-.7.8.1.2.6.3 1.1.1.5-.2.8-.6.7-.9-.1-.2-.6-.3-1.1 0z"/><path fill="#E2B522" d="M1181.5 272.5c-.5.3-.8.7-.6.9.1.2.6.2 1.1 0 .5-.2.8-.6.7-.9-.2-.3-.7-.3-1.2 0zm-.5-.8c-.2.2-.4.3-.5.5-.1.2-.1.3-.1.4.1.2.6.2 1.1-.1.5-.3.8-.7.6-1-.1-.1-.2-.2-.4-.2-.2.1-.5.2-.7.4z"/><path fill="#E2B522" d="M1180.5 270.9c-.4.3-.6.8-.5 1 .1.2.6.1 1.1-.2.5-.3.7-.8.5-1-.2-.2-.7-.1-1.1.2z"/><path fill="#E2B522" d="M1179.9 270.3c-.2.2-.3.4-.4.6-.1.2-.1.3 0 .4.2.2.6.1 1.1-.3.4-.3.6-.8.4-1-.1-.1-.3-.1-.5-.1-.2.1-.4.2-.6.4z"/><path fill="#E2B522" d="M1179.3 269.6c-.4.4-.5.9-.4 1 .2.2.6 0 1.1-.3.4-.4.6-.8.4-1.1-.3-.1-.8 0-1.1.4z"/><path fill="#E2B522" d="M1178.5 269c-.3.4-.4.9-.3 1.1.1.1.3.1.4 0 .2-.1.4-.2.6-.4.2-.2.3-.4.4-.6 0-.2 0-.4-.1-.5-.2-.2-.7 0-1 .4z"/><path fill="#E2B522" d="M1177.8 268.5c-.3.5-.4.9-.2 1.1.2.1.6-.1 1-.5.3-.4.4-.9.2-1.1-.3-.2-.7 0-1 .5z"/><path fill="#E2B522" d="M1177 268c-.3.5-.3 1-.1 1.1.2.1.6-.1.9-.6.3-.5.4-1 .1-1.1-.2-.2-.6.1-.9.6z"/><path fill="#E2B522" d="M1176.2 267.6c-.2.5-.2 1 0 1.1.2.1.6-.2.9-.6.3-.5.3-1 0-1.1-.2-.2-.6.1-.9.6zm-.9-.4c-.2.5-.2 1 .1 1.1.2.1.6-.2.8-.7.2-.5.2-1-.1-1.1-.2-.2-.6.2-.8.7z"/><path fill="#E2B522" d="M1174.5 266.9c-.2.5-.1 1 .1 1.1.2.1.6-.3.8-.8.2-.5.1-1-.1-1.1-.3-.1-.7.3-.8.8z"/><path fill="#E2B522" d="M1173.6 266.7c-.1.5 0 1 .2 1.1.2.1.6-.3.7-.8.2-.5.1-1-.2-1.1-.2-.2-.6.2-.7.8z"/><path fill="#E2B522" d="M1172.8 266.5c-.1.5.1 1 .3 1.1.2 0 .5-.3.7-.9.1-.5 0-1-.3-1.1-.4 0-.7.4-.7.9z"/><path fill="#E2B522" d="M1171.8 266.4c0 .5.1 1 .4 1 .2 0 .5-.4.6-.9.1-.5-.1-1-.4-1.1-.3 0-.6.5-.6 1z"/><path fill="#E2B522" d="M1170.9 266.4c0 .5.2 1 .5 1 .2 0 .5-.4.5-1 0-.5-.2-1-.5-1s-.5.4-.5 1z"/><path fill="#E2B522" d="M1170 266.4c0 .6.3 1 .5 1s.5-.5.5-1c0-.6-.2-1-.5-1-.4 0-.6.5-.5 1z"/><path fill="#E2B522" d="M1169.1 266.5c.1.5.4 1 .6.9.2 0 .4-.5.4-1s-.3-1-.6-.9c-.3 0-.5.5-.4 1z"/><path fill="#E2B522" d="M1168.1 266.7c.1.5.4.9.7.9.2 0 .4-.5.3-1.1-.1-.5-.4-.9-.7-.9-.3.1-.4.6-.3 1.1z"/><path fill="#E2B522" d="M1167.3 266.9c.2.5.5.9.7.8.2-.1.3-.5.2-1.1-.1-.5-.5-.9-.7-.8-.3.1-.4.6-.2 1.1z"/><path fill="#E2B522" d="M1166.4 267.2c.2.5.6.8.8.8.2-.1.3-.6.1-1.1-.2-.5-.5-.9-.8-.8-.2.1-.3.6-.1 1.1z"/><path fill="#E2B522" d="M1165.6 267.6c.2.5.6.8.8.7.2-.1.3-.6.1-1.1-.2-.5-.6-.8-.9-.7-.2.1-.2.6 0 1.1z"/><path fill="#E2B522" d="M1164.7 268.1c.3.5.7.8.9.6.2-.1.2-.6 0-1.1-.2-.5-.6-.8-.9-.7-.3.2-.2.7 0 1.2z"/><path fill="#E2B522" d="M1164 268.5c.3.4.7.7.9.6.2-.1.2-.6-.1-1.1-.3-.5-.7-.8-1-.6-.2.2-.1.7.2 1.1z"/><path fill="#E2B522" d="M1163.3 269.1c.3.4.8.6 1 .5.2-.1.1-.6-.2-1.1-.3-.5-.8-.7-1-.5-.3.1-.2.6.2 1.1z"/><path fill="#E2B522" d="M1162.6 269.6c.2.2.4.3.6.4.2.1.3.1.4 0 .2-.2.1-.6-.3-1.1-.3-.4-.8-.6-1-.4-.1.1-.1.3-.1.5.1.2.2.4.4.6z"/><path fill="#E2B522" d="M1161.9 270.3c.4.4.9.5 1 .3.2-.2 0-.6-.3-1-.4-.4-.8-.6-1.1-.4-.2.3 0 .8.4 1.1z"/><path fill="#E2B522" d="M1161.3 271c.4.3.9.5 1.1.3.1-.1.1-.3 0-.4-.1-.2-.2-.4-.4-.6-.2-.2-.4-.3-.6-.4-.2 0-.4 0-.5.1-.2.2 0 .7.4 1z"/><path fill="#E2B522" d="M1160.8 271.7c.5.3.9.4 1.1.2.1-.2-.1-.6-.5-1-.4-.3-.9-.4-1.1-.2-.2.3 0 .7.5 1z"/><path fill="#E2B522" d="M1160.3 272.5c.5.3 1 .3 1.1.1.1-.1 0-.3-.1-.4-.1-.2-.3-.4-.5-.5-.2-.2-.5-.3-.7-.3-.2 0-.4 0-.4.2-.1.2.1.6.6.9z"/><path fill="#E2B522" d="M1159.9 273.4c.5.2 1 .2 1.1 0 .1-.2-.2-.6-.6-.9-.5-.3-1-.3-1.1 0-.2.2.1.6.6.9z"/><path fill="#E2B522" d="M1159.5 274.2c.5.2 1 .2 1.1-.1.1-.2-.2-.6-.7-.8-.5-.2-1-.2-1.1.1-.1.2.2.6.7.8z"/><path fill="#E2B522" d="M1159.2 275c.5.2 1 .1 1.1-.1.1-.2-.3-.6-.8-.8-.5-.2-1-.1-1.1.1-.1.3.3.7.8.8z"/><path fill="#E2B522" d="M1159 275.9c.5.1 1 0 1.1-.2.1-.2-.3-.6-.8-.7-.5-.2-1-.1-1.1.2-.1.2.2.6.8.7z"/><path fill="#E2B522" d="M1158.8 276.9c.5.1 1-.1 1.1-.3 0-.2-.3-.5-.9-.7-.5-.1-1 0-1.1.3-.1.3.4.6.9.7z"/><path fill="#E2B522" d="M1158.7 277.8c.6 0 1-.1 1-.4 0-.2-.4-.5-.9-.6-.5-.1-1 .1-1.1.4 0 .3.5.5 1 .6z"/><path fill="#E2B522" d="M1158.7 278.7c.5 0 1-.2 1-.5 0-.2-.4-.5-1-.5-.5 0-1 .2-1 .5 0 .2.4.5 1 .5z"/><path fill="#E2B522" d="M1158.7 279.5c.6 0 1-.3 1-.5s-.5-.5-1-.5c-.6 0-1 .2-1 .5 0 .4.5.6 1 .5z"/><path fill="#E2B522" d="M1158.8 280.5c.5-.1 1-.4.9-.6 0-.2-.5-.4-1-.4s-1 .3-.9.6c0 .3.5.5 1 .4z"/><path fill="#E2B522" d="M1159 281.4c.5-.1.9-.4.9-.7 0-.2-.5-.4-1.1-.3-.5.1-.9.4-.9.7.1.3.6.4 1.1.3z"/><path fill="#E2B522" d="M1159.2 282.3c.5-.2.9-.5.8-.7-.1-.2-.5-.3-1.1-.2-.5.1-.9.4-.8.7.1.2.6.3 1.1.2z"/><path fill="#E2B522" d="M1159.5 283.1c.5-.2.8-.6.8-.8-.1-.2-.6-.3-1.1-.1-.5.2-.9.5-.8.8.1.3.6.3 1.1.1z"/><path fill="#E2B522" d="M1159.9 284c.5-.2.8-.6.7-.9-.1-.2-.6-.3-1.1-.1-.5.2-.8.6-.7.9.1.3.6.4 1.1.1z"/><path fill="#E2B522" d="M1160.3 284.8c.5-.3.8-.7.6-.9-.1-.2-.6-.2-1.1 0-.5.2-.8.6-.7.9.3.3.8.3 1.2 0z"/><path fill="#E2B522" d="M1160.8 285.5c.4-.3.7-.7.6-.9-.1-.2-.6-.2-1.1.1-.5.3-.8.7-.6 1 .2.2.7.2 1.1-.2z"/><path fill="#E2B522" d="M1161.3 286.3c.4-.3.6-.8.5-1-.1-.2-.6-.1-1.1.2-.5.3-.7.8-.5 1 .2.2.7.1 1.1-.2z"/><path fill="#E2B522" d="M1162 287c.4-.4.6-.8.4-1-.2-.2-.6-.1-1.1.3-.4.3-.6.8-.4 1 .2.2.7.1 1.1-.3z"/><path fill="#E2B522" d="M1162.6 287.6c.4-.4.5-.9.3-1-.2-.2-.6 0-1 .3-.4.4-.6.8-.4 1.1.3.2.8.1 1.1-.4z"/><path fill="#E2B522" d="M1163.3 288.2c.3-.4.5-.9.3-1.1-.2-.2-.6 0-1 .4s-.5.9-.3 1.1c.2.3.7.1 1-.4z"/><path fill="#E2B522" d="M1164 288.8c.3-.5.4-.9.2-1.1-.2-.2-.6.1-1 .5-.3.4-.4.9-.2 1.1.3.1.7-.1 1-.5zm.9.5c.3-.5.3-1 .1-1.1-.2-.1-.6.1-.9.6-.3.5-.4 1-.1 1.1.2.1.6-.1.9-.6z"/><path fill="#E2B522" d="M1165.7 289.7c.2-.5.2-1 0-1.1s-.6.2-.9.6c-.3.5-.3 1 0 1.1.2.2.6-.1.9-.6z"/><path fill="#E2B522" d="M1166.5 290c.2-.5.2-1-.1-1.1-.2-.1-.6.2-.9.7-.2.5-.2 1 .1 1.1.3.2.7-.1.9-.7z"/><path fill="#E2B522" d="M1167.3 290.3c.2-.5.1-1-.1-1.1-.2-.1-.6.2-.8.8-.2.5-.2 1 .1 1.1.3.1.7-.2.8-.8zm1 .3c.1-.5 0-1-.2-1.1-.2-.1-.6.3-.7.8-.2.5-.1 1 .2 1.1.2.1.6-.3.7-.8z"/><path fill="#E2B522" d="M1169.2 290.8c.1-.5-.1-1-.3-1.1-.2 0-.5.3-.7.9-.1.5 0 1 .3 1.1.3 0 .6-.4.7-.9z"/><path fill="#E2B522" d="M1170 290.8c0-.6-.1-1-.4-1-.2 0-.5.4-.6.9-.1.5.1 1 .4 1.1.3 0 .6-.4.6-1z"/><path fill="#E2B522" d="M1170.9 290.9c0-.5-.2-1-.5-1-.2 0-.5.4-.5 1 0 .5.2 1 .5 1s.5-.5.5-1z"/><path fill="#EDEEE2" d="M796.3 240.8s-16.3-13.9-29.6-11c-13.2 2.9 27.4 12.8 28.9 12.9.6-.8.7-1.9.7-1.9zm2.8-2.2l-1.2 1.1S776.2 224.8 779 213c.4-1.4 2.7-.9 5.7 2.9 7.5 9.6 13 17.7 14.4 22.7zm1.1 19.8l1.3.8s-8.7 24.9-20.8 25.3c-1.4 0-1.5-2.4 1.3-6.2 7.3-9.9 13.7-17.3 18.2-19.9z"/><path fill="#EDEEE2" d="M795.1 244.1s-31.4-15.8-33.8-10.4c-2.4 5.4 26.3 12.8 33.1 11l.7-.6z"/><path fill="#EDEEE2" d="M794.3 249s.8-.9-.8-1.9c-1.6-1-28-6.9-32.4-2.8-4.5 4.1 21.8 10.9 33.2 4.7zm5.8-11.3s-13.6-16.9-10.1-26.1c.7-1.4 5.8.2 7.6 8.2 1.8 8 4.2 17.3 4.2 17.3l-1.7.6z"/><path fill="#EDEEE2" d="M805.8 236.2l-1 .1s-13.4-28.9-9.1-32.9c1.1 0 2.3.7 2.3.7s10.7 14.3 7.8 32.1zm6 22.6l.9-.5s22 23.1 19.2 28.2c-1 .4-2.4.1-2.4.1s-14.8-10-17.7-27.8z"/><path fill="#EDEEE2" d="M810.1 236.9s-1.6.2-1.9-.8c-.2-1-3.5-28.5 3.6-33.7 1.8-1.1 3.7 1.5 3.5 3.8-.1 2.4.4 24.4-5.2 30.7z"/><path fill="#EDEEE2" d="M811.2 237l1.1 1.2s11.9-9.9 13.1-26.7c.2-1.8.4-4.7-1.2-5.4-1.5-.6-6.4 4.4-13 30.9z"/><path fill="#EDEEE2" d="M815.4 240.7s16.9-7.5 21.4-22.3c.5-1.8-.9-3.5-2.3-2.5s-14.8 8.9-20.1 23.6c.2.8 1 1.2 1 1.2z"/><path fill="#EDEEE2" d="M816.4 242.6l1 1.1s30.1-1.9 32.3-12.3c.4-1.8-22 1.1-33.3 11.2zM796 253.4s-29.7 7.8-30.3 14c0 0-1.3 4 6.8 1.8s22.2-9.9 23.9-13.6c.7-2.1-.4-2.2-.4-2.2zm22.6-2.1s28.3 4.3 30.4 6.7c.6 1.1.1 1.4.1 1.4s1.1.3-1.2 1.1-17.9 3.6-30.2-7c.3-.9-.7-1.8.9-2.2z"/><path fill="#EDEEE2" d="M818.4 244.5s27.7-7.3 30.6-5.9c1 .7.7 1.2.7 1.2s1.1-.2-.6 1.4c-1.8 1.6-15 10.4-30.5 5.5-.2-.7-1.4-1.1-.2-2.2zm-2.8 11.6s16.4 11.1 23.5 21.7c.9 2.2-2.3 2.2-2.3 2.2s-14.1-6.3-22.2-22.9c.5-.3 1-1 1-1z"/><path fill="#EDEEE2" d="M816.1 255.1s13.3 14.6 24.9 20.1c2.3.5 1.8-2.6 1.8-2.6s-8.3-13.1-25.9-18.7c-.2.6-.8 1.2-.8 1.2zm-6.3 4.3s5.5 5.4 7.9 17.3c2.4 11.9 1.7 20.8-3.4 12.1-5.1-8.7-6.3-28.2-5.4-28.8l.9-.6zm-13.5-7.5s-5.5 5.4-17.4 7.5c-11.9 2.2-20.8 1.3-12-3.6s28.3-5.8 28.9-4.8l.5.9z"/><path fill="#EDEEE2" d="M807.5 260.6s3.5 30.2-8 33.3c-2.1.4-2.6-2.2.1-13.3 2.7-11.1 5.9-20.3 5.9-20.3s.9-.9 2 .3zm-8.9-3.5s-4.7.4-13.8 9.2c-9.1 8.8-13.2 11.4-9.9 14.7 1.2.6 9.5-.7 24.4-21.7-.1.1.8-1.4-.7-2.2zm2.7 2.7s-13.4 22.3-9.5 28.3c1.8 1.8 2.7.8 3.6-1.2.9-1.9 9.5-22.9 7.9-26.7-.3-.9-1.8-.8-2-.4zm16.1-8.6s34.7 5.3 35.4-.6c.6-5.9-29-4-34.9-.2l-.5.8z"/><circle fill="#E2B522" cx="806.6" cy="248.5" r="12.3"/><path fill="#E2B522" d="M798.3 257.5c.4-.4.5-.9.3-1-.2-.2-.6 0-1.1.3s-.6.8-.4 1.1c.3.2.8 0 1.2-.4z"/><path fill="#E2B522" d="M798.9 258.1c.3-.4.5-.9.3-1.1-.2-.2-.6 0-1 .4s-.5.9-.3 1.1c.2.2.7 0 1-.4z"/><path fill="#E2B522" d="M799.7 258.6c.3-.5.4-.9.2-1.1-.2-.1-.6.1-1 .5s-.4.9-.2 1.1c.2.2.7 0 1-.5z"/><path fill="#E2B522" d="M800.4 259.1c.3-.5.3-1 .1-1.1-.2-.1-.6.1-.9.6-.3.4-.4 1-.1 1.1.2.2.6-.1.9-.6z"/><path fill="#E2B522" d="M801.3 259.6c.2-.5.2-1 0-1.1-.2-.1-.6.2-.9.6-.3.5-.3 1 0 1.1.3.2.7-.1.9-.6z"/><path fill="#E2B522" d="M802.1 259.9c.2-.5.2-1-.1-1.1-.2-.1-.6.2-.8.7-.2.5-.2 1 .1 1.1.2.2.6-.2.8-.7z"/><path fill="#E2B522" d="M803 260.2c.2-.5.1-1-.1-1.1-.2-.1-.6.3-.8.8-.2.5-.1 1 .1 1.1.2.1.6-.3.8-.8z"/><path fill="#E2B522" d="M803.8 260.4c.1-.5 0-1-.2-1.1-.2-.1-.6.3-.7.8-.2.5-.1 1 .2 1.1.3.2.6-.2.7-.8z"/><path fill="#E2B522" d="M804.8 260.6c.1-.5-.1-1-.3-1.1-.2-.1-.5.3-.7.9-.1.5 0 1 .3 1.1.3.1.6-.3.7-.9z"/><path fill="#E2B522" d="M805.7 260.7c0-.5-.1-1-.4-1-.2 0-.5.4-.6.9-.1.5.1 1 .4 1.1.3 0 .5-.4.6-1z"/><path fill="#E2B522" d="M806.6 260.8c0-.6-.2-1-.5-1-.2 0-.5.4-.5 1 0 .5.2 1 .5 1 .2 0 .5-.5.5-1z"/><path fill="#E2B522" d="M807.5 260.7c0-.5-.3-1-.5-1s-.5.5-.5 1 .2 1 .5 1 .5-.4.5-1z"/><path fill="#E2B522" d="M808.4 260.6c-.1-.5-.4-1-.6-.9-.2 0-.4.5-.4 1s.3 1 .6.9c.4 0 .5-.4.4-1z"/><path fill="#E2B522" d="M809.3 260.4c-.1-.5-.4-.9-.7-.9-.2 0-.4.5-.3 1.1.1.5.4 1 .7.9.3 0 .4-.5.3-1.1z"/><path fill="#E2B522" d="M810.2 260.2c-.2-.5-.5-.9-.7-.8-.2.1-.3.5-.2 1.1.1.5.4.9.7.8.2-.1.3-.6.2-1.1z"/><path fill="#E2B522" d="M811 259.9c-.2-.5-.6-.8-.8-.8-.2.1-.3.6-.1 1.1.2.5.5.9.8.8.3-.1.3-.6.1-1.1z"/><path fill="#E2B522" d="M811.9 259.5c-.2-.5-.6-.8-.9-.7-.2.1-.3.6-.1 1.1.2.5.6.8.9.7.4-.1.4-.6.1-1.1z"/><path fill="#E2B522" d="M812.7 259.1c-.3-.5-.7-.8-.9-.6-.2.1-.2.6 0 1.1.2.5.6.8.9.7.3-.2.3-.7 0-1.2z"/><path fill="#E2B522" d="M813.5 258.6c-.3-.5-.7-.7-.9-.6-.2.1-.2.6.1 1.1.3.5.7.8 1 .6.1-.1.1-.6-.2-1.1z"/><path fill="#E2B522" d="M814.2 258.1c-.3-.4-.8-.6-1-.5-.2.1-.1.6.2 1.1.3.5.8.7 1 .5.2-.2.1-.7-.2-1.1z"/><path fill="#E2B522" d="M814.9 257.4c-.4-.4-.8-.6-1-.4-.2.2-.1.6.3 1.1.3.4.8.6 1 .4.2-.2.1-.7-.3-1.1z"/><path fill="#E2B522" d="M815.6 256.8c-.4-.4-.9-.5-1-.3-.2.2 0 .6.3 1.1.4.4.8.6 1.1.4.1-.3 0-.8-.4-1.2z"/><path fill="#E2B522" d="M816.1 256.1c-.4-.3-.9-.5-1.1-.3-.2.2 0 .6.4 1s.9.5 1.1.3c.3-.2.1-.6-.4-1z"/><path fill="#E2B522" d="M816.7 255.4c-.5-.3-.9-.4-1.1-.2-.1.2.1.6.5 1s.9.4 1.1.2c.2-.2-.1-.7-.5-1z"/><path fill="#E2B522" d="M817.2 254.6c-.5-.3-1-.3-1.1-.1-.1.2.1.6.6.9.5.3 1 .4 1.1.1.1-.2-.1-.6-.6-.9z"/><path fill="#E2B522" d="M817.6 253.8c-.5-.2-1-.2-1.1 0-.1.2.2.6.6.9.5.3 1 .3 1.1 0 .2-.3-.1-.7-.6-.9z"/><path fill="#E2B522" d="M818 253c-.5-.2-1-.2-1.1.1-.1.2.2.6.7.8.5.2 1 .2 1.1-.1.1-.2-.2-.6-.7-.8z"/><path fill="#E2B522" d="M818.3 252.1c-.5-.2-1-.1-1.1.1-.1.2.3.6.8.8.5.2 1 .2 1.1-.1.1-.2-.3-.6-.8-.8z"/><path fill="#E2B522" d="M818.5 251.2c-.3-.1-.5-.1-.7 0-.2 0-.3.1-.4.2-.1.2.3.6.8.7.5.2 1 .1 1.1-.2 0-.1 0-.3-.2-.4-.1-.2-.3-.3-.6-.3z"/><path fill="#E2B522" d="M818.7 250.3c-.5-.1-1 .1-1.1.3-.1.2.3.5.9.7.5.1 1 0 1.1-.3 0-.3-.4-.6-.9-.7z"/><path fill="#E2B522" d="M818.8 249.4c-.3 0-.5 0-.7.1-.2.1-.3.2-.3.3 0 .2.4.5.9.6.5.1 1-.1 1.1-.4 0-.1-.1-.3-.2-.4-.3-.1-.6-.2-.8-.2z"/><path fill="#E2B522" d="M818.8 248.5c-.6 0-1 .2-1 .5 0 .2.4.5 1 .5.5 0 1-.2 1-.5 0-.2-.4-.5-1-.5zm0-1c-.6 0-1 .3-1 .5 0 .1.1.2.3.3.2.1.4.1.7.1.3 0 .5-.1.7-.2.2-.1.3-.2.3-.4 0-.1-.5-.3-1-.3z"/><path fill="#E2B522" d="M818.7 246.6c-.5.1-1 .4-.9.6 0 .2.5.4 1 .4s1-.3.9-.6c0-.3-.5-.4-1-.4z"/><path fill="#E2B522" d="M818.5 245.8c-.5.1-.9.4-.9.7 0 .2.5.4 1.1.3.5-.1 1-.4.9-.7-.1-.3-.6-.5-1.1-.3z"/><path fill="#E2B522" d="M818.3 244.9c-.5.2-.9.5-.8.7.1.2.5.3 1.1.2.5-.1.9-.4.8-.7-.1-.3-.6-.4-1.1-.2zm-.4-.9c-.5.2-.8.6-.8.8.1.2.6.3 1.1.1.5-.2.9-.5.8-.8 0-.3-.6-.3-1.1-.1z"/><path fill="#E2B522" d="M817.6 243.2c-.5.2-.8.6-.7.9.1.2.6.3 1.1.1.5-.2.9-.6.7-.9-.1-.4-.6-.4-1.1-.1z"/><path fill="#E2B522" d="M817.2 242.4c-.5.3-.8.7-.6.9.1.2.6.2 1.1 0 .5-.2.8-.6.7-.9-.3-.3-.8-.3-1.2 0z"/><path fill="#E2B522" d="M816.7 241.6c-.4.3-.7.7-.6.9.1.2.6.2 1.1-.1.5-.3.8-.7.6-1-.2-.2-.7-.1-1.1.2z"/><path fill="#E2B522" d="M816.1 240.8c-.4.3-.6.8-.5 1 .1.2.6.1 1.1-.2.5-.3.7-.8.5-1-.2-.2-.7-.1-1.1.2z"/><path fill="#E2B522" d="M815.5 240.1c-.4.4-.6.8-.4 1 .2.2.6.1 1.1-.3.4-.3.6-.8.4-1-.2-.2-.7 0-1.1.3z"/><path fill="#E2B522" d="M814.9 239.5c-.4.4-.5.9-.3 1 .2.2.6 0 1.1-.3.4-.4.6-.8.4-1.1-.4-.2-.8 0-1.2.4z"/><path fill="#E2B522" d="M814.2 238.9c-.3.4-.5.9-.3 1.1.2.2.6 0 1-.4s.5-.9.3-1.1c-.2-.2-.7 0-1 .4zm-.8-.6c-.3.5-.4.9-.2 1.1.2.2.6-.1 1-.5s.4-.9.2-1.1c-.2-.2-.7.1-1 .5z"/><path fill="#E2B522" d="M812.7 237.9c-.3.5-.3 1-.1 1.1.2.1.6-.1.9-.6.3-.4.4-1 .1-1.1-.2-.2-.7.1-.9.6z"/><path fill="#E2B522" d="M811.9 237.5c-.2.5-.2 1 0 1.1.2.1.6-.2.9-.6.3-.5.3-1 0-1.1-.3-.2-.7.1-.9.6z"/><path fill="#E2B522" d="M811 237.1c-.2.5-.2 1 .1 1.1.2.1.6-.2.9-.7.2-.5.2-1 0-1.1-.4-.1-.8.2-1 .7z"/><path fill="#E2B522" d="M810.1 236.8c-.2.5-.1 1 .1 1.1.2.1.6-.3.8-.8.2-.5.1-1-.1-1.1-.3-.1-.6.3-.8.8z"/><path fill="#E2B522" d="M809.2 236.6c-.1.5 0 1 .2 1.1.2.1.6-.3.7-.8.2-.5.1-1-.2-1.1-.2-.2-.5.2-.7.8z"/><path fill="#E2B522" d="M808.4 236.4c-.1.5.1 1 .3 1.1.2.1.5-.3.7-.9.1-.5 0-1-.3-1.1-.3-.1-.7.3-.7.9z"/><path fill="#E2B522" d="M807.5 236.3c0 .3 0 .5.1.7.1.2.2.3.3.3.2 0 .5-.4.6-.9.1-.5-.1-1-.4-1.1-.1 0-.3.1-.4.2-.1.3-.2.5-.2.8zm-1 0c0 .5.2 1 .5 1 .2 0 .5-.4.5-1 0-.5-.2-1-.5-1s-.5.4-.5 1zm-.9 0c0 .6.3 1 .5 1 .1 0 .2-.1.3-.3.1-.2.1-.4.1-.7 0-.3-.1-.5-.2-.7-.1-.2-.2-.3-.4-.3-.1 0-.3.4-.3 1z"/><path fill="#E2B522" d="M804.7 236.4c.1.5.4 1 .6.9.2 0 .4-.5.4-1s-.3-1-.6-.9c-.3 0-.5.4-.4 1z"/><path fill="#E2B522" d="M803.8 236.6c.1.5.4.9.7.9.1 0 .2-.2.3-.3.1-.2.1-.4 0-.7 0-.3-.1-.5-.3-.7-.1-.2-.3-.2-.4-.2-.2-.1-.4.4-.3 1z"/><path fill="#E2B522" d="M802.9 236.8c.2.5.5.9.7.8.2-.1.3-.5.2-1.1-.1-.5-.5-.9-.7-.8-.3.1-.4.6-.2 1.1z"/><path fill="#E2B522" d="M802 237.1c.2.5.6.8.8.8.2-.1.3-.6.1-1.1-.2-.5-.5-.9-.8-.8-.2.1-.3.6-.1 1.1z"/><path fill="#E2B522" d="M801.2 237.5c.2.5.6.8.8.7.2-.1.3-.6.1-1.1-.2-.5-.6-.9-.9-.7-.2.1-.2.6 0 1.1z"/><path fill="#E2B522" d="M800.4 237.9c.3.5.7.8.9.6.2-.1.2-.6 0-1.1-.2-.5-.6-.8-.9-.7-.3.2-.2.7 0 1.2z"/><path fill="#E2B522" d="M799.6 238.4c.3.4.7.7.9.6.2-.1.2-.6-.1-1.1-.3-.5-.7-.8-1-.6-.2.2-.1.7.2 1.1z"/><path fill="#E2B522" d="M798.9 238.9c.3.4.8.6 1 .5.2-.1.1-.6-.2-1.1-.3-.5-.8-.7-1-.5-.3.2-.2.7.2 1.1z"/><path fill="#E2B522" d="M798.2 239.5c.4.4.8.6 1 .4.2-.2.1-.6-.3-1.1-.3-.4-.8-.6-1-.4-.2.2-.1.7.3 1.1z"/><path fill="#E2B522" d="M797.6 240.2c.4.4.9.5 1 .4.2-.2 0-.6-.3-1.1-.4-.4-.8-.6-1.1-.4-.2.2 0 .7.4 1.1zm-.7.7c.4.3.9.5 1.1.3.2-.2 0-.6-.4-1s-.9-.5-1.1-.3c-.2.2 0 .7.4 1z"/><path fill="#E2B522" d="M796.4 241.6c.5.3.9.4 1.1.2.1-.2-.1-.6-.5-1s-.9-.4-1.1-.2c-.2.3.1.7.5 1z"/><path fill="#E2B522" d="M795.9 242.4c.5.3 1 .3 1.1.1.1-.2-.1-.6-.6-.9-.4-.3-1-.4-1.1-.1-.1.2.2.6.6.9z"/><path fill="#E2B522" d="M795.5 243.2c.5.2 1 .2 1.1 0 .1-.2-.2-.6-.6-.9-.5-.3-1-.3-1.1 0-.2.2.1.6.6.9zm-.4.9c.5.2 1 .2 1.1-.1.1-.2-.2-.6-.7-.8-.5-.2-1-.2-1.1.1-.1.2.2.6.7.8z"/><path fill="#E2B522" d="M794.8 244.9c.5.2 1 .1 1.1-.1.1-.2-.3-.6-.8-.8-.5-.2-1-.1-1.1.1-.1.3.3.7.8.8z"/><path fill="#E2B522" d="M794.6 245.8c.5.1 1 0 1.1-.2.1-.2-.3-.6-.8-.7-.5-.2-1-.1-1.1.2-.1.2.3.6.8.7z"/><path fill="#E2B522" d="M794.4 246.7c.5.1 1-.1 1.1-.3.1-.2-.3-.5-.9-.7-.5-.1-1 0-1.1.3 0 .3.4.6.9.7z"/><path fill="#E2B522" d="M794.3 247.7c.5 0 1-.1 1-.4 0-.2-.4-.5-.9-.6-.5-.1-1 .1-1.1.4.1.2.5.5 1 .6z"/><path fill="#E2B522" d="M794.3 248.5c.6 0 1-.2 1-.5 0-.2-.4-.5-1-.5-.5 0-1 .2-1 .5s.5.5 1 .5z"/><path fill="#E2B522" d="M794.3 249.4c.5 0 1-.3 1-.5s-.5-.5-1-.5c-.6 0-1 .2-1 .5 0 .4.5.6 1 .5z"/><path fill="#E2B522" d="M794.4 250.3c.5-.1 1-.4.9-.6 0-.2-.5-.4-1-.4s-1 .3-.9.6c0 .3.5.5 1 .4z"/><path fill="#E2B522" d="M794.6 251.3c.5-.1.9-.4.9-.7 0-.2-.5-.4-1.1-.3-.5.1-.9.4-.9.7.1.3.6.4 1.1.3z"/><path fill="#E2B522" d="M794.9 252.2c.5-.2.9-.5.8-.7-.1-.2-.5-.3-1.1-.2-.5.1-.9.5-.8.7 0 .2.5.3 1.1.2z"/><path fill="#E2B522" d="M795.2 253c.5-.2.8-.6.8-.8-.1-.2-.6-.3-1.1-.1-.5.2-.9.5-.8.8 0 .2.5.3 1.1.1z"/><path fill="#E2B522" d="M795.5 253.8c.5-.2.8-.6.7-.8-.1-.2-.6-.3-1.1-.1-.5.2-.9.6-.7.9.1.2.6.3 1.1 0z"/><path fill="#E2B522" d="M796 254.7c.5-.3.8-.7.6-.9-.1-.2-.6-.2-1.1 0-.5.2-.8.6-.7.9.2.3.7.3 1.2 0z"/><path fill="#E2B522" d="M796.5 255.4c.4-.3.7-.7.6-.9-.1-.2-.6-.2-1.1.1-.5.3-.8.7-.6 1 .1.2.6.2 1.1-.2z"/><path fill="#E2B522" d="M797 256.2c.4-.3.6-.8.5-1-.1-.2-.6-.1-1.1.2-.5.3-.7.8-.5 1 .2.2.7.1 1.1-.2z"/><path fill="#E2B522" d="M797.6 256.8c.4-.4.6-.8.4-1-.2-.2-.6-.1-1.1.3-.4.3-.6.8-.4 1 .2.2.7.1 1.1-.3z"/><path fill="#4356A0" d="M1449.4 172s6 13.3 6.4 20.2c.4 6.9-6.9 6.2-7.3 15-.4 8.8-1.3 3.8-3.7 10.8-3.2-5.7-3.6-1-5.5-10-1.9-8.6-9-6.7-9.8-13.5-.8-6.9 2.9-21 2.9-21l17-1.5z"/><path d="M1441.6 173.8l-1.2.1 3.7 42.8.7 1.2.4-1.3"/><path fill="#4356A0" d="M1450.9 158s14.5-1.5 21.2.2c6.7 1.8 3.7 8.5 11.9 11.6 8.2 3.1 3.2 2.5 9 6.9-6.4 1.2-2.1 3.1-11.2 2.1-8.8-.9-9.1 6.5-15.9 5.1-6.7-1.4-19.1-9.3-19.1-9.3l4.1-16.6z"/><path d="M1450.3 166l-.3 1.2 41.8 9.9 1.3-.3-1-.9"/><path fill="#4356A0" d="M1452.6 160.5s11.1-9.5 14.5-15.5c3.3-6-3.6-8.6-.2-16.7 3.5-8.1.5-4 1.3-11.3-5.3 3.8-3.7-.6-9.3 6.6-5.4 7-11 2.1-14.6 8-3.6 5.9-6.5 20.2-6.5 20.2l14.8 8.7z"/><path d="M1446.3 155.5l-1-.6 21.7-37.1 1.2-.7-.2 1.3"/><path fill="#4356A0" d="M1441.2 152.7s-5.5-13.5-10.2-18.6c-4.7-5.1-9.3.8-15.9-5.1-6.6-5.8-3.7-1.7-10.3-4.7 2 6.2-1.7 3.3 3.4 10.9 4.9 7.3-1.4 11.1 3 16.4 4.4 5.3 17.2 12.4 17.2 12.4l12.8-11.3z"/><path d="M1434.4 157.1l-.9.8-28.4-32.3-.4-1.3 1.3.6"/><path fill="#4356A0" d="M1435.9 175.4s-10.8 9.8-17.2 12.4c-6.4 2.6-8-4.7-16.5-2.3-8.5 2.4-4.1-.1-11.4-.2 4.4-4.8-.1-3.7 7.7-8.3 7.6-4.5 3.5-10.6 9.8-13.5 6.3-2.9 20.8-3.9 20.8-3.9l6.8 15.8z"/><path fill="#2D9681" d="M1432 160.3s-15.2-9.1-29.2-4.4c-1.7.6-2.2 2.6-.7 3.2 1.5.6 15.1 6.7 29.6 2.7.4-.7.3-1.5.3-1.5zm7.6-6.3s6.9-16.3.3-29.5c-.8-1.6-2.9-1.8-3.3-.2-.3 1.6-4.5 15.9 1.5 29.7.6.3 1.5 0 1.5 0zm9.7 7.4s17.7-.3 27.2-11.6c1.1-1.4.5-3.4-1.1-3.1-1.6.3-16.4 2.3-26.6 13.3-.1.7.5 1.4.5 1.4zm-2.6 10.2s16.6 6.3 21.6 20.2c.6 1.7-.7 3.4-2.1 2.5-1.4-.9-14.6-7.7-20.4-21.6.1-.7.9-1.1.9-1.1zm-8.8 2.6s-4 17.3-17 24.2c-1.6.8-3.4-.2-2.8-1.7.7-1.5 5.6-15.6 18.5-23.2.8-.1 1.3.7 1.3.7z"/><path d="M1431.7 168.5l-.5-1.1-39.5 16.9-.9 1 1.4.1"/><circle fill="#4356A0" cx="1436.3" cy="162.9" r="1.7"/><circle fill="#4356A0" cx="1438.6" cy="168.3" r="1.7"/><circle fill="#4356A0" cx="1442" cy="160.5" r="1.7"/><circle fill="#4356A0" cx="1444.3" cy="165.9" r="1.7"/><path fill="#EDEEE2" d="M1444.8 175.6c.7-.1 1.7-.2 2.2-1 .3-.5.4-1.1.3-1.9 0-.1-.1-.3-.1-.4.5.2 1 .2 1.4 0 .9-.3 1.3-1.2 1.5-1.9.1-.2.2-.4.3-.5.4.1 1.2-.2 1.6-.7.3-.3.5-.9.2-1.7-.1-.2-.1-.3-.3-.5 1.4-.8 1.1-1.8 1-2.2-.2-.5-.7-.9-1-1v-.6c0-.5.1-1.2-.2-1.8-.3-.8-1-1.2-2.1-1.2h-.1c.7-.8.9-1.6.6-2.3-.3-.6-.8-1.1-1.2-1.4-.2-.1-.4-.3-.4-.4.2-.3.2-.9 0-1.5-.2-.4-.7-1.3-2.3-.8 0-.2-.1-.4-.2-.5-.4-.8-1-1-1.4-1.1-.7 0-1.3.3-1.6.7-.1 0-.4-.1-.5-.2-.9-.3-2.4-.9-3.3.7l-.1-.1c-.5-.7-1-1-1.6-1.1-.9-.1-1.7.5-2.2.9-.2.1-.4.3-.5.3-.3-.3-1.2-.4-1.9-.1-.4.2-.9.8-.8 1.9-.8 0-1.3.3-1.6.8-.4.6-.3 1.3-.1 1.7.1.1.1.3.3.4 0 .1-.2.3-.3.5-.4.6-1 1.6-.6 2.6.1.3.3.5.5.7h-.1c-.8.2-1.4.5-1.7 1-.5.8-.3 1.8-.1 2.4 0 .2.1.5.1.6-.3.1-.6.5-.7.9-.1.3-.2.8 0 1.3s.6.8 1.3 1.1c-.3.6-.3 1.2-.1 1.6.2.5.6.7.9.9.4.2.9.2 1.2.1.1.1.2.3.3.5.4.6.9 1.4 1.8 1.6.6.1 1.2-.1 1.8-.5 0 .2.1.5.1.6.4 1 1.5 1.2 2.2 1.4.2 0 .5.1.6.2 0 .2.1.3.1.5.2.5.7 1 1.3 1.1.4.1 1 0 1.7-.7.8.9 1.5.9 1.9.7.7-.2 1.2-1 1.2-1.4.3-.2.5-.2.7-.2zm3-14.6h.2c-1 1.4-.2 4.5 0 5.1-.5.5-3 3.2-2.3 4.9-1.6-.2-3.9.9-4.4 1.2-.6-.4-3.9-2.4-5.4-1.2 0-.1-.1-.2-.1-.3-.6-1.5-2.4-2.8-2.9-3.2.1-.6.3-2.8-.3-4.3-.1-.2-.2-.4-.3-.5.3 0 .6-.1.8-.3 1.4-1 2-3.8 2.1-4.4.6-.2 2.8-1 3.8-2.2 1 1.5 4.3 1.6 5 1.6.4.6 2 3.3 3.8 3.6z"/><path fill="#8CB279" d="M1086.1 338.3s-.3-.1-.9-1c-.6-.9-.8-1.4-.8-1.4s-2.7 4.3-8.2 7.3c-2.1 1.1-2.8 1-2.8 1s-1.2-1.1-1.5-3.4c0 0-2.1 2.2-4.9 3.8-2.8 1.6-6.1 1.9-6.1 1.9s-1.2-1.5-1-2.8c.2-1.3-.5 1.5-5.4 3.3-4.9 1.7-8.6 1-8.6 1s-1.2-1.3-1.4-3.1c0 0-1.9 1.9-7 2.4-4.7.5-9.2-1.5-9.8-1.7-.1-.6-.5-5.5 1.4-9.8 2-4.6 4.5-5.9 4.5-5.9-1.6-.7-2.5-2.3-2.5-2.3s.4-3.8 3.6-7.9c3.2-4.2 6.1-3.9 4.8-4.1-1.3-.2-2.4-1.8-2.4-1.8s1.3-3.1 3.7-5.2c2.4-2.1 5.1-3.5 5.1-3.5-2.1-1-2.8-2.5-2.8-2.5s.1-.7 1.8-2.3c4.5-4.3 9.4-5.5 9.4-5.5s-.5-.3-1.1-1.2c-.6-.9-.7-1.2-.7-1.2s-.2-.5 2.7-2.1c2.9-1.6 9.9-2.6 9.9-2.6-1-1.8-2.5-3-.1-3.9 7.7-2.9 16.3-4 24.5-3.7 3.8.2 7.5.6 11.2 1.4 1.9.4 4.2.8 6.3 1.5-2.6 1.8-3.5 2.2-4.3 2.9-9.4 6.8-13.9 12.3-18 18.3 7.1-2 13.6-4.6 23-11.5.8-.6 1.5-1.3 4.1-3.2-.1 2.2-.4 4.5-.6 6.4-.4 3.7-1.1 7.5-2.1 11.1-2.2 7.9-5.9 15.8-11.1 22.2-1.6 2-2.2.2-3.6-1.3 0 0-3.1 6.3-5.5 8.6-2.3 2.2-2.8 1.8-2.8 1.8"/><path fill="#3E879F" d="M616.1 207.6s-10.3.2-16.3-3.6c-.1 0-.1-.1-.2-.1l.6-.4s-4.1-1.6-5-2.6l.8-.2s-3-1.7-3.8-2.3l.9-.5s-3.1-1.7-3.5-2.3c.7-.1.8-.4.8-.4l-2.8-3h.7c.2 0-2.3-2.7-2.3-2.7l1.1.3-2.9-4 1.3.3-3.2-5.1h1.1l-1.6-3 1.1.2-2.1-4.5 1.6-.3-1.3-4.5 1.7.8-1.5-3.8 2.1.1-1.2-3.7 1.1.5-.6-3.6 1.3.5-.6-4.2 1.1.7-.4-3.2 1 .3-.8-3.4 2.5 2.4.2-1 2.6 1.9v-1.3l3.3 2.6.2-1.4 2.9 2.3.1-1.2 2.7 2.8 1-1.9 2.5 3.2.1-1.9 3.3 3.3 1-1.3 2.9 4 .4-1.1 1.8 2.9.6-1 2.8 5.3.4-1.3 2.1 4.5.3-1.1s1.1 3.4 1.3 3.3c.1-.1.3-.6.3-.6l1.3 3.9s.3.1.8-.4c.3.6.3 4.2.3 4.2l.9-.5c.1.9.1 4.4.1 4.4l.5-.6c.4 1.3-.2 5.7-.2 5.7l.6-.4v.2c.4 7.1-4.8 16-4.8 16l-3 1.8z"/><path d="M584.2 149.9l1.8 1.7 32.2 54.8-.6.3-.6.4-32.2-54.8"/><path fill="#80B9AA" d="M612.8 217.8s-7.1 7.5-14.1 9h-.2l.2-.7s-4.1 1.8-5.4 1.7l.4-.7-4.2 1.1.2-1s-3.4 1-4.1.9c.4-.5.2-.8.2-.8l-4.1-.2s.4-.3.5-.5c.1-.2-3.5-.3-3.5-.3l1-.6-4.9-.8 1.1-.7-5.9-1.3.8-.8-3.3-1 1-.7-4.7-1.7.9-1.3-4.1-2.3 1.8-.6-3.7-1.6 1.6-1.5-3.4-1.8 1.1-.4-3-2.2 1.3-.6-3.4-2.5 1.3-.3-2.6-1.9.9-.5-3-1.8 3.5-.1-.5-.9 3.2-.4-1-.9 4.2-.5-.9-1.1 3.7-.4-.8-.9 3.9.1-.7-2 4 .5-1.3-1.4h4.7l-.2-1.6 4.9.8-.5-1 3.4.8-.3-1.1 5.7 1.7-.6-1.2 4.7 1.7-.6-1s3.2 1.6 3.2 1.4c0-.2-.2-.7-.2-.7l3.7 1.9s.3-.2.2-.8c.7.2 3.1 2.7 3.1 2.7l.3-1c.7.5 3.2 3 3.2 3v-.8c1.2.6 3.9 4.1 3.9 4.1l.2-.7c.1 0 .1.1.2.1 5.3 4.7 7.9 14.7 7.9 14.7l-.9 3.4z"/><path d="M549.5 199.6l2.5-.1 61.4 16-.2.7-.1.6-61.5-16"/><path fill="#80B9AA" d="M628.8 208.5s10-2.5 14.8-7.8c0-.1.1-.1.1-.2l-.7-.2s3.5-2.7 4.2-3.8h-.8s2.5-2.5 3-3.2l-1-.3s2.5-2.5 2.8-3.1c-.7.1-.8-.2-.8-.2l1.9-3.7s-.5.2-.7.2c-.2 0 1.5-3.2 1.5-3.2l-1 .6 1.7-4.7-1.2.6 1.8-5.7-1.1.3.8-3.3-1 .5.8-4.9-1.6.2v-4.7l-1.4 1.2.5-4-2 .7.1-3.9-.9.8-.4-3.7-1.1.8-.5-4.2-.9 1-.4-3.2-.9.5-.1-3.5-1.8 2.9-.5-.9-2 2.6-.3-1.3-2.5 3.4-.6-1.3-2.2 3-.4-1.1-1.8 3.4-1.4-1.6-1.6 3.7-.6-1.8-2.3 4.1-1.3-1-1.7 4.7-.7-1-1 3.3-.8-.8-1.3 5.8-.7-1.1-.8 4.9-.6-1s-.2 3.6-.3 3.5c-.2-.1-.5-.5-.5-.5l-.2 4.1s-.3.2-.8-.2c-.1.7.8 4.1.8 4.1l-1-.3c.1.9 1 4.3 1 4.3l-.7-.4c-.1 1.3 1.7 5.4 1.7 5.4l-.7-.2v.2c1.5 6.9 8.9 14.1 8.9 14.1l3.2 1.1z"/><path d="M644.2 144.4l-1.3 2.1-16.4 61.4.7.1.6.2 16.5-61.3"/><path fill="#E73267" d="M649.5 222.8c-5.7 1.2-14.5-.7-19.5-2.9-18.3-8.6-7.6-22.5-7.6-22.5l.2-.3s10.2-14.3 23.8.7c3.6 4.1 8 12 8.5 17.8l-5.4 7.2z"/><path fill="#E73267" d="M651.6 218.9l-2.7 3.7 3.9 4.6 1-4.7h2.6l-.8-2.6 4.3-2.2-5.6-2.4m-38.5 27c3.9-4.3 6.5-13 7.1-18.4 1.5-20.1-15.9-17.7-15.9-17.7h-.3s-17.4 1.8-11.2 21c1.8 5.1 6.5 12.9 11.3 16.2l9-1.1z"/><path fill="#E73267" d="M611.4 242.3l4.6-.5 2.1 5.7-4.6-1.6-1.4 2.3-1.8-1.9-4.1 2.6.7-6"/><path fill="#447E65" d="M724.7 355.1l-.8-1.9 7.2-3s2.9-2.8 2.4-6.3 1.7-2.5 1.8-1.7c.1.7 3-4.4 2.5-5.7-.6-1.3.1-4.7 2.4-4.9 2.3-.2 1.5-1.6 1.6-3.7.1-2.1-.8-4.7 3.2-5.5-.3-1.9-.7-5.1 2.7-8.1 3.4-3 10-8.2 12.4-7.4 2.4.8 5.4-1.1 5.2-1.3-.2-.2.6-1.6 3.8-1.3 3.2.3 32.4-2 62 5.9-15 26.7-37 46-39 48.5s-3.6 2.1-3.6 1.8c0-.3-3.5.5-4.6 2.8-1.1 2.3-9.4 3.4-14 3.8-4.5.4-6.6-2.2-7.7-3.7-3.4 2.4-4.6-.1-6.2-1.5-1.6-1.4-2.1-2.9-3.8-1.4-1.7 1.5-4.6-.4-5.2-1.7-.6-1.3-6.2-2.8-5.8-2.2.4.6-.3 2.9-2.5.1-2.1-2.8-6.2-2.6-6.2-2.6l-7.2 3-.6-2"/><path d="M760.2 319.3l.9.3-6.8 22.5 14.1-5.9 7-23.2.9.3-6.8 22.5 14.1-5.9 7-23.2.9.3-6.8 22.5 45.8-19.3c.2.1.5.1.7.2-.1.2-.2.4-.4.7l-45.9 19.4 21.1 11-.4.8-21.8-11.3-14.1 5.9 21.1 11-.4.8-21.8-11.3-14.1 5.9 21.1 11-.4.8-21.8-11.3-28.5 12-.2-.4-.2-.4 28.6-12.1 7.1-23.6z"/><path fill="#4356A0" d="M666.4 309s6.1 13.3 6.5 20.2c.5 6.9-6.9 6.2-7.2 15-.3 8.8-1.3 3.8-3.6 10.8-3.2-5.7-3.6-1-5.6-9.9-1.9-8.6-9.1-6.6-9.9-13.4-.8-6.8 2.7-21 2.7-21l17.1-1.7z"/><path d="M658.5 310.9l-1.1.1 3.9 42.8.7 1.1.5-1.2"/><path fill="#4356A0" d="M667.8 295s14.5-1.6 21.2.1c6.7 1.7 3.8 8.5 12 11.5 8.3 3.1 3.2 2.4 9.1 6.8-6.4 1.3-2.1 3.1-11.2 2.2-8.8-.8-9.1 6.5-15.8 5.2-6.8-1.4-19.1-9.1-19.1-9.1l3.8-16.7z"/><path d="M667.1 303l-.2 1.2 41.9 9.5 1.3-.3-1.1-.8"/><path fill="#4356A0" d="M669.4 297.5s11-9.5 14.3-15.6c3.3-6.1-3.7-8.5-.3-16.7 3.4-8.1.4-4 1.2-11.3-5.3 3.8-3.7-.6-9.2 6.7-5.3 7-11 2.2-14.6 8.1-3.6 5.9-6.3 20.2-6.3 20.2l14.9 8.6z"/><path d="M663.1 292.5l-1-.6 21.5-37.2 1.1-.8-.1 1.4"/><path fill="#4356A0" d="M658 289.7s-5.6-13.5-10.3-18.5c-4.7-5-9.2.8-15.9-4.9-6.7-5.8-3.7-1.7-10.4-4.7 2 6.2-1.7 3.3 3.5 10.8 5 7.3-1.3 11.1 3.2 16.4 4.5 5.2 17.2 12.3 17.2 12.3l12.7-11.4z"/><path d="M651.2 294.2l-.8.8-28.7-32-.4-1.4 1.3.6"/><path fill="#4356A0" d="M652.9 312.4s-10.7 9.9-17.1 12.5c-6.4 2.6-8.1-4.6-16.5-2.1-8.5 2.5-4.1 0-11.4-.1 4.4-4.8-.2-3.7 7.7-8.4 7.6-4.5 3.4-10.7 9.7-13.6 6.3-2.9 20.8-4 20.8-4l6.8 15.7z"/><path fill="#2D9681" d="M648.8 297.4s-15.3-9-29.2-4.2c-1.7.6-2.2 2.6-.7 3.2 1.6.6 15.2 6.6 29.6 2.5.5-.6.3-1.5.3-1.5zm7.6-6.4s6.7-16.4.1-29.5c-.8-1.6-2.9-1.8-3.3-.2-.3 1.6-4.4 16 1.7 29.7.6.3 1.5 0 1.5 0zm9.7 7.3s17.7-.4 27.1-11.8c1.1-1.4.5-3.4-1.1-3.1-1.6.3-16.4 2.4-26.5 13.5-.1.8.5 1.4.5 1.4zm-2.5 10.3s16.6 6.2 21.7 20c.6 1.7-.7 3.4-2.1 2.5-1.4-.9-14.7-7.6-20.6-21.4.2-.7 1-1.1 1-1.1zm-8.7 2.6s-3.8 17.3-16.8 24.3c-1.6.8-3.4-.2-2.8-1.7.6-1.5 5.5-15.6 18.3-23.4.8.1 1.3.8 1.3.8z"/><path d="M648.6 305.6l-.5-1.1-39.3 17.2-.9 1.1h1.3"/><circle fill="#4356A0" cx="653.1" cy="300" r="1.7"/><path fill="#4356A0" d="M656.1 306.9c.8-.4 1.2-1.3.9-2.2-.4-.8-1.3-1.2-2.2-.9-.8.4-1.2 1.3-.9 2.2.4.9 1.4 1.3 2.2.9z"/><circle fill="#4356A0" cx="658.8" cy="297.5" r="1.7"/><path fill="#4356A0" d="M661.8 304.4c.8-.4 1.2-1.3.9-2.2-.4-.8-1.3-1.2-2.2-.9-.8.4-1.2 1.3-.9 2.2.4.9 1.4 1.3 2.2.9z"/><path fill="#EDEEE2" d="M661.8 312.6c.7-.1 1.7-.2 2.2-1 .3-.5.4-1.1.3-1.9 0-.1-.1-.3-.1-.4.5.2 1 .2 1.4 0 .8-.3 1.3-1.3 1.5-1.9.1-.2.2-.4.3-.5.4.1 1.2-.2 1.6-.7.3-.3.5-.9.2-1.7-.1-.2-.2-.3-.3-.5 1.4-.8 1.1-1.8 1-2.2-.2-.5-.7-.9-1-1v-.6c0-.5.1-1.2-.2-1.8-.3-.8-1.1-1.2-2.1-1.2h-.1c.7-.8.9-1.6.6-2.3-.3-.6-.8-1.1-1.2-1.4-.2-.1-.4-.3-.4-.4.2-.3.2-.9-.1-1.5-.2-.4-.7-1.3-2.3-.8 0-.2-.1-.4-.2-.5-.4-.8-1-1-1.4-1.1-.7 0-1.3.3-1.6.7-.1 0-.4-.1-.5-.2-.9-.3-2.4-.8-3.3.7l-.1-.1c-.5-.6-1-1-1.6-1.1-.9-.1-1.7.5-2.2.9-.2.1-.4.3-.5.3-.3-.3-1.2-.4-1.9-.1-.4.2-.9.8-.8 1.9-.8 0-1.3.3-1.6.8-.4.6-.3 1.3-.1 1.7.1.1.1.3.3.4 0 .1-.2.3-.3.5-.4.6-.9 1.6-.5 2.6.1.3.3.5.5.7h-.1c-.8.2-1.4.5-1.7 1-.5.8-.3 1.8-.1 2.4 0 .2.1.5.1.6-.3.1-.6.5-.7.9-.1.3-.2.8 0 1.3s.6.8 1.3 1c-.3.6-.3 1.2-.1 1.6.2.5.6.7.9.8.4.2.9.2 1.2.1.1.1.2.3.3.5.4.6.9 1.4 1.8 1.6.6.1 1.2-.1 1.8-.6 0 .2.1.5.2.6.4 1 1.5 1.2 2.2 1.3.2 0 .5.1.6.2 0 .2.1.3.1.5.2.5.7 1 1.3 1.1.4.1 1 0 1.7-.7.8.9 1.5.9 2 .7.7-.2 1.2-1 1.2-1.4 0 .2.3.2.5.2zm2.8-14.7h.2c-1 1.4-.1 4.5.1 5.1-.5.5-2.9 3.2-2.2 5-1.6-.2-3.9.9-4.4 1.2-.6-.4-3.9-2.4-5.4-1.1 0-.1-.1-.2-.1-.3-.6-1.5-2.4-2.8-2.9-3.2.1-.6.3-2.8-.3-4.3-.1-.2-.2-.4-.3-.5.3 0 .6-.1.8-.3 1.4-1 1.9-3.8 2.1-4.4.6-.2 2.8-1 3.8-2.3 1 1.5 4.3 1.6 5 1.6.2.6 1.8 3.3 3.6 3.5zm777.8 11.2s-16.3-13.9-29.6-11c-13.2 2.9 27.4 12.8 28.9 12.9.6-.8.7-1.9.7-1.9zm2.7-2.2l-1.2 1.1s-21.7-14.9-18.9-26.7c.4-1.4 2.7-.9 5.7 2.9 7.6 9.6 13.1 17.7 14.4 22.7zm1.2 19.8l1.3.8s-8.7 24.9-20.8 25.3c-1.4 0-1.5-2.4 1.3-6.2 7.3-9.9 13.7-17.3 18.2-19.9z"/><path fill="#EDEEE2" d="M1441.1 312.4s-31.4-15.8-33.8-10.4c-2.4 5.4 26.3 12.8 33.1 11l.7-.6z"/><path fill="#EDEEE2" d="M1440.3 317.3s.8-.9-.8-1.9c-1.6-1-28-6.9-32.4-2.8-4.5 4.1 21.9 10.9 33.2 4.7zm5.8-11.3s-13.6-16.9-10.1-26.1c.7-1.4 5.8.2 7.6 8.2 1.8 8 4.2 17.3 4.2 17.3l-1.7.6z"/><path fill="#EDEEE2" d="M1451.9 304.5l-1 .1s-13.4-28.9-9.1-32.9c1.1 0 2.3.7 2.3.7s10.7 14.3 7.8 32.1zm5.9 22.6l.9-.5s22 23.1 19.2 28.2c-1 .4-2.4.1-2.4.1s-14.7-10-17.7-27.8z"/><path fill="#EDEEE2" d="M1456.1 305.2s-1.6.2-1.9-.8c-.2-1-3.5-28.5 3.6-33.7 1.8-1.1 3.7 1.5 3.5 3.8 0 2.4.5 24.4-5.2 30.7z"/><path fill="#EDEEE2" d="M1457.3 305.3l1.1 1.2s11.9-9.9 13.1-26.7c.2-1.8.4-4.7-1.2-5.4-1.6-.6-6.4 4.4-13 30.9z"/><path fill="#EDEEE2" d="M1461.5 309s16.9-7.5 21.4-22.3c.5-1.8-.9-3.5-2.3-2.5s-14.8 8.9-20.1 23.6c.2.8 1 1.2 1 1.2z"/><path fill="#EDEEE2" d="M1462.5 310.9l1 1.1s30.1-1.9 32.3-12.3c.3-1.8-22 1.1-33.3 11.2zm-20.5 10.8s-29.7 7.8-30.3 14c0 0-1.3 4 6.8 1.8s22.2-9.9 23.9-13.6c.7-2.1-.4-2.2-.4-2.2zm22.6-2.1s28.3 4.3 30.4 6.7c.6 1.1.1 1.4.1 1.4s1.1.3-1.2 1.1-17.9 3.6-30.2-7c.4-.9-.6-1.8.9-2.2z"/><path fill="#EDEEE2" d="M1464.5 312.8s27.7-7.3 30.6-5.9c1 .7.7 1.2.7 1.2s1.1-.2-.6 1.4c-1.8 1.6-15 10.4-30.5 5.5-.2-.7-1.4-1.1-.2-2.2zm-2.8 11.6s16.4 11.1 23.5 21.7c.9 2.2-2.3 2.1-2.3 2.1s-14.1-6.3-22.2-22.9c.4-.2 1-.9 1-.9z"/><path fill="#EDEEE2" d="M1462.2 323.4s13.3 14.6 24.9 20.1c2.3.5 1.8-2.6 1.8-2.6s-8.3-13.1-25.9-18.7c-.2.6-.8 1.2-.8 1.2zm-6.3 4.3s5.5 5.4 7.9 17.3c2.4 11.9 1.7 20.8-3.4 12.1-5.1-8.7-6.3-28.2-5.4-28.8l.9-.6zm-13.5-7.5s-5.5 5.4-17.4 7.5c-11.9 2.2-20.8 1.3-12-3.6s28.3-5.8 28.9-4.8l.5.9z"/><path fill="#EDEEE2" d="M1453.6 328.9s3.5 30.2-8 33.3c-2.1.4-2.6-2.2.1-13.3 2.7-11.1 5.9-20.3 5.9-20.3s.9-.9 2 .3zm-8.9-3.5s-4.7.4-13.8 9.2c-9.1 8.8-13.2 11.4-9.9 14.7 1.2.6 9.5-.7 24.4-21.7-.1.1.8-1.4-.7-2.2zm2.6 2.7s-13.4 22.3-9.5 28.3c1.8 1.8 2.7.8 3.6-1.2.9-1.9 9.5-22.9 7.9-26.7-.2-.9-1.7-.9-2-.4zm16.2-8.6s34.7 5.3 35.4-.6c.6-5.9-29-4-34.9-.2l-.5.8z"/><path fill="#E2B522" d="M1443.6 325.1c4.6 5 12.4 5.3 17.3.7 5-4.6 5.3-12.4.7-17.3-4.6-5-12.4-5.3-17.3-.7-5 4.6-5.3 12.4-.7 17.3z"/><path fill="#E2B522" d="M1444.3 325.8c.4-.4.5-.9.3-1-.2-.2-.6 0-1 .3-.4.4-.6.8-.4 1.1.3.2.8 0 1.1-.4z"/><path fill="#E2B522" d="M1445 326.4c.3-.4.5-.9.3-1.1-.2-.2-.6 0-1 .4s-.5.9-.3 1.1c.2.2.7 0 1-.4z"/><path fill="#E2B522" d="M1445.7 326.9c.3-.5.4-.9.2-1.1-.2-.1-.6.1-1 .5s-.4.9-.2 1.1c.3.2.7 0 1-.5z"/><path fill="#E2B522" d="M1446.5 327.4c.3-.5.3-1 .1-1.1-.2-.1-.6.1-.9.6-.3.4-.4 1-.1 1.1.2.2.6-.1.9-.6z"/><path fill="#E2B522" d="M1447.4 327.9c.2-.5.2-1 0-1.1-.2-.1-.6.2-.9.6-.3.5-.3 1 0 1.1.2.2.6-.1.9-.6z"/><path fill="#E2B522" d="M1448.2 328.2c.2-.5.2-1-.1-1.1-.2-.1-.6.2-.8.7-.2.5-.2 1 .1 1.1.2.2.6-.2.8-.7z"/><path fill="#E2B522" d="M1449 328.5c.2-.5.1-1-.1-1.1-.2-.1-.6.3-.8.8-.2.5-.1 1 .1 1.1.3.1.7-.3.8-.8z"/><path fill="#E2B522" d="M1449.9 328.7c.1-.5 0-1-.2-1.1-.2-.1-.6.3-.7.8-.2.5-.1 1 .2 1.1.2.2.6-.2.7-.8z"/><path fill="#E2B522" d="M1450.9 328.9c.1-.5-.1-1-.3-1.1-.2-.1-.5.3-.7.9-.1.5 0 1 .3 1.1.3.1.6-.3.7-.9z"/><path fill="#E2B522" d="M1451.7 329c0-.5-.1-1-.4-1-.2 0-.5.4-.6.9-.1.5.1 1 .4 1.1.3 0 .6-.4.6-1z"/><path fill="#E2B522" d="M1452.6 329.1c0-.6-.2-1-.5-1-.2 0-.5.4-.5 1 0 .5.2 1 .5 1s.5-.5.5-1z"/><path fill="#E2B522" d="M1453.5 329c0-.5-.3-1-.5-1s-.5.5-.5 1 .2 1 .5 1c.4 0 .6-.4.5-1z"/><path fill="#E2B522" d="M1454.5 328.9c-.1-.5-.4-1-.6-.9-.2 0-.4.5-.4 1s.3 1 .6.9c.3 0 .5-.4.4-1z"/><path fill="#E2B522" d="M1455.4 328.7c-.1-.5-.4-.9-.7-.9-.2 0-.4.5-.3 1.1.1.5.4 1 .7.9.3 0 .4-.5.3-1.1z"/><path fill="#E2B522" d="M1456.2 328.5c-.2-.5-.5-.9-.7-.8-.2.1-.3.5-.2 1.1.1.5.4.9.7.8.3-.1.4-.6.2-1.1z"/><path fill="#E2B522" d="M1457.1 328.2c-.2-.5-.6-.8-.8-.8-.2.1-.3.6-.1 1.1.2.5.5.9.8.8.2-.1.3-.6.1-1.1z"/><path fill="#E2B522" d="M1458 327.8c-.2-.5-.6-.8-.9-.7-.2.1-.3.6-.1 1.1.2.5.6.9.9.7.3-.1.3-.6.1-1.1z"/><path fill="#E2B522" d="M1458.8 327.4c-.3-.5-.7-.8-.9-.6-.2.1-.2.6 0 1.1.2.5.6.8.9.7.3-.2.3-.7 0-1.2z"/><path fill="#E2B522" d="M1459.5 326.9c-.3-.4-.7-.7-.9-.6-.2.1-.2.6.1 1.1.3.5.7.8 1 .6.2-.1.1-.6-.2-1.1z"/><path fill="#E2B522" d="M1460.2 326.4c-.3-.4-.8-.6-1-.5-.2.1-.1.6.2 1.1.3.5.8.7 1 .5.3-.2.2-.7-.2-1.1zm.8-.7c-.4-.4-.8-.6-1-.4-.2.2-.1.6.3 1.1.3.4.8.6 1 .4.2-.2.1-.7-.3-1.1z"/><path fill="#E2B522" d="M1461.6 325.1c-.4-.4-.9-.5-1-.3-.2.2 0 .6.3 1 .4.4.8.6 1.1.4.2-.2 0-.7-.4-1.1z"/><path fill="#E2B522" d="M1462.2 324.4c-.4-.3-.9-.5-1.1-.3-.2.2 0 .6.4 1s.9.5 1.1.3c.2-.2 0-.6-.4-1z"/><path fill="#E2B522" d="M1462.7 323.7c-.5-.3-.9-.4-1.1-.2-.1.2.1.6.5 1 .4.3.9.4 1.1.2.2-.2 0-.7-.5-1zm.6-.8c-.5-.3-1-.3-1.1-.1-.1.2.1.6.6.9.5.3 1 .4 1.1.1.1-.2-.2-.6-.6-.9z"/><path fill="#E2B522" d="M1463.7 322.1c-.5-.2-1-.2-1.1 0-.1.2.2.6.6.9.5.3 1 .3 1.1 0 .2-.3-.1-.7-.6-.9z"/><path fill="#E2B522" d="M1464 321.3c-.5-.2-1-.2-1.1.1-.1.2.2.6.7.8.5.2 1 .2 1.1 0 .2-.3-.1-.7-.7-.9z"/><path fill="#E2B522" d="M1464.3 320.4c-.5-.2-1-.1-1.1.1-.1.2.3.6.8.8.5.2 1 .1 1.1-.1.1-.2-.3-.6-.8-.8z"/><path fill="#E2B522" d="M1464.6 319.5c-.3-.1-.5-.1-.7 0-.2 0-.3.1-.4.2-.1.2.3.6.8.7.5.2 1 .1 1.1-.2 0-.1 0-.3-.2-.4-.1-.2-.4-.3-.6-.3z"/><path fill="#E2B522" d="M1464.7 318.6c-.5-.1-1 .1-1.1.3-.1.2.3.5.9.7.5.1 1 0 1.1-.3.1-.3-.3-.6-.9-.7z"/><path fill="#E2B522" d="M1464.8 317.7c-.3 0-.5 0-.7.1-.2.1-.3.2-.3.3 0 .2.4.5.9.6.5.1 1-.1 1.1-.4 0-.1-.1-.3-.2-.4-.2-.1-.5-.2-.8-.2z"/><path fill="#E2B522" d="M1464.9 316.8c-.6 0-1 .2-1 .5 0 .2.4.5 1 .5.5 0 1-.2 1-.5 0-.2-.5-.5-1-.5zm-.1-1c-.5 0-1 .3-1 .5 0 .1.1.2.3.3.2.1.4.1.7.1.3 0 .5-.1.7-.2.2-.1.3-.2.3-.4.1-.1-.4-.3-1-.3z"/><path fill="#E2B522" d="M1464.7 314.9c-.5.1-1 .4-.9.6 0 .2.5.4 1 .4s1-.3.9-.6c0-.3-.4-.4-1-.4z"/><path fill="#E2B522" d="M1464.6 314.1c-.5.1-.9.4-.9.7 0 .2.5.4 1.1.3.5-.1 1-.4.9-.7-.1-.3-.6-.5-1.1-.3z"/><path fill="#E2B522" d="M1464.3 313.2c-.5.2-.9.5-.8.7.1.2.5.3 1.1.2.5-.1.9-.4.8-.7 0-.3-.5-.4-1.1-.2z"/><path fill="#E2B522" d="M1464 312.3c-.5.2-.8.6-.8.8.1.2.6.3 1.1.1.5-.2.9-.5.8-.8-.1-.3-.6-.3-1.1-.1z"/><path fill="#E2B522" d="M1463.6 311.5c-.5.2-.8.6-.7.9.1.2.6.3 1.1.1.5-.2.9-.6.7-.9-.1-.4-.6-.4-1.1-.1z"/><path fill="#E2B522" d="M1463.2 310.7c-.5.3-.8.7-.6.9.1.2.6.2 1.1 0 .5-.2.8-.6.7-.9-.2-.3-.7-.3-1.2 0z"/><path fill="#E2B522" d="M1462.8 309.9c-.4.3-.7.7-.6.9.1.2.6.2 1.1-.1.5-.3.8-.7.6-1-.2-.2-.7-.1-1.1.2z"/><path fill="#E2B522" d="M1462.2 309.1c-.4.3-.6.8-.5 1 .1.2.6.1 1.1-.2.5-.3.7-.8.5-1-.2-.2-.7-.1-1.1.2z"/><path fill="#E2B522" d="M1461.6 308.4c-.4.4-.6.8-.4 1 .2.2.6.1 1.1-.3.4-.3.6-.8.4-1-.2-.2-.7 0-1.1.3z"/><path fill="#E2B522" d="M1460.9 307.8c-.4.4-.5.9-.3 1 .2.2.6 0 1.1-.3.4-.4.6-.8.4-1.1-.3-.2-.8 0-1.2.4z"/><path fill="#E2B522" d="M1460.3 307.2c-.3.4-.5.9-.3 1.1.2.2.6 0 1-.4s.5-.9.3-1.1c-.2-.2-.7 0-1 .4z"/><path fill="#E2B522" d="M1459.5 306.6c-.3.5-.4.9-.2 1.1.2.1.6-.1 1-.5.3-.4.4-.9.2-1.1-.3-.2-.7.1-1 .5z"/><path fill="#E2B522" d="M1458.7 306.2c-.3.5-.3 1-.1 1.1.2.1.6-.1.9-.6.3-.4.4-1 .1-1.1-.2-.2-.6.1-.9.6z"/><path fill="#E2B522" d="M1457.9 305.8c-.2.5-.2 1 0 1.1.2.1.6-.2.9-.6.3-.5.3-1 0-1.1-.2-.2-.6.1-.9.6z"/><path fill="#E2B522" d="M1457.1 305.4c-.2.5-.2 1 .1 1.1.2.1.6-.2.9-.7.2-.5.2-1 0-1.1-.4-.1-.8.2-1 .7z"/><path fill="#E2B522" d="M1456.2 305.1c-.2.5-.1 1 .1 1.1.2.1.6-.3.8-.8.2-.5.1-1-.1-1.1-.3-.1-.7.2-.8.8z"/><path fill="#E2B522" d="M1455.3 304.8c-.1.5 0 1 .2 1.1.2.1.6-.3.7-.8.2-.5.1-1-.2-1.1-.2-.1-.6.3-.7.8z"/><path fill="#E2B522" d="M1454.4 304.7c-.1.5.1 1 .3 1.1.2 0 .5-.3.7-.9.1-.5 0-1-.3-1.1-.3-.1-.6.3-.7.9z"/><path fill="#E2B522" d="M1453.6 304.6c0 .3 0 .5.1.7.1.2.2.3.3.3.2 0 .5-.4.6-.9.1-.5-.1-1-.4-1.1-.1 0-.3.1-.4.2-.2.3-.2.5-.2.8z"/><path fill="#E2B522" d="M1452.6 304.5c0 .5.2 1 .5 1 .2 0 .5-.4.5-1 0-.5-.2-1-.5-1-.3.1-.5.5-.5 1zm-.9.1c0 .6.3 1 .5 1 .1 0 .2-.1.3-.3.1-.2.1-.4.1-.7s-.1-.5-.2-.7c-.1-.2-.2-.3-.4-.3s-.4.4-.3 1z"/><path fill="#E2B522" d="M1450.8 304.7c.1.5.4 1 .6.9.2 0 .4-.5.4-1s-.3-1-.6-.9c-.3 0-.5.4-.4 1z"/><path fill="#E2B522" d="M1449.9 304.9c.1.5.4.9.7.9.1 0 .2-.2.3-.3.1-.2.1-.4 0-.7 0-.3-.1-.5-.3-.7-.1-.2-.3-.2-.4-.2-.3-.1-.4.4-.3 1zm-1 .2c.2.5.5.9.7.8.2-.1.3-.5.2-1.1-.1-.5-.5-.9-.7-.8-.2.1-.3.6-.2 1.1z"/><path fill="#E2B522" d="M1448.1 305.4c.2.5.6.8.8.8.2-.1.3-.6.1-1.1-.2-.5-.5-.9-.8-.8-.2.1-.3.6-.1 1.1z"/><path fill="#E2B522" d="M1447.3 305.8c.2.5.6.8.8.7.2-.1.3-.6.1-1.1-.2-.5-.6-.9-.9-.7-.2.1-.3.6 0 1.1z"/><path fill="#E2B522" d="M1446.5 306.2c.3.5.7.8.9.6.2-.1.2-.6 0-1.1-.2-.5-.6-.8-.9-.7-.3.2-.3.7 0 1.2z"/><path fill="#E2B522" d="M1445.7 306.7c.3.4.7.7.9.6.2-.1.2-.6-.1-1.1-.3-.5-.7-.8-1-.6-.2.2-.2.7.2 1.1z"/><path fill="#E2B522" d="M1445 307.2c.3.4.8.6 1 .5.2-.1.1-.6-.2-1.1-.3-.5-.8-.7-1-.5-.3.2-.2.7.2 1.1z"/><path fill="#E2B522" d="M1444.3 307.8c.4.4.8.6 1 .4.2-.2.1-.6-.3-1.1-.3-.4-.8-.6-1-.4-.2.2-.1.7.3 1.1z"/><path fill="#E2B522" d="M1443.6 308.5c.4.4.9.5 1 .4.2-.2 0-.6-.3-1.1-.4-.4-.8-.6-1.1-.4-.1.2 0 .7.4 1.1z"/><path fill="#E2B522" d="M1443 309.2c.4.3.9.5 1.1.3.2-.2 0-.6-.4-1s-.9-.5-1.1-.3c-.2.2 0 .7.4 1z"/><path fill="#E2B522" d="M1442.5 309.9c.5.3.9.4 1.1.2.1-.2-.1-.6-.5-1s-.9-.4-1.1-.2c-.2.3 0 .7.5 1z"/><path fill="#E2B522" d="M1442 310.7c.5.3 1 .3 1.1.1.1-.2-.1-.6-.6-.9-.4-.3-1-.4-1.1-.1-.1.2.1.6.6.9z"/><path fill="#E2B522" d="M1441.6 311.5c.5.2 1 .2 1.1 0 .1-.2-.2-.6-.6-.9-.5-.3-1-.3-1.1 0-.2.2.1.6.6.9z"/><path fill="#E2B522" d="M1441.2 312.4c.5.2 1 .2 1.1-.1.1-.2-.2-.6-.7-.8-.5-.2-1-.2-1.1.1-.2.2.2.6.7.8z"/><path fill="#E2B522" d="M1440.9 313.2c.5.2 1 .1 1.1-.1.1-.2-.3-.6-.8-.8-.5-.2-1-.1-1.1.1-.1.3.3.7.8.8z"/><path fill="#E2B522" d="M1440.7 314.1c.5.1 1 0 1.1-.2.1-.2-.3-.6-.8-.7-.5-.2-1-.1-1.1.2-.1.2.2.6.8.7z"/><path fill="#E2B522" d="M1440.5 315c.5.1 1-.1 1.1-.3.1-.2-.3-.5-.9-.7-.5-.1-1 0-1.1.3 0 .3.4.6.9.7z"/><path fill="#E2B522" d="M1440.4 315.9c.5 0 1-.1 1-.4 0-.2-.4-.5-.9-.6-.5-.1-1 .1-1.1.4 0 .3.4.6 1 .6z"/><path fill="#E2B522" d="M1440.4 316.8c.6 0 1-.2 1-.5 0-.2-.4-.5-1-.5-.5 0-1 .2-1 .5s.4.5 1 .5z"/><path fill="#E2B522" d="M1440.4 317.7c.5 0 1-.3 1-.5s-.5-.5-1-.5c-.6 0-1 .2-1 .5 0 .4.5.6 1 .5z"/><path fill="#E2B522" d="M1440.5 318.6c.5-.1 1-.4.9-.6 0-.2-.5-.4-1-.4s-1 .3-.9.6c0 .3.5.5 1 .4zm.2 1c.5-.1.9-.4.9-.7 0-.2-.5-.4-1.1-.3-.5.1-.9.4-.9.7.1.3.6.4 1.1.3z"/><path fill="#E2B522" d="M1440.9 320.5c.5-.2.9-.5.8-.7-.1-.2-.5-.3-1.1-.2-.5.1-.9.5-.8.7.1.2.6.3 1.1.2z"/><path fill="#E2B522" d="M1441.2 321.3c.5-.2.8-.6.8-.8-.1-.2-.6-.3-1.1-.1-.5.2-.9.5-.8.8.1.2.6.3 1.1.1z"/><path fill="#E2B522" d="M1441.6 322.1c.5-.2.8-.6.7-.8-.1-.2-.6-.3-1.1-.1-.5.2-.9.6-.7.9.1.2.6.3 1.1 0z"/><path fill="#E2B522" d="M1442 323c.5-.3.8-.7.6-.9-.1-.2-.6-.2-1.1 0-.5.2-.8.6-.7.9.3.3.8.3 1.2 0z"/><path fill="#E2B522" d="M1442.5 323.7c.4-.3.7-.7.6-.9-.1-.2-.6-.2-1.1.1-.5.3-.8.7-.6 1 .2.2.7.2 1.1-.2z"/><path fill="#E2B522" d="M1443 324.5c.4-.3.6-.8.5-1-.1-.2-.6-.1-1.1.2-.5.3-.7.8-.5 1 .2.2.7.1 1.1-.2z"/><path fill="#E2B522" d="M1443.6 325.1c.4-.4.6-.8.4-1-.2-.2-.6-.1-1.1.3-.4.3-.6.8-.4 1 .2.2.7.1 1.1-.3z"/><path fill="#80B9AA" d="M698.4 248.2s16 6 29.2 1.1c-.1-1-.6-.3-.6-.3l10.9-5.4-.6-.3 14.1-9.9-.8-.4 7.6-6.7 4-4.9-.6-.3 3.6-6.8.2-.4-.6-.3s2.9-6.1 3-9.8l-1.1.3s2.8-7 .2-12.6l-.7.4s.5-6.2.1-6.7l-1.1.6v-7l-1 .7s-1.7-11.8-2.5-12.6l-1.1.3-1.9-6.4-1 .7-.6-7.2-1.3.3.1-14.8-.1-.1-12.2 8.4-.4-1.2-6.3 3.6v-1.3l-6.3 2-.4-1c-1.1-.2-11.8 5.1-11.8 5.1v-1.2l-5.8 4-.1-1.2c-.6 0-5.5 3.9-5.5 3.9l-.1-.7c-6.1 1-10.3 7.2-10.3 7.2l-.4-1c-3 2.2-6.4 8-6.4 8l-.6-.3-.2.4-3.6 6.8-.6-.3-1.8 6.1-1.3 10-.8-.4-.3 17.2-.6-.3 1.7 12.1s.2-.8-.6-.3c3.2 13 17.2 22.9 17.3 22.9z"/><path fill="#B3DDD3" d="M681.5 224.6l.1.4s.1-.3-.1-.4z"/><path fill="#010101" d="M764.7 213.1c.1-.3.5-1.1 1-2.2l-63.8 32.3 10.3-19.6 55.6-28.3c0-.5-.1-1.1-.2-1.6l-54.1 27.6 10-19 41.7-21.3v-1.7l-40.4 20.6 10.1-19.1 27.1-14c-.1-.2-.1-.3-.2-.4l-1.1.3-.3-.9-24.4 12.5 19.8-37.6v-1.4l-.1-.1-1.4 1-19.7 37.4-3.3-27.1-.9.3-.4-1h-.4l3.7 30.3-10 19-5.7-45-1.4 1 5.9 46.4-10 19-7.7-60.2c-.5.2-1 .5-1.5.7l7.9 61.9-10.3 19.6-9.3-70.9c-.7 1-1.1 1.8-1.3 2l9.4 71.2-1.5 2.8c.4.3.6.4.6.4s.2.1.7.2l1.5-2.9 64.1-32.2z"/><path fill="#2C9783" d="M69.7 163.3s0-.2.5-.8c.4-.6.7-.8.7-.8s-3.3-.9-6.3-3.8c-1.1-1.1-1.2-1.6-1.2-1.6s.5-1 1.9-1.7c0 0-1.8-.9-3.4-2.4-1.6-1.5-2.5-3.5-2.5-3.5s.7-1.1 1.6-1.2c.9-.1-1.1 0-3.2-2.8s-2.4-5.4-2.4-5.4.6-1 1.7-1.5c0 0-1.6-.8-3-4-1.3-3-.9-6.2-.9-6.6.4-.2 3.4-1.4 6.6-1.1 3.4.4 4.7 1.7 4.7 1.7.1-1.2 1-2 1-2s2.5-.5 5.8.7 3.8 3.1 3.6 2.2c-.1-.9.7-1.9.7-1.9s2.2.2 4.1 1.4c1.9 1.1 3.3 2.6 3.3 2.6.2-1.5 1-2.3 1-2.3s.5-.1 1.9.7c3.7 2 5.5 5 5.5 5s.1-.4.5-.9c.4-.6.6-.7.6-.7s.3-.2 1.9 1.3c1.6 1.6 3.6 5.8 3.6 5.8 1-1 1.4-2.2 2.5-.9 3.4 4.4 5.9 9.7 7.3 15 .7 2.4 1.1 5 1.4 7.5.1 1.3.3 2.8.3 4.3-1.7-1.3-2.1-1.8-2.7-2.2-6.3-4.7-10.7-6.5-15.4-7.9 2.7 4.2 5.7 7.8 12 12.5.6.4 1.1.7 2.9 2-1.4.4-3 .7-4.2.9-2.5.5-5 .8-7.6.9-5.5.2-11.3-.6-16.5-2.7-1.6-.6-.6-1.4.1-2.6 0 0-4.7-.7-6.6-1.8-1.9-1-1.8-1.4-1.8-1.4"/><path fill="#2D9782" d="M901.9 309.8s-.1.3.2 1.4c.3 1.1.6 1.6.6 1.6s-5.4-.7-11.5 1.8c-2.3 1-2.7 1.6-2.7 1.6s.1 1.8 1.8 3.5c0 0-3.2.3-6.4 1.4-3.2 1.2-5.7 3.7-5.7 3.7s.4 2 1.7 2.7c1.2.7-1.6-.6-6.3 2.2-4.8 2.9-6.6 6.4-6.6 6.4s.2 1.9 1.5 3.2c0 0-2.9.3-6.7 4.1-3.6 3.6-5 8.5-5.2 9.2.4.4 4.1 4.1 9 5.4 5.2 1.5 7.8.3 7.8.3-.5 1.8.2 3.6.2 3.6s3.4 2.2 8.9 2.4c5.6.2 7.4-2.4 6.6-1.1-.7 1.2-.1 3.2-.1 3.2s3.4 1 6.8.5 6.3-1.9 6.3-1.9c-.6 2.4.2 4 .2 4s.6.4 3.1.1c6.5-.8 10.9-4 10.9-4s-.1.6.2 1.7c.3 1.1.5 1.4.5 1.4s.3.5 3.6-.8c3.3-1.3 8.8-6.4 8.8-6.4.8 2 .7 4.1 3.1 2.7 7.6-4.4 14.3-10.7 19.5-17.7 2.4-3.2 4.6-6.6 6.4-10.1.9-1.8 2.1-4 3-6.2-3.3 1-4.2 1.3-5.3 1.6-12 3.1-19.5 3.2-27.2 2.4 6.4-4.5 13-8 24.9-11.2 1.1-.3 2.1-.4 5.4-1.2-1.9-1.4-3.9-2.7-5.6-3.9-3.3-2.2-6.9-4.1-10.5-5.7-8-3.5-16.9-5.8-25.7-5.9-2.7 0-1.7 1.7-1.4 3.9 0 0-7.3-1.7-10.8-1.3-3.3.8-3.3 1.4-3.3 1.4"/><path fill-rule="evenodd" clip-rule="evenodd" stroke="#000" stroke-width="1.03" stroke-miterlimit="10" d="M885.2 331.5c5.8 2.7 11.6 5.3 18.1 8.3-7.5 1.8-38 10.9-44.7 12.5.1.3.1.6.2.9 6.8-1.6 37.3-10.7 45.3-12.7-4.3 6.2-8 11.6-11.7 16.9l.9.3c.6-.7 1.3-1.3 1.8-2.1 3.2-4.5 6.3-9.1 9.6-13.6.6-.8 1.8-1.8 3-2.1 5.4-1.4 10.9-2.7 17.2-4.2-5.2 8.9-10.2 17.4-15.2 25.9l1 .3c.6-.7 1.2-1.4 1.6-2.1 4.3-7.3 8.7-14.6 12.8-21.9 1.2-2.2 1.7-3.2 4.6-3.8-2.2.5-3.8-.1-5.3-1.1-7.2-4.6-14.5-9.1-21.8-13.7-.8-.5-1.7-.9-2.5-1.4-.3.2-.6.5-.9.7 8.3 5.2 16.6 10.4 25.4 16-6.3 1.5-11.9 2.9-17.5 4.1-1.1.2-2.6-.1-3.6-.5-4.9-2.1-13.3-5.5-18-7.7"/><path fill="#3E879F" d="M1517.7 252.5s-5.9-8.4-6.1-15.5v-.2l.6.3s-.9-4.3-.7-5.6l.6.5s-.3-3.5-.2-4.4l.9.4s-.3-3.5-.1-4.2c.5.5.8.4.8.4l1-4s.2.4.4.6c.1.1 1-3.4 1-3.4l.4 1.1 1.7-4.7.5 1.2 2.4-5.5.7.9 1.6-3 .5 1.1 2.6-4.3 1.1 1.2 3-3.6.3 1.9 2.3-3.4 1.1 1.8 2.4-3 .2 1.2 2.7-2.5.3 1.4 3.1-2.8.1 1.3 2.4-2.1.3.9 2.3-2.6-.6 3.4.9-.3-.2 3.2 1.1-.8-.3 4.2 1.3-.6-.3 3.7 1.1-.6-.9 3.8 2.1-.3-1.2 3.9 1.6-1-.9 4.6 1.6.1-1.7 4.7 1.1-.3-1.4 3.1h1.1l-2.8 5.3 1.3-.4-2.6 4.3 1.1-.4s-2.2 2.9-2 2.9c.2 0 .7-.1.7-.1l-2.5 3.2s.1.4.8.4c-.4.6-3.3 2.5-3.3 2.5l.9.4c-.7.6-3.6 2.6-3.6 2.6l.8.1c-.8 1-4.8 3-4.8 3l.6.3c-.1 0-.1.1-.2.1-5.7 4.3-16 4.9-16 4.9l-3-1.3z"/><path d="M1547.9 193.9l-.4 2.4-27.6 57.2-.7-.3-.6-.3 27.6-57.2"/><path fill="#80B9AA" d="M1507.4 255.4s-10.2-1.8-15.3-6.7c-.1 0-.1-.1-.2-.1l.7-.2s-3.7-2.4-4.4-3.5h.8s-2.6-2.3-3.2-2.9l.9-.3s-2.7-2.3-3-2.9c.7.1.8-.3.8-.3l-2.1-3.5s.5.1.7.1c.2 0-1.7-3.1-1.7-3.1l1 .5-2.1-4.5 1.2.5-2.2-5.6 1.1.2-1-3.3 1.1.4-1.2-4.8 1.6.1-.4-4.7 1.5 1.1-.8-4 2.1.5-.4-3.9 1 .7.1-3.7 1.2.8.2-4.2 1 .9.2-3.2.9.4-.2-3.5 2 2.8.4-.9 2.1 2.4.2-1.3 2.8 3.2.5-1.3 2.4 2.8.3-1.2 2.1 3.3 1.3-1.7 1.9 3.6.5-1.8 2.6 3.9 1.2-1 2.1 4.5.6-1 1.2 3.2.8-.8 1.8 5.7.6-1.2 1.2 4.8.5-1s.5 3.6.6 3.5c.1-.1.4-.5.4-.5l.5 4.1s.3.2.8-.3c.2.7-.5 4.1-.5 4.1l.9-.3c-.1.9-.7 4.3-.7 4.3l.6-.5c.1 1.3-1.3 5.5-1.3 5.5l.7-.2v.2c-1 7-7.8 14.7-7.8 14.7l-3.2 1.1z"/><path d="M1487.3 192.7l1.5 2 20.9 60-.7.2-.7.2-20.9-59.9"/><path fill="#80B9AA" d="M1524 263.5s7.7 6.9 14.7 7.9h.2l-.2-.7s4.2 1.5 5.5 1.3l-.5-.6s3.4.7 4.3.7l-.3-.9s3.4.7 4.1.6c-.5-.5-.3-.8-.3-.8l4.1-.5s-.4-.3-.5-.4c-.1-.1 3.5-.6 3.5-.6l-1-.5 4.8-1.2-1.1-.7 5.8-1.7-.8-.8 3.2-1.2-1-.6 4.5-2-1-1.2 3.9-2.6-1.8-.5 3.6-1.8-1.7-1.3 3.3-2-1.2-.3 2.8-2.4-1.3-.5 3.2-2.7-1.3-.2 2.4-2.1-.9-.4 2.8-2-3.5.1.4-.9-3.2-.2.9-1-4.2-.2.8-1.2-3.7-.2.7-1-3.9.4.5-2.1-4 .7 1.2-1.5-4.7.4.1-1.6-4.8 1.2.4-1.1-3.3 1 .2-1.1-5.6 2.2.5-1.2-4.5 2 .5-1s-3.1 1.9-3.1 1.7c0-.2.1-.7.1-.7l-3.5 2.1s-.3-.1-.3-.8c-.6.3-2.9 3-2.9 3l-.3-.9c-.7.6-3 3.2-3 3.2v-.8c-1.1.7-3.5 4.4-3.5 4.4l-.2-.7c0 .1-.1.1-.1.2-4.9 5.1-6.8 15.2-6.8 15.2l1 3.1z"/><path d="M1585.8 240.7l-2.4.1-60.1 20.5.2.6.2.7 60.1-20.5"/><path fill="#E73267" d="M1523.7 288.7c-4.2-4-7.5-12.4-8.4-17.8-3-20 14.5-18.8 14.5-18.8h.3s17.5.5 12.7 20.1c-1.4 5.3-5.5 13.4-10.1 17l-9-.5z"/><path fill="#E73267" d="M1528.1 288.3l-4.6-.2-1.7 5.8 4.5-1.8 1.5 2.1 1.7-2 4.2 2.3-1.1-6m-43.9-16.9c5.7.8 14.4-1.8 19.2-4.4 17.6-10 5.9-23 5.9-23l-.2-.2s-11.2-13.5-23.6 2.4c-3.3 4.4-7.1 12.6-7.2 18.4l5.9 6.8z"/><path fill="#E73267" d="M1486.3 267.9l2.9 3.5-3.5 4.9-1.3-4.6-2.6.1.5-2.6-4.4-1.9 5.4-2.8"/><path fill="#80B9AA" d="M1245.8 300.3s-2.7.7-2.9 2.2c-1.6-.1-2.4 1-2.5 2.4-1-.1-2.4.1-2.5 2.7-1.5-.1-3.7 0-4.2 4-1.4-.1-4.9.8-5.5 4.7-1.9-.5-3.4-.5-3.4-.5s-1.3 1.8-1.4 2.8c-.1 1-1.5 1-1.2 2.2.3 1.2-.1 1.1-.3 1.8-.2.6.1 1.8.7 3s-2.9 1.3 2.1 7.3c.5.4.4 1.9.4 1.9s-.9.5-2.5-2c-1.5-2.4-5-6.6-7.3-4.4-2.4 2.1-1 .2-1.2-1-.3-1.1-1.8-1.9-2.1-1.5-.3.4-1.5-1.5-3.1-1.6-1.6-.1-1.5.6-1.5.6s-2.7-2.4-4-2.6-1 1.1-1 1.1-2.5-2.4-3.6-.7c-1.2 1.7-1.5-.7-2-.6-.5.1-.9.6-.9.6l-2.2-.4s-.7 3.4-.1 4.2c.6.8-1.1.7-.8 1.8.3 1.1 1.3 2.5 1.3 2.5s-1.3.4-1.3 1.2c0 .8.7 2.4 2.3 3.8 1.6 1.4-1.2 1.2-1.2 1.7-.1.5.6 4.6 3.4 5.6s-1.7 1.2-1.8 1.8c0 0-.3 3 3.2 4.4 0 0-3.8 2.8-3.7 4 .1 1.2 1.7 4.3 2.9 4.4 1.2.2.2 1.7 2.3 2 2 .3 1.8 2.4 5.8 2.4s-3.2 2.3-3 3.8c.2 1.5-1 2.5-1 3.1.1.7 1.3 1.5 1.3 1.5s.8 1.8 2.2 2c1.3.2-.2 2.2 1.6 2.4 1.8.2 3.8.5 3.8.5l.2 2s4 2 7.9-.8c.7-.3.3 1.3.3 1.8s.2 3 8.2-2.2c.9.3 8.3-9.1 10.6-15.2.7 6.5 5.3 17.6 6.2 17.5 6.4 7.2 7.2 4.8 7.3 4.3.1-.5.1-2.1.7-1.6 3 3.6 7.4 2.8 7.4 2.8l.7-1.9s1.9.3 3.8.5c1.8.2.9-2.1 2.2-1.9 1.3.2 2.6-1.4 2.6-1.4s1.4-.5 1.7-1.1c.2-.6-.7-1.8-.1-3.3.6-1.4-5.7-5.6-1.9-4.5 3.8 1.1 4.2-1 6.2-.8 2.1.2 1.5-1.5 2.7-1.4 1.2.2 3.6-2.4 4-3.5.4-1.1-2.5-4.8-2.5-4.8 3.7-.4 4.2-3.4 4.2-3.4.1-.6-4.3-1.9-1.3-2.2 3-.2 4.7-4.1 4.8-4.5.1-.5-2.7-1.1-.7-2 1.9-.9 3-2.3 3.2-3 .2-.8-1-1.5-1-1.5s1.3-1.2 1.9-2.1c.6-.9-1.1-1.3-.3-1.9.8-.6 1-4 1-4l-2.2-.2s-.3-.6-.8-.8c-.5-.2-1.4 2-2.1.1-.7-2-3.7-.3-3.7-.3s.7-1.1-.7-1.3c-1.3-.2-4.6 1.5-4.6 1.5s.3-.7-1.3-1c-1.6-.3-3.2 1.2-3.4.8-.2-.5-1.9-.1-2.4.9-.6 1 .3 3.3-1.4.6-1.7-2.7-6.1.4-8.2 2.4-2.1 1.9-2.9 1.3-2.9 1.3s.3-1.5.9-1.7c6.4-4.5 3.1-5.5 4-6.5.8-1 1.5-2 1.4-2.7 0-.7-.4-.7.2-1.8.6-1.1-.8-1.5-.6-2.5.2-1-.6-3-.6-3s-1.4-.5-3.4-.5c.5-4-2.6-5.7-4-6 .6-4-1.5-4.6-3-4.9.5-2.5-.7-3.1-1.7-3.3.3-1.4-.3-2.6-1.8-3-.3-1.8-2.8-3.1-2.8-3.1z"/><path d="M1237.9 361.6l-.2-.1h-.1l.3-.6c-.1.2-.1.5 0 .7z"/><path d="M1193.4 322.8c.1-.4.1-.7.1-.7l1.1.2 42.8 37.4 7.9-59.3.6-.2s.2.1.5.3l-7.9 59.3 51.1-24.9 1.1.1s0 .3-.1.7l-51.5 25.2 31.4 16.4c.1.3.1.5 0 .7l-.1.1-.3.3-31.8-16.7-.4-.2c0-.2-.1-.5-.1-.7l-.3.6-35.5 7.9c-.1-.1-.2-.3-.2-.4v-.1c0-.2.1-.4.2-.6l34.6-7.6-43.2-37.8z"/><path fill="#3E879F" d="M1597.6 115.5c3.1-4.6 7.5-5.8 13.3-3.9 4.5 1.5 8.1 6.4 7.9 11-.3 6.5-3.6 11.6-8.4 15.6-3.1 2.5-6.5 4.7-9.8 6.8h-.2c.1 0 .1.1.2 0 10.5.7 20.6.5 30.1-.4-.7-4.9-1-9.9-1.3-14.9-.3-5.2 1.3-10 4.1-14.3 3-4.7 7.4-6 13.3-4.2 4.5 1.4 8.3 6.2 8.2 10.8-.2 6.5-3.3 11.7-8.1 15.7-2.5 2.1-5.2 4-7.9 5.8 9.1-1.4 17.7-3.6 25.7-6.6.2-.1.4-.2.6-.2-1.1-4.8-1.9-9.8-2.6-14.7-.7-5.2.5-10.1 2.9-14.6 2.6-4.9 6.8-6.6 12.8-5.3 4.6 1 8.8 5.5 9.1 10.1.4 6.5-2.3 11.9-6.7 16.4-.8.8-1.6 1.6-2.5 2.4 7.6-4 14.7-8.9 21-14.6h-.1c-3.1-4-5.9-8.2-8.7-12.4-2.8-4.4-3.8-9.3-3.6-14.5.3-5.6 3.4-8.9 9.4-10.2 4.6-1.1 10.3 1.3 12.5 5.3 3.1 5.7 2.9 11.8.8 17.7-.8 2.3-1.8 4.5-2.8 6.7.3-.3.6-.6.9-1 5.7-6.4 10.2-13 13.7-19.1-2.6-1.9-5.4-3.6-8-5.5-4.8-3.6-8.6-7.9-10.2-13.9-1.8-6.9.6-10.6 6.2-13.7 5.5-3 11.7-.9 15 4.4 2.8 4.5 3.6 9.6 3.1 14.9-.1.5-.1 1.1-.2 1.6 3.8-9 5.1-15.3 5.1-15.4l3.8.7c-.1.7-2.3 11.6-9.7 25.5 2.4-1.5 4.8-2.9 7.3-4.3 4.6-2.6 9.6-3.9 14.9-3.2 6.2.9 10.6 5.7 10.1 11.9-.5 6.3-2.9 10.1-10 11.2-6.1 1-11.6-.7-16.8-3.7-3.1-1.8-6-3.8-9.1-5.5-3.3 5.3-7.3 10.9-12.2 16.4-.6.6-1.2 1.3-1.8 1.9 3-.5 6-1.1 9-1.5 5.2-.7 10.4-.2 15 2.4 5.5 3.1 7.8 9.1 5.1 14.8-2.8 5.7-6.4 8.4-13.4 6.8-6-1.3-10.6-4.9-14.3-9.5-2.2-2.7-4.1-5.5-6.3-8.2-5.5 5.1-11.4 9.7-17.8 13.6 2.8 0 5.7.1 8.5.2 5.3.3 10.2 1.8 14.3 5.2 4.8 4 6 10.4 2.2 15.5s-7.9 7-14.4 4.2c-5.7-2.4-9.5-6.8-12.3-12-1.7-3.1-3.1-6.3-4.7-9.4-4.4 2.3-9 4.4-13.8 6.1-1.5.6-3 1.1-4.6 1.6 2.8 1.1 5.6 2.1 8.4 3.2 4.9 2 9 5.1 11.7 9.8 3.2 5.4 2.1 11.9-3.2 15.3-5.3 3.5-9.8 3.9-15-.9-4.5-4.2-6.6-9.6-7.5-15.5-.5-3.3-.7-6.6-1.2-9.9-4.8 1.3-9.7 2.3-14.8 3.1 2.4 2.1 4.8 4.2 7 6.4 3.8 3.7 6.5 8.1 7.4 13.3 1 6.2-2.3 11.8-8.5 13.1-6.2 1.3-10.5.1-13.7-6.3-2.7-5.5-2.7-11.3-1.4-17.2.6-2.8 1.5-5.7 2.2-8.5-8 .9-16.3 1.2-24.9 1-.1-.1-.2 0-.3 0h.3c2.7 2.1 5.5 4.2 8.1 6.3 4.1 3.4 7.1 7.5 8.4 12.7 1.4 6.1-1.4 12-7.5 13.8-6.1 1.8-10.5.9-14.1-5.3-3.1-5.3-3.5-10.9-2.7-16.8.5-3.6 1.4-7.6 1.9-10.6v-.4c-4.2-.2-8.5-.6-12.9-1.1l.4-3.9c1.4.2 2.9.3 4.3.4v.4l.3-.4h-.4c-.6-4.9-.8-9.8-1-14.7.4-4.7 2.1-9.5 4.9-13.8z"/><path fill="#2D9782" d="M1498.6 89.1c1.3 2.1 2.8 5.8 1.9 11.1-1.5 8.7 2 17.8 2 17.8s-1.7 1.1-4.5-.7c-.6 19.5 7.4 19.9 5.5 21.6-2 1.6-7 .1-6.3 1.6.7 1.4 1.5 4.9 3.2 9.6 14.2 31.7 58.4 26.8 58.4 26.8s20.6-39.4-3.8-64.1c-3.8-3.3-6.7-5.3-7.8-6.4-1.1-1.1-1.5 4.1-3.8 5.3-2.2 1.2.3-6.4-18.1-12.9.7 3.2-1 4.4-1 4.4s-7.2-6.5-15.9-8.3c-5.4-1.1-8.3-3.9-9.8-5.8z"/><path d="M1507.1 100.2l32.5 47.5-14.2-46.9c.1-.6 0-1.3-.1-2.1.4.1.8.3 1.1.4l16 52.5 7.7 11.3-4.2-55.4c.4-1.1.8-1.8 1.2-1.3l.1.1 4.5 58.9 7.3 10.7c-.2.5-.4.8-.4.8s-.3 0-.8.1l-7.3-10.8-53.3-25.6s0-.1-.1-.1c-.3-.6.5-.7 1.7-.7l50 24-7.7-11.3-43.1-34v-1.2c.7.5 1.4.7 2 .9l38.5 30.3-32.5-47.6"/><path fill="#EDEEE2" d="M261.6 326.8s-16.3-13.9-29.6-11c-13.2 2.9 27.4 12.8 28.9 12.9.6-.8.7-1.9.7-1.9zm2.8-2.2l-1.2 1.1s-21.7-14.9-18.9-26.7c.4-1.4 2.7-.9 5.7 2.9 7.5 9.6 13 17.6 14.4 22.7zm1.1 19.8l1.3.8s-8.7 24.9-20.8 25.3c-1.4 0-1.5-2.4 1.3-6.2 7.3-9.9 13.7-17.3 18.2-19.9z"/><path fill="#EDEEE2" d="M260.4 330.1s-31.4-15.8-33.8-10.4c-2.4 5.4 26.3 12.8 33.1 11l.7-.6z"/><path fill="#EDEEE2" d="M259.6 335s.8-.9-.8-1.9c-1.6-1-28-6.9-32.4-2.8-4.5 4.1 21.8 10.9 33.2 4.7zm5.7-11.3s-13.6-16.9-10.1-26.1c.7-1.4 5.8.2 7.6 8.2 1.8 8 4.2 17.3 4.2 17.3l-1.7.6z"/><path fill="#EDEEE2" d="M271.1 322.2l-1 .1s-13.4-28.9-9.1-32.9c1.1 0 2.3.7 2.3.7s10.7 14.3 7.8 32.1zm5.9 22.6l.9-.5s22 23.1 19.2 28.2c-1 .4-2.4.1-2.4.1s-14.7-10-17.7-27.8z"/><path fill="#EDEEE2" d="M275.4 322.9s-1.6.2-1.9-.8c-.2-1-3.5-28.5 3.6-33.7 1.8-1.1 3.7 1.5 3.5 3.8-.1 2.4.4 24.4-5.2 30.7z"/><path fill="#EDEEE2" d="M276.5 323l1.1 1.2s11.9-9.9 13.1-26.7c.2-1.8.4-4.7-1.2-5.4-1.6-.6-6.4 4.4-13 30.9z"/><path fill="#EDEEE2" d="M280.7 326.7s16.9-7.5 21.4-22.3c.5-1.8-.9-3.5-2.3-2.5s-14.8 8.9-20.1 23.6c.2.8 1 1.2 1 1.2z"/><path fill="#EDEEE2" d="M281.7 328.6l1 1.1s30.1-1.9 32.3-12.3c.4-1.9-22 1.1-33.3 11.2zm-20.4 10.8s-29.7 7.8-30.3 14c0 0-1.3 4 6.8 1.8s22.2-9.9 23.9-13.6c.7-2.1-.4-2.2-.4-2.2zm22.6-2.2s28.3 4.3 30.4 6.7c.6 1.1.1 1.4.1 1.4s1.1.3-1.2 1.1-17.9 3.6-30.2-7c.3-.8-.7-1.7.9-2.2z"/><path fill="#EDEEE2" d="M283.7 330.5s27.7-7.3 30.6-5.9c1 .7.7 1.2.7 1.2s1.1-.2-.6 1.4c-1.8 1.6-15 10.4-30.5 5.5-.2-.7-1.4-1.1-.2-2.2zm-2.8 11.6s16.4 11.1 23.5 21.7c.9 2.2-2.3 2.2-2.3 2.2s-14.1-6.3-22.2-22.9c.5-.3 1-1 1-1z"/><path fill="#EDEEE2" d="M281.4 341.1s13.3 14.6 24.9 20.1c2.3.5 1.8-2.6 1.8-2.6s-8.3-13.1-25.9-18.7c-.2.5-.8 1.2-.8 1.2zm-6.3 4.2s5.5 5.4 7.9 17.3c2.4 11.9 1.7 20.8-3.4 12.1-5.1-8.7-6.3-28.2-5.4-28.8l.9-.6zm-13.5-7.4s-5.5 5.4-17.4 7.5c-11.9 2.2-20.8 1.3-12-3.6s28.3-5.8 28.9-4.8l.5.9z"/><path fill="#EDEEE2" d="M272.8 346.6s3.5 30.2-8 33.3c-2.1.4-2.6-2.2.1-13.3 2.7-11.1 5.9-20.3 5.9-20.3s.9-.9 2 .3zm-8.9-3.5s-4.7.4-13.8 9.2c-9.1 8.8-13.2 11.4-9.9 14.7 1.2.6 9.5-.7 24.4-21.7-.1.1.8-1.5-.7-2.2zm2.7 2.7s-13.4 22.3-9.5 28.3c1.8 1.8 2.7.8 3.6-1.2.9-1.9 9.5-22.9 7.9-26.7-.3-.9-1.8-.9-2-.4zm16.1-8.6s34.7 5.3 35.4-.6c.6-5.9-29-4-34.9-.2l-.5.8z"/><circle fill="#E2B522" cx="271.8" cy="334.5" r="12.3"/><path fill="#E2B522" d="M263.6 343.5c.4-.4.5-.9.3-1-.2-.2-.6 0-1.1.3-.4.4-.6.8-.4 1.1.3.2.8 0 1.2-.4z"/><path fill="#E2B522" d="M264.2 344.1c.3-.4.5-.9.3-1.1-.2-.2-.6 0-1 .4s-.5.9-.3 1.1c.2.2.7 0 1-.4z"/><path fill="#E2B522" d="M264.9 344.6c.3-.5.4-.9.2-1.1-.2-.1-.6.1-1 .5s-.4.9-.2 1.1c.3.2.7 0 1-.5z"/><path fill="#E2B522" d="M265.7 345.1c.3-.5.3-1 .1-1.1-.2-.1-.6.1-.9.6-.3.4-.4 1-.1 1.1.2.1.6-.1.9-.6zm.9.5c.2-.5.2-1 0-1.1-.2-.1-.6.2-.9.6-.3.5-.3 1 0 1.1.2.2.6-.1.9-.6z"/><path fill="#E2B522" d="M267.4 345.9c.2-.5.2-1-.1-1.1-.2-.1-.6.2-.8.7-.2.5-.2 1 .1 1.1.2.2.6-.2.8-.7z"/><path fill="#E2B522" d="M268.2 346.2c.2-.5.1-1-.1-1.1-.2-.1-.6.3-.8.8-.2.5-.1 1 .1 1.1.3.1.7-.3.8-.8z"/><path fill="#E2B522" d="M269.1 346.4c.1-.5 0-1-.2-1.1-.2-.1-.6.3-.7.8-.2.5-.1 1 .2 1.1.2.2.6-.2.7-.8z"/><path fill="#E2B522" d="M270.1 346.6c.1-.5-.1-1-.3-1.1-.2-.1-.5.3-.7.9-.1.5 0 1 .3 1.1.3.1.6-.3.7-.9z"/><path fill="#E2B522" d="M271 346.7c0-.5-.1-1-.4-1-.2 0-.5.4-.6.9-.1.5.1 1 .4 1.1.3 0 .5-.4.6-1z"/><path fill="#E2B522" d="M271.9 346.7c0-.6-.2-1-.5-1-.2 0-.5.4-.5 1 0 .5.2 1 .5 1 .2 0 .5-.4.5-1z"/><path fill="#E2B522" d="M272.7 346.7c0-.5-.3-1-.5-1s-.5.5-.5 1 .2 1 .5 1c.4 0 .6-.4.5-1z"/><path fill="#E2B522" d="M273.7 346.6c-.1-.5-.4-1-.6-.9-.2 0-.4.5-.4 1s.3 1 .6.9c.3 0 .5-.5.4-1z"/><path fill="#E2B522" d="M274.6 346.4c-.1-.5-.4-.9-.7-.9-.2 0-.4.5-.3 1.1.1.5.4 1 .7.9.3 0 .4-.5.3-1.1z"/><path fill="#E2B522" d="M275.5 346.2c-.2-.5-.5-.9-.7-.8-.2.1-.3.5-.2 1.1.1.5.4.9.7.8.2-.1.3-.6.2-1.1z"/><path fill="#E2B522" d="M276.3 345.9c-.2-.5-.6-.8-.8-.8-.2.1-.3.6-.1 1.1.2.5.5.9.8.8.3-.1.3-.6.1-1.1z"/><path fill="#E2B522" d="M277.2 345.5c-.2-.5-.6-.8-.9-.7-.2.1-.3.6-.1 1.1.2.5.6.8.9.7.3-.1.4-.6.1-1.1z"/><path fill="#E2B522" d="M278 345.1c-.3-.5-.7-.8-.9-.6-.2.1-.2.6 0 1.1.2.5.6.8.9.7.3-.2.3-.7 0-1.2zm.8-.5c-.3-.5-.7-.7-.9-.6-.2.1-.2.6.1 1.1.3.5.7.8 1 .6.1-.1.1-.6-.2-1.1z"/><path fill="#E2B522" d="M279.5 344.1c-.3-.4-.8-.6-1-.5-.2.1-.1.6.2 1.1.3.5.8.7 1 .5.2-.2.1-.7-.2-1.1z"/><path fill="#E2B522" d="M280.2 343.4c-.4-.4-.8-.6-1-.4-.2.2-.1.6.3 1.1.3.4.8.6 1 .4.2-.2.1-.7-.3-1.1z"/><path fill="#E2B522" d="M280.8 342.8c-.4-.4-.9-.5-1-.3-.2.2 0 .6.3 1.1.4.4.8.6 1.1.4.2-.3.1-.8-.4-1.2z"/><path fill="#E2B522" d="M281.4 342.1c-.4-.3-.9-.5-1.1-.3-.2.2 0 .6.4 1s.9.5 1.1.3c.3-.2.1-.6-.4-1z"/><path fill="#E2B522" d="M282 341.4c-.5-.3-.9-.4-1.1-.2-.1.2.1.6.5 1s.9.4 1.1.2c.2-.2-.1-.7-.5-1z"/><path fill="#E2B522" d="M282.5 340.6c-.5-.3-1-.3-1.1-.1-.1.2.1.6.6.9.5.3 1 .4 1.1.1.1-.2-.1-.7-.6-.9z"/><path fill="#E2B522" d="M282.9 339.8c-.5-.2-1-.2-1.1 0-.1.2.2.6.6.9.5.3 1 .3 1.1 0 .2-.3-.1-.7-.6-.9z"/><path fill="#E2B522" d="M283.3 339c-.5-.2-1-.2-1.1.1-.1.2.2.6.7.8.5.2 1 .2 1.1-.1.1-.3-.2-.6-.7-.8z"/><path fill="#E2B522" d="M283.5 338.1c-.5-.2-1-.1-1.1.1-.1.2.3.6.8.8.5.2 1 .2 1.1-.1.1-.3-.2-.6-.8-.8z"/><path fill="#E2B522" d="M283.8 337.2c-.3-.1-.5-.1-.7 0-.2 0-.3.1-.4.2-.1.2.3.6.8.7.5.2 1 .1 1.1-.2 0-.1 0-.3-.2-.4-.1-.2-.3-.3-.6-.3z"/><path fill="#E2B522" d="M284 336.3c-.5-.1-1 .1-1.1.3-.1.2.3.5.9.7.5.1 1 0 1.1-.3 0-.3-.4-.6-.9-.7z"/><path fill="#E2B522" d="M284.1 335.4c-.3 0-.5 0-.7.1-.2.1-.3.2-.3.3 0 .2.4.5.9.6.5.1 1-.1 1.1-.4 0-.1-.1-.3-.2-.4-.3-.1-.6-.2-.8-.2z"/><path fill="#E2B522" d="M284.1 334.5c-.6 0-1 .2-1 .5 0 .2.4.5 1 .5.5 0 1-.2 1-.5s-.5-.5-1-.5zm0-1c-.6 0-1 .3-1 .5 0 .1.1.2.3.3.2.1.4.1.7.1.3 0 .5-.1.7-.2.2-.1.3-.2.3-.4 0-.1-.5-.3-1-.3z"/><path fill="#E2B522" d="M284 332.6c-.5.1-1 .4-.9.6 0 .2.5.4 1 .4s1-.3.9-.6c0-.3-.5-.5-1-.4z"/><path fill="#E2B522" d="M283.8 331.8c-.5.1-.9.4-.9.7 0 .2.5.4 1.1.3.5-.1 1-.4.9-.7-.1-.3-.6-.5-1.1-.3z"/><path fill="#E2B522" d="M283.6 330.9c-.5.2-.9.5-.8.7.1.2.5.3 1.1.2.5-.1.9-.4.8-.7-.1-.3-.6-.4-1.1-.2zm-.4-.9c-.5.2-.8.6-.8.8.1.2.6.3 1.1.1.5-.2.9-.5.8-.8-.1-.3-.6-.3-1.1-.1z"/><path fill="#E2B522" d="M282.9 329.1c-.5.2-.8.6-.7.9.1.2.6.3 1.1.1.5-.2.9-.6.7-.9-.1-.3-.6-.3-1.1-.1z"/><path fill="#E2B522" d="M282.4 328.4c-.5.3-.8.7-.6.9.1.2.6.2 1.1 0 .5-.2.8-.6.7-.9-.2-.3-.7-.3-1.2 0z"/><path fill="#E2B522" d="M282 327.6c-.4.3-.7.7-.6.9.1.2.6.2 1.1-.1.5-.3.8-.7.6-1-.2-.2-.7-.1-1.1.2z"/><path fill="#E2B522" d="M281.4 326.8c-.4.3-.6.8-.5 1 .1.2.6.1 1.1-.2.5-.3.7-.8.5-1-.2-.2-.7-.1-1.1.2z"/><path fill="#E2B522" d="M280.8 326.1c-.4.4-.6.8-.4 1 .2.2.6.1 1.1-.3.4-.3.6-.8.4-1-.2-.2-.7 0-1.1.3z"/><path fill="#E2B522" d="M280.2 325.5c-.4.4-.5.9-.3 1 .2.2.6 0 1.1-.3.4-.4.6-.8.4-1.1-.4-.2-.9 0-1.2.4z"/><path fill="#E2B522" d="M279.5 324.9c-.3.4-.5.9-.3 1.1.2.2.6 0 1-.4s.5-.9.3-1.1c-.2-.2-.7 0-1 .4z"/><path fill="#E2B522" d="M278.7 324.3c-.3.5-.4.9-.2 1.1.2.2.6-.1 1-.5s.4-.9.2-1.1c-.2-.2-.7.1-1 .5z"/><path fill="#E2B522" d="M277.9 323.9c-.3.5-.3 1-.1 1.1.2.1.6-.1.9-.6.3-.4.4-1 .1-1.1-.2-.2-.6.1-.9.6z"/><path fill="#E2B522" d="M277.1 323.4c-.2.5-.2 1 0 1.1.2.1.6-.2.9-.6.3-.5.3-1 0-1.1-.2-.2-.6.2-.9.6z"/><path fill="#E2B522" d="M276.3 323.1c-.2.5-.2 1 .1 1.1.2.1.6-.2.9-.7.2-.5.2-1 0-1.1-.4-.1-.8.2-1 .7z"/><path fill="#E2B522" d="M275.4 322.8c-.2.5-.1 1 .1 1.1.2.1.6-.3.8-.8.2-.5.1-1-.1-1.1-.3-.1-.7.2-.8.8z"/><path fill="#E2B522" d="M274.5 322.5c-.1.5 0 1 .2 1.1.2.1.6-.3.7-.8.2-.5.1-1-.2-1.1-.2-.1-.5.3-.7.8z"/><path fill="#E2B522" d="M273.7 322.4c-.1.5.1 1 .3 1.1.2.1.5-.3.7-.9.1-.5 0-1-.3-1.1-.4-.1-.7.3-.7.9z"/><path fill="#E2B522" d="M272.8 322.3c0 .3 0 .5.1.7.1.2.2.3.3.3.2 0 .5-.4.6-.9.1-.5-.1-1-.4-1.1-.1 0-.3.1-.4.2-.1.3-.2.5-.2.8zm-1-.1c0 .5.2 1 .5 1 .2 0 .5-.4.5-1 0-.5-.2-1-.5-1s-.5.5-.5 1zm-.9.1c0 .6.3 1 .5 1 .1 0 .2-.1.3-.3.1-.2.1-.4.1-.7s-.1-.5-.2-.7c-.1-.2-.2-.3-.4-.3s-.4.4-.3 1z"/><path fill="#E2B522" d="M270 322.4c.1.5.4 1 .6.9.2 0 .4-.5.4-1s-.3-1-.6-.9c-.3 0-.5.4-.4 1z"/><path fill="#E2B522" d="M269.1 322.5c.1.5.4.9.7.9.1 0 .2-.2.3-.3.1-.2.1-.4 0-.7 0-.3-.1-.5-.3-.7-.1-.2-.3-.2-.4-.2-.3 0-.4.5-.3 1zm-.9.3c.2.5.5.9.7.8.2-.1.3-.5.2-1.1-.1-.5-.5-.9-.7-.8-.3.1-.4.6-.2 1.1z"/><path fill="#E2B522" d="M267.3 323.1c.2.5.6.8.8.8.2-.1.3-.6.1-1.1-.2-.5-.5-.9-.8-.8-.2.1-.3.6-.1 1.1z"/><path fill="#E2B522" d="M266.5 323.5c.2.5.6.8.8.7.2-.1.3-.6.1-1.1-.2-.5-.6-.9-.9-.7-.2.1-.2.6 0 1.1z"/><path fill="#E2B522" d="M265.7 323.9c.3.5.7.8.9.6.2-.1.2-.6 0-1.1-.2-.5-.6-.8-.9-.7-.3.2-.2.7 0 1.2zm-.8.5c.3.4.7.7.9.6.2-.1.2-.6-.1-1.1-.3-.5-.7-.8-1-.6-.2.1-.1.6.2 1.1z"/><path fill="#E2B522" d="M264.2 324.9c.3.4.8.6 1 .5.2-.1.1-.6-.2-1.1-.3-.5-.8-.7-1-.5-.3.2-.2.7.2 1.1z"/><path fill="#E2B522" d="M263.5 325.5c.4.4.8.6 1 .4.2-.2.1-.6-.3-1.1-.3-.4-.8-.6-1-.4-.2.2-.1.7.3 1.1z"/><path fill="#E2B522" d="M262.9 326.1c.4.4.9.5 1 .4.2-.2 0-.6-.3-1.1-.4-.4-.8-.6-1.1-.4-.2.3 0 .8.4 1.1zm-.7.8c.4.3.9.5 1.1.3.2-.2 0-.6-.4-1s-.9-.5-1.1-.3c-.2.2 0 .7.4 1z"/><path fill="#E2B522" d="M261.7 327.6c.5.3.9.4 1.1.2.1-.2-.1-.6-.5-1s-.9-.4-1.1-.2c-.2.3 0 .7.5 1z"/><path fill="#E2B522" d="M261.2 328.4c.5.3 1 .3 1.1.1.1-.2-.1-.6-.6-.9-.4-.3-1-.4-1.1-.1-.1.2.1.6.6.9z"/><path fill="#E2B522" d="M260.8 329.2c.5.2 1 .2 1.1 0 .1-.2-.2-.6-.6-.9-.5-.3-1-.3-1.1 0-.2.2.1.6.6.9z"/><path fill="#E2B522" d="M260.4 330.1c.5.2 1 .2 1.1-.1.1-.2-.2-.6-.7-.8-.5-.2-1-.2-1.1.1-.1.2.2.6.7.8z"/><path fill="#E2B522" d="M260.1 330.9c.5.2 1 .1 1.1-.1.1-.2-.3-.6-.8-.8-.5-.2-1-.1-1.1.1-.1.3.3.7.8.8z"/><path fill="#E2B522" d="M259.9 331.8c.5.1 1 0 1.1-.2.1-.2-.3-.6-.8-.7-.5-.2-1-.1-1.1.2-.1.2.3.6.8.7z"/><path fill="#E2B522" d="M259.7 332.7c.5.1 1-.1 1.1-.3.1-.2-.3-.5-.9-.7-.5-.1-1 0-1.1.3 0 .3.4.6.9.7z"/><path fill="#E2B522" d="M259.6 333.6c.5 0 1-.1 1-.4 0-.2-.4-.5-.9-.6-.5-.1-1 .1-1.1.4 0 .3.5.6 1 .6z"/><path fill="#E2B522" d="M259.6 334.5c.6 0 1-.2 1-.5 0-.2-.4-.5-1-.5-.5 0-1 .2-1 .5s.4.5 1 .5z"/><path fill="#E2B522" d="M259.6 335.4c.5 0 1-.3 1-.5s-.5-.5-1-.5c-.6 0-1 .2-1 .5 0 .4.5.6 1 .5z"/><path fill="#E2B522" d="M259.7 336.3c.5-.1 1-.4.9-.6 0-.2-.5-.4-1-.4s-1 .3-.9.6c0 .3.5.5 1 .4z"/><path fill="#E2B522" d="M259.9 337.3c.5-.1.9-.4.9-.7 0-.2-.5-.4-1.1-.3-.5.1-.9.4-.9.7.1.3.6.4 1.1.3z"/><path fill="#E2B522" d="M260.1 338.1c.5-.2.9-.5.8-.7-.1-.2-.5-.3-1.1-.2-.5.1-.9.5-.8.7.1.3.6.4 1.1.2z"/><path fill="#E2B522" d="M260.4 339c.5-.2.8-.6.8-.8-.1-.2-.6-.3-1.1-.1-.5.2-.9.5-.8.8.1.2.6.3 1.1.1z"/><path fill="#E2B522" d="M260.8 339.8c.5-.2.8-.6.7-.8-.1-.2-.6-.3-1.1-.1-.5.2-.9.6-.7.9.1.2.6.2 1.1 0z"/><path fill="#E2B522" d="M261.3 340.7c.5-.3.8-.7.6-.9-.1-.2-.6-.2-1.1 0-.5.2-.8.6-.7.9.2.3.7.3 1.2 0z"/><path fill="#E2B522" d="M261.7 341.4c.4-.3.7-.7.6-.9-.1-.2-.6-.2-1.1.1-.5.3-.8.7-.6 1 .2.2.7.1 1.1-.2z"/><path fill="#E2B522" d="M262.3 342.1c.4-.3.6-.8.5-1-.1-.2-.6-.1-1.1.2-.5.3-.7.8-.5 1 .1.3.6.2 1.1-.2z"/><path fill="#E2B522" d="M262.8 342.8c.4-.4.6-.8.4-1-.2-.2-.6-.1-1.1.3-.4.3-.6.8-.4 1 .3.2.7.1 1.1-.3z"/></svg>