<svg xmlns="http://www.w3.org/2000/svg"
	 viewBox="-2 1766 1030 250" class="{{include.class }}">
<g id="Layer_34">
	<path fill="#EDEEE2" d="M461.6,1909.5c0,0-9.5-8.1-17.2-6.4c-7.7,1.7,16,7.5,16.8,7.5C461.5,1910.2,461.6,1909.5,461.6,1909.5
		L461.6,1909.5z"/>
	<path fill="#EDEEE2" d="M463.2,1908.2l-0.7,0.6c0,0-12.6-8.7-11-15.5c0.2-0.8,1.6-0.5,3.3,1.7
		C459.2,1900.6,462.4,1905.3,463.2,1908.2L463.2,1908.2z"/>
	<path fill="#EDEEE2" d="M463.8,1919.8l0.8,0.5c0,0-5.1,14.5-12.1,14.7c-0.8,0-0.9-1.4,0.8-3.6
		C457.5,1925.6,461.2,1921.3,463.8,1919.8L463.8,1919.8z"/>
	<path fill="#EDEEE2" d="M460.9,1911.4c0,0-18.3-9.2-19.7-6.1c-1.4,3.1,15.3,7.5,19.3,6.4L460.9,1911.4z"/>
	<path fill="#EDEEE2" d="M460.4,1914.3c0,0,0.5-0.5-0.5-1.1s-16.3-4-18.9-1.6C438.5,1913.9,453.8,1917.9,460.4,1914.3z"/>
	<path fill="#EDEEE2" d="M463.8,1907.7c0,0-7.9-9.8-5.9-15.2c0.4-0.8,3.4,0.1,4.4,4.8c1,4.7,2.4,10.1,2.4,10.1L463.8,1907.7z"/>
	<path fill="#EDEEE2" d="M467.1,1906.8l-0.6,0.1c0,0-7.8-16.8-5.3-19.2c0.6,0,1.3,0.4,1.3,0.4S468.8,1896.5,467.1,1906.8z"/>
	<path fill="#EDEEE2" d="M470.6,1920l0.5-0.3c0,0,12.8,13.4,11.2,16.4c-0.6,0.2-1.4,0.1-1.4,0.1S472.3,1930.4,470.6,1920L470.6,1920
		z"/>
	<path fill="#EDEEE2" d="M469.6,1907.2c0,0-0.9,0.1-1.1-0.5c-0.1-0.6-2-16.6,2.1-19.6c1-0.6,2.2,0.9,2,2.2
		C472.6,1890.8,472.9,1903.6,469.6,1907.2L469.6,1907.2z"/>
	<path fill="#EDEEE2" d="M470.2,1907.3l0.6,0.7c0,0,6.9-5.8,7.6-15.5c0.1-1,0.2-2.7-0.7-3.1C476.9,1889,474.1,1891.9,470.2,1907.3
		L470.2,1907.3z"/>
	<path fill="#EDEEE2" d="M472.7,1909.5c0,0,9.8-4.4,12.5-13c0.3-1-0.5-2-1.3-1.5c-0.8,0.6-8.6,5.2-11.7,13.7
		C472.2,1909.2,472.7,1909.5,472.7,1909.5L472.7,1909.5z"/>
	<path fill="#EDEEE2" d="M473.3,1910.6l0.6,0.6c0,0,17.5-1.1,18.8-7.2C492.9,1903,479.8,1904.7,473.3,1910.6z"/>
	<path fill="#EDEEE2" d="M461.4,1916.9c0,0-17.3,4.5-17.6,8.2c0,0-0.8,2.3,4,1s12.9-5.8,13.9-7.9
		C462,1916.9,461.4,1916.9,461.4,1916.9z"/>
	<path fill="#EDEEE2" d="M474.5,1915.6c0,0,16.5,2.5,17.7,3.9c0.3,0.6,0.1,0.8,0.1,0.8s0.6,0.2-0.7,0.6s-10.4,2.1-17.6-4.1
		C474.2,1916.4,473.6,1915.9,474.5,1915.6z"/>
	<path fill="#EDEEE2" d="M474.4,1911.7c0,0,16.1-4.2,17.8-3.4c0.6,0.4,0.4,0.7,0.4,0.7s0.6-0.1-0.3,0.8c-1,0.9-8.7,6.1-17.8,3.2
		C474.4,1912.5,473.7,1912.3,474.4,1911.7z"/>
	<path fill="#EDEEE2" d="M472.8,1918.4c0,0,9.5,6.5,13.7,12.6c0.5,1.3-1.3,1.3-1.3,1.3s-8.2-3.7-12.9-13.3
		C472.5,1918.8,472.8,1918.4,472.8,1918.4L472.8,1918.4z"/>
	<path fill="#EDEEE2" d="M473.1,1917.8c0,0,7.7,8.5,14.5,11.7c1.3,0.3,1-1.5,1-1.5s-4.8-7.6-15.1-10.9
		C473.4,1917.5,473.1,1917.8,473.1,1917.8z"/>
	<path fill="#EDEEE2" d="M469.4,1920.3c0,0,3.2,3.1,4.6,10.1c1.4,6.9,1,12.1-2,7c-3-5.1-3.7-16.4-3.1-16.8L469.4,1920.3z"/>
	<path fill="#EDEEE2" d="M461.6,1916c0,0-3.2,3.1-10.1,4.4c-6.9,1.3-12.1,0.8-7-2.1c5.1-2.9,16.5-3.4,16.8-2.8
		C461.3,1915.5,461.6,1916,461.6,1916z"/>
	<path fill="#EDEEE2" d="M468.1,1921c0,0,2,17.6-4.7,19.4c-1.2,0.2-1.5-1.3,0.1-7.7c1.6-6.5,3.4-11.8,3.4-11.8
		S467.4,1920.3,468.1,1921z"/>
	<path fill="#EDEEE2" d="M462.9,1919c0,0-2.7,0.2-8,5.4s-7.7,6.6-5.8,8.6c0.7,0.3,5.5-0.4,14.2-12.6
		C463.3,1920.3,463.8,1919.5,462.9,1919z"/>
	<path fill="#EDEEE2" d="M464.5,1920.6c0,0-7.8,13-5.5,16.5c1,1,1.6,0.5,2.1-0.7c0.5-1.1,5.5-13.3,4.6-15.5
		C465.5,1920.3,464.6,1920.3,464.5,1920.6L464.5,1920.6z"/>
	<path fill="#EDEEE2" d="M473.8,1915.6c0,0,20.2,3.1,20.6-0.3c0.3-3.4-16.9-2.3-20.3-0.1L473.8,1915.6z"/>
	<path fill="#E2B522" d="M475.2,1914.3c0-0.1-0.2-0.3-0.5-0.3c0,0,0,0,0,0c0,0,0,0,0-0.1c0.1,0,0.3-0.1,0.4-0.1
		c0.1-0.1,0.2-0.1,0.2-0.2c0,0-0.2-0.1-0.4-0.2c0.2-0.1,0.3-0.2,0.3-0.3c0-0.1-0.1-0.2-0.3-0.2c0.2-0.1,0.3-0.2,0.3-0.3
		c0-0.1-0.2-0.2-0.5-0.2c0.2-0.1,0.4-0.2,0.3-0.4c-0.1-0.2-0.3-0.2-0.6-0.1c0,0,0,0,0,0c0.2-0.1,0.4-0.3,0.4-0.4
		c0-0.1-0.1-0.1-0.3-0.1c0.1-0.1,0.2-0.2,0.1-0.3c0-0.1-0.2-0.2-0.3-0.2c0.1-0.1,0.2-0.2,0.1-0.4c-0.2-0.2-0.4-0.2-0.7,0
		c0,0,0,0,0,0c0.3-0.2,0.4-0.4,0.3-0.6c-0.1-0.1-0.4-0.1-0.6,0.1c0,0,0,0,0,0c0.3-0.2,0.4-0.4,0.3-0.6c-0.1-0.1-0.3-0.1-0.5,0
		c0.2-0.2,0.2-0.4,0.1-0.5c-0.1-0.1-0.2-0.1-0.3,0c0.1-0.2,0.1-0.3,0.1-0.4c-0.2-0.1-0.4,0-0.6,0.1c0.1-0.2,0.1-0.4,0-0.5
		c-0.1-0.1-0.4,0-0.6,0.2c0,0,0,0,0,0c0.2-0.2,0.2-0.5,0.1-0.6c-0.1-0.1-0.2,0-0.4,0.1c0.1-0.2,0.1-0.4-0.1-0.4
		c-0.1-0.1-0.2,0-0.4,0.1c0-0.2,0-0.3-0.1-0.3c-0.1-0.1-0.3,0-0.4,0.1c0-0.2,0-0.4-0.1-0.4c-0.2-0.1-0.4,0.1-0.6,0.4c0,0,0,0,0,0
		c0.1-0.3,0-0.5-0.1-0.6c-0.2-0.1-0.3,0.1-0.4,0.4c0.1-0.2,0-0.5-0.1-0.5c-0.1-0.1-0.2,0-0.3,0.2c0-0.2-0.1-0.3-0.2-0.4
		c-0.1,0-0.3,0.1-0.3,0.3c0-0.2-0.1-0.3-0.2-0.4c-0.1,0-0.2,0.1-0.2,0.1c-0.1,0.2-0.1,0.3-0.1,0.4c0,0,0,0,0,0
		c0-0.3-0.1-0.6-0.3-0.6c-0.2,0-0.3,0.2-0.3,0.5c0,0,0,0,0,0c0-0.1-0.1-0.3-0.1-0.4c-0.1-0.1-0.1-0.2-0.2-0.2c0,0-0.1,0.1-0.2,0.3
		c-0.1-0.2-0.2-0.3-0.3-0.3c-0.1,0-0.2,0.1-0.2,0.4c0-0.1-0.1-0.1-0.1-0.1c-0.1-0.1-0.2-0.1-0.2-0.1c-0.1-0.1-0.2,0.2-0.2,0.5
		c-0.1-0.3-0.3-0.5-0.4-0.5c-0.2,0.1-0.2,0.3-0.1,0.6c0,0,0,0,0,0c-0.1-0.3-0.3-0.5-0.5-0.5c-0.1,0-0.1,0.2-0.1,0.4
		c-0.1-0.2-0.3-0.3-0.4-0.2c-0.1,0-0.1,0.2-0.1,0.4c-0.1-0.1-0.3-0.2-0.4-0.2c-0.2,0.1-0.1,0.4,0,0.7c0,0,0,0,0,0
		c-0.2-0.3-0.4-0.5-0.6-0.3c-0.1,0.1-0.1,0.2,0,0.4c-0.1-0.1-0.3-0.2-0.4-0.1c-0.1,0.1-0.1,0.3,0,0.4c-0.2-0.1-0.3-0.2-0.4-0.1
		c-0.1,0.1-0.1,0.3,0.1,0.5c-0.2-0.1-0.3-0.2-0.5-0.1c-0.1,0.1,0,0.4,0.2,0.6c0,0,0,0,0,0c-0.2-0.2-0.5-0.3-0.6-0.2
		c-0.1,0.1,0,0.2,0,0.4c-0.2-0.1-0.3,0-0.4,0c-0.1,0.2,0.1,0.4,0.3,0.6c0,0,0,0,0,0c0,0,0,0,0,0c0,0,0,0,0,0
		c-0.2-0.2-0.6-0.2-0.6-0.1c0,0.1,0,0.2,0.2,0.4c-0.2-0.1-0.4,0-0.4,0.1c-0.1,0.1,0.1,0.3,0.3,0.5c0,0,0,0,0,0c0,0,0,0,0,0
		c0,0,0,0,0,0c-0.3-0.1-0.6-0.1-0.6,0.1c0,0.1,0,0.2,0.2,0.4c-0.2,0-0.4,0-0.4,0.1c0,0.1,0.1,0.3,0.3,0.4c-0.2,0-0.4,0-0.4,0.2
		c0,0.1,0.1,0.2,0.3,0.3c-0.2,0-0.4,0.1-0.4,0.2c0,0.2,0.2,0.3,0.5,0.4c0,0,0,0,0,0c0,0,0,0,0,0c0,0,0,0,0,0
		c-0.3-0.1-0.6,0.1-0.6,0.2c0,0.1,0.2,0.2,0.3,0.3c-0.2,0-0.3,0.1-0.3,0.3c0,0.1,0.1,0.2,0.3,0.3c-0.2,0-0.3,0.1-0.3,0.3
		c0,0.2,0.1,0.3,0.3,0.3c-0.2,0.1-0.3,0.2-0.3,0.3c0,0.2,0.3,0.3,0.6,0.2c0,0,0,0,0,0c0,0,0,0,0,0c0,0,0,0,0,0
		c-0.3,0.1-0.5,0.2-0.5,0.4c0.1,0.2,0.3,0.2,0.6,0.2c0,0,0,0,0,0c0,0,0,0,0,0c0,0,0,0,0,0c-0.3,0.1-0.5,0.3-0.5,0.4
		c0,0.1,0.2,0.2,0.5,0.1c-0.2,0.1-0.4,0.3-0.3,0.4c0,0.1,0.2,0.1,0.4,0.1c-0.2,0.1-0.3,0.3-0.2,0.4c0.1,0.1,0.3,0.2,0.6,0
		c0,0,0,0,0,0c0,0,0,0,0,0c0,0,0,0,0,0c-0.3,0.1-0.5,0.3-0.4,0.5c0.1,0.1,0.3,0.2,0.5,0.1c-0.2,0.1-0.2,0.3-0.1,0.4
		c0,0.1,0.2,0.1,0.4,0c-0.2,0.2-0.2,0.4-0.1,0.4c0.1,0.1,0.2,0.1,0.4,0c-0.1,0.2-0.1,0.3-0.1,0.4c0.1,0.1,0.2,0.1,0.4,0
		c-0.1,0.2-0.1,0.3,0,0.5c0.1,0.1,0.3,0,0.5-0.1c-0.1,0.2-0.1,0.3,0,0.4c0.1,0.1,0.3,0,0.4-0.1c-0.1,0.2-0.1,0.4,0,0.4
		c0.1,0.1,0.3,0,0.4-0.1c-0.1,0.2-0.1,0.4,0.1,0.4c0.1,0.1,0.3-0.1,0.5-0.3c0,0,0,0,0,0c-0.2,0.3-0.2,0.6,0,0.6
		c0.1,0.1,0.3,0,0.4-0.1c0,0.2,0,0.3,0.1,0.4c0.1,0.1,0.3-0.1,0.5-0.4c0,0,0,0,0,0c-0.1,0.3,0,0.6,0.1,0.6c0.1,0,0.2-0.1,0.4-0.3
		c0,0.2,0.1,0.3,0.2,0.4c0.2,0.1,0.3-0.1,0.4-0.4c0,0,0,0,0,0c0,0.3,0,0.5,0.2,0.6c0.1,0,0.3-0.1,0.3-0.3c0,0.2,0.1,0.4,0.2,0.4
		c0.1,0,0.2-0.2,0.3-0.4c0,0.2,0.1,0.4,0.3,0.4c0.1,0,0.2-0.2,0.3-0.4c0,0.2,0.1,0.3,0.3,0.3c0.1,0,0.2-0.1,0.3-0.4
		c0.1,0.2,0.2,0.3,0.3,0.3c0.2,0,0.2-0.1,0.3-0.3c0.1,0.2,0.2,0.3,0.3,0.3c0.2,0,0.2-0.2,0.2-0.6c0.1,0.3,0.2,0.5,0.4,0.4
		c0.1,0,0.1-0.3,0.1-0.5c0.1,0.2,0.2,0.4,0.4,0.3c0.1,0,0.2-0.2,0.1-0.4c0.1,0.2,0.3,0.2,0.4,0.2c0.1,0,0.2-0.2,0.2-0.3
		c0.1,0.1,0.2,0.2,0.4,0.1c0.2-0.1,0.2-0.4,0-0.7c0,0,0,0,0,0c0.2,0.3,0.4,0.4,0.6,0.3c0,0,0-0.2,0-0.4c0.2,0.1,0.3,0.2,0.4,0.1
		c0.1-0.1,0.1-0.4-0.1-0.6c0,0,0,0,0,0c0.2,0.2,0.5,0.3,0.6,0.2c0.1-0.1,0.1-0.2,0-0.4c0.2,0.1,0.3,0.2,0.5,0.1c0-0.1,0-0.3-0.1-0.5
		c0.2,0.1,0.3,0.1,0.4,0c0.1-0.1,0.1-0.2,0-0.4c0.2,0.1,0.4,0.1,0.4,0c0.1-0.1,0-0.4-0.3-0.6c0,0,0,0,0,0c0.3,0.2,0.5,0.2,0.6,0
		c0-0.1,0-0.2-0.1-0.4c0.2,0,0.3,0,0.4-0.1c0.1-0.1,0-0.3-0.1-0.4c0.2,0,0.4,0,0.4-0.1c0.1-0.1-0.1-0.3-0.4-0.5c0,0,0,0,0,0
		c0.3,0.1,0.6,0.1,0.6-0.1c0.1-0.1-0.1-0.3-0.4-0.4c0.2,0.1,0.5,0,0.5-0.1c0-0.1,0-0.2-0.1-0.2c0,0-0.1-0.1-0.1-0.1
		c0.2,0,0.3-0.1,0.4-0.2c0-0.1-0.1-0.3-0.3-0.3c0.2,0,0.4-0.1,0.4-0.2c0-0.1-0.1-0.2-0.1-0.2c-0.1,0-0.2-0.1-0.3-0.1
		C475.1,1914.5,475.2,1914.4,475.2,1914.3z"/>
</g>
<g id="Layer_32">
	<path fill="#EDEEE2" d="M383.3,1951.3c0.4-0.1,1-0.1,1.3-0.6c0.2-0.3,0.2-0.6,0.2-1.1c0-0.1-0.1-0.2-0.1-0.2c0.3,0.1,0.6,0.1,0.8,0
		c0.5-0.2,0.8-0.8,0.9-1.1c0.1-0.1,0.1-0.2,0.2-0.3c0.2,0.1,0.7-0.1,0.9-0.4c0.2-0.2,0.3-0.5,0.1-1c-0.1-0.1-0.1-0.2-0.2-0.3
		c0.8-0.5,0.6-1,0.6-1.3c-0.1-0.3-0.4-0.5-0.6-0.6v-0.3c0-0.3,0.1-0.7-0.1-1c-0.2-0.5-0.6-0.7-1.2-0.7H386c0.4-0.5,0.5-0.9,0.3-1.3
		c-0.2-0.3-0.5-0.6-0.7-0.8c-0.1-0.1-0.2-0.2-0.2-0.2c0.1-0.2,0.1-0.5-0.1-0.9c-0.1-0.2-0.4-0.8-1.3-0.5c0-0.1-0.1-0.2-0.1-0.3
		c-0.2-0.5-0.6-0.6-0.8-0.6c-0.4,0-0.8,0.2-0.9,0.4c-0.1,0-0.2-0.1-0.3-0.1c-0.5-0.2-1.4-0.5-1.9,0.4l-0.1-0.1
		c-0.3-0.3-0.6-0.6-0.9-0.6c-0.5-0.1-1,0.3-1.3,0.5c-0.1,0.1-0.2,0.2-0.3,0.2c-0.2-0.2-0.7-0.2-1.1-0.1c-0.2,0.1-0.5,0.5-0.5,1.1
		c-0.5,0-0.8,0.2-0.9,0.5c-0.2,0.3-0.2,0.8-0.1,1c0.1,0.1,0.1,0.2,0.2,0.2c0,0.1-0.1,0.2-0.2,0.3c-0.2,0.3-0.5,0.9-0.3,1.5
		c0.1,0.2,0.2,0.3,0.3,0.4h-0.1c-0.5,0.1-0.8,0.3-1,0.6c-0.3,0.5-0.2,1-0.1,1.4c0,0.1,0.1,0.3,0.1,0.3c-0.2,0.1-0.3,0.3-0.4,0.5
		c-0.1,0.2-0.1,0.5,0,0.8c0.1,0.3,0.3,0.5,0.8,0.6c-0.2,0.3-0.2,0.7-0.1,0.9c0.1,0.3,0.3,0.4,0.5,0.5c0.2,0.1,0.5,0.1,0.7,0.1
		c0.1,0.1,0.1,0.2,0.2,0.3c0.2,0.3,0.5,0.8,1,0.9c0.3,0.1,0.7-0.1,1-0.3c0,0.1,0.1,0.3,0.1,0.3c0.2,0.6,0.9,0.7,1.3,0.8
		c0.1,0,0.3,0.1,0.3,0.1c0,0.1,0.1,0.2,0.1,0.3c0.1,0.3,0.4,0.6,0.8,0.6c0.2,0.1,0.6,0,1-0.4c0.5,0.5,0.9,0.5,1.2,0.4
		c0.4-0.1,0.7-0.6,0.7-0.8C383,1951.3,383.1,1951.3,383.3,1951.3L383.3,1951.3z"/>
	<path fill="#EDEEE2" d="M384.9,1942.8h0.1c-0.6,0.8-0.1,2.6,0.1,3c-0.3,0.3-1.7,1.9-1.3,2.9c-0.9-0.1-2.3,0.5-2.6,0.7
		c-0.3-0.2-2.3-1.4-3.1-0.6c0-0.1-0.1-0.1-0.1-0.2c-0.3-0.9-1.4-1.6-1.7-1.9c0.1-0.3,0.2-1.6-0.2-2.5c-0.1-0.1-0.1-0.2-0.2-0.3
		c0.2,0,0.3-0.1,0.5-0.2c0.8-0.6,1.1-2.2,1.2-2.6c0.3-0.1,1.6-0.6,2.2-1.3c0.6,0.9,2.5,0.9,2.9,0.9
		C382.9,1941.1,383.8,1942.6,384.9,1942.8L384.9,1942.8z"/>
	<path fill="#4356A0" d="M385.9,1949.2c0,0,3.6,7.7,3.8,11.8c0.3,4-4,3.6-4.2,8.7c-0.2,5.1-0.8,2.2-2.1,6.3
		c-1.9-3.3-2.1-0.6-3.3-5.8c-1.1-5-5.3-3.8-5.8-7.8c-0.5-4,1.6-12.2,1.6-12.2L385.9,1949.2z"/>
	<path d="M381.3,1950.3l-0.6,0.1l2.3,24.9l0.4,0.6l0.3-0.7"/>
	<path fill="#4356A0" d="M386.8,1941.1c0,0,8.4-0.9,12.3,0.1c3.9,1,2.2,4.9,7,6.7c4.8,1.8,1.9,1.4,5.3,4c-3.7,0.8-1.2,1.8-6.5,1.3
		c-5.1-0.5-5.3,3.8-9.2,3c-4-0.8-11.1-5.3-11.1-5.3L386.8,1941.1z"/>
	<path d="M386.4,1945.7l-0.1,0.7l24.4,5.5l0.8-0.2l-0.6-0.5"/>
	<path fill="#4356A0" d="M387.7,1942.5c0,0,6.4-5.5,8.3-9.1s-2.2-4.9-0.2-9.7c2-4.7,0.2-2.3,0.7-6.6c-3.1,2.2-2.2-0.3-5.4,3.9
		c-3.1,4.1-6.4,1.3-8.5,4.7c-2.1,3.4-3.7,11.8-3.7,11.8L387.7,1942.5L387.7,1942.5z"/>
	<path d="M384,1939.6l-0.6-0.3l12.5-21.7l0.6-0.5l-0.1,0.8"/>
	<path fill="#4356A0" d="M381.1,1938c0,0-3.3-7.9-6-10.8s-5.4,0.5-9.3-2.9c-3.9-3.4-2.2-1-6.1-2.7c1.2,3.6-1,1.9,2,6.3
		c2.9,4.2-0.8,6.5,1.9,9.5c2.6,3,10,7.2,10,7.2L381.1,1938L381.1,1938z"/>
	<path d="M377.1,1940.6l-0.5,0.5l-16.7-18.6l-0.2-0.8l0.8,0.3"/>
	<path fill="#4356A0" d="M378.1,1951.2c0,0-6.2,5.8-10,7.3c-3.7,1.5-4.7-2.7-9.6-1.2c-4.9,1.5-2.4,0-6.6-0.1
		c2.6-2.8-0.1-2.2,4.5-4.9c4.4-2.6,2-6.2,5.6-7.9c3.7-1.7,12.1-2.3,12.1-2.3L378.1,1951.2z"/>
	<path fill="#2D9681" d="M375.7,1942.5c0,0-8.9-5.2-17-2.4c-1,0.3-1.3,1.5-0.4,1.9c0.9,0.3,8.8,3.8,17.2,1.5
		C375.8,1943,375.7,1942.5,375.7,1942.5L375.7,1942.5z M380.1,1938.7c0,0,3.9-9.5,0.1-17.2c-0.5-0.9-1.7-1-1.9-0.1
		c-0.2,0.9-2.6,9.3,1,17.3C379.6,1938.9,380.1,1938.7,380.1,1938.7z M385.8,1943c0,0,10.3-0.2,15.8-6.9c0.6-0.8,0.3-2-0.6-1.8
		c-0.9,0.2-9.5,1.4-15.4,7.9C385.4,1942.6,385.8,1943,385.8,1943z M384.3,1949c0,0,9.7,3.6,12.6,11.6c0.3,1-0.4,2-1.2,1.5
		c-0.8-0.5-8.6-4.4-12-12.5C383.8,1949.2,384.3,1949,384.3,1949L384.3,1949z M379.2,1950.5c0,0-2.2,10.1-9.8,14.1
		c-0.9,0.5-2-0.1-1.6-1c0.3-0.9,3.2-9.1,10.7-13.6C379,1950.1,379.2,1950.5,379.2,1950.5L379.2,1950.5z"/>
	<path d="M375.6,1947.2l-0.3-0.6l-22.9,10l-0.5,0.6h0.8"/>
	<circle fill="#4356A0" cx="378.2" cy="1944" r="1"/>
	<path fill="#4356A0" d="M379.9,1948c0.5-0.2,0.7-0.8,0.5-1.3c-0.2-0.5-0.8-0.7-1.3-0.5c-0.5,0.2-0.7,0.8-0.5,1.3
		C378.9,1948,379.5,1948.2,379.9,1948z"/>
	<circle fill="#4356A0" cx="381.5" cy="1942.5" r="1"/>
	<path fill="#4356A0" d="M383.3,1946.5c0.5-0.2,0.7-0.8,0.5-1.3c-0.2-0.5-0.8-0.7-1.3-0.5c-0.5,0.2-0.7,0.8-0.5,1.3
		C382.2,1946.5,382.8,1946.8,383.3,1946.5z"/>
</g>
<g id="Layer_33">
	<path fill="#EDEEE2" d="M837.7,1949.3c0,0-9.5-8.1-17.2-6.4c-7.7,1.7,16,7.5,16.8,7.5C837.6,1949.9,837.7,1949.3,837.7,1949.3z"/>
	<path fill="#EDEEE2" d="M839.3,1948l-0.7,0.6c0,0-12.6-8.7-11-15.5c0.2-0.8,1.6-0.5,3.3,1.7C835.3,1940.4,838.5,1945.1,839.3,1948z
		"/>
	<path fill="#EDEEE2" d="M840,1959.5l0.8,0.5c0,0-5.1,14.5-12.1,14.7c-0.8,0-0.9-1.4,0.8-3.6C833.6,1965.3,837.3,1961,840,1959.5
		L840,1959.5z"/>
	<path fill="#EDEEE2" d="M836.9,1951.2c0,0-18.3-9.2-19.7-6.1c-1.4,3.1,15.3,7.5,19.3,6.4L836.9,1951.2L836.9,1951.2z"/>
	<path fill="#EDEEE2" d="M836.5,1954.1c0,0,0.5-0.5-0.5-1.1c-0.9-0.6-16.3-4-18.9-1.6C814.5,1953.7,829.9,1957.7,836.5,1954.1
		L836.5,1954.1z"/>
	<path fill="#EDEEE2" d="M839.8,1947.5c0,0-7.9-9.8-5.9-15.2c0.4-0.8,3.4,0.1,4.4,4.8c1,4.7,2.4,10.1,2.4,10.1L839.8,1947.5z"/>
	<path fill="#EDEEE2" d="M843.2,1946.6l-0.6,0.1c0,0-7.8-16.8-5.3-19.2c0.6,0,1.3,0.4,1.3,0.4S844.9,1936.2,843.2,1946.6
		L843.2,1946.6z"/>
	<path fill="#EDEEE2" d="M846.7,1959.8l0.5-0.3c0,0,12.8,13.4,11.2,16.4c-0.6,0.2-1.4,0.1-1.4,0.1S848.4,1970.1,846.7,1959.8
		L846.7,1959.8z"/>
	<path fill="#EDEEE2" d="M845.7,1947c0,0-0.9,0.1-1.1-0.5c-0.1-0.6-2-16.6,2.1-19.6c1-0.6,2.2,0.9,2,2.2
		C848.7,1930.5,849,1943.3,845.7,1947z"/>
	<path fill="#EDEEE2" d="M846.4,1947.1l0.6,0.7c0,0,6.9-5.8,7.6-15.5c0.1-1,0.2-2.7-0.7-3.1C853,1928.7,850.2,1931.6,846.4,1947.1z"
		/>
	<path fill="#EDEEE2" d="M848.8,1949.2c0,0,9.8-4.4,12.5-13c0.3-1-0.5-2-1.3-1.5s-8.6,5.2-11.7,13.7
		C848.3,1949,848.8,1949.2,848.8,1949.2L848.8,1949.2z"/>
	<path fill="#EDEEE2" d="M849.4,1950.3l0.6,0.6c0,0,17.5-1.1,18.8-7.2C869,1942.8,856,1944.4,849.4,1950.3L849.4,1950.3z"/>
	<path fill="#EDEEE2" d="M837.5,1956.6c0,0-17.3,4.5-17.6,8.2c0,0-0.8,2.3,4,1c4.7-1.3,12.9-5.8,13.9-7.9
		C838.1,1956.7,837.5,1956.6,837.5,1956.6L837.5,1956.6z"/>
	<path fill="#EDEEE2" d="M850.6,1955.4c0,0,16.5,2.5,17.7,3.9c0.3,0.6,0.1,0.8,0.1,0.8s0.6,0.2-0.7,0.6c-1.3,0.5-10.4,2.1-17.6-4.1
		C850.3,1956.1,849.7,1955.6,850.6,1955.4L850.6,1955.4z"/>
	<path fill="#EDEEE2" d="M850.6,1951.4c0,0,16.1-4.2,17.8-3.4c0.6,0.4,0.4,0.7,0.4,0.7s0.6-0.1-0.3,0.8c-1,0.9-8.7,6.1-17.8,3.2
		C850.6,1952.3,849.9,1952.1,850.6,1951.4z"/>
	<path fill="#EDEEE2" d="M848.9,1958.2c0,0,9.5,6.5,13.7,12.6c0.5,1.3-1.3,1.2-1.3,1.2s-8.2-3.7-12.9-13.3
		C848.6,1958.6,848.9,1958.2,848.9,1958.2L848.9,1958.2z"/>
	<path fill="#EDEEE2" d="M849.2,1957.6c0,0,7.7,8.5,14.5,11.7c1.3,0.3,1-1.5,1-1.5s-4.8-7.6-15.1-10.9
		C849.6,1957.3,849.2,1957.6,849.2,1957.6z"/>
	<path fill="#EDEEE2" d="M845.6,1960.1c0,0,3.2,3.1,4.6,10.1c1.4,6.9,1,12.1-2,7s-3.7-16.4-3.1-16.8L845.6,1960.1z"/>
	<path fill="#EDEEE2" d="M837.7,1955.7c0,0-3.2,3.1-10.1,4.4c-6.9,1.3-12.1,0.8-7-2.1s16.5-3.4,16.8-2.8L837.7,1955.7z"/>
	<path fill="#EDEEE2" d="M844.2,1960.8c0,0,2,17.6-4.7,19.4c-1.2,0.2-1.5-1.3,0.1-7.7c1.6-6.5,3.4-11.8,3.4-11.8
		S843.6,1960.1,844.2,1960.8z"/>
	<path fill="#EDEEE2" d="M839,1958.8c0,0-2.7,0.2-8,5.4c-5.3,5.1-7.7,6.6-5.8,8.6c0.7,0.3,5.5-0.4,14.2-12.6
		C839.4,1960.1,839.9,1959.2,839,1958.8z"/>
	<path fill="#EDEEE2" d="M840.5,1960.3c0,0-7.8,13-5.5,16.5c1,1,1.6,0.5,2.1-0.7c0.5-1.1,5.5-13.3,4.6-15.5
		C841.6,1960,840.7,1960,840.5,1960.3L840.5,1960.3z"/>
	<path fill="#EDEEE2" d="M850,1955.3c0,0,20.2,3.1,20.6-0.3c0.3-3.4-16.9-2.3-20.3-0.1L850,1955.3L850,1955.3z"/>
	<path fill="#E2B522" d="M851.4,1954.1c0-0.1-0.3-0.3-0.6-0.3c0,0,0,0,0,0c0,0,0,0,0-0.1c0.2,0,0.3-0.1,0.4-0.1
		c0.1-0.1,0.2-0.1,0.2-0.2c0,0-0.1-0.1-0.3-0.2c0.2-0.1,0.3-0.2,0.3-0.3c0-0.1-0.1-0.2-0.3-0.2c0.2-0.1,0.3-0.2,0.3-0.3
		c-0.1-0.2-0.3-0.3-0.6-0.2c0.3-0.1,0.5-0.2,0.5-0.4c0-0.2-0.3-0.2-0.6-0.1c0,0,0,0,0,0c0.3-0.1,0.5-0.3,0.5-0.5
		c0-0.1-0.2-0.1-0.3-0.1c0.1-0.1,0.2-0.2,0.1-0.3c0-0.1-0.2-0.2-0.3-0.2c0.1-0.1,0.2-0.2,0.1-0.4c-0.1-0.1-0.3-0.2-0.5-0.1
		c0.2-0.2,0.4-0.4,0.3-0.5c-0.1-0.1-0.4-0.1-0.6,0.1c0,0,0,0,0,0c0,0,0,0,0,0c0,0,0,0,0,0c0.3-0.2,0.4-0.5,0.3-0.6
		c-0.1-0.1-0.3-0.1-0.5,0c0.2-0.2,0.2-0.4,0.1-0.5c-0.1-0.1-0.2,0-0.4,0c0.1-0.2,0.2-0.3,0.1-0.4c-0.1-0.1-0.3,0-0.5,0.1
		c0.1-0.2,0.1-0.3,0-0.4c-0.1-0.1-0.4,0-0.6,0.2c0,0,0,0,0,0c0,0,0,0,0,0c0,0,0,0,0,0c0.2-0.2,0.2-0.5,0.1-0.6
		c-0.1-0.1-0.3,0-0.5,0.2c0.1-0.2,0.1-0.4,0-0.5c-0.1-0.1-0.2,0-0.4,0.1c0-0.2,0-0.3-0.1-0.4c-0.1-0.1-0.2,0-0.3,0.1
		c0-0.2,0-0.4-0.1-0.4c-0.2-0.1-0.5,0.1-0.6,0.4c0.1-0.3,0.1-0.6-0.1-0.6c-0.2-0.1-0.4,0.1-0.5,0.5c0,0,0,0,0,0
		c0.1-0.3,0.1-0.6-0.1-0.6c-0.1,0-0.2,0.1-0.3,0.3c0-0.2-0.1-0.3-0.2-0.4c-0.1,0-0.2,0.1-0.3,0.2c0-0.2-0.1-0.3-0.2-0.3
		c-0.1,0-0.2,0.1-0.2,0.1c-0.1,0.2-0.1,0.3-0.1,0.5c0,0,0,0,0,0c0,0,0,0,0-0.1c0-0.3-0.1-0.6-0.3-0.6c-0.2,0.1-0.3,0.3-0.3,0.6
		c0,0,0,0,0,0c0,0,0,0,0,0c0-0.2-0.1-0.3-0.1-0.4c-0.1-0.1-0.1-0.2-0.2-0.2c-0.1,0-0.2,0.1-0.2,0.3c-0.1-0.2-0.2-0.3-0.3-0.2
		c-0.1,0-0.2,0.1-0.2,0.4c0-0.1-0.1-0.1-0.1-0.1c-0.1-0.1-0.2-0.1-0.2-0.1c-0.2-0.1-0.2,0.2-0.2,0.6c0,0,0,0-0.1,0c0,0,0,0,0,0
		c-0.1-0.3-0.3-0.5-0.4-0.5c-0.1,0-0.1,0.3-0.1,0.5c-0.1-0.2-0.2-0.4-0.4-0.3c-0.1,0-0.1,0.2-0.1,0.4c-0.1-0.2-0.3-0.3-0.4-0.2
		c-0.1,0-0.1,0.2-0.1,0.3c-0.1-0.1-0.3-0.2-0.4-0.2c-0.2,0.1-0.2,0.4,0,0.7c0,0,0,0,0,0c-0.2-0.3-0.4-0.5-0.6-0.3
		c-0.1,0.1-0.1,0.2-0.1,0.3c-0.1-0.1-0.3-0.1-0.4-0.1c-0.1,0.1-0.1,0.3,0,0.4c-0.2-0.1-0.3-0.2-0.4-0.1c-0.1,0.1-0.1,0.4,0.2,0.6
		l0,0l0,0v0c-0.2-0.2-0.5-0.3-0.6-0.2c0,0.1,0,0.3,0.1,0.5c-0.2-0.1-0.4-0.1-0.5-0.1c-0.1,0.1,0,0.2,0,0.4c-0.2-0.1-0.3,0-0.4,0
		c-0.1,0.2,0,0.4,0.3,0.6c0,0,0,0,0,0c-0.2-0.2-0.6-0.2-0.6-0.1c0,0.1,0,0.2,0.1,0.4c-0.2,0-0.3,0-0.4,0.1c-0.1,0.1,0.1,0.3,0.3,0.5
		c0,0,0,0,0,0c-0.3-0.1-0.6-0.1-0.6,0.1c-0.1,0.1,0,0.2,0.2,0.4c-0.2,0-0.4,0-0.4,0.1c0,0.1,0.1,0.3,0.3,0.4c-0.2,0-0.4,0-0.4,0.2
		c0,0.1,0,0.2,0.2,0.3c-0.2,0-0.4,0.1-0.4,0.2c0,0.1,0.1,0.3,0.3,0.3c-0.2,0-0.4,0.1-0.4,0.2c0,0.1,0.1,0.3,0.3,0.3
		c-0.2,0-0.3,0.1-0.3,0.3c0,0.1,0.1,0.2,0.3,0.3c-0.2,0-0.3,0.1-0.3,0.3c0,0.2,0.1,0.3,0.3,0.3c-0.2,0.1-0.3,0.2-0.3,0.3
		c0,0.2,0.3,0.3,0.6,0.2c0,0,0,0,0,0c-0.3,0.1-0.5,0.2-0.5,0.4c0.1,0.2,0.3,0.2,0.6,0.2c-0.3,0.1-0.5,0.3-0.4,0.4
		c0,0.1,0.3,0.1,0.5,0.1c-0.2,0.1-0.4,0.2-0.3,0.4c0,0.1,0.2,0.1,0.4,0.1c-0.2,0.1-0.3,0.3-0.2,0.4c0,0.1,0.2,0.1,0.4,0.1
		c-0.2,0.1-0.3,0.3-0.2,0.4c0.1,0.1,0.3,0.2,0.5,0.1c-0.2,0.1-0.2,0.3-0.1,0.4c0.1,0.1,0.2,0.1,0.4,0c-0.1,0.2-0.2,0.3-0.1,0.4
		c0.1,0.1,0.2,0.1,0.4,0c-0.1,0.2-0.1,0.3-0.1,0.4c0.1,0.1,0.4,0.1,0.6-0.2l0,0c-0.2,0.2-0.3,0.5-0.2,0.6c0.1,0.1,0.3,0,0.5-0.1
		c-0.1,0.2-0.1,0.3,0,0.4c0.1,0.1,0.2,0,0.4,0c-0.1,0.2,0,0.3,0,0.4c0.2,0.1,0.4,0,0.6-0.3c0,0,0,0,0,0c-0.2,0.2-0.2,0.6-0.1,0.6
		c0.1,0.1,0.3-0.1,0.5-0.3c0,0,0,0,0,0c-0.2,0.3-0.2,0.6,0,0.6c0.1,0.1,0.3,0,0.4-0.2c0,0.2,0,0.4,0.1,0.4c0.1,0.1,0.2,0,0.4-0.2
		c0,0.2,0,0.4,0.1,0.4c0.1,0,0.3-0.1,0.4-0.3c0,0.2,0,0.4,0.2,0.4c0.1,0.1,0.3-0.1,0.4-0.4c0,0,0,0,0,0c0,0.3,0,0.6,0.2,0.6
		c0.1,0,0.2-0.1,0.3-0.2c0,0.2,0.1,0.3,0.2,0.3c0.1,0,0.3-0.1,0.3-0.3c0,0.2,0.1,0.4,0.3,0.4c0.1,0,0.2-0.2,0.3-0.4
		c0,0.2,0.1,0.3,0.3,0.3c0.2,0,0.3-0.2,0.3-0.6c0,0,0,0,0,0c0,0.3,0.2,0.6,0.3,0.5c0.1,0,0.2-0.1,0.2-0.4c0.1,0.2,0.2,0.3,0.3,0.3
		c0.1,0,0.2-0.1,0.2-0.4c0.1,0.2,0.2,0.3,0.3,0.2c0.2-0.1,0.2-0.3,0.1-0.6c0,0,0,0,0,0c0.1,0.3,0.3,0.5,0.5,0.5
		c0.1,0,0.1-0.2,0.1-0.4c0.1,0.2,0.3,0.3,0.4,0.2c0.1,0,0.2-0.2,0.1-0.4c0.1,0.2,0.3,0.2,0.4,0.2c0.1-0.1,0.2-0.3,0.1-0.5
		c0.1,0.2,0.3,0.2,0.4,0.1c0.1,0,0.1-0.2,0-0.4c0.2,0.1,0.3,0.2,0.4,0.1c0.2-0.1,0.1-0.4-0.1-0.6c0,0,0,0,0,0c0,0,0,0,0,0
		c0,0,0,0,0,0c0.2,0.2,0.5,0.3,0.6,0.2c0.1-0.1,0.1-0.2,0-0.4c0.2,0.1,0.3,0.1,0.4,0.1c0.1-0.1,0-0.3-0.1-0.5c0.2,0.1,0.4,0.1,0.5,0
		c0.1-0.1,0-0.2-0.1-0.4c0.2,0.1,0.3,0.1,0.4,0c0.1-0.1,0-0.4-0.3-0.6c0,0,0,0,0,0c0,0,0,0,0,0c0.3,0.2,0.6,0.2,0.6,0.1
		c0-0.1,0-0.2-0.2-0.4c0.2,0.1,0.4,0,0.4-0.1c0.1-0.1,0-0.3-0.1-0.4c0.2,0,0.3,0,0.4-0.1c0.1-0.2-0.1-0.4-0.4-0.5c0,0,0,0,0,0
		c0,0,0,0,0,0c0,0,0,0,0,0c0.3,0.1,0.6,0.1,0.6-0.1c0.1-0.1-0.2-0.3-0.5-0.5l0,0c0.3,0.1,0.6,0.1,0.6-0.1c0-0.1,0-0.2-0.1-0.2
		c0,0-0.1-0.1-0.1-0.1c0.2,0,0.3-0.1,0.4-0.2c0-0.1-0.1-0.3-0.3-0.3c0.2,0,0.4-0.1,0.4-0.2c0-0.1-0.1-0.2-0.1-0.2
		c-0.1,0-0.1-0.1-0.2-0.1C851.2,1954.3,851.4,1954.2,851.4,1954.1z"/>
	<path fill="#E2B522" d="M850.6,1952.2C850.6,1952.2,850.6,1952.2,850.6,1952.2C850.6,1952.2,850.6,1952.2,850.6,1952.2
		C850.6,1952.2,850.6,1952.2,850.6,1952.2z"/>
	<polygon fill="#E2B522" points="846.2,1947.1 846.2,1947.1 846.2,1947.1 	"/>
</g>
<g id="Layer_29" class="garland-leaf">
	<path fill="#2D9782" d="M162.5,1788.5l-0.2-2.6c-0.7,0.1-16.9,1.6-33.1,13.6c-9.5,7-17.1,16.1-22.5,27.1
		c-6.7,13.7-10,30.3-9.7,49.4c0.2,18.6-4.8,35.5-14.9,50c-8.2,11.6-19.6,21.9-34,30.5c-24.6,14.7-49.8,19.3-50.1,19.3l0.5,2.5
		c0.2-0.1,25.8-4.8,50.8-19.6c14.7-8.7,26.5-19.3,34.8-31.3c10.5-15,15.7-32.3,15.4-51.5c-0.2-18.7,2.9-34.9,9.4-48.2
		c5.2-10.6,12.5-19.4,21.7-26.2C146.3,1790.1,162.3,1788.5,162.5,1788.5L162.5,1788.5z"/>
	<path fill="#2D9782" d="M97.8,1894c3.1,1.2,6.3,2,9.5,2.9c3.3,0.9,6.6,0.5,9.7-0.7c3.4-1.3,4.8-3.9,4.5-7.9
		c-0.3-3.1-2.9-6.1-5.8-6.7c-4.2-0.8-7.9,0.5-11.2,3c-2.5,1.9-4.7,4.2-7,6.3"/>
	<path fill="#2D9782" d="M99.2,1873.1c3.2,0.7,6.5,1.2,9.8,1.6c3.4,0.5,6.6-0.3,9.5-2c3.2-1.7,4.3-4.5,3.4-8.4
		c-0.7-3-3.6-5.7-6.6-5.9c-4.2-0.2-7.8,1.6-10.7,4.5c-2.2,2.2-4.1,4.8-6.1,7.2"/>
	<path fill="#2D9782" d="M98,1886.1c-1.7-2.3-3.4-4.6-5.1-6.9c-2.2-2.7-4.8-4.8-8.2-5.6c-4-1-7.9,0.8-9.1,4.7
		c-1.3,4-0.8,6.9,3.2,9.3c3.4,2.1,7.2,2.4,11.1,2c2.4-0.3,4.7-0.8,7.1-1.1"/>
	<path fill="#2D9782" d="M98.2,1865.3c-1.6-2.4-3-4.8-4.6-7.2c-1.9-2.9-4.4-5.1-7.7-6.2c-3.9-1.3-7.9,0.2-9.4,4
		c-1.6,3.8-1.3,6.8,2.5,9.5c3.3,2.3,7,3,10.9,2.8c2.4-0.1,4.8-0.4,7.2-0.5"/>
	<path fill="#2D9782" d="M84.6,1926c2,2.6,4.2,5.1,6.5,7.5c2.3,2.5,5.3,3.9,8.6,4.5c3.6,0.7,6.2-0.8,8-4.4c1.4-2.7,0.8-6.7-1.4-8.7
		c-3.1-2.9-7-3.7-11.1-3.3c-3.1,0.3-6.2,1-9.3,1.7"/>
	<path fill="#2D9782" d="M92.1,1913.5c3,1.3,6.2,2.3,9.3,3.3c3.3,1,6.5,0.8,9.8-0.3c3.5-1.2,5-3.7,4.8-7.7c-0.1-3.1-2.6-6.2-5.5-6.9
		c-4.1-1-7.9,0.2-11.3,2.6c-2.6,1.8-4.9,4-7.2,6.1"/>
	<path fill="#2D9782" d="M94.1,1908c-1.1-3.1-2.4-6.2-3.8-9.1c-1.4-3.1-3.8-5.4-6.7-7.1c-3.1-1.8-6.1-1.3-9,1.6
		c-2.2,2.2-2.9,6.1-1.5,8.7c2,3.7,5.5,5.8,9.4,6.7c3,0.7,6.2,1,9.3,1.3"/>
	<path fill="#2D9782" d="M101.7,1849.4c3.2,0.8,6.5,1.3,9.7,1.8c3.4,0.5,6.6-0.2,9.6-1.7c3.3-1.7,4.4-4.4,3.6-8.4
		c-0.6-3-3.5-5.8-6.5-6c-4.2-0.3-7.8,1.4-10.8,4.2c-2.3,2.2-4.2,4.7-6.2,7.1"/>
	<path fill="#2D9782" d="M109,1827.4c3.1,1,6.3,1.9,9.5,2.7c3.3,0.8,6.6,0.3,9.7-0.9c3.4-1.4,4.7-4,4.3-8c-0.3-3.1-3-6.1-5.9-6.5
		c-4.2-0.7-7.9,0.8-11.1,3.3c-2.4,2-4.6,4.2-6.8,6.5"/>
	<path fill="#2D9782" d="M124.5,1806.7c2.4,2.3,4.9,4.4,7.5,6.5c2.7,2.1,5.8,3.1,9.2,3.3c3.7,0.2,6-1.6,7.3-5.5
		c1-2.9-0.2-6.8-2.7-8.4c-3.6-2.4-7.5-2.7-11.5-1.7c-3,0.8-6,1.9-8.9,3.1"/>
	<path fill="#2D9782" d="M81.9,1928.6c-0.4-3.3-1-6.5-1.8-9.7c-0.8-3.3-2.6-6.1-5.1-8.3c-2.7-2.4-5.7-2.5-9.1-0.3
		c-2.6,1.7-4.1,5.4-3.3,8.2c1.2,4.1,4.1,6.8,7.9,8.5c2.9,1.3,5.9,2.3,8.8,3.3"/>
	<path fill="#2D9782" d="M102,1845c-1.7-2.3-3.4-4.6-5.1-6.9c-2.2-2.7-4.8-4.8-8.2-5.6c-4-1-7.9,0.8-9.1,4.7c-1.3,4-0.8,6.9,3.2,9.3
		c3.4,2.1,7.2,2.4,11.1,2c2.4-0.3,4.7-0.8,7.1-1.1"/>
	<path fill="#2D9782" d="M106,1832c-0.8-2.7-1.5-5.5-2.3-8.3c-1-3.3-2.8-6.2-5.6-8.3c-3.3-2.4-7.6-2.2-10.2,1
		c-2.6,3.3-3.2,6.1-0.3,9.8c2.4,3.2,5.8,4.9,9.6,5.9c2.3,0.6,4.7,1,7,1.6"/>
	<path fill="#2D9782" d="M114.1,1817.1c0.2-2.9,0.5-5.7,0.6-8.6c0.2-3.4-0.5-6.8-2.4-9.7c-2.3-3.4-6.4-4.6-10-2.4
		c-3.6,2.2-5.1,4.7-3.7,9.1c1.2,3.8,3.8,6.6,7,8.8c2,1.3,4.1,2.5,6.1,3.8"/>
	<path fill="#2D9782" d="M114.1,1817.1c0.2-2.9,0.5-5.7,0.6-8.6c0.2-3.4-0.5-6.8-2.4-9.7c-2.3-3.4-6.4-4.6-10-2.4
		c-3.6,2.2-5.1,4.7-3.7,9.1c1.2,3.8,3.8,6.6,7,8.8c2,1.3,4.1,2.5,6.1,3.8"/>
	<path fill="#2D9782" d="M127.1,1803c0.7-2.8,1.6-5.5,2.2-8.3c0.8-3.4,0.8-6.8-0.6-10c-1.6-3.8-5.5-5.7-9.3-4.2
		c-3.9,1.5-5.9,3.7-5.3,8.3c0.5,4,2.5,7.2,5.3,10c1.7,1.7,3.6,3.3,5.2,4.9"/>
	<path fill="#2D9782" d="M143.2,1793.1c1.6-2.3,3.4-4.5,5.1-6.9c2-2.9,3.1-6,3-9.5c-0.2-4.1-3-7.3-7.1-7.3c-4.2-0.1-6.8,1.3-8,5.8
		c-1,3.9-0.3,7.6,1.3,11.2c1,2.2,2.2,4.3,3.1,6.5"/>
	<path fill="#2D9782" d="M144.6,1791c2.9,0,5.7-0.2,8.6-0.2c3.4,0,6.8,0.9,9.5,3c3.3,2.5,4.2,6.6,1.9,10.1c-2.3,3.4-4.9,4.8-9.3,3.1
		c-3.8-1.4-6.3-4.1-8.4-7.5c-1.2-2-2.3-4.2-3.5-6.3"/>
	<path fill="#E73267" d="M80.5,1801.9l-1-2.5l2.9-2l-0.2,2.8l1.5,0.4l-0.8,1.3l2,1.9l-3.5,0.5"/>
	<path fill="#B3DDD3" d="M151.4,1888.3l-0.2,0.1C151.2,1888.3,151.3,1888.3,151.4,1888.3z"/>
</g>
<g id="Layer_30">
	<path fill="#3E879F" d="M208.3,1976.1c0,0,0-0.2,0.2-0.6c0.2-0.5,0.3-0.7,0.3-0.7s-2.5,0-5.1-1.5c-1-0.6-1.1-0.9-1.1-0.9
		s0.2-0.8,1-1.5c0,0-1.5-0.3-2.8-1c-1.4-0.7-2.3-2-2.3-2s0.3-0.9,0.9-1.2c0.6-0.2-0.8,0.2-2.7-1.4c-2-1.6-2.6-3.3-2.6-3.3
		s0.2-0.8,0.9-1.3c0,0-1.3-0.3-2.8-2.2c-1.4-1.8-1.7-4.1-1.8-4.4c0.2-0.2,2.1-1.6,4.4-1.9c2.4-0.3,3.6,0.3,3.6,0.3
		c-0.1-0.9,0.3-1.6,0.3-1.6s1.6-0.8,4.2-0.5c2.5,0.2,3.2,1.5,2.9,0.9c-0.2-0.6,0.1-1.5,0.1-1.5s1.6-0.2,3.1,0.2
		c1.5,0.5,2.7,1.2,2.7,1.2c-0.1-1.1,0.3-1.8,0.3-1.8s0.3-0.1,1.4,0.1c2.9,0.8,4.7,2.4,4.7,2.4s0-0.3,0.2-0.8
		c0.2-0.5,0.3-0.6,0.3-0.6s0.2-0.2,1.6,0.6c1.4,0.8,3.6,3.4,3.6,3.4c0.5-0.9,0.6-1.8,1.6-1c3.1,2.4,5.8,5.6,7.8,9.1
		c0.9,1.6,1.7,3.3,2.3,4.9c0.3,0.9,0.7,1.9,1,3c-1.4-0.6-1.8-0.9-2.3-1c-5.2-2.1-8.6-2.6-12.1-2.7c2.6,2.4,5.4,4.4,10.6,6.5
		c0.5,0.2,0.9,0.3,2.3,0.9c-0.9,0.5-1.9,1-2.8,1.4c-1.6,0.8-3.3,1.5-5.1,2c-3.8,1.1-8,1.6-11.9,1.1c-1.2-0.1-0.6-0.9-0.4-1.8
		c0,0-3.4,0.3-4.9-0.1C208.2,1976.4,208.3,1976.1,208.3,1976.1"/>
</g>
<g id="Layer_31">
	<path fill="#3E879F" d="M709.8,1912.8c0,0,0.1-0.1,0.3-0.5c0.3-0.3,0.5-0.4,0.5-0.4s-2-0.9-3.5-3c-0.6-0.8-0.6-1.1-0.6-1.1
		s0.4-0.6,1.3-0.8c0,0-1-0.8-1.9-1.8c-0.8-1-1.2-2.4-1.2-2.4s0.5-0.6,1.1-0.6s-0.6-0.1-1.7-2c-1-2-0.9-3.6-0.9-3.6s0.5-0.6,1.2-0.8
		c0,0-0.9-0.7-1.4-2.7c-0.5-1.9,0.1-3.9,0.1-4.1c0.2-0.1,2.2-0.5,4.1,0c2,0.6,2.7,1.5,2.7,1.5c0.2-0.7,0.8-1.2,0.8-1.2
		s1.6-0.1,3.5,1c1.9,1,2,2.3,2,1.7c0-0.6,0.6-1.1,0.6-1.1s1.3,0.3,2.4,1.2c1,0.9,1.7,1.9,1.7,1.9c0.3-0.9,0.9-1.3,0.9-1.3
		s0.3,0,1,0.6c2,1.6,2.9,3.6,2.9,3.6s0.1-0.2,0.4-0.5c0.3-0.3,0.5-0.3,0.5-0.3s0.2-0.1,1,1s1.6,4,1.6,4c0.7-0.5,1.1-1.2,1.6-0.3
		c1.7,3,2.6,6.5,3,10c0.2,1.6,0.2,3.1,0.1,4.7c-0.1,0.8-0.1,1.8-0.2,2.7c-0.9-1-1.2-1.3-1.5-1.6c-3.4-3.5-5.9-5.1-8.7-6.4
		c1.2,2.9,2.7,5.4,6.1,8.9c0.3,0.3,0.6,0.6,1.6,1.5c-0.9,0.1-1.9,0.1-2.7,0.1c-1.6,0.1-3.1,0-4.7-0.2c-3.4-0.5-6.9-1.5-9.9-3.3
		c-0.9-0.5-0.2-0.9,0.3-1.6c0,0-2.8-0.9-3.9-1.7C709.7,1913,709.8,1912.8,709.8,1912.8"/>
</g>
<g id="Layer_28">
	<path fill="#4356A0" d="M841.8,1869.5c0,0,3.5,7.7,3.7,11.8s-4,3.6-4.2,8.7c-0.2,5.1-0.8,2.2-2.2,6.3c-1.9-3.3-2.1-0.6-3.2-5.8
		c-1.1-5-5.2-3.9-5.7-7.9c-0.5-4,1.7-12.2,1.7-12.2L841.8,1869.5z"/>
	<path d="M837.2,1870.5l-0.7,0.1l2.2,24.9l0.4,0.7l0.2-0.8"/>
	<path fill="#4356A0" d="M842.6,1861.3c0,0,8.4-0.9,12.3,0.1c3.9,1,2.2,4.9,6.9,6.8c4.8,1.8,1.9,1.5,5.2,4c-3.7,0.7-1.2,1.8-6.5,1.2
		c-5.1-0.5-5.3,3.8-9.3,3c-3.9-0.8-11.1-5.4-11.1-5.4L842.6,1861.3z"/>
	<path d="M842.3,1866l-0.2,0.7l24.3,5.8l0.8-0.2l-0.6-0.5"/>
	<path fill="#4356A0" d="M843.6,1862.8c0,0,6.5-5.5,8.4-9c1.9-3.5-2.1-5-0.1-9.7c2-4.7,0.3-2.3,0.8-6.6c-3.1,2.2-2.2-0.3-5.4,3.8
		c-3.1,4.1-6.4,1.2-8.5,4.7s-3.8,11.8-3.8,11.8L843.6,1862.8L843.6,1862.8z"/>
	<path d="M840,1859.9l-0.6-0.3l12.6-21.6l0.7-0.4l-0.1,0.8"/>
	<path fill="#4356A0" d="M837,1858.2c0,0-3.2-7.9-5.9-10.8s-5.4,0.5-9.3-3c-3.8-3.4-2.2-1-6-2.7c1.2,3.6-1,1.9,2,6.3
		c2.9,4.2-0.8,6.5,1.7,9.5c2.6,3.1,10,7.2,10,7.2L837,1858.2L837,1858.2z"/>
	<path d="M833,1860.8l-0.5,0.5l-16.5-18.8l-0.2-0.8l0.8,0.3"/>
	<path fill="#4356A0" d="M833.9,1871.4c0,0-6.3,5.7-10,7.2c-3.7,1.5-4.7-2.7-9.6-1.3c-4.9,1.4-2.4-0.1-6.6-0.1
		c2.6-2.8-0.1-2.2,4.5-4.8c4.4-2.6,2-6.2,5.7-7.9c3.7-1.7,12.1-2.3,12.1-2.3L833.9,1871.4L833.9,1871.4z"/>
	<path fill="#2D9681" d="M831.6,1862.7c0,0-8.8-5.3-17-2.6c-1,0.3-1.3,1.5-0.4,1.9c0.9,0.3,8.8,3.9,17.2,1.6
		C831.7,1863.1,831.6,1862.7,831.6,1862.7L831.6,1862.7z M836.1,1859c0,0,4-9.5,0.2-17.2c-0.5-0.9-1.7-1-1.9-0.1
		c-0.2,0.9-2.6,9.3,0.9,17.3C835.5,1859.2,836.1,1859,836.1,1859z M841.7,1863.3c0,0,10.3-0.2,15.8-6.8c0.6-0.8,0.3-2-0.6-1.8
		c-0.9,0.2-9.5,1.3-15.5,7.7C841.4,1862.9,841.7,1863.3,841.7,1863.3z M840.2,1869.2c0,0,9.7,3.7,12.6,11.8c0.3,1-0.4,2-1.2,1.5
		c-0.8-0.5-8.5-4.5-11.9-12.6C839.7,1869.5,840.2,1869.2,840.2,1869.2z M835.1,1870.7c0,0-2.3,10.1-9.9,14.1c-0.9,0.5-2-0.1-1.6-1
		c0.4-0.9,3.3-9.1,10.8-13.5C834.8,1870.3,835.1,1870.7,835.1,1870.7z"/>
	<path d="M831.5,1867.4l-0.3-0.6l-23,9.8l-0.5,0.6l0.8,0.1"/>
	<circle fill="#4356A0" cx="834.1" cy="1864.2" r="1"/>
	<circle fill="#4356A0" cx="835.5" cy="1867.3" r="1"/>
	<circle fill="#4356A0" cx="837.5" cy="1862.8" r="1"/>
	<circle fill="#4356A0" cx="838.8" cy="1865.9" r="1"/>
	<path fill="#EDEEE2" d="M839.1,1871.6c0.4-0.1,1-0.1,1.3-0.6c0.2-0.3,0.2-0.6,0.2-1.1c0-0.1-0.1-0.2-0.1-0.2c0.3,0.1,0.6,0.1,0.8,0
		c0.5-0.2,0.8-0.7,0.9-1.1c0.1-0.1,0.1-0.2,0.2-0.3c0.2,0.1,0.7-0.1,0.9-0.4c0.2-0.2,0.3-0.5,0.1-1c-0.1-0.1-0.1-0.2-0.2-0.3
		c0.8-0.5,0.6-1,0.6-1.3c-0.1-0.3-0.4-0.5-0.6-0.6v-0.3c0-0.3,0.1-0.7-0.1-1c-0.2-0.5-0.6-0.7-1.2-0.7h-0.1c0.4-0.5,0.5-0.9,0.3-1.3
		c-0.2-0.3-0.5-0.6-0.7-0.8c-0.1-0.1-0.2-0.2-0.2-0.2c0.1-0.2,0.1-0.5,0-0.9c-0.1-0.2-0.4-0.8-1.3-0.5c0-0.1-0.1-0.2-0.1-0.3
		c-0.2-0.5-0.6-0.6-0.8-0.6c-0.4,0-0.8,0.2-0.9,0.4c-0.1,0-0.2-0.1-0.3-0.1c-0.5-0.2-1.4-0.5-1.9,0.4l-0.1-0.1
		c-0.3-0.4-0.6-0.6-0.9-0.6c-0.5-0.1-1,0.3-1.3,0.5c-0.1,0.1-0.2,0.2-0.3,0.2c-0.2-0.2-0.7-0.2-1.1-0.1c-0.2,0.1-0.5,0.5-0.5,1.1
		c-0.5,0-0.8,0.2-0.9,0.5c-0.2,0.3-0.2,0.8-0.1,1c0.1,0.1,0.1,0.2,0.2,0.2c0,0.1-0.1,0.2-0.2,0.3c-0.2,0.3-0.6,0.9-0.3,1.5
		c0.1,0.2,0.2,0.3,0.3,0.4h-0.1c-0.5,0.1-0.8,0.3-1,0.6c-0.3,0.5-0.2,1-0.1,1.4c0,0.1,0.1,0.3,0.1,0.3c-0.2,0.1-0.3,0.3-0.4,0.5
		c-0.1,0.2-0.1,0.5,0,0.8c0.1,0.3,0.3,0.5,0.8,0.6c-0.2,0.3-0.2,0.7-0.1,0.9c0.1,0.3,0.3,0.4,0.5,0.5c0.2,0.1,0.5,0.1,0.7,0.1
		c0.1,0.1,0.1,0.2,0.2,0.3c0.2,0.3,0.5,0.8,1,0.9c0.3,0.1,0.7-0.1,1-0.3c0,0.1,0.1,0.3,0.1,0.3c0.2,0.6,0.9,0.7,1.3,0.8
		c0.1,0,0.3,0.1,0.3,0.1c0,0.1,0.1,0.2,0.1,0.3c0.1,0.3,0.4,0.6,0.8,0.6c0.2,0.1,0.6,0,1-0.4c0.5,0.5,0.9,0.5,1.1,0.4
		c0.4-0.1,0.7-0.6,0.7-0.8C838.9,1871.6,839,1871.6,839.1,1871.6L839.1,1871.6z M840.8,1863.1h0.1c-0.6,0.8-0.1,2.6,0,3
		c-0.3,0.3-1.7,1.9-1.3,2.9c-0.9-0.1-2.3,0.5-2.6,0.7c-0.3-0.2-2.3-1.4-3.1-0.7c0-0.1-0.1-0.1-0.1-0.2c-0.3-0.9-1.4-1.6-1.7-1.9
		c0.1-0.3,0.2-1.6-0.2-2.5c-0.1-0.1-0.1-0.2-0.2-0.3c0.2,0,0.3-0.1,0.5-0.2c0.8-0.6,1.2-2.2,1.2-2.6c0.3-0.1,1.6-0.6,2.2-1.3
		c0.6,0.9,2.5,0.9,2.9,0.9C838.9,1861.3,839.8,1862.9,840.8,1863.1L840.8,1863.1z"/>
</g>
<g id="Layer_27">
	<path fill="#2D9782" d="M870.4,1821.2c0.8,1.2,1.6,3.4,1.1,6.5c-0.9,5.1,1.2,10.4,1.2,10.4s-1,0.6-2.6-0.4
		c-0.3,11.4,4.3,11.6,3.2,12.6c-1.2,0.9-4.1,0.1-3.7,0.9c0.4,0.8,0.9,2.9,1.9,5.6c8.3,18.5,34,15.6,34,15.6s12-22.9-2.2-37.3
		c-2.2-1.9-3.9-3.1-4.5-3.7s-0.9,2.4-2.2,3.1c-1.3,0.7,0.2-3.7-10.5-7.5c0.4,1.9-0.6,2.6-0.6,2.6s-4.2-3.8-9.3-4.8
		C873,1823.9,871.3,1822.3,870.4,1821.2L870.4,1821.2z"/>
	<path d="M875.4,1827.7l18.9,27.7L886,1828c0.1-0.3,0-0.8-0.1-1.2c0.2,0.1,0.5,0.2,0.6,0.2l9.3,30.6l4.5,6.6l-2.4-32.3
		c0.2-0.6,0.5-1,0.7-0.8l0.1,0.1l2.6,34.3l4.2,6.2c-0.1,0.3-0.2,0.5-0.2,0.5s-0.2,0-0.5,0.1l-4.2-6.3l-31-14.9c0,0,0-0.1-0.1-0.1
		c-0.2-0.3,0.3-0.4,1-0.4l29.1,14l-4.5-6.6l-25.1-19.8v-0.7c0.4,0.3,0.8,0.4,1.2,0.5l22.4,17.6l-18.9-27.7"/>
</g>
<g id="Layer_26">
	<path fill="#3E879F" d="M881.5,1916.3c0,0-3.4-4.9-3.6-9v-0.1l0.3,0.2c0,0-0.5-2.5-0.4-3.3l0.3,0.3c0,0-0.2-2-0.1-2.6l0.5,0.2
		c0,0-0.2-2-0.1-2.4c0.3,0.3,0.5,0.2,0.5,0.2l0.6-2.3c0,0,0.1,0.2,0.2,0.3c0.1,0.1,0.6-2,0.6-2l0.2,0.6l1-2.7l0.3,0.7l1.4-3.2
		l0.4,0.5l0.9-1.7l0.3,0.6l1.5-2.5l0.6,0.7l1.7-2.1l0.2,1.1l1.3-2l0.6,1l1.4-1.7l0.1,0.7l1.6-1.5l0.2,0.8l1.8-1.6l0.1,0.8l1.4-1.2
		l0.2,0.5l1.3-1.5l-0.3,2l0.5-0.2l-0.1,1.9l0.6-0.5l-0.2,2.4l0.8-0.3l-0.2,2.2l0.6-0.3l-0.5,2.2l1.2-0.2l-0.7,2.3l0.9-0.6l-0.5,2.7
		l0.9,0.1l-1,2.7l0.6-0.2l-0.8,1.8h0.6l-1.6,3.1l0.8-0.2l-1.5,2.5l0.6-0.2c0,0-1.3,1.7-1.2,1.7c0.1,0,0.4-0.1,0.4-0.1l-1.5,1.9
		c0,0,0.1,0.2,0.5,0.2c-0.2,0.3-1.9,1.5-1.9,1.5l0.5,0.2c-0.4,0.3-2.1,1.5-2.1,1.5l0.5,0.1c-0.5,0.6-2.8,1.7-2.8,1.7l0.3,0.2
		c-0.1,0-0.1,0.1-0.1,0.1c-3.3,2.5-9.3,2.9-9.3,2.9L881.5,1916.3L881.5,1916.3z"/>
	<path d="M899.1,1882.2l-0.2,1.4l-16.1,33.3l-0.4-0.2l-0.3-0.2l16.1-33.3"/>
	<path fill="#80B9AA" d="M875.5,1918c0,0-5.9-1-8.9-3.9c-0.1,0-0.1-0.1-0.1-0.1l0.4-0.1c0,0-2.2-1.4-2.6-2h0.5c0,0-1.5-1.3-1.9-1.7
		l0.5-0.2c0,0-1.6-1.3-1.7-1.7c0.4,0.1,0.5-0.2,0.5-0.2l-1.2-2c0,0,0.3,0.1,0.4,0.1s-1-1.8-1-1.8l0.6,0.3l-1.2-2.6l0.7,0.3l-1.3-3.3
		l0.6,0.1l-0.6-1.9l0.6,0.2l-0.7-2.8l0.9,0.1l-0.2-2.7l0.9,0.6l-0.5-2.3l1.2,0.3l-0.2-2.3l0.6,0.4l0.1-2.2l0.7,0.5l0.1-2.4l0.6,0.5
		l0.1-1.9l0.5,0.2l-0.1-2l1.2,1.6l0.2-0.5l1.2,1.4l0.1-0.8l1.6,1.9l0.3-0.8l1.4,1.6l0.2-0.7l1.2,1.9l0.8-1l1.1,2.1l0.3-1l1.5,2.3
		l0.7-0.6l1.2,2.6l0.3-0.6l0.7,1.9l0.5-0.5l1,3.3l0.3-0.7l0.7,2.8l0.3-0.6c0,0,0.3,2.1,0.3,2c0.1-0.1,0.2-0.3,0.2-0.3l0.3,2.4
		c0,0,0.2,0.1,0.5-0.2c0.1,0.4-0.3,2.4-0.3,2.4l0.5-0.2c-0.1,0.5-0.4,2.5-0.4,2.5l0.3-0.3c0.1,0.8-0.8,3.2-0.8,3.2l0.4-0.1v0.1
		c-0.6,4.1-4.5,8.6-4.5,8.6L875.5,1918L875.5,1918z"/>
	<path d="M863.8,1881.5l0.9,1.2l12.2,34.9l-0.4,0.1l-0.4,0.1l-12.2-34.9"/>
	<path fill="#80B9AA" d="M885.2,1922.7c0,0,4.5,4,8.6,4.6h0.1l-0.1-0.4c0,0,2.4,0.9,3.2,0.8l-0.3-0.3c0,0,2,0.4,2.5,0.4l-0.2-0.5
		c0,0,2,0.4,2.4,0.3c-0.3-0.3-0.2-0.5-0.2-0.5l2.4-0.3c0,0-0.2-0.2-0.3-0.2c-0.1-0.1,2-0.3,2-0.3l-0.6-0.3l2.8-0.7l-0.6-0.4l3.4-1
		l-0.5-0.5l1.9-0.7l-0.6-0.3l2.6-1.2l-0.6-0.7l2.3-1.5l-1-0.3l2.1-1l-1-0.8l1.9-1.2l-0.7-0.2l1.6-1.4l-0.8-0.3l1.9-1.6l-0.8-0.1
		l1.4-1.2l-0.5-0.2l1.6-1.2l-2,0.1l0.2-0.5l-1.9-0.1l0.5-0.6l-2.4-0.1l0.5-0.7l-2.2-0.1l0.4-0.6l-2.3,0.2l0.3-1.2l-2.3,0.4l0.7-0.9
		l-2.7,0.2l0.1-0.9l-2.8,0.7l0.2-0.6l-1.9,0.6l0.1-0.6l-3.3,1.3l0.3-0.7l-2.6,1.2l0.3-0.6c0,0-1.8,1.1-1.8,1s0.1-0.4,0.1-0.4l-2,1.2
		c0,0-0.2-0.1-0.2-0.5c-0.3,0.2-1.7,1.7-1.7,1.7l-0.2-0.5c-0.4,0.3-1.7,1.9-1.7,1.9v-0.5c-0.6,0.4-2,2.6-2,2.6l-0.1-0.4
		c0,0.1-0.1,0.1-0.1,0.1c-2.9,3-4,8.8-4,8.8L885.2,1922.7L885.2,1922.7z"/>
	<path d="M921.2,1909.5l-1.4,0.1l-35,11.9l0.1,0.3l0.1,0.4l35-11.9"/>
	<path fill="#E73267" d="M885,1937.4c-2.4-2.3-4.4-7.2-4.9-10.4c-1.7-11.6,8.4-10.9,8.4-10.9h0.2c0,0,10.2,0.3,7.4,11.7
		c-0.8,3.1-3.2,7.8-5.9,9.9L885,1937.4z"/>
	<path fill="#E73267" d="M887.6,1937.2l-2.7-0.1l-1,3.4l2.6-1l0.9,1.2l1-1.2l2.4,1.3l-0.6-3.5 M864.6,1927.4c3.3,0.5,8.4-1,11.2-2.6
		c10.2-5.8,3.4-13.4,3.4-13.4l-0.1-0.1c0,0-6.5-7.9-13.7,1.4c-1.9,2.6-4.1,7.3-4.2,10.7L864.6,1927.4L864.6,1927.4z"/>
	<path fill="#E73267" d="M863.2,1925.3l1.7,2l-2,2.9l-0.8-2.7l-1.5,0.1l0.3-1.5l-2.6-1.1l3.1-1.6"/>
</g>
<g id="Layer_25">
	<path fill="#447E65" d="M912.9,1941.9l1.1,0.3l-1.1,4.1c0,0,0.2,2.2,1.9,3.1c1.6,1,0.5,1.6,0.1,1.3c-0.3-0.2,0.9,2.8,1.6,3
		c0.8,0.2,2,1.7,1.3,2.7c-0.7,1,0.2,1.2,1,2c0.9,0.8,2.3,1.2,1.2,3.3c0.9,0.5,2.4,1.5,2.6,3.9s0.1,7.1-1,7.8
		c-1.2,0.8-1.3,2.7-1.2,2.7c0.2,0,0.5,0.8-0.8,2.1c-1.2,1.3-10.1,14.6-23.5,24.5c-6.3-15.4-7.2-31.4-7.6-33.1s0.3-2.3,0.5-2.2
		c0.1,0.1,1-1.6,0.3-2.9c-0.6-1.2,1.7-5.2,3.1-7.2c1.4-2,3.1-2,4.2-2c0.1-2.3,1.6-1.9,2.7-2.2c1.1-0.2,2,0.1,1.9-1.2
		c-0.1-1.2,1.7-1.9,2.5-1.6c0.8,0.2,3.3-1.7,2.9-1.7s-1.1-1.1,0.8-1.1c1.9,0,3.2-1.7,3.2-1.7l1.2-4.1L912.9,1941.9"/>
	<path d="M916.2,1969.2l-0.4,0.3l-7.3-10.5l-2.2,8l7.6,10.9l-0.4,0.3l-7.3-10.5l-2.2,8l7.6,10.9l-0.4,0.3l-7.3-10.5l-7.2,26.1
		c-0.1,0.1-0.2,0.2-0.3,0.2c-0.1-0.1-0.1-0.2-0.2-0.4l7.3-26.2l-11.8,5.3l-0.2-0.5l12.2-5.5l2.2-8l-11.8,5.3l-0.2-0.5l12.2-5.5
		l2.2-8l-11.8,5.3l-0.2-0.5l12.2-5.5l4.5-16.2l0.2,0.1l0.2,0.1l-4.5,16.4L916.2,1969.2L916.2,1969.2z"/>
</g>
<g id="Layer_24">
	<path fill="#80B9AA" d="M939.5,1879.5c0.7,1.2,1.5,3.4,0.9,6.5c-1,5,0.8,10.3,0.8,10.3s-1,0.6-2.6-0.5c-0.6,11.2,3.9,11.6,2.8,12.5
		c-1.2,0.9-4-0.1-3.7,0.8c0.3,0.8,0.8,2.9,1.6,5.6c7.6,18.5,33.1,16.5,33.1,16.5s12.5-22.3-1-37c-2.1-2-3.8-3.1-4.4-3.8
		c-0.6-0.6-0.9,2.3-2.3,3c-1.3,0.6,0.3-3.7-10.2-7.8c0.3,1.9-0.6,2.5-0.6,2.5s-4-3.8-9-5.1C942,1882.3,940.3,1880.6,939.5,1879.5z"
		/>
	<path d="M944.2,1886.1l17.9,27.9l-7.4-27.2c0.1-0.3,0.1-0.7-0.1-1.2c0.2,0.1,0.4,0.2,0.6,0.3l8.3,30.5l4.2,6.6l-1.5-32
		c0.3-0.6,0.5-1,0.8-0.7l0.1,0.1l1.5,34l4,6.3c-0.1,0.3-0.2,0.4-0.2,0.4H972l-4-6.3l-30.2-15.7v-0.1c-0.2-0.3,0.3-0.4,1-0.3
		l28.4,14.7l-4.2-6.6l-24.2-20.3c0-0.2,0-0.5,0.1-0.7c0.4,0.3,0.8,0.5,1.1,0.5l21.6,18.1l-17.9-28"/>
	<path fill="#80B9AA" d="M917.5,1936.8c1.3,0.6,3.2,1.9,4.5,4.7c2.2,4.6,6.8,7.8,6.8,7.8s-0.4,1.1-2.3,1.2c6.1,9.4,10,7,9.7,8.4
		c-0.4,1.4-3.3,2.3-2.5,2.8s2.3,1.8,4.6,3.5c17.1,10.4,36.4-6.3,36.4-6.3s-3.1-25.4-22.7-29.2c-2.9-0.3-4.9-0.3-5.8-0.5
		c-0.9-0.2,0.6,2.4-0.1,3.8c-0.6,1.3-1.9-3.1-12.8-0.2c1.4,1.3,0.9,2.4,0.9,2.4s-5.5-0.7-10.2,1.2
		C921.1,1937.6,918.8,1937.2,917.5,1936.8z"/>
	<path d="M925.1,1939.3l30.9,11.9l-22.1-17.6c-0.2-0.3-0.4-0.6-0.8-0.9l0.7-0.2l24.7,19.7l7.3,2.9l-20.1-24.9
		c-0.1-0.6-0.2-1.1,0.2-1h0.1l21.4,26.5l7,2.7c0.1,0.3,0.1,0.5,0.1,0.5s-0.1,0.1-0.3,0.3l-7-2.7l-33.6,5.2c0,0-0.1,0-0.1-0.1
		c-0.3-0.2,0.1-0.5,0.6-0.9l31.6-4.9l-7.3-2.9l-31.6-2c-0.1-0.2-0.2-0.3-0.3-0.6c0.5,0,0.9-0.1,1.2-0.2l28.1,1.8l-31-12"/>
	<path fill="#80B9AA" d="M1000.8,1883.6c0,1.4,0.3,3.7,2.3,6.1c3.3,3.9,4.2,9.4,4.2,9.4s1.2,0.1,2-1.6c6,9.5,2.2,12.1,3.6,12.3
		c1.5,0.2,3.5-2,3.6-1.1c0.1,0.9,0.7,2.9,1.2,5.6c2.2,19.9-21.1,30.4-21.1,30.4s-21.7-13.5-16.9-32.9c0.9-2.7,1.7-4.6,2-5.5
		c0.2-0.9,2,1.6,3.4,1.6c1.5-0.1-2-3.1,5.2-11.7c0.6,1.8,1.8,1.9,1.8,1.9s1.7-5.4,5.4-8.8C1000,1887.2,1000.6,1885,1000.8,1883.6
		L1000.8,1883.6z"/>
	<path d="M999.9,1891.6l-2.2,33.1l-6.7-27.4c-0.2-0.2-0.4-0.6-0.5-1c-0.2,0.2-0.3,0.3-0.5,0.5l7.5,30.7l-0.5,7.9l-14.1-28.7
		c-0.5-0.4-0.9-0.6-1-0.3v0.1l15.1,30.5l-0.5,7.5c0.2,0.2,0.4,0.3,0.4,0.3s0.2-0.1,0.4-0.2l0.5-7.5l18.9-28.3v-0.1
		c-0.1-0.4-0.5-0.2-1,0.2l-17.8,26.5l0.5-7.9l11.4-29.5c-0.1-0.2-0.2-0.3-0.3-0.6c-0.2,0.5-0.5,0.8-0.7,1l-10.2,26.3l2.2-33.1"/>
	<path fill="none" stroke="#000000" stroke-width="1.43" stroke-miterlimit="10" d="M971.9,1930.1l22.8,35.7 M996.9,1944.2
		c0,0-1.5,16.7-7.6,13.1 M974.1,1958.7c0,0,15.8,5.6,15.1-1.5"/>
</g>
<g id="Layer_23">
	<path fill="#3E879F" d="M928,1836.6c1.8-2.7,4.4-3.4,7.7-2.3c2.6,0.9,4.7,3.7,4.6,6.4c-0.2,3.8-2.1,6.8-4.9,9.1
		c-1.8,1.5-3.8,2.7-5.7,4h-0.1c0.1,0,0.1,0.1,0.1,0c6.1,0.4,12,0.3,17.5-0.2c-0.4-2.9-0.6-5.8-0.8-8.7c-0.2-3,0.8-5.8,2.4-8.3
		c1.7-2.7,4.3-3.5,7.7-2.4c2.6,0.8,4.8,3.6,4.8,6.3c-0.1,3.8-1.9,6.8-4.7,9.1c-1.5,1.2-3,2.3-4.6,3.4c5.3-0.8,10.3-2.1,15-3.8
		c0.1-0.1,0.2-0.1,0.3-0.1c-0.6-2.8-1.1-5.7-1.5-8.6c-0.4-3,0.3-5.9,1.7-8.5c1.5-2.9,4-3.8,7.5-3.1c2.7,0.6,5.1,3.2,5.3,5.9
		c0.2,3.8-1.3,6.9-3.9,9.5c-0.5,0.5-0.9,0.9-1.5,1.4c4.4-2.3,8.6-5.2,12.2-8.5h-0.1c-1.8-2.3-3.4-4.8-5.1-7.2
		c-1.6-2.6-2.2-5.4-2.1-8.4c0.2-3.3,2-5.2,5.5-5.9c2.7-0.6,6,0.8,7.3,3.1c1.8,3.3,1.7,6.9,0.5,10.3c-0.5,1.3-1,2.6-1.6,3.9
		c0.2-0.2,0.3-0.3,0.5-0.6c3.3-3.7,5.9-7.6,8-11.1c-1.5-1.1-3.1-2.1-4.7-3.2c-2.8-2.1-5-4.6-5.9-8.1c-1-4,0.3-6.2,3.6-8
		c3.2-1.7,6.8-0.5,8.7,2.6c1.6,2.6,2.1,5.6,1.8,8.7c-0.1,0.3-0.1,0.6-0.1,0.9c2.2-5.2,3-8.9,3-9l2.2,0.4c-0.1,0.4-1.3,6.8-5.6,14.8
		c1.4-0.9,2.8-1.7,4.2-2.5c2.7-1.5,5.6-2.3,8.7-1.9c3.6,0.5,6.2,3.3,5.9,6.9c-0.3,3.7-1.7,5.9-5.8,6.5c-3.6,0.6-6.8-0.4-9.8-2.2
		c-1.8-1-3.5-2.2-5.3-3.2c-1.9,3.1-4.2,6.3-7.1,9.5c-0.3,0.3-0.7,0.8-1,1.1c1.7-0.3,3.5-0.6,5.2-0.9c3-0.4,6.1-0.1,8.7,1.4
		c3.2,1.8,4.5,5.3,3,8.6c-1.6,3.3-3.7,4.9-7.8,4c-3.5-0.8-6.2-2.9-8.3-5.5c-1.3-1.6-2.4-3.2-3.7-4.8c-3.2,3-6.6,5.6-10.4,7.9
		c1.6,0,3.3,0.1,4.9,0.1c3.1,0.2,5.9,1,8.3,3c2.8,2.3,3.5,6.1,1.3,9c-2.2,3-4.6,4.1-8.4,2.4c-3.3-1.4-5.5-4-7.2-7
		c-1-1.8-1.8-3.7-2.7-5.5c-2.6,1.3-5.2,2.6-8,3.6c-0.9,0.3-1.7,0.6-2.7,0.9c1.6,0.6,3.3,1.2,4.9,1.9c2.9,1.2,5.2,3,6.8,5.7
		c1.9,3.1,1.2,6.9-1.9,8.9c-3.1,2-5.7,2.3-8.7-0.5c-2.6-2.4-3.8-5.6-4.4-9c-0.3-1.9-0.4-3.8-0.7-5.8c-2.8,0.8-5.6,1.3-8.6,1.8
		c1.4,1.2,2.8,2.4,4.1,3.7c2.2,2.2,3.8,4.7,4.3,7.7c0.6,3.6-1.3,6.9-4.9,7.6s-6.1,0.1-8-3.7c-1.6-3.2-1.6-6.6-0.8-10
		c0.3-1.6,0.9-3.3,1.3-4.9c-4.7,0.5-9.5,0.7-14.5,0.6c-0.1-0.1-0.1,0-0.2,0h0.2c1.6,1.2,3.2,2.4,4.7,3.7c2.4,2,4.1,4.4,4.9,7.4
		c0.8,3.6-0.8,7-4.4,8s-6.1,0.5-8.2-3.1c-1.8-3.1-2-6.3-1.6-9.8c0.3-2.1,0.8-4.4,1.1-6.2v-0.2c-2.4-0.1-4.9-0.3-7.5-0.6l0.2-2.3
		c0.8,0.1,1.7,0.2,2.5,0.2v0.2l0.2-0.2h-0.2c-0.3-2.9-0.5-5.7-0.6-8.6C925.4,1841.9,926.4,1839.1,928,1836.6L928,1836.6z"/>
</g>
<g id="Layer_22">
	<path fill="#EDEEE2" d="M672.3,1932.9c0,0-12.4,1.5-16.4,8.3c-4,6.8,16.3-6.6,16.9-7.2C672.8,1933.4,672.3,1932.9,672.3,1932.9
		L672.3,1932.9z"/>
	<path fill="#EDEEE2" d="M672.5,1930.8v0.9c0,0-15,3.4-18.9-2.5c-0.4-0.7,0.7-1.5,3.5-1.3C664.2,1928.6,669.8,1929.4,672.5,1930.8z"
		/>
	<path fill="#EDEEE2" d="M681.4,1938.2l0.9-0.2c0,0,7.2,13.5,2.6,18.9c-0.6,0.6-1.6-0.3-2.2-3
		C681.3,1946.8,680.7,1941.1,681.4,1938.2L681.4,1938.2z"/>
	<path fill="#EDEEE2" d="M673.2,1934.7c0,0-19.2,7.2-17.8,10.4c1.3,3.2,15.9-6.2,17.8-9.8V1934.7z"/>
	<path fill="#EDEEE2" d="M675,1937c0,0-0.1-0.7-1.1-0.4c-1,0.3-14,9.2-14,12.7C659.8,1952.8,673.2,1944.3,675,1937L675,1937z"/>
	<path fill="#EDEEE2" d="M672.5,1930.1c0,0-12.6-0.9-15.1-6c-0.3-0.9,2.4-2.4,6.5,0s9.1,5,9.1,5L672.5,1930.1L672.5,1930.1z"/>
	<path fill="#EDEEE2" d="M674.1,1927l-0.3,0.5c0,0-17.6-5.8-17.6-9.1c0.4-0.5,1.2-0.7,1.2-0.7S667.6,1918.7,674.1,1927z"/>
	<path fill="#EDEEE2" d="M686.1,1933.4l0.2-0.6c0,0,18.6-0.3,19.7,3c-0.2,0.6-0.9,1-0.9,1S694.9,1939.2,686.1,1933.4L686.1,1933.4z"
		/>
	<path fill="#EDEEE2" d="M676.1,1925.4c0,0-0.6,0.8-1,0.5c-0.5-0.3-13.5-9.8-13-14.9c0.2-1.2,2.1-1,3,0
		C666,1912,675.7,1920.5,676.1,1925.4L676.1,1925.4z"/>
	<path fill="#EDEEE2" d="M676.6,1925h1c0,0,0.5-9-6.2-16.2c-0.7-0.8-1.9-2-2.7-1.6C667.6,1907.7,667.9,1911.7,676.6,1925z"/>
	<path fill="#EDEEE2" d="M679.8,1924.7c0,0,3.5-10.2-1-17.9c-0.6-0.9-1.9-1-2,0c-0.1,1-2,9.8,2.2,17.9
		C679.3,1924.9,679.8,1924.7,679.8,1924.7L679.8,1924.7z"/>
	<path fill="#EDEEE2" d="M681,1925h0.9c0,0,11.1-13.6,7.5-18.6C688.8,1905.4,681.2,1916.2,681,1925z"/>
	<path fill="#EDEEE2" d="M677.5,1938c0,0-8.4,15.8-6,18.5c0,0,1.2,2.2,3.5-2.2c2.3-4.3,4.5-13.4,3.7-15.6
		C678.1,1937.6,677.5,1938,677.5,1938z"/>
	<path fill="#EDEEE2" d="M685.6,1927.5c0,0,13-10.4,14.9-10.4c0.7,0.1,0.6,0.5,0.6,0.5s0.6-0.3,0,0.9c-0.6,1.3-5.5,9.1-15,10.1
		C685.9,1928.3,685.2,1928.3,685.6,1927.5L685.6,1927.5z"/>
	<path fill="#EDEEE2" d="M682.7,1924.9c0,0,7.9-14.7,9.6-15.4c0.7-0.2,0.8,0.2,0.8,0.2s0.4-0.5,0.3,0.9c0,1.4-1.5,10.5-9.7,15.2
		C683.2,1925.5,682.6,1925.8,682.7,1924.9L682.7,1924.9z"/>
	<path fill="#EDEEE2" d="M686.5,1930.7c0,0,11.2-2.6,18.6-1.4c1.3,0.5,0,1.9,0,1.9s-8.3,3.6-18.6,0.4
		C686.6,1931.2,686.5,1930.7,686.5,1930.7L686.5,1930.7z"/>
	<path fill="#EDEEE2" d="M686.3,1930.1c0,0,11.5,0.1,18.4-2.7c1.2-0.8-0.4-1.8-0.4-1.8s-8.8-1.6-18.2,3.7
		C686.2,1929.5,686.3,1930.1,686.3,1930.1L686.3,1930.1z"/>
	<path fill="#EDEEE2" d="M685.6,1934.4c0,0,4.5-0.2,10.5,3.5c6,3.7,9.5,7.5,3.8,6.2c-5.8-1.3-14.6-8.4-14.4-9.1L685.6,1934.4
		L685.6,1934.4z"/>
	<path fill="#EDEEE2" d="M677.1,1937.3c0,0,0.1,4.5-3.7,10.4c-3.8,5.9-7.7,9.4-6.3,3.7c1.4-5.7,8.7-14.4,9.4-14.3L677.1,1937.3
		L677.1,1937.3z"/>
	<path fill="#EDEEE2" d="M685.2,1935.9c0,0,14.3,10.5,11.1,16.6c-0.6,1-1.9,0.2-5.6-5.3c-3.7-5.6-6.3-10.6-6.3-10.6
		S684.2,1935.9,685.2,1935.9L685.2,1935.9z"/>
	<path fill="#EDEEE2" d="M680.2,1938.3c0,0-1.7,2.2-1.5,9.5c0.2,7.4-0.3,10.1,2.4,10.1c0.7-0.3,3.5-4.3,0.3-19
		C681.4,1939,681.1,1938,680.2,1938.3L680.2,1938.3z"/>
	<path fill="#EDEEE2" d="M682.4,1938.3c0,0,4.2,14.6,8.4,15.3c1.5-0.1,1.4-0.9,0.9-2c-0.5-1.1-6-13.1-8.3-14
		C682.9,1937.3,682.3,1938,682.4,1938.3L682.4,1938.3z"/>
	<path fill="#EDEEE2" d="M685.1,1928c0,0,16-12.7,13.7-15.4c-2.3-2.6-13.2,10.8-13.9,14.8L685.1,1928z"/>
	<path fill="#E2B522" d="M686.8,1932c0.3,0,0.6-0.1,0.6-0.3c0-0.1-0.1-0.2-0.3-0.2c0.1-0.1,0.2-0.1,0.2-0.2c0-0.2-0.1-0.3-0.3-0.3
		c0.2-0.1,0.3-0.2,0.2-0.3c0-0.1-0.1-0.2-0.3-0.2c0.2-0.1,0.4-0.2,0.3-0.3c-0.1-0.2-0.3-0.2-0.6-0.2c0,0,0,0,0,0c0,0,0,0,0-0.1
		c0,0,0,0,0,0c0.3-0.1,0.5-0.3,0.5-0.4c0-0.1-0.3-0.1-0.5-0.1c0.2-0.1,0.4-0.2,0.3-0.4c0-0.1-0.2-0.1-0.4-0.1
		c0.2-0.1,0.2-0.3,0.2-0.4c0-0.1-0.2-0.1-0.4-0.1c0.1-0.1,0.2-0.3,0.2-0.4c-0.1-0.2-0.4-0.2-0.7,0c0,0,0,0,0,0
		c0.3-0.2,0.4-0.4,0.3-0.6c-0.1-0.1-0.1-0.1-0.2-0.1c0,0-0.1,0-0.2,0.1c0.1-0.2,0.2-0.3,0.1-0.4c-0.1-0.1-0.2-0.1-0.4,0
		c0.1-0.2,0.1-0.3,0.1-0.4c-0.1-0.1-0.2-0.1-0.3-0.1c-0.1,0-0.1,0.1-0.2,0.1c0.1-0.2,0.2-0.4,0.1-0.5c-0.2-0.1-0.5,0-0.6,0.2
		c0,0,0,0,0,0c0,0,0,0,0,0c0.1-0.1,0.1-0.2,0.2-0.3c0-0.1,0-0.2-0.1-0.3c-0.1-0.1-0.2,0-0.4,0.1c0.1-0.2,0.1-0.3,0-0.4
		c-0.2-0.1-0.4,0-0.6,0.3c0,0,0,0,0,0c0.2-0.3,0.2-0.5,0-0.6c-0.1-0.1-0.2,0-0.4,0.1c0-0.2,0-0.3-0.1-0.4c-0.1-0.1-0.3,0-0.5,0.3
		c0,0,0,0,0,0c0.1-0.3,0.1-0.5-0.1-0.6c-0.1-0.1-0.2,0-0.4,0.2c0-0.2,0-0.4-0.1-0.4c-0.1,0-0.3,0.1-0.4,0.3c0-0.2,0-0.4-0.2-0.4
		c-0.1-0.1-0.2,0-0.3,0.1c0-0.2-0.1-0.3-0.2-0.3c-0.2,0-0.4,0.2-0.4,0.5c0,0,0,0,0,0c0-0.3-0.1-0.6-0.2-0.6c-0.1,0-0.3,0.2-0.3,0.4
		c0-0.2-0.1-0.4-0.3-0.4c-0.1,0-0.2,0.1-0.3,0.3c0-0.2-0.1-0.3-0.3-0.3c-0.2,0-0.3,0.1-0.3,0.3c-0.1-0.2-0.2-0.3-0.3-0.3
		c-0.2,0-0.3,0.3-0.2,0.6c0,0,0,0,0,0c-0.1-0.3-0.2-0.5-0.4-0.5c-0.1,0-0.2,0.2-0.2,0.4c-0.1-0.2-0.2-0.3-0.3-0.3
		c-0.2,0.1-0.2,0.3-0.1,0.6c0,0,0,0,0,0c-0.1-0.3-0.3-0.5-0.5-0.4c-0.1,0-0.1,0.2-0.1,0.4c-0.1-0.2-0.3-0.3-0.4-0.2
		c-0.1,0.1-0.1,0.3,0,0.6c0,0,0,0,0,0c-0.1-0.3-0.3-0.4-0.5-0.4c-0.1,0.1-0.1,0.3-0.1,0.4c-0.1-0.2-0.3-0.2-0.4-0.2
		c-0.1,0.1-0.1,0.3,0,0.4c-0.2-0.1-0.3-0.2-0.4-0.1c-0.1,0-0.1,0.2,0,0.4c-0.2-0.1-0.3-0.2-0.4-0.1c-0.1,0.1-0.1,0.2-0.1,0.3
		c0.1,0.1,0.1,0.2,0.2,0.3c0,0,0,0,0,0c-0.2-0.2-0.5-0.3-0.6-0.2c-0.1,0.1,0,0.3,0.1,0.5c0,0-0.1-0.1-0.1-0.1c-0.1,0-0.2,0-0.3,0.1
		c-0.1,0.1,0,0.2,0.1,0.4c-0.2-0.1-0.3-0.1-0.4,0c-0.1,0.2,0,0.4,0.3,0.6c0,0,0,0,0,0c-0.1-0.1-0.3-0.2-0.4-0.2
		c-0.1,0-0.2,0-0.2,0.1c-0.1,0.1,0,0.3,0.3,0.5c-0.2-0.1-0.4-0.1-0.5,0.1c-0.1,0.1,0,0.3,0.2,0.4c-0.2-0.1-0.5,0-0.5,0.1
		c0,0.1,0,0.2,0.2,0.4c-0.2,0-0.4,0-0.4,0.1c0,0.1,0.1,0.3,0.3,0.4c-0.2,0-0.4,0-0.4,0.2c-0.1,0.1,0.1,0.3,0.4,0.4c0,0,0,0,0,0
		c-0.3,0-0.5,0-0.6,0.2c0,0.1,0.1,0.3,0.3,0.3c-0.2,0-0.4,0.1-0.4,0.2c0,0.1,0.2,0.2,0.4,0.3c-0.2,0-0.4,0.1-0.4,0.3
		c0,0.1,0.1,0.2,0.3,0.2c-0.2,0-0.3,0.1-0.3,0.2c0,0.2,0.3,0.3,0.6,0.3c0,0,0,0,0,0c-0.3,0-0.5,0.2-0.5,0.3c0,0.1,0.2,0.2,0.4,0.2
		c-0.2,0.1-0.3,0.2-0.3,0.3c0.1,0.2,0.3,0.2,0.6,0.2c-0.3,0.1-0.5,0.2-0.4,0.4c0,0.1,0.3,0.1,0.5,0.1c-0.2,0.1-0.4,0.2-0.3,0.4
		c0,0.1,0.2,0.2,0.4,0.1c-0.2,0.1-0.2,0.3-0.2,0.4c0,0.1,0.2,0.2,0.3,0.2c-0.1,0.1-0.2,0.3-0.2,0.4c0.1,0.1,0.3,0.2,0.5,0.1
		c-0.2,0.1-0.2,0.3-0.1,0.4c0.1,0.1,0.2,0.1,0.4,0c-0.1,0.2-0.2,0.3-0.1,0.4c0.1,0.1,0.4,0.1,0.6-0.1c0,0,0,0,0,0c0,0,0,0,0,0
		c0,0,0,0,0,0c-0.2,0.2-0.3,0.5-0.2,0.6c0.1,0.1,0.2,0.1,0.4,0c-0.1,0.2-0.1,0.3-0.1,0.4c0.1,0.1,0.3,0.1,0.5,0
		c-0.1,0.2-0.1,0.3,0,0.4c0.1,0.1,0.3,0.1,0.4,0c-0.1,0.2-0.1,0.4,0,0.4c0.2,0.1,0.4-0.1,0.6-0.3c0,0,0,0,0,0c0,0,0,0,0,0
		c-0.2,0.3-0.2,0.6,0,0.6c0.1,0,0.2,0,0.4-0.1c0,0.2,0,0.3,0.1,0.4c0.1,0.1,0.2,0,0.3-0.1c0,0.2,0,0.3,0.1,0.3
		c0.1,0.1,0.3,0,0.4-0.2c0,0.2,0,0.4,0.1,0.4c0.2,0.1,0.4-0.1,0.5-0.4c0,0,0,0,0.1,0c-0.1,0.3,0,0.5,0.1,0.6c0.1,0,0.2-0.1,0.3-0.2
		c0,0.2,0.1,0.4,0.2,0.4c0.1,0,0.2-0.1,0.3-0.3c0,0.2,0.1,0.3,0.2,0.3c0.1,0,0.3-0.1,0.3-0.3c0,0.2,0.1,0.4,0.3,0.4
		c0.2,0,0.3-0.3,0.3-0.6c0,0,0,0,0,0c0,0.3,0.1,0.5,0.3,0.5c0.2,0,0.3-0.1,0.3-0.3c0.1,0.2,0.2,0.3,0.3,0.2c0.1,0,0.2-0.1,0.2-0.3
		c0.1,0.2,0.2,0.4,0.3,0.3c0.1,0,0.2-0.2,0.2-0.4c0.1,0.2,0.2,0.3,0.3,0.3c0.2-0.1,0.2-0.3,0.1-0.7c0,0,0,0,0.1,0
		c0.1,0.3,0.3,0.5,0.5,0.5c0.1,0,0.1-0.2,0.1-0.4c0.1,0.1,0.2,0.2,0.4,0.1c0.1,0,0.2-0.2,0.1-0.4c0.1,0.2,0.3,0.2,0.4,0.2
		c0.1-0.1,0.1-0.2,0.1-0.4c0.1,0.1,0.3,0.2,0.4,0.1c0.1-0.1,0.1-0.4-0.1-0.6c0.2,0.3,0.5,0.4,0.6,0.3c0.1-0.1,0.1-0.3,0-0.4
		c0.2,0.1,0.3,0.2,0.4,0.1c0.1-0.1,0.1-0.3-0.1-0.5c0.2,0.1,0.3,0.2,0.5,0.1c0.1-0.1,0-0.2-0.1-0.4c0.2,0.1,0.3,0.1,0.4,0
		c0.1-0.1,0-0.4-0.2-0.6c0,0,0,0,0,0c0,0,0,0,0,0c0,0,0,0,0,0c0.2,0.2,0.5,0.2,0.6,0.1c0.1-0.2,0-0.4-0.3-0.6c0,0,0,0,0,0
		c0,0,0,0,0,0c0,0,0,0,0,0c0.3,0.2,0.6,0.2,0.6,0.1c0-0.1,0-0.2-0.2-0.4c0.2,0.1,0.4,0,0.4-0.1c0.1-0.1,0-0.2-0.1-0.3
		c0.2,0,0.3,0,0.3-0.1c0.1-0.2-0.1-0.5-0.4-0.6c0,0,0,0,0,0c0,0,0,0,0,0c0.3,0.1,0.6,0.1,0.6-0.1c0-0.1-0.1-0.3-0.3-0.4
		c0.2,0,0.4,0,0.4-0.2c0-0.1-0.1-0.2-0.3-0.3c0.2,0,0.3-0.1,0.4-0.2c0-0.1-0.1-0.3-0.3-0.3c0.2,0,0.4-0.1,0.4-0.2
		C687.3,1932.3,687.1,1932.1,686.8,1932C686.8,1932.1,686.8,1932,686.8,1932C686.8,1932,686.8,1932,686.8,1932z"/>
	<polygon fill="#E2B522" points="683.7,1937.5 683.7,1937.5 683.6,1937.5 	"/>
</g>
<g id="Layer_21" class="garland-leaf">
	<path fill="#80B9AA" d="M769.4,1899.6l1.6-2c-0.2-0.2-20.9-15.9-48.7-24.4c-16.4-5-32.1-6.6-46.5-4.8
		c-18.2,2.3-34.5,10.2-48.4,23.3c-13.6,12.7-27.8,21.3-42,25.4c-11.4,3.3-22.8,3.8-33.9,1.6c-19.1-3.8-31.1-14.7-31.3-14.8l-1.7,1.9
		c0.5,0.5,12.6,11.4,32.4,15.4c11.6,2.4,23.5,1.9,35.2-1.6c14.6-4.2,29.1-13,43.1-26.1c13.6-12.7,29.4-20.3,47-22.6
		c14.1-1.8,29.4-0.3,45.4,4.7C748.9,1884,769.2,1899.4,769.4,1899.6L769.4,1899.6z"/>
	<path fill="#80B9AA" d="M641.7,1880.8c-1.2-3-2.7-6-4.2-9c-1.6-3-4-5.2-7-6.8c-3.3-1.7-6.1-1-8.8,2c-2.1,2.3-2.6,6.2-1,8.8
		c2.2,3.6,5.7,5.5,9.8,6.2c3.1,0.5,6.2,0.7,9.4,0.9"/>
	<path fill="#80B9AA" d="M625.3,1893.8c-1.6-2.9-3.5-5.6-5.4-8.3c-1.9-2.8-4.7-4.7-7.9-5.8c-3.4-1.2-6.2-0.1-8.6,3.1
		c-1.8,2.6-1.8,6.5,0.1,8.8c2.7,3.3,6.4,4.7,10.5,4.9c3.1,0.1,6.3-0.1,9.4-0.3"/>
	<path fill="#80B9AA" d="M635.8,1886c-0.5,2.8-1.2,5.6-1.6,8.4c-0.6,3.4-0.3,6.8,1.3,9.9c1.9,3.7,5.8,5.3,9.6,3.6
		c3.8-1.7,5.6-4.1,4.7-8.6c-0.8-4-3-7-6-9.5c-1.8-1.6-3.8-3-5.6-4.5"/>
	<path fill="#80B9AA" d="M620.1,1899.8c-0.7,2.8-1.6,5.5-2.3,8.3c-0.8,3.4-0.8,6.8,0.6,10c1.6,3.8,5.4,5.7,9.3,4.3
		c3.9-1.5,5.9-3.6,5.4-8.3c-0.5-4-2.5-7.2-5.2-10c-1.7-1.7-3.6-3.3-5.2-4.9"/>
	<path fill="#80B9AA" d="M674.2,1869.1c0.6-3.3,0.9-6.5,1.2-9.8c0.3-3.4-0.7-6.6-2.4-9.4c-1.9-3.1-4.7-4.1-8.6-3
		c-3,0.8-5.5,3.9-5.5,6.9c0,4.2,2,7.7,5,10.4c2.3,2.1,4.9,3.9,7.5,5.7"/>
	<path fill="#80B9AA" d="M660,1872c-1.1-3.1-2.4-6.1-3.8-9.1c-1.5-3.1-3.8-5.4-6.8-7c-3.2-1.8-6.1-1.2-9,1.6
		c-2.2,2.2-2.9,6.1-1.4,8.7c2.1,3.7,5.5,5.8,9.5,6.6c3.1,0.7,6.2,0.9,9.4,1.3"/>
	<path fill="#80B9AA" d="M654.5,1874.2c-1.6,2.9-3,5.9-4.2,9c-1.3,3.1-1.5,6.4-0.8,9.7c0.8,3.6,3.1,5.4,7.2,5.6
		c3.1,0.2,6.5-1.9,7.5-4.8c1.4-4,0.6-7.9-1.4-11.5c-1.5-2.7-3.4-5.3-5.3-7.8"/>
	<path fill="#80B9AA" d="M606.1,1908c-1.6-2.9-3.4-5.7-5.2-8.4c-1.9-2.9-4.6-4.7-7.7-5.9c-3.4-1.3-6.2-0.3-8.6,3
		c-1.8,2.5-1.9,6.5-0.1,8.8c2.6,3.4,6.3,4.8,10.4,5.1c3.1,0.2,6.3,0,9.4-0.2"/>
	<path fill="#80B9AA" d="M584.9,1917.4c-1.3-3-2.9-5.9-4.4-8.8c-1.6-3-4.2-5.1-7.2-6.6c-3.3-1.6-6.2-0.8-8.8,2.2
		c-2,2.3-2.4,6.3-0.8,8.8c2.3,3.6,5.9,5.4,9.9,6c3.1,0.5,6.3,0.5,9.4,0.6"/>
	<path fill="#80B9AA" d="M559.1,1919.8c0.1-3.3-0.1-6.6-0.3-9.9c-0.2-3.4-1.6-6.4-3.8-9c-2.3-2.8-5.2-3.3-8.9-1.7
		c-2.9,1.2-4.9,4.7-4.5,7.6c0.6,4.2,3.1,7.3,6.5,9.6c2.6,1.7,5.5,3.1,8.3,4.5"/>
	<path fill="#80B9AA" d="M678,1869.4c-2.2,2.5-4.1,5.2-6,7.9c-2,2.8-2.7,6-2.7,9.4c0,3.7,2,5.9,5.9,6.9c3,0.8,6.8-0.5,8.3-3.1
		c2.2-3.7,2.3-7.6,1-11.5c-0.9-3-2.3-5.9-3.6-8.7"/>
	<path fill="#80B9AA" d="M602.7,1910.7c-0.5,2.8-1.2,5.6-1.6,8.4c-0.6,3.4-0.3,6.8,1.3,9.9c1.9,3.7,5.8,5.3,9.6,3.6
		c3.8-1.7,5.6-4.1,4.7-8.6c-0.8-4-3-7-6-9.5c-1.8-1.6-3.8-3-5.6-4.5"/>
	<path fill="#80B9AA" d="M590.3,1916.4c-1.5,2.4-3.1,4.8-4.5,7.2c-1.7,3-2.7,6.2-2.3,9.7c0.5,4.1,3.6,7,7.6,6.8
		c4.1-0.2,6.6-1.7,7.5-6.3c0.7-4-0.3-7.6-2.2-11.1c-1.1-2.1-2.4-4.1-3.6-6.2"/>
	<path fill="#80B9AA" d="M573.9,1920.5c-2.2,1.8-4.5,3.4-6.8,5.2c-2.7,2.2-4.7,4.9-5.5,8.3c-0.9,4,0.9,7.8,4.9,9
		c4,1.2,6.9,0.6,9.2-3.4c2-3.5,2.3-7.3,1.7-11.1c-0.3-2.4-0.9-4.7-1.2-7.1"/>
	<path fill="#80B9AA" d="M573.9,1920.5c-2.2,1.8-4.5,3.4-6.8,5.2c-2.7,2.2-4.7,4.9-5.5,8.3c-0.9,4,0.9,7.8,4.9,9
		c4,1.2,6.9,0.6,9.2-3.4c2-3.5,2.3-7.3,1.7-11.1c-0.3-2.4-0.9-4.7-1.2-7.1"/>
	<path fill="#80B9AA" d="M554.7,1920.3c-2.5,1.3-5.1,2.6-7.6,3.9c-3,1.6-5.5,4-6.9,7.2c-1.7,3.8-0.5,7.9,3.1,9.7
		c3.7,1.9,6.6,1.9,9.7-1.6c2.6-3,3.6-6.7,3.8-10.6c0.1-2.4,0-4.8,0.1-7.2"/>
	<path fill="#80B9AA" d="M536.4,1915.1c-2.9,0.3-5.7,0.5-8.5,0.9c-3.4,0.5-6.6,1.7-9.1,4.1c-2.9,2.9-3.4,7.1-0.6,10.2
		c2.7,3.1,5.5,4.1,9.6,2c3.6-1.9,5.8-4.9,7.4-8.5c1-2.2,1.7-4.5,2.7-6.7"/>
	<path fill="#80B9AA" d="M533.9,1915.5c-1.9-2.1-4-4.1-5.9-6.2c-2.3-2.6-3.9-5.6-4.2-9c-0.3-4.1,2.1-7.6,6.2-8.2
		c4.1-0.6,6.9,0.4,8.6,4.8c1.5,3.7,1.2,7.5,0.1,11.2c-0.7,2.3-1.6,4.5-2.3,6.8"/>
</g>
<g id="Layer_20">
	<path fill="#008C6F" d="M774.3,1934.1c0,0-3.3-7.3,6.6-23.8s15.5-19.3,18.9-25.8c-3.4,6.5-2.4,12.9-10,30.4
		C782.2,1932.6,774.3,1934.1,774.3,1934.1L774.3,1934.1z M773.4,1945.7c0,0,7.9,1.3,21.2-12.5c13.3-13.8,14.6-20,20.1-25
		c-5.5,4.9-11.8,5.6-26.8,17.6C772.9,1937.7,773.4,1945.7,773.4,1945.7L773.4,1945.7z M766,1959.4c0,0,7.4,3.1,23.6-7
		c16.2-10.2,19-16,25.4-19.4c-6.5,3.5-12.8,2.7-30.2,10.7C767.4,1951.4,766,1959.4,766,1959.4L766,1959.4z M765.4,1941.6
		c0,0-5.6-5.7-2.2-24.6c3.5-18.9,7.8-23.5,8.7-30.9c-0.9,7.3,2.3,12.9,1.3,32C772.3,1937.3,765.4,1941.6,765.4,1941.6z
		 M758.6,1955.6c0,0-6.8-4.2-8-23.3c-1.1-19.1,2-24.7,1-32c0.9,7.3,5.3,12,8.9,30.8C764.2,1949.8,758.6,1955.6,758.6,1955.6
		L758.6,1955.6z"/>
	<path fill="#010101" stroke="#010101" stroke-width="0.21" stroke-miterlimit="10" d="M751.7,1900.2c0.1,0.9,0.3,1.7,0.5,2.6
		l6.6,52.6c0.3,4,1.2,5.3,1.6,5.6l6-11.7c-1.4-2.1-1.1-7.2-1-7.8l6.2-52.6c0.2-0.8,0.3-1.7,0.5-2.6c-0.1,0.9-0.2,1.7-0.2,2.6
		l-6.2,52.6c0,0.1-0.4,5.4,0.9,7.5l7.9-15.4l24-46.7c0.5-0.7,0.9-1.5,1.3-2.3c-0.4,0.8-0.8,1.6-1,2.4l-24.3,47.2l-0.1,0.1l-7.6,14.8
		c2.6-0.2,6.6-3.6,6.6-3.6l39.2-35.6c0.7-0.5,1.4-1,2-1.6c-0.6,0.6-1.3,1.2-1.9,1.9l-39.2,35.6c-0.5,0.4-4.4,3.6-6.9,3.7l-6.1,11.7
		c0.5,0.2,2.1,0,5.4-2l46.6-25.2c0.8-0.3,1.6-0.7,2.4-1.1c-0.8,0.4-1.5,0.9-2.2,1.4l-46.6,25.2c-0.5,0.3-4.4,2.6-5.8,2l-2.7,5.3
		l-0.3-0.1l2.7-5.3c-1.3-0.7-1.7-5.3-1.7-5.9l-6.6-52.5C751.9,1902,751.8,1901.1,751.7,1900.2L751.7,1900.2z"/>
</g>
<g id="Layer_19">
	<path fill="#8CB279" d="M790.8,1962c0,0,0.1,0.1,0.1,0.5c0,0.4-0.1,0.6-0.1,0.6s1.7-0.7,4-0.4c0.9,0.1,1,0.3,1,0.3s0.1,0.6-0.3,1.3
		c0,0,1.1-0.2,2.3-0.1s2.2,0.8,2.2,0.8s0.1,0.7-0.3,1c-0.3,0.3,0.5-0.3,2.3,0.2s2.8,1.6,2.8,1.6s0.1,0.6-0.2,1.2c0,0,1-0.2,2.6,0.8
		c1.5,0.9,2.4,2.4,2.6,2.6c-0.1,0.2-1,1.7-2.6,2.6c-1.6,0.9-2.6,0.8-2.6,0.8c0.3,0.6,0.2,1.2,0.2,1.2s-0.9,1-2.8,1.6
		c-1.9,0.6-2.7-0.2-2.3,0.2c0.3,0.3,0.3,1,0.3,1s-1,0.6-2.2,0.8s-2.3-0.1-2.3-0.1c0.4,0.8,0.3,1.3,0.3,1.3s-0.2,0.2-1,0.3
		c-2.3,0.3-4-0.4-4-0.4s0.1,0.2,0.1,0.6c0,0.4-0.1,0.5-0.1,0.5s-0.1,0.2-1.3,0.1c-1.2-0.2-3.5-1.3-3.5-1.3c-0.1,0.8,0.1,1.4-0.8,1.2
		c-2.9-0.8-5.7-2.3-8.1-4.2c-1.1-0.9-2.1-1.8-3-2.9c-0.5-0.5-1-1.2-1.6-1.8c1.2,0.1,1.5,0.1,1.9,0.1c4.3,0,6.8-0.6,9.3-1.6
		c-2.6-0.9-5.1-1.6-9.3-1.5c-0.4,0-0.8,0.1-1.9,0.1c0.5-0.6,1-1.3,1.6-1.8c0.9-1,1.9-2,3-2.9c2.4-1.9,5.2-3.4,8.1-4.2
		c0.9-0.2,0.7,0.4,0.8,1.2c0,0,2.3-1.2,3.5-1.4C790.7,1961.7,790.8,1962,790.8,1962"/>
</g>
<g id="Layer_18">
	<path fill="#80B9AA" d="M723.2,1944.2c0,0-1.6,0.4-1.7,1.3c-0.9-0.1-1.4,0.6-1.5,1.4c-0.6-0.1-1.4,0.1-1.5,1.6
		c-0.9-0.1-2.2,0-2.4,2.3c-0.8-0.1-2.9,0.5-3.2,2.7c-1.1-0.3-2-0.3-2-0.3s-0.8,1-0.8,1.6c-0.1,0.6-0.9,0.6-0.7,1.3s-0.1,0.6-0.2,1
		c-0.1,0.3,0.1,1,0.4,1.7c0.3,0.7-1.7,0.8,1.2,4.2c0.3,0.2,0.2,1.1,0.2,1.1s-0.5,0.3-1.5-1.2c-0.9-1.4-2.9-3.8-4.2-2.6
		c-1.4,1.2-0.6,0.1-0.7-0.6c-0.2-0.6-1-1.1-1.2-0.9c-0.2,0.2-0.9-0.9-1.8-0.9c-0.9-0.1-0.9,0.3-0.9,0.3s-1.6-1.4-2.3-1.5
		c-0.8-0.1-0.6,0.6-0.6,0.6s-1.5-1.4-2.1-0.4c-0.7,1-0.9-0.4-1.2-0.3s-0.5,0.3-0.5,0.3l-1.3-0.2c0,0-0.4,2-0.1,2.4
		c0.3,0.5-0.6,0.4-0.5,1c0.2,0.6,0.8,1.5,0.8,1.5s-0.8,0.2-0.8,0.7s0.4,1.4,1.3,2.2c0.9,0.8-0.7,0.7-0.7,1c-0.1,0.3,0.3,2.7,2,3.3
		c1.6,0.6-1,0.7-1,1c0,0-0.2,1.7,1.9,2.6c0,0-2.2,1.6-2.2,2.3c0.1,0.7,1,2.5,1.7,2.6c0.7,0.1,0.1,1,1.3,1.2c1.2,0.2,1,1.4,3.4,1.4
		c2.3,0-1.9,1.3-1.7,2.2c0.1,0.9-0.6,1.5-0.6,1.8c0.1,0.4,0.8,0.9,0.8,0.9s0.5,1,1.3,1.2c0.8,0.1-0.1,1.3,0.9,1.4
		c1,0.1,2.2,0.3,2.2,0.3l0.1,1.2c0,0,2.3,1.2,4.6-0.5c0.4-0.2,0.2,0.8,0.2,1c0,0.3,0.1,1.7,4.8-1.3c0.5,0.2,4.8-5.3,6.2-8.8
		c0.4,3.8,3.1,10.2,3.6,10.2c3.7,4.2,4.2,2.8,4.2,2.5c0.1-0.3,0.1-1.2,0.4-0.9c1.7,2.1,4.3,1.6,4.3,1.6l0.4-1.1c0,0,1.1,0.2,2.2,0.3
		c1,0.1,0.5-1.2,1.3-1.1c0.8,0.1,1.5-0.8,1.5-0.8s0.8-0.3,1-0.6c0.1-0.3-0.4-1-0.1-1.9c0.3-0.8-3.3-3.3-1.1-2.6s2.4-0.6,3.6-0.5
		c1.2,0.1,0.9-0.9,1.6-0.8c0.7,0.1,2.1-1.4,2.3-2c0.2-0.6-1.5-2.8-1.5-2.8c2.2-0.2,2.4-2,2.4-2c0.1-0.3-2.5-1.1-0.8-1.3
		c1.7-0.1,2.7-2.4,2.8-2.6c0.1-0.3-1.6-0.6-0.4-1.2c1.1-0.5,1.7-1.3,1.9-1.7c0.1-0.5-0.6-0.9-0.6-0.9s0.8-0.7,1.1-1.2
		c0.3-0.5-0.6-0.8-0.2-1.1c0.5-0.3,0.6-2.3,0.6-2.3l-1.3-0.1c0,0-0.2-0.3-0.5-0.5c-0.3-0.1-0.8,1.2-1.2,0.1
		c-0.4-1.2-2.2-0.2-2.2-0.2s0.4-0.6-0.4-0.8c-0.8-0.1-2.7,0.9-2.7,0.9s0.2-0.4-0.8-0.6c-0.9-0.2-1.9,0.7-2,0.5
		c-0.1-0.3-1.1-0.1-1.4,0.5c-0.3,0.6,0.2,1.9-0.8,0.3c-1-1.6-3.6,0.2-4.8,1.4c-1.2,1.1-1.7,0.8-1.7,0.8s0.2-0.9,0.5-1
		c3.7-2.6,1.8-3.2,2.3-3.8c0.5-0.6,0.9-1.2,0.8-1.6c0-0.4-0.2-0.4,0.1-1c0.3-0.6-0.5-0.9-0.3-1.5c0.1-0.6-0.3-1.7-0.3-1.7
		s-0.8-0.3-2-0.3c0.3-2.3-1.5-3.3-2.3-3.5c0.3-2.3-0.9-2.7-1.7-2.9c0.3-1.5-0.4-1.8-1-1.9c0.2-0.8-0.2-1.5-1-1.7
		C724.7,1944.9,723.2,1944.2,723.2,1944.2L723.2,1944.2z"/>
	<path d="M718.6,1979.8l-0.1-0.1h-0.1l0.2-0.3C718.6,1979.6,718.6,1979.7,718.6,1979.8L718.6,1979.8z"/>
	<path d="M692.7,1957.3c0.1-0.2,0.1-0.4,0.1-0.4l0.6,0.1l24.9,21.8l4.6-34.5l0.3-0.1c0,0,0.1,0.1,0.3,0.2l-4.6,34.5l29.7-14.5
		l0.6,0.1c0,0,0,0.2-0.1,0.4l-30,14.7l18.3,9.5c0.1,0.2,0.1,0.3,0,0.4l-0.1,0.1l-0.2,0.2l-18.5-9.7l-0.2-0.1c0-0.1-0.1-0.3-0.1-0.4
		l-0.2,0.3l-20.7,4.6c-0.1-0.1-0.1-0.2-0.1-0.2v-0.1c0-0.1,0.1-0.2,0.1-0.3l20.1-4.4L692.7,1957.3L692.7,1957.3z"/>
</g>
<g id="Layer_17">
	<path fill="#8CB279" d="M630.3,1966.3c0,0-0.2-0.1-0.5-0.6c-0.3-0.5-0.5-0.8-0.5-0.8s-1.6,2.5-4.8,4.2c-1.2,0.6-1.6,0.6-1.6,0.6
		s-0.7-0.6-0.9-2c0,0-1.2,1.3-2.9,2.2c-1.6,0.9-3.6,1.1-3.6,1.1s-0.7-0.9-0.6-1.6s-0.3,0.9-3.1,1.9c-2.9,1-5,0.6-5,0.6
		s-0.7-0.8-0.8-1.8c0,0-1.1,1.1-4.1,1.4c-2.7,0.3-5.4-0.9-5.7-1c-0.1-0.3-0.3-3.2,0.8-5.7c1.2-2.7,2.6-3.4,2.6-3.4
		c-0.9-0.4-1.5-1.3-1.5-1.3s0.2-2.2,2.1-4.6c1.9-2.4,3.6-2.3,2.8-2.4c-0.8-0.1-1.4-1-1.4-1s0.8-1.8,2.2-3c1.4-1.2,3-2,3-2
		c-1.2-0.6-1.6-1.5-1.6-1.5s0.1-0.4,1-1.3c2.6-2.5,5.5-3.2,5.5-3.2s-0.3-0.2-0.6-0.7c-0.3-0.5-0.4-0.7-0.4-0.7s-0.1-0.3,1.6-1.2
		c1.7-0.9,5.8-1.5,5.8-1.5c-0.6-1-1.5-1.7-0.1-2.3c4.5-1.7,9.5-2.3,14.3-2.2c2.2,0.1,4.4,0.3,6.5,0.8c1.1,0.2,2.4,0.5,3.7,0.9
		c-1.5,1-2,1.3-2.5,1.7c-5.5,4-8.1,7.2-10.5,10.7c4.1-1.2,7.9-2.7,13.4-6.7c0.5-0.3,0.9-0.8,2.4-1.9c-0.1,1.3-0.2,2.6-0.3,3.7
		c-0.2,2.2-0.6,4.4-1.2,6.5c-1.3,4.6-3.4,9.2-6.5,12.9c-0.9,1.2-1.3,0.1-2.1-0.8c0,0-1.8,3.7-3.2,5
		C630.6,1966.5,630.3,1966.3,630.3,1966.3"/>
</g>
<g id="Layer_16">
	<path fill="#2D9782" d="M523,1949.7c0,0-0.1,0.2,0.1,0.8s0.3,0.9,0.3,0.9s-3.1-0.4-6.7,1c-1.3,0.6-1.6,0.9-1.6,0.9s0.1,1,1,2
		c0,0-1.9,0.2-3.7,0.8c-1.9,0.7-3.3,2.2-3.3,2.2s0.2,1.2,1,1.6c0.7,0.4-0.9-0.3-3.7,1.3c-2.8,1.7-3.8,3.7-3.8,3.7s0.1,1.1,0.9,1.9
		c0,0-1.7,0.2-3.9,2.4c-2.1,2.1-2.9,4.9-3,5.4c0.2,0.2,2.4,2.4,5.2,3.1c3,0.9,4.5,0.2,4.5,0.2c-0.3,1,0.1,2.1,0.1,2.1s2,1.3,5.2,1.4
		c3.3,0.1,4.3-1.4,3.8-0.6c-0.4,0.7-0.1,1.9-0.1,1.9s2,0.6,4,0.3c2-0.3,3.7-1.1,3.7-1.1c-0.3,1.4,0.1,2.3,0.1,2.3s0.3,0.2,1.8,0.1
		c3.8-0.5,6.3-2.3,6.3-2.3s-0.1,0.3,0.1,1c0.2,0.6,0.3,0.8,0.3,0.8s0.2,0.3,2.1-0.5c1.9-0.8,5.1-3.7,5.1-3.7
		c0.5,1.2,0.4,2.4,1.8,1.6c4.4-2.6,8.3-6.2,11.4-10.3c1.4-1.9,2.7-3.8,3.7-5.9c0.5-1,1.2-2.3,1.7-3.6c-1.9,0.6-2.4,0.8-3.1,0.9
		c-7,1.8-11.4,1.9-15.8,1.4c3.7-2.6,7.6-4.7,14.5-6.5c0.6-0.2,1.2-0.2,3.1-0.7c-1.1-0.8-2.3-1.6-3.3-2.3c-1.9-1.3-4-2.4-6.1-3.3
		c-4.7-2-9.8-3.4-15-3.4c-1.6,0-1,1-0.8,2.3c0,0-4.2-1-6.3-0.8C523,1949.3,523,1949.7,523,1949.7"/>
	<path stroke="#000000" stroke-width="1.03" stroke-miterlimit="10" d="M513.3,1962.3c3.4,1.6,6.8,3.1,10.5,4.8
		c-4.4,1-22.1,6.3-26,7.3c0.1,0.2,0.1,0.3,0.1,0.5c4-0.9,21.7-6.2,26.4-7.4c-2.5,3.6-4.7,6.8-6.8,9.8l0.5,0.2c0.3-0.4,0.8-0.8,1-1.2
		c1.9-2.6,3.7-5.3,5.6-7.9c0.3-0.5,1-1,1.7-1.2c3.1-0.8,6.3-1.6,10-2.4c-3,5.2-5.9,10.1-8.8,15.1l0.6,0.2c0.3-0.4,0.7-0.8,0.9-1.2
		c2.5-4.2,5.1-8.5,7.5-12.7c0.7-1.3,1-1.9,2.7-2.2c-1.3,0.3-2.2-0.1-3.1-0.6c-4.2-2.7-8.4-5.3-12.7-8c-0.5-0.3-1-0.5-1.5-0.8
		c-0.2,0.1-0.3,0.3-0.5,0.4c4.8,3,9.7,6.1,14.8,9.3c-3.7,0.9-6.9,1.7-10.2,2.4c-0.6,0.1-1.5-0.1-2.1-0.3c-2.9-1.2-7.7-3.2-10.5-4.5"
		/>
</g>
<g id="Layer_15">
	<path fill="#447E65" d="M488.3,1875c0,0,0.1-0.1,0.6-0.3c0.5-0.2,0.7-0.2,0.7-0.2s-1.6-1.7-2.2-4.6c-0.2-1.1-0.1-1.3-0.1-1.3
		s0.6-0.4,1.7-0.2c0,0-0.7-1.2-1.1-2.7c-0.3-1.5-0.1-3-0.1-3s0.8-0.3,1.4-0.1c0.6,0.3-0.6-0.4-0.8-2.9c-0.2-2.4,0.6-4,0.6-4
		s0.8-0.4,1.6-0.2c0,0-0.6-1.1-0.2-3.4c0.4-2.2,1.8-4,2-4.1c0.3,0.1,2.5,0.5,4.2,1.9c1.8,1.5,2,2.7,2,2.7c0.5-0.6,1.3-0.8,1.3-0.8
		s1.6,0.7,3.1,2.6c1.5,1.9,1,3.3,1.2,2.7c0.3-0.6,1.1-0.8,1.1-0.8s1.2,1,1.9,2.3c0.6,1.3,0.9,2.7,0.9,2.7c0.7-0.8,1.5-0.9,1.5-0.9
		s0.3,0.1,0.8,1.1c1.3,2.6,1.3,4.9,1.3,4.9s0.2-0.2,0.6-0.3s0.6-0.2,0.6-0.2s0.3-0.1,0.6,1.5c0.3,1.5-0.1,4.8-0.1,4.8
		c0.9-0.2,1.6-0.8,1.7,0.4c0.3,3.8-0.3,7.8-1.5,11.4c-0.5,1.7-1.2,3.3-2,4.8c-0.4,0.8-0.9,1.7-1.5,2.6c-0.5-1.4-0.6-1.9-0.8-2.3
		c-1.9-5.1-3.7-7.8-5.9-10.4c0,3.4,0.3,6.6,2.2,11.8c0.2,0.5,0.3,0.9,0.9,2.2c-1-0.3-2-0.8-2.8-1c-1.6-0.6-3.2-1.5-4.7-2.3
		c-3.3-2-6.3-4.7-8.5-7.7c-0.7-0.9,0.2-1,1-1.5c0,0-2.4-2.2-3.1-3.6C488.1,1875.2,488.3,1875,488.3,1875"/>
</g>
<g id="Layer_14">
	<path fill="#447E65" d="M419.9,1976.1l-0.5-1.1l4.2-1.7c0,0,1.7-1.6,1.4-3.7s1-1.5,1-1c0.1,0.4,1.7-2.6,1.5-3.3
		c-0.3-0.8,0.1-2.7,1.4-2.9c1.3-0.1,0.9-0.9,0.9-2.2c0.1-1.2-0.5-2.7,1.9-3.2c-0.2-1.1-0.4-3,1.6-4.7c2-1.7,5.8-4.8,7.2-4.3
		c1.4,0.5,3.1-0.6,3-0.8c-0.1-0.1,0.3-0.9,2.2-0.8s18.9-1.2,36.1,3.4c-8.7,15.5-21.5,26.8-22.7,28.2c-1.2,1.5-2.1,1.2-2.1,1
		c0-0.2-2,0.3-2.7,1.6c-0.6,1.3-5.5,2-8.2,2.2c-2.6,0.2-3.8-1.3-4.5-2.2c-2,1.4-2.7-0.1-3.6-0.9c-0.9-0.8-1.2-1.7-2.2-0.8
		c-1,0.9-2.7-0.2-3-1c-0.3-0.8-3.6-1.6-3.4-1.3c0.2,0.3-0.2,1.7-1.5,0.1c-1.2-1.6-3.6-1.5-3.6-1.5l-4.2,1.7L419.9,1976.1"/>
	<path d="M440.5,1955.2l0.5,0.2l-4,13.1l8.2-3.4l4.1-13.5l0.5,0.2l-4,13.1l8.2-3.4l4.1-13.5l0.5,0.2l-4,13.1l26.7-11.2
		c0.1,0.1,0.3,0.1,0.4,0.1c-0.1,0.1-0.1,0.2-0.2,0.4l-26.7,11.3l12.3,6.4l-0.2,0.5l-12.7-6.6l-8.2,3.4l12.3,6.4l-0.2,0.5l-12.7-6.6
		l-8.2,3.4l12.3,6.4l-0.2,0.5l-12.7-6.6l-16.6,7l-0.1-0.2l-0.1-0.2l16.6-7L440.5,1955.2L440.5,1955.2z"/>
</g>
<g id="Layer_13">
	<path fill="#80B9AA" d="M404.6,1913.8c0,0,9.3,3.5,17,0.6c-0.1-0.6-0.3-0.2-0.3-0.2l6.3-3.1l-0.3-0.2l8.2-5.8l-0.5-0.2l4.4-3.9
		l2.3-2.9l-0.3-0.2l2.1-4l0.1-0.2l-0.3-0.2c0,0,1.7-3.6,1.7-5.7l-0.6,0.2c0,0,1.6-4.1,0.1-7.3l-0.4,0.2c0,0,0.3-3.6,0.1-3.9
		l-0.6,0.3v-4.1l-0.6,0.4c0,0-1-6.9-1.5-7.3l-0.6,0.2l-1.1-3.7l-0.6,0.4l-0.3-4.2l-0.8,0.2l0.1-8.6l-0.1-0.1l-7.1,4.9l-0.2-0.7
		l-3.7,2.1v-0.8l-3.7,1.2l-0.2-0.6c-0.6-0.1-6.9,3-6.9,3v-0.7l-3.4,2.3l-0.1-0.7c-0.3,0-3.2,2.3-3.2,2.3l-0.1-0.4
		c-3.6,0.6-6,4.2-6,4.2l-0.2-0.6c-1.7,1.3-3.7,4.7-3.7,4.7l-0.3-0.2l-0.1,0.2l-2.1,4l-0.3-0.2l-1,3.6l-0.8,5.8l-0.5-0.2l-0.2,10
		l-0.3-0.2l1,7c0,0,0.1-0.5-0.3-0.2C396.4,1908.1,404.5,1913.8,404.6,1913.8L404.6,1913.8z"/>
	<path fill="#010101" d="M443.2,1893.4c0.1-0.2,0.3-0.6,0.6-1.3l-37.1,18.8l6-11.4L445,1883c0-0.3-0.1-0.6-0.1-0.9l-31.5,16.1
		l5.8-11.1l24.3-12.4v-1l-23.5,12l5.9-11.1l15.8-8.2c-0.1-0.1-0.1-0.2-0.1-0.2l-0.6,0.2l-0.2-0.5l-14.2,7.3l11.5-21.9v-0.8l-0.1-0.1
		l-0.8,0.6l-11.5,21.8l-1.9-15.8l-0.5,0.2l-0.2-0.6h-0.2l2.2,17.6l-5.8,11.1l-3.3-26.2l-0.8,0.6l3.4,27l-5.8,11.1l-4.5-35
		c-0.3,0.1-0.6,0.3-0.9,0.4l4.6,36l-6,11.4l-5.4-41.3c-0.4,0.6-0.6,1-0.8,1.2l5.5,41.4l-0.9,1.6c0.2,0.2,0.3,0.2,0.3,0.2
		s0.1,0.1,0.4,0.1l0.9-1.7L443.2,1893.4L443.2,1893.4z"/>
</g>
<g id="Layer_12">
	<path fill="#3E879F" d="M356.7,1890.2c0,0-6,0.1-9.5-2.1c-0.1,0-0.1-0.1-0.1-0.1l0.3-0.2c0,0-2.4-0.9-2.9-1.5l0.5-0.1
		c0,0-1.7-1-2.2-1.3l0.5-0.3c0,0-1.8-1-2-1.3c0.4-0.1,0.5-0.2,0.5-0.2l-1.6-1.7h0.4c0.1,0-1.3-1.6-1.3-1.6l0.6,0.2l-1.7-2.3l0.8,0.2
		l-1.9-3h0.6l-0.9-1.7l0.6,0.1l-1.2-2.6l0.9-0.2l-0.8-2.6l1,0.5l-0.9-2.2l1.2,0.1l-0.7-2.2l0.6,0.3l-0.3-2.1l0.8,0.3l-0.3-2.4
		l0.6,0.4l-0.2-1.9l0.6,0.2l-0.5-2l1.5,1.4l0.1-0.6l1.5,1.1v-0.8l1.9,1.5l0.1-0.8l1.7,1.3l0.1-0.7l1.6,1.6l0.6-1.1l1.5,1.9l0.1-1.1
		l1.9,1.9l0.6-0.8l1.7,2.3l0.2-0.6l1,1.7l0.3-0.6l1.6,3.1l0.2-0.8l1.2,2.6l0.2-0.6c0,0,0.6,2,0.8,1.9c0.1-0.1,0.2-0.3,0.2-0.3
		l0.8,2.3c0,0,0.2,0.1,0.5-0.2c0.2,0.3,0.2,2.4,0.2,2.4l0.5-0.3c0.1,0.5,0.1,2.6,0.1,2.6l0.3-0.3c0.2,0.8-0.1,3.3-0.1,3.3l0.3-0.2
		v0.1c0.2,4.1-2.8,9.3-2.8,9.3L356.7,1890.2L356.7,1890.2z"/>
	<path d="M338.1,1856.6l1,1l18.7,31.9l-0.3,0.2l-0.3,0.2l-18.7-31.9"/>
	<path fill="#80B9AA" d="M354.7,1896.1c0,0-4.1,4.4-8.2,5.2h-0.1l0.1-0.4c0,0-2.4,1-3.1,1l0.2-0.4l-2.4,0.6l0.1-0.6
		c0,0-2,0.6-2.4,0.5c0.2-0.3,0.1-0.5,0.1-0.5l-2.4-0.1c0,0,0.2-0.2,0.3-0.3c0.1-0.1-2-0.2-2-0.2l0.6-0.3l-2.9-0.5l0.6-0.4l-3.4-0.8
		l0.5-0.5l-1.9-0.6l0.6-0.4l-2.7-1l0.5-0.8l-2.4-1.3l1-0.3l-2.2-0.9l0.9-0.9l-2-1l0.6-0.2l-1.7-1.3l0.8-0.3l-2-1.5l0.8-0.2l-1.5-1.1
		l0.5-0.3l-1.7-1l2-0.1l-0.3-0.5l1.9-0.2l-0.6-0.5l2.4-0.3l-0.5-0.6l2.2-0.2l-0.5-0.5l2.3,0.1l-0.4-1.2l2.3,0.3l-0.8-0.8h2.7
		l-0.1-0.9l2.9,0.5l-0.3-0.6l2,0.5l-0.2-0.6l3.3,1l-0.3-0.7l2.7,1l-0.3-0.6c0,0,1.9,0.9,1.9,0.8s-0.1-0.4-0.1-0.4l2.2,1.1
		c0,0,0.2-0.1,0.1-0.5c0.4,0.1,1.8,1.6,1.8,1.6l0.2-0.6c0.4,0.3,1.9,1.7,1.9,1.7v-0.5c0.7,0.3,2.3,2.4,2.3,2.4l0.1-0.4
		c0.1,0,0.1,0.1,0.1,0.1c3.1,2.7,4.6,8.6,4.6,8.6L354.7,1896.1L354.7,1896.1z"/>
	<path d="M317.9,1885.5l1.5-0.1l35.7,9.3l-0.1,0.4l-0.1,0.3l-35.8-9.3"/>
	<path fill="#80B9AA" d="M364.1,1890.7c0,0,5.8-1.5,8.6-4.5c0-0.1,0.1-0.1,0.1-0.1l-0.4-0.1c0,0,2-1.6,2.4-2.2h-0.5
		c0,0,1.5-1.5,1.7-1.9l-0.6-0.2c0,0,1.5-1.5,1.6-1.8c-0.4,0.1-0.5-0.1-0.5-0.1l1.1-2.2c0,0-0.3,0.1-0.4,0.1c-0.1,0,0.9-1.9,0.9-1.9
		l-0.6,0.3l1-2.7l-0.7,0.3l1-3.3l-0.6,0.2l0.5-1.9l-0.6,0.3l0.5-2.9l-0.9,0.1v-2.7l-0.8,0.7l0.3-2.3l-1.2,0.4l0.1-2.3l-0.5,0.5
		l-0.2-2.2l-0.6,0.5l-0.3-2.4l-0.5,0.6l-0.2-1.9l-0.5,0.3l-0.1-2l-1,1.7l-0.3-0.5l-1.2,1.5l-0.2-0.8l-1.5,2l-0.3-0.8l-1.3,1.7
		l-0.2-0.6l-1,2l-0.8-0.9l-0.9,2.2l-0.3-1l-1.3,2.4l-0.8-0.6l-1,2.7l-0.4-0.6l-0.6,1.9l-0.5-0.5l-0.8,3.4l-0.4-0.6l-0.5,2.9
		l-0.3-0.6c0,0-0.1,2.1-0.2,2c-0.1-0.1-0.3-0.3-0.3-0.3l-0.1,2.4c0,0-0.2,0.1-0.5-0.1c-0.1,0.4,0.5,2.4,0.5,2.4l-0.6-0.2
		c0.1,0.5,0.6,2.5,0.6,2.5l-0.4-0.2c-0.1,0.8,1,3.1,1,3.1l-0.4-0.1v0.1c0.9,4,5.2,8.2,5.2,8.2L364.1,1890.7L364.1,1890.7z"/>
	<path d="M373,1853.4l-0.8,1.2l-9.5,35.7l0.4,0.1l0.3,0.1l9.6-35.7"/>
	<path fill="#E73267" d="M376.1,1899c-3.3,0.7-8.4-0.4-11.4-1.7c-10.7-5-4.4-13.1-4.4-13.1l0.1-0.2c0,0,5.9-8.3,13.9,0.4
		c2.1,2.4,4.7,7,4.9,10.4L376.1,1899z"/>
	<path fill="#E73267" d="M377.3,1896.8l-1.6,2.2l2.3,2.7l0.6-2.7h1.5l-0.5-1.5l2.5-1.3l-3.3-1.4 M356.5,1910.4
		c2.3-2.5,3.8-7.6,4.1-10.7c0.9-11.7-9.3-10.3-9.3-10.3h-0.2c0,0-10.1,1-6.5,12.2c1,3,3.8,7.5,6.6,9.4L356.5,1910.4L356.5,1910.4z"
		/>
	<path d="M322.5,1954.3l-0.1,0.1v0.1l-0.3-0.3C322.3,1954.2,322.4,1954.2,322.5,1954.3L322.5,1954.3z"/>
	<path fill="#E73267" d="M353.9,1910.4l2.7-0.3l1.2,3.3l-2.7-0.9l-0.8,1.3l-1-1.1l-2.4,1.5l0.4-3.5"/>
	<path fill="#B3DDD3" d="M394.7,1900.1l0.1,0.2C394.8,1900.3,394.9,1900.1,394.7,1900.1z"/>
</g>
<g id="Layer_11">
	<path fill="#80B9AA" d="M291.3,1936.4c0,0-0.2,1.6,0.5,2c-0.4,0.8,0,1.5,0.7,1.9c-0.3,0.5-0.5,1.3,0.9,2c-0.3,0.8-0.8,2,1.2,3.1
		c-0.4,0.8-0.7,2.9,1.3,4c-0.7,0.9-1,1.7-1,1.7s0.6,1.1,1.2,1.3c0.5,0.2,0.2,1,0.9,1.2c0.7,0.1,0.6,0.3,0.9,0.6
		c0.3,0.2,1,0.3,1.7,0.3c0.8-0.1,0.1,1.9,4.4,0.5c0.3-0.2,1.1,0.2,1.1,0.2s0.1,0.6-1.6,0.9c-1.6,0.3-4.7,1.2-4,3s-0.1,0.5-0.8,0.5
		c-0.6-0.1-1.4,0.5-1.3,0.8c0.1,0.3-1.1,0.5-1.6,1.3c-0.5,0.9,0,0.9,0,0.9s-1.9,0.9-2.3,1.6c-0.4,0.7,0.3,0.8,0.3,0.8
		s-1.9,0.8-1.2,1.8c0.6,1-0.7,0.6-0.8,0.9c-0.1,0.3,0.1,0.6,0.1,0.6l-0.7,1.1c0,0,1.7,1.1,2.2,0.9c0.6-0.2,0.1,0.8,0.8,0.8
		s1.6-0.1,1.6-0.1s-0.1,0.8,0.3,1c0.4,0.2,1.5,0.2,2.6-0.4c1.1-0.6,0.4,0.9,0.6,1c0.2,0.2,2.6,0.7,3.8-0.6s0.3,1.2,0.5,1.4
		c0,0,1.6,0.8,3.1-0.8c0,0,0.6,2.7,1.3,2.9c0.6,0.2,2.7,0,3-0.6c0.3-0.6,0.9,0.3,1.6-0.8c0.6-1,1.7-0.5,2.6-2.6
		c0.9-2.2,0.5,2.2,1.4,2.5c0.9,0.2,1.1,1.1,1.5,1.2s1.1-0.4,1.1-0.4s1.2-0.1,1.6-0.7c0.4-0.7,1.2,0.6,1.7-0.3
		c0.5-0.9,1.1-1.9,1.1-1.9l1.2,0.3c0,0,2-1.7,1.3-4.4c0-0.4,0.8,0.1,1,0.2c0.3,0.1,1.7,0.6,0.6-4.9c0.4-0.4-3.1-6.5-5.8-9.1
		c3.7,1.1,10.6,1,10.8,0.5c5.3-1.9,4.2-2.8,4-3c-0.2-0.2-1.1-0.5-0.7-0.8c2.6-0.8,3.1-3.4,3.1-3.4l-0.9-0.8c0,0,0.6-1,1.1-1.9
		c0.5-0.9-0.9-0.9-0.6-1.6c0.4-0.7-0.2-1.7-0.2-1.7s0.1-0.9-0.2-1.1c-0.3-0.2-1.1-0.1-1.8-0.6c-0.6-0.6-4.3,1.9-2.9,0.1
		c1.5-1.8,0.4-2.4,1-3.5s-0.5-1.2-0.1-1.7s-0.5-2.4-1-2.9c-0.5-0.5-3.1,0.3-3.1,0.3c0.6-2.1-0.9-3-0.9-3c-0.3-0.2-2,1.9-1.5,0.2
		c0.5-1.7-1.1-3.4-1.4-3.6c-0.2-0.1-1.2,1.2-1.2-0.1c-0.1-1.2-0.5-2.2-0.9-2.4c-0.3-0.3-1,0.2-1,0.2s-0.3-1-0.7-1.5
		c-0.3-0.5-0.9,0.3-1.1-0.3c-0.2-0.6-1.9-1.5-1.9-1.5l-0.6,1.2c0,0-0.4,0-0.6,0.2c-0.2,0.2,0.8,1.2-0.4,1.2c-1.2-0.1-1,1.9-1,1.9
		s-0.5-0.6-0.9,0.1c-0.4,0.7-0.2,2.8-0.2,2.8s-0.3-0.3-0.8,0.5c-0.5,0.8-0.1,2-0.3,2c-0.3,0-0.5,1-0.1,1.5c0.4,0.5,1.8,0.6,0,0.9
		c-1.8,0.3-1.1,3.4-0.6,4.9c0.6,1.6,0.1,1.9,0.1,1.9s-0.8-0.5-0.7-0.8c-1-4.4-2.3-2.9-2.6-3.6c-0.3-0.7-0.8-1.3-1.1-1.4
		s-0.5,0.1-0.9-0.5c-0.5-0.5-1,0.1-1.5-0.2c-0.5-0.3-1.7-0.3-1.7-0.3s-0.6,0.7-1,1.7c-2-1.2-3.7,0.1-4.1,0.8c-2-1.2-2.8-0.2-3.3,0.5
		c-1.2-0.9-1.9-0.3-2.2,0.2c-0.7-0.5-1.5-0.4-2,0.3C292.6,1935.4,291.3,1936.4,291.3,1936.4L291.3,1936.4z"/>
	<path d="M291.8,1969.5l-0.3-0.2l0.3-0.5l29.6-14.7l-30.2-17.4c0-0.2,0.1-0.3,0.1-0.3s0.1-0.1,0.3-0.2l30.2,17.4l-2.1-33l0.3-0.6
		l0.3,0.2l2.1,33.3l15.8-13.2c0.2,0,0.3,0.1,0.3,0.1l0.1,0.1c0.1,0.1,0.1,0.1,0.1,0.2l-16,13.4l-0.2,0.2c-0.1-0.1-0.3-0.1-0.4-0.1
		c0.1,0.1,0.2,0.2,0.3,0.3l-3.7,20.8c-0.1,0-0.2,0.1-0.2,0.1h-0.1c-0.1-0.1-0.2-0.1-0.3-0.2l3.6-20.3L291.8,1969.5L291.8,1969.5z"/>
</g>
<g id="Layer_10">
	<path fill="#3E879F" d="M212.3,1852.8c2.9-1.5,5.5-0.9,7.9,1.7c1.9,2,2.3,5.5,0.9,7.8c-2,3.3-5.1,4.9-8.7,5.6
		c-2.3,0.4-4.6,0.6-6.9,0.7c-0.1,0-0.1-0.1-0.1-0.1c0,0.1,0.1,0.1,0.1,0.1c5.2,3.3,10.4,6.1,15.4,8.3c1-2.7,2.3-5.4,3.6-8
		c1.3-2.7,3.5-4.7,6.1-6.2c2.9-1.6,5.4-1,7.9,1.6c1.9,2,2.4,5.5,1.1,7.8c-1.9,3.3-5,5-8.6,5.8c-1.9,0.3-3.8,0.6-5.7,0.8
		c5.1,1.9,10,3.1,15,3.9c0.1,0,0.3,0.1,0.4,0.1c0.8-2.8,1.7-5.5,2.8-8.2c1.1-2.9,3.1-5,5.6-6.7c2.7-1.8,5.4-1.5,8,0.9
		c2.1,1.8,2.9,5.2,1.8,7.7c-1.6,3.4-4.5,5.4-8,6.5l-1.9,0.5c5,0.1,10-0.4,14.8-1.5h-0.1c-0.5-2.9-0.7-5.8-0.9-8.8
		c-0.2-3,0.7-5.8,2.3-8.4c1.7-2.8,4.2-3.6,7.7-2.6c2.7,0.8,4.9,3.6,4.9,6.2c0,3.8-1.8,6.8-4.5,9.3c-1,0.9-2.2,1.8-3.3,2.6
		c0.2-0.1,0.5-0.2,0.7-0.2c4.7-1.6,8.8-3.7,12.3-5.9c-0.8-1.7-1.7-3.4-2.5-5.1c-1.5-3.1-2.2-6.5-1.3-10c1-4,3.3-5.2,7-5.2
		c3.7,0,6.2,2.8,6.4,6.5c0.2,3.1-0.9,5.9-2.6,8.5c-0.2,0.2-0.3,0.5-0.5,0.8c4.5-3.6,6.9-6.4,6.9-6.5l1.7,1.5
		c-0.2,0.3-4.4,5.2-12.1,10.3c1.6-0.1,3.3-0.2,4.9-0.2c3.1,0,6,0.7,8.5,2.6c2.9,2.2,3.8,5.9,1.8,8.9c-2,3.1-4.4,4.3-8.3,2.9
		c-3.4-1.2-5.7-3.6-7.6-6.6c-1.1-1.7-2-3.6-3.1-5.4c-3.1,1.8-6.8,3.5-10.8,4.9c-0.5,0.2-0.9,0.3-1.5,0.5c1.7,0.6,3.4,1.1,5,1.7
		c2.9,1.1,5.4,2.9,7,5.5c1.9,3.1,1.5,6.9-1.6,9c-3,2.2-5.6,2.4-8.7-0.3c-2.7-2.3-4-5.5-4.6-8.9c-0.3-2-0.6-4-0.9-5.9
		c-4.2,1.1-8.6,1.7-12.9,1.9c1.5,0.8,2.9,1.6,4.2,2.5c2.6,1.6,4.7,3.8,5.8,6.7c1.3,3.4,0.1,7-3.2,8.5c-3.4,1.5-6,1.3-8.6-1.9
		c-2.2-2.8-2.9-6.1-2.9-9.6c0-2,0.2-4.1,0.2-6.1c-2.9-0.1-5.8-0.3-8.7-0.8c-0.9-0.1-1.9-0.3-2.8-0.5c1.1,1.3,2.3,2.6,3.4,4
		c1.9,2.4,3.1,5.2,3.2,8.3c0.1,3.7-2.3,6.6-5.9,6.9c-3.7,0.3-6.1-0.8-7.4-4.7c-1.1-3.4-0.6-6.8,0.5-10c0.7-1.8,1.5-3.6,2.2-5.4
		c-2.8-0.7-5.6-1.5-8.4-2.6c0.6,1.7,1.2,3.5,1.8,5.2c0.9,2.9,1,5.9,0,8.8c-1.2,3.4-4.5,5.4-8,4.3c-3.6-1-5.4-2.9-5.2-7
		c0.2-3.6,1.8-6.5,4.1-9.1c1.1-1.3,2.3-2.4,3.5-3.7c-4.3-1.8-8.6-4-13-6.5c0-0.1-0.1-0.1-0.1-0.1c0.1,0,0.1,0.1,0.1,0.1
		c0.8,1.9,1.6,3.7,2.4,5.5c1.2,2.9,1.5,5.8,0.7,8.8c-1,3.6-4.1,5.7-7.7,4.9c-3.6-0.8-5.6-2.5-5.7-6.6c-0.1-3.6,1.3-6.6,3.4-9.4
		c1.3-1.7,2.7-3.3,4-4.9v-0.1c-2.1-1.3-4.2-2.7-6.3-4.2l1.3-1.9c0.7,0.5,1.4,0.9,2,1.5c0,0.1-0.1,0.1-0.1,0.2l0.3-0.1
		c-0.1-0.1-0.1-0.1-0.2-0.1c1-2.6,2.3-5.2,3.6-7.8C207.5,1856.1,209.7,1854.1,212.3,1852.8L212.3,1852.8z"/>
</g>
<g id="Layer_9">
	<path fill="#2D9782" d="M248,1913c0,0-0.1,0.2,0.1,0.8c0.2,0.6,0.3,0.9,0.3,0.9s-3.1-0.4-6.7,1c-1.3,0.6-1.6,0.9-1.6,0.9s0.1,1,1,2
		c0,0-1.9,0.2-3.7,0.8c-1.9,0.7-3.3,2.2-3.3,2.2s0.2,1.2,1,1.6c0.7,0.4-0.9-0.3-3.7,1.3c-2.8,1.7-3.8,3.7-3.8,3.7s0.1,1.1,0.9,1.9
		c0,0-1.7,0.2-3.9,2.4c-2.1,2.1-2.9,4.9-3,5.4c0.2,0.2,2.4,2.4,5.2,3.1c3,0.9,4.5,0.2,4.5,0.2c-0.3,1,0.1,2.1,0.1,2.1s2,1.3,5.2,1.4
		c3.3,0.1,4.3-1.4,3.8-0.6c-0.4,0.7-0.1,1.9-0.1,1.9s2,0.6,4,0.3c2-0.3,3.7-1.1,3.7-1.1c-0.3,1.4,0.1,2.3,0.1,2.3s0.3,0.2,1.8,0.1
		c3.8-0.5,6.3-2.3,6.3-2.3s-0.1,0.3,0.1,1s0.3,0.8,0.3,0.8s0.2,0.3,2.1-0.5c1.9-0.8,5.1-3.7,5.1-3.7c0.5,1.2,0.4,2.4,1.8,1.6
		c4.4-2.6,8.3-6.2,11.4-10.3c1.4-1.9,2.7-3.8,3.7-5.9c0.5-1,1.2-2.3,1.7-3.6c-1.9,0.6-2.4,0.8-3.1,0.9c-7,1.8-11.4,1.9-15.8,1.4
		c3.7-2.6,7.6-4.7,14.5-6.5c0.6-0.2,1.2-0.2,3.1-0.7c-1.1-0.8-2.3-1.6-3.3-2.3c-1.9-1.3-4-2.4-6.1-3.3c-4.7-2-9.8-3.4-15-3.4
		c-1.6,0-1,1-0.8,2.3c0,0-4.2-1-6.3-0.8C248,1912.6,248,1913,248,1913"/>
	<path stroke="#000000" stroke-width="1.03" stroke-miterlimit="10" d="M238.3,1925.5c3.4,1.6,6.8,3.1,10.5,4.8
		c-4.4,1-22.1,6.3-26,7.3c0.1,0.2,0.1,0.3,0.1,0.5c4-0.9,21.7-6.2,26.4-7.4c-2.5,3.6-4.7,6.8-6.8,9.8l0.5,0.2c0.3-0.4,0.8-0.8,1-1.2
		c1.9-2.6,3.7-5.3,5.6-7.9c0.3-0.5,1-1,1.7-1.2c3.1-0.8,6.3-1.6,10-2.4c-3,5.2-5.9,10.1-8.8,15.1l0.6,0.2c0.3-0.4,0.7-0.8,0.9-1.2
		c2.5-4.2,5.1-8.5,7.5-12.7c0.7-1.3,1-1.9,2.7-2.2c-1.3,0.3-2.2-0.1-3.1-0.6c-4.2-2.7-8.4-5.3-12.7-8c-0.5-0.3-1-0.5-1.5-0.8
		c-0.2,0.1-0.3,0.3-0.5,0.4c4.8,3,9.7,6.1,14.8,9.3c-3.7,0.9-6.9,1.7-10.2,2.4c-0.6,0.1-1.5-0.1-2.1-0.3c-2.9-1.2-7.7-3.2-10.5-4.5"
		/>
</g>
<g id="Layer_8">
	<path fill="#4356A0" d="M171.4,1852.9c0,0,3.5,7.7,3.7,11.8c0.2,4-4,3.6-4.2,8.7c-0.2,5.1-0.8,2.2-2.2,6.3
		c-1.9-3.3-2.1-0.6-3.2-5.8c-1.1-5-5.2-3.9-5.7-7.9c-0.5-4,1.7-12.2,1.7-12.2L171.4,1852.9z"/>
	<path d="M166.8,1854l-0.6,0.1l2.1,24.9l0.4,0.6l0.3-0.7"/>
	<path fill="#4356A0" d="M172.2,1844.8c0,0,8.4-0.9,12.3,0.1c3.9,1,2.2,4.9,6.9,6.8c4.8,1.8,1.9,1.5,5.2,4c-3.7,0.7-1.2,1.8-6.5,1.2
		c-5.1-0.5-5.3,3.8-9.3,3c-3.9-0.8-11.1-5.4-11.1-5.4L172.2,1844.8z"/>
	<path d="M171.8,1849.5l-0.2,0.6l24.3,5.8l0.8-0.2l-0.6-0.5"/>
	<path fill="#4356A0" d="M173.2,1846.3c0,0,6.5-5.5,8.4-9c1.9-3.5-2.1-5-0.1-9.7c2-4.7,0.3-2.3,0.8-6.6c-3.1,2.2-2.2-0.3-5.4,3.8
		c-3.1,4.1-6.4,1.2-8.5,4.7c-2.1,3.4-3.8,11.8-3.8,11.8L173.2,1846.3L173.2,1846.3z"/>
	<path d="M169.5,1843.3l-0.6-0.3l12.7-21.5l0.6-0.5l-0.1,0.8"/>
	<path fill="#4356A0" d="M166.5,1841.7c0,0-3.2-7.9-5.9-10.8c-2.7-3-5.4,0.5-9.3-3c-3.8-3.4-2.2-1-6-2.7c1.1,3.6-1,1.9,2,6.3
		c2.9,4.2-0.8,6.5,1.7,9.5c2.6,3.1,10,7.2,10,7.2L166.5,1841.7z"/>
	<path d="M162.6,1844.3l-0.5,0.5l-16.5-18.7l-0.2-0.8l0.7,0.3"/>
	<path fill="#4356A0" d="M163.5,1854.9c0,0-6.3,5.7-10,7.2c-3.7,1.5-4.7-2.7-9.6-1.3c-4.9,1.4-2.4-0.1-6.6-0.1
		c2.6-2.8-0.1-2.2,4.5-4.8c4.4-2.6,2-6.2,5.7-7.9c3.7-1.7,12.1-2.3,12.1-2.3L163.5,1854.9L163.5,1854.9z"/>
	<path fill="#2D9681" d="M161.2,1846.1c0,0-8.8-5.3-17-2.6c-1,0.3-1.3,1.5-0.4,1.9c0.9,0.3,8.8,3.9,17.2,1.6
		C161.3,1846.6,161.2,1846.1,161.2,1846.1z M165.6,1842.5c0,0,4-9.5,0.2-17.2c-0.5-0.9-1.7-1-1.9-0.1c-0.2,0.9-2.6,9.3,0.9,17.3
		C165.1,1842.6,165.6,1842.5,165.6,1842.5z M171.2,1846.8c0,0,10.3-0.2,15.8-6.8c0.6-0.8,0.3-2-0.6-1.8c-0.9,0.2-9.5,1.3-15.5,7.7
		C170.9,1846.4,171.2,1846.8,171.2,1846.8z M169.7,1852.7c0,0,9.7,3.7,12.6,11.8c0.3,1-0.4,2-1.2,1.5s-8.5-4.5-11.9-12.6
		C169.3,1852.9,169.7,1852.7,169.7,1852.7z M164.7,1854.2c0,0-2.3,10.1-9.9,14.1c-0.9,0.5-2-0.1-1.6-1c0.4-0.9,3.3-9.1,10.8-13.5
		C164.3,1853.8,164.7,1854.2,164.7,1854.2z"/>
	<path d="M161,1850.9l-0.2-0.6l-23,9.8l-0.5,0.6h0.8"/>
	<circle fill="#4356A0" cx="163.7" cy="1847.6" r="1"/>
	<circle fill="#4356A0" cx="165" cy="1850.8" r="1"/>
	<circle fill="#4356A0" cx="167" cy="1846.2" r="1"/>
	<circle fill="#4356A0" cx="168.3" cy="1849.4" r="1"/>
	<path fill="#EDEEE2" d="M168.7,1855c0.4-0.1,1-0.1,1.3-0.6c0.2-0.3,0.2-0.6,0.2-1.1c0-0.1-0.1-0.2-0.1-0.2c0.3,0.1,0.6,0.1,0.8,0
		c0.5-0.2,0.8-0.7,0.9-1.1c0.1-0.1,0.1-0.2,0.2-0.3c0.2,0.1,0.7-0.1,0.9-0.4c0.2-0.2,0.3-0.5,0.1-1c-0.1-0.1-0.1-0.2-0.2-0.3
		c0.8-0.5,0.6-1,0.6-1.3c-0.1-0.3-0.4-0.5-0.6-0.6v-0.3c0-0.3,0.1-0.7-0.1-1c-0.2-0.5-0.6-0.7-1.2-0.7h-0.1c0.4-0.5,0.5-0.9,0.3-1.3
		c-0.2-0.3-0.5-0.6-0.7-0.8c-0.1-0.1-0.2-0.2-0.2-0.2c0.1-0.2,0.1-0.5,0-0.9c-0.1-0.2-0.4-0.8-1.3-0.5c0-0.1-0.1-0.2-0.1-0.3
		c-0.2-0.5-0.6-0.6-0.8-0.6c-0.4,0-0.8,0.2-0.9,0.4c-0.1,0-0.2-0.1-0.3-0.1c-0.5-0.2-1.4-0.5-1.9,0.4l-0.1-0.1
		c-0.3-0.4-0.6-0.6-0.9-0.6c-0.5-0.1-1,0.3-1.3,0.5c-0.1,0.1-0.2,0.2-0.3,0.2c-0.2-0.2-0.7-0.2-1.1-0.1c-0.2,0.1-0.5,0.5-0.5,1.1
		c-0.5,0-0.8,0.2-0.9,0.5c-0.2,0.3-0.2,0.8-0.1,1c0.1,0.1,0.1,0.2,0.2,0.2c0,0.1-0.1,0.2-0.2,0.3c-0.2,0.3-0.6,0.9-0.3,1.5
		c0.1,0.2,0.2,0.3,0.3,0.4h-0.1c-0.5,0.1-0.8,0.3-1,0.6c-0.3,0.5-0.2,1-0.1,1.4c0,0.1,0.1,0.3,0.1,0.3c-0.2,0.1-0.3,0.3-0.4,0.5
		c-0.1,0.2-0.1,0.5,0,0.8c0.1,0.3,0.3,0.5,0.8,0.6c-0.2,0.3-0.2,0.7-0.1,0.9c0.1,0.3,0.3,0.4,0.5,0.5c0.2,0.1,0.5,0.1,0.7,0.1
		c0.1,0.1,0.1,0.2,0.2,0.3c0.2,0.3,0.5,0.8,1,0.9c0.3,0.1,0.7-0.1,1-0.3c0,0.1,0.1,0.3,0.1,0.3c0.2,0.6,0.9,0.7,1.3,0.8
		c0.1,0,0.3,0.1,0.3,0.1c0,0.1,0.1,0.2,0.1,0.3c0.1,0.3,0.4,0.6,0.8,0.6c0.2,0.1,0.6,0,1-0.4c0.5,0.5,0.9,0.5,1.1,0.4
		c0.4-0.1,0.7-0.6,0.7-0.8C168.4,1855,168.6,1855,168.7,1855L168.7,1855z M170.4,1846.5h0.1c-0.6,0.8-0.1,2.6,0,3
		c-0.3,0.3-1.7,1.9-1.3,2.9c-0.9-0.1-2.3,0.5-2.6,0.7c-0.3-0.2-2.3-1.4-3.1-0.7c0-0.1-0.1-0.1-0.1-0.2c-0.3-0.9-1.4-1.6-1.7-1.9
		c0.1-0.3,0.2-1.6-0.2-2.5c-0.1-0.1-0.1-0.2-0.2-0.3c0.2,0,0.3-0.1,0.5-0.2c0.8-0.6,1.2-2.2,1.2-2.6c0.3-0.1,1.6-0.6,2.2-1.3
		c0.6,0.9,2.5,0.9,2.9,0.9C168.4,1844.8,169.3,1846.4,170.4,1846.5L170.4,1846.5z"/>
</g>
<g id="Layer_7">
	<path fill="#80B9AA" d="M140.6,1898.2c0,0-2,8.4,1.2,14.7c0.5-0.1,0.1-0.3,0.1-0.3l3.4,5.1l0.1-0.3l5.8,6.5l0.2-0.5l3.8,3.4
		l2.7,1.7l0.1-0.3l3.7,1.4l0.2,0.1l0.1-0.3c0,0,3.2,1.1,5.1,0.9l-0.2-0.5c0,0,3.7,0.9,6.3-0.7l-0.2-0.3c0,0,3.1-0.1,3.4-0.3
		l-0.3-0.5l3.6-0.4l-0.4-0.5c0,0,5.8-1.6,6.2-2l-0.2-0.5l3.1-1.3l-0.4-0.5l3.6-0.8l-0.2-0.6l7.4-0.9v-0.1l-4.9-5.6l0.6-0.3l-2.2-3
		l0.6-0.1l-1.4-3l0.5-0.2c0-0.6-3.3-5.6-3.3-5.6l0.6-0.1l-2.3-2.7l0.6-0.1c0-0.3-2.3-2.5-2.3-2.5l0.3-0.1c-0.9-3-4.2-4.7-4.2-4.7
		l0.5-0.2c-1.3-1.4-4.4-2.7-4.4-2.7l0.1-0.3l-0.2-0.1l-3.7-1.4l0.1-0.3l-3.1-0.5h-5.1l0.2-0.5l-8.6,0.9l0.1-0.3l-5.9,1.6
		c0,0,0.4,0.1,0.1-0.3C144.6,1890.5,140.6,1898.1,140.6,1898.2L140.6,1898.2z"/>
	<path fill="#010101" d="M162.2,1929.3l1.2,0.3l-20.1-30l10.5,4l17.6,26.1c0.3-0.1,0.5-0.1,0.8-0.2l-17.1-25.4l10.1,3.8l13.2,19.6
		l0.9-0.1l-12.8-19l10.2,3.9l8.7,12.7c0.1-0.1,0.2-0.1,0.2-0.1l-0.2-0.5l0.4-0.2l-7.8-11.4l20,7.6l0.7-0.1v-0.1l-0.6-0.6l-20-7.6
		l13.4-3.3l-0.2-0.4l0.5-0.2c0-0.1,0-0.1-0.1-0.2l-15,3.7l-10.1-3.8l22.3-5.7l-0.6-0.6l-22.9,5.8l-10.1-3.8l29.7-7.6
		c-0.1-0.2-0.3-0.5-0.5-0.7l-30.6,7.7l-10.5-4l35-9c-0.5-0.3-0.9-0.5-1.1-0.5l-35.1,9.1l-1.5-0.6c-0.1,0.2-0.2,0.3-0.2,0.3
		s-0.1,0.1-0.1,0.3l1.6,0.6L162.2,1929.3L162.2,1929.3z"/>
</g>
<g id="Layer_6">
	<path fill="#EDEEE2" d="M150.3,1959.6c0,0-9.5-8.1-17.2-6.4c-7.7,1.7,16,7.5,16.8,7.5C150.2,1960.2,150.3,1959.6,150.3,1959.6z"/>
	<path fill="#EDEEE2" d="M151.9,1958.3l-0.7,0.6c0,0-12.6-8.7-11-15.5c0.2-0.8,1.6-0.5,3.3,1.7
		C147.9,1950.7,151.1,1955.3,151.9,1958.3z"/>
	<path fill="#EDEEE2" d="M152.6,1969.8l0.8,0.5c0,0-5.1,14.5-12.1,14.7c-0.8,0-0.9-1.4,0.8-3.6
		C146.2,1975.7,149.9,1971.3,152.6,1969.8L152.6,1969.8z"/>
	<path fill="#EDEEE2" d="M149.6,1961.5c0,0-18.3-9.2-19.7-6.1c-1.4,3.1,15.3,7.5,19.3,6.4L149.6,1961.5z"/>
	<path fill="#EDEEE2" d="M149.1,1964.4c0,0,0.5-0.5-0.5-1.1c-0.9-0.6-16.3-4-18.9-1.6C127.2,1964,142.5,1968,149.1,1964.4
		L149.1,1964.4z"/>
	<path fill="#EDEEE2" d="M152.4,1957.8c0,0-7.9-9.8-5.9-15.2c0.4-0.8,3.4,0.1,4.4,4.8c1,4.7,2.4,10.1,2.4,10.1L152.4,1957.8z"/>
	<path fill="#EDEEE2" d="M155.8,1956.9l-0.6,0.1c0,0-7.8-16.8-5.3-19.2c0.6,0,1.3,0.4,1.3,0.4S157.5,1946.5,155.8,1956.9
		L155.8,1956.9z"/>
	<path fill="#EDEEE2" d="M159.3,1970.1l0.5-0.3c0,0,12.8,13.4,11.2,16.4c-0.6,0.2-1.4,0.1-1.4,0.1S161,1980.4,159.3,1970.1
		L159.3,1970.1z"/>
	<path fill="#EDEEE2" d="M158.3,1957.3c0,0-0.9,0.1-1.1-0.5c-0.1-0.6-2-16.6,2.1-19.6c1-0.6,2.2,0.9,2,2.2
		C161.3,1940.8,161.6,1953.6,158.3,1957.3z"/>
	<path fill="#EDEEE2" d="M159,1957.4l0.6,0.7c0,0,6.9-5.8,7.6-15.5c0.1-1,0.2-2.7-0.7-3.1C165.6,1939,162.8,1941.9,159,1957.4z"/>
	<path fill="#EDEEE2" d="M161.4,1959.5c0,0,9.8-4.4,12.5-13c0.3-1-0.5-2-1.3-1.5s-8.6,5.2-11.7,13.7
		C160.9,1959.3,161.4,1959.5,161.4,1959.5L161.4,1959.5z"/>
	<path fill="#EDEEE2" d="M162,1960.6l0.6,0.6c0,0,17.5-1.1,18.8-7.2C181.6,1953,168.6,1954.8,162,1960.6L162,1960.6z"/>
	<path fill="#EDEEE2" d="M150.1,1966.9c0,0-17.3,4.5-17.6,8.2c0,0-0.8,2.3,4,1c4.7-1.3,12.9-5.8,13.9-7.9
		C150.8,1967,150.1,1966.9,150.1,1966.9L150.1,1966.9z"/>
	<path fill="#EDEEE2" d="M163.3,1965.6c0,0,16.5,2.5,17.7,3.9c0.3,0.6,0.1,0.8,0.1,0.8s0.6,0.2-0.7,0.6c-1.3,0.5-10.4,2.1-17.6-4.1
		C162.9,1966.5,162.3,1965.9,163.3,1965.6L163.3,1965.6z"/>
	<path fill="#EDEEE2" d="M163.2,1961.7c0,0,16.1-4.2,17.8-3.4c0.6,0.4,0.4,0.7,0.4,0.7s0.6-0.1-0.3,0.8c-1,0.9-8.7,6.1-17.8,3.2
		C163.2,1962.6,162.5,1962.4,163.2,1961.7z"/>
	<path fill="#EDEEE2" d="M161.5,1968.5c0,0,9.5,6.5,13.7,12.6c0.5,1.3-1.3,1.3-1.3,1.3s-8.2-3.7-12.9-13.3
		C161.2,1968.9,161.5,1968.5,161.5,1968.5L161.5,1968.5z"/>
	<path fill="#EDEEE2" d="M161.8,1967.9c0,0,7.7,8.5,14.5,11.7c1.3,0.3,1-1.5,1-1.5s-4.8-7.6-15.1-10.9
		C162.2,1967.5,161.8,1967.9,161.8,1967.9z"/>
	<path fill="#EDEEE2" d="M158.1,1970.4c0,0,3.2,3.1,4.6,10.1c1.4,6.9,1,12.1-2,7s-3.7-16.4-3.1-16.8L158.1,1970.4z"/>
	<path fill="#EDEEE2" d="M150.3,1966c0,0-3.2,3.1-10.1,4.4c-6.9,1.3-12.1,0.8-7-2.1c5.1-2.9,16.5-3.4,16.8-2.8L150.3,1966z"/>
	<path fill="#EDEEE2" d="M156.8,1971.1c0,0,2,17.6-4.7,19.4c-1.2,0.2-1.5-1.3,0.1-7.7c1.6-6.5,3.4-11.8,3.4-11.8
		S156.2,1970.4,156.8,1971.1z"/>
	<path fill="#EDEEE2" d="M151.6,1969.1c0,0-2.7,0.2-8,5.4c-5.3,5.1-7.7,6.6-5.8,8.6c0.7,0.3,5.5-0.4,14.2-12.6
		C152,1970.4,152.5,1969.5,151.6,1969.1z"/>
	<path fill="#EDEEE2" d="M153.2,1970.6c0,0-7.8,13-5.5,16.5c1,1,1.6,0.5,2.1-0.7c0.5-1.1,5.5-13.3,4.6-15.5
		C154.2,1970.4,153.3,1970.4,153.2,1970.6L153.2,1970.6z"/>
	<path fill="#EDEEE2" d="M162.6,1965.6c0,0,20.2,3.1,20.6-0.3c0.3-3.4-16.9-2.3-20.3-0.1L162.6,1965.6L162.6,1965.6z"/>
	<path fill="#E2B522" d="M164,1964.4c0-0.2-0.3-0.3-0.6-0.3h0l0,0c0,0,0,0,0-0.1c0,0,0,0,0,0c0.2,0,0.3-0.1,0.4-0.1
		c0.1-0.1,0.2-0.1,0.2-0.2c0,0-0.2-0.1-0.4-0.2c0.2-0.1,0.3-0.2,0.3-0.3c0-0.1-0.1-0.2-0.3-0.2c0.2-0.1,0.3-0.2,0.2-0.3
		c0-0.1-0.2-0.2-0.5-0.2c0.2-0.1,0.4-0.2,0.3-0.4c-0.1-0.2-0.3-0.2-0.6-0.1c0,0,0,0,0,0c0,0,0,0,0,0c0.3-0.1,0.5-0.3,0.4-0.5
		c0-0.1-0.2-0.1-0.4-0.1c0.2-0.1,0.3-0.3,0.2-0.4c0-0.1-0.2-0.1-0.4-0.1c0.1-0.1,0.2-0.2,0.1-0.3c-0.1-0.1-0.3-0.2-0.5-0.1
		c0.2-0.2,0.4-0.4,0.2-0.5c-0.1-0.1-0.4-0.1-0.6,0.1c0,0,0,0,0,0c0,0,0,0,0,0c0,0,0,0,0,0c0.3-0.2,0.4-0.5,0.3-0.6
		c-0.1-0.1-0.3-0.1-0.5,0c0.2-0.2,0.2-0.4,0.1-0.5c-0.1-0.1-0.2-0.1-0.3,0c0.1-0.2,0.1-0.3,0.1-0.4c-0.2-0.1-0.4,0-0.5,0.1
		c0.1-0.2,0.1-0.3,0-0.4c-0.1-0.1-0.4,0-0.6,0.2c0,0,0,0,0,0c0,0,0,0,0,0c0,0,0,0,0,0c0.2-0.2,0.2-0.5,0.1-0.6
		c-0.1-0.1-0.3,0-0.5,0.2c0.1-0.2,0.1-0.4,0-0.5c-0.1-0.1-0.2,0-0.4,0.1c0.1-0.2,0-0.4-0.1-0.4c-0.1-0.1-0.2,0-0.3,0.1
		c0-0.2,0-0.3-0.1-0.4c-0.2-0.1-0.5,0.1-0.6,0.4c0,0,0,0,0,0c0.1-0.3,0-0.6-0.1-0.6c-0.2-0.1-0.4,0.1-0.5,0.4c0,0,0,0,0,0
		c0.1-0.3,0-0.6-0.1-0.6c-0.1,0-0.2,0.1-0.3,0.2c0-0.2-0.1-0.3-0.2-0.3c-0.2,0-0.3,0.1-0.4,0.2c0-0.2-0.1-0.3-0.2-0.4
		c-0.1,0-0.2,0.1-0.2,0.1c-0.1,0.2-0.1,0.3-0.1,0.4c0,0,0,0,0,0c0,0,0,0,0,0c0-0.3-0.1-0.6-0.3-0.6s-0.3,0.3-0.3,0.6l0,0l0,0
		c0,0,0,0,0,0c0-0.1-0.1-0.2-0.1-0.3c-0.1-0.1-0.1-0.2-0.2-0.2c-0.1,0-0.2,0.1-0.2,0.3c-0.1-0.2-0.2-0.3-0.3-0.2
		c-0.1,0-0.2,0.1-0.2,0.3c0-0.1-0.1-0.1-0.1-0.1c-0.1-0.1-0.2-0.1-0.2-0.1c-0.2,0-0.2,0.3-0.2,0.6c0,0,0,0,0,0c0,0,0,0,0,0
		c0,0,0,0,0,0c-0.1-0.3-0.3-0.5-0.4-0.5c-0.2,0.1-0.2,0.3-0.1,0.6c0,0,0,0,0,0c-0.1-0.3-0.3-0.5-0.5-0.4c-0.1,0-0.1,0.2-0.1,0.4
		c-0.1-0.2-0.3-0.3-0.4-0.2c-0.1,0-0.1,0.2-0.1,0.4c-0.1-0.1-0.3-0.2-0.4-0.2c-0.2,0.1-0.1,0.4,0,0.7c0,0,0,0,0,0
		c-0.2-0.3-0.4-0.4-0.6-0.3c-0.1,0-0.1,0.2,0,0.4c-0.2-0.1-0.3-0.2-0.4-0.1c-0.1,0.1-0.1,0.3,0,0.4c-0.2-0.1-0.3-0.2-0.4-0.1
		c-0.1,0.1-0.1,0.2,0,0.4c-0.2-0.1-0.3-0.1-0.4-0.1c-0.1,0.2,0,0.4,0.2,0.6c0,0,0,0,0,0c-0.2-0.2-0.5-0.2-0.6-0.1
		c-0.1,0.1,0,0.2,0,0.4c-0.2-0.1-0.3,0-0.4,0c-0.1,0.2,0,0.4,0.3,0.6c0,0,0,0,0,0c-0.2-0.2-0.6-0.2-0.6,0c0,0.1,0,0.2,0.1,0.4
		c-0.2,0-0.3,0-0.4,0.1c-0.1,0.1,0,0.3,0.3,0.5c0,0,0,0,0,0c-0.3-0.1-0.5-0.1-0.6,0.1c0,0.1,0,0.2,0.2,0.4c-0.2,0-0.4,0-0.4,0.1
		c0,0.1,0.1,0.3,0.3,0.4c-0.2,0-0.4,0-0.4,0.2c0,0.1,0.1,0.2,0.3,0.3c-0.2,0-0.4,0.1-0.4,0.2c0,0.1,0.1,0.3,0.3,0.3
		c-0.2,0-0.4,0.1-0.4,0.2c0,0.1,0.2,0.3,0.4,0.3c-0.2,0-0.4,0.1-0.4,0.3c0,0.1,0.1,0.2,0.3,0.3c-0.2,0-0.3,0.1-0.3,0.3
		c0,0.2,0.1,0.3,0.3,0.3c-0.2,0.1-0.3,0.2-0.3,0.3c0,0.2,0.3,0.3,0.6,0.2c0,0,0,0,0,0c-0.3,0.1-0.5,0.2-0.5,0.4
		c0,0.1,0.2,0.2,0.4,0.2c-0.2,0.1-0.3,0.2-0.3,0.3c0.1,0.2,0.3,0.2,0.6,0.1c0,0,0,0,0,0c-0.3,0.1-0.5,0.3-0.4,0.5
		c0,0.1,0.2,0.1,0.4,0.1c-0.2,0.1-0.3,0.3-0.2,0.4c0.1,0.1,0.3,0.1,0.6,0c0,0,0,0,0,0c-0.3,0.1-0.4,0.3-0.4,0.5
		c0.1,0.1,0.2,0.1,0.4,0.1c-0.1,0.1-0.2,0.3-0.1,0.4c0.1,0.1,0.3,0.1,0.4,0c-0.1,0.2-0.2,0.3-0.1,0.4c0,0.1,0.2,0.1,0.4,0
		c-0.1,0.2-0.2,0.3-0.1,0.4c0.2,0.1,0.4,0.1,0.6-0.2c0,0,0,0,0,0c-0.2,0.2-0.3,0.5-0.2,0.6c0.1,0.1,0.3,0,0.5-0.1
		c-0.1,0.2-0.1,0.3,0,0.4c0.1,0.1,0.2,0,0.4,0c-0.1,0.2,0,0.3,0,0.4c0.2,0.1,0.4,0,0.6-0.3c0,0,0,0,0,0c-0.2,0.2-0.2,0.6,0,0.6
		c0.1,0.1,0.3-0.1,0.5-0.3c0,0,0,0,0,0c-0.2,0.3-0.2,0.6,0,0.6c0.1,0.1,0.3,0,0.4-0.2c0,0.2,0,0.4,0.1,0.4c0.1,0.1,0.2,0,0.4-0.2
		c0,0.2,0,0.4,0.1,0.4c0.1,0,0.3-0.1,0.4-0.3c0,0.2,0,0.4,0.2,0.4c0.1,0.1,0.3-0.1,0.4-0.4c0,0,0,0,0,0c0,0.3,0,0.5,0.2,0.6
		c0.1,0,0.3-0.1,0.3-0.3c0,0.2,0.1,0.4,0.2,0.4c0.1,0,0.2-0.2,0.3-0.4c0,0.2,0.1,0.4,0.3,0.4c0.1,0,0.2-0.1,0.2-0.3
		c0.1,0.1,0.1,0.3,0.2,0.3c0.2,0,0.3-0.2,0.3-0.6c0,0,0,0,0,0c0,0.3,0.2,0.5,0.3,0.5c0.1,0,0.2-0.2,0.2-0.4c0.1,0.2,0.2,0.3,0.3,0.3
		c0.2,0,0.2-0.2,0.2-0.6c0.1,0.3,0.2,0.5,0.4,0.4c0.1,0,0.1-0.3,0.1-0.5c0.1,0.2,0.2,0.4,0.4,0.3c0.1,0,0.2-0.2,0.1-0.4
		c0.1,0.2,0.3,0.2,0.4,0.2c0.1,0,0.2-0.2,0.2-0.3c0.1,0.1,0.3,0.2,0.4,0.2c0.2-0.1,0.2-0.4,0-0.7c0,0,0,0,0,0
		c0.2,0.3,0.4,0.5,0.6,0.3c0,0,0-0.2,0-0.4c0.2,0.1,0.3,0.2,0.4,0.1c0.1-0.1,0.1-0.4-0.1-0.6c0,0,0,0,0,0c0,0,0,0,0,0c0,0,0,0,0,0
		c0.2,0.2,0.5,0.3,0.6,0.2c0.1-0.1,0.1-0.2,0-0.3c0.1,0.1,0.3,0.1,0.4,0c0.1-0.1,0.1-0.3-0.1-0.5c0.2,0.1,0.4,0.1,0.4,0
		c0.1-0.1,0.1-0.2,0-0.4c0.2,0.1,0.4,0.1,0.4,0c0.1-0.1-0.1-0.4-0.3-0.6c0,0,0,0,0,0c0,0,0,0,0,0c0,0,0,0,0,0
		c0.3,0.2,0.6,0.2,0.6,0.1c0-0.1,0-0.2-0.1-0.4c0.2,0,0.3,0,0.4-0.1c0.1-0.1,0-0.3-0.1-0.4c0.2,0,0.4,0,0.4-0.1
		c0.1-0.2-0.1-0.3-0.3-0.4c0.2,0.1,0.4,0,0.5-0.1c0.1-0.2-0.1-0.3-0.4-0.5c0,0,0,0,0,0c0.3,0.1,0.6,0,0.6-0.1c0-0.1,0-0.2-0.1-0.2
		c0,0-0.1-0.1-0.1-0.1c0.2,0,0.3-0.1,0.4-0.2c0-0.1-0.1-0.3-0.3-0.3c0.2,0,0.4-0.1,0.4-0.2c0-0.1-0.1-0.2-0.1-0.2
		c-0.1,0-0.2-0.1-0.3-0.1C163.8,1964.6,164,1964.5,164,1964.4z"/>
</g>
<g id="Layer_5">
	<path fill="#447E65" d="M121.1,1964.8l0.2,1.3l-5.1,0.9c0,0-2.3,1.4-2.5,3.7s-1.5,1.3-1.4,0.9c0.1-0.5-2.6,2.4-2.4,3.4
		c0.2,0.9-0.8,3-2.3,2.9c-1.5-0.2-1.2,0.8-1.6,2.2c-0.3,1.3-0.2,3.2-2.9,3.1c-0.1,1.3-0.3,3.4-3,4.9c-2.7,1.5-7.7,3.9-9.2,3
		c-1.5-0.9-3.7-0.1-3.6,0.1c0.1,0.2-0.6,1-2.7,0.3c-2-0.6-21.4-3.4-39.5-12.9c13.7-15.2,30.9-24.6,32.5-25.9
		c1.7-1.3,2.6-0.8,2.6-0.6s2.3,0.2,3.4-1.2c1-1.3,6.6-0.8,9.7-0.4c3,0.4,4,2.4,4.5,3.6c2.6-1,3,0.8,3.8,1.9c0.8,1.1,0.9,2.2,2.3,1.5
		c1.3-0.7,3,0.9,3.1,1.9c0.2,0.9,3.7,2.7,3.4,2.3c-0.2-0.5,0.6-1.8,1.6,0.3c1,2.2,3.6,2.6,3.6,2.6l5.1-0.9L121.1,1964.8"/>
	<path d="M92.7,1982.9l-0.5-0.3l7.7-13.7l-10,1.8l-8,14.1l-0.5-0.3l7.7-13.7l-10,1.8l-8,14.1l-0.5-0.3l7.7-13.7l-32.6,5.9
		c-0.2-0.1-0.3-0.2-0.5-0.2l0.3-0.3l32.7-5.9l-12.3-10.2l0.4-0.5L79,1972l10-1.8l-12.1-10.2l0.4-0.5l12.5,10.5l10-1.8L87.8,1958
		l0.4-0.5l12.5,10.5l20.3-3.7l0.1,0.3l0.1,0.3l-20.4,3.7L92.7,1982.9L92.7,1982.9z"/>
</g>
<g id="Layer_2">
	<path fill="#80B9AA" d="M60.2,1804.3c0,0,1.6,5.8,0.3,9.7c0,0.1,0,0.1-0.1,0.1l-0.3-0.3c0,0-0.3,2.6-0.7,3.2l-0.2-0.4
		c0,0-0.5,2-0.7,2.4l-0.4-0.4c0,0-0.5,2-0.8,2.3c-0.1-0.4-0.3-0.3-0.3-0.3l-1.3,2c0,0-0.1-0.3-0.1-0.4c-0.1-0.1-1.2,1.7-1.2,1.7
		v-0.7l-1.9,2.2l-0.1-0.8l-2.4,2.6l-0.2-0.6l-1.5,1.3l-0.1-0.7l-2.2,1.9l-0.4-0.9l-2.3,1.4l0.2-1.1l-1.9,1.4l-0.2-1.2l-1.9,1.2
		l0.1-0.7l-2,0.9l0.1-0.8l-2.3,0.9l0.2-0.8l-1.7,0.7v-0.6l-1.8,0.9l1-1.7h-0.6l0.7-1.7l-0.8,0.2l1-2.3l-0.8,0.3l0.9-2l-0.7,0.1
		l1.2-1.9l-1.3-0.2l1.4-1.9l-1.1,0.2l1.4-2.3l-0.9-0.4l1.9-2.2l-0.6-0.1l1.4-1.5l-0.6-0.2l2.6-2.4l-0.8-0.1l2.2-1.9h-0.7
		c0,0,1.7-1.2,1.7-1.2c-0.1-0.1-0.4-0.1-0.4-0.1l2-1.3c0,0,0-0.2-0.3-0.3c0.3-0.3,2.3-0.8,2.3-0.8l-0.4-0.4c0.5-0.2,2.4-0.7,2.4-0.7
		l-0.4-0.2c0.6-0.4,3.2-0.7,3.2-0.7l-0.2-0.2c0.1,0,0.1,0,0.1-0.1c4-1.3,9.7,0.4,9.7,0.4L60.2,1804.3L60.2,1804.3z"/>
	<path d="M32.4,1830.6l0.6-1.3l26.3-26.1l0.3,0.3l0.2,0.3l-26.2,26.1"/>
	<path fill="#3E879F" d="M66.5,1804.7c0,0,5.2,2.9,7.1,6.6c0,0.1,0.1,0.1,0.1,0.1h-0.4c0,0,1.6,2,1.7,2.8l-0.5-0.1
		c0,0,1,1.7,1.2,2.2h-0.6c0,0,1,1.7,1.1,2.2c-0.3-0.2-0.5,0-0.5,0l0.5,2.3c0,0-0.2-0.2-0.3-0.2c-0.1-0.1,0.3,2,0.3,2l-0.5-0.5
		l0.3,2.9l-0.6-0.5l0.1,3.5l-0.6-0.3l-0.1,2l-0.5-0.5l-0.3,2.9l-0.9-0.3l-0.7,2.6l-0.6-0.9l-0.3,2.3l-1-0.7l-0.5,2.2l-0.4-0.6
		l-0.8,2l-0.5-0.6l-0.9,2.3l-0.3-0.7l-0.7,1.7l-0.4-0.4l-0.6,1.9l-0.6-1.9l-0.4,0.4l-0.7-1.7l-0.3,0.7l-0.9-2.3l-0.5,0.6l-0.8-2
		l-0.4,0.6l-0.5-2.2l-1,0.7l-0.3-2.3l-0.6,0.9l-0.7-2.6l-0.9,0.3l-0.3-2.9l-0.5,0.5l-0.1-2l-0.6,0.3l0.1-3.5l-0.6,0.5l0.3-2.9
		l-0.5,0.5c0,0,0.5-2,0.3-2l-0.3,0.2l0.5-2.3c0,0-0.1-0.2-0.5,0c0.1-0.4,1.1-2.2,1.1-2.2h-0.6c0.2-0.5,1.2-2.2,1.2-2.2l-0.5,0.1
		c0.2-0.8,1.7-2.8,1.7-2.8h-0.4c0-0.1,0.1-0.1,0.1-0.1c1.9-3.7,7.2-6.6,7.2-6.6S66.5,1804.7,66.5,1804.7z"/>
	<path d="M65.4,1843l-0.4-1.3l0.1-37h0.8l-0.1,37"/>
	<path fill="#3E879F" d="M59,1797c0,0-2.9-5.3-6.5-7.2c-0.1,0-0.1-0.1-0.1-0.1v0.4c0,0-2-1.6-2.7-1.8l0.1,0.5c0,0-1.7-1-2.2-1.2v0.6
		c0,0-1.7-1-2.2-1.1c0.2,0.3,0,0.5,0,0.5L43,1787c0,0,0.2,0.2,0.2,0.3c0.1,0.1-2-0.3-2-0.3l0.5,0.5l-2.9-0.3l0.5,0.6l-3.5-0.2
		l0.3,0.6l-2,0.1l0.4,0.5l-2.9,0.2l0.3,0.9l-2.6,0.6l0.9,0.6l-2.3,0.3l0.7,1l-2.2,0.5l0.6,0.4l-2,0.8l0.6,0.5l-2.3,0.9l0.7,0.4
		l-1.7,0.7l0.4,0.4l-1.9,0.6l1.9,0.6l-0.4,0.4l1.7,0.7l-0.7,0.3l2.3,0.9l-0.9,0.5l2,0.8l-0.6,0.4l2.2,0.5l-0.7,1l2.3,0.3l-0.9,0.6
		l2.6,0.7l-0.3,0.9l2.9,0.3l-0.5,0.5l2,0.1l-0.3,0.6l3.5-0.1l-0.5,0.6l2.9-0.2l-0.5,0.5c0,0,2.1-0.4,2-0.3c-0.1,0.1-0.2,0.3-0.2,0.3
		l2.3-0.5c0,0,0.2,0.1,0,0.5c0.4-0.1,2.2-1,2.2-1v0.6c0.5-0.2,2.3-1.2,2.3-1.2l-0.1,0.5c0.8-0.2,2.8-1.7,2.8-1.7v0.4
		c0.1,0,0.1-0.1,0.1-0.1c3.7-1.9,6.7-7,6.7-7S59,1797,59,1797z"/>
	<path d="M20.6,1797.6l1.3,0.4l37,0.3v-0.8l-37-0.3"/>
	<path fill="#E73267" d="M64,1783.3c1.5,3,1.7,8.3,1.2,11.4c-2.2,11.5-11.6,7.5-11.6,7.5l-0.2-0.1c0,0-9.5-3.7-3.1-13.5
		c1.8-2.6,5.6-6.3,8.8-7.4C59.1,1781.2,64,1783.3,64,1783.3z"/>
	<path fill="#E73267" d="M61.5,1782.6l2.4,1l2-2.9l-2.8,0.2l-0.4-1.5l-1.3,0.8l-1.9-2l-0.6,3.5 M79.9,1799.4
		c-3-1.6-8.3-1.8-11.4-1.3c-11.6,2.1-7.7,11.5-7.7,11.5l0.1,0.2c0,0,3.6,9.5,13.4,3.3c2.6-1.8,6.3-5.5,7.5-8.7
		C81.8,1804.3,79.9,1799.4,79.9,1799.4z"/>
</g>
<g id="Layer_3">
	<path fill="#80B9AA" d="M25,1933.3c0.7-1.3,2.2-3.1,5.1-4.2c4.8-1.8,8.4-6.2,8.4-6.2s1,0.5,0.9,2.4c10-5.4,7.9-9.5,9.3-9
		c1.4,0.5,2.1,3.5,2.6,2.7c0.5-0.8,2-2.2,3.9-4.4c11.9-16.4-3.3-37.3-3.3-37.3s-25.8,1-31.3,20.4c-0.6,2.9-0.8,4.9-1,5.8
		c-0.2,0.9,2.5-0.4,3.8,0.3c1.3,0.8-3.3,1.7-1.3,12.9c1.5-1.3,2.5-0.8,2.5-0.8s-1.2,5.5,0.4,10.4C26.1,1929.7,25.5,1932,25,1933.3
		L25,1933.3z"/>
	<path d="M28.1,1925.8l14.7-30.2l-19.6,20.8c-0.3,0.1-0.6,0.3-1,0.6c-0.1-0.2-0.1-0.5-0.1-0.7l21.9-23.3l3.5-7.2L20.7,1904
		c-0.6,0.1-1.1,0.1-1-0.2v-0.1l28.5-19.3l3.3-6.8c0.3,0,0.5-0.1,0.5-0.1s0.1,0.1,0.3,0.4l-3.3,6.8l2.5,34.3l-0.1,0.1
		c-0.2,0.3-0.5-0.1-0.8-0.6l-2.3-32.2l-3.5,7.2l-4.7,31.6c-0.2,0.1-0.4,0.2-0.6,0.3c0.1-0.5,0-0.9-0.1-1.2l4.2-28.2l-14.7,30.2"/>
</g>
<g id="Layer_4">
	<path fill="#2C9783" d="M38.6,1864.4c0,0,0-0.1,0.3-0.5c0.2-0.3,0.4-0.5,0.4-0.5s-1.9-0.5-3.7-2.2c-0.6-0.6-0.7-0.9-0.7-0.9
		s0.3-0.6,1.1-1c0,0-1-0.5-2-1.4c-0.9-0.9-1.5-2-1.5-2s0.4-0.6,0.9-0.7s-0.6,0-1.9-1.6c-1.2-1.6-1.4-3.1-1.4-3.1s0.3-0.6,1-0.9
		c0,0-0.9-0.5-1.7-2.3c-0.8-1.7-0.5-3.6-0.5-3.8c0.2-0.1,2-0.8,3.8-0.6c2,0.2,2.7,1,2.7,1c0.1-0.7,0.6-1.2,0.6-1.2s1.5-0.3,3.4,0.4
		s2.2,1.8,2.1,1.3c-0.1-0.5,0.4-1.1,0.4-1.1s1.3,0.1,2.4,0.8c1.1,0.6,1.9,1.5,1.9,1.5c0.1-0.9,0.6-1.3,0.6-1.3s0.3-0.1,1.1,0.4
		c2.2,1.2,3.2,2.9,3.2,2.9s0.1-0.2,0.3-0.5c0.2-0.3,0.3-0.4,0.3-0.4s0.2-0.1,1.1,0.8c0.9,0.9,2.1,3.4,2.1,3.4
		c0.6-0.6,0.8-1.3,1.5-0.5c2,2.6,3.4,5.6,4.2,8.7c0.4,1.4,0.6,2.9,0.8,4.4c0.1,0.8,0.2,1.6,0.2,2.5c-1-0.8-1.2-1-1.6-1.3
		c-3.7-2.7-6.2-3.8-9-4.6c1.6,2.4,3.3,4.5,7,7.3c0.3,0.2,0.6,0.4,1.7,1.2c-0.8,0.2-1.7,0.4-2.4,0.5c-1.5,0.3-2.9,0.5-4.4,0.5
		c-3.2,0.1-6.6-0.3-9.6-1.6c-0.9-0.3-0.3-0.8,0.1-1.5c0,0-2.7-0.4-3.8-1C38.5,1864.6,38.6,1864.4,38.6,1864.4"/>
</g>
</svg>
