<?xml version="1.0" encoding="UTF-8" standalone="no"?>
<svg
   xmlns:dc="http://purl.org/dc/elements/1.1/"
   xmlns:cc="http://creativecommons.org/ns#"
   xmlns:rdf="http://www.w3.org/1999/02/22-rdf-syntax-ns#"
   xmlns:svg="http://www.w3.org/2000/svg"
   xmlns="http://www.w3.org/2000/svg"
   class="{{ include.class }}"
   viewBox="0 0 36.463582 45.816327"
   version="1.1"
   id="svg851"
   width="36.463581"
   height="45.816326">
  <metadata
     id="metadata857">
    <rdf:RDF>
      <cc:Work
         rdf:about="">
        <dc:format>image/svg+xml</dc:format>
        <dc:type
           rdf:resource="http://purl.org/dc/dcmitype/StillImage" />
        <dc:title></dc:title>
      </cc:Work>
    </rdf:RDF>
  </metadata>
  <defs
     id="defs855" />
  <g
     fill="#8cb279"
     id="g849"
     transform="translate(-57.639516,-28.234032)">
    <path
       d="m 62.528097,59.950359 c 0,0 -0.2,0.2 1.1,1.5 1.2,1.3 4.6,3 4.6,3 -0.8,0.8 -1.8,1.1 -0.7,2 3.4,2.8 7.6,4.8 11.9,6.1 2,0.6 4,1 6,1.2 1.1,0.1 2.3,0.3 3.5,0.3 -1,-1.4 -1.4,-1.7 -1.7,-2.2 -3.7,-5.1 -5.1,-8.7 -6.1,-12.5 3.3,2.3 6.2,4.8 9.8,9.9 0.3,0.5 0.5,1 1.5,2.4 0.3,-1.2 0.6,-2.4 0.8,-3.4 0.4,-1.9 0.7,-4 0.8,-6 0.3,-4.5 -0.3,-9.1 -1.8,-13.3 -0.5,-1.3 -1.1,-0.5 -2.1,0 0,0 -0.5,-3.8 -1.3,-5.4 -0.8,-1.6 -1.1,-1.5 -1.1,-1.5 0,0 -0.2,0.1 -0.7,0.4 -0.5,0.4 -0.7,0.6 -0.7,0.6 0,0 -0.6,-2.7 -2.9,-5.1 -0.8,-0.9 -1.2,-1 -1.2,-1 0,0 -0.9,0.4 -1.4,1.5 0,0 -0.7,-1.5 -1.8,-2.8 -1.1,-1.4 -2.8,-2.1 -2.8,-2.1 0,0 -0.9,0.6 -1,1.3 -0.1,0.7 0,-0.9 -2.2,-2.6 -2.3,-1.7 -4.3,-2 -4.3,-2 0,0 -0.9,0.4 -1.2,1.2 0,0 -0.6,-1.3 -3.1,-2.4 -2.4,-1 -5,-0.8 -5.3,-0.8 -0.2,0.3 -1.2,2.7 -1,5.3 0.3,2.8 1.3,3.8 1.3,3.8 -1,0.1 -1.7,0.8 -1.7,0.8 0,0 -0.4,2 0.5,4.7 0.9,2.6 2.4,3 1.7,2.9 -0.7,-0.1 -1.5,0.5 -1.5,0.5 0,0 0.1,1.8 1,3.3 0.8,1.5 2,2.7 2,2.7 -1.3,0.1 -1.9,0.8 -1.9,0.8 0,0 -0.1,0.4 0.5,1.5 1.6,3 3.9,4.5 3.9,4.5 0,0 -0.3,0.1 -0.8,0.4 -0.5,0.3 -0.6,0.5 -0.6,0.5"
       id="path847" />
  </g>
</svg>
