<?xml version="1.0" encoding="utf-8"?>
<svg width="489" height="332.6" viewBox="0 0 550 550" xmlns="http://www.w3.org/2000/svg">
  <g fill="#8CB279" transform="matrix(0.760704, 0, 0, 0.760704, 88.969864, 148.380814)" style="">
    <path d="M337.4 169.6s-1.1-.4-4.4-.4c-3.7 0-5.1.7-5.1.7s6.2-15.8 3.7-36c-1.1-7.7-2.6-9.2-2.6-9.2s-5.5-1.1-12.1 2.6c0 0 1.8-9.9.7-20.6-1.1-10.6-6.6-20.2-6.6-20.2s-6.2-.4-9.5 2.9 3.3-4.4-1.8-20.9c-4.8-16.5-14-25-14-25s-5.9-.7-11 2.2c0 0 1.5-8.8-7-23.1C259.5 9.2 246 1.1 244.1 0c-1.8 1.1-15.4 9.2-23.5 22.8-8.4 14.3-7 23.1-7 23.1-5.1-2.9-11-2.2-11-2.2s-9.2 8.4-14 25c-4.8 16.5 1.5 23.9-1.8 20.9-3.3-3.3-9.5-2.9-9.5-2.9s-5.5 9.5-6.6 20.2.7 20.6.7 20.6c-6.6-3.7-12.1-2.6-12.1-2.6s-1.5 1.5-2.6 9.2c-2.9 20.2 3.7 36 3.7 36s-1.8-.7-5.1-.7c-3.7 0-4.4.4-4.4.4s-1.8.4-.4 11.4c1.5 11 12.5 31.2 12.5 31.2-6.6.7-12.9-1.1-10.6 7 7.3 26.4 20.9 51 37.8 72.3 7.7 9.5 16.2 18.7 25.3 27.2 4.8 4.4 10.3 9.5 16.2 14-.4-10.6-.7-13.6-.7-16.9 0-38.6 5.9-60.9 14-83.7 8.4 22.8 14 45.2 14 83.7 0 3.3-.4 6.6-.7 16.9 5.9-4.4 11.4-9.5 16.2-14 9.2-8.4 17.6-17.3 25.3-27.2 16.9-21.3 30.5-46.3 37.8-72.3 2.2-8.1-3.7-6.2-10.6-7 0 0 11-20.6 12.5-31.2-.3-11.2-2.1-11.6-2.1-11.6m133.3 49.2s-.4-.7-1.8-1.8c-1.8-1.1-2.9-1.5-2.9-1.5s8.4-5.5 14.3-16.5c2.2-4 1.8-5.5 1.8-5.5s-2.2-2.6-7-2.9c0 0 4.4-4.4 7.3-9.9 3.3-5.5 3.7-12.1 3.7-12.1s-2.9-2.2-5.5-1.8c-2.6.4 2.9-1.1 6.2-10.6 3.3-9.9 1.8-17.3 1.8-17.3s-2.6-2.6-6.2-2.9c0 0 3.7-3.7 4.8-14 .7-9.5-2.9-18.4-3.7-19.5-1.1 0-11-.7-19.5 2.9-9.2 4-11.4 8.8-11.4 8.8-1.5-3.3-4.8-4.8-4.8-4.8s-7.3 1.1-15.8 7.3c-8.1 6.2-7.7 12.1-8.1 9.5-.4-2.6-3.7-4.8-3.7-4.8s-6.2 2.6-10.3 7.7c-4 4.8-6.6 10.3-6.6 10.3-1.8-4-5.1-5.5-5.1-5.5s-1.5.4-4.4 3.7c-8.4 8.8-10.6 18.7-10.6 18.7s-.7-.7-2.6-2.2c-1.8-1.1-2.6-1.5-2.6-1.5s-1.1-.4-4 5.5-4.8 19.8-4.8 19.8c-3.7-1.8-5.9-4.8-7.7 0-5.5 15.4-7.7 32.3-6.6 48.8.4 7.3 1.5 15.1 2.9 22 .7 3.7 1.8 8.1 2.9 12.5 3.7-5.1 4.4-7 5.5-8.8 13.2-18.7 23.9-27.9 36-36.3-3.7 14-8.8 27.2-22.4 45.9-1.1 1.8-2.6 2.9-6.2 8.1 4.4 0 8.8-.7 12.9-1.1 7.3-.7 14.7-2.2 22-4.4 15.8-4.8 31.2-12.1 43.7-22.4 4-3.3.4-4.4-2.6-7.3 0 0 12.5-6.2 16.9-11 4.9-4.3 4.2-5.1 4.2-5.1"/>
    <path d="M151.6 169.6s1.1-.4 4.4-.4c3.7 0 5.1.7 5.1.7s-6.2-15.8-3.7-36c1.1-7.7 2.6-9.2 2.6-9.2s5.5-1.1 12.1 2.6c0 0-1.8-9.9-.7-20.6 1.1-10.6 6.6-20.2 6.6-20.2s6.2-.4 9.5 2.9-3.3-4.4 1.8-20.9c4.8-16.5 14-25 14-25s5.9-.7 11 2.2c0 0-1.5-8.8 7-23.1C229.4 9.2 243 1.1 244.9 0c1.8 1.1 15.4 9.2 23.5 22.8 8.4 14.3 7 23.1 7 23.1 5.1-2.9 11-2.2 11-2.2s9.2 8.4 14 25c4.8 16.5-1.5 23.9 1.8 20.9 3.3-3.3 9.5-2.9 9.5-2.9s5.5 9.5 6.6 20.2-.7 20.6-.7 20.6c6.6-3.7 12.1-2.6 12.1-2.6s1.5 1.5 2.6 9.2c2.9 20.2-3.7 36-3.7 36s1.8-.7 5.1-.7c3.7 0 4.4.4 4.4.4s1.8.4.4 11.4c-1.5 11-12.5 31.2-12.5 31.2 6.6.7 12.9-1.1 10.6 7-7.3 26.4-20.9 51-37.8 72.3-7.7 9.5-16.2 18.7-25.3 27.2-4.8 4.4-10.3 9.5-16.2 14 .4-10.6.7-13.6.7-16.9 0-38.6-5.9-60.9-14-83.7-8.4 22.8-14 45.2-14 83.7 0 3.3.4 6.6.7 16.9-5.9-4.4-11.4-9.5-16.2-14-9.2-8.4-17.6-17.3-25.3-27.2-16.9-21.3-30.5-46.3-37.8-72.3-2.2-8.1 3.7-6.2 10.6-7 0 0-11-20.6-12.5-31.2.3-11.2 2.1-11.6 2.1-11.6M17.9 218.8s.4-.7 2.2-1.8c1.8-1.1 2.9-1.5 2.9-1.5S14.6 210 8.8 199c-2.2-4-1.8-5.5-1.8-5.5s2.2-2.6 7-2.9c0 0-4.4-4.4-7.3-9.9-3.3-5.5-3.7-12.1-3.7-12.1s2.9-2.2 5.5-1.8c2.6.4-2.9-1.1-6.2-10.6C-1 146.3.5 138.9.5 138.9s2.6-2.6 6.2-2.9c0 0-3.7-3.7-4.8-14-.7-9.5 2.9-18.4 3.7-19.5 1.1 0 10.6-.7 19.5 2.9 9.2 4 11.4 8.8 11.4 8.8 1.1-2.9 4.4-4.4 4.4-4.4s7.3 1.1 15.8 7.3c8.1 6.2 7.7 12.1 8.1 9.5.4-2.6 3.7-4.8 3.7-4.8s6.2 2.6 10.3 7.7c4 4.8 6.6 10.3 6.6 10.3 1.8-4 5.1-5.5 5.1-5.5s1.5.4 4.4 3.7c8.4 8.8 10.6 18.7 10.6 18.7s.7-.7 2.6-2.2c1.8-1.1 2.6-1.5 2.6-1.5s1.1-.4 4 5.5 4.8 19.8 4.8 19.8c3.7-1.8 5.9-4.8 7.7 0 5.5 15.4 7.7 32.3 6.6 48.8-.4 7.3-1.5 15.1-2.9 22-.7 3.7-1.8 8.1-2.9 12.5-3.7-5.1-4.4-7-5.5-8.8-13.2-18.7-23.9-27.9-36-36.3 3.7 14 8.8 27.2 22.4 45.9 1.1 1.8 2.6 2.9 6.2 8.1-4.4 0-8.8-.7-12.9-1.1-7.3-.7-14.7-2.2-22-4.4-15.8-4.8-31.2-12.1-43.7-22.4-4-3.3-.4-4.4 2.6-7.3 0 0-12.5-6.2-16.9-11-5-4.7-4.3-5.5-4.3-5.5"/>
  </g>
</svg>