<svg class="{{ include.class }}" alt="{{ include.alt }}" parallax={{ include.parallax }} xmlns="http://www.w3.org/2000/svg" width="1049" height="819.9" viewBox="0 0 1049 819.9"><path fill="#FFB01E" d="M759.8 201.6c-1.8 6.3-44.5 207.8-71.9 220.9-27.4 13.1-139.7-8-139.7-8l4.6-30.5s91.7 1.1 103.9-11l37.1-127.3"/><path fill="#323333" d="M993.3 780.6s35.2 44.7 43.5 38.8c8.3-5.9 24.2-5.4-3.3-42-27.5-36.5-17.1-60.2-60.3-28.7 6.9 13.1 20.1 31.9 20.1 31.9z"/><path fill="#323333" d="M958.2 757.3s46.3 33 52.7 25c6.3-8 21.7-12-15-39.3-36.7-27.3-33.3-53-65.9-10.6 10.3 10.5 28.2 24.9 28.2 24.9z"/><path fill="#AA998F" d="M717.9 220.4s-12.5-41-14.2-47.7c-1.8-6.8-5-20.9-18.1-9.7-13.1 11.2-29.3 4.6-33.5.5-4.2-4.1 9.4-21.4 1.9-17.9-2.3 1.1-11.7 4.4-14-2.2-2.3-6.6-1.5-11.5-6.1-9.3-4.6 2.2-8.2 2.2-10-2.5-1.8-4.7 6.1-13.3-3-29.2-17.1-29.7-8.2-47-8.2-47s28.6 2.3 39.6-6.8c11.1-9.1 18.9 24.5 23.1 38.5l1.7 10.4 6.2-2.1s-4.6-27.3 6-26.4c10.6.8 12.4 31.4 21.8 35.7 9.4 4.3 13.6 16.1 13.6 16.1s9 8.5 9.7-4.6c0 0 17.6 51.6 38.3 51.3-.2-.2-3.1 160.2-54.8 52.9z"/><path fill="#323333" d="M611.6 59.2s28.6 2.3 39.6-6.8c11.1-9.1 18.9 24.5 23.1 38.4l1.7 10.4 11.7-3.6s-10.1-25.8.5-25c10.6.8 12.4 31.4 21.8 35.7 9.4 4.3 13.6 16.1 13.6 16.1s9 8.5 9.7-4.6c0 0 2.2 20.9 8.7 20.7 0 0 6.6-.3 8.7-11.5 2.1-11.2 10.7-12.1 18.8-18.4 8.1-6.3-4.1-37.8-4.1-37.8-15.8-60-45.9-57-69.8-68.7-23.9-11.7-23.5 6.3-36.3.7-35.3-15.4-51.9 17.4-72 35-20 17.6-23.4 54.6-23.4 54.6l47.7-35.2z"/><path fill="#B29A4B" d="M249.5 422.7c90 52.2 124.4 82.4 176.3 80.3 35.5-1.7 42.4-.1 41.3 2.9-1.1 3-23.3 2.7-23.3 2.7s-13.9 8.9 10.7 13.2c24.6 4.4 36.3 5.4 36.6 8.3.3 2.9-21.5 1.5-30.4-.3 7.6 3.4 29.4 4.3 31.1 6.5 1.7 2.2 3.4 4.4-13.8 1.6-17.2-2.8-26.5-3.7-26.5-3.7s-11.3 6.6 23.6 12.2c9.3.8 13.7 6.1 6.4 5.5-7.3-.6-28.9-3.9-33.1-6.7-4.2-2.9-7.3 3.2 15 9.1 9.8 1.5 14.4 7.7 5.5 5.4s-42.7-14.8-52.4-19.4c-9.7-4.7-27.5-12.2-40.8-15-13.3-2.8-118.7-43.9-147.4-58"/><path fill="#323333" d="M375.2 767s-26.9 27.7-12.4 31.1c14.6 3.5 92.2 4.7 101.2-.5 9-5.3 5-9.3 2.6-16.1-2.4-6.8-70.6-10.6-91.4-14.5z"/><path fill="#CB7428" d="M195.4 625.1c17.9 7.4 34.1 15.2 48.4 23.3 107.6 60.4 117.5 134.8 63 147.9-61.7 14.9-275.7-58.7-280.7-66.7s5-40.8 5-40.8L254 729.6s-35.8-10-92.6-19.9C104.8 699.8 36.1 648 36.1 648l-4-17.9 162.2-90.6s145.3-32.8 175.2-22.9c29.9 10 30.9 254.8 30.9 254.8l-34.8 10.9s-30.8-138.9-27.3-183c.1-1.5.3-2.8.5-4.1l6-38.8s-5 33.8-10.9 41.8c-6 8-81.6 43.2-115.5 42.5"/><path fill="#B29A4B" d="M109.7 201.4s2.6-14.9-7.9-9.4 1 37.6-6.8 46.1-6.9 22.4-6.9 22.4-5.5 12.6-11.9-.5c0 0 4.4 60.6-16.8 69.4 0 0 82 129.2 88.2-3.4 0 0-14.1-13.4-15.2-21.1-1.1-7.7-4.3-22.7 14.3-17.9 37.8 9.8 32.6-7.9 34.6-14.1 4.5-14.1-18.9-17.2-19.3-20-.4-2.8 23.4 1.9 22.9-5.9-.6-7.8-3.5-12.5 2.2-12.2 5.7.3 9.4-1.4 9.1-7-.2-5.6-17.2-23.6-5.7-45.1 18-33.7-35.4-28.2-35.4-28.2s-8.8 5.1-24.1.5c-15.3-4.5-16.2 26.4-14.4 42.5l-6.9 3.9z"/><path fill="#DDDBD9" d="M33.1 168.3s-29.5 30.5 45.8 105l20.9-7.5s-13.4-10.3-5-17c13.4-10.7-4.1-38 5.9-42.9 10-4.9 15.1 12.8 15.1 12.8l4.7-12.8 2.4-20.4 59.8-5.8s38.2-4.8 19.7-18.6c0 0-138.6-77.4-169.3 7.2z"/><path fill="#EC7134" d="M26.6 168.5c42.6-93.4 193.4-8 193.4-8 21.1 15.8-22.5 21.2-22.5 21.2l-68.3 6.6c0-.1-129 37.9-102.6-19.8z"/><path fill="#FFB01E" d="M261 424.1c-6-4-117.2-137.5-188.8-134.2 0 0-75.5 23.3-50.8 161.4C41 560.1 23 606.8 23 606.8s-13.4 39.5 21.2 42.8c35.6 3.4 121.9-19.2 144.4-92.2 2.6-41.1 0-95.5 0-95.5l97.2 43.8s39.8 15.9 19.9-66.7"/><path fill="#323333" d="M30.6 692.8S1.1 672 0 685.9c-1.1 13.9 9.1 85.8 15.3 93.3 6.2 7.5 9.4 3.2 15.3 0 6-3.1-.5-66.6 0-86.4z"/><path fill="#DDDBD9" d="M173.5 199.2s-18.5-3.8-31.2-.5c-3.2 1.2-5.6 2.1-3.8-.4 1.8-2.5 28.3-5.6 33.2-4 4.8 1.8 1.8 4.9 1.8 4.9z"/><path d="M172.2 207.2s-.1-.5-4.8.8c-1.3.4.4.4-1.3.8-1.7.4-8.4 1-8.4 1s-5.2 1.7-.6 1.5c4.6-.2 11.6.6 12-1.1.4-1.7 3.2.2 3.3-1.8 0-1.1-.2-1.2-.2-1.2z"/><path fill="#DDDBD9" d="M96.5 241.3c-8.6-7.6-8.1 19.3-8.1 19.3C94.7 281.8 147 287 147 287c37.8 9.8 32.6-7.9 34.6-14.1 4.5-14.1-18.9-17.2-19.3-20-.4-2.8 23.4 1.9 22.9-5.9-.6-7.8-3.5-12.5 2.2-12.2 0 0-19.9-3.2-29.2 11.1-9.3 14.4-40-16.8-37-46l-8.6 11.3c0 .1 3.1 47-16.1 30.1z"/><path fill-rule="evenodd" clip-rule="evenodd" fill="#F68769" d="M414.4 560.1h110.3l31.1-172.4H383.4"/><path fill="#B29A4B" d="M178.2 358.7c15.5 9.7 77.7 52.7 133.2 60 22 3.6 27.5 7.1 37.6 6 10.1-1.1 21.9-1.3 33.6-12.1 11.7-10.8 14.6-15.9 17.6-17.3 3-1.4 5.1 2.2 0 8.6-5.1 6.3-12.6 11.8-10.9 12.7 1.7.9 25-4.5 33.6-10.9 1.6-.8 3.9-.6.7 3.4s-19.8 12.7-19.8 12.7-5.4 2.7-1.1 2.7c4.3 0 22.3-6 26.7-10.1 4.5-4.1 6.5-.8 3.6 2.5s-20.2 13.5-25.8 13.3c-5.6-.2-3 3.5 4.2 1.5 7.3-2 18.9-7 22.4-10.7 3.5-3.7 5.3 3.1-2.4 7.7-7.7 4.7-22 11.4-25.3 11.3-3.3-.1-2.4 5.3 7.4 2.4s23.3-9 20.8-5.7-25.8 18.2-54.4 18.4c-28.6.2-84.7-1.8-100.9-5.1-16.2-3.2-54.4-7.1-102.3-36.8"/><path fill="#FFB01E" d="M163.1 348.9L279.7 396l-37.8 66.4L115 392.9"/><path fill-rule="evenodd" clip-rule="evenodd" fill="#4356A0" d="M366.2 358.7h209.9v35.7H366.2z"/><path fill="#AEBCBC" d="M985.9 731.7l-27.7.6-4.7-21.7-102.3 2.2V493.5l-32-2.3v-18.9l-149.6-.5c.4 3 .8 5.9 1.2 8.7l-1.1-.1c1.2 9.1 2.7 17.7 4.5 25.8 7.1 53 11 75.7 11 75.7s-2.4 192 68.3 194.9l27.9-2.3c11.2 13 24.1 21.4 38.5 22L996 780.8l-10.1-49.1z"/><path fill="#F2D1BB" d="M862.2 596.8s-199.5-40.7-203.7-73.7c-4.2-33.1 24.7-142.8 24.7-142.8s4.3-138.6 10.1-147.2c5.8-8.7 76.5-99.6 76.5-99.6l21.7 47.6s107.3-30.7 70.7 415.7z"/><path fill="#FFB01E" d="M813.5 263.9c-1.8 6.3-44.5 207.8-71.9 220.9-27.4 13.1-139.7-8-139.7-8l4.6-30.5s91.7 1.1 103.9-11l32-128.5"/><path fill="#DDDBD9" d="M502.7 415.5c.3 4 10.8 17.7 33.8 25.5-11.3-4.7-21.1-9.1-25.7-8.9-4.6.3 16.5 17 35.4 21.8 18.8 4.8 31.7 5.8 39.7 9.7 1 .5 17.1 16.9 25.6 21.1l9.7-41.4c-6.6-2.4-12 3.7-13.9 3.2-16.9-4.7-21.9-22.7-28.5-29.5-6.6-6.8-29.1-17.6-32.5-13.5 0 0 9.8 11.7 24.7 17.2 0 0 5.2 1.5 2.8 1.8-2.3.3-20.3-4.6-20.3-4.6-3.2-1.9-25.1-17.8-28.4-19.7-3.3-1.9-8.7-.7-5.9 2.9 2.7 3.7 28.3 23.3 35.2 25.9-8.1-2-34.9-17.5-38.5-22.7-1.1-1.6-10.9-4.5-5.5 4.9 5.4 9.3 26.1 22.2 32.9 25-4.5-1.1-29.4-13.2-32.5-17-1-1.5-8.4-5.7-8.1-1.7"/><path d="M659 91.1s-18.3-5-22-4c-3.7.9-14.2-.3-7.1-5.7 2.4-1.7 24.9 2 27.2 5 2.2 2.8 1.9 4.7 1.9 4.7zm-24 9s0-.5 4.6-.4c1.3 0-.3.5 1.4.5 1.6-.1 7.9-1.2 7.9-1.2s5.1.4.9 1.4c-4.2 1-10.5 3.8-11.2 2.1-.7-1.7-2.9 1.1-3.3-1-.4-1.3-.3-1.4-.3-1.4z"/></svg>