<svg class="{{ include.class }}" alt="{{ include.alt }}" parallax={{ include.parallax }} xmlns="http://www.w3.org/2000/svg" viewBox="0 0 239.2 365.6"><path fill="#4CA392" d="M61.5 302.1s13.2-36.6-.7-48.7c-13.9-12-49.2-41.4-48.8-72.5.4-31.1 13.5-34.2 18.8-19 5.3 15.3 16.2 86.5 30.9 44.3 3-11.2-10.6-43.6-18.9-57.1-8.3-13.5-27.5-69.5-1.6-68.8C67 81 70.4 167.9 72.9 174c2.4 6.1 6.6 18.8 13-10.9 6.3-29.7-19.3-145.3 25.1-161 44.5-15.7 37.5 58.2 9.1 122.8-28.4 64.5-32.7 75-25.2 72.1 7.5-2.9 39.5-60.8 61.8-38 22.3 22.8-41.5 54.4-60.9 71.8s-23.6 46.5-22.2 60.9c1.5 14.6-15.4 21.8-12.1 10.4z"/><path fill="#4CA392" d="M116.9 360s13.2-36.6-.7-48.7c-13.9-12-49.2-41.4-48.8-72.5.4-31.1 13.5-34.2 18.8-19 5.3 15.3 16.2 86.5 30.9 44.3 3-11.2-10.6-43.6-18.9-57.1-8.3-13.5-27.5-69.5-1.6-68.8 25.9.7 29.3 87.6 31.8 93.6 2.4 6.1 6.6 18.8 13-10.9 6.4-29.7-19.3-145.3 25.2-161 44.5-15.7 37.5 58.3 9.1 122.8s-32.7 75-25.2 72.1c7.5-2.9 39.5-60.8 61.8-38 22.3 22.8-41.5 54.4-60.9 71.8s-23.6 46.5-22.2 60.9c1.3 14.7-15.6 21.9-12.3 10.5z"/><path fill="#5AC1AE" d="M73 319.9s-3-22-13.3-24.4c-10.2-2.4-35.9-7.9-43.9-23.7-8-15.8-2.3-20.9 4.4-14.6 6.7 6.3 31.2 39.4 27.4 14.2-1.4-6.5-16.9-19.2-24.7-23.8-7.8-4.6-32.4-27.8-19.1-34.3 13.3-6.5 38.1 36.5 40.9 38.9 2.8 2.4 8.3 7.7 3.7-9-4.7-16.7-48.3-68.3-30-88.1 18.3-19.7 34.4 19.5 37.2 59.6 2.8 40.1 3.4 46.6 6.4 43.2 3-3.4 3.8-41.2 21.1-35.6 17.3 5.6-6.5 38.5-11.7 52.4-5.2 14 .4 29.8 5 36.7 4.6 7-2 15.1-3.4 8.5zm89.1-35s7.8-23.8 3.6-39.4c-4.2-15.6-9.2-24.7-5.9-38.2 3.3-13.4-10.8-25.2-8.3-34.2 2.5-9 5.7-30.2 20-28.4 14.3 1.8 7.9 42.9 3.1 63-4.8 20.1 3.2 26.6 5 19.5 1.9-7.1 15.6-41.9 30.7-48.9s40.9.9 22.2 22.5c-18.6 21.5-46.3 21.4-53.4 45-7.1 23.6-9.9 29.1-.3 27.9 9.5-1.2 26.1-33.3 43.1-28.3 16.9 5 .3 37.2-21.8 36.6-22.2-.6-35.8 3.2-37.1 7.1-1.3 3.8-.9-4.2-.9-4.2z"/><path fill="#5AC1AE" d="M99.1 212.2s7.8-23.8 3.6-39.4c-4.2-15.6-9.2-24.7-5.9-38.2 3.3-13.4-10.8-25.2-8.3-34.2 2.5-9 5.7-30.2 20-28.4 14.3 1.8 7.9 42.9 3.1 63-4.8 20.1 3.2 26.6 5 19.5 1.9-7.1 15.6-41.9 30.7-48.9s40.9.9 22.2 22.5c-18.6 21.5-46.3 21.4-53.4 45-7.1 23.6-9.9 29.1-.3 27.9 9.5-1.2 26.1-33.3 43.1-28.3 16.9 5 .3 37.2-21.8 36.6-22.2-.6-35.8 3.2-37.1 7.1-1.3 3.7-.9-4.2-.9-4.2z"/><path fill="#5AC1AE" d="M127.8 321s-3.7-32.2 5.7-50.9c9.4-18.7 18.1-28.9 17.5-46.8-.6-17.9 20.3-29.1 19.4-41.2-.8-12 .6-39.8-17.9-41.2-18.6-1.4-21.3 52.3-20.4 79 .8 26.7-11 32.9-11.5 23.3-.5-9.5-8.8-57.2-26.1-70.1-17.3-12.9-52-9.6-34 22.6s53.1 39.2 55.9 71c2.8 31.8 4.9 39.5-6.9 35.4-11.7-4-24.4-49.1-47.1-47.1-22.8 1.9-10.2 47.1 18.1 52.1 28.2 5 44.5 13.4 45.1 18.6.6 5.6 2.2-4.7 2.2-4.7z"/></svg>